<svg width="18" height="18" viewBox="0 0 18 18" fill="none" xmlns="http://www.w3.org/2000/svg">
<path fill-rule="evenodd" clip-rule="evenodd" d="M9.5296 0.983931C9.24542 0.672023 8.75458 0.672023 8.4704 0.98393L7.52921 2.01696C7.34069 2.22388 7.04894 2.30205 6.78222 2.21712L5.45061 1.79308C5.04855 1.66505 4.62347 1.91047 4.53332 2.32268L4.23474 3.68791C4.17494 3.96136 3.96136 4.17494 3.68791 4.23474L2.32268 4.53332C1.91047 4.62347 1.66505 5.04855 1.79308 5.45061L2.21712 6.78222C2.30205 7.04894 2.22388 7.34069 2.01696 7.52921L0.983931 8.4704C0.672023 8.75458 0.672023 9.24542 0.98393 9.5296L2.01696 10.4708C2.22388 10.6593 2.30205 10.9511 2.21712 11.2178L1.79308 12.5494C1.66505 12.9514 1.91047 13.3765 2.32268 13.4667L3.68791 13.7653C3.96136 13.8251 4.17494 14.0386 4.23474 14.3121L4.53332 15.6773C4.62347 16.0895 5.04855 16.3349 5.45061 16.2069L6.78222 15.7829C7.04894 15.698 7.34069 15.7761 7.52921 15.983L8.4704 17.0161C8.75458 17.328 9.24542 17.328 9.5296 17.0161L10.4708 15.983C10.6593 15.7761 10.9511 15.698 11.2178 15.7829L12.5494 16.2069C12.9514 16.3349 13.3765 16.0895 13.4667 15.6773L13.7653 14.3121C13.8251 14.0386 14.0386 13.8251 14.3121 13.7653L15.6773 13.4667C16.0895 13.3765 16.3349 12.9514 16.2069 12.5494L15.7829 11.2178C15.698 10.9511 15.7761 10.6593 15.983 10.4708L17.0161 9.5296C17.328 9.24542 17.328 8.75458 17.0161 8.4704L15.983 7.52921C15.7761 7.34069 15.698 7.04894 15.7829 6.78222L16.2069 5.45061C16.3349 5.04855 16.0895 4.62347 15.6773 4.53332L14.3121 4.23474C14.0386 4.17494 13.8251 3.96136 13.7653 3.68791L13.4667 2.32268C13.3765 1.91047 12.9515 1.66505 12.5494 1.79308L11.2178 2.21712C10.9511 2.30205 10.6593 2.22388 10.4708 2.01696L9.5296 0.983931ZM8.31818 8.98075L6.06536 6.81838L5.34789 7.49069C5.3314 7.50648 5.30614 7.51175 5.28438 7.50352C5.26368 7.49431 5.25 7.4739 5.25 7.45317L5.25211 5.30825C5.25211 5.27863 5.27807 5.25428 5.30894 5.25428L7.5975 5.25C7.62066 5.25 7.64136 5.26349 7.65013 5.28291C7.6589 5.30463 7.65434 5.32733 7.63855 5.34346L6.9109 6.02465L8.99351 7.97871L11.0779 6.02366L10.3604 5.34938C10.3439 5.33326 10.339 5.31154 10.3481 5.29081C10.3576 5.2704 10.3783 5.2579 10.4014 5.2579L12.6868 5.25987C12.7184 5.25987 12.7437 5.28291 12.7437 5.31318L12.75 7.45877C12.75 7.48049 12.7349 7.50122 12.7135 7.50879C12.6921 7.51701 12.6669 7.51274 12.6504 7.49727L11.9234 6.81542L9.68182 8.98075L11.9234 11.1846L12.6504 10.5027C12.6669 10.4873 12.6921 10.483 12.7135 10.4912C12.7349 10.4988 12.75 10.5195 12.75 10.5412L12.7437 12.6868C12.7437 12.7171 12.7184 12.7401 12.6868 12.7401L10.4014 12.7421C10.3783 12.7421 10.3576 12.7296 10.3481 12.7092C10.339 12.6885 10.3439 12.6667 10.3604 12.6506L11.0779 11.9763L8.99351 10.0213L6.9109 11.9754L7.63855 12.6565C7.65434 12.6727 7.6589 12.6954 7.65013 12.7171C7.64136 12.7365 7.62066 12.75 7.5975 12.75L5.30894 12.7457C5.27807 12.7457 5.25211 12.7214 5.25211 12.6918L5.25 10.5468C5.25 10.5261 5.26368 10.5057 5.28438 10.4965C5.30614 10.4883 5.3314 10.4935 5.34789 10.5093L6.06536 11.1816L8.31818 8.98075Z" fill="#8292A7"/>
</svg>
