<svg width="18" height="18" viewBox="0 0 18 18" fill="none" xmlns="http://www.w3.org/2000/svg">
<path d="M7.21963 6.0032C6.99839 5.78196 6.69229 5.65527 6.37952 5.65527C6.23737 5.65527 6.09796 5.68482 5.96582 5.73377L11.2666 11.0345C11.3155 10.9024 11.3451 10.763 11.3451 10.6208C11.3451 10.3081 11.2184 10.0019 10.9971 9.7807L7.21963 6.0032Z" fill="#8292A7"/>
<path d="M5.76865 10.1384L2.81768 13.6489L2.6272 13.5863C2.48688 13.5396 2.3605 13.5173 2.24139 13.5173C1.55675 13.5173 1 14.0741 1 14.7587C1 15.4434 1.55675 16.0001 2.24139 16.0001C2.92603 16.0001 3.48277 15.4434 3.48277 14.7587C3.48277 14.6396 3.4605 14.5132 3.41383 14.3729L3.35124 14.1824L6.86138 11.2315L5.76865 10.1384Z" fill="#8292A7"/>
<path d="M13.1937 4.72388C13.0478 4.72388 12.9017 4.75828 12.7706 4.82374L12.2766 5.0709L11.7823 4.82344C11.6515 4.75828 11.5055 4.72388 11.3595 4.72388C10.8386 4.72388 10.4146 5.14788 10.4146 5.66886C10.4146 5.97451 10.535 6.23621 10.7441 6.41593L12.2766 7.729L13.8088 6.41593C14.0182 6.23621 14.1387 5.97451 14.1387 5.69841C14.1387 5.14788 13.7147 4.72388 13.1937 4.72388Z" fill="#8292A7"/>
<path d="M4.86502 6.67662C4.64377 6.89786 4.51709 7.20397 4.51709 7.51674C4.51709 7.82951 4.64377 8.13561 4.86502 8.35686L8.64252 12.1344C8.86376 12.3556 9.16987 12.4823 9.48264 12.4823C9.79541 12.4823 10.1015 12.3556 10.3228 12.1344L10.9059 11.5512L5.44813 6.09351L4.86502 6.67662Z" fill="#8292A7"/>
<path d="M15.6897 0.999756H8.8621C8.69087 0.999756 8.55176 1.13887 8.55176 1.3101V6.4575L11.4358 9.34154C11.7725 9.67825 11.9656 10.1444 11.9656 10.6205C11.9656 10.9492 11.8715 11.272 11.704 11.5515H15.6897C15.861 11.5515 16.0001 11.4124 16.0001 11.2412V1.3101C16.0001 1.13887 15.861 0.999756 15.6897 0.999756ZM14.2118 6.8871L12.2759 8.54643L10.34 6.8871C9.99242 6.58948 9.79315 6.15579 9.79315 5.69845C9.79315 4.8056 10.4955 4.10322 11.3588 4.10322C11.5999 4.10322 11.8424 4.16035 12.0589 4.26794L12.2759 4.3769L12.4926 4.2684C12.7095 4.16035 12.9519 4.10322 13.193 4.10322C14.0563 4.10322 14.7587 4.8056 14.7587 5.6689C14.7587 6.15579 14.5594 6.58948 14.2118 6.8871Z" fill="#8292A7"/>
</svg>
