<svg width="18" height="18" viewBox="0 0 18 18" fill="none" xmlns="http://www.w3.org/2000/svg">
<path d="M12.2945 13.744L8.55445 3.076C8.43509 2.73463 8.0571 2.55081 7.70896 2.67226L1.4457 4.82227C1.10087 4.94044 0.915195 5.31464 1.03787 5.6593L4.77793 16.3273C4.89729 16.6687 5.27527 16.8525 5.62342 16.731L11.8867 14.5777C12.2315 14.4596 12.4172 14.0854 12.2945 13.744ZM6.41254 4.00822C6.48549 3.86051 6.66453 3.80143 6.81042 3.87036L7.21824 4.06402L7.41387 3.66028C7.48681 3.51257 7.66586 3.45349 7.81175 3.52242C7.96095 3.59463 8.02063 3.77188 7.951 3.91631L7.49344 4.85181L6.54848 4.39883C6.4026 4.3299 6.3396 4.15265 6.41254 4.00822ZM6.74742 14.8961L6.28986 15.8316L5.3449 15.3787C5.1957 15.3064 5.13602 15.1292 5.20565 14.9848C5.27859 14.8371 5.45763 14.778 5.60352 14.8469L6.01135 15.0406L6.20697 14.6368C6.27992 14.4891 6.45896 14.43 6.60485 14.499C6.75737 14.5745 6.82037 14.7517 6.74742 14.8961ZM8.08363 8.84657L7.1022 10.9408L5.02328 9.90024C4.61214 9.6836 4.43973 9.19123 4.62541 8.77107C4.79782 8.38046 5.2587 8.20321 5.65326 8.37389C5.67315 8.38046 5.68973 8.39031 5.70631 8.40015L6.29981 8.66275L6.60153 8.0916C6.98946 7.24145 7.70565 7.73053 7.68244 7.72068C8.09689 7.93404 8.26931 8.42641 8.08363 8.84657Z" fill="#8292A7"/>
<path d="M16.0491 5.21366L11.0391 3.49365L10.3926 5.34168L13.2009 13.3509L16.0491 5.21366Z" fill="#8292A7"/>
<path d="M17.1098 4.1895L10.8465 2.03621C10.5017 1.91804 10.1237 2.09858 10.001 2.43995L9.68604 3.33606C9.68935 3.34591 9.69267 3.35576 9.69598 3.36232L10.1071 4.53416L10.621 3.0669C10.6675 2.92904 10.82 2.85682 10.9592 2.90606L16.4732 4.80004C16.6124 4.84599 16.6854 4.99699 16.6356 5.13485L13.4725 14.1551C13.6051 14.7426 13.2736 15.3335 12.7 15.5337L12.0037 15.7733L12.9354 16.0917C13.2802 16.2099 13.6582 16.0293 13.7809 15.688L17.5209 5.01996C17.6403 4.68187 17.4579 4.30767 17.1098 4.1895Z" fill="#8292A7"/>
</svg>
