<svg width="48" height="48" viewBox="0 0 48 48" fill="none" xmlns="http://www.w3.org/2000/svg">
<path fill-rule="evenodd" clip-rule="evenodd" d="M0 23.9898V47.6893H41.3654V40.7619H42.8333V37.2445H47.1341V21.055C47.6611 20.6384 48 19.9942 48 19.2704C48 18.0166 46.9824 17 45.7286 17C44.4749 17 43.4582 18.0166 43.4582 19.2704C43.4582 19.9942 43.7981 20.6394 44.3251 21.055V34.4346H42.8333V30.9181H41.3654V23.9888H31.465H9.90048L0 23.9898ZM14.4 30.4245V40.9845H5.76V30.4245H14.4ZM24.96 30.4245V40.9845H16.32V30.4245H24.96ZM26.88 30.4245H35.52V40.7619H26.88V30.4245ZM38.6122 26.743H2.75328V44.935H38.6122V30.9181V26.743ZM30.2755 34.7562L28.3008 35.1766L29.6467 36.6627L29.4442 38.6451L31.2941 37.8426L33.144 38.6451L32.9414 36.6627L34.2874 35.1766L32.3117 34.7562L31.2941 33.0349L30.2755 34.7562ZM22.3248 36.6618L23.6707 35.1757L21.696 34.7562L20.6784 33.0349L19.6598 34.7562L17.6842 35.1766L19.0301 36.6627L18.8275 38.6451L20.6774 37.8426L22.5274 38.6451L22.3248 36.6618ZM11.7139 36.6618L13.0598 35.1757L11.0842 34.7552L10.0666 33.0339L9.048 34.7552L7.07328 35.1757L8.4192 36.6618L8.21664 38.6442L10.0666 37.8416L11.9165 38.6442L11.7139 36.6618ZM2.75328 26.743H38.6122V44.935H2.75328V26.743Z" fill="#8292A7"/>
<path d="M16.7078 14.061L18.8485 10.9546L20.3028 9H17.3128L15.6839 11.6526L15.3931 12.1413C15.3311 12.2343 15.2885 12.3158 15.2651 12.3857H15.2303C15.207 12.2925 15.1644 12.211 15.1023 12.1413C14.9393 11.8464 14.8501 11.6837 14.8347 11.6526L13.2175 9H10.0064L11.6003 10.9546L13.7527 14.1191L11.4607 17.5048L9.97144 19.4477H12.9731L14.7764 16.5393C14.8928 16.353 14.9898 16.1824 15.0673 16.0273L15.172 15.783H15.207C15.2303 15.876 15.273 15.9575 15.3349 16.0273L15.6143 16.516L17.4642 19.4477H20.3497L19.0811 17.5048L16.7078 14.061Z" fill="#8292A7"/>
<path d="M27.2243 17.72H23.9555C23.993 17.3549 24.1856 17.0132 24.5332 16.695C24.881 16.3766 25.2897 16.0818 25.7591 15.8103C26.2285 15.5388 26.6962 15.2463 27.1612 14.9328C27.6261 14.6192 28.0208 14.2166 28.3451 13.7248C28.669 13.2333 28.8314 12.6791 28.8314 12.0612C28.8314 11.1343 28.5116 10.3925 27.873 9.83555C27.2345 9.27852 26.3982 9 25.3647 9C24.3503 9 23.4669 9.30439 22.7159 9.91282C22.3679 10.1842 22.072 10.4932 21.8278 10.8395L23.3077 12.1313C23.5145 11.8785 23.6834 11.7004 23.8151 11.5977C24.2476 11.2322 24.7029 11.0497 25.1819 11.0497C25.567 11.0497 25.8981 11.1643 26.1754 11.3937C26.4524 11.6232 26.5906 11.9158 26.5906 12.2713C26.5906 12.5803 26.4686 12.8798 26.2244 13.1704C25.9805 13.4606 25.6748 13.7129 25.3082 13.9283C24.9422 14.1435 24.5476 14.3987 24.1246 14.6932C23.702 14.9881 23.3072 15.2926 22.9407 15.6059C22.5746 15.9194 22.2691 16.3245 22.0249 16.8207C21.7806 17.3171 21.6583 17.8645 21.6583 18.4634C21.6583 18.4731 21.6725 18.6884 21.7005 19.1093L21.7569 19.4882H29.0001V17.72H27.2243Z" fill="#8292A7"/>
</svg>
