<svg width="24" height="24" viewBox="0 0 24 24" fill="none" xmlns="http://www.w3.org/2000/svg">
<path d="M17.5228 6.43115H1.64453C1.28853 6.43115 1 6.71985 1 7.07568V15.5434C1 15.8994 1.28853 16.1879 1.64453 16.1879H17.5228C17.8788 16.1879 18.1674 15.8994 18.1674 15.5434V7.07568C18.1674 6.71985 17.8788 6.43115 17.5228 6.43115ZM15.4059 14.071C15.4059 14.427 15.1174 14.7156 14.7614 14.7156H4.40594C4.05011 14.7156 3.76141 14.427 3.76141 14.071V8.5482C3.76141 8.1922 4.05011 7.90367 4.40594 7.90367H14.7614C15.1174 7.90367 15.4059 8.1922 15.4059 8.5482V14.071Z" fill="#8292A7"/>
<path d="M11.9542 9.19263H14.1169V13.4264H11.9542V9.19263Z" fill="#8292A7"/>
<path d="M8.50244 9.19263H10.6651V13.4264H8.50244V9.19263Z" fill="#8292A7"/>
<path d="M5.05066 9.19263H7.21353V13.4264H5.05066V9.19263Z" fill="#8292A7"/>
<path d="M2.38074 22.3553C2.38074 22.7113 2.66943 22.9999 3.02527 22.9999H16.1422C16.4982 22.9999 16.7867 22.7113 16.7867 22.3553V17.4771H2.38074V22.3553ZM12 18.9494H13.3807C13.7367 18.9494 14.0253 19.2379 14.0253 19.5939C14.0253 19.9498 13.7367 20.2385 13.3807 20.2385H12C11.644 20.2385 11.3555 19.9498 11.3555 19.5939C11.3555 19.2379 11.644 18.9494 12 18.9494Z" fill="#8292A7"/>
<path d="M16.7867 4.40594C16.7867 2.52791 15.2589 1 13.3807 1H5.78668C3.90865 1 2.38074 2.52791 2.38074 4.40594V5.14212H16.7867V4.40594Z" fill="#8292A7"/>
<path d="M20.3302 6.96631V10.665H19.4564V11.954H20.9748C21.3306 11.954 21.6193 11.6655 21.6193 11.3095V6.96631C21.4107 7.0076 21.1951 7.02975 20.9748 7.02975C20.7542 7.02975 20.5389 7.0076 20.3302 6.96631Z" fill="#8292A7"/>
<path d="M20.9746 1.69043C19.8579 1.69043 18.9493 2.59898 18.9493 3.71567C18.9493 4.83235 19.8579 5.74091 20.9746 5.74091C22.0913 5.74091 22.9998 4.83235 22.9998 3.71567C22.9998 2.59898 22.0913 1.69043 20.9746 1.69043Z" fill="#8292A7"/>
</svg>