<svg width="14" height="18" viewBox="0 0 14 18" fill="none" xmlns="http://www.w3.org/2000/svg">
<path d="M8.60768 1.51622L3.09088 0.0380255C2.51124 -0.117289 1.91547 0.226702 1.76015 0.806303L0.281922 6.32311C0.126607 6.90274 0.470599 7.49851 1.0502 7.65383L6.567 9.13203C7.14664 9.28734 7.74241 8.94335 7.89772 8.36375L9.37596 2.84694C9.53131 2.26734 9.18732 1.67157 8.60768 1.51622Z" fill="#8292A7"/>
<path d="M13.6708 15.1539L12.1926 9.63712C12.0373 9.05748 11.4415 8.71352 10.8619 8.86884L5.34512 10.347C4.76549 10.5024 4.42153 11.0981 4.57685 11.6778L6.05508 17.1946C6.21039 17.7742 6.80616 18.1182 7.3858 17.9628L12.9026 16.4846C13.4821 16.3294 13.8262 15.7336 13.6708 15.1539Z" fill="#8292A7"/>
<path d="M10.2763 12.2348C10.7264 12.2348 11.0912 11.8699 11.0912 11.4199C11.0912 10.9698 10.7264 10.605 10.2763 10.605C9.82627 10.605 9.46143 10.9698 9.46143 11.4199C9.46143 11.8699 9.82627 12.2348 10.2763 12.2348Z" fill="#191A26"/>
<path d="M7.97114 16.2265C8.4212 16.2265 8.78604 15.8616 8.78604 15.4116C8.78604 14.9615 8.4212 14.5967 7.97114 14.5967C7.52109 14.5967 7.15625 14.9615 7.15625 15.4116C7.15625 15.8616 7.52109 16.2265 7.97114 16.2265Z" fill="#191A26"/>
<path d="M9.12397 14.2309C9.57403 14.2309 9.93887 13.866 9.93887 13.416C9.93887 12.9659 9.57403 12.6011 9.12397 12.6011C8.67392 12.6011 8.30908 12.9659 8.30908 13.416C8.30908 13.866 8.67392 14.2309 9.12397 14.2309Z" fill="#191A26"/>
<path d="M3.67622 3.4042C4.12627 3.4042 4.49111 3.03936 4.49111 2.58931C4.49111 2.13925 4.12627 1.77441 3.67622 1.77441C3.22617 1.77441 2.86133 2.13925 2.86133 2.58931C2.86133 3.03936 3.22617 3.4042 3.67622 3.4042Z" fill="#191A26"/>
<path d="M6.82515 4.24746C7.2752 4.24746 7.64004 3.88262 7.64004 3.43257C7.64004 2.98252 7.2752 2.61768 6.82515 2.61768C6.37509 2.61768 6.01025 2.98252 6.01025 3.43257C6.01025 3.88262 6.37509 4.24746 6.82515 4.24746Z" fill="#191A26"/>
<path d="M2.83296 6.55239C3.28301 6.55239 3.64785 6.18755 3.64785 5.7375C3.64785 5.28745 3.28301 4.92261 2.83296 4.92261C2.38291 4.92261 2.01807 5.28745 2.01807 5.7375C2.01807 6.18755 2.38291 6.55239 2.83296 6.55239Z" fill="#191A26"/>
<path d="M5.9814 7.39639C6.43145 7.39639 6.79629 7.03155 6.79629 6.58149C6.79629 6.13144 6.43145 5.7666 5.9814 5.7666C5.53134 5.7666 5.1665 6.13144 5.1665 6.58149C5.1665 7.03155 5.53134 7.39639 5.9814 7.39639Z" fill="#191A26"/>
</svg>
