<svg width="18" height="13" viewBox="0 0 18 13" fill="none" xmlns="http://www.w3.org/2000/svg">
<path d="M12.1158 2.71118C9.27451 2.71118 6.97168 5.01442 6.97168 7.8553C6.97168 10.6962 9.27471 12.9998 12.1158 12.9998C14.9569 12.9998 17.2601 10.6964 17.2601 7.8553C17.2601 5.01422 14.9569 2.71118 12.1158 2.71118ZM12.985 3.48868C13.0008 3.49153 13.7871 3.63951 14.617 4.1737L14.178 4.77741C13.7354 4.45563 13.2891 4.27472 12.862 4.18854L12.985 3.48868ZM11.4168 3.43075L11.5186 4.10947C10.8966 4.20338 10.4029 4.43368 10.0116 4.72557L9.60279 4.15114C9.61661 4.14158 10.3555 3.62874 11.4168 3.43075ZM8.38643 10.2144C8.37769 10.202 7.95591 9.59366 7.72967 8.69013L8.46062 8.58016C8.53583 9.07857 8.69926 9.49385 8.91127 9.84124L8.38643 10.2144ZM8.422 6.96316L7.84025 6.86091C7.84289 6.84567 7.98619 6.0826 8.50087 5.26668L9.0127 5.63927C8.68889 6.08463 8.50798 6.53345 8.422 6.96316ZM11.2115 12.2589C11.196 12.2559 10.4293 12.1124 9.61133 11.5944L10.0555 10.9838C10.4852 11.2964 10.9179 11.4751 11.3338 11.5643L11.2115 12.2589ZM13.046 12.1443L12.9518 11.5168C13.6824 11.3292 14.1731 10.9887 14.1834 10.9816L14.6091 11.5802C14.1806 11.8457 13.6661 12.0508 13.046 12.1443ZM12.1158 10.6017C10.5992 10.6017 9.36964 9.37189 9.36964 7.8553C9.36964 6.33851 10.5988 5.10874 12.1158 5.10874C13.6326 5.10874 14.8622 6.33851 14.8622 7.8553C14.8624 9.37189 13.6326 10.6017 12.1158 10.6017ZM15.7663 5.2433C16.1112 5.7159 16.3828 6.30944 16.4948 7.053L15.8147 7.15504C15.6559 6.26737 15.2248 5.64516 15.2171 5.63439L15.7663 5.2433ZM15.3045 9.82376C15.733 9.1487 15.8523 8.51389 15.8543 8.50109L16.5601 8.62528C16.4531 9.14138 16.2326 9.68045 15.8435 10.2157L15.3045 9.82376Z" fill="#8292A7"/>
<path d="M12.1158 9.83532C13.2093 9.83532 14.0958 8.94883 14.0958 7.85528C14.0958 6.76174 13.2093 5.87524 12.1158 5.87524C11.0222 5.87524 10.1357 6.76174 10.1357 7.85528C10.1357 8.94883 11.0222 9.83532 12.1158 9.83532Z" fill="#8292A7"/>
<path d="M6.63141 9.6776L6.53709 9.0499C6.55152 9.04604 6.56534 9.04238 6.57957 9.03832C6.50497 8.71227 6.45883 8.37647 6.44481 8.03193C6.2082 8.0982 5.95899 8.13479 5.70125 8.13479C4.18466 8.13479 2.95509 6.90481 2.95509 5.38842C2.95509 3.87163 4.18446 2.64186 5.70125 2.64186C6.68446 2.64186 7.54652 3.15877 8.03172 3.93526C8.28297 3.68076 8.55839 3.45066 8.85476 3.24841C8.82386 3.19841 8.80415 3.16934 8.80232 3.16751L9.35216 2.77642C9.38184 2.81728 9.41009 2.86017 9.43875 2.90265C9.6345 2.80163 9.83695 2.71117 10.0451 2.63413C9.13263 1.19784 7.52884 0.243896 5.70125 0.243896C2.86016 0.243693 0.557129 2.54734 0.557129 5.38842C0.557129 8.22931 2.86016 10.5327 5.70125 10.5327C6.17263 10.5327 6.62897 10.4679 7.06295 10.349C6.94647 10.1262 6.84443 9.89448 6.75886 9.65503C6.71658 9.66235 6.6747 9.67069 6.63141 9.6776ZM6.57043 1.02201C6.58608 1.02506 7.37252 1.17263 8.20247 1.70702L7.76341 2.31073C7.32089 1.98896 6.87452 1.80805 6.44745 1.72166L6.57043 1.02201ZM5.00221 0.963874L5.10405 1.64259C4.48204 1.7365 3.9883 1.9668 3.59701 2.2587L3.18824 1.68426C3.20206 1.67491 3.94094 1.16226 5.00221 0.963874ZM1.97188 7.74776C1.96314 7.73536 1.54136 7.12678 1.31512 6.22345L2.04587 6.11348C2.12108 6.6119 2.28471 7.02718 2.49652 7.37456L1.97188 7.74776ZM2.00745 4.49587L1.4257 4.39403C1.42854 4.37879 1.57164 3.61572 2.08632 2.7998L2.59815 3.17239C2.27434 3.61816 2.09343 4.06697 2.00745 4.49587ZM4.79691 9.79224C4.78146 9.78919 4.01493 9.64548 3.19678 9.12755L3.64092 8.51714C4.07042 8.82976 4.50339 9.00864 4.91927 9.09767L4.79691 9.79224Z" fill="#8292A7"/>
<path d="M3.72119 5.38869C3.72119 6.48207 4.60744 7.36853 5.70103 7.36853C5.97422 7.36853 6.23461 7.31324 6.47142 7.21303C6.57732 6.22941 6.9432 5.32263 7.49874 4.5624C7.1855 3.88186 6.49926 3.40845 5.70123 3.40845C4.60744 3.40824 3.72119 4.2949 3.72119 5.38869Z" fill="#8292A7"/>
</svg>
