<svg width="18" height="18" viewBox="0 0 18 18" fill="none" xmlns="http://www.w3.org/2000/svg">
<path d="M3.00385 9.44189H0.511719C0.610149 11.4101 1.39105 13.2825 2.72033 14.7373L4.48143 12.9764C3.61573 11.9914 3.09668 10.7499 3.00385 9.44189Z" fill="#8292A7"/>
<path d="M4.45933 5.07189L2.69823 3.31079C1.36055 4.7865 0.585252 6.68618 0.508301 8.67664H2.99801C3.07122 7.34606 3.58541 6.07786 4.45933 5.07189Z" fill="#8292A7"/>
<path d="M3.26025 15.2791C4.71822 16.622 6.60072 17.4117 8.58053 17.5109V15.0187C7.26097 14.9248 6.00939 14.3975 5.0206 13.5186L3.26025 15.2791Z" fill="#8292A7"/>
<path d="M14.7373 2.72108C13.258 1.36976 11.348 0.58587 9.34619 0.508545V2.99844C10.6882 3.07221 11.9666 3.59462 12.9762 4.48199L14.7373 2.72108Z" fill="#8292A7"/>
<path d="M13.5181 5.02158C14.4189 6.03483 14.9497 7.3232 15.0242 8.67695H17.5139C17.4362 6.66333 16.6437 4.74329 15.2786 3.26123L13.5181 5.02158Z" fill="#8292A7"/>
<path d="M8.58028 3.0041V0.511963C6.58889 0.611701 4.6963 1.41016 3.23535 2.76671L4.99514 4.52668C5.98748 3.63446 7.24914 3.09879 8.58028 3.0041Z" fill="#8292A7"/>
<path d="M9.34619 15.0246V17.5144C11.3365 17.4375 13.2361 16.6622 14.712 15.3245L12.9508 13.5632C11.945 14.4373 10.6766 14.9515 9.34619 15.0246Z" fill="#8292A7"/>
<path d="M13.4956 13.027L15.2554 14.7868C16.6121 13.3257 17.4106 11.4333 17.5103 9.44189H15.018C14.9235 10.773 14.3876 12.0345 13.4956 13.027Z" fill="#8292A7"/>
<path d="M14.2686 9.01137C14.2686 6.10758 11.9147 3.75366 9.01112 3.75366C6.10734 3.75366 3.75342 6.10758 3.75342 9.01137C3.75342 11.9152 6.10734 14.2691 9.01112 14.2691C11.9134 14.2657 14.2655 11.9137 14.2686 9.01137ZM11.4497 9.4417H10.5952C10.4321 10.0371 9.94985 10.4916 9.34582 10.6186V11.4499C9.34582 11.6611 9.17455 11.8324 8.96331 11.8324C8.75207 11.8324 8.58079 11.6611 8.58079 11.4499V10.5954C8.01935 10.4417 7.5808 10.0031 7.42709 9.4417H6.57259C6.36135 9.4417 6.19008 9.27042 6.19008 9.05918C6.19008 8.84794 6.36135 8.67667 6.57259 8.67667H7.40374C7.53093 8.07264 7.98517 7.5902 8.58079 7.42733V6.57284C8.58079 6.3616 8.75207 6.19032 8.96331 6.19032C9.17455 6.19032 9.34582 6.3616 9.34582 6.57284V7.40417C9.98478 7.53846 10.484 8.03771 10.6183 8.67667H11.4497C11.6609 8.67667 11.8322 8.84794 11.8322 9.05918C11.8322 9.27042 11.6609 9.4417 11.4497 9.4417Z" fill="#8292A7"/>
</svg>
