<?xml version="1.0" encoding="UTF-8"?>
<svg width="36px" height="31px" viewBox="0 0 36 31" version="1.1" xmlns="http://www.w3.org/2000/svg" xmlns:xlink="http://www.w3.org/1999/xlink">
    <!-- Generator: Sketch 46 (44423) - http://www.bohemiancoding.com/sketch -->
    <title>Pointer</title>
    <desc>Created with Sketch.</desc>
    <defs></defs>
    <g id="Page-1" stroke="none" stroke-width="1" fill="none" fill-rule="evenodd">
        <g id="Active-button" transform="translate(-614.000000, -307.000000)" fill-rule="nonzero" fill="#FFFFFF">
            <g id="Input" transform="translate(573.000000, 298.000000)">
                <g id="Pointer" transform="translate(41.000000, 9.000000)">
                    <path d="M5.73290378,29.0872384 C9.88524668,12.5378179 21.7555825,1.5 36,1.5 L36,0.5 C21.3520375,0.5 9.17709322,11.7338155 4.84597383,28.5177513 L1.89953925,16.9614313 L0.93053888,17.2084906 L4.36706232,30.6870062 L4.93139223,30.5431229 L5.0865591,30.7548664 C5.704412,30.3021002 6.30774043,29.8949391 6.93532913,29.50483 C7.47780609,29.1676265 8.04194409,28.8406931 8.68926895,28.4857696 C8.67012052,28.4962685 13.9700732,25.7249502 16.2465005,24.4350143 L15.7534995,23.5649857 C13.4950348,24.844743 8.20366151,27.6115752 8.20849995,27.6089223 C7.54610492,27.9721087 6.96649086,28.3080108 6.40740837,28.6555364 C6.18011042,28.7968248 5.95583012,28.9403163 5.73290378,29.0872384 Z"></path>
                </g>
            </g>
        </g>
    </g>
</svg>