<svg xmlns="http://www.w3.org/2000/svg" width="178.447" height="63.162" viewBox="0 0 178.447 63.162">
  <g id="logo" transform="translate(-1.24 -12.694)">
    <path id="Path_1" data-name="Path 1" d="M11.752,49.462q-5.424,0-7.968-2.736T1.24,37.654A39.166,39.166,0,0,1,2.92,26.806,25.281,25.281,0,0,1,8.392,16.87a12.4,12.4,0,0,1,9.6-4.176A9.748,9.748,0,0,1,23.8,14.278a5.567,5.567,0,0,1,2.208,4.848,5.729,5.729,0,0,1-.816,3.264,2.9,2.9,0,0,1-2.544,1.152,3.33,3.33,0,0,1-2.736-1.248,3.77,3.77,0,0,0,1.536-1.728,5.768,5.768,0,0,0,.672-2.688,3.074,3.074,0,0,0-.72-2.112,2.705,2.705,0,0,0-2.208-.816q-2.544,0-4.848,3.5A29.9,29.9,0,0,0,10.6,27.19,39.881,39.881,0,0,0,9.208,37.366a10.252,10.252,0,0,0,1.248,5.568q1.248,1.92,4.512,1.92A11.17,11.17,0,0,0,20.2,43.606a12.122,12.122,0,0,0,4.128-3.552l1.1.48a12.675,12.675,0,0,1-3.552,5.04,15.986,15.986,0,0,1-5.04,2.976A15.852,15.852,0,0,1,11.752,49.462Zm18.2-.48a6.1,6.1,0,0,1-4.56-1.872q-1.824-1.872-1.824-5.856a22.057,22.057,0,0,1,1.392-7.44A17.323,17.323,0,0,1,29.18,27.19a9.343,9.343,0,0,1,6.72-2.736,5.141,5.141,0,0,1,2.928.672,2.072,2.072,0,0,1,.96,1.776v.336l.528-2.544h6.912l-3.456,16.32a5.941,5.941,0,0,0-.192,1.536q0,2.064,1.968,2.064a2.836,2.836,0,0,0,2.3-1.248A9.139,9.139,0,0,0,49.436,40.1h2.016q-1.776,5.184-4.416,7.056A9.028,9.028,0,0,1,41.8,48.982a4.744,4.744,0,0,1-3.264-1.1,5.219,5.219,0,0,1-1.44-3.312,13.6,13.6,0,0,1-3.12,3.216A6.754,6.754,0,0,1,29.948,48.982Zm3.12-4.656a3.417,3.417,0,0,0,2.352-1.1,5.972,5.972,0,0,0,1.632-3.12l2.3-10.848a1.855,1.855,0,0,0-.48-1.2,1.759,1.759,0,0,0-1.488-.624q-1.92,0-3.456,2.256a17.326,17.326,0,0,0-2.4,5.376,21,21,0,0,0-.864,5.52q0,2.4.672,3.072A2.444,2.444,0,0,0,33.068,44.326Zm21.858,4.656a8.027,8.027,0,0,1-3.888-.864,6.037,6.037,0,0,1-2.352-2.3,6.247,6.247,0,0,1-.768-2.976,4.817,4.817,0,0,1,.768-2.736,4.369,4.369,0,0,1,1.776-1.728,62.34,62.34,0,0,0,3.264-6.768q1.392-3.456,2.64-7.44l7.1-.96q.24,6.144.816,13.3.24,2.88.24,4.176a7.235,7.235,0,0,1-.192,1.824,19.7,19.7,0,0,0,3.456-2.4h2.016a28.055,28.055,0,0,1-7.344,6,8.458,8.458,0,0,1-3.456,2.208A12.826,12.826,0,0,1,54.925,48.982ZM53.389,45.19a3.929,3.929,0,0,0,4.176-4.464,39.01,39.01,0,0,0-.288-4.032q-.48-5.472-.624-7.344a55.542,55.542,0,0,1-3.888,9.072,1.816,1.816,0,0,1,1.1,1.68,2.424,2.424,0,0,1-.624,1.632,1.819,1.819,0,0,1-1.488.72,1.275,1.275,0,0,1-1.3-.624,3.965,3.965,0,0,0,.672,2.544A2.859,2.859,0,0,0,53.389,45.19Zm31.72,3.792a5.552,5.552,0,0,1-4.32-1.536,5.8,5.8,0,0,1-1.344-3.888,12.053,12.053,0,0,1,.24-2.256q.24-1.3.48-2.5.288-1.2.384-1.536.384-1.68.72-3.312a13.731,13.731,0,0,0,.336-2.64q0-2.448-1.728-2.448a2.76,2.76,0,0,0-2.208,1.248,9.142,9.142,0,0,0-1.536,3.168L72.869,48.694H65.957l6.96-32.64,7.1-.96-2.592,12.1A7.32,7.32,0,0,1,83.045,24.5a5.471,5.471,0,0,1,3.888,1.344,5.324,5.324,0,0,1,1.44,4.08,16.5,16.5,0,0,1-.336,3.12q-.336,1.68-.96,4.128-.384,1.488-.72,2.928a11.553,11.553,0,0,0-.288,2.208A2.29,2.29,0,0,0,86.5,43.8a1.826,1.826,0,0,0,1.488.528,2.882,2.882,0,0,0,2.3-1.008A12.592,12.592,0,0,0,92.021,40.1h2.016q-1.776,5.28-4.128,7.1A7.764,7.764,0,0,1,85.109,48.982Zm13.29,0A7.136,7.136,0,0,1,93.408,47.4a5.969,5.969,0,0,1-1.728-4.56,10.863,10.863,0,0,1,.336-2.736l5.136-24.048,7.1-.96-2.3,10.8a9.438,9.438,0,0,1,2.208-1.056,5.436,5.436,0,0,1,1.728-.288q5.664,0,5.664,8.208a22.029,22.029,0,0,1-1.3,7.1,14.88,14.88,0,0,1-4.224,6.432A10.843,10.843,0,0,1,98.4,48.982Zm2.688-4.656a3.552,3.552,0,0,0,2.784-1.824,15.32,15.32,0,0,0,2.064-4.608,20.03,20.03,0,0,0,.768-5.328,7.239,7.239,0,0,0-.672-3.264,2.063,2.063,0,0,0-1.872-1.344,6.49,6.49,0,0,0-1.632.24,2.028,2.028,0,0,0-1.2.624l-2.64,12.192a4.551,4.551,0,0,0-.144,1.1Q98.544,44.326,101.088,44.326ZM119.1,48.982a6.1,6.1,0,0,1-4.56-1.872q-1.824-1.872-1.824-5.856a22.057,22.057,0,0,1,1.392-7.44,17.323,17.323,0,0,1,4.224-6.624,9.343,9.343,0,0,1,6.72-2.736,5.141,5.141,0,0,1,2.928.672,2.072,2.072,0,0,1,.96,1.776v.336l.528-2.544h6.912l-3.456,16.32a5.941,5.941,0,0,0-.192,1.536q0,2.064,1.968,2.064a2.836,2.836,0,0,0,2.3-1.248,9.139,9.139,0,0,0,1.584-3.264h2.016q-1.776,5.184-4.416,7.056a9.028,9.028,0,0,1-5.232,1.824,4.744,4.744,0,0,1-3.264-1.1,5.219,5.219,0,0,1-1.44-3.312,13.6,13.6,0,0,1-3.12,3.216A6.754,6.754,0,0,1,119.1,48.982Zm3.12-4.656a3.417,3.417,0,0,0,2.352-1.1,5.972,5.972,0,0,0,1.632-3.12l2.3-10.848a1.855,1.855,0,0,0-.48-1.2,1.759,1.759,0,0,0-1.488-.624q-1.92,0-3.456,2.256a17.326,17.326,0,0,0-2.4,5.376,21,21,0,0,0-.864,5.52q0,2.4.672,3.072A2.443,2.443,0,0,0,122.224,44.326Zm23.249,4.656a7.815,7.815,0,0,1-5.52-1.824q-1.968-1.872-1.968-5.808a23.76,23.76,0,0,1,1.3-7.3,17.449,17.449,0,0,1,4.224-6.864,10.02,10.02,0,0,1,7.392-2.928q2.88,0,4.08,1.248a4.292,4.292,0,0,1,1.248,3.168,4.1,4.1,0,0,1-.72,2.592,2.229,2.229,0,0,1-1.824.912,3.034,3.034,0,0,1-1.68-.576,8.408,8.408,0,0,0,.576-2.832,2.664,2.664,0,0,0-.336-1.44,1.116,1.116,0,0,0-1.008-.528q-1.44,0-2.88,2.352A21.912,21.912,0,0,0,146,34.87a23.336,23.336,0,0,0-.912,6.048,4.746,4.746,0,0,0,.816,3.216,3.623,3.623,0,0,0,2.64.816,7.856,7.856,0,0,0,4.416-1.2,21.085,21.085,0,0,0,4.08-3.648h1.632Q153.345,48.982,145.473,48.982Zm29.606,0a6.511,6.511,0,0,1-4.512-1.392,5.32,5.32,0,0,1-1.536-4.08,11.961,11.961,0,0,1,.288-2.5l.384-1.872a7.749,7.749,0,0,0,.192-1.776q0-2.3-1.728-2.3a3.662,3.662,0,0,0-1.632.432,11.927,11.927,0,0,0-1.92,1.344l-2.5,11.856h-6.912l6.96-32.64,7.1-.96-3.6,16.9,9.264-7.3h4.752l-9.6,6.672a6.139,6.139,0,0,1,1.584-.192,4.874,4.874,0,0,1,3.936,1.584,6.015,6.015,0,0,1,1.344,4.032,7.979,7.979,0,0,1-.192,1.824l-.528,2.4a5.819,5.819,0,0,0-.24,1.536q0,1.776,1.872,1.776a3.782,3.782,0,0,0,1.344-.144,1.519,1.519,0,0,1,.336-.144,4.916,4.916,0,0,1-.912,2.688,5.338,5.338,0,0,1-1.824,1.68A3.645,3.645,0,0,1,175.079,48.982Z" fill="#ffd621"/>
    <path id="Path_2" data-name="Path 2" d="M59.809,69.412a6.552,6.552,0,0,1,.828-3.294,6.017,6.017,0,0,1,2.25-2.3,6.277,6.277,0,0,1,3.186-.828,6.447,6.447,0,0,1,3.582.99,5.673,5.673,0,0,1,2.232,2.808H69.925a3.921,3.921,0,0,0-1.512-1.746,4.3,4.3,0,0,0-2.34-.612,4.575,4.575,0,0,0-2.358.612,4.266,4.266,0,0,0-1.638,1.746,5.516,5.516,0,0,0-.594,2.628,5.583,5.583,0,0,0,.594,2.628,4.293,4.293,0,0,0,1.638,1.728,4.575,4.575,0,0,0,2.358.612,4.4,4.4,0,0,0,2.34-.594,3.921,3.921,0,0,0,1.512-1.746h1.962a5.681,5.681,0,0,1-2.232,2.79,6.536,6.536,0,0,1-3.582.972,6.386,6.386,0,0,1-3.186-.81,6.053,6.053,0,0,1-2.25-2.286A6.552,6.552,0,0,1,59.809,69.412Zm13.9,1.314a5.488,5.488,0,0,1,.612-2.646A4.446,4.446,0,0,1,76,66.3a4.664,4.664,0,0,1,2.394-.63,4.377,4.377,0,0,1,2.25.558,3.718,3.718,0,0,1,1.422,1.4v-1.8h1.656v9.864H82.065V73.858a3.906,3.906,0,0,1-1.458,1.44,4.34,4.34,0,0,1-2.232.558A4.471,4.471,0,0,1,76,75.208a4.545,4.545,0,0,1-1.674-1.818A5.662,5.662,0,0,1,73.714,70.726Zm8.352.018a4.01,4.01,0,0,0-.45-1.944,3.1,3.1,0,0,0-1.224-1.26,3.211,3.211,0,0,0-1.674-.45,3.314,3.314,0,0,0-1.674.432,3.134,3.134,0,0,0-1.206,1.26,4.01,4.01,0,0,0-.45,1.944,4.156,4.156,0,0,0,.45,1.98,3.262,3.262,0,0,0,1.206,1.278,3.459,3.459,0,0,0,3.348,0,3.222,3.222,0,0,0,1.224-1.278A4.116,4.116,0,0,0,82.065,70.744Zm7.916,5.112a5.208,5.208,0,0,1-2.034-.378,3.534,3.534,0,0,1-1.422-1.08,2.919,2.919,0,0,1-.576-1.6h1.692A1.669,1.669,0,0,0,88.326,74a2.677,2.677,0,0,0,1.638.468,2.37,2.37,0,0,0,1.476-.414,1.265,1.265,0,0,0,.54-1.044,1.011,1.011,0,0,0-.576-.954,7.71,7.71,0,0,0-1.782-.63,14.664,14.664,0,0,1-1.8-.576,3.418,3.418,0,0,1-1.188-.882,2.366,2.366,0,0,1-.486-1.548,2.332,2.332,0,0,1,.45-1.386,2.988,2.988,0,0,1,1.278-.99,4.5,4.5,0,0,1,1.89-.378,4.036,4.036,0,0,1,2.646.828,2.983,2.983,0,0,1,1.08,2.268H91.854a1.681,1.681,0,0,0-.63-1.242,2.279,2.279,0,0,0-1.512-.468,2.346,2.346,0,0,0-1.4.378,1.168,1.168,0,0,0-.522.99,1.134,1.134,0,0,0,.306.81,2.634,2.634,0,0,0,.792.5q.486.18,1.332.414a13.122,13.122,0,0,1,1.728.576,2.865,2.865,0,0,1,1.134.828,2.211,2.211,0,0,1,.5,1.458,2.5,2.5,0,0,1-.45,1.458A3.055,3.055,0,0,1,91.854,75.5,4.57,4.57,0,0,1,89.981,75.856ZM96.74,64.228a1.116,1.116,0,1,1,0-2.232,1,1,0,0,1,.756.324,1.13,1.13,0,0,1,0,1.584A1,1,0,0,1,96.74,64.228Zm.792,1.6v9.864H95.894V65.83Zm7.6-.18a3.979,3.979,0,0,1,2.916,1.1,4.16,4.16,0,0,1,1.116,3.132v5.814h-1.62v-5.58a3.138,3.138,0,0,0-.738-2.25,2.621,2.621,0,0,0-2.016-.792,2.729,2.729,0,0,0-2.07.81,3.334,3.334,0,0,0-.756,2.358v5.454h-1.638V65.83h1.638v1.4a3.266,3.266,0,0,1,1.314-1.17A4.16,4.16,0,0,1,105.13,65.65Zm11.009,10.206a5.1,5.1,0,0,1-2.52-.63,4.579,4.579,0,0,1-1.764-1.782,5.607,5.607,0,0,1-.63-2.7,5.341,5.341,0,0,1,.648-2.664,4.51,4.51,0,0,1,1.8-1.782,5.427,5.427,0,0,1,5.076,0,4.422,4.422,0,0,1,1.782,1.764,5.7,5.7,0,0,1-.018,5.382,4.634,4.634,0,0,1-1.818,1.782A5.239,5.239,0,0,1,116.139,75.856Zm0-1.44A3.459,3.459,0,0,0,117.795,74a3.092,3.092,0,0,0,1.242-1.242,3.919,3.919,0,0,0,.486-2.016,4.04,4.04,0,0,0-.468-2.016,3,3,0,0,0-1.224-1.224,3.356,3.356,0,0,0-1.638-.414,3.391,3.391,0,0,0-1.656.414,2.927,2.927,0,0,0-1.188,1.224,4.171,4.171,0,0,0-.45,2.016,4.358,4.358,0,0,0,.432,2.034,3.047,3.047,0,0,0,1.188,1.242A3.372,3.372,0,0,0,116.139,74.416Z" fill="#fff"/>
  </g>
</svg>
