<svg width="102" height="187" viewBox="0 0 102 187" fill="none" xmlns="http://www.w3.org/2000/svg">
<path d="M37.801 186.847C24.7979 186.847 15.247 183.567 9.14818 177.008C3.04939 170.449 0 159.575 0 144.385C0 132.303 2.01375 119.3 6.04125 105.376C10.1838 91.4524 16.7429 79.5425 25.7185 69.6463C34.8091 59.6351 46.3163 54.6295 60.2399 54.6295C68.8703 54.6295 75.8321 56.5282 81.1254 60.3255C86.4187 64.1229 89.0653 69.934 89.0653 77.7588C89.0653 82.7069 88.0872 86.6194 86.131 89.4961C84.1748 92.2579 81.1254 93.6387 76.9828 93.6387C72.8403 93.6387 69.5607 92.1428 67.1442 89.1509C69.2155 88.1153 71.0567 86.044 72.6677 82.9371C74.2787 79.8301 75.0842 76.6081 75.0842 73.2711C75.0842 70.1641 74.2211 67.6326 72.495 65.6763C70.884 63.7201 68.2374 62.742 64.5551 62.742C58.4563 62.742 52.6452 66.9421 47.1218 75.3423C41.5984 83.6275 37.1106 94.099 33.6584 106.757C30.3213 119.415 28.6528 131.612 28.6528 143.35C28.6528 152.095 30.1487 158.769 33.1406 163.372C36.1325 167.975 41.5408 170.276 49.3657 170.276C56.1549 170.276 62.4263 168.78 68.1799 165.789C73.9334 162.797 78.8815 158.539 83.0241 153.016L86.9941 154.742C84.1173 161.991 79.8596 168.032 74.2211 172.865C68.5826 177.698 62.5414 181.266 56.0974 183.567C49.6534 185.753 43.5546 186.847 37.801 186.847Z" fill="#FFC400"/>
<path fill-rule="evenodd" clip-rule="evenodd" d="M62.1981 5.53046C62.1981 4.31411 61.2113 3.32276 59.9979 3.32276C58.7845 3.32276 57.7955 4.31624 57.7976 5.53046C57.7976 6.75002 58.7845 7.73604 59.9979 7.73604C61.2138 7.73604 62.1981 6.75002 62.1981 5.53046ZM23.5146 12.465C22.3012 12.465 21.3144 13.4563 21.3144 14.6727C21.3144 15.8922 22.3012 16.8779 23.5146 16.8782C24.728 16.8782 25.7149 15.8922 25.7149 14.6727C25.7149 13.4563 24.728 12.465 23.5146 12.465ZM94.277 14.6748C94.277 15.8947 95.2659 16.8804 96.4794 16.8804C97.6928 16.8804 98.6771 15.8922 98.6771 14.6748C98.6771 13.4584 97.6928 12.4671 96.4794 12.4671C95.2659 12.4671 94.277 13.4584 94.277 14.6748ZM82.0954 54L83.5 50.5C83.5 50.5 70.8465 45.6755 59.9979 45.6755C49.1493 45.6755 36 50.5 36 50.5L36.9003 54C36.9003 54 49.1493 49 59.9979 49C70.8465 49 82.0954 54 82.0954 54Z" fill="#FFC400"/>
<path fill-rule="evenodd" clip-rule="evenodd" d="M59.9979 3.32276C61.2113 3.32276 62.1981 4.31411 62.1981 5.53046C62.1981 6.75002 61.2138 7.73604 59.9979 7.73604C58.7845 7.73604 57.7976 6.75002 57.7976 5.53046C57.7955 4.31624 58.7845 3.32276 59.9979 3.32276ZM21.3144 14.6727C21.3144 13.4563 22.3012 12.465 23.5146 12.465C24.728 12.465 25.7149 13.4563 25.7149 14.6727C25.7149 15.8922 24.728 16.8782 23.5146 16.8782C22.3012 16.8779 21.3144 15.8922 21.3144 14.6727ZM96.4794 16.8804C95.2659 16.8804 94.277 15.8947 94.277 14.6748C94.277 13.4584 95.2659 12.4671 96.4794 12.4671C97.6928 12.4671 98.6771 13.4584 98.6771 14.6748C98.6771 15.8922 97.6928 16.8804 96.4794 16.8804Z" fill="#FFC400"/>
<path fill-rule="evenodd" clip-rule="evenodd" d="M59.9979 3.32276C61.2113 3.32276 62.1981 4.31411 62.1981 5.53046C62.1981 6.75002 61.2138 7.73604 59.9979 7.73604C58.7845 7.73604 57.7976 6.75002 57.7976 5.53046C57.7955 4.31624 58.7845 3.32276 59.9979 3.32276ZM21.3144 14.6727C21.3144 13.4563 22.3012 12.465 23.5146 12.465C24.728 12.465 25.7149 13.4563 25.7149 14.6727C25.7149 15.8922 24.728 16.8782 23.5146 16.8782C22.3012 16.8779 21.3144 15.8922 21.3144 14.6727ZM96.4794 16.8804C95.2659 16.8804 94.277 15.8947 94.277 14.6748C94.277 13.4584 95.2659 12.4671 96.4794 12.4671C97.6928 12.4671 98.6771 13.4584 98.6771 14.6748C98.6771 15.8922 97.6928 16.8804 96.4794 16.8804Z" fill="#FFC400"/>
<path fill-rule="evenodd" clip-rule="evenodd" d="M90.9608 14.6727C90.9608 11.6229 93.4348 9.14043 96.4794 9.14043C99.5193 9.14043 102 11.6186 102 14.6684C102 17.7182 99.5257 20.1985 96.4811 20.1985C95.9028 20.1985 96.3585 21.083 95.8316 20.9173C95.8316 20.9173 89.3367 26.666 87.0973 33.631C84.858 40.596 84.3631 47.3447 84.3631 47.3447C84.3631 47.3447 71.7945 42.1238 59.9996 42.1238C48.2048 42.1238 35.6351 46.3447 35.6351 46.3447C35.6351 46.3447 35.1401 39.596 32.9007 33.631C30.6613 27.666 24.1663 19.9173 24.1663 19.9173C23.6415 20.083 24.0965 20.1985 23.5167 20.1985C20.4747 20.1985 18 17.7182 18 14.6684C18 11.6186 20.4743 9.13651 23.5167 9.13651C26.5591 9.13651 29.0335 11.6186 29.0335 14.6684C29.0335 15.8673 28.6417 16.9689 27.9917 17.8749L37.3667 24.6267L45.6092 30.3404C45.6092 30.3404 48.5 29 53.8004 20.0037C55.9182 16.4093 57.9916 10.6671 57.9916 10.6671C55.9403 9.86092 54.4786 7.87289 54.4786 5.53011C54.4786 2.48034 56.953 0 59.9954 0C63.0378 0 65.5121 2.48034 65.5121 5.53011C65.5121 7.86862 64.0526 9.86092 62.0006 10.6671C62.0006 10.6671 64.044 16.6441 66.1311 20.0037C70.5 27.0363 74.2617 30.1616 74.2617 30.1616L79.7377 26.3108L91.9994 17.8728C91.3516 16.9689 90.9608 15.8673 90.9608 14.6727ZM59.9979 3.32276C61.2113 3.32276 62.1981 4.31411 62.1981 5.53046C62.1981 6.75002 61.2138 7.73604 59.9979 7.73604C58.7845 7.73604 57.7976 6.75002 57.7976 5.53046C57.7955 4.31624 58.7845 3.32276 59.9979 3.32276ZM21.3144 14.6727C21.3144 13.4563 22.3012 12.465 23.5146 12.465C24.728 12.465 25.7149 13.4563 25.7149 14.6727C25.7149 15.8922 24.728 16.8782 23.5146 16.8782C22.3012 16.8779 21.3144 15.8922 21.3144 14.6727ZM96.4794 16.8804C95.2659 16.8804 94.277 15.8947 94.277 14.6748C94.277 13.4584 95.2659 12.4671 96.4794 12.4671C97.6928 12.4671 98.6771 13.4584 98.6771 14.6748C98.6771 15.8922 97.6928 16.8804 96.4794 16.8804ZM46.1798 32.025L31.8816 24.3758L39.9499 42.8035C39.9499 42.8035 52.5572 38.8035 59.9947 38.8035C67.4321 38.8035 79.0395 42.8035 79.0395 42.8035L88.1947 24.2272L74.3937 32.025C74.3937 32.025 66.6149 25.6552 64.1937 22.0037C61.7724 18.3523 59.9936 13.6536 59.9936 13.6536C59.9936 13.6536 58.0379 18.5644 55.7289 22.1011C52.9805 26.3108 46.1798 32.025 46.1798 32.025Z" fill="#FFC400"/>
<path d="M31.8816 24.3758L46.1798 32.025C46.1798 32.025 52.9805 26.3108 55.7289 22.1011C58.0379 18.5644 59.9936 13.6536 59.9936 13.6536C59.9936 13.6536 61.7724 18.3523 64.1937 22.0037C66.6149 25.6552 74.3937 32.025 74.3937 32.025L88.1947 24.2272L79.0395 42.8035C79.0395 42.8035 67.4321 38.8035 59.9947 38.8035C52.5572 38.8035 39.9499 42.8035 39.9499 42.8035L31.8816 24.3758Z" fill="#FFC400"/>
</svg>
