<svg width="210" height="210" viewBox="0 0 210 210" fill="none" xmlns="http://www.w3.org/2000/svg">
<g filter="url(#filter0_df)">
<path d="M105 20L113.403 73.6392L147.5 31.3878L127.958 82.0423L178.612 62.5L136.361 96.5969L190 105L136.361 113.403L178.612 147.5L127.958 127.958L147.5 178.612L113.403 136.361L105 190L96.5969 136.361L62.5 178.612L82.0423 127.958L31.3878 147.5L73.6392 113.403L20 105L73.6392 96.5969L31.3878 62.5L82.0423 82.0423L62.5 31.3878L96.5969 73.6392L105 20Z" fill="#AFBF00" fill-opacity="0.05"/>
</g>
<g filter="url(#filter1_d)">
<path d="M105.167 60L89.5339 116.647H120.8L105.167 60Z" fill="url(#paint0_linear)"/>
<path style="mix-blend-mode:color-dodge" opacity="0.83" d="M104.541 107.727C101.445 106.252 96.7608 99.3437 95.2454 95.9506L89.5339 116.647H120.8L118.299 107.593C113.851 109.363 109.272 109.981 104.541 107.727Z" fill="url(#paint1_linear)"/>
<path d="M105.167 60L89.5343 116.647L72.01 107.727L105.167 60Z" fill="url(#paint2_linear)"/>
<path d="M105.167 60L120.8 116.647L138.324 107.727L105.167 60Z" fill="url(#paint3_linear)"/>
<path d="M105.167 148.911L89.5339 116.647H120.8L105.167 148.911Z" fill="url(#paint4_linear)"/>
<path d="M100.224 134.066C102.248 128.499 105.127 123.309 109.459 119.202C110.412 118.297 111.414 117.444 112.459 116.647H89.5339L99.341 136.882C99.5955 135.933 99.892 134.994 100.224 134.066Z" fill="url(#paint5_linear)"/>
<path d="M105.167 148.911L89.5338 116.647L72.0095 107.727L105.167 148.911Z" fill="url(#paint6_linear)"/>
<path d="M105.167 148.911L120.8 116.647L138.324 107.727L105.167 148.911Z" fill="url(#paint7_linear)"/>
<path d="M93.7417 102.227L100.997 76.1532L128.93 109.363L93.7417 102.227Z" fill="url(#paint8_linear)"/>
<path d="M72.0095 107.727L80.5837 112.43L93.7415 101.185L98.4746 85.2758L72.0095 107.727Z" fill="url(#paint9_linear)"/>
<path d="M105.167 148.911L120.8 116.647L138.324 107.727L105.167 148.911Z" fill="url(#paint10_linear)"/>
<path style="mix-blend-mode:screen" opacity="0.75" d="M96.3892 87.9081C93.9717 96.1862 91.6507 104.488 89.4262 112.813C89.3491 113.103 89.2091 113.373 89.0163 113.602C88.8235 113.832 88.5827 114.016 88.3109 114.141C88.0392 114.267 87.7434 114.33 87.4445 114.327C87.1457 114.323 86.8512 114.254 86.5822 114.123C81.793 111.829 76.9479 109.622 72 107.727C75.0122 109.683 78.1177 111.51 81.2537 113.261C82.4212 113.912 84.6768 115.177 86.3907 116.133C87.8587 116.949 89.052 118.186 89.8185 119.686C92.7046 125.322 100.025 139.537 103.913 146.366C103.049 144.229 102.161 142.102 101.248 139.984C98.2432 133.005 95.1143 126.087 91.9083 119.195C91.834 119.036 91.8006 118.861 91.8112 118.685C91.8219 118.51 91.8762 118.34 91.9691 118.191C92.0621 118.042 92.1908 117.919 92.3434 117.833C92.4959 117.747 92.6675 117.701 92.8423 117.699C94.785 117.699 97.949 117.683 99.5952 117.664C103.228 117.62 117.46 116.647 117.46 116.647C117.46 116.647 98.7569 115.586 93.1225 115.624C92.8681 115.626 92.6168 115.568 92.3885 115.455C92.1602 115.342 91.9612 115.177 91.8075 114.973C91.6538 114.769 91.5495 114.532 91.5029 114.281C91.4564 114.029 91.4689 113.77 91.5394 113.524C92.2632 110.979 92.9816 108.432 93.6946 105.883C96.1277 97.1364 98.4137 88.3519 100.62 79.5462C102.243 73.0629 103.789 66.5491 105.131 60C103.885 63.5669 102.724 67.1643 101.568 70.764C99.7773 76.4513 98.0587 82.1762 96.3892 87.9081Z" fill="url(#paint11_linear)"/>
<path d="M123.525 113.4C123.336 113.476 123.134 113.513 122.931 113.506C122.728 113.5 122.528 113.451 122.345 113.362C122.162 113.274 121.999 113.148 121.867 112.993C121.734 112.838 121.636 112.656 121.577 112.461C119.875 106.729 114.654 90.4981 112.879 84.4985C110.451 76.2799 107.922 68.1153 105.174 60.007C106.5 65.9385 107.945 71.8512 109.466 77.7569C111.25 84.677 118.974 110.631 120.8 116.659C122.105 115.973 133.661 110.763 138.312 107.736C137.065 108.283 128.613 111.359 123.525 113.4Z" fill="url(#paint12_linear)"/>
</g>
<defs>
<filter id="filter0_df" x="0" y="0" width="210" height="210" filterUnits="userSpaceOnUse" color-interpolation-filters="sRGB">
<feFlood flood-opacity="0" result="BackgroundImageFix"/>
<feColorMatrix in="SourceAlpha" type="matrix" values="0 0 0 0 0 0 0 0 0 0 0 0 0 0 0 0 0 0 127 0"/>
<feOffset/>
<feGaussianBlur stdDeviation="10"/>
<feColorMatrix type="matrix" values="0 0 0 0 0.686275 0 0 0 0 0.74902 0 0 0 0 0 0 0 0 0.4 0"/>
<feBlend mode="normal" in2="BackgroundImageFix" result="effect1_dropShadow"/>
<feBlend mode="normal" in="SourceGraphic" in2="effect1_dropShadow" result="shape"/>
<feGaussianBlur stdDeviation="3" result="effect2_foregroundBlur"/>
</filter>
<filter id="filter1_d" x="52" y="40" width="106.324" height="128.911" filterUnits="userSpaceOnUse" color-interpolation-filters="sRGB">
<feFlood flood-opacity="0" result="BackgroundImageFix"/>
<feColorMatrix in="SourceAlpha" type="matrix" values="0 0 0 0 0 0 0 0 0 0 0 0 0 0 0 0 0 0 127 0"/>
<feOffset/>
<feGaussianBlur stdDeviation="10"/>
<feColorMatrix type="matrix" values="0 0 0 0 0.686275 0 0 0 0 0.74902 0 0 0 0 0 0 0 0 0.7 0"/>
<feBlend mode="normal" in2="BackgroundImageFix" result="effect1_dropShadow"/>
<feBlend mode="normal" in="SourceGraphic" in2="effect1_dropShadow" result="shape"/>
</filter>
<linearGradient id="paint0_linear" x1="89.5339" y1="88.3237" x2="120.8" y2="88.3237" gradientUnits="userSpaceOnUse">
<stop offset="0.16" stop-color="#E6FA01"/>
<stop offset="0.38" stop-color="#C9DB01"/>
<stop offset="0.8" stop-color="#99A602"/>
<stop offset="1" stop-color="#869202"/>
</linearGradient>
<linearGradient id="paint1_linear" x1="108.546" y1="91.7004" x2="104.964" y2="117.847" gradientUnits="userSpaceOnUse">
<stop offset="0.46" stop-color="#E6FA01"/>
<stop offset="1" stop-color="#E6FA01"/>
</linearGradient>
<linearGradient id="paint2_linear" x1="72.01" y1="88.3237" x2="105.167" y2="88.3237" gradientUnits="userSpaceOnUse">
<stop stop-color="#869202"/>
<stop offset="0.15" stop-color="#99A602"/>
<stop offset="0.46" stop-color="#C9DB01"/>
<stop offset="0.62" stop-color="#E6FA01"/>
</linearGradient>
<linearGradient id="paint3_linear" x1="106.159" y1="88.5632" x2="137.622" y2="87.4719" gradientUnits="userSpaceOnUse">
<stop stop-color="#E6FA01"/>
<stop offset="0.28" stop-color="#AFC001"/>
<stop offset="0.43" stop-color="#8D9A01"/>
<stop offset="0.59" stop-color="#6C7600"/>
<stop offset="0.75" stop-color="#545C00"/>
<stop offset="0.89" stop-color="#464C00"/>
<stop offset="1" stop-color="#414600"/>
</linearGradient>
<linearGradient id="paint4_linear" x1="89.5339" y1="132.779" x2="120.8" y2="132.779" gradientUnits="userSpaceOnUse">
<stop stop-color="#646B01"/>
<stop offset="0.29" stop-color="#767F01"/>
<stop offset="0.87" stop-color="#A4B401"/>
<stop offset="1" stop-color="#AFC001"/>
</linearGradient>
<linearGradient id="paint5_linear" x1="112.725" y1="145.842" x2="99.2582" y2="112.696" gradientUnits="userSpaceOnUse">
<stop offset="0.44" stop-color="#E6FA01"/>
<stop offset="0.98" stop-color="#E6FA01"/>
<stop offset="1" stop-color="#E6FA01"/>
</linearGradient>
<linearGradient id="paint6_linear" x1="72.0095" y1="128.32" x2="105.167" y2="128.32" gradientUnits="userSpaceOnUse">
<stop stop-color="#414600"/>
<stop offset="0.15" stop-color="#545A00"/>
<stop offset="0.46" stop-color="#849000"/>
<stop offset="0.89" stop-color="#D2E401"/>
<stop offset="1" stop-color="#E6FA01"/>
</linearGradient>
<linearGradient id="paint7_linear" x1="105.167" y1="128.32" x2="138.324" y2="128.32" gradientUnits="userSpaceOnUse">
<stop stop-color="#414600"/>
<stop offset="0.32" stop-color="#545A01"/>
<stop offset="0.96" stop-color="#838F02"/>
<stop offset="1" stop-color="#869202"/>
</linearGradient>
<linearGradient id="paint8_linear" x1="84.5091" y1="81.7231" x2="128.345" y2="106.891" gradientUnits="userSpaceOnUse">
<stop stop-color="#E6FA01"/>
<stop offset="0.74" stop-color="#E6FA01"/>
</linearGradient>
<linearGradient id="paint9_linear" x1="76.3386" y1="91.3317" x2="93.1065" y2="100.96" gradientUnits="userSpaceOnUse">
<stop stop-color="#E6FA01"/>
<stop offset="1" stop-color="#E6FA01"/>
</linearGradient>
<linearGradient id="paint10_linear" x1="7045.96" y1="12660.4" x2="10178.2" y2="13289.2" gradientUnits="userSpaceOnUse">
<stop offset="0.44" stop-color="#E6FA01"/>
<stop offset="0.98" stop-color="#E6FA01"/>
<stop offset="1" stop-color="#E6FA01"/>
</linearGradient>
<linearGradient id="paint11_linear" x1="94.7524" y1="160.345" x2="94.7524" y2="77.8391" gradientUnits="userSpaceOnUse">
<stop stop-color="#E6FA01"/>
<stop offset="0.28" stop-color="#E6FA01"/>
<stop offset="0.31" stop-color="#E9FB1B"/>
<stop offset="0.4" stop-color="#F0FD63"/>
<stop offset="0.47" stop-color="#F5FE97"/>
<stop offset="0.52" stop-color="#F9FFB8"/>
<stop offset="0.55" stop-color="#FAFFC4"/>
<stop offset="0.83" stop-color="#FCFFDE"/>
</linearGradient>
<linearGradient id="paint12_linear" x1="139.807" y1="90.6836" x2="102.777" y2="87.4628" gradientUnits="userSpaceOnUse">
<stop stop-color="#AFC001"/>
<stop offset="1" stop-color="#F7FF99"/>
</linearGradient>
</defs>
</svg>
