<svg width="213" height="250" viewBox="0 0 213 250" fill="none" xmlns="http://www.w3.org/2000/svg">
<path d="M163.889 128.733C163.889 127.629 164.784 126.733 165.889 126.733H196.658C198.215 126.733 199.175 128.433 198.371 129.766L190.448 142.9C190.065 143.536 190.065 144.331 190.448 144.966L198.371 158.1C199.175 159.433 198.215 161.133 196.658 161.133H165.889C164.784 161.133 163.889 160.238 163.889 159.133V128.733Z" fill="url(#paint0_linear)"/>
<path d="M47.311 128.733C47.311 127.629 46.4156 126.733 45.311 126.733H14.5419C12.9852 126.733 12.0253 128.433 12.8293 129.766L20.7515 142.9C21.1347 143.536 21.1347 144.331 20.7515 144.966L12.8293 158.1C12.0253 159.433 12.9853 161.133 14.5419 161.133H45.311C46.4156 161.133 47.311 160.238 47.311 159.133V128.733Z" fill="url(#paint1_linear)"/>
<g filter="url(#filter0_d)">
<path d="M95.6614 42.0759C100.949 38.6415 103.593 36.9242 106.556 36.9242C109.518 36.9242 112.162 38.6415 117.45 42.0759L163.652 72.0855C168.108 74.9792 170.335 76.426 171.547 78.6578C172.758 80.8896 172.758 83.5458 172.758 88.8581V153.142C172.758 158.454 172.758 161.11 171.547 163.342C170.335 165.574 168.108 167.021 163.652 169.914L117.45 199.924C112.162 203.359 109.518 205.076 106.556 205.076C103.593 205.076 100.949 203.359 95.6614 199.924L49.4586 169.914C45.0035 167.021 42.776 165.574 41.5643 163.342C40.3527 161.11 40.3527 158.454 40.3527 153.142V88.8581C40.3527 83.5458 40.3527 80.8896 41.5643 78.6578C42.776 76.426 45.0035 74.9792 49.4586 72.0855L95.6614 42.0759Z" fill="url(#paint2_linear)"/>
</g>
<path d="M95.7348 53.428C100.989 50.0476 103.617 48.3573 106.556 48.3573C109.494 48.3573 112.122 50.0476 117.376 53.4281L155.304 77.8281C159.794 80.7166 162.039 82.1609 163.261 84.4002C164.483 86.6396 164.483 89.309 164.483 94.648V147.352C164.483 152.691 164.483 155.36 163.261 157.6C162.039 159.839 159.794 161.283 155.304 164.172L117.376 188.572C112.122 191.952 109.494 193.643 106.556 193.643C103.617 193.643 100.989 191.952 95.7348 188.572L57.8073 164.172C53.3173 161.283 51.0723 159.839 49.8502 157.6C48.6282 155.36 48.6282 152.691 48.6282 147.352V94.648C48.6282 89.309 48.6282 86.6396 49.8502 84.4002C51.0723 82.1609 53.3173 80.7166 57.8073 77.8281L95.7348 53.428Z" fill="url(#paint3_linear)"/>
<g filter="url(#filter1_d)">
<path d="M35.8445 143.933C34.7883 141.135 36.6983 136.874 39.6667 137.244C91.599 143.727 121.644 144.681 173.444 138.2C176.413 137.829 178.323 141.134 177.267 143.933C175.474 148.685 174.609 153.805 174.4 158.266C174.203 162.472 174.493 167.393 174.804 171.05C175.06 174.073 173.024 176.866 170.037 177.401C123.949 185.652 89.2968 185.651 43.0773 177.399C40.0889 176.865 38.0509 174.071 38.3078 171.047C38.6183 167.39 38.9077 162.471 38.7111 158.266C38.5024 153.804 37.6377 148.685 35.8445 143.933Z" fill="#EB8106"/>
<path d="M37.7157 143.227C37.4253 142.458 37.5146 141.29 38.0182 140.328C38.5281 139.354 39.0909 139.188 39.4189 139.229C91.483 145.728 121.697 146.69 173.693 140.185C174.292 140.11 174.807 140.367 175.176 140.949C175.568 141.567 175.694 142.437 175.395 143.227C173.515 148.209 172.619 153.542 172.402 158.173C172.199 162.512 172.498 167.537 172.811 171.219C172.985 173.267 171.602 175.089 169.685 175.432C123.83 183.642 89.4161 183.641 43.4288 175.43C41.5101 175.087 40.1266 173.265 40.3006 171.216C40.6133 167.534 40.9118 162.511 40.7089 158.173C40.4923 153.541 39.596 148.209 37.7157 143.227Z" stroke="url(#paint4_linear)" stroke-width="4" stroke-linejoin="round"/>
</g>
<path d="M80.8086 129H95.7148V78.2695H80.8086L68.082 86.7773V99.2578L80.5273 91.0312H80.8086V129ZM104.715 94.1953V94.4766H118.285V94.1602C118.285 90.4688 121.027 87.8672 124.895 87.8672C128.727 87.8672 130.941 90.0117 130.941 92.7539C130.941 95.5664 129.395 97.9922 125.984 101.051L105.594 119.086V129H145.883V117.75H124.824V117.469L136.742 106.922C139.449 104.531 145.285 99.2578 145.285 92.2969C145.285 83.0859 137.727 76.8633 125.422 76.8633C112.871 76.8633 104.715 83.8242 104.715 94.1953Z" fill="white"/>
<path d="M76.4531 169.094H66.5938V150.453H61.875V173H76.4531V169.094ZM94.1875 169.094H83.9688V163.406H93.6094V159.781H83.9688V154.344H94.1875V150.453H79.25V173H94.1875V169.094ZM109.422 173L117 150.453H111.859L106.703 168.141H106.594L101.438 150.453H96.1562L103.734 173H109.422ZM134.25 169.094H124.031V163.406H133.672V159.781H124.031V154.344H134.25V150.453H119.312V173H134.25V169.094ZM152.234 169.094H142.375V150.453H137.656V173H152.234V169.094Z" fill="white"/>
<defs>
<filter id="filter0_d" x="0.352783" y="0.92424" width="212.406" height="248.152" filterUnits="userSpaceOnUse" color-interpolation-filters="sRGB">
<feFlood flood-opacity="0" result="BackgroundImageFix"/>
<feColorMatrix in="SourceAlpha" type="matrix" values="0 0 0 0 0 0 0 0 0 0 0 0 0 0 0 0 0 0 127 0"/>
<feOffset dy="4"/>
<feGaussianBlur stdDeviation="20"/>
<feColorMatrix type="matrix" values="0 0 0 0 0.635294 0 0 0 0 0.0235294 0 0 0 0 0.921569 0 0 0 0.3 0"/>
<feBlend mode="normal" in2="BackgroundImageFix" result="effect1_dropShadow"/>
<feBlend mode="normal" in="SourceGraphic" in2="effect1_dropShadow" result="shape"/>
</filter>
<filter id="filter1_d" x="31.5505" y="135.222" width="150.01" height="54.3671" filterUnits="userSpaceOnUse" color-interpolation-filters="sRGB">
<feFlood flood-opacity="0" result="BackgroundImageFix"/>
<feColorMatrix in="SourceAlpha" type="matrix" values="0 0 0 0 0 0 0 0 0 0 0 0 0 0 0 0 0 0 127 0"/>
<feOffset dy="2"/>
<feGaussianBlur stdDeviation="2"/>
<feColorMatrix type="matrix" values="0 0 0 0 0 0 0 0 0 0 0 0 0 0 0 0 0 0 0.4 0"/>
<feBlend mode="normal" in2="BackgroundImageFix" result="effect1_dropShadow"/>
<feBlend mode="normal" in="SourceGraphic" in2="effect1_dropShadow" result="shape"/>
</filter>
<linearGradient id="paint0_linear" x1="173.975" y1="140.493" x2="190.131" y2="167.02" gradientUnits="userSpaceOnUse">
<stop offset="0.451002" stop-color="#A95600"/>
<stop offset="1" stop-color="#743B00"/>
</linearGradient>
<linearGradient id="paint1_linear" x1="37.2246" y1="140.493" x2="21.0692" y2="167.02" gradientUnits="userSpaceOnUse">
<stop offset="0.451002" stop-color="#A95600"/>
<stop offset="1" stop-color="#743B00"/>
</linearGradient>
<linearGradient id="paint2_linear" x1="30.1111" y1="64.1181" x2="187.533" y2="64.1181" gradientUnits="userSpaceOnUse">
<stop stop-color="#EB8106"/>
<stop offset="1" stop-color="#F34119"/>
</linearGradient>
<linearGradient id="paint3_linear" x1="142.867" y1="59.8444" x2="69.289" y2="181.2" gradientUnits="userSpaceOnUse">
<stop stop-color="#4A0973"/>
<stop offset="1" stop-color="#5F1092"/>
</linearGradient>
<linearGradient id="paint4_linear" x1="35.5505" y1="145.071" x2="181.771" y2="145.071" gradientUnits="userSpaceOnUse">
<stop stop-color="#E67B00"/>
<stop offset="1" stop-color="#F34119"/>
</linearGradient>
</defs>
</svg>
