<svg width="210" height="210" viewBox="0 0 210 210" fill="none" xmlns="http://www.w3.org/2000/svg">
<g filter="url(#filter0_df)">
<path d="M105 20L113.403 73.6392L147.5 31.3878L127.958 82.0423L178.612 62.5L136.361 96.5969L190 105L136.361 113.403L178.612 147.5L127.958 127.958L147.5 178.612L113.403 136.361L105 190L96.5969 136.361L62.5 178.612L82.0423 127.958L31.3878 147.5L73.6392 113.403L20 105L73.6392 96.5969L31.3878 62.5L82.0423 82.0423L62.5 31.3878L96.5969 73.6392L105 20Z" fill="#00DBE7" fill-opacity="0.05"/>
</g>
<g filter="url(#filter1_d)">
<path style="mix-blend-mode:screen" d="M92.5289 82.0226L80.0229 73.5124L92.5289 65H117.541L130.047 73.5124L117.541 82.0226H92.5289Z" fill="url(#paint0_linear)"/>
<path d="M94.4697 77.3364C94.4697 72.4303 103.145 68.4532 113.848 68.4532C117.997 68.4532 121.84 69.0525 124.987 70.0721L117.541 65H92.5289L80.0229 73.5124L92.5289 82.0226H97.3873C95.5407 80.6624 94.4697 79.0565 94.4697 77.3364Z" fill="url(#paint1_linear)"/>
<path d="M80.023 73.5124L65 91.5934L85.0185 103.072L92.5289 82.0227L80.023 73.5124Z" fill="url(#paint2_linear)"/>
<path d="M92.5287 82.0226L85.0183 103.072H125.051L117.541 82.0226H92.5287Z" fill="url(#paint3_linear)"/>
<path d="M130.046 73.5124L117.541 82.0227L125.051 103.072L145.069 91.5934L130.046 73.5124Z" fill="url(#paint4_linear)"/>
<path d="M76.7712 84.8378C76.7712 80.9578 77.6623 77.3989 79.1382 74.5794L65 91.5934L85.0185 103.07L85.7082 101.13C80.627 99.7307 76.7712 92.9665 76.7712 84.8378Z" fill="url(#paint5_linear)"/>
<path d="M102.033 96.9283C97.1065 93.7812 93.4006 89.6662 91.3055 85.4564L85.0183 103.07H125.051L124.149 100.543C118.363 103.042 109.76 101.865 102.033 96.9283Z" fill="url(#paint6_linear)"/>
<path d="M138.058 85.6268C139.519 86.3695 140.918 87.228 142.244 88.1941L130.046 73.5124L117.541 82.0227L118.543 84.8573C122.326 81.529 130.346 81.7015 138.058 85.6268Z" fill="url(#paint7_linear)"/>
<path d="M85.0183 103.072L105.035 145L125.051 103.072H85.0183Z" fill="url(#paint8_linear)"/>
<path d="M85.0185 103.072L105.035 145L65 91.5934L85.0185 103.072Z" fill="url(#paint9_linear)"/>
<path d="M145.069 91.5934L105.035 145L125.051 103.072L145.069 91.5934Z" fill="url(#paint10_linear)"/>
<g style="mix-blend-mode:screen">
<g style="mix-blend-mode:screen">
<path style="mix-blend-mode:screen" d="M125.051 103.07H99.6519C105.864 107.187 110.236 116.917 110.236 128.264C110.239 130.63 110.044 132.991 109.654 135.324L125.051 103.07Z" fill="url(#paint11_linear)"/>
</g>
<g style="mix-blend-mode:screen">
<path style="mix-blend-mode:screen" d="M85.0185 103.07L65 91.5934L84.8257 118.04C81.2504 107.644 85.0185 103.07 85.0185 103.07Z" fill="url(#paint12_linear)"/>
</g>
<g style="mix-blend-mode:screen">
<path style="mix-blend-mode:screen" d="M145.07 91.5934L126.898 102.018C128.759 103.85 128.624 109.142 126.806 115.969L145.07 91.5934Z" fill="url(#paint13_linear)"/>
</g>
</g>
<g style="mix-blend-mode:screen" opacity="0.75">
<path d="M100.04 133.448L97.7497 128.275C96.9914 126.55 96.1988 124.843 95.4254 123.125C94.6521 121.407 93.8767 119.693 93.0691 117.986L90.6956 112.86C89.9115 111.149 89.0954 109.452 88.2942 107.747L87.6387 106.359C87.5248 106.119 87.4724 105.853 87.4862 105.588C87.4999 105.322 87.5795 105.063 87.7176 104.836C87.8557 104.609 88.0479 104.42 88.2769 104.287C88.5059 104.153 88.7644 104.079 89.029 104.072L125.041 103.063L87.553 102.016C87.4233 102.012 87.2961 101.978 87.182 101.916C87.0679 101.853 86.9701 101.765 86.8966 101.657C86.823 101.549 86.7759 101.426 86.7589 101.296C86.7419 101.167 86.7557 101.035 86.799 100.912L87.7801 98.1269L89.6373 92.8586L91.456 87.5753C91.7688 86.6592 92.0858 85.7452 92.3986 84.8313C92.6019 84.2366 92.9821 83.7194 93.4876 83.3496C93.993 82.9798 94.5993 82.7754 95.2241 82.764L98.7672 82.6929L105.02 82.5248L108.148 82.4192L111.273 82.3071C113.357 82.2208 115.442 82.1346 117.526 82.0161C115.442 81.8975 113.357 81.8113 111.273 81.7251L108.163 81.6237L105.035 81.5203L98.7822 81.35L94.7292 81.2702C93.4866 81.2461 92.2718 80.8953 91.2054 80.2528L80.0233 73.5166L89.7509 80.9555C90.2733 81.3542 90.654 81.9119 90.8366 82.5456C91.0191 83.1793 90.9937 83.8554 90.7641 84.4734C90.4542 85.3141 90.1429 86.1541 89.8301 86.9933L87.9022 92.2335L86.0021 97.4888C86.0021 97.4888 85.2566 99.5517 84.8046 100.808C84.7647 100.919 84.7017 101.02 84.62 101.105C84.5382 101.189 84.4396 101.255 84.3305 101.298C84.2215 101.341 84.1046 101.36 83.9876 101.354C83.8707 101.348 83.7563 101.317 83.6522 101.263L65.0154 91.5976L82.7117 102.766C83.7392 103.415 84.5652 104.341 85.096 105.439L86.6126 108.584C87.4331 110.28 88.2407 111.981 89.0782 113.666L91.5524 118.73C92.3772 120.422 93.2297 122.101 94.0716 123.785C94.9135 125.468 95.7511 127.154 96.6165 128.829L99.1871 133.856C100.061 135.524 100.92 137.199 101.805 138.863C102.69 140.527 103.57 142.193 104.476 143.845C103.761 142.101 103.022 140.365 102.28 138.635C101.539 136.904 100.789 135.177 100.04 133.448Z" fill="white"/>
</g>
</g>
<defs>
<filter id="filter0_df" x="0" y="0" width="210" height="210" filterUnits="userSpaceOnUse" color-interpolation-filters="sRGB">
<feFlood flood-opacity="0" result="BackgroundImageFix"/>
<feColorMatrix in="SourceAlpha" type="matrix" values="0 0 0 0 0 0 0 0 0 0 0 0 0 0 0 0 0 0 127 0"/>
<feOffset/>
<feGaussianBlur stdDeviation="10"/>
<feColorMatrix type="matrix" values="0 0 0 0 0 0 0 0 0 0.858824 0 0 0 0 0.905882 0 0 0 0.3 0"/>
<feBlend mode="normal" in2="BackgroundImageFix" result="effect1_dropShadow"/>
<feBlend mode="normal" in="SourceGraphic" in2="effect1_dropShadow" result="shape"/>
<feGaussianBlur stdDeviation="3" result="effect2_foregroundBlur"/>
</filter>
<filter id="filter1_d" x="25" y="25" width="160.07" height="160" filterUnits="userSpaceOnUse" color-interpolation-filters="sRGB">
<feFlood flood-opacity="0" result="BackgroundImageFix"/>
<feColorMatrix in="SourceAlpha" type="matrix" values="0 0 0 0 0 0 0 0 0 0 0 0 0 0 0 0 0 0 127 0"/>
<feOffset/>
<feGaussianBlur stdDeviation="20"/>
<feColorMatrix type="matrix" values="0 0 0 0 0 0 0 0 0 0.858824 0 0 0 0 0.905882 0 0 0 0.4 0"/>
<feBlend mode="normal" in2="BackgroundImageFix" result="effect1_dropShadow"/>
<feBlend mode="normal" in="SourceGraphic" in2="effect1_dropShadow" result="shape"/>
</filter>
<linearGradient id="paint0_linear" x1="80.0229" y1="73.5124" x2="130.047" y2="73.5124" gradientUnits="userSpaceOnUse">
<stop stop-color="#0077F8"/>
<stop offset="0.19" stop-color="#008BF6"/>
<stop offset="0.58" stop-color="#00C0EF"/>
<stop offset="1" stop-color="#00FFE8"/>
</linearGradient>
<linearGradient id="paint1_linear" x1="105.176" y1="79.1708" x2="99.1051" y2="62.5907" gradientUnits="userSpaceOnUse">
<stop stop-color="#009BF9"/>
<stop offset="0.08" stop-color="#00A8F7"/>
<stop offset="0.35" stop-color="#00CEF0"/>
<stop offset="0.6" stop-color="#00E9EC"/>
<stop offset="0.82" stop-color="#00F9E9"/>
<stop offset="0.99" stop-color="#00FFE8"/>
</linearGradient>
<linearGradient id="paint2_linear" x1="1360.23" y1="4978.31" x2="4897.97" y2="4978.31" gradientUnits="userSpaceOnUse">
<stop stop-color="#0077F8"/>
<stop offset="0.19" stop-color="#008BF6"/>
<stop offset="0.58" stop-color="#00C0EF"/>
<stop offset="1" stop-color="#00FFE8"/>
</linearGradient>
<linearGradient id="paint3_linear" x1="5709.6" y1="3990.23" x2="13190.9" y2="3990.23" gradientUnits="userSpaceOnUse">
<stop stop-color="#0077F8"/>
<stop offset="0.19" stop-color="#008BF6"/>
<stop offset="0.58" stop-color="#00C0EF"/>
<stop offset="1" stop-color="#00FFE8"/>
</linearGradient>
<linearGradient id="paint4_linear" x1="8164.78" y1="4978.31" x2="11702.5" y2="4978.31" gradientUnits="userSpaceOnUse">
<stop stop-color="#0077F8"/>
<stop offset="0.19" stop-color="#008BF6"/>
<stop offset="0.58" stop-color="#00C0EF"/>
<stop offset="1" stop-color="#00FFE8"/>
</linearGradient>
<linearGradient id="paint5_linear" x1="70.7003" y1="98.4309" x2="87.407" y2="84.4987" gradientUnits="userSpaceOnUse">
<stop stop-color="#00FFE8"/>
<stop offset="0.18" stop-color="#00FAE9"/>
<stop offset="0.39" stop-color="#00ECEB"/>
<stop offset="0.61" stop-color="#00D5EF"/>
<stop offset="0.85" stop-color="#00B5F5"/>
<stop offset="1" stop-color="#009BF9"/>
</linearGradient>
<linearGradient id="paint6_linear" x1="104.306" y1="106.844" x2="107.858" y2="88.6894" gradientUnits="userSpaceOnUse">
<stop stop-color="#00FFE8"/>
<stop offset="0.15" stop-color="#00FAE9"/>
<stop offset="0.33" stop-color="#00ECEB"/>
<stop offset="0.51" stop-color="#00D5EF"/>
<stop offset="0.7" stop-color="#00B5F5"/>
<stop offset="0.83" stop-color="#009BF9"/>
</linearGradient>
<linearGradient id="paint7_linear" x1="9365.49" y1="1720.06" x2="8952.65" y2="2831.65" gradientUnits="userSpaceOnUse">
<stop stop-color="#00FFE8"/>
<stop offset="0.18" stop-color="#00FAE9"/>
<stop offset="0.39" stop-color="#00ECEB"/>
<stop offset="0.61" stop-color="#00D5EF"/>
<stop offset="0.85" stop-color="#00B5F5"/>
<stop offset="1" stop-color="#009BF9"/>
</linearGradient>
<linearGradient id="paint8_linear" x1="5709.6" y1="14012.7" x2="13190.9" y2="14012.7" gradientUnits="userSpaceOnUse">
<stop stop-color="#0077F8"/>
<stop offset="0.19" stop-color="#008BF6"/>
<stop offset="0.58" stop-color="#00C0EF"/>
<stop offset="1" stop-color="#00FFE8"/>
</linearGradient>
<linearGradient id="paint9_linear" x1="1948.64" y1="16387.6" x2="9430.74" y2="16387.6" gradientUnits="userSpaceOnUse">
<stop stop-color="#0077F8"/>
<stop offset="0.19" stop-color="#008BF6"/>
<stop offset="0.58" stop-color="#00C0EF"/>
<stop offset="1" stop-color="#00FFE8"/>
</linearGradient>
<linearGradient id="paint10_linear" x1="9470.77" y1="16387.6" x2="16952.9" y2="16387.6" gradientUnits="userSpaceOnUse">
<stop stop-color="#0077F8"/>
<stop offset="0.19" stop-color="#008BF6"/>
<stop offset="0.58" stop-color="#00C0EF"/>
<stop offset="1" stop-color="#00FFE8"/>
</linearGradient>
<linearGradient id="paint11_linear" x1="99.6519" y1="119.198" x2="125.051" y2="119.198" gradientUnits="userSpaceOnUse">
<stop stop-color="#009BF9"/>
<stop offset="0.16" stop-color="#00A2F8"/>
<stop offset="0.41" stop-color="#00B6F4"/>
<stop offset="0.7" stop-color="#00D7EF"/>
<stop offset="1" stop-color="#00FFE8"/>
</linearGradient>
<linearGradient id="paint12_linear" x1="1006.87" y1="6507.32" x2="2877.59" y2="6507.32" gradientUnits="userSpaceOnUse">
<stop stop-color="#009BF9"/>
<stop offset="0.16" stop-color="#00A2F8"/>
<stop offset="0.41" stop-color="#00B6F4"/>
<stop offset="0.7" stop-color="#00D7EF"/>
<stop offset="1" stop-color="#00FFE8"/>
</linearGradient>
<linearGradient id="paint13_linear" x1="126.797" y1="103.781" x2="145.07" y2="103.781" gradientUnits="userSpaceOnUse">
<stop stop-color="#009BF9"/>
<stop offset="0.08" stop-color="#00A8F7"/>
<stop offset="0.35" stop-color="#00CEF0"/>
<stop offset="0.61" stop-color="#00E9EC"/>
<stop offset="0.83" stop-color="#00F9E9"/>
<stop offset="1" stop-color="#00FFE8"/>
</linearGradient>
</defs>
</svg>
