<svg width="210" height="210" viewBox="0 0 210 210" fill="none" xmlns="http://www.w3.org/2000/svg">
<g filter="url(#filter0_df)">
<path d="M105 20L113.403 73.6392L147.5 31.3878L127.958 82.0423L178.612 62.5L136.361 96.5969L190 105L136.361 113.403L178.612 147.5L127.958 127.958L147.5 178.612L113.403 136.361L105 190L96.5969 136.361L62.5 178.612L82.0423 127.958L31.3878 147.5L73.6392 113.403L20 105L73.6392 96.5969L31.3878 62.5L82.0423 82.0423L62.5 31.3878L96.5969 73.6392L105 20Z" fill="#FF982E" fill-opacity="0.05"/>
</g>
<g filter="url(#filter1_d)">
<path d="M133.745 109.327L128.51 104.631C128.255 104.372 127.962 104.156 127.641 103.989L116.545 98.2208C116.529 97.8143 116.581 97.408 116.699 97.0191L124.924 70.089C125.128 69.4242 125.135 68.7137 124.946 68.0445C124.757 67.3753 124.378 66.7762 123.858 66.3205L118.693 61.706C118.362 61.3469 117.961 61.0607 117.515 60.8655C117.069 60.6703 116.588 60.5702 116.102 60.5716H85.5624C84.7376 60.5713 83.9384 60.8609 83.3019 61.3906C82.6654 61.9203 82.2311 62.6572 82.0737 63.4749L75.0653 99.831C74.9488 100.443 74.9923 101.075 75.1913 101.665C75.3904 102.255 75.7382 102.783 76.2004 103.196L81.4835 107.93C81.8145 108.263 82.2076 108.525 82.6401 108.702L98.3465 115.17C98.3237 115.583 98.2295 115.99 98.0681 116.371L87.3877 141.448C87.1926 141.88 87.1432 142.364 87.2473 142.826C87.3513 143.289 87.603 143.704 87.9636 144.008L93.3466 148.839C93.7475 149.224 94.2787 149.44 94.8319 149.443C95.3851 149.446 95.9186 149.236 96.3237 148.856L133.826 114.727C134.202 114.385 134.502 113.965 134.704 113.496C134.906 113.027 135.007 112.52 134.999 112.009C134.992 111.497 134.876 110.993 134.659 110.531C134.443 110.068 134.132 109.658 133.745 109.327Z" fill="url(#paint0_linear)"/>
<path opacity="0.25" d="M133.746 109.327L129.591 105.599L128.508 104.638C128.254 104.38 127.96 104.163 127.64 103.996L126.521 103.415C119.255 111.349 111.789 119.055 104.123 126.533C103.585 127.057 103.049 127.581 102.509 128.102C108.354 127.747 114.206 127.501 120.051 127.249L133.825 114.725C134.2 114.383 134.499 113.963 134.702 113.494C134.904 113.026 135.005 112.519 134.997 112.008C134.99 111.497 134.874 110.993 134.659 110.531C134.443 110.069 134.132 109.658 133.746 109.327Z" fill="url(#paint1_linear)"/>
<path style="mix-blend-mode:screen" opacity="0.88" d="M133.746 109.327L129.591 105.599L128.508 104.638C128.253 104.38 127.96 104.163 127.639 103.996L126.521 103.415C120.979 109.466 115.322 115.385 109.551 121.171C115.262 120.998 121.007 121.024 126.733 121.171L133.824 114.725C134.2 114.383 134.499 113.963 134.701 113.494C134.904 113.026 135.004 112.519 134.997 112.008C134.99 111.497 134.874 110.993 134.658 110.531C134.443 110.069 134.131 109.658 133.746 109.327Z" fill="url(#paint2_linear)"/>
<path style="mix-blend-mode:screen" opacity="0.47" d="M94.056 136.087C91.7889 138.173 89.5027 140.241 87.1975 142.292C87.189 142.618 87.2534 142.942 87.3861 143.239C87.5188 143.536 87.7163 143.799 87.9638 144.008L93.3468 148.839C93.7477 149.224 94.2789 149.44 94.8321 149.443C95.3853 149.446 95.9188 149.236 96.3239 148.856L112.03 134.563C106.03 135.024 100.039 135.532 94.056 136.087Z" fill="url(#paint3_linear)"/>
<path opacity="0.95" d="M82.0885 101.975C79.8016 101.03 77.5241 100.016 75.2657 98.8073L75.0682 99.8312C74.9518 100.443 74.9952 101.075 75.1942 101.665C75.3933 102.256 75.7411 102.783 76.2034 103.196L81.4864 107.931C81.8174 108.263 82.2106 108.525 82.643 108.702L91.4481 112.326C88.3878 108.81 85.3155 105.316 82.0885 101.975Z" fill="url(#paint4_linear)"/>
<path opacity="0.95" d="M124.924 70.0891C125.127 69.4243 125.135 68.7139 124.946 68.0446C124.756 67.3754 124.378 66.7763 123.857 66.3206L118.693 61.7061C118.083 61.0467 117.248 60.6463 116.356 60.5861C115.522 62.9767 114.729 65.3801 113.977 67.7963C116.152 73.3241 118.334 78.8519 120.566 84.3797L124.924 70.0891Z" fill="url(#paint5_linear)"/>
<path d="M127.649 103.999L113.049 96.399C112.307 96.0128 111.724 95.3755 111.401 94.5987C111.077 93.8219 111.035 92.955 111.281 92.1498L119.5 65.2173C119.664 64.6805 119.701 64.1123 119.608 63.5585C119.515 63.0046 119.294 62.4806 118.964 62.0287C118.633 61.5767 118.203 61.2094 117.706 60.9563C117.209 60.7032 116.661 60.5714 116.105 60.5716H85.5627C84.7379 60.5713 83.9387 60.8609 83.3022 61.3906C82.6656 61.9203 82.2314 62.6572 82.074 63.4749L75.0656 99.831C74.9084 100.646 75.0359 101.491 75.4264 102.222C75.817 102.953 76.4463 103.525 77.2073 103.84L96.136 111.637C96.5732 111.817 96.9705 112.083 97.3047 112.42C97.6389 112.757 97.9032 113.157 98.0822 113.599C98.2613 114.04 98.3514 114.513 98.3474 114.99C98.3434 115.467 98.2453 115.938 98.0588 116.376L87.388 141.448C86.4503 143.647 89.1371 145.592 90.8981 143.989L128.398 109.86C128.827 109.472 129.156 108.984 129.356 108.439C129.556 107.894 129.623 107.307 129.549 106.731C129.475 106.154 129.264 105.604 128.933 105.128C128.602 104.652 128.161 104.264 127.649 103.999Z" fill="url(#paint6_linear)"/>
<g style="mix-blend-mode:screen">
<path d="M116.105 62.093C116.425 62.0934 116.741 62.1697 117.027 62.3157C117.313 62.4617 117.561 62.6733 117.751 62.9337C117.941 63.1941 118.068 63.4959 118.122 63.8149C118.176 64.1338 118.155 64.4611 118.061 64.7704L109.841 91.7029C109.49 92.8489 109.55 94.0833 110.01 95.1891C110.471 96.295 111.302 97.2016 112.359 97.7498L126.959 105.352C127.252 105.505 127.504 105.728 127.693 106.001C127.883 106.274 128.004 106.59 128.046 106.92C128.088 107.251 128.051 107.587 127.936 107.9C127.822 108.213 127.634 108.493 127.389 108.717L89.8891 142.845C89.7692 142.967 89.6074 143.039 89.4369 143.044C89.3106 143.039 89.1873 143.004 89.0772 142.941C88.9672 142.879 88.8735 142.79 88.8039 142.684C88.7421 142.589 88.7065 142.479 88.7006 142.365C88.6948 142.251 88.7189 142.138 88.7706 142.037L99.4462 116.967C99.7125 116.343 99.8528 115.672 99.859 114.992C99.8651 114.313 99.7371 113.639 99.4822 113.01C99.2274 112.381 98.8509 111.81 98.3748 111.33C97.8987 110.85 97.3326 110.47 96.7095 110.214L77.7809 102.429C77.3427 102.248 76.9803 101.919 76.7551 101.498C76.53 101.078 76.456 100.591 76.5458 100.122L83.5518 63.7658C83.6418 63.2934 83.8916 62.8672 84.2584 62.5603C84.6252 62.2534 85.0863 62.0848 85.5627 62.0834H116.105V62.093ZM116.105 60.5621H85.5627C84.7365 60.5623 83.9363 60.8532 83.2996 61.3848C82.6628 61.9164 82.2294 62.6555 82.074 63.475L75.0656 99.8312C74.9084 100.646 75.0359 101.492 75.4264 102.223C75.817 102.953 76.4463 103.525 77.2073 103.84L96.136 111.637C96.5732 111.817 96.9705 112.083 97.3047 112.42C97.6389 112.757 97.9032 113.158 98.0822 113.599C98.2613 114.04 98.3514 114.513 98.3474 114.99C98.3434 115.467 98.2453 115.938 98.0588 116.376L87.388 141.448C86.6907 143.083 87.9972 144.573 89.4369 144.573C89.9799 144.569 90.5015 144.358 90.8981 143.984L128.398 109.856C128.826 109.467 129.154 108.98 129.353 108.435C129.553 107.89 129.619 107.305 129.545 106.729C129.472 106.152 129.261 105.603 128.93 105.128C128.6 104.652 128.16 104.265 127.649 103.999L113.049 96.3991C112.307 96.0129 111.724 95.3757 111.401 94.5989C111.077 93.822 111.035 92.9551 111.281 92.1499L119.5 65.2175C119.664 64.6806 119.701 64.1124 119.608 63.5586C119.515 63.0048 119.294 62.4808 118.964 62.0288C118.633 61.5768 118.203 61.2095 117.706 60.9564C117.209 60.7034 116.661 60.5716 116.105 60.5717V60.5621Z" fill="#FDF260"/>
</g>
<path style="mix-blend-mode:screen" opacity="0.57" d="M112.073 60.5716H85.5628C84.738 60.5713 83.9388 60.8609 83.3023 61.3906C82.6658 61.9203 82.2315 62.6572 82.0741 63.4749L75.0657 99.831C74.9496 100.438 74.9914 101.065 75.1871 101.65C87.1216 87.1075 99.4749 73.6316 112.073 60.5716Z" fill="url(#paint7_linear)"/>
<path style="mix-blend-mode:screen" d="M113.049 96.3991C112.307 96.0129 111.724 95.3756 111.4 94.5988C111.077 93.822 111.035 92.9551 111.28 92.1499L119.5 65.2174C119.664 64.6806 119.701 64.1124 119.608 63.5585C119.514 63.0047 119.294 62.4807 118.963 62.0288C118.633 61.5768 118.202 61.2095 117.706 60.9564C117.209 60.7033 116.66 60.5715 116.104 60.5716H112.073C99.4744 73.6317 87.121 87.1075 75.1865 101.65C75.3476 102.143 75.6124 102.595 75.9629 102.974C76.3133 103.353 76.741 103.651 77.2165 103.847L96.1451 111.644C96.5823 111.824 96.9797 112.09 97.3138 112.427C97.648 112.764 97.9123 113.165 98.0914 113.606C98.2704 114.047 98.3605 114.52 98.3565 114.997C98.3525 115.474 98.2544 115.945 98.0679 116.383L93.3822 127.367C101.266 117.616 109.776 108.318 118.453 99.211L113.049 96.3991Z" fill="url(#paint8_linear)"/>
</g>
<defs>
<filter id="filter0_df" x="0" y="0" width="210" height="210" filterUnits="userSpaceOnUse" color-interpolation-filters="sRGB">
<feFlood flood-opacity="0" result="BackgroundImageFix"/>
<feColorMatrix in="SourceAlpha" type="matrix" values="0 0 0 0 0 0 0 0 0 0 0 0 0 0 0 0 0 0 127 0"/>
<feOffset/>
<feGaussianBlur stdDeviation="10"/>
<feColorMatrix type="matrix" values="0 0 0 0 1 0 0 0 0 0.596078 0 0 0 0 0.180392 0 0 0 0.4 0"/>
<feBlend mode="normal" in2="BackgroundImageFix" result="effect1_dropShadow"/>
<feBlend mode="normal" in="SourceGraphic" in2="effect1_dropShadow" result="shape"/>
<feGaussianBlur stdDeviation="3" result="effect2_foregroundBlur"/>
</filter>
<filter id="filter1_d" x="55" y="40.5621" width="99.9996" height="128.881" filterUnits="userSpaceOnUse" color-interpolation-filters="sRGB">
<feFlood flood-opacity="0" result="BackgroundImageFix"/>
<feColorMatrix in="SourceAlpha" type="matrix" values="0 0 0 0 0 0 0 0 0 0 0 0 0 0 0 0 0 0 127 0"/>
<feOffset/>
<feGaussianBlur stdDeviation="10"/>
<feColorMatrix type="matrix" values="0 0 0 0 1 0 0 0 0 0.596078 0 0 0 0 0.180392 0 0 0 0.7 0"/>
<feBlend mode="normal" in2="BackgroundImageFix" result="effect1_dropShadow"/>
<feBlend mode="normal" in="SourceGraphic" in2="effect1_dropShadow" result="shape"/>
</filter>
<linearGradient id="paint0_linear" x1="118.553" y1="141.141" x2="89.3229" y2="59.0174" gradientUnits="userSpaceOnUse">
<stop stop-color="#C25E00"/>
<stop offset="0.27" stop-color="#CA7209"/>
<stop offset="0.82" stop-color="#E0A71F"/>
<stop offset="1" stop-color="#E7B927"/>
</linearGradient>
<linearGradient id="paint1_linear" x1="102.519" y1="115.761" x2="134.998" y2="115.761" gradientUnits="userSpaceOnUse">
<stop stop-color="#FDEB05"/>
<stop offset="0.11" stop-color="#FDE10A"/>
<stop offset="0.71" stop-color="#FFAC25"/>
<stop offset="1" stop-color="#FF982F"/>
</linearGradient>
<linearGradient id="paint2_linear" x1="111.045" y1="123.317" x2="133.023" y2="108.079" gradientUnits="userSpaceOnUse">
<stop stop-color="#FF982F"/>
<stop offset="0.29" stop-color="#FFAC25"/>
<stop offset="0.89" stop-color="#FDE10A"/>
<stop offset="1" stop-color="#FDEB05"/>
</linearGradient>
<linearGradient id="paint3_linear" x1="2432.98" y1="5906.85" x2="5024.11" y2="5906.85" gradientUnits="userSpaceOnUse">
<stop stop-color="#FDEB05"/>
<stop offset="0.11" stop-color="#FDE10A"/>
<stop offset="0.71" stop-color="#FFAC25"/>
<stop offset="1" stop-color="#FF982F"/>
</linearGradient>
<linearGradient id="paint4_linear" x1="75.0016" y1="105.57" x2="91.4362" y2="105.57" gradientUnits="userSpaceOnUse">
<stop stop-color="#FDEB05"/>
<stop offset="0.26" stop-color="#FDDB0D"/>
<stop offset="0.75" stop-color="#FEB023"/>
<stop offset="1" stop-color="#FF982F"/>
</linearGradient>
<linearGradient id="paint5_linear" x1="113.836" y1="76.535" x2="124.667" y2="67.2101" gradientUnits="userSpaceOnUse">
<stop stop-color="#FF982F"/>
<stop offset="0.25" stop-color="#FEB023"/>
<stop offset="0.74" stop-color="#FDDB0D"/>
<stop offset="1" stop-color="#FDEB05"/>
</linearGradient>
<linearGradient id="paint6_linear" x1="75.0013" y1="102.576" x2="129.574" y2="102.576" gradientUnits="userSpaceOnUse">
<stop stop-color="#FBC403"/>
<stop offset="1" stop-color="#FDFF42"/>
</linearGradient>
<linearGradient id="paint7_linear" x1="75.0014" y1="81.1086" x2="112.081" y2="81.1086" gradientUnits="userSpaceOnUse">
<stop stop-color="#FDFF42"/>
<stop offset="1" stop-color="#FBC403"/>
</linearGradient>
<linearGradient id="paint8_linear" x1="81.807" y1="116.465" x2="126.481" y2="69.0274" gradientUnits="userSpaceOnUse">
<stop stop-color="#FBC403"/>
<stop offset="1" stop-color="#FDF9C3"/>
</linearGradient>
</defs>
</svg>
