<svg width="428" height="53" viewBox="0 0 428 53" fill="none" xmlns="http://www.w3.org/2000/svg">
<path d="M25.9414 41H0.0527344V2.24756H9.90869V33.0508H25.9414V41ZM43.9883 41.6445C39.2438 41.6445 35.5288 40.2749 32.8433 37.5356C30.1219 34.7785 28.7612 30.9471 28.7612 26.0415C28.7612 21.2254 30.1398 17.4209 32.897 14.6279C35.6183 11.8529 39.3154 10.4653 43.9883 10.4653C48.679 10.4653 52.3851 11.8439 55.1064 14.6011C57.8457 17.3761 59.2153 21.1896 59.2153 26.0415C59.2153 30.965 57.8547 34.8053 55.1333 37.5625C52.4478 40.2839 48.7327 41.6445 43.9883 41.6445ZM43.9883 34.6353C45.7428 34.6353 47.1035 33.8923 48.0703 32.4062C49.0729 30.9023 49.5742 28.7808 49.5742 26.0415C49.5742 23.3739 49.0729 21.2702 48.0703 19.7305C47.0677 18.2266 45.707 17.4746 43.9883 17.4746C42.2516 17.4746 40.891 18.2266 39.9062 19.7305C38.9036 21.2523 38.4023 23.356 38.4023 26.0415C38.4023 28.7808 38.8947 30.9023 39.8794 32.4062C40.8641 33.8923 42.2337 34.6353 43.9883 34.6353ZM66.9229 51.9302C64.7923 51.9302 63.6375 51.9123 63.4585 51.8765V44.6792C63.548 44.6971 64.103 44.7061 65.1235 44.7061C68.2746 44.7061 70.0112 43.8288 70.3335 42.0742L70.4678 41.2417L60.2627 11.1099H70.7632L76.2686 33.8027H76.4565L81.9619 11.1099H92.0059L82.3916 40.9463C81.1204 44.9209 79.2943 47.7497 76.9131 49.4326C74.5498 51.0977 71.2197 51.9302 66.9229 51.9302ZM106.051 34.7964C107.627 34.7964 108.952 34.3757 110.026 33.5342C111.154 32.6748 111.718 31.5737 111.718 30.231V28.1631L106.212 28.5391C103.419 28.736 102.023 29.7923 102.023 31.708C102.023 32.6569 102.39 33.4089 103.124 33.9639C103.84 34.5189 104.816 34.7964 106.051 34.7964ZM102.694 41.4028C99.8477 41.4028 97.4665 40.5614 95.5508 38.8784C93.5814 37.1776 92.5967 35.0023 92.5967 32.3525C92.5967 26.7487 96.634 23.6961 104.708 23.1948L111.718 22.7651V21.0464C111.718 19.8468 111.315 18.9159 110.509 18.2534C109.722 17.6089 108.647 17.2866 107.287 17.2866C106.015 17.2866 104.959 17.591 104.118 18.1997C103.312 18.7905 102.838 19.5604 102.694 20.5093H94.1274C94.2528 17.4836 95.5418 15.0576 97.9946 13.2314C100.465 11.3874 103.715 10.4653 107.743 10.4653C111.718 10.4653 114.923 11.3874 117.357 13.2314C119.792 15.0934 121.01 17.5283 121.01 20.5361V41H111.771V36.7031H111.583C110.796 38.1712 109.569 39.326 107.904 40.1675C106.293 40.991 104.556 41.4028 102.694 41.4028ZM125.951 0.313965H135.458V41H125.951V0.313965ZM152.35 4.50342V11.1099H157.748V18.146H152.35V30.9023C152.35 32.9971 153.505 34.0444 155.814 34.0444C156.477 34.0444 157.121 33.9997 157.748 33.9102V40.6777C156.656 40.9284 155.259 41.0537 153.559 41.0537C149.727 41.0537 146.979 40.4092 145.314 39.1201C143.667 37.849 142.843 35.7453 142.843 32.8091V18.146H138.842V11.1099H142.843V4.50342H152.35ZM166.342 51.9302C164.211 51.9302 163.056 51.9123 162.877 51.8765V44.6792C162.967 44.6971 163.522 44.7061 164.542 44.7061C167.694 44.7061 169.43 43.8288 169.752 42.0742L169.887 41.2417L159.682 11.1099H170.182L175.688 33.8027H175.875L181.381 11.1099H191.425L181.811 40.9463C180.539 44.9209 178.713 47.7497 176.332 49.4326C173.969 51.0977 170.639 51.9302 166.342 51.9302ZM223.812 10.707C227.59 10.707 230.526 12.0498 232.621 14.7354C234.734 17.4209 235.79 21.1896 235.79 26.0415C235.79 30.8934 234.743 34.6621 232.648 37.3477C230.571 40.0511 227.662 41.4028 223.92 41.4028C219.426 41.4028 216.374 39.5677 214.762 35.8975H214.574V50.104H205.067V11.1099H214.521V16.3467H214.708C215.46 14.5742 216.633 13.1956 218.227 12.2109C219.82 11.2083 221.682 10.707 223.812 10.707ZM220.294 33.9102C222.049 33.9102 223.445 33.203 224.484 31.7886C225.522 30.3563 226.042 28.4406 226.042 26.0415C226.042 23.6603 225.522 21.7625 224.484 20.3481C223.428 18.9159 222.031 18.1997 220.294 18.1997C218.558 18.1997 217.161 18.9159 216.105 20.3481C215.067 21.7804 214.547 23.6872 214.547 26.0684C214.547 28.4674 215.067 30.3742 216.105 31.7886C217.143 33.203 218.54 33.9102 220.294 33.9102ZM239.657 11.1099H248.896V16.7227H249.083C250.176 12.7122 252.53 10.707 256.146 10.707C257.006 10.707 257.812 10.8324 258.563 11.083V19.2471C257.74 18.889 256.719 18.71 255.502 18.71C253.461 18.71 251.894 19.265 250.802 20.375C249.71 21.5029 249.164 23.1143 249.164 25.209V41H239.657V11.1099ZM275.106 41.6445C270.362 41.6445 266.647 40.2749 263.961 37.5356C261.24 34.7785 259.879 30.9471 259.879 26.0415C259.879 21.2254 261.258 17.4209 264.015 14.6279C266.736 11.8529 270.434 10.4653 275.106 10.4653C279.797 10.4653 283.503 11.8439 286.225 14.6011C288.964 17.3761 290.333 21.1896 290.333 26.0415C290.333 30.965 288.973 34.8053 286.251 37.5625C283.566 40.2839 279.851 41.6445 275.106 41.6445ZM275.106 34.6353C276.861 34.6353 278.222 33.8923 279.188 32.4062C280.191 30.9023 280.692 28.7808 280.692 26.0415C280.692 23.3739 280.191 21.2702 279.188 19.7305C278.186 18.2266 276.825 17.4746 275.106 17.4746C273.37 17.4746 272.009 18.2266 271.024 19.7305C270.022 21.2523 269.521 23.356 269.521 26.0415C269.521 28.7808 270.013 30.9023 270.998 32.4062C271.982 33.8923 273.352 34.6353 275.106 34.6353ZM308.703 33.6416C310.493 33.6416 311.898 32.9792 312.919 31.6543C313.957 30.3115 314.477 28.4406 314.477 26.0415C314.477 23.6424 313.957 21.7357 312.919 20.3213C311.881 18.9069 310.475 18.1997 308.703 18.1997C306.93 18.1997 305.534 18.8979 304.513 20.2944C303.475 21.7088 302.956 23.6156 302.956 26.0146C302.956 28.4316 303.466 30.3115 304.486 31.6543C305.507 32.9792 306.912 33.6416 308.703 33.6416ZM308.542 52.0913C304.316 52.0913 300.888 51.2677 298.256 49.6206C295.588 47.9556 294.192 45.7355 294.066 42.9604H303.305C303.502 43.8019 304.11 44.4823 305.131 45.0015C306.133 45.5028 307.324 45.7534 308.703 45.7534C310.439 45.7534 311.827 45.3416 312.865 44.5181C313.904 43.6766 314.423 42.5397 314.423 41.1074V35.4409H314.235C313.626 37.0343 312.507 38.3055 310.878 39.2544C309.231 40.2212 307.315 40.7046 305.131 40.7046C301.532 40.7046 298.659 39.4066 296.51 36.8105C294.326 34.1608 293.234 30.5443 293.234 25.9609C293.234 21.2165 294.308 17.4925 296.457 14.7891C298.605 12.0677 301.55 10.707 305.292 10.707C307.405 10.707 309.276 11.2262 310.905 12.2646C312.48 13.2852 313.617 14.6458 314.315 16.3467H314.477V11.1099H323.957V40.4092C323.957 43.9541 322.551 46.7829 319.74 48.8955C316.929 51.026 313.196 52.0913 308.542 52.0913ZM328.764 11.1099H338.002V16.7227H338.19C339.282 12.7122 341.636 10.707 345.253 10.707C346.112 10.707 346.918 10.8324 347.67 11.083V19.2471C346.846 18.889 345.826 18.71 344.608 18.71C342.567 18.71 341.001 19.265 339.909 20.375C338.817 21.5029 338.271 23.1143 338.271 25.209V41H328.764V11.1099ZM362.306 34.7964C363.882 34.7964 365.207 34.3757 366.281 33.5342C367.409 32.6748 367.973 31.5737 367.973 30.231V28.1631L362.467 28.5391C359.674 28.736 358.278 29.7923 358.278 31.708C358.278 32.6569 358.645 33.4089 359.379 33.9639C360.095 34.5189 361.071 34.7964 362.306 34.7964ZM358.949 41.4028C356.103 41.4028 353.721 40.5614 351.806 38.8784C349.836 37.1776 348.852 35.0023 348.852 32.3525C348.852 26.7487 352.889 23.6961 360.963 23.1948L367.973 22.7651V21.0464C367.973 19.8468 367.57 18.9159 366.764 18.2534C365.976 17.6089 364.902 17.2866 363.542 17.2866C362.27 17.2866 361.214 17.591 360.373 18.1997C359.567 18.7905 359.092 19.5604 358.949 20.5093H350.382C350.508 17.4836 351.797 15.0576 354.25 13.2314C356.72 11.3874 359.97 10.4653 363.998 10.4653C367.973 10.4653 371.177 11.3874 373.612 13.2314C376.047 15.0934 377.265 17.5283 377.265 20.5361V41H368.026V36.7031H367.838C367.051 38.1712 365.824 39.326 364.159 40.1675C362.548 40.991 360.811 41.4028 358.949 41.4028ZM382.045 11.1099H391.283V16.8569H391.471C392.062 14.9412 393.127 13.4194 394.667 12.2915C396.207 11.1636 397.988 10.5996 400.011 10.5996C402.231 10.5996 404.066 11.1457 405.517 12.2378C406.967 13.3478 407.907 14.9144 408.336 16.9375H408.524C409.115 15.0039 410.243 13.4642 411.908 12.3184C413.591 11.1725 415.543 10.5996 417.763 10.5996C420.681 10.5996 423.044 11.5306 424.853 13.3926C426.661 15.2725 427.565 17.7253 427.565 20.751V41H418.058V23.168C418.058 19.9453 416.626 18.334 413.761 18.334C412.418 18.334 411.353 18.7816 410.565 19.6768C409.76 20.5719 409.357 21.7715 409.357 23.2754V41H400.28V23.0337C400.28 21.5298 399.904 20.366 399.152 19.5425C398.418 18.7368 397.361 18.334 395.983 18.334C394.658 18.334 393.584 18.7905 392.76 19.7036C391.955 20.6167 391.552 21.8252 391.552 23.3291V41H382.045V11.1099Z" fill="url(#paint0_linear)"/>
<defs>
<linearGradient id="paint0_linear" x1="-3" y1="3.31101" x2="442.837" y2="3.31102" gradientUnits="userSpaceOnUse">
<stop stop-color="#EB8106"/>
<stop offset="1" stop-color="#F34119"/>
</linearGradient>
</defs>
</svg>
