<svg width="628" height="253" viewBox="0 0 628 253" fill="none" xmlns="http://www.w3.org/2000/svg">
<g filter="url(#filter0_d)">
<path d="M125.941 121H100.053V82.2476H109.909V113.051H125.941V121ZM143.988 121.645C139.244 121.645 135.529 120.275 132.843 117.536C130.122 114.778 128.761 110.947 128.761 106.042C128.761 101.225 130.14 97.4209 132.897 94.6279C135.618 91.8529 139.315 90.4653 143.988 90.4653C148.679 90.4653 152.385 91.8439 155.106 94.6011C157.846 97.3761 159.215 101.19 159.215 106.042C159.215 110.965 157.855 114.805 155.133 117.562C152.448 120.284 148.733 121.645 143.988 121.645ZM143.988 114.635C145.743 114.635 147.104 113.892 148.07 112.406C149.073 110.902 149.574 108.781 149.574 106.042C149.574 103.374 149.073 101.27 148.07 99.7305C147.068 98.2266 145.707 97.4746 143.988 97.4746C142.252 97.4746 140.891 98.2266 139.906 99.7305C138.904 101.252 138.402 103.356 138.402 106.042C138.402 108.781 138.895 110.902 139.879 112.406C140.864 113.892 142.234 114.635 143.988 114.635ZM166.923 131.93C164.792 131.93 163.638 131.912 163.458 131.876V124.679C163.548 124.697 164.103 124.706 165.124 124.706C168.275 124.706 170.011 123.829 170.333 122.074L170.468 121.242L160.263 91.1099H170.763L176.269 113.803H176.457L181.962 91.1099H192.006L182.392 120.946C181.12 124.921 179.294 127.75 176.913 129.433C174.55 131.098 171.22 131.93 166.923 131.93ZM206.051 114.796C207.627 114.796 208.952 114.376 210.026 113.534C211.154 112.675 211.718 111.574 211.718 110.231V108.163L206.212 108.539C203.419 108.736 202.023 109.792 202.023 111.708C202.023 112.657 202.39 113.409 203.124 113.964C203.84 114.519 204.816 114.796 206.051 114.796ZM202.694 121.403C199.848 121.403 197.466 120.561 195.551 118.878C193.581 117.178 192.597 115.002 192.597 112.353C192.597 106.749 196.634 103.696 204.708 103.195L211.718 102.765V101.046C211.718 99.8468 211.315 98.9159 210.509 98.2534C209.722 97.6089 208.647 97.2866 207.287 97.2866C206.015 97.2866 204.959 97.591 204.118 98.1997C203.312 98.7905 202.838 99.5604 202.694 100.509H194.127C194.253 97.4836 195.542 95.0576 197.995 93.2314C200.465 91.3874 203.715 90.4653 207.743 90.4653C211.718 90.4653 214.923 91.3874 217.357 93.2314C219.792 95.0934 221.01 97.5283 221.01 100.536V121H211.771V116.703H211.583C210.796 118.171 209.569 119.326 207.904 120.167C206.293 120.991 204.556 121.403 202.694 121.403ZM225.951 80.314H235.458V121H225.951V80.314ZM252.35 84.5034V91.1099H257.748V98.146H252.35V110.902C252.35 112.997 253.505 114.044 255.814 114.044C256.477 114.044 257.121 114 257.748 113.91V120.678C256.656 120.928 255.259 121.054 253.559 121.054C249.727 121.054 246.979 120.409 245.314 119.12C243.667 117.849 242.843 115.745 242.843 112.809V98.146H238.842V91.1099H242.843V84.5034H252.35ZM266.342 131.93C264.211 131.93 263.056 131.912 262.877 131.876V124.679C262.967 124.697 263.522 124.706 264.542 124.706C267.694 124.706 269.43 123.829 269.752 122.074L269.887 121.242L259.682 91.1099H270.182L275.688 113.803H275.875L281.381 91.1099H291.425L281.811 120.946C280.539 124.921 278.713 127.75 276.332 129.433C273.969 131.098 270.639 131.93 266.342 131.93ZM323.812 90.707C327.59 90.707 330.526 92.0498 332.621 94.7354C334.734 97.4209 335.79 101.19 335.79 106.042C335.79 110.893 334.743 114.662 332.648 117.348C330.571 120.051 327.662 121.403 323.92 121.403C319.426 121.403 316.374 119.568 314.762 115.897H314.574V130.104H305.067V91.1099H314.521V96.3467H314.708C315.46 94.5742 316.633 93.1956 318.227 92.2109C319.82 91.2083 321.682 90.707 323.812 90.707ZM320.294 113.91C322.049 113.91 323.445 113.203 324.484 111.789C325.522 110.356 326.042 108.441 326.042 106.042C326.042 103.66 325.522 101.763 324.484 100.348C323.428 98.9159 322.031 98.1997 320.294 98.1997C318.558 98.1997 317.161 98.9159 316.105 100.348C315.067 101.78 314.547 103.687 314.547 106.068C314.547 108.467 315.067 110.374 316.105 111.789C317.143 113.203 318.54 113.91 320.294 113.91ZM339.657 91.1099H348.896V96.7227H349.083C350.176 92.7122 352.53 90.707 356.146 90.707C357.006 90.707 357.812 90.8324 358.563 91.083V99.2471C357.74 98.889 356.719 98.71 355.502 98.71C353.461 98.71 351.894 99.265 350.802 100.375C349.71 101.503 349.164 103.114 349.164 105.209V121H339.657V91.1099ZM375.106 121.645C370.362 121.645 366.647 120.275 363.961 117.536C361.24 114.778 359.879 110.947 359.879 106.042C359.879 101.225 361.258 97.4209 364.015 94.6279C366.736 91.8529 370.434 90.4653 375.106 90.4653C379.797 90.4653 383.503 91.8439 386.225 94.6011C388.964 97.3761 390.333 101.19 390.333 106.042C390.333 110.965 388.973 114.805 386.251 117.562C383.566 120.284 379.851 121.645 375.106 121.645ZM375.106 114.635C376.861 114.635 378.222 113.892 379.188 112.406C380.191 110.902 380.692 108.781 380.692 106.042C380.692 103.374 380.191 101.27 379.188 99.7305C378.186 98.2266 376.825 97.4746 375.106 97.4746C373.37 97.4746 372.009 98.2266 371.024 99.7305C370.022 101.252 369.521 103.356 369.521 106.042C369.521 108.781 370.013 110.902 370.998 112.406C371.982 113.892 373.352 114.635 375.106 114.635ZM408.703 113.642C410.493 113.642 411.898 112.979 412.919 111.654C413.957 110.312 414.477 108.441 414.477 106.042C414.477 103.642 413.957 101.736 412.919 100.321C411.881 98.9069 410.475 98.1997 408.703 98.1997C406.93 98.1997 405.534 98.8979 404.513 100.294C403.475 101.709 402.956 103.616 402.956 106.015C402.956 108.432 403.466 110.312 404.486 111.654C405.507 112.979 406.912 113.642 408.703 113.642ZM408.542 132.091C404.316 132.091 400.888 131.268 398.256 129.621C395.588 127.956 394.192 125.736 394.066 122.96H403.305C403.502 123.802 404.11 124.482 405.131 125.001C406.133 125.503 407.324 125.753 408.703 125.753C410.439 125.753 411.827 125.342 412.865 124.518C413.904 123.677 414.423 122.54 414.423 121.107V115.441H414.235C413.626 117.034 412.507 118.306 410.878 119.254C409.231 120.221 407.315 120.705 405.131 120.705C401.532 120.705 398.659 119.407 396.51 116.811C394.326 114.161 393.234 110.544 393.234 105.961C393.234 101.216 394.308 97.4925 396.457 94.7891C398.605 92.0677 401.55 90.707 405.292 90.707C407.405 90.707 409.276 91.2262 410.905 92.2646C412.48 93.2852 413.617 94.6458 414.315 96.3467H414.477V91.1099H423.957V120.409C423.957 123.954 422.551 126.783 419.74 128.896C416.929 131.026 413.196 132.091 408.542 132.091ZM428.764 91.1099H438.002V96.7227H438.19C439.282 92.7122 441.636 90.707 445.253 90.707C446.112 90.707 446.918 90.8324 447.67 91.083V99.2471C446.846 98.889 445.826 98.71 444.608 98.71C442.567 98.71 441.001 99.265 439.909 100.375C438.817 101.503 438.271 103.114 438.271 105.209V121H428.764V91.1099ZM462.306 114.796C463.882 114.796 465.207 114.376 466.281 113.534C467.409 112.675 467.973 111.574 467.973 110.231V108.163L462.467 108.539C459.674 108.736 458.278 109.792 458.278 111.708C458.278 112.657 458.645 113.409 459.379 113.964C460.095 114.519 461.071 114.796 462.306 114.796ZM458.949 121.403C456.103 121.403 453.721 120.561 451.806 118.878C449.836 117.178 448.852 115.002 448.852 112.353C448.852 106.749 452.889 103.696 460.963 103.195L467.973 102.765V101.046C467.973 99.8468 467.57 98.9159 466.764 98.2534C465.976 97.6089 464.902 97.2866 463.542 97.2866C462.27 97.2866 461.214 97.591 460.373 98.1997C459.567 98.7905 459.092 99.5604 458.949 100.509H450.382C450.508 97.4836 451.797 95.0576 454.25 93.2314C456.72 91.3874 459.97 90.4653 463.998 90.4653C467.973 90.4653 471.177 91.3874 473.612 93.2314C476.047 95.0934 477.265 97.5283 477.265 100.536V121H468.026V116.703H467.838C467.051 118.171 465.824 119.326 464.159 120.167C462.548 120.991 460.811 121.403 458.949 121.403ZM482.045 91.1099H491.283V96.8569H491.471C492.062 94.9412 493.127 93.4194 494.667 92.2915C496.207 91.1636 497.988 90.5996 500.011 90.5996C502.231 90.5996 504.066 91.1457 505.517 92.2378C506.967 93.3478 507.907 94.9144 508.336 96.9375H508.524C509.115 95.0039 510.243 93.4642 511.908 92.3184C513.591 91.1725 515.543 90.5996 517.763 90.5996C520.681 90.5996 523.044 91.5306 524.853 93.3926C526.661 95.2725 527.565 97.7253 527.565 100.751V121H518.058V103.168C518.058 99.9453 516.626 98.334 513.761 98.334C512.418 98.334 511.353 98.7816 510.565 99.6768C509.76 100.572 509.357 101.771 509.357 103.275V121H500.28V103.034C500.28 101.53 499.904 100.366 499.152 99.5425C498.418 98.7368 497.361 98.334 495.983 98.334C494.658 98.334 493.584 98.7905 492.76 99.7036C491.955 100.617 491.552 101.825 491.552 103.329V121H482.045V91.1099Z" fill="url(#paint0_linear)"/>
</g>
<defs>
<filter id="filter0_d" x="0.0527344" y="0.313965" width="627.512" height="251.777" filterUnits="userSpaceOnUse" color-interpolation-filters="sRGB">
<feFlood flood-opacity="0" result="BackgroundImageFix"/>
<feColorMatrix in="SourceAlpha" type="matrix" values="0 0 0 0 0 0 0 0 0 0 0 0 0 0 0 0 0 0 127 0"/>
<feOffset dy="20"/>
<feGaussianBlur stdDeviation="50"/>
<feColorMatrix type="matrix" values="0 0 0 0 1 0 0 0 0 0.497797 0 0 0 0 0 0 0 0 0.5 0"/>
<feBlend mode="normal" in2="BackgroundImageFix" result="effect1_dropShadow"/>
<feBlend mode="normal" in="SourceGraphic" in2="effect1_dropShadow" result="shape"/>
</filter>
<linearGradient id="paint0_linear" x1="97" y1="83.311" x2="542.837" y2="83.311" gradientUnits="userSpaceOnUse">
<stop stop-color="#EB8106"/>
<stop offset="1" stop-color="#F34119"/>
</linearGradient>
</defs>
</svg>
