<svg width="210" height="210" viewBox="0 0 210 210" fill="none" xmlns="http://www.w3.org/2000/svg">
<g filter="url(#filter0_df)">
<path d="M105 20L113.403 73.6392L147.5 31.3878L127.958 82.0423L178.612 62.5L136.361 96.5969L190 105L136.361 113.403L178.612 147.5L127.958 127.958L147.5 178.612L113.403 136.361L105 190L96.5969 136.361L62.5 178.612L82.0423 127.958L31.3878 147.5L73.6392 113.403L20 105L73.6392 96.5969L31.3878 62.5L82.0423 82.0423L62.5 31.3878L96.5969 73.6392L105 20Z" fill="#1760F1" fill-opacity="0.1"/>
</g>
<g filter="url(#filter1_d)">
<path d="M123.579 149.139H86.4112L73.0037 136.016V73.1231L86.4112 60H123.579L136.989 73.1231V136.016L123.579 149.139Z" fill="url(#paint0_linear)"/>
<path d="M123.063 129.849L104.994 104.568L86.9255 129.849L92.7112 135.511H117.277L123.063 129.849Z" fill="url(#paint1_linear)"/>
<path opacity="0.43" d="M121.773 129.739L119.822 131.639L116.866 134.539H93.1219L90.1584 131.639L88.215 129.739L104.994 106.265L121.773 129.739ZM104.994 104.568L86.9255 129.849L92.7112 135.511H117.277L123.063 129.849L104.994 104.568Z" fill="url(#paint2_linear)"/>
<path style="mix-blend-mode:screen" d="M117.277 121.753L86.9358 129.849L92.7215 135.511H117.287L123.073 129.849L117.277 121.753Z" fill="url(#paint3_linear)"/>
<path d="M104.994 104.568L123.063 79.2816L117.277 73.6198H92.7112C90.4514 75.8287 89.1828 77.0701 86.9255 79.2816L104.994 104.568Z" fill="url(#paint4_linear)"/>
<path style="mix-blend-mode:screen" d="M105.541 87.7284C101.617 89.0082 96.2475 88.7522 92.2012 86.6508L105.002 104.568L123.063 79.2816L120.586 76.8551C116.641 81.7952 111.544 85.7242 105.541 87.7284Z" fill="url(#paint5_linear)"/>
<path style="mix-blend-mode:screen" opacity="0.25" d="M115.998 89.1746L123.06 79.2893L117.274 73.6274H100.409C105.841 78.5777 110.97 83.825 115.998 89.1746Z" fill="url(#paint6_linear)"/>
<path style="mix-blend-mode:screen" opacity="0.25" d="M86.9255 79.2816L104.994 104.56L112.511 94.0455C104.913 88.1661 86.9255 79.2816 86.9255 79.2816Z" fill="url(#paint7_linear)"/>
<path d="M104.994 104.568L123.065 129.849V79.2893L104.994 104.568Z" fill="url(#paint8_linear)"/>
<path d="M115.998 89.1746L123.065 129.849V79.2893L115.998 89.1746Z" fill="url(#paint9_linear)"/>
<path d="M104.994 104.568L86.9255 79.2893V129.849L104.994 104.568Z" fill="url(#paint10_linear)"/>
<path style="mix-blend-mode:screen" opacity="0.21" d="M104.994 104.568L93.3468 88.2761C91.2421 95.1615 89.1017 102.039 86.9255 108.909V129.849L104.994 104.568Z" fill="url(#paint11_linear)"/>
<path style="mix-blend-mode:screen" opacity="0.7" d="M86.9255 79.2816V108.909C89.0878 102.038 91.2282 95.1598 93.3468 88.2761L86.9255 79.2816Z" fill="url(#paint12_linear)"/>
<path d="M73 73.1231V104.568H86.9254V79.2892L73 73.1231Z" fill="url(#paint13_linear)"/>
<path d="M73 136.016L86.9254 129.849V104.568H73V136.016Z" fill="url(#paint14_linear)"/>
<path d="M136.988 73.1231L123.065 79.2892V104.568H136.988V73.1231Z" fill="url(#paint15_linear)"/>
<path style="mix-blend-mode:screen" d="M136.988 73.1231L123.063 79.2815C123.063 79.2815 128.213 80.4462 131.433 84.4545C136.455 90.7077 136.988 104.56 136.988 104.56V73.1231Z" fill="url(#paint16_linear)"/>
<path d="M123.065 104.568V129.849L136.988 136.016V104.568H123.065Z" fill="url(#paint17_linear)"/>
<path style="mix-blend-mode:screen" d="M123.063 104.568V129.849L123.324 129.962C126.081 113.043 136.993 104.568 136.993 104.568H123.063Z" fill="url(#paint18_linear)"/>
<path d="M117.277 73.6274L123.578 60H86.4102L92.7111 73.6274H117.277Z" fill="url(#paint19_linear)"/>
<path style="mix-blend-mode:screen" d="M117.277 73.6274L123.578 60H86.4102L92.7111 73.6274H117.277Z" fill="url(#paint20_linear)"/>
<path style="mix-blend-mode:screen" d="M117.277 73.6274L123.578 60H86.4102C86.4102 60 98.9363 62.4239 104.128 64.0493C114.483 67.2923 117.277 73.6274 117.277 73.6274Z" fill="url(#paint21_linear)"/>
<path d="M123.063 79.2816L136.988 73.1155L123.578 60L117.277 73.6274L123.063 79.2816Z" fill="url(#paint22_linear)"/>
<path style="mix-blend-mode:screen" d="M123.063 79.2815L136.988 73.1154C124.433 74.9251 119.531 68.7436 119.531 68.7436L117.277 73.6069L123.063 79.2815Z" fill="url(#paint23_linear)"/>
<path d="M86.9265 79.2816C89.1838 77.0701 90.4523 75.8287 92.7122 73.6197L86.4112 60L73.0037 73.1231L86.9265 79.2816Z" fill="url(#paint24_linear)"/>
<path d="M123.063 129.849L117.277 135.511L123.578 149.139L136.988 136.015L123.063 129.849Z" fill="url(#paint25_linear)"/>
<path d="M86.9255 129.849L73.0027 136.015L86.4129 149.139L92.7138 135.511L86.9255 129.849Z" fill="url(#paint26_linear)"/>
<path d="M117.277 135.511H92.7111L86.4102 149.139H123.578L117.277 135.511Z" fill="url(#paint27_linear)"/>
<path d="M119.151 134.254C120.474 132.803 121.792 131.344 123.074 129.849C121.285 131.311 119.546 132.831 117.806 134.352C117.349 134.754 116.749 134.965 116.135 134.94C108.769 134.685 101.409 134.728 94.0383 134.736C93.725 134.736 93.4148 134.675 93.1253 134.558C92.8358 134.441 92.5728 134.269 92.3512 134.052L88.4278 130.213C87.9828 129.776 87.7326 129.184 87.7321 128.567V121.979C87.7138 108.251 87.9936 94.4806 87.4941 80.7687C87.4787 80.3513 87.5522 79.9353 87.7098 79.5471C87.8674 79.1589 88.1056 78.807 88.4095 78.5137C89.6232 77.3414 91.5273 75.5701 92.2283 74.9635C92.712 74.5465 93.342 74.3291 93.986 74.3569C101.333 74.6922 108.707 74.7075 116.054 74.3569C116.7 74.3264 117.332 74.5441 117.817 74.9635C119.535 76.4506 121.277 77.9148 123.09 79.2918C121.782 77.6306 120.38 76.0334 118.962 74.4567C118.651 74.1174 118.444 73.6992 118.365 73.2501C118.286 72.801 118.338 72.3391 118.515 71.9176L123.584 60L117.385 71.5413C117.172 71.9338 116.852 72.2611 116.46 72.4869C116.069 72.7128 115.621 72.8284 115.167 72.8211C111.367 72.775 101.257 72.6471 94.6817 72.8697C94.2092 72.8847 93.7421 72.7674 93.3354 72.5316C92.9286 72.2958 92.599 71.9514 92.3852 71.5387L86.4112 60C88.0643 64.0288 89.7164 68.0585 91.3678 72.0891C91.5387 72.5049 91.5886 72.9589 91.512 73.4007C91.4353 73.8426 91.2351 74.255 90.9336 74.5924C90.5752 74.9917 89.4453 76.1281 88.4592 77.0778C88.0347 77.4898 87.4969 77.7723 86.9114 77.8909C86.3259 78.0095 85.7178 77.9591 85.161 77.7458L73.0037 73.1231L84.5777 79.0103C85.0964 79.2755 85.5279 79.679 85.8222 80.174C86.1166 80.6691 86.2618 81.2355 86.2412 81.8079C86.0816 86.364 86.0816 90.9099 86.0816 95.4865C86.0816 97.7185 86.0816 99.9496 86.0816 102.18C86.0831 102.62 85.9122 103.043 85.6043 103.364C85.2964 103.684 84.8747 103.877 84.426 103.903L73.0037 104.568L84.4443 105.236C84.8916 105.262 85.3122 105.453 85.6199 105.772C85.9277 106.091 86.0994 106.513 86.0999 106.951C86.1122 113.947 86.1235 120.938 86.134 127.922C86.1347 128.35 86.0153 128.769 85.7888 129.135C85.5623 129.5 85.2374 129.798 84.8497 129.995L73.0037 136.016L84.9491 131.47C85.4176 131.291 85.9289 131.251 86.4208 131.352C86.9127 131.453 87.3637 131.692 87.719 132.04L90.4758 134.736C90.8309 135.084 91.0748 135.526 91.1779 136.008C91.281 136.49 91.2388 136.99 91.0565 137.449L86.4112 149.139L92.5631 137.544C92.765 137.165 93.0693 136.847 93.4428 136.625C93.8164 136.404 94.2449 136.287 94.6817 136.287C101.535 136.287 108.377 136.328 115.225 136.11C115.654 136.096 116.08 136.195 116.457 136.399C116.834 136.602 117.147 136.901 117.364 137.265L124.426 149.139L118.761 136.758C118.572 136.348 118.508 135.894 118.577 135.45C118.646 135.005 118.846 134.59 119.151 134.254Z" fill="url(#paint28_linear)"/>
<path d="M119.151 134.254C120.474 132.803 121.792 131.344 123.074 129.849C121.285 131.311 119.546 132.831 117.806 134.352C117.349 134.754 116.749 134.965 116.135 134.94C108.769 134.685 101.409 134.728 94.0383 134.736C93.725 134.736 93.4148 134.675 93.1253 134.558C92.8358 134.441 92.5728 134.269 92.3512 134.052L88.4278 130.213C87.9828 129.776 87.7326 129.184 87.7321 128.567V121.979C87.7138 108.251 87.9936 94.4806 87.4941 80.7687C87.4787 80.3513 87.5522 79.9353 87.7098 79.5471C87.8674 79.1589 88.1056 78.807 88.4095 78.5137C89.6232 77.3414 91.5273 75.5701 92.2283 74.9635C92.712 74.5465 93.342 74.3291 93.986 74.3569C101.333 74.6922 108.707 74.7075 116.054 74.3569C116.7 74.3264 117.332 74.5441 117.817 74.9635C119.535 76.4506 121.277 77.9148 123.09 79.2918C121.782 77.6306 120.38 76.0334 118.962 74.4567C118.651 74.1174 118.444 73.6992 118.365 73.2501C118.286 72.801 118.338 72.3391 118.515 71.9176L123.584 60L117.385 71.5413C117.172 71.9338 116.852 72.2611 116.46 72.4869C116.069 72.7128 115.621 72.8284 115.167 72.8211C111.367 72.775 101.257 72.6471 94.6817 72.8697C94.2092 72.8847 93.7421 72.7674 93.3354 72.5316C92.9286 72.2958 92.599 71.9514 92.3852 71.5387L86.4112 60C88.0643 64.0288 89.7164 68.0585 91.3678 72.0891C91.5387 72.5049 91.5886 72.9589 91.512 73.4007C91.4353 73.8426 91.2351 74.255 90.9336 74.5924C90.5752 74.9917 89.4453 76.1281 88.4592 77.0778C88.0347 77.4898 87.4969 77.7723 86.9114 77.8909C86.3259 78.0095 85.7178 77.9591 85.161 77.7458L73.0037 73.1231L84.5777 79.0103C85.0964 79.2755 85.5279 79.679 85.8222 80.174C86.1166 80.6691 86.2618 81.2355 86.2412 81.8079C86.0816 86.364 86.0816 90.9099 86.0816 95.4865C86.0816 97.7185 86.0816 99.9496 86.0816 102.18C86.0831 102.62 85.9122 103.043 85.6043 103.364C85.2964 103.684 84.8747 103.877 84.426 103.903L73.0037 104.568L84.4443 105.236C84.8916 105.262 85.3122 105.453 85.6199 105.772C85.9277 106.091 86.0994 106.513 86.0999 106.951C86.1122 113.947 86.1235 120.938 86.134 127.922C86.1347 128.35 86.0153 128.769 85.7888 129.135C85.5623 129.5 85.2374 129.798 84.8497 129.995L73.0037 136.016L84.9491 131.47C85.4176 131.291 85.9289 131.251 86.4208 131.352C86.9127 131.453 87.3637 131.692 87.719 132.04L90.4758 134.736C90.8309 135.084 91.0748 135.526 91.1779 136.008C91.281 136.49 91.2388 136.99 91.0565 137.449L86.4112 149.139L92.5631 137.544C92.765 137.165 93.0693 136.847 93.4428 136.625C93.8164 136.404 94.2449 136.287 94.6817 136.287C101.535 136.287 108.377 136.328 115.225 136.11C115.654 136.096 116.08 136.195 116.457 136.399C116.834 136.602 117.147 136.901 117.364 137.265L124.426 149.139L118.761 136.758C118.572 136.348 118.508 135.894 118.577 135.45C118.646 135.005 118.846 134.59 119.151 134.254Z" fill="url(#paint29_linear)"/>
</g>
<defs>
<filter id="filter0_df" x="0" y="0" width="210" height="210" filterUnits="userSpaceOnUse" color-interpolation-filters="sRGB">
<feFlood flood-opacity="0" result="BackgroundImageFix"/>
<feColorMatrix in="SourceAlpha" type="matrix" values="0 0 0 0 0 0 0 0 0 0 0 0 0 0 0 0 0 0 127 0"/>
<feOffset/>
<feGaussianBlur stdDeviation="10"/>
<feColorMatrix type="matrix" values="0 0 0 0 0.0901961 0 0 0 0 0.376471 0 0 0 0 0.945098 0 0 0 0.4 0"/>
<feBlend mode="normal" in2="BackgroundImageFix" result="effect1_dropShadow"/>
<feBlend mode="normal" in="SourceGraphic" in2="effect1_dropShadow" result="shape"/>
<feGaussianBlur stdDeviation="3" result="effect2_foregroundBlur"/>
</filter>
<filter id="filter1_d" x="33" y="20" width="143.993" height="169.139" filterUnits="userSpaceOnUse" color-interpolation-filters="sRGB">
<feFlood flood-opacity="0" result="BackgroundImageFix"/>
<feColorMatrix in="SourceAlpha" type="matrix" values="0 0 0 0 0 0 0 0 0 0 0 0 0 0 0 0 0 0 127 0"/>
<feOffset/>
<feGaussianBlur stdDeviation="20"/>
<feColorMatrix type="matrix" values="0 0 0 0 0.0901961 0 0 0 0 0.376471 0 0 0 0 0.945098 0 0 0 0.7 0"/>
<feBlend mode="normal" in2="BackgroundImageFix" result="effect1_dropShadow"/>
<feBlend mode="normal" in="SourceGraphic" in2="effect1_dropShadow" result="shape"/>
</filter>
<linearGradient id="paint0_linear" x1="73.001" y1="104.568" x2="136.989" y2="104.568" gradientUnits="userSpaceOnUse">
<stop stop-color="#1D04C4"/>
<stop offset="0.21" stop-color="#310DCE"/>
<stop offset="0.63" stop-color="#6623E7"/>
<stop offset="1" stop-color="#9938FF"/>
</linearGradient>
<linearGradient id="paint1_linear" x1="88.5367" y1="118.623" x2="123.945" y2="123.708" gradientUnits="userSpaceOnUse">
<stop stop-color="#73B2FF"/>
<stop offset="0.1" stop-color="#72AEFF"/>
<stop offset="0.2" stop-color="#6EA3FF"/>
<stop offset="0.29" stop-color="#6890FF"/>
<stop offset="0.37" stop-color="#5F75FF"/>
<stop offset="0.46" stop-color="#5454FF"/>
<stop offset="0.54" stop-color="#482EFF"/>
<stop offset="1" stop-color="#6F05E0"/>
</linearGradient>
<linearGradient id="paint2_linear" x1="109.176" y1="139.041" x2="95.8854" y2="108.537" gradientUnits="userSpaceOnUse">
<stop stop-color="#219BFF"/>
<stop offset="0.04" stop-color="#31A3FF"/>
<stop offset="0.23" stop-color="#84CBFF"/>
<stop offset="0.37" stop-color="#B8E4FF"/>
<stop offset="0.44" stop-color="#CCEEFF"/>
<stop offset="1" stop-color="#FCFEFF"/>
</linearGradient>
<linearGradient id="paint3_linear" x1="104.994" y1="135.511" x2="104.994" y2="121.753" gradientUnits="userSpaceOnUse">
<stop stop-color="#DBF8FF"/>
<stop offset="0.13" stop-color="#ACEBFF"/>
<stop offset="0.29" stop-color="#7CDDFF"/>
<stop offset="0.44" stop-color="#54D2FF"/>
<stop offset="0.59" stop-color="#35C9FF"/>
<stop offset="0.73" stop-color="#1FC3FF"/>
<stop offset="0.87" stop-color="#12BFFF"/>
<stop offset="1" stop-color="#0DBEFF"/>
</linearGradient>
<linearGradient id="paint4_linear" x1="86.9255" y1="89.0978" x2="123.063" y2="89.0978" gradientUnits="userSpaceOnUse">
<stop stop-color="#7BA9FF"/>
<stop offset="0.29" stop-color="#8FA7FF"/>
<stop offset="0.88" stop-color="#C4A2FF"/>
<stop offset="1" stop-color="#CFA1FF"/>
</linearGradient>
<linearGradient id="paint5_linear" x1="6546.25" y1="5620.01" x2="5511.9" y2="3453.79" gradientUnits="userSpaceOnUse">
<stop stop-color="#DBF8FF"/>
<stop offset="0.13" stop-color="#ACEBFF"/>
<stop offset="0.29" stop-color="#7CDDFF"/>
<stop offset="0.44" stop-color="#54D2FF"/>
<stop offset="0.59" stop-color="#35C9FF"/>
<stop offset="0.73" stop-color="#1FC3FF"/>
<stop offset="0.87" stop-color="#12BFFF"/>
<stop offset="1" stop-color="#0DBEFF"/>
</linearGradient>
<linearGradient id="paint6_linear" x1="3470.44" y1="2130.2" x2="5432.24" y2="2130.2" gradientUnits="userSpaceOnUse">
<stop stop-color="#7BA9FF"/>
<stop offset="0.29" stop-color="#8FA7FF"/>
<stop offset="0.88" stop-color="#C4A2FF"/>
<stop offset="1" stop-color="#CFA1FF"/>
</linearGradient>
<linearGradient id="paint7_linear" x1="2574.63" y1="4462.87" x2="5077.43" y2="4462.87" gradientUnits="userSpaceOnUse">
<stop stop-color="#7BA9FF"/>
<stop offset="0.29" stop-color="#8FA7FF"/>
<stop offset="0.88" stop-color="#C4A2FF"/>
<stop offset="1" stop-color="#CFA1FF"/>
</linearGradient>
<linearGradient id="paint8_linear" x1="106.909" y1="99.1263" x2="130.904" y2="107.568" gradientUnits="userSpaceOnUse">
<stop stop-color="#B46EFF"/>
<stop offset="0.98" stop-color="#0D13B8"/>
</linearGradient>
<linearGradient id="paint9_linear" x1="1478.09" y1="10600.9" x2="2054.39" y2="10628.6" gradientUnits="userSpaceOnUse">
<stop stop-color="#B46EFF"/>
<stop offset="0.98" stop-color="#0D13B8"/>
</linearGradient>
<linearGradient id="paint10_linear" x1="74.7866" y1="121.533" x2="98.3624" y2="87.1262" gradientUnits="userSpaceOnUse">
<stop stop-color="#1860F2"/>
<stop offset="0.12" stop-color="#2D69F3"/>
<stop offset="0.35" stop-color="#627FF7"/>
<stop offset="0.69" stop-color="#B6A2FD"/>
<stop offset="0.82" stop-color="#D7B0FF"/>
</linearGradient>
<linearGradient id="paint11_linear" x1="1303.12" y1="12585.6" x2="4649.09" y2="10508.6" gradientUnits="userSpaceOnUse">
<stop stop-color="#1860F2"/>
<stop offset="0.12" stop-color="#2D69F3"/>
<stop offset="0.35" stop-color="#627FF7"/>
<stop offset="0.69" stop-color="#B6A2FD"/>
<stop offset="0.82" stop-color="#D7B0FF"/>
</linearGradient>
<linearGradient id="paint12_linear" x1="536.674" y1="6618.39" x2="1505.12" y2="6318.62" gradientUnits="userSpaceOnUse">
<stop stop-color="#1860F2"/>
<stop offset="0.12" stop-color="#2D69F3"/>
<stop offset="0.35" stop-color="#627FF7"/>
<stop offset="0.69" stop-color="#B6A2FD"/>
<stop offset="0.82" stop-color="#D7B0FF"/>
</linearGradient>
<linearGradient id="paint13_linear" x1="68.9432" y1="92.3509" x2="89.0455" y2="85.6758" gradientUnits="userSpaceOnUse">
<stop stop-color="#4732D9"/>
<stop offset="0.19" stop-color="#5B43DF"/>
<stop offset="0.58" stop-color="#906EEE"/>
<stop offset="1" stop-color="#CFA1FF"/>
</linearGradient>
<linearGradient id="paint14_linear" x1="90.4591" y1="114.075" x2="67.9532" y2="122.445" gradientUnits="userSpaceOnUse">
<stop stop-color="#D2A6FF"/>
<stop offset="0.14" stop-color="#B69BFD"/>
<stop offset="0.56" stop-color="#627CF7"/>
<stop offset="0.86" stop-color="#2C68F3"/>
<stop offset="1" stop-color="#1860F2"/>
</linearGradient>
<linearGradient id="paint15_linear" x1="121.478" y1="103.442" x2="141.006" y2="75.9797" gradientUnits="userSpaceOnUse">
<stop stop-color="#5012B5"/>
<stop offset="0.26" stop-color="#6423C5"/>
<stop offset="0.81" stop-color="#994EEF"/>
<stop offset="1" stop-color="#AD5EFF"/>
</linearGradient>
<linearGradient id="paint16_linear" x1="129.725" y1="92.0796" x2="143.203" y2="85.0607" gradientUnits="userSpaceOnUse">
<stop stop-color="#4D09E0"/>
<stop offset="0.2" stop-color="#611AE5"/>
<stop offset="0.6" stop-color="#9644F1"/>
<stop offset="1" stop-color="#D073FF"/>
</linearGradient>
<linearGradient id="paint17_linear" x1="120.56" y1="125.426" x2="141.942" y2="113.316" gradientUnits="userSpaceOnUse">
<stop offset="0.04" stop-color="#2004D9"/>
<stop offset="0.24" stop-color="#340DDF"/>
<stop offset="0.65" stop-color="#6923F0"/>
<stop offset="1" stop-color="#9938FF"/>
</linearGradient>
<linearGradient id="paint18_linear" x1="3794.21" y1="7037.62" x2="3080.38" y2="6820.52" gradientUnits="userSpaceOnUse">
<stop stop-color="#4D09E0"/>
<stop offset="0.2" stop-color="#611AE5"/>
<stop offset="0.6" stop-color="#9644F1"/>
<stop offset="1" stop-color="#D073FF"/>
</linearGradient>
<linearGradient id="paint19_linear" x1="86.4102" y1="66.8137" x2="123.578" y2="66.8137" gradientUnits="userSpaceOnUse">
<stop stop-color="#D073FF"/>
<stop offset="0.4" stop-color="#9644F1"/>
<stop offset="0.8" stop-color="#611AE5"/>
<stop offset="1" stop-color="#4D09E0"/>
</linearGradient>
<linearGradient id="paint20_linear" x1="86.4102" y1="66.8137" x2="123.578" y2="66.8137" gradientUnits="userSpaceOnUse">
<stop stop-color="#D073FF"/>
<stop offset="0.4" stop-color="#9644F1"/>
<stop offset="0.8" stop-color="#611AE5"/>
<stop offset="1" stop-color="#4D09E0"/>
</linearGradient>
<linearGradient id="paint21_linear" x1="5539.28" y1="1306.64" x2="5709.73" y2="309.774" gradientUnits="userSpaceOnUse">
<stop stop-color="#4D09E0"/>
<stop offset="0.2" stop-color="#611AE5"/>
<stop offset="0.6" stop-color="#9644F1"/>
<stop offset="1" stop-color="#D073FF"/>
</linearGradient>
<linearGradient id="paint22_linear" x1="117.541" y1="74.0548" x2="132.078" y2="65.1282" gradientUnits="userSpaceOnUse">
<stop stop-color="#5B04F0"/>
<stop offset="0.38" stop-color="#791DF7"/>
<stop offset="0.76" stop-color="#9031FD"/>
<stop offset="1" stop-color="#9938FF"/>
</linearGradient>
<linearGradient id="paint23_linear" x1="4784.08" y1="1383.67" x2="4937.89" y2="864.504" gradientUnits="userSpaceOnUse">
<stop stop-color="#DBF8FF"/>
<stop offset="0.13" stop-color="#ACEBFF"/>
<stop offset="0.29" stop-color="#7CDDFF"/>
<stop offset="0.44" stop-color="#54D2FF"/>
<stop offset="0.59" stop-color="#35C9FF"/>
<stop offset="0.73" stop-color="#1FC3FF"/>
<stop offset="0.87" stop-color="#12BFFF"/>
<stop offset="1" stop-color="#0DBEFF"/>
</linearGradient>
<linearGradient id="paint24_linear" x1="73.001" y1="69.6446" x2="92.7122" y2="69.6446" gradientUnits="userSpaceOnUse">
<stop stop-color="#4E37ED"/>
<stop offset="0.2" stop-color="#6248F0"/>
<stop offset="0.61" stop-color="#9773F7"/>
<stop offset="1" stop-color="#CFA1FF"/>
</linearGradient>
<linearGradient id="paint25_linear" x1="130.483" y1="147.201" x2="125.43" y2="129.185" gradientUnits="userSpaceOnUse">
<stop stop-color="#1D04C4"/>
<stop offset="0.39" stop-color="#2716D8"/>
<stop offset="1" stop-color="#3B38FF"/>
</linearGradient>
<linearGradient id="paint26_linear" x1="81.5138" y1="131.47" x2="86.768" y2="149.031" gradientUnits="userSpaceOnUse">
<stop stop-color="#73F3FF"/>
<stop offset="0.3" stop-color="#57A3F5"/>
<stop offset="0.64" stop-color="#3A4FEA"/>
<stop offset="0.88" stop-color="#281AE3"/>
<stop offset="1" stop-color="#2105E0"/>
</linearGradient>
<linearGradient id="paint27_linear" x1="92.0598" y1="136.571" x2="120.552" y2="154.065" gradientUnits="userSpaceOnUse">
<stop stop-color="#59F9FF"/>
<stop offset="0.32" stop-color="#45A3F4"/>
<stop offset="0.65" stop-color="#324FE9"/>
<stop offset="0.89" stop-color="#261AE3"/>
<stop offset="1" stop-color="#2105E0"/>
</linearGradient>
<linearGradient id="paint28_linear" x1="78.7998" y1="147.774" x2="124.281" y2="60.3667" gradientUnits="userSpaceOnUse">
<stop offset="0.2" stop-color="white"/>
<stop offset="0.48" stop-color="white"/>
<stop offset="0.87" stop-color="#D7B0FF"/>
</linearGradient>
<linearGradient id="paint29_linear" x1="141.014" y1="124.92" x2="67.8929" y2="81.7791" gradientUnits="userSpaceOnUse">
<stop stop-color="#219BFF"/>
<stop offset="0.03" stop-color="#31A3FF"/>
<stop offset="0.19" stop-color="#84CBFF"/>
<stop offset="0.31" stop-color="#B8E4FF"/>
<stop offset="0.37" stop-color="#CCEEFF"/>
<stop offset="0.65" stop-color="#FCFEFF"/>
<stop offset="0.8" stop-color="white"/>
</linearGradient>
</defs>
</svg>
