<svg width="26" height="26" viewBox="0 0 26 26" fill="none" xmlns="http://www.w3.org/2000/svg">
<path d="M17.9241 7.92026C16.0411 7.92026 14.2608 7.59233 12.9111 6.99684C12.5072 6.8186 12.1521 6.62003 11.8477 6.40479V7.73729C11.8477 8.24328 12.4398 8.80662 13.4317 9.24426C14.6211 9.76899 16.2164 10.058 17.9242 10.058C19.6318 10.058 21.2272 9.76899 22.4165 9.24426C23.4084 8.80662 24.0006 8.24328 24.0006 7.73729V6.40479C23.6962 6.62003 23.3411 6.8186 22.9372 6.99684C21.5874 7.59233 19.8071 7.92026 17.9241 7.92026Z" fill="#FFC400"/>
<path d="M17.9235 20.3397C19.6312 20.3397 21.2266 20.0507 22.4159 19.526C23.4078 19.0884 24 18.525 24 18.0191V16.6865C23.6956 16.9018 23.3404 17.1003 22.9365 17.2786C21.5868 17.8741 19.8065 18.202 17.9235 18.202C17.1577 18.202 16.4139 18.1482 15.7019 18.0431C15.6786 18.7589 15.5547 19.4495 15.3438 20.1015C16.1507 20.2579 17.0292 20.3397 17.9235 20.3397Z" fill="#FFC400"/>
<path d="M13.8206 12.8285C14.9569 13.2524 16.4063 13.4855 17.9241 13.4855C19.6318 13.4855 21.2272 13.1965 22.4165 12.6717C23.4084 12.2341 24.0006 11.6708 24.0006 11.1648V9.83228C23.6962 10.0475 23.341 10.2461 22.9371 10.4243C21.5874 11.0198 19.8071 11.3477 17.9241 11.3477C16.0411 11.3477 14.2608 11.0198 12.9111 10.4243C12.5072 10.2461 12.1521 10.0475 11.8477 9.83228V11.2405C12.5922 11.656 13.2591 12.1945 13.8206 12.8285Z" fill="#FFC400"/>
<path d="M17.9237 16.9122C19.6314 16.9122 21.2268 16.6232 22.4161 16.0985C23.408 15.6609 24.0002 15.0975 24.0002 14.5916V13.259C23.6958 13.4743 23.3406 13.6729 22.9367 13.8511C21.587 14.4466 19.8067 14.7745 17.9237 14.7745C16.8812 14.7745 15.8621 14.6716 14.9316 14.4787C15.2759 15.1739 15.5155 15.9297 15.6297 16.7255C16.357 16.8488 17.126 16.9122 17.9237 16.9122Z" fill="#FFC400"/>
<path d="M13.4317 5.81685C14.6211 6.34158 16.2164 6.63056 17.9242 6.63056C19.6318 6.63056 21.2272 6.34158 22.4165 5.81685C23.4084 5.37921 24.0006 4.81587 24.0006 4.30993C24.0006 3.80398 23.4084 3.2406 22.4165 2.80297C21.2272 2.27823 19.6318 1.98926 17.9242 1.98926C16.2165 1.98926 14.6211 2.27823 13.4317 2.80297C12.4398 3.2406 11.8477 3.80394 11.8477 4.30993C11.8477 4.81592 12.4398 5.37921 13.4317 5.81685Z" fill="#FFC400"/>
<path d="M14.417 17.7971C14.417 14.3711 11.6297 11.5837 8.20362 11.5837C4.77756 11.5837 1.99023 14.3711 1.99023 17.7971C1.99023 21.2232 4.77756 24.0105 8.20362 24.0105C11.6297 24.0105 14.417 21.2232 14.417 17.7971ZM9.17231 21.2185H8.84847V22.2779H7.55878V21.2185H5.81916V19.9288H9.17231C9.59744 19.9288 9.94329 19.583 9.94329 19.1578C9.94329 18.7327 9.59744 18.3869 9.17231 18.3869H7.61621C6.51034 18.3869 5.61066 17.4872 5.61066 16.3813C5.61066 15.2947 6.47943 14.4078 7.55878 14.3772V13.3163H8.84847V14.3757H10.2434V15.6654H7.61621C7.22148 15.6654 6.90035 15.9865 6.90035 16.3813C6.90035 16.776 7.22148 17.0972 7.61621 17.0972H9.17231C10.3086 17.0972 11.233 18.0216 11.233 19.1578C11.2329 20.2941 10.3085 21.2185 9.17231 21.2185Z" fill="#FFC400"/>
</svg>
