<svg width="16" height="16" viewBox="0 0 16 16" fill="none" xmlns="http://www.w3.org/2000/svg">
<path d="M7.99492 0.645752C3.83343 0.645752 0.448242 4.03094 0.448242 8.19247C0.448242 12.3526 3.83343 15.7378 7.99492 15.7378C12.1551 15.7378 15.5403 12.3526 15.5403 8.19247C15.5403 4.03094 12.1551 0.645752 7.99492 0.645752ZM8.75678 13.5484V14.1185C8.75678 14.5407 8.41501 14.8812 7.99427 14.8812C7.57353 14.8812 7.23172 14.5407 7.23172 14.1185V13.547C6.59229 13.3865 6.01524 13.0239 5.58616 12.4994C5.32048 12.1727 5.36893 11.6925 5.69553 11.4268C6.02074 11.1611 6.50098 11.2094 6.76808 11.5361C7.06978 11.9056 7.51679 12.1188 7.99427 12.1188C8.86615 12.1188 9.57612 11.4087 9.57612 10.5369C9.57612 9.66358 8.86615 8.95507 7.99427 8.95507C6.28096 8.95507 4.88723 7.56138 4.88723 5.84807C4.88723 4.39768 5.88649 3.17707 7.23172 2.83664V2.26505C7.23172 1.84431 7.57353 1.50241 7.99427 1.50241C8.41501 1.50241 8.75678 1.84431 8.75678 2.26505V2.83664C9.39621 2.99849 9.97326 3.35974 10.4023 3.88421C10.6681 4.21085 10.6196 4.69109 10.293 4.95676C9.96634 5.2239 9.4861 5.17545 9.22043 4.84882C8.91877 4.47799 8.47172 4.26622 7.99427 4.26622C7.12236 4.26622 6.41238 4.97615 6.41238 5.84807C6.41238 6.71999 7.12236 7.42992 7.99427 7.42992C9.70759 7.42992 11.1013 8.82352 11.1013 10.5369C11.1013 11.9859 10.102 13.2066 8.75678 13.5484Z" fill="#FFC400"/>
</svg>
