<svg width="24" height="22" viewBox="0 0 24 22" fill="none" xmlns="http://www.w3.org/2000/svg">
<path d="M23.1999 11.1638C23.1999 12.5585 22.926 13.9105 22.3882 15.1846C21.868 16.416 21.1242 17.5192 20.1743 18.4666C19.2269 19.414 18.1211 20.1603 16.8923 20.6805C15.6182 21.2208 14.2662 21.4922 12.8715 21.4922C11.223 21.4922 9.64736 21.1152 8.18982 20.3739C6.85944 19.6979 5.67185 18.7202 4.74611 17.5444C4.67776 17.4576 4.69538 17.332 4.78353 17.2654L6.06765 16.2952C6.15577 16.2287 6.28103 16.2464 6.34965 16.3329C7.93831 18.336 10.3022 19.4818 12.869 19.4818C17.4552 19.4818 21.187 15.75 21.187 11.1638C21.187 6.57762 17.4552 2.84081 12.869 2.84081C9.41059 2.84081 6.43784 4.97377 5.18564 7.98644C5.10829 8.17255 5.32511 8.32038 5.47804 8.18912L5.99751 7.74324C6.08133 7.67129 6.2076 7.68092 6.27954 7.76474L7.32835 8.98668C7.40027 9.07046 7.39068 9.19667 7.30694 9.26863L3.59229 12.4606C3.50839 12.5327 3.3819 12.523 3.30998 12.4389L0.130053 8.72242C0.058231 8.63848 0.0680687 8.5122 0.152024 8.4404L1.37592 7.39364C1.45986 7.32186 1.58609 7.3317 1.65789 7.41562L2.56574 8.47684C2.67219 8.60127 2.87619 8.55232 2.91992 8.39451C3.03733 7.9709 3.18268 7.55427 3.35484 7.14807C3.87503 5.91671 4.61887 4.81351 5.56627 3.8636C6.51366 2.91369 7.61937 2.16984 8.84822 1.64966C10.1223 1.10936 11.4743 0.835449 12.869 0.835449C14.2637 0.835449 15.6157 1.10936 16.8898 1.64714C18.1211 2.16733 19.2243 2.91118 20.1717 3.86108C21.1191 4.80848 21.8655 5.91419 22.3857 7.14304C22.926 8.41713 23.1999 9.76912 23.1999 11.1638Z" fill="#FFC400"/>
<path d="M16.5066 15.9305C16.4284 16.0085 16.3017 16.0084 16.2237 15.9302L11.9403 11.6371C11.9028 11.5996 11.8818 11.5488 11.8818 11.4959V6.01128C11.8818 5.90082 11.9714 5.81128 12.0818 5.81128H13.6922C13.8027 5.81128 13.8922 5.90082 13.8922 6.01128V10.6666C13.8922 10.7195 13.9132 10.7704 13.9507 10.8079L17.6461 14.5104C17.7241 14.5886 17.724 14.7152 17.6458 14.7933L16.5066 15.9305Z" fill="#FFC400"/>
</svg>
