<svg width="22" height="17" viewBox="0 0 22 17" fill="none" xmlns="http://www.w3.org/2000/svg">
<path d="M17.2332 2.98584H2.05653C0.920734 2.98584 0 3.90657 0 5.04232V7.30497C0 7.43701 0.107078 7.54409 0.239121 7.54409H19.0505C19.1826 7.54409 19.2896 7.43701 19.2896 7.30497V5.04232C19.2897 3.90657 18.3689 2.98584 17.2332 2.98584Z" fill="#FFC400"/>
<path d="M19.0506 8.97852H0.239121C0.107078 8.97852 0 9.08559 0 9.21764V14.4446C0 15.5804 0.920734 16.5011 2.05653 16.5011H17.2332C18.369 16.5011 19.2897 15.5804 19.2897 14.4446V9.21764C19.2897 9.08555 19.1826 8.97852 19.0506 8.97852ZM4.67053 14.2694H2.94929C2.55312 14.2694 2.23188 13.9482 2.23188 13.552C2.23188 13.1558 2.55307 12.8346 2.94929 12.8346H4.67053C5.0667 12.8346 5.38793 13.1558 5.38793 13.552C5.38793 13.9482 5.06674 14.2694 4.67053 14.2694ZM11.0766 14.2694H7.12335C6.72718 14.2694 6.40595 13.9482 6.40595 13.552C6.40595 13.1558 6.72714 12.8346 7.12335 12.8346H11.0766C11.4727 12.8346 11.794 13.1558 11.794 13.552C11.794 13.9482 11.4727 14.2694 11.0766 14.2694Z" fill="#FFC400"/>
<path d="M19.9435 0.275635H4.76673C4.06032 0.275635 3.4362 0.633736 3.0659 1.17794C2.95813 1.33623 3.07303 1.55077 3.2645 1.55077H17.2332C19.1614 1.55077 20.7245 3.11389 20.7245 5.04207V13.2371C20.7245 13.4286 20.939 13.5434 21.0973 13.4357C21.6417 13.0655 22 12.4412 22 11.7347V2.33216C22 1.19641 21.0793 0.275635 19.9435 0.275635Z" fill="#FFC400"/>
</svg>
