<svg width="18" height="18" viewBox="0 0 18 18" fill="none" xmlns="http://www.w3.org/2000/svg">
<path fill-rule="evenodd" clip-rule="evenodd" d="M8.0737 2.83225C7.67998 2.72966 7.27528 2.95688 7.16978 3.33976L4.30445 13.7388C4.28592 13.806 4.27786 13.8735 4.27927 13.9398C4.28573 14.251 4.50158 14.5336 4.82634 14.6182L4.88963 14.6347H4.89128L11.9554 16.4754C12.3491 16.578 12.7538 16.3508 12.8593 15.9679L15.7246 5.56888C15.8301 5.186 15.5965 4.79245 15.2027 4.68985L8.0737 2.83225ZM4.89128 14.6347H10.3686C11.3061 14.6347 12.0661 13.8956 12.0661 12.984V3.87297L8.0737 2.83225C7.67998 2.72966 7.27528 2.95688 7.16978 3.33976L4.30445 13.7388C4.28592 13.806 4.27786 13.8735 4.27927 13.9398C4.28573 14.251 4.50158 14.5336 4.82634 14.6182L4.89128 14.6347Z" fill="#8292A7"/>
<path d="M2.25 2.21772C2.25 1.82134 2.58044 1.5 2.98805 1.5H10.3686C10.7762 1.5 11.1066 1.82134 11.1066 2.21772V12.9836C11.1066 13.38 10.7762 13.7013 10.3686 13.7013H2.98805C2.58044 13.7013 2.25 13.38 2.25 12.9836V2.21772Z" fill="#8292A7"/>
<path fill-rule="evenodd" clip-rule="evenodd" d="M13.984 5.21412C13.9902 5.22966 13.9948 5.24965 13.9971 5.27464L14.0873 6.88494C14.0873 6.90604 14.0839 6.91992 14.0782 6.92825C14.0725 6.93769 14.0599 6.93991 14.0416 6.93492L13.7333 6.85385C13.7042 6.84607 13.687 6.83497 13.6802 6.81997C13.6739 6.80609 13.6699 6.78388 13.6699 6.75667L13.667 6.44683L13.172 6.31689L13.0007 6.58898C12.9853 6.61286 12.9693 6.62674 12.9539 6.63229C12.9379 6.63895 12.9185 6.63951 12.8945 6.6334L12.6187 6.56066C12.5998 6.55566 12.5884 6.549 12.5844 6.54012C12.5799 6.53012 12.5844 6.51457 12.6021 6.48847L13.4917 5.13915C13.5055 5.11916 13.5203 5.10473 13.5357 5.09529C13.55 5.0864 13.5745 5.0864 13.6071 5.09529L13.9206 5.17747C13.9548 5.1858 13.976 5.19801 13.984 5.21412ZM13.3376 6.04665L13.4872 5.79511L13.6511 5.52358L13.6625 5.52691L13.6608 5.84342L13.6602 6.13161L13.3376 6.04665Z" fill="#242434"/>
<path fill-rule="evenodd" clip-rule="evenodd" d="M9.10205 2.79598C9.09234 2.77265 9.08378 2.75378 9.07235 2.74045C9.06094 2.72712 9.03752 2.72046 9.00212 2.72046H8.67722C8.64239 2.72046 8.61898 2.72712 8.60756 2.73934C8.59556 2.751 8.58529 2.76932 8.57672 2.79264L8.07995 4.32132C8.07024 4.3502 8.06967 4.36741 8.07652 4.37518C8.08337 4.38296 8.09708 4.38629 8.11592 4.38629H8.40142C8.42655 4.38629 8.44482 4.38018 8.4591 4.37074C8.47223 4.36075 8.48365 4.34353 8.49221 4.31632L8.58472 4.01037H9.09748L9.18256 4.30855C9.19112 4.33465 9.19969 4.35519 9.20997 4.36685C9.21967 4.37963 9.24023 4.38629 9.26935 4.38629H9.58911C9.60796 4.38629 9.61938 4.38018 9.6228 4.37074C9.62623 4.3613 9.62623 4.34686 9.61995 4.32632L9.10205 2.79598ZM9.07064 7.39256C9.07064 8.16161 8.54132 8.65026 7.78531 8.65192C7.39417 8.65192 6.99846 8.39483 6.77406 8.1816C6.77406 8.1816 6.98419 9.12724 7.36733 9.84244C7.41701 9.93517 5.73426 9.93739 5.77937 9.84355C6.15223 9.06838 6.36122 8.1816 6.36122 8.1816C6.13625 8.38483 5.70457 8.6547 5.34312 8.65525C4.58882 8.65581 4.05607 8.16828 4.05493 7.40033C4.05379 6.1132 6.55137 4.42571 6.55137 4.42571H6.56507C6.56507 4.42571 9.06836 6.10654 9.07064 7.39256ZM4.64193 9.95793C4.65163 9.94572 4.67162 9.93905 4.70131 9.93905H5.02107C5.03992 9.93905 5.05077 9.94516 5.05419 9.9546C5.05762 9.96404 5.05762 9.97848 5.05134 9.99902L4.53401 11.5294C4.5243 11.5527 4.51573 11.5721 4.50431 11.5849C4.49289 11.5982 4.46948 11.6049 4.43351 11.6049H4.10918C4.07492 11.6049 4.05151 11.5982 4.04009 11.5866C4.0281 11.5743 4.01782 11.5566 4.00925 11.5333L3.51248 10.0046C3.50277 9.9757 3.50277 9.95849 3.50905 9.95071C3.51533 9.94294 3.52904 9.93905 3.54788 9.93905H3.83338C3.85851 9.93905 3.87678 9.94516 3.89048 9.9546C3.90419 9.9646 3.91504 9.98181 3.9236 10.009L4.0161 10.315H4.52944L4.61452 10.0168C4.62308 9.99069 4.63165 9.97015 4.64193 9.95793ZM8.74916 3.42771L8.67207 3.70757H9.00668L8.9296 3.42993L8.84623 3.12342H8.83424L8.74916 3.42771ZM4.36212 10.8952L4.27876 11.2017H4.26676L4.18168 10.8974L4.1046 10.6175H4.43921L4.36212 10.8952Z" fill="#242434"/>
</svg>
