<svg width="18" height="18" viewBox="0 0 18 18" fill="none" xmlns="http://www.w3.org/2000/svg">
<path d="M3 12.75V13.7928C3 14.0453 3.22711 14.25 3.50732 14.25H14.4927C14.7729 14.25 15 14.0453 15 13.7928V12.75H3Z" fill="#8292A7"/>
<path d="M17.25 6.62349C17.25 5.72921 16.5457 5.00164 15.68 5.00164C14.8143 5.00164 14.1101 5.72921 14.1101 6.62349C14.1101 7.05341 14.2731 7.44457 14.5384 7.73508C14.0665 8.28046 13.3812 8.62468 12.6191 8.62468C11.3854 8.62468 10.3521 7.72376 10.1021 6.52557C10.3908 6.23129 10.57 5.82284 10.57 5.37186C10.57 4.47757 9.86571 3.75 9 3.75C8.13429 3.75 7.42996 4.47757 7.42996 5.37186C7.42996 5.82284 7.60935 6.23129 7.89788 6.52557C7.64787 7.72376 6.6146 8.62468 5.38093 8.62468C4.61882 8.62468 3.93351 8.28046 3.46156 7.73508C3.72693 7.44457 3.89008 7.05341 3.89008 6.62349C3.89008 5.72921 3.18575 5.00164 2.32004 5.00164C1.45433 5.00164 0.75 5.72921 0.75 6.62349C0.75 7.39853 1.27909 8.04795 1.98367 8.20738C2.12303 9.39543 2.3923 10.8429 2.9122 12H15.0878C15.6077 10.8429 15.877 9.39543 16.0163 8.20738C16.7209 8.04782 17.25 7.39853 17.25 6.62349Z" fill="#8292A7"/>
</svg>
