<svg width="48" height="48" viewBox="0 0 48 48" fill="none" xmlns="http://www.w3.org/2000/svg">
<path d="M24 0C19.2533 0 14.6131 1.40758 10.6663 4.04473C6.71954 6.68188 3.6434 10.4302 1.8269 14.8156C0.0103988 19.201 -0.464881 24.0266 0.461164 28.6822C1.38721 33.3377 3.67299 37.6141 7.02945 40.9706C10.3859 44.327 14.6623 46.6128 19.3178 47.5388C23.9734 48.4649 28.799 47.9896 33.1844 46.1731C37.5698 44.3566 41.3181 41.2805 43.9553 37.3337C46.5924 33.3869 48 28.7467 48 24C47.9928 17.637 45.4619 11.5367 40.9626 7.03744C36.4633 2.53814 30.363 0.00724537 24 0ZM40.488 39.5587L37.44 36.5107C40.4569 33.2821 42.2039 29.0711 42.3585 24.6551H46.671C46.5142 30.2146 44.3128 35.521 40.488 39.5587ZM5.64038 23.3854C5.56852 23.3579 5.49233 23.3434 5.41538 23.3426H1.52326C1.45696 23.3436 1.39119 23.3547 1.32826 23.3756C1.47684 17.8041 3.67915 12.4839 7.51201 8.4375L10.56 11.4855C7.53283 14.7252 5.78468 18.9538 5.64038 23.3854ZM36.5119 10.5604C33.2836 7.54288 29.0725 5.79543 24.6563 5.64075V1.32787C30.2157 1.48479 35.5221 3.68621 39.5599 7.51087L36.5119 10.5604ZM23.3438 5.64075C18.9277 5.79502 14.7166 7.54193 11.4881 10.5589L8.44013 7.51087C12.4779 3.68609 17.7843 1.48465 23.3438 1.32787V5.64075ZM24 6.9375C27.3746 6.9375 30.6735 7.9382 33.4794 9.81305C36.2853 11.6879 38.4723 14.3527 39.7637 17.4705C41.0551 20.5882 41.393 24.0189 40.7347 27.3287C40.0763 30.6385 38.4512 33.6788 36.065 36.065C33.6788 38.4512 30.6385 40.0763 27.3287 40.7346C24.0189 41.393 20.5882 41.0551 17.4705 39.7637C14.3527 38.4723 11.6879 36.2853 9.81306 33.4794C7.93821 30.6735 6.93751 27.3746 6.93751 24C6.94257 19.4763 8.74185 15.1393 11.9406 11.9406C15.1393 8.74184 19.4763 6.94256 24 6.9375ZM11.397 37.53C11.4275 37.4994 11.4548 37.4658 11.4788 37.4299C14.7085 40.452 18.9233 42.2024 23.3438 42.3574V46.6699C17.7817 46.5133 12.473 44.3101 8.43451 40.4824C8.45578 40.467 8.47607 40.4504 8.49526 40.4325L11.397 37.53ZM24.6563 42.3574C29.0723 42.203 33.2834 40.4559 36.5119 37.4389L39.5599 40.4869C35.5221 44.3115 30.2157 46.513 24.6563 46.6699V42.3574ZM46.671 23.3426H42.3585C42.2039 18.9266 40.4569 14.7156 37.44 11.487L40.488 8.439C44.3127 12.4768 46.5141 17.7832 46.671 23.3426ZM1.32826 24.6221C1.39119 24.643 1.45696 24.6542 1.52326 24.6551H5.41388C5.49083 24.6543 5.56701 24.6399 5.63888 24.6124C5.78395 29.0481 7.53606 33.28 10.569 36.5201C10.533 36.544 10.4995 36.5714 10.4689 36.6019L7.56751 39.5036C7.54954 39.5229 7.53288 39.5433 7.51763 39.5647C3.68173 35.518 1.4773 30.196 1.32826 24.6221Z" fill="url(#paint0_linear)"/>
<path d="M15.7515 20.6839C15.6464 20.7397 15.5614 20.8268 15.508 20.9331C15.4546 21.0393 15.4356 21.1596 15.4535 21.2771L17.0941 32.0642C17.1148 32.2 17.1835 32.3238 17.2876 32.4133C17.3917 32.5028 17.5245 32.5521 17.6618 32.5522H30.3366C30.4739 32.5522 30.6068 32.503 30.7109 32.4135C30.8151 32.324 30.8837 32.2 30.9042 32.0642L32.5449 21.2771C32.5628 21.1596 32.5437 21.0393 32.4903 20.9331C32.4369 20.8268 32.3519 20.7397 32.2469 20.6838C32.1419 20.628 32.0222 20.6061 31.9042 20.6212C31.7863 20.6363 31.6759 20.6877 31.5884 20.7682L26.7843 25.1913L24.5065 20.9205C24.4575 20.8286 24.3845 20.7519 24.2952 20.6983C24.206 20.6448 24.1039 20.6165 23.9999 20.6165C23.8958 20.6165 23.7937 20.6448 23.7045 20.6983C23.6152 20.7519 23.5422 20.8286 23.4932 20.9205L21.2154 25.1913L16.41 20.7682C16.3226 20.6875 16.2122 20.636 16.0942 20.6208C15.9762 20.6057 15.8564 20.6278 15.7515 20.6839ZM20.9841 26.5389C21.0486 26.5984 21.1258 26.6422 21.2099 26.6672C21.294 26.6921 21.3827 26.6974 21.4692 26.6827C21.5556 26.668 21.6376 26.6337 21.7087 26.5824C21.7799 26.531 21.8383 26.4641 21.8795 26.3867L23.9999 22.4108L26.1202 26.3867C26.1614 26.4641 26.2198 26.531 26.291 26.5824C26.3621 26.6337 26.4441 26.668 26.5305 26.6827C26.617 26.6974 26.7057 26.6921 26.7898 26.6672C26.8739 26.6422 26.9511 26.5984 27.0156 26.5389L31.1651 22.7205L29.8434 31.4037H18.1563L16.8346 22.7205L20.9841 26.5389Z" fill="url(#paint1_linear)"/>
<path d="M24 19.9193C24.4421 19.9193 24.8743 19.7882 25.242 19.5425C25.6096 19.2969 25.8961 18.9477 26.0653 18.5393C26.2345 18.1308 26.2788 17.6813 26.1925 17.2476C26.1063 16.814 25.8934 16.4157 25.5807 16.103C25.2681 15.7904 24.8698 15.5775 24.4361 15.4912C24.0025 15.4049 23.553 15.4492 23.1445 15.6184C22.736 15.7876 22.3869 16.0741 22.1412 16.4418C21.8956 16.8094 21.7645 17.2416 21.7645 17.6838C21.7652 18.2764 22.0009 18.8446 22.42 19.2637C22.8391 19.6828 23.4073 19.9186 24 19.9193ZM24 16.597C24.215 16.597 24.4252 16.6608 24.604 16.7802C24.7827 16.8997 24.9221 17.0695 25.0043 17.2682C25.0866 17.4668 25.1081 17.6854 25.0662 17.8963C25.0242 18.1072 24.9206 18.3009 24.7685 18.4529C24.6165 18.6049 24.4228 18.7084 24.2119 18.7503C24.001 18.7922 23.7824 18.7706 23.5837 18.6883C23.3851 18.606 23.2154 18.4666 23.096 18.2878C22.9765 18.109 22.9128 17.8988 22.9129 17.6838C22.9132 17.3956 23.0278 17.1192 23.2316 16.9155C23.4354 16.7117 23.7118 16.5972 24 16.597Z" fill="url(#paint2_linear)"/>
<path d="M31.9787 19.9193C32.4208 19.9191 32.8529 19.7878 33.2204 19.542C33.5879 19.2963 33.8743 18.9471 34.0433 18.5386C34.2124 18.1301 34.2565 17.6806 34.1701 17.247C34.0838 16.8134 33.8708 16.4152 33.5581 16.1027C33.2454 15.7901 32.8471 15.5773 32.4135 15.4911C31.9798 15.4049 31.5304 15.4493 31.122 15.6185C30.7136 15.7877 30.3645 16.0743 30.1189 16.4419C29.8733 16.8095 29.7422 17.2417 29.7422 17.6838C29.7429 18.2766 29.9788 18.845 30.3981 19.2641C30.8174 19.6832 31.3858 19.9188 31.9787 19.9193V19.9193ZM31.9787 16.597C32.1937 16.5972 32.4038 16.6611 32.5824 16.7807C32.761 16.9003 32.9002 17.0702 32.9823 17.2688C33.0645 17.4675 33.0858 17.6861 33.0437 17.8969C33.0017 18.1077 32.898 18.3013 32.7459 18.4532C32.5938 18.6051 32.4001 18.7086 32.1892 18.7504C31.9784 18.7922 31.7598 18.7706 31.5612 18.6882C31.3627 18.6059 31.193 18.4665 31.0736 18.2877C30.9542 18.1089 30.8906 17.8987 30.8906 17.6838C30.891 17.3954 31.0058 17.119 31.2098 16.9152C31.4138 16.7115 31.6903 16.597 31.9787 16.597V16.597Z" fill="url(#paint3_linear)"/>
<path d="M16.021 19.9193C16.4632 19.9193 16.8954 19.7882 17.263 19.5425C17.6307 19.2969 17.9172 18.9477 18.0864 18.5393C18.2556 18.1308 18.2999 17.6813 18.2136 17.2476C18.1273 16.814 17.9144 16.4157 17.6018 16.103C17.2891 15.7904 16.8908 15.5775 16.4572 15.4912C16.0235 15.4049 15.574 15.4492 15.1655 15.6184C14.7571 15.7876 14.4079 16.0741 14.1623 16.4418C13.9166 16.8094 13.7855 17.2416 13.7855 17.6838C13.7862 18.2764 14.022 18.8446 14.4411 19.2637C14.8601 19.6828 15.4284 19.9186 16.021 19.9193V19.9193ZM16.021 16.597C16.2361 16.597 16.4462 16.6608 16.625 16.7802C16.8038 16.8997 16.9431 17.0695 17.0254 17.2682C17.1077 17.4668 17.1292 17.6854 17.0872 17.8963C17.0452 18.1072 16.9417 18.3009 16.7896 18.4529C16.6375 18.6049 16.4438 18.7084 16.2329 18.7503C16.022 18.7922 15.8034 18.7706 15.6048 18.6883C15.4062 18.606 15.2364 18.4666 15.117 18.2878C14.9976 18.109 14.9339 17.8988 14.934 17.6838C14.9342 17.3956 15.0488 17.1192 15.2527 16.9155C15.4565 16.7117 15.7328 16.5972 16.021 16.597Z" fill="url(#paint4_linear)"/>
<defs>
<linearGradient id="paint0_linear" x1="-6.7791e-08" y1="8.12597" x2="49.4231" y2="8.12597" gradientUnits="userSpaceOnUse">
<stop stop-color="#EB8106"/>
<stop offset="1" stop-color="#F34119"/>
</linearGradient>
<linearGradient id="paint1_linear" x1="15.447" y1="22.6369" x2="33.0585" y2="22.6369" gradientUnits="userSpaceOnUse">
<stop stop-color="#EB8106"/>
<stop offset="1" stop-color="#F34119"/>
</linearGradient>
<linearGradient id="paint2_linear" x1="21.7645" y1="16.2051" x2="26.3681" y2="16.2051" gradientUnits="userSpaceOnUse">
<stop stop-color="#EB8106"/>
<stop offset="1" stop-color="#F34119"/>
</linearGradient>
<linearGradient id="paint3_linear" x1="29.7422" y1="16.2051" x2="34.3458" y2="16.2051" gradientUnits="userSpaceOnUse">
<stop stop-color="#EB8106"/>
<stop offset="1" stop-color="#F34119"/>
</linearGradient>
<linearGradient id="paint4_linear" x1="13.7855" y1="16.2051" x2="18.3891" y2="16.2051" gradientUnits="userSpaceOnUse">
<stop stop-color="#EB8106"/>
<stop offset="1" stop-color="#F34119"/>
</linearGradient>
</defs>
</svg>
