<svg width="150" height="170" viewBox="0 0 150 170" fill="none" xmlns="http://www.w3.org/2000/svg">
<g style="mix-blend-mode:luminosity">
<path d="M105 85C105 84.4477 105.448 84 106 84H122.229C123.007 84 123.487 84.85 123.085 85.5165L118.883 92.4835C118.691 92.8012 118.691 93.1988 118.883 93.5165L123.085 100.484C123.487 101.15 123.007 102 122.229 102H106C105.448 102 105 101.552 105 101V85Z" fill="url(#paint0_linear)"/>
<path d="M44 85C44 84.4477 43.5523 84 43 84H26.771C25.9927 84 25.5127 84.85 25.9147 85.5165L30.117 92.4835C30.3086 92.8012 30.3086 93.1988 30.117 93.5165L25.9147 100.484C25.5127 101.15 25.9927 102 26.771 102H43C43.5523 102 44 101.552 44 101V85Z" fill="url(#paint1_linear)"/>
<g filter="url(#filter0_d)">
<path d="M70.6424 38.8304C72.7574 37.4566 73.815 36.7697 75 36.7697C76.185 36.7697 77.2426 37.4566 79.3576 38.8304L105.999 56.1342C107.781 57.2917 108.672 57.8704 109.156 58.7631C109.641 59.6558 109.641 60.7183 109.641 62.8432V99.1568C109.641 101.282 109.641 102.344 109.156 103.237C108.672 104.13 107.781 104.708 105.999 105.866L79.3576 123.17C77.2426 124.543 76.185 125.23 75 125.23C73.815 125.23 72.7574 124.543 70.6424 123.17L44.0013 105.866C42.2193 104.708 41.3283 104.13 40.8436 103.237C40.359 102.344 40.359 101.282 40.359 99.1568V62.8432C40.359 60.7183 40.359 59.6558 40.8436 58.7631C41.3283 57.8704 42.2193 57.2917 44.0013 56.1342L70.6424 38.8304Z" fill="url(#paint2_linear)"/>
</g>
<path d="M70.6717 44.7846C72.7735 43.4324 73.8245 42.7563 75 42.7563C76.1755 42.7563 77.2265 43.4324 79.3283 44.7846L101.639 59.1379C103.435 60.2933 104.333 60.871 104.822 61.7668C105.311 62.6625 105.311 63.7303 105.311 65.8659V96.1341C105.311 98.2697 105.311 99.3375 104.822 100.233C104.333 101.129 103.435 101.707 101.639 102.862L79.3283 117.215C77.2265 118.568 76.1755 119.244 75 119.244C73.8245 119.244 72.7735 118.568 70.6717 117.215L48.3608 102.862C46.5648 101.707 45.6668 101.129 45.1779 100.233C44.6891 99.3375 44.6891 98.2697 44.6891 96.1341V65.8659C44.6891 63.7303 44.6891 62.6625 45.1779 61.7668C45.6668 60.871 46.5648 60.2933 48.3608 59.1379L70.6717 44.7846Z" fill="url(#paint3_linear)"/>
<g filter="url(#filter1_d)">
<path d="M38 93C37.4473 91.5356 38.4468 89.306 40 89.4999C67.1739 92.8919 82.8949 93.3912 110 90C111.553 89.8056 112.553 91.5352 112 92.9999C111.062 95.4861 110.609 98.1652 110.5 100.5C110.397 102.701 110.549 105.275 110.711 107.189C110.846 108.771 109.78 110.232 108.217 110.512C84.101 114.83 65.9692 114.829 41.7846 110.511C40.2209 110.232 39.1545 108.77 39.2889 107.187C39.4514 105.274 39.6029 102.7 39.5 100.5C39.3908 98.1647 38.9383 95.4863 38 93Z" fill="#EB8106"/>
<path d="M38.9356 92.6469C38.7781 92.2297 38.8277 91.6048 39.0962 91.0919C39.3678 90.573 39.6776 90.4674 39.8761 90.4922C67.1159 93.8924 82.9217 94.3956 110.124 90.9923C110.458 90.9505 110.744 91.096 110.945 91.4134C111.158 91.7488 111.226 92.2191 111.064 92.6469C110.083 95.2484 109.614 98.0337 109.501 100.453C109.395 102.72 109.551 105.347 109.715 107.273C109.808 108.368 109.069 109.344 108.041 109.528C84.0415 113.824 66.0289 113.824 41.9604 109.527C40.9315 109.343 40.1924 108.367 40.2853 107.272C40.4489 105.346 40.6049 102.72 40.4989 100.453C40.3857 98.0333 39.9175 95.2486 38.9356 92.6469Z" stroke="url(#paint4_linear)" stroke-width="2"/>
</g> 
<path opacity="0.4" d="M59.2188 108H51.9297V96.7266H54.2891V106.047H59.2188V108ZM68.0859 108H60.6172V96.7266H68.0859V98.6719H62.9766V101.391H67.7969V103.203H62.9766V106.047H68.0859V108ZM72.8594 108L69.0703 96.7266H71.7109L74.2891 105.57H74.3438L76.9219 96.7266H79.4922L75.7031 108H72.8594ZM88.1172 108H80.6484V96.7266H88.1172V98.6719H83.0078V101.391H87.8281V103.203H83.0078V106.047H88.1172V108ZM97.1094 108H89.8203V96.7266H92.1797V106.047H97.1094V108Z" fill="#242633"/>	
</g>
<defs>
<filter id="filter0_d" x="0.358887" y="0.769684" width="149.282" height="168.461" filterUnits="userSpaceOnUse" color-interpolation-filters="sRGB">
<feBlend mode="normal" in="SourceGraphic" in2="effect1_dropShadow" result="shape"/>
</filter>
<filter id="filter1_d" x="33.8462" y="87.488" width="82.3076" height="32.2619" filterUnits="userSpaceOnUse" color-interpolation-filters="sRGB">
<feFlood flood-opacity="0" result="BackgroundImageFix"/>
<feColorMatrix in="SourceAlpha" type="matrix" values="0 0 0 0 0 0 0 0 0 0 0 0 0 0 0 0 0 0 127 0"/>
<feOffset dy="2"/>
<feGaussianBlur stdDeviation="2"/>
<feColorMatrix type="matrix" values="0 0 0 0 0 0 0 0 0 0 0 0 0 0 0 0 0 0 0.4 0"/>
<feBlend mode="normal" in2="BackgroundImageFix" result="effect1_dropShadow"/>
<feBlend mode="normal" in="SourceGraphic" in2="effect1_dropShadow" result="shape"/>
</filter>
<linearGradient id="paint0_linear" x1="110.278" y1="91.2" x2="118.731" y2="105.08" gradientUnits="userSpaceOnUse">
<stop offset="0.451002" stop-color="#A95600"/>
<stop offset="1" stop-color="#743B00"/>
</linearGradient>
<linearGradient id="paint1_linear" x1="38.7222" y1="91.2" x2="30.2688" y2="105.08" gradientUnits="userSpaceOnUse">
<stop offset="0.451002" stop-color="#A95600"/>
<stop offset="1" stop-color="#743B00"/>
</linearGradient>
<linearGradient id="paint2_linear" x1="35" y1="51.2362" x2="117.372" y2="51.2362" gradientUnits="userSpaceOnUse">
<stop stop-color="#EB8106"/>
<stop offset="1" stop-color="#F34119"/>
</linearGradient>
<linearGradient id="paint3_linear" x1="94" y1="49" x2="55.5" y2="112.5" gradientUnits="userSpaceOnUse">
<stop stop-color="#4A0973"/>
<stop offset="1" stop-color="#5F1092"/>
</linearGradient>
</defs>
</svg>
