<svg width="20" height="20" viewBox="0 0 20 20" fill="none" xmlns="http://www.w3.org/2000/svg">
<path d="M10 0C4.48421 0 0 4.48421 0 10C0 15.5158 4.48421 20 10 20C15.5158 20 20 15.5158 20 10C20 4.48421 15.5158 0 10 0ZM10 5.72632C11.7263 5.72632 13.1368 7.13684 13.1368 8.86316C13.1368 10.5895 11.7263 12 10 12C8.27368 12 6.86316 10.5895 6.86316 8.86316C6.86316 7.13684 8.27368 5.72632 10 5.72632ZM4.52632 16.0632V15.6C4.52632 14.2737 5.6 13.1789 6.94737 13.1789H13.0526C14.3789 13.1789 15.4737 14.2526 15.4737 15.6V16.0632C14.0211 17.3684 12.1053 18.1684 10 18.1684C7.89474 18.1684 5.97895 17.3684 4.52632 16.0632Z" fill="#FFC400"/>
</svg>
