<svg width="23" height="22" viewBox="0 0 23 22" fill="none" xmlns="http://www.w3.org/2000/svg">
<path d="M11.0382 8.36141C11.6814 9.98048 13.2339 11.1338 15.0748 11.1338C17.4702 11.1338 19.4219 9.18203 19.4219 6.78669C19.4219 4.94582 18.2686 3.39328 16.6717 2.75009C16.0507 1.13101 14.4982 -0.00012207 12.6573 -0.00012207C10.2619 -0.00012207 8.31018 1.95164 8.31018 4.34699C8.31018 6.18785 9.44132 7.74039 11.0382 8.36141ZM15.4519 8.93806V9.49254C15.4519 9.55908 15.4075 9.60344 15.341 9.60344H14.8087C14.7421 9.60344 14.6978 9.55908 14.6978 9.49254V8.96024C14.1655 8.91589 13.7219 8.49448 13.6553 7.96218C13.6553 7.89565 13.6997 7.85129 13.7662 7.85129H14.2985C14.3429 7.85129 14.3873 7.87347 14.4094 7.94C14.4538 8.09526 14.5869 8.22833 14.7643 8.22833H15.2301C15.5184 8.22833 15.7624 8.02872 15.7845 7.76257C15.8067 7.45206 15.5628 7.18591 15.2522 7.18591H14.8974C14.232 7.18591 13.6332 6.69797 13.5666 6.0326C13.5001 5.32287 14.0102 4.72403 14.6756 4.63531V4.10302C14.6756 4.03648 14.7199 3.99212 14.7865 3.99212H15.3188C15.3853 3.99212 15.4297 4.03648 15.4297 4.10302V4.63531C15.962 4.67967 16.4056 5.10108 16.4721 5.63338C16.4721 5.69991 16.4277 5.74427 16.3612 5.74427H15.8289C15.7845 5.74427 15.7402 5.72209 15.718 5.65555C15.6737 5.47812 15.5406 5.36723 15.3631 5.36723H14.8974C14.6091 5.36723 14.3651 5.56684 14.3429 5.83299C14.3207 6.1435 14.5647 6.40964 14.8752 6.40964H15.2744C16.0285 6.40964 16.6274 7.05284 16.5386 7.80693C16.4943 8.40577 16.0285 8.84935 15.4519 8.93806ZM12.6573 1.26409C13.6332 1.26409 14.5203 1.72985 15.0748 2.43958C12.6795 2.43958 10.7499 4.39134 10.7277 6.76451C10.018 6.21003 9.55221 5.32287 9.55221 4.34699C9.57439 2.66137 10.9495 1.26409 12.6573 1.26409Z" fill="#FFC400"/>
<path d="M20.0652 14.2831C19.4663 14.5049 18.5126 14.7489 17.448 14.9929C17.071 15.6139 16.3834 16.124 15.2967 16.3236C15.0527 16.368 14.7644 16.3901 14.4538 16.4123C13.6998 16.4345 12.8126 16.3458 11.8367 16.2792C11.7702 16.2792 11.7036 16.2571 11.6371 16.2571C11.3931 16.2349 11.1935 16.0575 11.1713 15.8135C11.1492 15.503 11.3931 15.259 11.6815 15.3034C11.748 15.3034 11.8367 15.3255 11.9032 15.3255C13.1675 15.4364 14.3651 15.5473 15.097 15.3921C16.4943 15.1259 16.8935 14.2831 16.7827 13.5734C16.7161 12.9967 16.2725 12.4423 15.585 12.4866C14.6091 12.5532 13.4558 12.4866 12.3468 12.3979C11.0604 12.3092 9.75187 12.2648 8.82035 12.3757C7.77793 12.4866 5.67091 13.2629 3.80787 14.5271C2.89852 15.1481 1.87828 15.88 1.27945 16.3236C0.968939 16.5454 0.902402 16.989 1.14637 17.2995L3.85223 20.8038C4.07402 21.1143 4.5176 21.1587 4.80593 20.9369L5.80399 20.1606C6.04796 19.9832 6.35847 19.9166 6.62462 20.0053C8.4433 20.582 10.3951 20.959 11.6593 21.0256C14.476 21.1808 19.8212 17.8983 21.3294 16.8337C22.8597 15.7913 21.7508 13.6399 20.0652 14.2831Z" fill="#FFC400"/>
</svg>
