<svg id="Layer_1" data-name="Layer 1" xmlns="http://www.w3.org/2000/svg" viewBox="0 0 22 22"><defs><style>.cls-1{fill:#FFC400;}</style></defs><title>Artboard 2</title><path class="cls-1" d="M14.49,6.57H18l-4-4.24V6A.56.56,0,0,0,14.49,6.57Z"/><path class="cls-1" d="M14.49,7.72A1.68,1.68,0,0,1,12.86,6V2H5.79A1.68,1.68,0,0,0,4.15,3.71V18.29A1.68,1.68,0,0,0,5.79,20H16.66a1.67,1.67,0,0,0,1.63-1.71V7.72Zm.11,7.63H7.78a.68.68,0,0,1,0-1.36H14.6a.68.68,0,0,1,0,1.36Zm0-3.54H7.78a.69.69,0,0,1,0-1.37H14.6a.69.69,0,0,1,0,1.37Z"/></svg>