<svg width="26" height="26" viewBox="0 0 26 26" fill="none" xmlns="http://www.w3.org/2000/svg">
<path d="M13 3C11.0222 3 9.08879 3.58649 7.4443 4.6853C5.79981 5.78412 4.51809 7.3459 3.76121 9.17316C3.00433 11.0004 2.8063 13.0111 3.19215 14.9509C3.578 16.8907 4.53041 18.6725 5.92894 20.0711C7.32746 21.4696 9.10929 22.422 11.0491 22.8078C12.9889 23.1937 14.9996 22.9957 16.8268 22.2388C18.6541 21.4819 20.2159 20.2002 21.3147 18.5557C22.4135 16.9112 23 14.9778 23 13C22.9972 10.3487 21.9427 7.80681 20.0679 5.93206C18.1932 4.05731 15.6513 3.00284 13 3ZM13.7143 13C13.7143 13.1894 13.639 13.3711 13.5051 13.5051C13.3711 13.639 13.1894 13.7143 13 13.7143H7.28572C7.09628 13.7143 6.9146 13.639 6.78064 13.5051C6.64669 13.3711 6.57143 13.1894 6.57143 13C6.57143 12.8106 6.64669 12.6289 6.78064 12.4949C6.9146 12.361 7.09628 12.2857 7.28572 12.2857H12.2857V7.28571C12.2857 7.09627 12.361 6.91459 12.4949 6.78064C12.6289 6.64668 12.8106 6.57143 13 6.57143C13.1894 6.57143 13.3711 6.64668 13.5051 6.78064C13.639 6.91459 13.7143 7.09627 13.7143 7.28571V13Z" fill="#FFC400"/>
</svg>
