<svg width="15" height="23" viewBox="0 0 15 23" fill="none" xmlns="http://www.w3.org/2000/svg">
<path d="M7.51511 0C3.37724 0 0 3.45935 0 7.69783C0 7.82249 0 7.97832 0 8.10298L0.0304257 8.72629C0.152128 9.38076 0.425958 10.5027 1.03447 12.0921C1.94723 14.3984 3.80319 18.107 7.54554 23C9.31022 20.5068 14.4521 12.9648 14.9085 9.00677V8.97561C14.9694 8.57046 14.9998 8.13415 14.9998 7.69783C15.0302 3.45935 11.653 0 7.51511 0ZM7.48468 11.126C5.65915 11.126 4.1683 9.59892 4.1683 7.729C4.1683 5.85908 5.65915 4.33198 7.48468 4.33198C9.31022 4.33198 10.8011 5.85908 10.8011 7.729C10.8011 9.59892 9.31022 11.126 7.48468 11.126Z" fill="#06651B"/>
</svg>
