<svg width="24" height="26" viewBox="0 0 24 26" fill="none" xmlns="http://www.w3.org/2000/svg">
<path d="M7.05429 7.9281H3.09767C2.55138 7.9281 2.10852 8.37096 2.10852 8.91725V21.7763C2.10852 22.3226 2.55138 22.7654 3.09767 22.7654H7.05429C7.60058 22.7654 8.04344 22.3226 8.04344 21.7763V8.91725C8.04344 8.37096 7.60058 7.9281 7.05429 7.9281Z" fill="#FFC400"/>
<path d="M13.9784 11.8848H10.0217C9.47545 11.8848 9.03259 12.3276 9.03259 12.8739V21.7763C9.03259 22.3226 9.47545 22.7655 10.0217 22.7655H13.9784C14.5247 22.7655 14.9675 22.3226 14.9675 21.7763V12.8739C14.9675 12.3276 14.5247 11.8848 13.9784 11.8848Z" fill="#FFC400"/>
<path d="M20.9024 15.8414H16.9458C16.3995 15.8414 15.9567 16.2843 15.9567 16.8306V21.7764C15.9567 22.3226 16.3995 22.7655 16.9458 22.7655H20.9024C21.4487 22.7655 21.8916 22.3226 21.8916 21.7764V16.8306C21.8916 16.2843 21.4487 15.8414 20.9024 15.8414Z" fill="#FFC400"/>
<path d="M20.9024 8.91729C20.64 8.91729 20.3884 9.0215 20.2029 9.20701C20.0174 9.39251 19.9132 9.6441 19.9132 9.90644V10.6681L12.6528 4.21881C12.4543 4.05893 12.2018 3.98184 11.9479 4.00362C11.6939 4.0254 11.4582 4.14436 11.2898 4.33569C11.1214 4.52703 11.0334 4.77598 11.0441 5.03063C11.0548 5.28528 11.1633 5.52598 11.3472 5.70254L18.2712 11.8848H17.9349C17.6726 11.8848 17.421 11.989 17.2355 12.1745C17.05 12.36 16.9458 12.6116 16.9458 12.8739C16.9458 13.1362 17.05 13.3878 17.2355 13.5733C17.421 13.7588 17.6726 13.8631 17.9349 13.8631H20.9024C21.0381 13.8616 21.1722 13.8347 21.298 13.7839H21.3574C21.4543 13.7294 21.544 13.6629 21.6245 13.5861C21.6245 13.5861 21.6245 13.507 21.6937 13.4773C21.7337 13.4135 21.77 13.3474 21.8025 13.2795C21.8081 13.2103 21.8081 13.1409 21.8025 13.0717C21.8445 13.0121 21.8747 12.9449 21.8915 12.8739V9.90644C21.8915 9.6441 21.7873 9.39251 21.6018 9.20701C21.4163 9.0215 21.1647 8.91729 20.9024 8.91729Z" fill="#FFC400"/>
</svg>
