<svg width="23" height="17" viewBox="0 0 23 17" fill="none" xmlns="http://www.w3.org/2000/svg">
<path d="M0.472642 1.37863C3.5837 4.01336 9.04263 8.64864 10.6471 10.0939C10.8625 10.289 11.0935 10.3882 11.3333 10.3882C11.5726 10.3882 11.8033 10.2899 12.0182 10.0958C13.624 8.64908 19.0829 4.01336 22.194 1.37863C22.3877 1.21491 22.4172 0.927138 22.2604 0.726981C21.8979 0.264462 21.3574 -0.000732422 20.7782 -0.000732422H1.88844C1.30922 -0.000732422 0.768695 0.264462 0.406233 0.727025C0.249418 0.927139 0.278948 1.21491 0.472642 1.37863Z" fill="#06651B"/>
<path d="M22.3933 2.80623C22.2259 2.72831 22.029 2.7555 21.8897 2.8745C18.4396 5.79926 14.0363 9.54819 12.6509 10.7966C11.8734 11.4985 10.7942 11.4985 10.0148 10.7956C8.53815 9.46514 3.59341 5.26152 0.777032 2.87446C0.63682 2.75545 0.439451 2.7292 0.273428 2.80619C0.106519 2.88371 -0.000488281 3.05066 -0.000488281 3.23466V15.1109C-0.000488281 16.1527 0.846673 16.9998 1.8885 16.9998H20.7783C21.8201 16.9998 22.6672 16.1527 22.6672 15.1109V3.23466C22.6672 3.05066 22.5602 2.88327 22.3933 2.80623Z" fill="#06651B"/>
</svg>
