<svg width="21" height="21" viewBox="0 0 21 21" fill="none" xmlns="http://www.w3.org/2000/svg">
<path fill-rule="evenodd" clip-rule="evenodd" d="M5.54869 7.80644L6.87676 7.17085C7.45419 6.88194 7.68516 6.24635 7.51193 5.66853L5.77966 0.872685C5.66417 0.468216 5.31772 0.179309 4.85578 0.0637466C3.35448 -0.167379 2.14189 0.237091 1.16027 1.16159C0.351881 1.91275 -0.0523148 2.89503 0.00542752 3.99288C0.467366 11.7356 9.30194 20.5183 16.9817 20.9806C18.0788 21.0961 19.0604 20.6917 19.8688 19.8827C20.7927 18.9005 21.1969 17.687 20.9081 16.1269C20.8504 15.7225 20.5617 15.3758 20.0998 15.2024L15.3071 13.5268C14.7297 13.2957 14.0946 13.5846 13.8058 14.1624L13.2284 15.4336C9.70614 14.1624 6.87676 11.2733 5.54869 7.80644Z" fill="#06651B"/>
</svg>
