<svg width="26" height="26" viewBox="0 0 26 26" fill="none" xmlns="http://www.w3.org/2000/svg">
<path d="M12.9998 13.4349C10.3607 13.4349 8.21716 15.5784 8.21716 18.2176C8.21716 20.8567 10.3607 23.0002 12.9998 23.0002C15.639 23.0002 17.7824 20.8567 17.7824 18.2176C17.7824 15.5784 15.639 13.4349 12.9998 13.4349ZM15.0476 16.7871L11.5694 20.2654C11.4824 20.3524 11.3737 20.3915 11.2607 20.3915C11.1476 20.3915 11.0389 20.348 10.952 20.2654L10.0824 19.3958C9.91283 19.2263 9.91283 18.9524 10.0824 18.7828C10.252 18.6132 10.5259 18.6132 10.6954 18.7828L11.2563 19.3437L14.4259 16.1741C14.5955 16.0045 14.8694 16.0045 15.0389 16.1741C15.2172 16.3393 15.2172 16.6176 15.0476 16.7871Z" fill="#FFC400"/>
<path d="M5 3.00012C3.89543 3.00012 3 3.89555 3 5.00012V15.7828C3 16.8874 3.89543 17.7828 5 17.7828H7.22551C7.30465 17.7828 7.37113 17.7225 7.37829 17.6437C7.37829 17.6117 7.38486 17.58 7.38714 17.548C7.38818 17.5335 7.38926 17.5191 7.39133 17.5046C7.39568 17.4872 7.39568 17.4654 7.40003 17.448C7.40438 17.422 7.40873 17.3959 7.41307 17.3698C7.42111 17.3296 7.42473 17.2885 7.43226 17.2482C7.43311 17.2437 7.43396 17.2392 7.43481 17.235C7.43916 17.2133 7.44351 17.1959 7.44786 17.1741C7.4522 17.148 7.45655 17.1263 7.4609 17.1002C7.46525 17.0785 7.4696 17.0567 7.47394 17.0393C7.47829 17.0133 7.48264 16.9915 7.49133 16.9654C7.49568 16.9437 7.50003 16.922 7.50438 16.9046C7.50873 16.8828 7.51742 16.8567 7.52177 16.835C7.53003 16.7937 7.54526 16.7536 7.55481 16.7126C7.55544 16.7099 7.55603 16.7072 7.55655 16.7046C7.5609 16.6828 7.5696 16.6611 7.57394 16.6437C7.58264 16.622 7.58699 16.6002 7.59568 16.5741C7.60003 16.5524 7.60873 16.5306 7.61308 16.5133C7.62177 16.4915 7.62612 16.4698 7.63481 16.448C7.64351 16.4263 7.64786 16.4089 7.65655 16.3872C7.65707 16.3859 7.65759 16.3846 7.65811 16.3833C7.67406 16.3433 7.68406 16.301 7.70003 16.2611C7.70873 16.2393 7.71742 16.2176 7.72612 16.1959C7.74212 16.1559 7.75591 16.1149 7.77191 16.0749C7.77259 16.0732 7.77327 16.0715 7.77395 16.0698C7.78264 16.048 7.79134 16.0306 7.80003 16.0089C7.80873 15.9872 7.81742 15.9654 7.82612 15.9437C7.83482 15.9263 7.84351 15.9046 7.85221 15.8872C7.8609 15.8654 7.87395 15.8437 7.88264 15.8219C7.89134 15.8046 7.90003 15.7828 7.90873 15.7654C7.91742 15.7437 7.93047 15.7219 7.93916 15.7002C7.94786 15.6828 7.95656 15.6611 7.9696 15.6437C7.98264 15.6219 7.99134 15.6002 8.00438 15.5785C8.01308 15.5611 8.02177 15.5437 8.03482 15.5219C8.04786 15.5002 8.05656 15.4785 8.0696 15.4567C8.0783 15.4393 8.09134 15.4219 8.10003 15.4046C8.11308 15.3828 8.12612 15.3611 8.13917 15.3393C8.15603 15.3056 8.17809 15.2741 8.19971 15.2432C8.2055 15.235 8.21146 15.2265 8.21743 15.2176C8.22612 15.2046 8.23482 15.1915 8.24351 15.1785C8.26525 15.1437 8.29134 15.1046 8.31743 15.0698C8.32612 15.0567 8.33482 15.0437 8.34786 15.0263C8.36525 15.0046 8.3783 14.9828 8.39569 14.9567C8.40873 14.9393 8.41743 14.9263 8.43047 14.9089C8.44351 14.8872 8.46091 14.8698 8.47395 14.848C8.4976 14.8165 8.52093 14.7846 8.54492 14.7533C8.54745 14.75 8.5499 14.7468 8.55221 14.7437C8.56526 14.7263 8.5783 14.7132 8.59134 14.6959C8.60439 14.6785 8.62178 14.6611 8.63482 14.6393C8.64786 14.6219 8.66091 14.6089 8.67395 14.5915C8.687 14.5741 8.70439 14.5567 8.71743 14.5393C8.73047 14.5219 8.74352 14.5089 8.76091 14.4915C8.77037 14.482 8.77854 14.4726 8.78683 14.4631C8.80102 14.4469 8.81525 14.4306 8.83047 14.4154C8.8457 14.4002 8.85993 14.3839 8.87412 14.3677C8.87546 14.3662 8.8768 14.3647 8.87814 14.3631C8.89233 14.3469 8.90655 14.3306 8.92178 14.3154C8.93701 14.3002 8.95101 14.2837 8.96563 14.2679C8.96597 14.2675 8.96632 14.2672 8.96666 14.2668C8.98201 14.2503 8.99935 14.2357 9.01529 14.2197C9.02215 14.2129 9.02893 14.2061 9.03482 14.2002C9.04083 14.1942 9.04684 14.1887 9.05266 14.1834C9.07381 14.164 9.09368 14.1429 9.11426 14.123C9.12454 14.1131 9.13547 14.1037 9.14613 14.0942C9.15038 14.0904 9.15462 14.0867 9.15886 14.083C9.17506 14.0688 9.19133 14.0546 9.20656 14.0393C9.22179 14.0241 9.23785 14.0096 9.25448 13.9959C9.26387 13.9882 9.27326 13.9812 9.28265 13.9741C9.31711 13.9483 9.34601 13.9155 9.38008 13.8891C9.38094 13.8884 9.38179 13.8878 9.38265 13.8872C9.40004 13.8741 9.41309 13.8611 9.43048 13.848C9.44787 13.835 9.46526 13.8176 9.48265 13.8045C9.5156 13.7798 9.54674 13.7527 9.57946 13.7276C9.58204 13.7257 9.58456 13.7238 9.587 13.7219C9.59403 13.7167 9.60107 13.7114 9.60781 13.7061C9.62654 13.6915 9.64467 13.6761 9.66391 13.6621C9.66606 13.6605 9.66822 13.6589 9.67036 13.6573C9.68504 13.6462 9.69926 13.633 9.71435 13.6225C9.73347 13.609 9.75281 13.5973 9.77257 13.5848C9.78282 13.5784 9.79361 13.5719 9.80439 13.5654C9.82179 13.5524 9.83918 13.5437 9.85657 13.5306C9.87831 13.5176 9.8957 13.5045 9.91744 13.4915C9.93483 13.4828 9.95222 13.4698 9.96526 13.4611C9.987 13.448 10.0087 13.435 10.0305 13.4219C10.0479 13.4132 10.0609 13.4002 10.0783 13.3915C10.1044 13.3785 10.1305 13.3611 10.1522 13.348C10.1771 13.3315 10.2045 13.319 10.2306 13.3045C10.2566 13.29 10.2827 13.2755 10.3087 13.2611C10.3174 13.2567 10.3305 13.248 10.3392 13.2437C10.3696 13.2263 10.3957 13.2132 10.4261 13.1958C10.4271 13.1954 10.428 13.1949 10.4288 13.1945C10.4582 13.1794 10.4888 13.1655 10.5186 13.1513C10.5379 13.1421 10.5575 13.1345 10.5766 13.125C10.5844 13.121 10.5922 13.1171 10.6001 13.1132C10.6218 13.1002 10.6479 13.0915 10.6696 13.0785C10.687 13.0698 10.7044 13.0611 10.7261 13.0524C10.7308 13.0505 10.7355 13.0484 10.7402 13.0463C10.7768 13.0293 10.813 13.01 10.8522 13.0002C10.8565 12.9985 10.8607 12.9968 10.8649 12.9951C10.9025 12.9802 10.9422 12.9704 10.9783 12.9524C11.0001 12.9437 11.0218 12.935 11.0479 12.9263C11.0696 12.9176 11.087 12.9132 11.1088 12.9045C11.1305 12.8958 11.1522 12.8871 11.1783 12.8785C11.2001 12.8698 11.2174 12.8654 11.2392 12.8567C11.2515 12.8518 11.2651 12.8483 11.2786 12.8446C11.2989 12.839 11.3192 12.8329 11.3392 12.8263C11.3592 12.8196 11.3795 12.8136 11.3998 12.808C11.4013 12.8076 11.4029 12.8071 11.4044 12.8067C11.4278 12.8003 11.4511 12.7932 11.4742 12.7856C11.4825 12.7829 11.4909 12.7803 11.5001 12.7785C11.5218 12.7741 11.5479 12.7654 11.5696 12.7611C11.6109 12.7528 11.651 12.7376 11.692 12.728C11.6948 12.7274 11.6974 12.7268 11.7001 12.7263C11.7218 12.7219 11.7435 12.7176 11.7609 12.7132C11.764 12.7126 11.7671 12.712 11.7703 12.7114C11.811 12.7035 11.8512 12.6928 11.8914 12.6828C11.9175 12.6784 11.9392 12.6741 11.9653 12.6698C11.987 12.6654 12.0088 12.6611 12.0261 12.6567C12.0522 12.6524 12.074 12.648 12.1001 12.6437C12.1092 12.6418 12.1184 12.64 12.1272 12.6385C12.1495 12.6347 12.1738 12.6325 12.1962 12.6294C12.2229 12.6258 12.2483 12.6242 12.2751 12.621C12.2824 12.6202 12.2893 12.6192 12.2957 12.6176C12.3218 12.6132 12.3479 12.6132 12.374 12.6089C12.3957 12.6045 12.4131 12.6045 12.4348 12.6002C12.4407 12.5992 12.4465 12.5985 12.4524 12.5978C12.4928 12.5934 12.5333 12.5871 12.574 12.5871C12.6001 12.5871 12.6305 12.5828 12.6566 12.5828C12.674 12.5828 12.6957 12.5784 12.7131 12.5784C12.7435 12.5784 12.7783 12.5741 12.8088 12.5741C12.8262 12.5741 12.8392 12.5741 12.8566 12.5741C12.9044 12.5741 12.9522 12.5741 13.0001 12.5741C13.0479 12.5741 13.0957 12.5741 13.1435 12.5741C13.1609 12.5741 13.174 12.5741 13.1914 12.5741C13.2039 12.5741 13.2171 12.5741 13.2305 12.5744C13.2682 12.5753 13.3058 12.5828 13.3435 12.5828C13.3696 12.5828 13.4001 12.5871 13.4262 12.5871C13.4338 12.5871 13.4409 12.5877 13.4478 12.5884C13.4739 12.591 13.5 12.5937 13.5262 12.5958C13.5523 12.598 13.5786 12.5995 13.6044 12.6045C13.6113 12.6058 13.6185 12.6073 13.6262 12.6089C13.6522 12.6132 13.6783 12.6132 13.7044 12.6176C13.7262 12.6219 13.7479 12.6219 13.7653 12.6263C13.7788 12.6285 13.7911 12.6308 13.8034 12.6324C13.8271 12.6356 13.8511 12.638 13.8747 12.6414C13.8945 12.6442 13.9143 12.6453 13.934 12.6488C13.9485 12.6515 13.9626 12.6541 13.9783 12.6567C14.0001 12.6611 14.0218 12.6654 14.0436 12.6698C14.0696 12.6741 14.0914 12.6784 14.1175 12.6828C14.1392 12.6871 14.1609 12.6915 14.1827 12.6958C14.1857 12.6965 14.1889 12.6971 14.1921 12.6977C14.2327 12.7056 14.2729 12.7162 14.3131 12.7263C14.3349 12.7306 14.3609 12.7393 14.3827 12.7437C14.424 12.7519 14.464 12.7672 14.5051 12.7767C14.5078 12.7773 14.5105 12.7779 14.5131 12.7785C14.5349 12.7828 14.5566 12.7915 14.574 12.7958C14.5863 12.8007 14.5999 12.8043 14.6134 12.808C14.6337 12.8136 14.654 12.8196 14.674 12.8263C14.694 12.8329 14.7142 12.8391 14.7345 12.845C14.7468 12.8485 14.7598 12.852 14.774 12.8567C14.7957 12.8654 14.8131 12.8698 14.8349 12.8785C14.8375 12.8795 14.8401 12.8805 14.8427 12.8816C14.8826 12.8974 14.9254 12.906 14.9653 12.9219C14.987 12.9306 15.0088 12.9393 15.0305 12.948C15.0523 12.9567 15.0696 12.9611 15.0914 12.9698C15.1131 12.9785 15.1349 12.9871 15.1566 12.9958C15.174 13.0045 15.1957 13.0132 15.2131 13.0219C15.2349 13.0306 15.2566 13.0393 15.2783 13.0524C15.2957 13.0611 15.3175 13.0698 15.3349 13.0785C15.3566 13.0871 15.3783 13.1002 15.4001 13.1089C15.4175 13.1176 15.4349 13.1263 15.4523 13.135C15.474 13.148 15.5001 13.1567 15.5218 13.1698C15.5392 13.1785 15.5566 13.1871 15.574 13.1958C15.6001 13.2089 15.6262 13.2219 15.6523 13.235C15.6653 13.2437 15.6783 13.248 15.6914 13.2567C15.7305 13.2785 15.7697 13.3002 15.8044 13.3219C15.8218 13.3306 15.8349 13.3393 15.8523 13.348C15.874 13.3611 15.9001 13.3741 15.9218 13.3871C15.9392 13.3958 15.9566 13.4089 15.974 13.4176C15.9957 13.4306 16.0131 13.4437 16.0349 13.4567C16.0523 13.4698 16.0697 13.4785 16.087 13.4915C16.1044 13.5045 16.1262 13.5176 16.1436 13.5306C16.177 13.5557 16.2136 13.5766 16.2475 13.601C16.2491 13.6022 16.2507 13.6034 16.2523 13.6045C16.2697 13.6176 16.287 13.6306 16.3044 13.6437C16.3218 13.6567 16.3436 13.6698 16.361 13.6828C16.3784 13.6958 16.3957 13.7089 16.4131 13.7219C16.4305 13.735 16.4479 13.748 16.4653 13.7611C16.4827 13.7741 16.5001 13.7872 16.5175 13.8002C16.5265 13.8069 16.5354 13.8136 16.5444 13.821C16.5619 13.8353 16.5782 13.8495 16.5957 13.8638C16.6133 13.8781 16.6309 13.894 16.6479 13.9089C16.6566 13.9165 16.6653 13.9241 16.674 13.9306C16.6824 13.9369 16.6908 13.9442 16.6987 13.9515C16.7144 13.9662 16.7316 13.9812 16.7474 13.9958C16.7631 14.0105 16.7783 14.0241 16.7936 14.0393C16.8012 14.0469 16.8088 14.0545 16.8175 14.0611C16.8259 14.0674 16.8342 14.0746 16.8421 14.082C16.8579 14.0966 16.874 14.1111 16.8892 14.1263C16.9045 14.1415 16.9208 14.1557 16.936 14.1709C16.944 14.1789 16.9519 14.1868 16.961 14.1959C16.9784 14.2132 16.9914 14.2263 17.0088 14.2437C17.0262 14.2611 17.0392 14.2741 17.0566 14.2915C17.074 14.3089 17.0871 14.3219 17.1044 14.3393C17.1218 14.3567 17.1349 14.3698 17.1479 14.3872C17.161 14.4045 17.1784 14.4176 17.1914 14.435C17.2044 14.4524 17.2218 14.4698 17.2349 14.4872C17.2607 14.5216 17.2935 14.5505 17.3199 14.5846C17.3205 14.5854 17.3212 14.5863 17.3218 14.5872C17.349 14.6233 17.3817 14.6553 17.4088 14.6915C17.4218 14.7089 17.4349 14.7263 17.4479 14.7437C17.461 14.7611 17.474 14.7785 17.4914 14.8002C17.5044 14.8176 17.5175 14.835 17.5305 14.8524C17.5322 14.8546 17.5339 14.857 17.5356 14.8593C17.5599 14.8934 17.5901 14.9237 17.6088 14.9611C17.6218 14.9828 17.6392 15.0002 17.6523 15.0219C17.6653 15.0393 17.674 15.0524 17.6871 15.0698C17.7019 15.0895 17.7153 15.1107 17.7289 15.1316C17.7494 15.1633 17.7687 15.1961 17.7914 15.2263C17.7945 15.2314 17.7976 15.2366 17.8007 15.2417C17.8217 15.276 17.8474 15.3078 17.8653 15.3437C17.872 15.3548 17.8786 15.3659 17.8853 15.3764C17.8974 15.3956 17.9092 15.4133 17.9206 15.4328C17.9308 15.4502 17.9401 15.4697 17.9499 15.4873C17.9562 15.4985 17.9622 15.5095 17.9697 15.5219C17.9784 15.5393 17.9914 15.5611 18.0001 15.5785C18.0131 15.6002 18.0218 15.6176 18.0305 15.6393C18.0496 15.6775 18.0702 15.7154 18.0897 15.7534C18.0903 15.7545 18.0909 15.7556 18.0914 15.7567C18.1001 15.7741 18.1088 15.7959 18.1175 15.8133C18.1262 15.835 18.1392 15.8567 18.1479 15.8741C18.1566 15.8959 18.1653 15.9133 18.174 15.935C18.1827 15.9567 18.1914 15.9785 18.2001 16.0002C18.2088 16.022 18.2175 16.0393 18.2262 16.0611C18.2349 16.0828 18.2436 16.1046 18.2523 16.1263C18.261 16.148 18.2697 16.1654 18.2784 16.1872C18.2871 16.2089 18.2958 16.2306 18.3045 16.2524C18.3131 16.2741 18.3175 16.2915 18.3262 16.3133C18.3267 16.3146 18.3272 16.3159 18.3278 16.3172C18.3437 16.3571 18.3537 16.3994 18.3697 16.4393C18.3784 16.4611 18.3827 16.4828 18.3914 16.5046C18.4001 16.5263 18.4045 16.548 18.4088 16.5654C18.4175 16.5872 18.4218 16.6089 18.4305 16.635C18.4349 16.6567 18.4436 16.6785 18.4479 16.6959C18.4523 16.7176 18.461 16.7437 18.4653 16.7654C18.4697 16.7872 18.4784 16.8089 18.4827 16.8263C18.4871 16.848 18.4958 16.8741 18.5001 16.8959C18.5045 16.9176 18.5088 16.9393 18.5131 16.9611C18.5138 16.9641 18.5144 16.9673 18.515 16.9705C18.5229 17.0111 18.5335 17.0513 18.5436 17.0915C18.5479 17.1176 18.5523 17.1393 18.5566 17.1654C18.561 17.1872 18.5653 17.2046 18.5697 17.2263C18.574 17.2524 18.5784 17.2785 18.5827 17.3002C18.5908 17.3404 18.5948 17.3814 18.6015 17.4219C18.6025 17.4277 18.6035 17.4335 18.6045 17.4394C18.6088 17.4567 18.6088 17.4785 18.6131 17.4959C18.6175 17.5263 18.6218 17.5567 18.6218 17.5872C18.6218 17.6046 18.6262 17.622 18.6262 17.635C18.6334 17.7138 18.6998 17.7741 18.779 17.7741H21.0001C22.1047 17.7741 23.0001 16.8787 23.0001 15.7741V5.00012C23.0001 3.89555 22.1047 3.00012 21.0001 3.00012H5ZM19.9566 9.95669H6.0435C5.80437 9.95669 5.60871 9.76104 5.60871 9.52191C5.60871 9.28277 5.80437 9.08712 6.0435 9.08712H19.9566C20.1958 9.08712 20.3914 9.28277 20.3914 9.52191C20.3914 9.76104 20.1958 9.95669 19.9566 9.95669ZM19.9566 6.47841H6.0435C5.80437 6.47841 5.60871 6.28275 5.60871 6.04362C5.60871 5.80449 5.80437 5.60884 6.0435 5.60884H19.9566C20.1958 5.60884 20.3914 5.80449 20.3914 6.04362C20.3914 6.28275 20.1958 6.47841 19.9566 6.47841Z" fill="#FFC400"/>
</svg>
