<svg width="26" height="26" viewBox="0 0 26 26" fill="none" xmlns="http://www.w3.org/2000/svg">
<path fill-rule="evenodd" clip-rule="evenodd" d="M14.8188 14.538C14.5888 14.0722 14.2703 13.7052 13.8635 13.4365C13.4567 13.1681 12.8285 12.908 11.9794 12.6566C11.1302 12.4051 10.5957 12.1637 10.3753 11.9321C10.1296 11.6728 10.0477 11.2838 10.1694 10.9486C10.3892 10.3427 11.1415 10.1865 11.7179 10.206C12.0399 10.2169 12.3667 10.3112 12.6129 10.5173C12.8234 10.6933 12.9584 10.938 13.0435 11.2003L14.814 10.8344C14.6555 10.0821 14.2943 9.37874 13.628 8.93881C13.3124 8.73053 12.9565 8.59382 12.5878 8.50499L12.7778 6.96883H10.5607L10.7474 8.4791C10.5228 8.52866 10.3017 8.5927 10.0923 8.68793C8.04138 9.62182 7.91734 12.7058 9.68812 13.9811C10.2825 14.4088 11.0011 14.5998 11.6923 14.8134C12.3048 15.0024 13.0918 15.1946 13.3492 15.8559C13.5461 16.3612 13.3548 16.937 12.9909 17.3177C12.7058 17.6159 12.2821 17.7651 11.7201 17.7651C10.7232 17.7651 10.0504 17.0183 9.90473 16.073L8.21745 16.4709C8.38391 17.3839 8.74857 18.2791 9.45177 18.8789C9.8191 19.1924 10.2603 19.4035 10.7296 19.5254L10.5607 20.8909H12.7778L12.6137 19.5655C13.1054 19.4636 13.5767 19.2701 13.9689 18.9622C15.2221 17.9779 15.5017 15.9216 14.8188 14.538ZM18.3382 4.40522V24.6566C18.3382 24.9317 18.0216 25.072 17.8322 24.8807L17.6713 24.7184C17.2994 24.3433 16.7096 24.3433 16.3375 24.7184C15.9656 25.0937 15.3758 25.0937 15.0037 24.7184C14.6318 24.3433 14.042 24.3433 13.6698 24.7184C13.298 25.0937 12.7082 25.0937 12.336 24.7184C11.9642 24.3433 11.3743 24.3433 11.0022 24.7184C10.6303 25.0937 10.0405 25.0937 9.66838 24.7184C9.29651 24.3433 8.70669 24.3433 8.33456 24.7184C7.96269 25.0937 7.37287 25.0937 7.00073 24.7184C6.62886 24.3433 6.03905 24.3433 5.66691 24.7184L5.50632 24.8807C5.31692 25.072 5 24.9317 5 24.6566V4.40522C5 4.05884 5.26917 3.77789 5.60129 3.77789H17.7372C18.0693 3.77789 18.3382 4.05884 18.3382 4.40522ZM21 2.77745V22.4713C21 22.9478 20.63 23.3337 20.1738 23.3337C19.7177 23.3337 19.3477 22.9478 19.3477 22.4713V3.63728C19.3477 3.13302 18.956 2.72427 18.4729 2.72427H7.68685C7.23068 2.72427 6.86068 2.33835 6.86068 1.86193C6.86068 1.3858 7.23068 0.999878 7.68685 0.999878H19.297C20.2376 0.999878 21 1.79566 21 2.77745Z" fill="#FFC400"/>
</svg>
