<svg width="26" height="26" viewBox="0 0 26 26" fill="none" xmlns="http://www.w3.org/2000/svg">
<path d="M10 2C4.48421 2 0 6.48421 0 12C0 17.5158 4.48421 22 10 22C15.5158 22 20 17.5158 20 12C20 6.48421 15.5158 2 10 2ZM10 7.72632C11.7263 7.72632 13.1368 9.13684 13.1368 10.8632C13.1368 12.5895 11.7263 14 10 14C8.27368 14 6.86316 12.5895 6.86316 10.8632C6.86316 9.13684 8.27368 7.72632 10 7.72632ZM4.52632 18.0632V17.6C4.52632 16.2737 5.6 15.1789 6.94737 15.1789H13.0526C14.3789 15.1789 15.4737 16.2526 15.4737 17.6V18.0632C14.0211 19.3684 12.1053 20.1684 10 20.1684C7.89474 20.1684 5.97895 19.3684 4.52632 18.0632Z" fill="#FFC400"/>
<path d="M25 19.5C25 16.465 22.535 14 19.5 14C16.465 14 14 16.465 14 19.5C14 22.535 16.465 25 19.5 25C22.535 25 25 22.535 25 19.5ZM18.2461 21.6088C18.1321 21.7228 17.9754 21.7798 17.8187 21.7798C17.6619 21.7798 17.5052 21.7228 17.3912 21.6088C17.149 21.3666 17.149 20.9961 17.3912 20.7539L18.6451 19.5L17.3912 18.2461C17.149 18.0039 17.149 17.6334 17.3912 17.3912C17.6334 17.149 18.0039 17.149 18.2461 17.3912L19.5 18.6451L20.7539 17.3912C20.9961 17.149 21.3666 17.149 21.6088 17.3912C21.851 17.6334 21.851 18.0039 21.6088 18.2461L20.3549 19.5L21.6088 20.7539C21.851 20.9961 21.851 21.3666 21.6088 21.6088C21.4948 21.7228 21.3381 21.7798 21.1813 21.7798C21.0246 21.7798 20.8679 21.7228 20.7539 21.6088L19.5 20.3549L18.2461 21.6088Z" fill="#1D1724"/>
<path d="M24 19.5C24 17.0168 21.9832 15 19.5 15C17.0168 15 15 17.0168 15 19.5C15 21.9832 17.0168 24 19.5 24C21.9832 24 24 21.9832 24 19.5ZM18.4741 21.2254C18.3808 21.3187 18.2526 21.3653 18.1244 21.3653C17.9961 21.3653 17.8679 21.3187 17.7746 21.2254C17.5764 21.0272 17.5764 20.7241 17.7746 20.5259L18.8005 19.5L17.7746 18.4741C17.5764 18.2759 17.5764 17.9728 17.7746 17.7746C17.9728 17.5764 18.2759 17.5764 18.4741 17.7746L19.5 18.8005L20.5259 17.7746C20.7241 17.5764 21.0272 17.5764 21.2254 17.7746C21.4236 17.9728 21.4236 18.2759 21.2254 18.4741L20.1995 19.5L21.2254 20.5259C21.4236 20.7241 21.4236 21.0272 21.2254 21.2254C21.1321 21.3187 21.0039 21.3653 20.8756 21.3653C20.7474 21.3653 20.6192 21.3187 20.5259 21.2254L19.5 20.1995L18.4741 21.2254Z" fill="#FFC400"/>
</svg>
