<svg width="26" height="26" viewBox="0 0 26 26" fill="none" xmlns="http://www.w3.org/2000/svg">
<path d="M19.1157 22.5662H19.1117V19.1438C19.1117 17.986 18.3694 16.5408 17.4378 15.8539L13.8607 13.2256V12.7787L17.4377 10.1504C18.3694 9.46345 19.1115 8.01826 19.1115 6.86054V3.43806H19.1155C19.7359 3.43806 20.2366 2.9334 20.2366 2.31291V2.12526C20.2366 1.50478 19.7359 1.00012 19.1155 1.00012H6.73528C6.11479 1.00012 5.60938 1.50478 5.60938 2.12526V2.31272C5.60938 2.93321 6.11441 3.43787 6.7349 3.43787L6.74004 6.86035C6.74004 8.01826 7.46893 9.4625 8.40261 10.148L11.9855 12.7806V13.2233L8.39975 15.8562C7.46645 16.5416 6.73452 17.9858 6.73452 19.1438V22.5662H6.73528C6.11479 22.5662 5.60938 23.0709 5.60938 23.6914V23.8788C5.60938 24.4993 6.11479 25.004 6.73528 25.004H19.1157C19.7361 25.004 20.2368 24.4993 20.2368 23.8788V23.6914C20.2368 23.0709 19.7361 22.5662 19.1157 22.5662ZM18.3614 22.5664H17.4237V19.625C17.4237 18.7702 16.8873 17.7029 16.1988 17.1958L13.1548 14.9509C13.0228 14.8531 12.8432 14.8529 12.711 14.9503L9.65101 17.1973C8.96175 17.7037 8.42223 18.77 8.42223 19.625V22.5662H7.48455V19.1438C7.48455 18.2303 8.10961 17.0017 8.84592 16.4608L12.5831 13.7158C12.6793 13.6451 12.7353 13.5329 12.7353 13.4135V12.5908C12.7353 12.4714 12.6807 12.3592 12.5846 12.2885L8.84497 9.54347C8.10846 9.00262 7.48455 7.77403 7.48455 6.86054V3.43806H18.3614V6.86054C18.3614 7.77441 17.7282 9.00452 16.9924 9.5469L13.269 12.2874C13.1731 12.358 13.1104 12.4699 13.1104 12.5891V13.4152C13.1104 13.5342 13.167 13.6463 13.2629 13.7169L16.9926 16.4576C17.728 17 18.3614 18.2301 18.3614 19.1439V22.5664Z" fill="#FFC400"/>
<path d="M16.3351 8.38974C16.2844 8.23561 16.1406 8.13179 15.9787 8.13179L9.87327 8.12988C9.71115 8.12988 9.56751 8.23409 9.51683 8.38802C9.46635 8.54214 9.52064 8.71131 9.65133 8.80733L12.7115 11.0542C12.7776 11.1028 12.8555 11.127 12.9334 11.127C13.0115 11.127 13.0898 11.1026 13.1559 11.0536L16.2014 8.80866C16.3317 8.71265 16.3858 8.54367 16.3351 8.38974Z" fill="#FFC400"/>
</svg>
