<svg width="24" height="24" viewBox="0 0 24 24" fill="none" xmlns="http://www.w3.org/2000/svg">
<path d="M14.5384 8.51165V3.12107C14.5384 2.56866 14.3189 2.03888 13.9283 1.64826C13.5377 1.25765 13.0079 1.03821 12.4555 1.03821H3.08262C2.53021 1.03821 2.00043 1.25765 1.60981 1.64826C1.2192 2.03888 0.999756 2.56866 0.999756 3.12107V12.494C0.999756 13.0464 1.2192 13.5761 1.60981 13.9668C2.00043 14.3574 2.53021 14.5768 3.08262 14.5768H8.33317C9.33121 13.5963 13.4102 9.67469 14.5384 8.51165ZM10.3726 4.1625C10.5786 4.1625 10.78 4.22358 10.9512 4.33802C11.1225 4.45245 11.256 4.6151 11.3348 4.8054C11.4136 4.99569 11.4342 5.20509 11.3941 5.40711C11.3539 5.60913 11.2547 5.79469 11.109 5.94034C10.9634 6.08599 10.7778 6.18517 10.5758 6.22536C10.3738 6.26554 10.1644 6.24492 9.9741 6.16609C9.78381 6.08727 9.62116 5.95379 9.50672 5.78252C9.39229 5.61126 9.33121 5.40991 9.33121 5.20393C9.33121 4.92773 9.44093 4.66284 9.63624 4.46753C9.83154 4.27222 10.0964 4.1625 10.3726 4.1625ZM10.3726 8.32823C10.5786 8.32823 10.78 8.38931 10.9512 8.50374C11.1225 8.61818 11.256 8.78083 11.3348 8.97112C11.4136 9.16142 11.4342 9.37082 11.3941 9.57283C11.3539 9.77485 11.2547 9.96042 11.109 10.1061C10.9634 10.2517 10.7778 10.3509 10.5758 10.3911C10.3738 10.4313 10.1644 10.4106 9.9741 10.3318C9.78381 10.253 9.62116 10.1195 9.50672 9.94825C9.39229 9.77699 9.33121 9.57564 9.33121 9.36966C9.33121 9.09346 9.44093 8.82856 9.63624 8.63326C9.83154 8.43795 10.0964 8.32823 10.3726 8.32823ZM5.16548 4.1625C5.37146 4.1625 5.57281 4.22358 5.74407 4.33802C5.91533 4.45245 6.04882 4.6151 6.12764 4.8054C6.20646 4.99569 6.22709 5.20509 6.1869 5.40711C6.14672 5.60913 6.04753 5.79469 5.90189 5.94034C5.75624 6.08599 5.57067 6.18517 5.36866 6.22536C5.16664 6.26554 4.95724 6.24492 4.76694 6.16609C4.57665 6.08727 4.414 5.95379 4.29956 5.78252C4.18513 5.61126 4.12405 5.40991 4.12405 5.20393C4.12405 4.92773 4.23377 4.66284 4.42908 4.46753C4.62439 4.27222 4.88928 4.1625 5.16548 4.1625ZM5.16548 11.4525C4.95951 11.4525 4.75816 11.3914 4.58689 11.277C4.41563 11.1626 4.28215 10.9999 4.20333 10.8096C4.1245 10.6193 4.10388 10.4099 4.14406 10.2079C4.18425 10.0059 4.28343 9.82034 4.42908 9.67469C4.57473 9.52904 4.76029 9.42986 4.96231 9.38967C5.16433 9.34949 5.37372 9.37011 5.56402 9.44894C5.75432 9.52776 5.91697 9.66124 6.0314 9.8325C6.14584 10.0038 6.20691 10.2051 6.20691 10.4111C6.20691 10.6873 6.09719 10.9522 5.90189 11.1475C5.70658 11.3428 5.44169 11.4525 5.16548 11.4525Z" fill="#FFC400"/>
<path d="M17.5052 10.7737L17.5064 10.7749L21.5912 14.8598L21.5915 14.8601C21.9934 15.2617 22.1377 15.8814 21.8471 16.5241C21.8175 16.5885 21.7766 16.6472 21.7264 16.6973L21.7252 16.6985L17.6403 20.7833L17.64 20.7836C17.2381 21.1859 16.6187 21.3302 15.9758 21.0392C15.9113 21.0096 15.8526 20.9688 15.8025 20.9185L15.8013 20.9173L11.7165 16.8324L11.7162 16.8321C11.3139 16.4301 11.1697 15.8108 11.4606 15.1679C11.4902 15.1033 11.531 15.0446 11.5813 14.9945L11.5824 14.9934L15.6674 10.9089L15.6677 10.9086C16.0696 10.5063 16.689 10.362 17.3319 10.653C17.3964 10.6825 17.4551 10.7234 17.5052 10.7737Z" stroke="#FFC400" stroke-width="2"/>
<circle cx="16.6536" cy="15.8461" r="1.26924" fill="#FFC400"/>
</svg>
