<svg width="18" height="18" viewBox="0 0 18 18" fill="none" xmlns="http://www.w3.org/2000/svg">
<path d="M8.75701 8.23453L8.99295 8.46697L9.22964 8.23527C9.47516 7.99488 11.6413 5.86612 12.0794 5.15336C12.3641 4.69031 12.491 4.2255 12.491 3.6463C12.491 2.23724 11.4323 1.5 10.3866 1.5C9.81107 1.5 9.33298 1.6979 8.99639 2.06686C8.7388 1.78505 8.3059 1.5 7.60892 1.5C6.37254 1.5 5.50903 2.3826 5.50903 3.6463C5.50903 4.223 5.63672 4.68774 5.92291 5.15336C6.36074 5.86578 8.51304 7.99413 8.75701 8.23453Z" fill="#8292A7"/>
<path d="M9.24299 9.76564L9.00705 9.5332L8.77036 9.7649C8.52484 10.0053 6.35878 12.134 5.92062 12.8468C5.63598 13.3099 5.50903 13.7747 5.50903 14.3539C5.50903 15.763 6.56768 16.5002 7.61344 16.5002C8.1888 16.5002 8.66689 16.3022 9.00354 15.9332C9.26107 16.2151 9.69397 16.5002 10.391 16.5002C11.6274 16.5002 12.4909 15.6176 12.4909 14.3539C12.4909 13.7773 12.3632 13.3126 12.077 12.8468C11.6392 12.1344 9.48697 10.006 9.24299 9.76564Z" fill="#8292A7"/>
<path d="M15.9331 8.99608C16.2149 8.73856 16.5 8.30565 16.5 7.60861C16.5 6.3723 15.6174 5.50879 14.3538 5.50879C13.777 5.50879 13.3122 5.63647 12.8467 5.92267C12.1343 6.3605 10.0059 8.51273 9.76546 8.75677L9.53302 8.99271L9.76471 9.2294C10.0051 9.47492 12.1339 11.641 12.8466 12.0791C13.3095 12.3638 13.7744 12.4907 14.3538 12.4907C15.7628 12.4907 16.5 11.4322 16.5 10.3864C16.5 9.81083 16.302 9.33273 15.9331 8.99608Z" fill="#8292A7"/>
<path d="M8.23453 9.24275L8.46697 9.00681L8.23527 8.77012C7.99488 8.5246 5.86618 6.35847 5.15343 5.92038C4.69051 5.63573 4.22564 5.50879 3.6463 5.50879C2.23724 5.50886 1.5 6.56744 1.5 7.6132C1.5 8.18862 1.69797 8.66672 2.06699 9.00337C1.78512 9.2609 1.5 9.6938 1.5 10.3908C1.5 11.6271 2.3826 12.4907 3.6463 12.4907C4.22307 12.4907 4.68781 12.363 5.15336 12.0768C5.86585 11.639 7.9942 9.48672 8.23453 9.24275Z" fill="#8292A7"/>
</svg>
