<?xml version="1.0" encoding="utf-8"?>
<!-- Generator: Adobe Illustrator 24.2.1, SVG Export Plug-In . SVG Version: 6.00 Build 0)  -->
<svg version="1.1" id="svg34" xmlns:svg="http://www.w3.org/2000/svg"
	 xmlns="http://www.w3.org/2000/svg" xmlns:xlink="http://www.w3.org/1999/xlink" x="0px" y="0px" viewBox="0 0 62 62"
	 style="enable-background:new 0 0 62 62;" xml:space="preserve">
<style type="text/css">
	.st0{fill-rule:evenodd;clip-rule:evenodd;fill:#FFFFFF;}
	.st1{fill:#FFEC4A;}
	.st2{fill:#FFC400;}
	.st3{fill-rule:evenodd;clip-rule:evenodd;fill:#E4FFA3;}
	.st4{fill:#AAFF5C;}
	.st5{fill:#17E200;}
</style>
<path class="st0" d="M31.8129883,54.6992188c-0.2832031,0-0.5136719-0.2304688-0.5136719-0.5136719
	s0.2304688-0.5146484,0.5136719-0.5146484h16.2670898c0.2832031,0,0.5136719,0.2314453,0.5136719,0.5146484
	s-0.2304688,0.5136719-0.5136719,0.5136719H31.8129883z M13.0961914,54.6992188
	c-0.2832031,0-0.5136719-0.2304688-0.5136719-0.5136719s0.2304688-0.5146484,0.5136719-0.5146484h8.1352539
	c0.2832031,0,0.5136719,0.2314453,0.5136719,0.5146484s-0.2304688,0.5136719-0.5136719,0.5136719H13.0961914z"/>
<path class="st1" d="M48.0796509,53.9715729c0.1177368,0,0.2135315,0.0958099,0.2135315,0.213562
	s-0.0957947,0.213562-0.2135315,0.213562H31.8129578c-0.1177368,0-0.2135315-0.0958099-0.2135315-0.213562
	s0.0957947-0.213562,0.2135315-0.213562H48.0796509 M21.2314758,53.9715729c0.1177368,0,0.2135315,0.0958099,0.2135315,0.213562
	s-0.0957947,0.213562-0.2135315,0.213562h-8.1352844c-0.1177368,0-0.2135162-0.0958099-0.2135162-0.213562
	s0.0957794-0.213562,0.2135162-0.213562H21.2314758 M48.0796509,53.371582H31.8129578
	c-0.4490051,0-0.8135376,0.3644714-0.8135376,0.8135529s0.3645325,0.8135681,0.8135376,0.8135681h16.2666931
	c0.4489746,0,0.8135376-0.3644867,0.8135376-0.8135681S48.5286255,53.371582,48.0796509,53.371582L48.0796509,53.371582z
	 M21.2314758,53.371582h-8.1352844c-0.4489899,0-0.8135223,0.3644714-0.8135223,0.8135529s0.3645325,0.8135681,0.8135223,0.8135681
	h8.1352844c0.4489746,0,0.8135223-0.3644867,0.8135223-0.8135681S21.6804504,53.371582,21.2314758,53.371582L21.2314758,53.371582z
	 M31.8129272,54.998703h0.0000305H31.8129272z"/>
<path class="st2" d="M48.0796509,53.6715851c0.2831726,0,0.5135498,0.2303772,0.5135498,0.5135498
	S48.3628235,54.6987,48.0796509,54.6987H31.8129578c-0.2831726,0-0.5135498-0.2303925-0.5135498-0.5135651
	s0.2303772-0.5135498,0.5135498-0.5135498H48.0796509 M21.2314758,53.6715851c0.2831573,0,0.5135193,0.2303772,0.5135193,0.5135498
	S21.5146332,54.6987,21.2314758,54.6987h-8.1352844c-0.2831573,0-0.5135193-0.2303925-0.5135193-0.5135651
	s0.2303619-0.5135498,0.5135193-0.5135498H21.2314758 M48.0796509,53.371582H31.8129578
	c-0.4490051,0-0.8135376,0.3644714-0.8135376,0.8135529s0.3645325,0.8135681,0.8135376,0.8135681h16.2666931
	c0.4489746,0,0.8135376-0.3644867,0.8135376-0.8135681S48.5286255,53.371582,48.0796509,53.371582L48.0796509,53.371582z
	 M21.2314758,53.371582h-8.1352844c-0.4489899,0-0.8135223,0.3644714-0.8135223,0.8135529s0.3645325,0.8135681,0.8135223,0.8135681
	h8.1352844c0.4489746,0,0.8135223-0.3644867,0.8135223-0.8135681S21.6804504,53.371582,21.2314758,53.371582L21.2314758,53.371582z
	 M31.8129272,54.998703h0.0000305H31.8129272z"/>
<path class="st3" d="M26.2285156,54.1503906c-0.5634766,0-1.1152344-0.2285156-1.5136719-0.6269531L13.2094727,42.0175781
	c-0.4042969-0.4042969-0.6269531-0.9423828-0.6269531-1.5136719s0.2226563-1.109375,0.6269531-1.5136719l0.5751953-0.5751953
	c0.1171875-0.1171875,0.1171875-0.3066406,0-0.4238281l-0.5751953-0.5751953
	c-0.3984375-0.3984375-0.6269531-0.9501953-0.6269531-1.5136719c0-0.5722656,0.2226563-1.1103516,0.6269531-1.5146484
	L13.784668,33.8125c0.1171875-0.1171875,0.1171875-0.3066406,0-0.4238281l-0.5751953-0.5751953
	c-0.4042969-0.4042969-0.6269531-0.9418945-0.6269531-1.5136719s0.2226563-1.109375,0.6269531-1.5131836L35.0703125,7.9257813
	c0.4042969-0.4042969,0.9414063-0.6269531,1.5136719-0.6269531c0.5712891,0,1.109375,0.2226563,1.5136719,0.6269531
	l11.5058594,11.5053711c0.4042969,0.4042969,0.6269531,0.9418945,0.6269531,1.5136719s-0.2226563,1.109375-0.6269531,1.5131836
	l-0.5761719,0.5756836c-0.0566406,0.0566406-0.0878906,0.1328125-0.0878906,0.2124023s0.03125,0.1557617,0.0878906,0.2119141
	l0.5751953,0.5751953c0.4042969,0.4042969,0.6269531,0.9414063,0.6269531,1.5136719s-0.2226563,1.1098633-0.6259766,1.5136719
	l-0.5761719,0.574707c-0.1171875,0.1171875-0.1171875,0.3071289,0,0.4243164l0.5751953,0.5761719
	c0.3984375,0.3979492,0.6269531,0.9492188,0.6269531,1.5136719c0,0.5634766-0.2285156,1.1152344-0.6259766,1.5136719
	L27.7431641,53.5234375C27.3388672,53.9277344,26.8007813,54.1503906,26.2285156,54.1503906z M14.7231445,39.0537109
	c-0.0766602,0-0.1533203,0.0292969-0.2119141,0.0878906l-0.5751953,0.5751953
	c-0.2075195,0.2080078-0.3261719,0.4951172-0.3261719,0.7871094s0.1186523,0.5791016,0.3256836,0.7871094L25.4414063,52.796875
	c0.2119141,0.2109375,0.4912109,0.3261719,0.7871094,0.3261719c0.2973633,0,0.5771484-0.1152344,0.7880859-0.3251953
	l21.859375-21.8613281c0.2099609-0.2094727,0.3261719-0.4892578,0.3261719-0.7871094
	c0-0.2949219-0.1191406-0.5825195-0.3271484-0.7885742l-0.5742188-0.5737305
	c-0.0556641-0.0566406-0.1328125-0.0878906-0.2119141-0.0878906s-0.15625,0.03125-0.2119141,0.0878906L27.7431641,48.9208984
	c-0.4042969,0.4042969-0.9423828,0.6269531-1.5146484,0.6269531c-0.5634766,0-1.1152344-0.2285156-1.5136719-0.6269531
	l-9.7797852-9.7792969C14.8764648,39.0830078,14.7998047,39.0537109,14.7231445,39.0537109z M14.7231445,34.4521484
	c-0.0766602,0-0.1533203,0.0292969-0.2119141,0.0878906l-0.5751953,0.5751953
	c-0.2075195,0.2060547-0.3261719,0.4931641-0.3261719,0.7871094c0,0.2910156,0.1181641,0.578125,0.324707,0.7861328
	l11.5068359,11.5058594c0.2119141,0.2109375,0.4912109,0.3261719,0.7871094,0.3261719
	c0.2973633,0,0.5771484-0.1152344,0.7880859-0.3251953l21.859375-21.8613281
	c0.2070313-0.2045898,0.3261719-0.4921875,0.3261719-0.7871094c0-0.2944336-0.1191406-0.581543-0.3261719-0.7880859
	l-0.5751953-0.5742188c-0.0585938-0.0585938-0.1347656-0.0878906-0.2119141-0.0878906s-0.1533203,0.0292969-0.2119141,0.0878906
	L27.7431641,44.3183594c-0.4047852,0.4042969-0.9423828,0.6279297-1.5141602,0.6279297s-1.109375-0.2236328-1.5136719-0.6279297
	l-9.7802734-9.7783203C14.8764648,34.4814453,14.7998047,34.4521484,14.7231445,34.4521484z M26.2285156,39.1113281
	c-1.2866211,0-2.5615234,0.4238281-3.5893555,1.1933594c-0.0698242,0.0527344-0.1132813,0.1318359-0.1196289,0.21875
	s0.0258789,0.171875,0.0874023,0.2333984l2.8344727,2.8349609c0.2104492,0.2109375,0.4902344,0.3271484,0.7875977,0.3271484
	c0.2978516,0,0.5776367-0.1162109,0.7880859-0.3271484l2.8339844-2.8349609
	c0.0615234-0.0615234,0.09375-0.1464844,0.0874023-0.2333984s-0.0498047-0.1660156-0.1196289-0.21875
	C28.7910156,39.5351563,27.5161133,39.1113281,26.2285156,39.1113281z M32.0126953,12.559082
	c-0.0771484,0-0.1538086,0.0292969-0.2119141,0.0878906L17.9306641,26.5170898
	c-0.1083984,0.1079102-0.1176758,0.2797852-0.0224609,0.3994141c0.9907227,1.2392578,1.5366211,2.7958984,1.5366211,4.3833008
	c0,1.5869141-0.5454102,3.1435547-1.5356445,4.3818359c-0.0952148,0.1191406-0.0859375,0.2919922,0.0219727,0.3994141
	l3.5151367,3.5166016c0.0585938,0.0585938,0.1352539,0.0878906,0.2124023,0.0878906
	c0.065918,0,0.1323242-0.0214844,0.1875-0.0654297c1.2392578-0.9902344,2.7954102-1.5361328,4.3823242-1.5361328
	c1.5878906,0,3.1445313,0.5458984,4.3833008,1.5361328c0.0551758,0.0439453,0.121582,0.0654297,0.1875,0.0654297
	c0.0771484,0,0.1538086-0.0292969,0.2119141-0.0878906l13.8706055-13.8706055
	C44.9902344,25.6191406,45,25.4472656,44.9042969,25.3276367c-0.9912109-1.2392578-1.5371094-2.7958984-1.5371094-4.3828125
	c0-1.5864258,0.5458984-3.1430664,1.5371094-4.3823242C45,16.4428711,44.9902344,16.2709961,44.8818359,16.1630859
	l-3.515625-3.5161133c-0.0576172-0.0585938-0.1347656-0.0878906-0.2119141-0.0878906
	c-0.0664063,0-0.1318359,0.0214844-0.1875,0.0654297c-1.2382813,0.9907227-2.7949219,1.5361328-4.3828125,1.5361328
	c-1.5869141,0-3.1445313-0.5458984-4.3837891-1.5361328C32.1445313,12.5805664,32.0791016,12.559082,32.0126953,12.559082z
	 M16.9833984,27.5893555c-0.0791016,0-0.1557617,0.03125-0.2119141,0.0878906l-2.8354492,2.8354492
	c-0.2104492,0.2099609-0.3266602,0.4892578-0.3266602,0.7871094s0.1162109,0.5771484,0.3266602,0.7871094l2.8354492,2.8349609
	c0.0561523,0.0566406,0.1328125,0.0878906,0.2119141,0.0878906c0.0073242,0,0.0141602,0,0.0214844-0.0009766
	c0.0869141-0.0058594,0.1665039-0.0498047,0.21875-0.1191406c0.7700195-1.0283203,1.1938477-2.3037109,1.1938477-3.5898438
	s-0.4238281-2.5610352-1.1938477-3.590332c-0.0522461-0.0698242-0.1318359-0.1132813-0.21875-0.1196289
	C16.9975586,27.5893555,16.9907227,27.5893555,16.9833984,27.5893555z M45.8085938,17.2348633
	c-0.0869141,0.0063477-0.1660156,0.0498047-0.21875,0.1196289c-0.7705078,1.0283203-1.1943359,2.3032227-1.1943359,3.590332
	s0.4238281,2.5620117,1.1943359,3.5898438c0.0527344,0.0698242,0.1318359,0.1132813,0.21875,0.1196289
	c0.0068359,0.0004883,0.0146484,0.0004883,0.0214844,0.0004883c0.0791016,0,0.1552734-0.03125,0.2119141-0.0878906
	l2.8339844-2.8349609c0.2109375-0.2094727,0.3271484-0.4892578,0.3271484-0.7866211s-0.1162109-0.5776367-0.3271484-0.7880859
	l-2.8339844-2.8349609c-0.0566406-0.0566406-0.1328125-0.0878906-0.2119141-0.0878906
	C45.8232422,17.234375,45.8154297,17.234375,45.8085938,17.2348633z M36.5839844,8.3256836
	c-0.2978516,0-0.5771484,0.1157227-0.7880859,0.3266602l-2.8349609,2.8344727
	c-0.0615234,0.0620117-0.09375,0.1469727-0.0869141,0.2338867c0.0058594,0.0869141,0.0498047,0.1665039,0.1191406,0.21875
	c1.0292969,0.7700195,2.3046875,1.1938477,3.5908203,1.1938477s2.5615234-0.4238281,3.5898438-1.1938477
	c0.0693359-0.0522461,0.1132813-0.1318359,0.1191406-0.21875c0.0068359-0.0869141-0.0253906-0.171875-0.0869141-0.2333984
	l-2.8349609-2.8349609C37.1611328,8.4414063,36.8818359,8.3256836,36.5839844,8.3256836z"/>
<path class="st4" d="M36.5836792,7.5986938c0.4916077,0,0.9537048,0.1914978,1.3014221,0.5394897l11.1681824,11.1673889
	l0.3378601,0.3378601c0.7175293,0.7175293,0.7175293,1.8850403-0.0000305,2.6026001l-0.5759888,0.5760193
	c-0.2342834,0.234314-0.2342834,0.6141968,0.0000305,0.8485107l0.575531,0.575531
	c0.3475952,0.3470154,0.5390015,0.8089905,0.5390015,1.3009338c0,0.4918518-0.1912537,0.95401-0.5382385,1.3010254
	l-0.5759888,0.5751648c-0.2344971,0.2341309-0.2347717,0.6140137-0.0006409,0.8485107l0.5758667,0.5767212
	c0.3476257,0.3469849,0.539032,0.8089905,0.539032,1.3009033c0,0.4846802-0.1962891,0.9589996-0.5385742,1.3013
	L27.5307922,53.3109894c-0.3478088,0.3478241-0.8102264,0.5393829-1.3020935,0.5393829
	c-0.491333,0-0.953476-0.1915588-1.3013-0.5393829L13.4220428,41.8056183
	c-0.3478241-0.3478088-0.5393677-0.8102264-0.5393677-1.3020935c0-0.491333,0.1915588-0.953476,0.5393677-1.3013153
	l0.5751801-0.5751801c0.2343292-0.2342987,0.2343292-0.6141968,0.0000153-0.8485107l-0.5751953-0.5752106
	c-0.3478241-0.3478088-0.5393677-0.8099365-0.5393677-1.3012848c0-0.4918518,0.1915588-0.9542694,0.5393829-1.3021088
	l0.5751801-0.5751953c0.234314-0.2342987,0.234314-0.6141968-0.0000153-0.8485107l-0.5753479-0.5753632
	c-0.347702-0.3474121-0.5391998-0.809494-0.5391998-1.3011169s0.1914825-0.9537201,0.5393524-1.3013153L35.2825623,8.1378784
	C35.6299744,7.7901917,36.092041,7.5986938,36.5836792,7.5986938 M36.5836792,13.4335632
	c1.3503723,0,2.689209-0.4452209,3.7698364-1.2536621c0.1393738-0.1042786,0.2266235-0.263916,0.2390442-0.4375305
	c0.0124512-0.1736145-0.0510864-0.3440857-0.1741943-0.4671631l-2.8346863-2.8347168
	c-0.2668152-0.2675476-0.6219788-0.4148865-1-0.4148865s-0.7331848,0.1473389-0.9994507,0.4143372l-2.8352661,2.8352661
	c-0.1231079,0.1230774-0.1866455,0.2935486-0.1741943,0.4671631c0.0124207,0.1736145,0.0996704,0.3332825,0.2390442,0.4375305
	C33.8944702,12.9883423,35.2333069,13.4335632,36.5836792,13.4335632 M36.5836792,13.8606567
	c-1.519104,0-3.0092773-0.5222778-4.1960144-1.4706116c-0.1100769-0.0879517-0.2424622-0.1312866-0.3744202-0.1312866
	c-0.1542969,0-0.3079529,0.0592651-0.424408,0.1757507L17.7184753,26.3049011
	c-0.2161102,0.216095-0.23526,0.5600891-0.0444641,0.7988281c0.9483337,1.1867371,1.4706116,2.6769104,1.4706116,4.1959839
	c0,1.519043-0.5219879,3.0089417-1.4698334,4.1952362c-0.1907349,0.2387238-0.1716003,0.5826416,0.0444336,0.7987366
	l3.5153809,3.5162048c0.1165009,0.1165161,0.2701569,0.1757813,0.424469,0.1757813
	c0.1319885,0,0.2644806-0.0433807,0.3745575-0.1313782c1.1858826-0.9482727,2.6757202-1.4705048,4.1950531-1.4705048
	c1.5198669,0,3.0099792,0.5222321,4.1958771,1.4705048c0.1100922,0.088028,0.2425385,0.1313934,0.3745575,0.1313934
	c0.1542664,0,0.3079376-0.0592651,0.4244232-0.1757507l13.8703613-13.8703613
	c0.216156-0.2161255,0.23526-0.5602417,0.044342-0.7989807c-0.9482422-1.1858826-1.4704895-2.6760254-1.4704895-4.1958618
	c0-1.5193176,0.5222473-3.0091553,1.4704895-4.1950684c0.1908875-0.2387085,0.171814-0.5827637-0.044281-0.7989197
	l-3.5154114-3.5162048c-0.1165161-0.1165161-0.2701416-0.1757813-0.424469-0.1757813
	c-0.1319885,0-0.2644958,0.043396-0.3745422,0.1314087C39.5936279,13.3384399,38.1035156,13.8606567,36.5836792,13.8606567
	 M45.8298035,24.9551697c0.1585388,0,0.3113708-0.0628662,0.4242859-0.1758118l2.8338623-2.8346252
	c0.2672729-0.266571,0.4146118-0.6213074,0.414856-0.9987793c0.0002441-0.3778687-0.1469116-0.7332458-0.4142761-1.0006409
	l-2.8344421-2.8352051c-0.112915-0.1129761-0.2657166-0.1758118-0.4242859-0.1758118
	c-0.0141907,0-0.0284729,0.0005188-0.0427246,0.0015259c-0.173584,0.0123901-0.3332214,0.0995178-0.437561,0.2388
	c-0.809082,1.0802917-1.2546692,2.41922-1.2546692,3.7701111s0.4455872,2.6898193,1.2546692,3.7701111
	c0.1043396,0.1392822,0.2639771,0.2264099,0.437561,0.2388C45.8013611,24.9546509,45.8156128,24.9551697,45.8298035,24.9551697
	 M26.2290955,44.645752c-0.4915771,0-0.9538727-0.1915588-1.301712-0.5393982l-9.7798157-9.7789917
	c-0.117157-0.1171417-0.2706909-0.1757202-0.4242401-0.1757202c-0.1535492,0.0000153-0.3071136,0.0585938-0.4242554,0.1757507
	l-0.5752106,0.5751953c-0.2670288,0.2670593-0.4140778,0.621994-0.4140778,0.9994354
	c0,0.3760376,0.1466675,0.7305908,0.4141083,0.9994507l11.5064697,11.5064697
	c0.2677307,0.2663269,0.6222839,0.4129944,0.9983215,0.4129944c0.3765717,0,0.7313995-0.1466675,1.0002594-0.4141235
	L37.982605,37.652771l11.1047363-11.1051331c0.2638855-0.2624817,0.4152527-0.6271973,0.4152527-1.0006104
	c0-0.3733826-0.1513672-0.7380676-0.4141235-0.9994202l-0.5751953-0.5751953
	c-0.117157-0.117157-0.2706909-0.1757507-0.4242554-0.1757507s-0.3070984,0.0585938-0.4242554,0.1757507L27.5307922,44.106369
	C27.1829681,44.4541931,26.7206726,44.645752,26.2290955,44.645752 M16.9833679,35.3101654
	c0.014267,0,0.028595-0.0005188,0.042923-0.0015411c0.1736145-0.0124512,0.3332672-0.0996704,0.4375305-0.2390442
	c0.8084564-1.0806122,1.2536926-2.4194489,1.2536926-3.7698669c0-1.3504333-0.4452362-2.68927-1.2536926-3.7698669
	c-0.1042633-0.1393738-0.263916-0.226593-0.4375305-0.2390442c-0.0143433-0.0010071-0.028656-0.0015259-0.042923-0.0015259
	c-0.1585236,0-0.3113251,0.0628357-0.4242249,0.1757507l-2.8347168,2.8347168
	c-0.2675171,0.2668152-0.4148407,0.6219482-0.414856,0.9999695c0,0.378006,0.1473236,0.7331543,0.4143219,0.9994507
	l2.8352509,2.8352509C16.6720581,35.247345,16.8248444,35.3101654,16.9833679,35.3101654 M26.2286835,49.2480621
	c-0.4913177,0-0.9534607-0.1915588-1.3013-0.5393829l-9.7798004-9.7798004
	c-0.1125183-0.1125336-0.2651215-0.1757355-0.4242554-0.1757355s-0.3117523,0.0632172-0.4242706,0.1757355l-0.5763245,0.5763397
	c-0.2662964,0.267746-0.4129486,0.6222839-0.4129486,0.998291c0,0.3765411,0.1466522,0.731369,0.4141083,1.0002747
	l11.5064697,11.5064697c0.2677307,0.2663269,0.6222839,0.4129944,0.9983215,0.4129944
	c0.3765717,0,0.7313995-0.1466675,1.0003204-0.4141541l21.8594666-21.8602905
	c0.2670593-0.2670288,0.4141235-0.6219788,0.4141235-0.9994507c0-0.3734131-0.1513672-0.7381287-0.4141235-0.9994812
	l-0.5751953-0.5751648c-0.117157-0.117157-0.2706909-0.1757507-0.4242554-0.1757507
	c-0.1535339,0-0.3070984,0.0585938-0.4242554,0.1757507L27.5307922,48.7086792
	C27.1829681,49.0565033,26.7205353,49.2480621,26.2286835,49.2480621 M26.2290955,44.2188416
	c0.3776093,0,0.7326813-0.1471405,0.9999237-0.4143677l2.8344421-2.8352814
	c0.1230164-0.1230621,0.186554-0.293457,0.1741333-0.4670105c-0.0124207-0.1735687-0.0995636-0.3331909-0.2388611-0.4374695
	c-1.0798492-0.8085327-2.4187469-1.2537994-3.77005-1.2537994c-1.350769,0-2.6893768,0.4452667-3.7692413,1.2537994
	c-0.1392822,0.1042786-0.2264404,0.2639008-0.2388458,0.4374695c-0.0124207,0.1735535,0.0511169,0.3439484,0.1741333,0.4670105
	l2.8345032,2.8353271C25.4964142,44.071701,25.8515015,44.2188416,26.2290955,44.2188416 M36.5836792,6.9986877
	c-0.6246338,0-1.2492371,0.2383728-1.7255554,0.7151184L12.9977722,29.5741577h0.0000153
	c-0.9534912,0.9526978-0.9534912,2.4984436,0,3.4511261l0.5751801,0.5751801l-0.5751801,0.5751953
	c-0.4580383,0.4580383-0.7151184,1.0787811-0.7151184,1.7263641c0,0.6467896,0.2570801,1.2675323,0.7151184,1.7255554
	l0.5751801,0.5751953l-0.5751801,0.5751801c-0.4580383,0.4580383-0.7151184,1.0787811-0.7151184,1.7255707
	c0,0.647583,0.2570801,1.2683411,0.7151184,1.7263641l11.5053558,11.5053558
	c0.4580231,0.4580383,1.0787659,0.7151184,1.7255554,0.7151184c0.647583,0,1.2683411-0.2570801,1.7263641-0.7151184
	l21.8603363-21.8603363c0.4572144-0.4572296,0.714325-1.0787964,0.714325-1.7255554
	c0-0.6476135-0.2571106-1.2683411-0.7151489-1.7255554l-0.5751648-0.5760193l0.5759888-0.5751648
	c0.4572144-0.4572449,0.7142944-1.0779724,0.7142944-1.7255859c0-0.647583-0.2570801-1.2683105-0.7151184-1.7255554
	l-0.5751648-0.5751648l0.5759888-0.5760193c0.9526672-0.9526672,0.9526672-2.4984436,0-3.4511108
	C48.4518738,17.8556519,39.67276,9.0765381,38.3092346,7.7138062C37.8328857,7.2370605,37.2082825,6.9986877,36.5836792,6.9986877
	L36.5836792,6.9986877z M36.5836792,12.8335571c-1.2366028,0-2.4317322-0.4019165-3.4104614-1.1340942l2.8352661-2.8352661
	c0.1586304-0.1590576,0.3669128-0.2385864,0.5751953-0.2385864s0.4165649,0.0795288,0.5751953,0.2385864l2.8352356,2.8352661
	C39.0154114,12.4316406,37.820282,12.8335571,36.5836792,12.8335571L36.5836792,12.8335571z M36.5836792,14.4606628
	c1.6686096,0,3.2794495-0.5694885,4.5705566-1.6018982l3.5154114,3.5162048
	c-1.0324097,1.2911377-1.6018982,2.9011536-1.6018982,4.5697632c0,1.6694336,0.5694885,3.2794495,1.6018982,4.5705872
	L30.7992706,39.3856812c-1.2911224-1.0324097-2.9011536-1.6018982-4.5705872-1.6018982
	c-1.6686096,0-3.2786407,0.5694885-4.5697632,1.6018982l-3.5153809-3.5162048
	c1.0315857-1.2911072,1.6010895-2.9011383,1.6010895-4.5697632c0-1.6686096-0.5695038-3.2786255-1.6018982-4.5705566
	L32.013092,12.8587646C33.3050232,13.8911743,34.9150696,14.4606628,36.5836792,14.4606628L36.5836792,14.4606628z
	 M45.8297729,24.3551636c-0.7330017-0.9786987-1.1349182-2.1738281-1.1349182-3.4104309s0.4019165-2.4317322,1.1349182-3.4104309
	l2.8344421,2.8352356c0.3181152,0.3181152,0.3181152,0.8330994,0,1.1503906L45.8297729,24.3551636L45.8297729,24.3551636z
	 M26.2290955,45.2457428c0.6246033,0,1.2492218-0.2383728,1.7259674-0.7151184l20.1339569-20.1339569l0.5751953,0.5751953
	c0.1529541,0.1521301,0.2383728,0.3595886,0.2383728,0.5751648c0,0.2156067-0.0854187,0.4230652-0.2383728,0.5751953
	c-4.0734863,4.0734863-17.7860413,17.78685-21.8595276,21.8603363c-0.1529541,0.1521454-0.3595886,0.2383728-0.576004,0.2383728
	c-0.2155914,0-0.422226-0.0862274-0.5751801-0.2383728L14.1481476,36.4772034
	c-0.1521301-0.1529388-0.2383728-0.3595886-0.2383728-0.5751801c0-0.2164001,0.0862427-0.4230499,0.2383728-0.5751953
	l0.5751801-0.5751801c0,0,8.4170837,8.416275,9.7798004,9.7789764C24.9798737,45.00737,25.6044769,45.2457428,26.2290955,45.2457428
	L26.2290955,45.2457428z M16.9833984,34.7101593l-2.8352509-2.8352509c-0.3181-0.3172913-0.3181-0.8330841,0-1.1503601
	l2.8352509-2.8352661c0.7322083,0.9786987,1.1341095,2.1738281,1.1341095,3.4104309
	C18.1175079,32.5363312,17.7156067,33.7314453,16.9833984,34.7101593L16.9833984,34.7101593z M26.2286835,49.848053
	c0.6475983,0,1.2683411-0.2570801,1.7263794-0.7151184l20.1339569-20.1339722l0.5751953,0.5751953
	c0.1529541,0.1521301,0.2383728,0.3595886,0.2383728,0.5751953c0,0.2155762-0.0854187,0.4222412-0.2383728,0.5751953
	c-4.0734863,4.0734711-17.7860413,17.786026-21.8595276,21.860321c-0.1529541,0.1521454-0.3595886,0.2383728-0.576004,0.2383728
	c-0.2155914,0-0.422226-0.0862274-0.5751801-0.2383728L14.1481476,41.0795135
	c-0.1521301-0.1529541-0.2383728-0.3595886-0.2383728-0.576004c0-0.2155914,0.0862427-0.422226,0.2383728-0.5751801
	l0.5751801-0.5751953l9.7798004,9.7798004C24.9611664,49.5909729,25.5819092,49.848053,26.2286835,49.848053L26.2286835,49.848053z
	 M26.2290955,43.6188354c-0.2082672,0-0.4165497-0.0795135-0.575592-0.2385712l-2.8344421-2.8352661
	c0.9779053-0.732193,2.1730194-1.1340942,3.4096222-1.1340942c1.236618,0,2.4325409,0.4019012,3.4104462,1.1340942
	l-2.8344421,2.8352661C26.6456451,43.5393219,26.4373627,43.6188354,26.2290955,43.6188354L26.2290955,43.6188354z"/>
<path class="st5" d="M36.5836792,7.2986755c0.5718079,0,1.1092529,0.2227478,1.5134888,0.6273193l11.1682434,11.16745
	l0.3378601,0.3378601c0.4040833,0.4040833,0.6266174,0.9415588,0.6266174,1.5134277s-0.2225342,1.1093445-0.6266174,1.5134277
	l-0.5759888,0.5760193c-0.117157,0.117157-0.117157,0.3070984,0,0.4242554l0.5753479,0.5753479
	c0.4043579,0.4036865,0.6270447,0.9410706,0.6270447,1.5132446c0,0.571991-0.2224426,1.1094666-0.6262512,1.5133057
	l-0.5759888,0.5751648c-0.1172485,0.1170654-0.1174011,0.3070068-0.0003052,0.4242554l0.5755005,0.576355
	c0.4043884,0.4036865,0.6271057,0.9411011,0.6271057,1.5132446c0,0.5636597-0.2283325,1.1152802-0.6264648,1.5134277
	L27.7429199,53.5231171c-0.4044647,0.4044952-0.9422302,0.627243-1.5142212,0.627243
	c-0.5714722,0-1.1089478-0.2227478-1.5134277-0.627243L13.2099152,42.017746
	c-0.40448-0.4044647-0.627243-0.9422302-0.627243-1.5142212c0-0.5714722,0.2227631-1.1089478,0.627243-1.513443l0.5751801-0.5751801
	c0.117157-0.1171417,0.117157-0.3070984,0.0000153-0.4242554l-0.5751953-0.5752106
	c-0.40448-0.4044647-0.627243-0.9419403-0.627243-1.5134125c0-0.5719757,0.2227631-1.1097412,0.627243-1.5142365
	l0.5751801-0.5751953c0.117157-0.117157,0.117157-0.3070984,0-0.4242554l-0.5752716-0.5752716
	c-0.4044189-0.4040833-0.6271515-0.9415436-0.6271515-1.5133362s0.2227173-1.1092682,0.6272278-1.513443L35.070343,7.9258423
	C35.4744263,7.5214233,36.0118713,7.2986755,36.5836792,7.2986755 M36.5836792,13.1335449
	c1.2860413,0,2.5610352-0.4239807,3.5901489-1.1938477c0.0696716-0.0521545,0.1132813-0.131958,0.1195068-0.2187805
	s-0.0255432-0.1720276-0.0870972-0.2335815l-2.8349609-2.8349915c-0.210144-0.2106934-0.4898682-0.3267517-0.7875977-0.3267517
	s-0.5774536,0.1160583-0.787323,0.3264771l-2.8352661,2.8352661c-0.061554,0.061554-0.0933228,0.146759-0.0870972,0.2335815
	s0.0498352,0.166626,0.1195374,0.2187805C34.022644,12.7095642,35.2976685,13.1335449,36.5836792,13.1335449 M21.6589966,39.6856842
	c0.0659943,0,0.1322479-0.021698,0.1872711-0.0657043c1.2388763-0.9906311,2.7952423-1.5361938,4.3824158-1.5361938
	c1.5876923,0,3.1443634,0.5455627,4.3832397,1.5361938c0.0550385,0.0440063,0.1212616,0.0657043,0.1872711,0.0657043
	c0.0771484,0,0.1539612-0.0296326,0.2122192-0.0878754l13.8703613-13.8703613
	c0.1080627-0.1080627,0.1176147-0.2801208,0.0221863-0.3994751c-0.9906311-1.2388916-1.5362244-2.7955627-1.5362244-4.3832397
	c0-1.5871582,0.5455933-3.1435242,1.5362244-4.3824158c0.0954285-0.1193542,0.085907-0.2913818-0.0221558-0.3994751
	l-3.5154114-3.5161743c-0.0582581-0.0582581-0.1350708-0.0878906-0.2122192-0.0878906
	c-0.0660095,0-0.1322632,0.021698-0.1872864,0.0657043c-1.2388611,0.9906006-2.7955322,1.5361938-4.3832092,1.5361938
	c-1.5869141,0-3.1436157-0.5455933-4.3833008-1.5362549c-0.0550537-0.0439758-0.1212463-0.0656433-0.1872253-0.0656433
	c-0.0771179,0-0.1539612,0.0296326-0.2121887,0.0878601L17.930603,26.5170288
	c-0.1080475,0.1080627-0.11763,0.2800293-0.0222321,0.3994141c0.9906616,1.2397156,1.5362549,2.7963867,1.5362549,4.3832703
	c0,1.5868378-0.5453033,3.1432495-1.5354614,4.3825073c-0.0953674,0.1193542-0.0858002,0.2913208,0.0222168,0.3993683
	l3.5153809,3.5162048C21.5050049,39.6560516,21.5818329,39.6856842,21.6589966,39.6856842 M45.8297729,24.6551819
	c0.0792847,0,0.1557007-0.0314331,0.2121582-0.0879211l2.834137-2.8349304
	c0.2105103-0.2099609,0.3265381-0.4892883,0.3267212-0.7865601c0.0002136-0.2976685-0.1157227-0.5776672-0.326416-0.7883301
	l-2.8344421-2.8352356c-0.0564575-0.056488-0.1328735-0.0878906-0.2121582-0.0878906
	c-0.0070801,0-0.0142212,0.0002441-0.0213623,0.0007629c-0.0867615,0.0061646-0.1665955,0.0497437-0.21875,0.1193848
	c-0.7704773,1.028717-1.1947937,2.303772-1.1947937,3.590271s0.4243164,2.561554,1.1947937,3.590271
	c0.0521545,0.0696411,0.131958,0.1132202,0.21875,0.1194153C45.8155518,24.6549072,45.8226624,24.6551819,45.8297729,24.6551819
	 M26.2290955,44.9457397c-0.5717163,0-1.1093292-0.2227478-1.5138397-0.627243l-9.7798004-9.7789917
	c-0.0585938-0.0585785-0.1353607-0.0878601-0.2121277-0.0878601c-0.0767822,0-0.1535492,0.0292969-0.2121277,0.0878754
	l-0.5751953,0.5751801c-0.2103729,0.2104034-0.3262329,0.4900208-0.3262329,0.787323
	c0,0.2962189,0.1156616,0.5756073,0.3262482,0.7873077L25.441925,48.1952515
	c0.2111511,0.210022,0.4905548,0.3256836,0.7867584,0.3256836c0.2967377,0,0.5764313-0.1156616,0.7881317-0.3262482
	l10.7536316-10.7540283l11.1053467-11.1057281c0.2076721-0.2065735,0.3267822-0.4937744,0.3267822-0.7879028
	s-0.1191101-0.5812683-0.3262329-0.7872925l-0.5751953-0.5751953c-0.0585938-0.0585938-0.1353455-0.0878601-0.2121277-0.0878601
	s-0.1535645,0.0292664-0.2121277,0.0878601L27.7429352,44.3184967
	C27.3384399,44.7229919,26.8008118,44.9457397,26.2290955,44.9457397 M16.9833832,35.0101624
	c0.0071411,0,0.0142975-0.0002594,0.0214691-0.0007782c0.086792-0.0062103,0.166626-0.0498199,0.21875-0.1195221
	c0.7699127-1.029068,1.1939087-2.3040924,1.1939087-3.5901489c0-1.2860718-0.423996-2.5610657-1.1939087-3.5901489
	c-0.052124-0.0696716-0.131958-0.1132813-0.2187653-0.1195068c-0.0071716-0.0005188-0.0143127-0.0007629-0.0214539-0.0007629
	c-0.0792542,0-0.1556549,0.0314026-0.2121124,0.0878601l-2.8349762,2.8349915
	c-0.2106781,0.210144-0.3267212,0.4898376-0.3267212,0.7875671c0,0.2977448,0.1160278,0.5774384,0.3264465,0.787323
	l2.8352509,2.8352509C16.8277283,34.9787445,16.904129,35.0101624,16.9833832,35.0101624 M26.2286835,49.5480499
	c-0.5714569,0-1.1089325-0.2227478-1.5134277-0.627243l-9.7798004-9.7798004
	c-0.0562592-0.0562592-0.1325684-0.0878754-0.2121277-0.0878754c-0.0795746,0-0.1558685,0.0316162-0.2121277,0.0878754
	l-0.5757599,0.5757751c-0.2100067,0.2111511-0.3256683,0.4905396-0.3256683,0.7867279
	c0,0.2967224,0.1156616,0.5764008,0.3262482,0.7881317L25.441925,52.7975616
	c0.2111511,0.210022,0.4905548,0.3256836,0.7867584,0.3256836c0.2967377,0,0.5764313-0.1156616,0.7881622-0.3262634
	L48.8763428,30.936676c0.2103882-0.2103882,0.3262329-0.4899902,0.3262329-0.787323
	c0-0.2941284-0.1191101-0.5813293-0.3262329-0.787323l-0.5751953-0.5751953
	c-0.0585938-0.0585632-0.1353455-0.0878601-0.2121277-0.0878601s-0.1535645,0.0292969-0.2121277,0.0878601L27.7429352,48.9208069
	C27.3384552,49.3253021,26.8006744,49.5480499,26.2286835,49.5480499 M26.2290955,43.9188385
	c0.2974701,0,0.5772247-0.1159363,0.7877502-0.3264771l2.8344421-2.8352661
	c0.0615082-0.0615234,0.093277-0.1467285,0.0870819-0.2335052c-0.0062103-0.0867767-0.0497894-0.1665955-0.1194305-0.21875
	c-1.0283051-0.7699127-2.3033447-1.1939392-3.5902557-1.1939392c-1.286377,0-2.5611115,0.4240265-3.5894318,1.1939392
	c-0.0696411,0.0521545-0.1132202,0.1319733-0.1194305,0.21875c-0.0061951,0.0867767,0.0255737,0.1719818,0.0870819,0.2335052
	l2.8344727,2.8352966C25.6518707,43.8029022,25.9316254,43.9188385,26.2290955,43.9188385 M36.5836792,6.9986877
	c-0.6246338,0-1.2492371,0.2383728-1.7255554,0.7151184L12.9977722,29.5741577h0.0000153
	c-0.9534912,0.9526978-0.9534912,2.4984436,0,3.4511261l0.5751801,0.5751801l-0.5751801,0.5751953
	c-0.4580383,0.4580383-0.7151184,1.0787811-0.7151184,1.7263641c0,0.6467896,0.2570801,1.2675323,0.7151184,1.7255554
	l0.5751801,0.5751953l-0.5751801,0.5751801c-0.4580383,0.4580383-0.7151184,1.0787811-0.7151184,1.7255707
	c0,0.647583,0.2570801,1.2683411,0.7151184,1.7263641l11.5053558,11.5053558
	c0.4580231,0.4580383,1.0787659,0.7151184,1.7255554,0.7151184c0.647583,0,1.2683411-0.2570801,1.7263641-0.7151184
	l21.8603363-21.8603363c0.4572144-0.4572296,0.714325-1.0787964,0.714325-1.7255554
	c0-0.6476135-0.2571106-1.2683411-0.7151489-1.7255554l-0.5751648-0.5760193l0.5759888-0.5751648
	c0.4572144-0.4572449,0.7142944-1.0779724,0.7142944-1.7255859c0-0.647583-0.2570801-1.2683105-0.7151184-1.7255554
	l-0.5751648-0.5751648l0.5759888-0.5760193c0.9526672-0.9526672,0.9526672-2.4984436,0-3.4511108
	C48.4518738,17.8556519,39.67276,9.0765381,38.3092346,7.7138062C37.8328857,7.2370605,37.2082825,6.9986877,36.5836792,6.9986877
	L36.5836792,6.9986877z M36.5836792,12.8335571c-1.2366028,0-2.4317322-0.4019165-3.4104614-1.1340942l2.8352661-2.8352661
	c0.1586304-0.1590576,0.3669128-0.2385864,0.5751953-0.2385864s0.4165649,0.0795288,0.5751953,0.2385864l2.8352356,2.8352661
	C39.0154114,12.4316406,37.820282,12.8335571,36.5836792,12.8335571L36.5836792,12.8335571z M36.5836792,14.4606628
	c1.6686096,0,3.2794495-0.5694885,4.5705566-1.6018982l3.5154114,3.5162048
	c-1.0324097,1.2911377-1.6018982,2.9011536-1.6018982,4.5697632c0,1.6694336,0.5694885,3.2794495,1.6018982,4.5705872
	L30.7992706,39.3856812c-1.2911224-1.0324097-2.9011536-1.6018982-4.5705872-1.6018982
	c-1.6686096,0-3.2786407,0.5694885-4.5697632,1.6018982l-3.5153809-3.5162048
	c1.0315857-1.2911072,1.6010895-2.9011383,1.6010895-4.5697632c0-1.6686096-0.5695038-3.2786255-1.6018982-4.5705566
	L32.013092,12.8587646C33.3050232,13.8911743,34.9150696,14.4606628,36.5836792,14.4606628L36.5836792,14.4606628z
	 M45.8297729,24.3551636c-0.7330017-0.9786987-1.1349182-2.1738281-1.1349182-3.4104309s0.4019165-2.4317322,1.1349182-3.4104309
	l2.8344421,2.8352356c0.3181152,0.3181152,0.3181152,0.8330994,0,1.1503906L45.8297729,24.3551636L45.8297729,24.3551636z
	 M26.2290955,45.2457428c0.6246033,0,1.2492218-0.2383728,1.7259674-0.7151184l20.1339569-20.1339569l0.5751953,0.5751953
	c0.1529541,0.1521301,0.2383728,0.3595886,0.2383728,0.5751648c0,0.2156067-0.0854187,0.4230652-0.2383728,0.5751953
	c-4.0734863,4.0734863-17.7860413,17.78685-21.8595276,21.8603363c-0.1529541,0.1521454-0.3595886,0.2383728-0.576004,0.2383728
	c-0.2155914,0-0.422226-0.0862274-0.5751801-0.2383728L14.1481476,36.4772034
	c-0.1521301-0.1529388-0.2383728-0.3595886-0.2383728-0.5751801c0-0.2164001,0.0862427-0.4230499,0.2383728-0.5751953
	l0.5751801-0.5751801c0,0,8.4170837,8.416275,9.7798004,9.7789764C24.9798737,45.00737,25.6044769,45.2457428,26.2290955,45.2457428
	L26.2290955,45.2457428z M16.9833984,34.7101593l-2.8352509-2.8352509c-0.3181-0.3172913-0.3181-0.8330841,0-1.1503601
	l2.8352509-2.8352661c0.7322083,0.9786987,1.1341095,2.1738281,1.1341095,3.4104309
	C18.1175079,32.5363312,17.7156067,33.7314453,16.9833984,34.7101593L16.9833984,34.7101593z M26.2286835,49.848053
	c0.6475983,0,1.2683411-0.2570801,1.7263794-0.7151184l20.1339569-20.1339722l0.5751953,0.5751953
	c0.1529541,0.1521301,0.2383728,0.3595886,0.2383728,0.5751953c0,0.2155762-0.0854187,0.4222412-0.2383728,0.5751953
	c-4.0734863,4.0734711-17.7860413,17.786026-21.8595276,21.860321c-0.1529541,0.1521454-0.3595886,0.2383728-0.576004,0.2383728
	c-0.2155914,0-0.422226-0.0862274-0.5751801-0.2383728L14.1481476,41.0795135
	c-0.1521301-0.1529541-0.2383728-0.3595886-0.2383728-0.576004c0-0.2155914,0.0862427-0.422226,0.2383728-0.5751801
	l0.5751801-0.5751953l9.7798004,9.7798004C24.9611664,49.5909729,25.5819092,49.848053,26.2286835,49.848053L26.2286835,49.848053z
	 M26.2290955,43.6188354c-0.2082672,0-0.4165497-0.0795135-0.575592-0.2385712l-2.8344421-2.8352661
	c0.9779053-0.732193,2.1730194-1.1340942,3.4096222-1.1340942c1.236618,0,2.4325409,0.4019012,3.4104462,1.1340942
	l-2.8344421,2.8352661C26.6456451,43.5393219,26.4373627,43.6188354,26.2290955,43.6188354L26.2290955,43.6188354z"/>
<path class="st0" d="M32.9511719,31.5834961c-1.6259766-0.0214844-3.4145508-0.8520508-4.784668-2.2216797
	c-1.3696289-1.3701172-2.2001953-3.1586914-2.2211914-4.7841797c-0.0151367-1.1450195,0.3549805-2.1289063,1.0712891-2.8457031
	c0.7011719-0.7006836,1.6616211-1.0712891,2.777832-1.0712891c1.6928711,0.0214844,3.4819336,0.8520508,4.8520508,2.222168
	s2.2001953,3.1586914,2.2207031,4.7841797c0.015625,1.1445313-0.3544922,2.1279297-1.0703125,2.8452148
	c-0.7011719,0.7006836-1.6630859,1.0717773-2.7802734,1.0717773L32.9511719,31.5834961z M29.7958984,21.6879883
	c-0.8398438,0-1.5498047,0.2666016-2.0537109,0.7705078c-0.5151367,0.5151367-0.78125,1.2431641-0.7695313,2.105957
	c0.0175781,1.3847656,0.7177734,2.8686523,1.9208984,4.0712891c1.2026367,1.2026367,2.6865234,1.902832,4.0703125,1.9204102
	c0.0009766,0,0.0009766,0,0.0019531,0c0.890625,0,1.6005859-0.2661133,2.1044922-0.7695313
	c0.5146484-0.5151367,0.78125-1.2436523,0.7695313-2.1069336c-0.0166016-1.3842773-0.7167969-2.8681641-1.9208984-4.0708008
	c-1.2021484-1.2026367-2.6860352-1.902832-4.0703125-1.9204102C29.847168,21.6884766,29.796875,21.6879883,29.7958984,21.6879883z"
	/>
<path class="st1" d="M29.7947845,20.9608154l0.0631256,0.0004272c1.5493164,0.02005,3.2599182,0.817627,4.5758667,2.1335754
	c1.3159485,1.315979,2.1135254,3.0265503,2.1335449,4.5761108c0.0142212,1.062439-0.3257751,1.9715271-0.9832458,2.6289673
	c-0.6435547,0.6435242-1.5308838,0.9836731-2.5661621,0.9836731l-0.0630798-0.000412
	c-1.5492859-0.02005-3.2598877-0.8176422-4.5758362-2.1335602c-1.3159332-1.3159485-2.1135406-3.0265503-2.1335602-4.5761108
	c-0.0142212-1.0624084,0.3257751-1.9714966,0.9832611-2.6289673C27.8722229,21.3009949,28.7595673,20.9608154,29.7947845,20.9608154
	 M33.016449,30.8566589c0.92099,0,1.7045593-0.296814,2.2660522-0.8583069
	c0.5737305-0.5737,0.8704224-1.3768311,0.8579712-2.3223877c-0.0188599-1.4617004-0.7510071-3.0213928-2.008728-4.2791138
	c-1.2576904-1.2577209-2.8173828-1.9898682-4.2791443-2.008728c-0.0025787-0.0000305-0.053772-0.0003662-0.0563507-0.0003662
	c-0.9209595,0.0000305-1.7045288,0.2968445-2.2659912,0.8583374c-0.5737305,0.5737-0.8704224,1.3768005-0.8579712,2.3223572
	c0.0188599,1.461731,0.7510223,3.0214233,2.008728,4.2791443c1.2577515,1.2576904,2.8174286,1.9898376,4.279129,2.0086975
	C32.9627075,30.8563232,33.013855,30.8566589,33.016449,30.8566589 M29.7947845,20.3608398
	c-1.1670685,0-2.2189484,0.3880005-2.9903564,1.1594238c-0.786972,0.7869568-1.174942,1.8659363-1.1589508,3.0612488
	c0.0210571,1.6283569,0.8088379,3.4919128,2.3092651,4.9923401c1.5004272,1.500412,3.3639526,2.2881927,4.9923401,2.3092499
	c0.0236511,0.0003204,0.0473022,0.000473,0.0708313,0.000473c1.1670837,0,2.2189941-0.3880005,2.9904175-1.1594238
	c0.7869873-0.7869568,1.1749268-1.8659363,1.1589355-3.0612488c-0.0210266-1.6283875-0.8088074-3.4919128-2.3092346-4.9923401
	s-3.3639832-2.288208-4.9923553-2.3092651C29.842041,20.3609924,29.8183289,20.3608398,29.7947845,20.3608398L29.7947845,20.3608398
	z M33.016449,30.2566833c-0.0161743,0-0.0323181-0.0001221-0.0485535-0.0003357
	c-1.2658386-0.0163269-2.6964111-0.6668701-3.8626099-1.8330383c-1.1661987-1.1661987-1.8167114-2.5968018-1.8330536-3.8626099
	c-0.0096588-0.7345276,0.1990509-1.407135,0.6822815-1.8903503c0.4725189-0.4725342,1.1262512-0.6825867,1.8417511-0.6825867
	c0.0162048,0,0.0323181,0.0000916,0.0485992,0.0003052c1.2658234,0.0163269,2.6964264,0.6668396,3.8625946,1.8330383
	c1.1661987,1.1661987,1.8167419,2.5967712,1.8330688,3.8626099c0.0096741,0.7345276-0.1990356,1.407135-0.6822815,1.8903503
	C34.3857117,30.0466309,33.7320251,30.2566833,33.016449,30.2566833L33.016449,30.2566833z"/>
<path class="st2" d="M29.7947845,20.6608276l0.0670013,0.0004578c1.6257019,0.0209961,3.4141541,0.8514404,4.7841187,2.221405
	c1.3699646,1.3699951,2.2004089,3.1584167,2.2213745,4.7842407c0.0153503,1.1452637-0.3550415,2.1290588-1.0710754,2.8450928
	c-0.7010193,0.701004-1.6617432,1.0715485-2.7782898,1.0715485l-0.0669556-0.0004425
	c-1.6256714-0.0210266-3.4141235-0.8514709-4.7840881-2.221405c-1.3699646-1.3699646-2.2003937-3.1584167-2.2214203-4.7842407
	c-0.0153351-1.1452332,0.3550568-2.1290588,1.071106-2.8450928C27.7175751,21.0313721,28.6782684,20.6608276,29.7947845,20.6608276
	 M33.016449,30.5566711c0.8396912,0,1.5499268-0.2664185,2.0539246-0.7704773
	c0.5151672-0.5151367,0.7814941-1.2435303,0.7701416-2.1063538c-0.0178528-1.3841858-0.7180176-2.8679504-1.920929-4.0708618
	c-1.2028503-1.2029114-2.6866455-1.9030457-4.0708466-1.9208984c-0.001297,0-0.0511932-0.0003357-0.0524902-0.0003357
	c-0.8396454,0.0000305-1.5498657,0.266449-2.0538635,0.7704773c-0.5151672,0.5151367-0.7814789,1.2435303-0.7701263,2.1063538
	c0.017868,1.3842163,0.7180023,2.867981,1.9208984,4.0708618c1.2029114,1.2028809,2.6867065,1.9030457,4.0708618,1.9208984
	C32.9653015,30.5563354,33.0151672,30.5566711,33.016449,30.5566711 M29.7947845,20.3608398
	c-1.1670685,0-2.2189484,0.3880005-2.9903564,1.1594238c-0.786972,0.7869568-1.174942,1.8659363-1.1589508,3.0612488
	c0.0210571,1.6283569,0.8088379,3.4919128,2.3092651,4.9923401c1.5004272,1.500412,3.3639526,2.2881927,4.9923401,2.3092499
	c0.0236511,0.0003204,0.0473022,0.000473,0.0708313,0.000473c1.1670837,0,2.2189941-0.3880005,2.9904175-1.1594238
	c0.7869873-0.7869568,1.1749268-1.8659363,1.1589355-3.0612488c-0.0210266-1.6283875-0.8088074-3.4919128-2.3092346-4.9923401
	s-3.3639832-2.288208-4.9923553-2.3092651C29.842041,20.3609924,29.8183289,20.3608398,29.7947845,20.3608398L29.7947845,20.3608398
	z M33.016449,30.2566833c-0.0161743,0-0.0323181-0.0001221-0.0485535-0.0003357
	c-1.2658386-0.0163269-2.6964111-0.6668701-3.8626099-1.8330383c-1.1661987-1.1661987-1.8167114-2.5968018-1.8330536-3.8626099
	c-0.0096588-0.7345276,0.1990509-1.407135,0.6822815-1.8903503c0.4725189-0.4725342,1.1262512-0.6825867,1.8417511-0.6825867
	c0.0162048,0,0.0323181,0.0000916,0.0485992,0.0003052c1.2658234,0.0163269,2.6964264,0.6668396,3.8625946,1.8330383
	c1.1661987,1.1661987,1.8167419,2.5967712,1.8330688,3.8626099c0.0096741,0.7345276-0.1990356,1.407135-0.6822815,1.8903503
	C34.3857117,30.0466309,33.7320251,30.2566833,33.016449,30.2566833L33.016449,30.2566833z"/>
</svg>
