<svg width="62" height="62" viewBox="0 0 62 62" fill="none" xmlns="http://www.w3.org/2000/svg">
<path d="M48.4125 32.8655C47.9726 32.8655 47.616 33.2221 47.616 33.662C47.616 34.2198 47.1623 34.6735 46.6045 34.6735C46.0469 34.6735 45.5931 34.2198 45.5931 33.662C45.5931 33.222 45.2365 32.8655 44.7966 32.8655C44.3566 32.8655 44 33.2221 44 33.662C44 35.0982 45.1685 36.2666 46.6045 36.2666C48.0406 36.2666 49.2091 35.0981 49.2091 33.662C49.2091 33.2219 48.8525 32.8655 48.4125 32.8655Z" fill="white"/>
<path fill-rule="evenodd" clip-rule="evenodd" d="M48.4125 33.4655C48.304 33.4655 48.216 33.5535 48.216 33.662C48.216 34.5511 47.4936 35.2735 46.6045 35.2735C45.7156 35.2735 44.9931 34.5512 44.9931 33.662C44.9931 33.5534 44.9052 33.4655 44.7966 33.4655C44.688 33.4655 44.6 33.5535 44.6 33.662C44.6 34.7668 45.4998 35.6666 46.6045 35.6666C47.7092 35.6666 48.6091 34.7667 48.6091 33.662C48.6091 33.5534 48.5212 33.4655 48.4125 33.4655ZM47.616 33.662C47.616 33.2221 47.9726 32.8655 48.4125 32.8655C48.8525 32.8655 49.2091 33.2219 49.2091 33.662C49.2091 35.0981 48.0406 36.2666 46.6045 36.2666C45.1685 36.2666 44 35.0982 44 33.662C44 33.2221 44.3566 32.8655 44.7966 32.8655C45.2365 32.8655 45.5931 33.222 45.5931 33.662C45.5931 34.2198 46.0469 34.6735 46.6045 34.6735C47.1623 34.6735 47.616 34.2198 47.616 33.662Z" fill="#FFEC4A"/>
<path fill-rule="evenodd" clip-rule="evenodd" d="M48.4125 33.1655C48.1383 33.1655 47.916 33.3878 47.916 33.662C47.916 34.3854 47.328 34.9735 46.6045 34.9735C45.8813 34.9735 45.2931 34.3855 45.2931 33.662C45.2931 33.3877 45.0708 33.1655 44.7966 33.1655C44.5223 33.1655 44.3 33.3878 44.3 33.662C44.3 34.9325 45.3342 35.9666 46.6045 35.9666C47.8749 35.9666 48.9091 34.9324 48.9091 33.662C48.9091 33.3876 48.6868 33.1655 48.4125 33.1655ZM47.616 33.662C47.616 33.2221 47.9726 32.8655 48.4125 32.8655C48.8525 32.8655 49.2091 33.2219 49.2091 33.662C49.2091 35.0981 48.0406 36.2666 46.6045 36.2666C45.1685 36.2666 44 35.0982 44 33.662C44 33.2221 44.3566 32.8655 44.7966 32.8655C45.2365 32.8655 45.5931 33.222 45.5931 33.662C45.5931 34.2198 46.0469 34.6735 46.6045 34.6735C47.1623 34.6735 47.616 34.2198 47.616 33.662Z" fill="#FFC400"/>
<path d="M55.6452 32.9956L53.4031 32.2774C53.116 32.1854 52.8897 31.9561 52.7978 31.6642C52.3253 30.1618 51.6123 28.7514 50.6784 27.472C50.2528 26.8888 49.7796 26.3319 49.2626 25.8018C49.5933 24.3508 49.7732 22.7086 49.7499 21.2898C49.7165 19.2602 49.3109 18.0698 48.51 17.6503C48.0786 17.4241 46.7658 16.7369 39.6601 19.9896C39.4918 20.0666 39.3347 20.1614 39.1892 20.27C38.7101 20.1413 38.2205 20.0222 37.7279 19.9153C37.6685 19.9024 37.6074 19.891 37.5476 19.8783C38.1234 18.6205 38.4596 17.2543 38.5228 15.844C38.5425 15.4044 38.2022 15.0322 37.7626 15.0126C37.3242 14.9908 36.9508 15.3331 36.9312 15.7727C36.8274 18.0916 35.8654 20.2735 34.2227 21.9163C33.2412 22.8978 32.092 23.6107 30.8672 24.0598C28.7431 23.7617 26.5795 23.7617 24.4554 24.0598C23.2304 23.6107 22.0813 22.8978 21.0998 21.9163C19.3472 20.1637 18.3819 17.8334 18.3819 15.3548C18.3819 12.8761 19.3472 10.546 21.0998 8.79337C22.8524 7.04065 25.1828 6.0754 27.6613 6.0754C30.1398 6.0754 32.4701 7.04065 34.2227 8.79337C34.927 9.49767 35.509 10.3014 35.9526 11.182C36.1505 11.575 36.6295 11.7332 37.0224 11.5352C37.4154 11.3374 37.5735 10.8584 37.3756 10.4655C36.8557 9.43288 36.174 8.49136 35.3494 7.66669C33.2959 5.61314 30.5655 4.48218 27.6614 4.48218C24.7573 4.48218 22.0269 5.61314 19.9733 7.66669C17.9198 9.72035 16.7888 12.4506 16.7888 15.3547C16.7888 18.2588 17.9198 20.9892 19.9733 23.0428C20.5657 23.6351 21.2101 24.1445 21.8918 24.5713C21.3965 24.7 20.9056 24.8444 20.4195 25.0069C20.0022 25.1465 19.7771 25.5977 19.9166 26.0151C20.056 26.4323 20.5074 26.6575 20.9246 26.5181C25.2688 25.0657 30.0539 25.0657 34.3982 26.5181C34.482 26.5461 34.5671 26.5593 34.6508 26.5593C34.984 26.5593 35.2947 26.3485 35.4062 26.0151C35.5457 25.5978 35.3205 25.1465 34.9033 25.0069C34.4172 24.8444 33.9256 24.6998 33.4303 24.5712C34.1121 24.1444 34.757 23.6351 35.3494 23.0428C35.8735 22.5187 36.336 21.9464 36.7377 21.3382C36.9573 21.3809 37.1753 21.4256 37.39 21.4722C37.6761 21.5343 37.9609 21.601 38.2431 21.671C38.2343 21.7057 38.2252 21.7402 38.2178 21.7754C37.8293 23.619 37.8545 25.2495 38.2927 26.6214C38.6866 27.8546 39.3974 28.8536 40.4052 29.591C41.593 30.4599 43.0271 30.8352 44.3261 30.8352C45.3037 30.8352 46.2051 30.6225 46.867 30.2476C47.6158 29.8235 48.2431 28.9299 48.7397 27.5882C48.9692 27.8561 49.1868 28.1305 49.3918 28.4115C50.2232 29.5504 50.8579 30.8057 51.2783 32.1423C51.5251 32.9273 52.1379 33.545 52.9174 33.7948L55.1594 34.513C55.7477 34.7015 56.1429 35.243 56.1429 35.8607V39.5783C56.1429 40.196 55.7477 40.7375 55.1594 40.926L51.5472 42.083C50.9692 42.2683 50.4801 42.6654 50.17 43.2015C48.7508 45.6541 46.5196 47.6837 43.5379 49.234C43.1934 49.4132 42.9548 49.7339 42.883 50.1138L41.726 56.2398C41.6941 56.4086 41.5462 56.531 41.3744 56.531H37.6127C37.4409 56.531 37.2931 56.4085 37.2611 56.2398L36.6203 52.8542C36.4942 52.1881 35.8694 51.7456 35.197 51.8475C33.5766 52.0925 31.9069 52.2166 30.2346 52.2166C28.9904 52.2166 27.7622 52.1473 26.5838 52.0103C25.9322 51.9354 25.3252 52.3796 25.2034 53.0229L24.5945 56.2398C24.5625 56.4086 24.4146 56.531 24.2428 56.531H20.4811C20.3094 56.531 20.1615 56.4085 20.1291 56.2373L19.0151 50.4513C18.9434 50.0785 18.7093 49.7615 18.3724 49.5816C13.2897 46.8682 10.6031 42.335 10.6031 36.4723C10.6031 33.5101 11.2512 30.8908 12.5293 28.6869C13.7219 26.6301 15.4638 24.9295 17.7066 23.6322C18.0874 23.4119 18.2175 22.9246 17.9973 22.5437C17.7771 22.1629 17.2898 22.033 16.9089 22.253C12.5601 24.7688 9.93713 28.6499 9.21498 33.5793C9.13832 33.5724 9.06157 33.5656 8.98513 33.5577C8.99903 33.0258 8.90281 32.4892 8.69327 31.9683C8.23112 30.8195 7.2818 29.9904 6.27464 29.856C5.48097 29.7497 4.72568 30.0867 4.20152 30.7792C3.44152 31.7835 3.56543 32.5782 3.80308 33.0681C4.2043 33.8948 5.23562 34.4796 6.94707 34.8472C6.90004 34.9177 6.84829 34.9884 6.79163 35.0595C5.78041 36.3277 4.58905 36.6082 3.81548 36.6346C3.36262 36.6499 3 37.0134 3 37.4666V37.4705C3 37.9174 3.35268 38.282 3.79923 38.3024C3.85642 38.3051 3.91618 38.3065 3.9784 38.3065C4.95723 38.3065 6.52822 37.9454 8.03751 36.0529C8.27581 35.7542 8.46995 35.439 8.61919 35.1134C8.7695 35.1304 8.91393 35.1449 9.05226 35.1578C9.02511 35.5895 9.01014 36.0266 9.01014 36.4723C9.01014 39.7894 9.80093 42.7469 11.3604 45.2632C12.7982 47.583 14.8569 49.4825 17.4813 50.911L18.5642 56.536C18.7384 57.4562 19.5445 58.1242 20.4811 58.1242H24.2428C25.1795 58.1242 25.9856 57.4562 26.1598 56.536L26.7103 53.6273C27.8538 53.7484 29.0377 53.8097 30.2345 53.8097C31.8766 53.8097 33.5167 53.6954 35.1152 53.4696L35.6956 56.5362C35.8698 57.4564 36.676 58.1243 37.6125 58.1243H41.3742C42.3108 58.1243 43.117 57.4563 43.2912 56.5357L44.4177 50.5714C47.6001 48.8886 49.9988 46.6779 51.5488 43.9993C51.6605 43.8062 51.8325 43.6646 52.033 43.6003L55.6452 42.4433C56.8957 42.0425 57.7358 40.8912 57.7358 39.5781V35.8605C57.7358 34.5474 56.8957 33.3962 55.6452 32.9956ZM48.0371 23.5283C47.7305 26.1503 46.9081 28.3932 46.0817 28.8612C45.1424 29.3933 42.9738 29.496 41.3457 28.305C39.7156 27.1126 39.173 24.9682 39.7765 22.1038C39.8371 21.8161 40.0415 21.5671 40.3232 21.4382C44.3112 19.6127 46.6105 19.0156 47.4646 19.0156C47.5936 19.0156 47.6896 19.0292 47.7535 19.0542C48.0101 19.3277 48.3466 20.8822 48.0371 23.5283ZM5.23658 32.3724C5.15415 32.2025 5.34872 31.9037 5.47209 31.7405C5.66762 31.4822 5.84776 31.4294 5.98385 31.4294C6.01261 31.4294 6.03944 31.4318 6.06403 31.4351C6.43029 31.4839 6.94344 31.887 7.2153 32.5627C7.27934 32.7218 7.36251 32.9853 7.38197 33.314C6.27923 33.0855 5.42249 32.7561 5.23658 32.3724Z" fill="white" stroke="#FFC400" stroke-width="0.6"/>
<path d="M55.6452 32.9956L53.4031 32.2774C53.116 32.1854 52.8897 31.9561 52.7978 31.6642C52.3253 30.1618 51.6123 28.7514 50.6784 27.472C50.2528 26.8888 49.7796 26.3319 49.2626 25.8018C49.5933 24.3508 49.7732 22.7086 49.7499 21.2898C49.7165 19.2602 49.3109 18.0698 48.51 17.6503C48.0786 17.4241 46.7658 16.7369 39.6601 19.9896C39.4918 20.0666 39.3347 20.1614 39.1892 20.27C38.7101 20.1413 38.2205 20.0222 37.7279 19.9153C37.6685 19.9024 37.6074 19.891 37.5476 19.8783C38.1234 18.6205 38.4596 17.2543 38.5228 15.844C38.5425 15.4044 38.2022 15.0322 37.7626 15.0126C37.3242 14.9908 36.9508 15.3331 36.9312 15.7727C36.8274 18.0916 35.8654 20.2735 34.2227 21.9163C33.2412 22.8978 32.092 23.6107 30.8672 24.0598C28.7431 23.7617 26.5795 23.7617 24.4554 24.0598C23.2304 23.6107 22.0813 22.8978 21.0998 21.9163C19.3472 20.1637 18.3819 17.8334 18.3819 15.3548C18.3819 12.8761 19.3472 10.546 21.0998 8.79337C22.8524 7.04065 25.1828 6.0754 27.6613 6.0754C30.1398 6.0754 32.4701 7.04065 34.2227 8.79337C34.927 9.49767 35.509 10.3014 35.9526 11.182C36.1505 11.575 36.6295 11.7332 37.0224 11.5352C37.4154 11.3374 37.5735 10.8584 37.3756 10.4655C36.8557 9.43288 36.174 8.49136 35.3494 7.66669C33.2959 5.61314 30.5655 4.48218 27.6614 4.48218C24.7573 4.48218 22.0269 5.61314 19.9733 7.66669C17.9198 9.72035 16.7888 12.4506 16.7888 15.3547C16.7888 18.2588 17.9198 20.9892 19.9733 23.0428C20.5657 23.6351 21.2101 24.1445 21.8918 24.5713C21.3965 24.7 20.9056 24.8444 20.4195 25.0069C20.0022 25.1465 19.7771 25.5977 19.9166 26.0151C20.056 26.4323 20.5074 26.6575 20.9246 26.5181C25.2688 25.0657 30.0539 25.0657 34.3982 26.5181C34.482 26.5461 34.5671 26.5593 34.6508 26.5593C34.984 26.5593 35.2947 26.3485 35.4062 26.0151C35.5457 25.5978 35.3205 25.1465 34.9033 25.0069C34.4172 24.8444 33.9256 24.6998 33.4303 24.5712C34.1121 24.1444 34.757 23.6351 35.3494 23.0428C35.8735 22.5187 36.336 21.9464 36.7377 21.3382C36.9573 21.3809 37.1753 21.4256 37.39 21.4722C37.6761 21.5343 37.9609 21.601 38.2431 21.671C38.2343 21.7057 38.2252 21.7402 38.2178 21.7754C37.8293 23.619 37.8545 25.2495 38.2927 26.6214C38.6866 27.8546 39.3974 28.8536 40.4052 29.591C41.593 30.4599 43.0271 30.8352 44.3261 30.8352C45.3037 30.8352 46.2051 30.6225 46.867 30.2476C47.6158 29.8235 48.2431 28.9299 48.7397 27.5882C48.9692 27.8561 49.1868 28.1305 49.3918 28.4115C50.2232 29.5504 50.8579 30.8057 51.2783 32.1423C51.5251 32.9273 52.1379 33.545 52.9174 33.7948L55.1594 34.513C55.7477 34.7015 56.1429 35.243 56.1429 35.8607V39.5783C56.1429 40.196 55.7477 40.7375 55.1594 40.926L51.5472 42.083C50.9692 42.2683 50.4801 42.6654 50.17 43.2015C48.7508 45.6541 46.5196 47.6837 43.5379 49.234C43.1934 49.4132 42.9548 49.7339 42.883 50.1138L41.726 56.2398C41.6941 56.4086 41.5462 56.531 41.3744 56.531H37.6127C37.4409 56.531 37.2931 56.4085 37.2611 56.2398L36.6203 52.8542C36.4942 52.1881 35.8694 51.7456 35.197 51.8475C33.5766 52.0925 31.9069 52.2166 30.2346 52.2166C28.9904 52.2166 27.7622 52.1473 26.5838 52.0103C25.9322 51.9354 25.3252 52.3796 25.2034 53.0229L24.5945 56.2398C24.5625 56.4086 24.4146 56.531 24.2428 56.531H20.4811C20.3094 56.531 20.1615 56.4085 20.1291 56.2373L19.0151 50.4513C18.9434 50.0785 18.7093 49.7615 18.3724 49.5816C13.2897 46.8682 10.6031 42.335 10.6031 36.4723C10.6031 33.5101 11.2512 30.8908 12.5293 28.6869C13.7219 26.6301 15.4638 24.9295 17.7066 23.6322C18.0874 23.4119 18.2175 22.9246 17.9973 22.5437C17.7771 22.1629 17.2898 22.033 16.9089 22.253C12.5601 24.7688 9.93713 28.6499 9.21498 33.5793C9.13832 33.5724 9.06157 33.5656 8.98513 33.5577C8.99903 33.0258 8.90281 32.4892 8.69327 31.9683C8.23112 30.8195 7.2818 29.9904 6.27464 29.856C5.48097 29.7497 4.72568 30.0867 4.20152 30.7792C3.44152 31.7835 3.56543 32.5782 3.80308 33.0681C4.2043 33.8948 5.23562 34.4796 6.94707 34.8472C6.90004 34.9177 6.84829 34.9884 6.79163 35.0595C5.78041 36.3277 4.58905 36.6082 3.81548 36.6346C3.36262 36.6499 3 37.0134 3 37.4666V37.4705C3 37.9174 3.35268 38.282 3.79923 38.3024C3.85642 38.3051 3.91618 38.3065 3.9784 38.3065C4.95723 38.3065 6.52822 37.9454 8.03751 36.0529C8.27581 35.7542 8.46995 35.439 8.61919 35.1134C8.7695 35.1304 8.91393 35.1449 9.05226 35.1578C9.02511 35.5895 9.01014 36.0266 9.01014 36.4723C9.01014 39.7894 9.80093 42.7469 11.3604 45.2632C12.7982 47.583 14.8569 49.4825 17.4813 50.911L18.5642 56.536C18.7384 57.4562 19.5445 58.1242 20.4811 58.1242H24.2428C25.1795 58.1242 25.9856 57.4562 26.1598 56.536L26.7103 53.6273C27.8538 53.7484 29.0377 53.8097 30.2345 53.8097C31.8766 53.8097 33.5167 53.6954 35.1152 53.4696L35.6956 56.5362C35.8698 57.4564 36.676 58.1243 37.6125 58.1243H41.3742C42.3108 58.1243 43.117 57.4563 43.2912 56.5357L44.4177 50.5714C47.6001 48.8886 49.9988 46.6779 51.5488 43.9993C51.6605 43.8062 51.8325 43.6646 52.033 43.6003L55.6452 42.4433C56.8957 42.0425 57.7358 40.8912 57.7358 39.5781V35.8605C57.7358 34.5474 56.8957 33.3962 55.6452 32.9956ZM48.0371 23.5283C47.7305 26.1503 46.9081 28.3932 46.0817 28.8612C45.1424 29.3933 42.9738 29.496 41.3457 28.305C39.7156 27.1126 39.173 24.9682 39.7765 22.1038C39.8371 21.8161 40.0415 21.5671 40.3232 21.4382C44.3112 19.6127 46.6105 19.0156 47.4646 19.0156C47.5936 19.0156 47.6896 19.0292 47.7535 19.0542C48.0101 19.3277 48.3466 20.8822 48.0371 23.5283ZM5.23658 32.3724C5.15415 32.2025 5.34872 31.9037 5.47209 31.7405C5.66762 31.4822 5.84776 31.4294 5.98385 31.4294C6.01261 31.4294 6.03944 31.4318 6.06403 31.4351C6.43029 31.4839 6.94344 31.887 7.2153 32.5627C7.27934 32.7218 7.36251 32.9853 7.38197 33.314C6.27923 33.0855 5.42249 32.7561 5.23658 32.3724Z" stroke="#FFEC4A" stroke-width="0.3"/>
<path fill-rule="evenodd" clip-rule="evenodd" d="M27.6208 9.91984C27.6208 9.53552 27.9787 9.29688 28.3281 9.29688C28.503 9.29688 28.671 9.35942 28.7986 9.4558C28.9214 9.54855 29.0495 9.70825 29.0495 9.91984V10.015C29.4811 10.0487 29.9582 10.131 30.3601 10.2747C30.6067 10.3629 30.8445 10.4811 31.0256 10.6411C31.2108 10.8047 31.3525 11.0281 31.3525 11.3103C31.3525 11.5006 31.2873 11.7545 31.1576 11.9669C31.0267 12.1813 30.7907 12.4107 30.4346 12.4107C30.2859 12.4107 30.1529 12.3613 30.0453 12.3134C29.9913 12.2893 29.9193 12.2535 29.8489 12.2185C29.7981 12.1932 29.7481 12.1683 29.7061 12.1485C29.5336 12.067 29.3251 11.9825 29.0495 11.9311V14.2336C29.6091 14.4474 30.2115 14.7207 30.6891 15.1622C31.2382 15.6697 31.6053 16.3821 31.6053 17.4188C31.6053 18.3453 31.3249 19.0933 30.8153 19.6387C30.3631 20.1227 29.7507 20.4256 29.0495 20.5652V20.7891C29.0495 21.0006 28.9215 21.1603 28.7987 21.2531C28.6711 21.3495 28.503 21.412 28.3281 21.412C27.9788 21.412 27.6208 21.1734 27.6208 20.7891V20.6405C26.8261 20.582 26.148 20.3437 25.6469 20.0261C25.3661 19.8482 25.1347 19.6415 24.9707 19.4209C24.8084 19.2025 24.7 18.9532 24.7 18.6967C24.7 18.4517 24.8023 18.1902 24.9506 17.9909C25.0959 17.7957 25.3358 17.5962 25.6459 17.5962C25.8675 17.5962 26.0468 17.7134 26.1774 17.813C26.2448 17.8645 26.3141 17.9234 26.3808 17.9802L26.3861 17.9847C26.4565 18.0446 26.5275 18.1049 26.6049 18.1655C26.8518 18.3589 27.1638 18.5556 27.6208 18.6479V15.903C27.0491 15.6975 26.4224 15.4527 25.9254 15.0551C25.3486 14.5937 24.9527 13.9333 24.9527 12.9391C24.9527 11.9686 25.3233 11.2647 25.8951 10.7911C26.3847 10.3857 27.0038 10.1635 27.6208 10.0643V9.91984ZM28.2208 9.93127V10.5971L27.9523 10.6254C27.3211 10.6919 26.7176 10.8891 26.2778 11.2533C25.8491 11.6083 25.5527 12.1402 25.5527 12.9391C25.5527 13.7424 25.8589 14.2335 26.3002 14.5866C26.7628 14.9567 27.3792 15.1805 28.0213 15.4088L28.2208 15.4797V19.316L27.8974 19.2906C27.105 19.2285 26.5974 18.9217 26.235 18.6379C26.1466 18.5687 26.0669 18.5009 25.9973 18.4416C25.9256 18.3807 25.8674 18.3312 25.8134 18.2901C25.6978 18.2018 25.6559 18.1962 25.6459 18.1962C25.6049 18.1962 25.5218 18.2284 25.4319 18.3492C25.345 18.4659 25.3 18.6047 25.3 18.6967C25.3 18.7842 25.339 18.9105 25.4523 19.063C25.5639 19.2132 25.7362 19.3724 25.968 19.5193C26.4309 19.8126 27.1066 20.0406 27.9257 20.0538L28.2208 20.0586V20.7776C28.2221 20.779 28.224 20.7807 28.2264 20.7828C28.2406 20.7945 28.2733 20.812 28.3281 20.812C28.364 20.812 28.4066 20.7973 28.437 20.7744C28.4422 20.7704 28.4463 20.7668 28.4495 20.7637V20.0504L28.7082 20.0145C29.4157 19.9162 29.9852 19.6484 30.3769 19.2291C30.766 18.8126 31.0053 18.2195 31.0053 17.4188C31.0053 16.5456 30.7053 15.9942 30.2819 15.6028C29.8436 15.1977 29.2558 14.9475 28.6459 14.7232L28.4495 14.6509V11.2689L28.7708 11.2919C29.31 11.3304 29.6838 11.4743 29.9625 11.606C30.037 11.6412 30.0918 11.6688 30.1398 11.693C30.1924 11.7195 30.2367 11.7418 30.2895 11.7653C30.3759 11.8038 30.4149 11.8107 30.4346 11.8107C30.4998 11.8107 30.5728 11.7733 30.6455 11.6542C30.7195 11.533 30.7525 11.3868 30.7525 11.3103C30.7525 11.2483 30.7257 11.1768 30.6283 11.0907C30.5268 11.0011 30.3679 10.9147 30.158 10.8397C29.7402 10.6902 29.1977 10.6125 28.7406 10.599L28.4495 10.5904V9.94528C28.4463 9.94216 28.4422 9.9385 28.437 9.93455C28.4065 9.91157 28.3639 9.89688 28.3281 9.89688C28.2733 9.89688 28.2405 9.9144 28.2264 9.92611C28.2239 9.92816 28.2221 9.92989 28.2208 9.93127ZM28.3051 11.2794V14.6088L27.8992 14.4556C27.5294 14.3161 27.1456 14.1568 26.8568 13.9096C26.5495 13.6465 26.357 13.2908 26.357 12.7988C26.357 12.345 26.5369 11.9876 26.8485 11.7379C27.1474 11.4984 27.5459 11.3742 27.9679 11.3215L28.3051 11.2794ZM27.2238 12.2061C27.0579 12.339 26.957 12.5224 26.957 12.7988C26.957 13.1072 27.0664 13.2992 27.247 13.4538C27.3671 13.5566 27.5203 13.6442 27.7051 13.7285V11.981C27.5035 12.0349 27.3423 12.1111 27.2238 12.2061ZM28.3651 15.5455L28.7833 15.7247C29.1399 15.8775 29.4965 16.0701 29.7632 16.364C30.0391 16.6682 30.2008 17.0607 30.2008 17.5731C30.2008 18.0365 30.0608 18.4262 29.7869 18.7203C29.5168 19.0104 29.142 19.1802 28.7197 19.2584L28.3651 19.3241V15.5455ZM28.9651 16.4856V18.5667C29.125 18.5007 29.252 18.4143 29.3478 18.3114C29.5021 18.1457 29.6008 17.9103 29.6008 17.5731C29.6008 17.2009 29.4888 16.9545 29.3188 16.7672C29.2235 16.6621 29.105 16.5701 28.9651 16.4856Z" fill="#17E200"/>
<path d="M28.7495 14.4417V11.5911C29.7325 11.6614 30.0977 12.1107 30.4347 12.1107C30.856 12.1107 31.0526 11.5771 31.0526 11.3103C31.0526 10.6222 29.7044 10.3273 28.7495 10.2992V9.91989C28.7495 9.7514 28.5388 9.59692 28.3282 9.59692C28.0894 9.59692 27.9209 9.7514 27.9209 9.91989V10.3271C26.5868 10.4676 25.2527 11.1697 25.2527 12.9391C25.2527 14.7366 26.657 15.2422 27.9209 15.6915V18.9916C26.4885 18.8792 26.1094 17.8962 25.6459 17.8962C25.2948 17.8962 25 18.3597 25 18.6968C25 19.3848 26.1796 20.3257 27.9209 20.3538V20.7891C27.9209 20.9576 28.0895 21.1121 28.3282 21.1121C28.5389 21.1121 28.7495 20.9576 28.7495 20.7891V20.3117C30.2662 20.101 31.3053 19.1461 31.3053 17.4188C31.3053 15.509 29.9712 14.891 28.7495 14.4417ZM28.0051 14.175C27.2608 13.8941 26.657 13.5993 26.657 12.7989C26.657 12.0686 27.2187 11.7175 28.0051 11.6193V14.175ZM28.6652 18.9635V16.0005C29.3532 16.2953 29.9009 16.6885 29.9009 17.5732C29.9009 18.3738 29.4234 18.8231 28.6652 18.9635Z" fill="#E4FFA3"/>
<path fill-rule="evenodd" clip-rule="evenodd" d="M27.7709 9.91986C27.7709 9.64346 28.034 9.4469 28.3282 9.4469C28.4682 9.4469 28.6049 9.49748 28.7082 9.57551C28.8091 9.65173 28.8995 9.77195 28.8995 9.91986V10.1554C29.3561 10.1805 29.8804 10.2624 30.3096 10.416C30.547 10.5009 30.7651 10.6111 30.9263 10.7535C31.0896 10.8978 31.2026 11.0832 31.2026 11.3103C31.2026 11.4722 31.1453 11.6992 31.0296 11.8887C30.9133 12.0793 30.718 12.2607 30.4346 12.2607C30.3182 12.2607 30.2087 12.222 30.1064 12.1764C30.0527 12.1525 29.9889 12.1207 29.923 12.0877C29.8721 12.0624 29.8199 12.0363 29.7702 12.0129C29.5543 11.9108 29.2812 11.8033 28.8995 11.7563V14.3373C29.483 14.5556 30.1044 14.826 30.5873 15.2724C31.105 15.7508 31.4553 16.423 31.4553 17.4188C31.4553 18.3139 31.1852 19.0231 30.7057 19.5363C30.2541 20.0198 29.628 20.3171 28.8995 20.4403V20.7891C28.8995 20.937 28.8092 21.0572 28.7083 21.1334C28.605 21.2115 28.4683 21.2621 28.3282 21.2621C28.0342 21.2621 27.7709 21.0655 27.7709 20.7891V20.4992C26.9388 20.4614 26.2348 20.221 25.7272 19.8994C25.4586 19.7293 25.242 19.5344 25.0911 19.3314C24.9411 19.1295 24.85 18.911 24.85 18.6967C24.85 18.4899 24.938 18.2591 25.071 18.0805C25.2024 17.9039 25.4031 17.7462 25.6459 17.7462C25.8147 17.7462 25.9596 17.8356 26.0864 17.9323C26.1506 17.9813 26.2172 18.038 26.2851 18.0957L26.2889 18.0989C26.3591 18.1587 26.4323 18.2209 26.5125 18.2837C26.803 18.5112 27.1854 18.7467 27.7709 18.825V15.7973C27.1712 15.5835 26.5233 15.3413 26.0191 14.938C25.4762 14.5037 25.1027 13.8856 25.1027 12.9391C25.1027 12.0115 25.4548 11.3506 25.9908 10.9067C26.4867 10.4961 27.1296 10.2793 27.7709 10.1939V9.91986ZM28.3282 9.7469C28.1447 9.7469 28.0709 9.85929 28.0709 9.91986V10.4621L27.9366 10.4762C27.2875 10.5446 26.6522 10.7485 26.1822 11.1378C25.7177 11.5224 25.4027 12.0973 25.4027 12.9391C25.4027 13.7901 25.7313 14.3236 26.2065 14.7037C26.6924 15.0924 27.3341 15.3237 27.9711 15.5502L28.0709 15.5856V19.1538L27.9091 19.1411C27.1548 19.082 26.6746 18.7916 26.3275 18.5199C26.2419 18.4528 26.1643 18.3868 26.0945 18.3274C26.0236 18.2671 25.9622 18.2149 25.9045 18.1708C25.7851 18.0798 25.7089 18.0462 25.6459 18.0462C25.5376 18.0462 25.4153 18.1203 25.3116 18.2596C25.2094 18.397 25.15 18.5664 25.15 18.6967C25.15 18.8265 25.2063 18.9836 25.3319 19.1525C25.4566 19.3203 25.6437 19.4914 25.8877 19.646C26.3755 19.955 27.0784 20.1901 27.9233 20.2038L28.0709 20.2062V20.7891C28.0709 20.8496 28.1447 20.9621 28.3282 20.9621C28.3988 20.9621 28.4727 20.9354 28.5274 20.8941C28.5845 20.8509 28.5995 20.8097 28.5995 20.7891V20.1811L28.7288 20.1631C29.4618 20.0613 30.066 19.7816 30.4865 19.3315C30.9058 18.8828 31.1553 18.251 31.1553 17.4188C31.1553 16.5048 30.8385 15.9131 30.3837 15.4927C29.9214 15.0655 29.3081 14.8069 28.6977 14.5824L28.5995 14.5463V11.43L28.7602 11.4415C29.2755 11.4783 29.6309 11.6152 29.8984 11.7416C29.9644 11.7728 30.0189 11.8002 30.0683 11.8249C30.1253 11.8536 30.1754 11.8787 30.2285 11.9024C30.3201 11.9432 30.3826 11.9607 30.4346 11.9607C30.5726 11.9607 30.6863 11.8753 30.7736 11.7324C30.8615 11.5884 30.9026 11.4152 30.9026 11.3103C30.9026 11.1933 30.847 11.0838 30.7277 10.9783C30.6063 10.8711 30.4276 10.7768 30.2086 10.6984C29.7715 10.5421 29.2123 10.4629 28.7451 10.4491L28.5995 10.4448V9.91986C28.5995 9.89929 28.5845 9.85803 28.5274 9.81489C28.4727 9.77356 28.3987 9.7469 28.3282 9.7469ZM28.1551 11.4493V14.3919L27.9521 14.3153C27.5812 14.1753 27.2208 14.0237 26.9544 13.7957C26.6787 13.5597 26.507 13.2449 26.507 12.7988C26.507 12.3894 26.6672 12.0755 26.9423 11.855C27.2111 11.6396 27.5789 11.5213 27.9865 11.4704L28.1551 11.4493ZM27.13 12.0891C26.9277 12.2512 26.807 12.478 26.807 12.7988C26.807 13.1531 26.9372 13.386 27.1495 13.5678C27.3297 13.722 27.5707 13.8409 27.8551 13.9557V11.7939C27.5535 11.8494 27.3067 11.9474 27.13 12.0891ZM28.5151 15.773L28.7242 15.8626C29.0745 16.0127 29.4073 16.195 29.6521 16.4648C29.9015 16.7398 30.0509 17.0958 30.0509 17.5731C30.0509 18.005 29.9212 18.3561 29.6771 18.6181C29.435 18.8781 29.0932 19.0368 28.6924 19.111L28.5151 19.1438V15.773ZM28.8151 16.2339V18.7756C29.0877 18.701 29.3035 18.5792 29.4576 18.4137C29.6418 18.2158 29.7509 17.9419 29.7509 17.5731C29.7509 17.1659 29.6264 16.883 29.4299 16.6664C29.2718 16.4922 29.0618 16.3549 28.8151 16.2339Z" fill="#AAFF5C"/>
</svg>
