<svg width="62" height="62" viewBox="0 0 62 62" fill="none" xmlns="http://www.w3.org/2000/svg">
<path fill-rule="evenodd" clip-rule="evenodd" d="M48.7071 12.7071C49.0976 13.0976 49.0976 13.7308 48.7071 14.1213L14.1213 48.7071C13.7308 49.0976 13.0976 49.0976 12.7071 48.7071C12.3166 48.3166 12.3166 47.6834 12.7071 47.2929L47.2929 12.7071C47.6834 12.3166 48.3166 12.3166 48.7071 12.7071Z" fill="#E4FFA3"/>
<path fill-rule="evenodd" clip-rule="evenodd" d="M48.9193 12.4949C49.4269 13.0026 49.4269 13.8257 48.9193 14.3334L14.3335 48.9192C13.8258 49.4269 13.0027 49.4269 12.495 48.9192C11.9873 48.4115 11.9873 47.5884 12.495 47.0807L47.0808 12.4949C47.5885 11.9873 48.4116 11.9873 48.9193 12.4949ZM48.495 13.9092C48.7684 13.6358 48.7684 13.1926 48.495 12.9192C48.2216 12.6458 47.7784 12.6458 47.505 12.9192L12.9193 47.505C12.6459 47.7784 12.6459 48.2216 12.9193 48.4949C13.1926 48.7683 13.6358 48.7683 13.9092 48.4949L48.495 13.9092Z" fill="#17E200"/>
<path fill-rule="evenodd" clip-rule="evenodd" d="M48.4949 13.9092C48.7683 13.6358 48.7683 13.1926 48.4949 12.9192C48.2216 12.6458 47.7784 12.6458 47.505 12.9192L12.9192 47.505C12.6458 47.7784 12.6458 48.2216 12.9192 48.4949C13.1926 48.7683 13.6358 48.7683 13.9092 48.4949L48.4949 13.9092ZM48.7071 14.1213C49.0976 13.7308 49.0976 13.0976 48.7071 12.7071C48.3166 12.3166 47.6834 12.3166 47.2929 12.7071L12.7071 47.2929C12.3166 47.6834 12.3166 48.3166 12.7071 48.7071C13.0976 49.0976 13.7308 49.0976 14.1213 48.7071L48.7071 14.1213Z" fill="#AAFF5C"/>
<path fill-rule="evenodd" clip-rule="evenodd" d="M21.6564 44.0003H46.8333C49.1299 44.0003 50.9999 42.1304 50.9999 39.8338V28.1839L51 28.1676V23.1677L50.9999 23.1515V21.5009C50.9999 19.6925 49.8405 18.1487 48.2264 17.574L48.1192 17.5375L46.6557 19.001H46.8333C48.2116 19.001 49.3333 20.1226 49.3333 21.5009V22.3344H43.3223L41.6557 24.001H49.3333V27.3342H38.3225L36.6558 29.0009H49.3333V39.8337C49.3333 41.212 48.2117 42.3336 46.8334 42.3336H23.323L21.6564 44.0003Z" fill="white"/>
<path fill-rule="evenodd" clip-rule="evenodd" d="M50.9999 23.1515V21.5009C50.9999 19.6925 49.8405 18.1487 48.2264 17.574L48.1192 17.5375L46.6557 19.001H46.8333C47.0395 19.001 47.24 19.0261 47.4318 19.0734C48.5222 19.3423 49.3333 20.3288 49.3333 21.5009V22.3344H43.3223L41.6557 24.001H49.3333V27.3342H38.3225L36.6558 29.0009H49.3333V39.8337C49.3333 41.212 48.2117 42.3336 46.8334 42.3336H23.323L21.6564 44.0003H46.8333C49.1299 44.0003 50.9999 42.1304 50.9999 39.8338V28.1839L51 28.1676V23.1677L50.9999 23.1515ZM50.4 23.1677L50.3999 23.1573L50.3998 23.1515L50.3999 21.5009C50.3999 20.0474 49.5235 18.7907 48.2689 18.2363L47.9111 18.5941C49.0909 19.0327 49.9333 20.17 49.9333 21.5009V22.9344H43.5709L43.1043 23.401H49.9333V27.9342H38.571L38.1043 28.4009H49.9333V39.8337C49.9333 41.5434 48.5431 42.9336 46.8334 42.9336H23.5716L23.1049 43.4003H46.8333C48.7985 43.4003 50.3999 41.799 50.3999 39.8338V28.1781L50.4 28.1676V23.1677Z" fill="#FFEC4A"/>
<path fill-rule="evenodd" clip-rule="evenodd" d="M50.9999 23.1515V21.5009C50.9999 19.6925 49.8405 18.1487 48.2264 17.574L48.1192 17.5375L46.6557 19.001H46.8333C46.9128 19.001 46.9914 19.0047 47.069 19.012C48.3372 19.1311 49.3333 20.202 49.3333 21.5009V22.3344H43.3223L41.6557 24.001H49.3333V27.3342H38.3225L36.6558 29.0009H49.3333V39.8337C49.3333 41.212 48.2117 42.3336 46.8334 42.3336H23.323L21.6564 44.0003H46.8333C49.1299 44.0003 50.9999 42.1304 50.9999 39.8338V28.1839L51 28.1676V23.1677L50.9999 23.1515ZM50.7 23.1677L50.6998 23.1515L50.6999 21.5009C50.6999 19.8507 49.6589 18.4364 48.1979 17.8831L47.335 18.746C48.6404 18.983 49.6333 20.1281 49.6333 21.5009V22.6344H43.4466L42.38 23.701H49.6333V27.6342H38.4467L37.38 28.7009H49.6333V39.8337C49.6333 41.3777 48.3774 42.6336 46.8334 42.6336H23.4473L22.3806 43.7003H46.8333C48.9642 43.7003 50.6999 41.9647 50.6999 39.8338V28.181L50.7 28.1676V23.1677Z" fill="#FFC400"/>
<path fill-rule="evenodd" clip-rule="evenodd" d="M15.1675 17.3343H39.8371L38.1704 19.001H15.1675C13.7892 19.001 12.6676 20.1226 12.6676 21.5009V22.3344H34.837L33.1704 24.0009H12.6676V27.3342H29.8372L28.1705 29.0009H12.6676V39.8337C12.6676 41.1151 13.637 42.1746 14.8809 42.3173C14.8729 42.3164 14.8649 42.3154 14.8569 42.3144L13.5137 43.6577C12.0369 43.0162 11.001 41.5431 11.001 39.8338V21.5009C11.001 19.2042 12.8709 17.3343 15.1675 17.3343Z" fill="white"/>
<path fill-rule="evenodd" clip-rule="evenodd" d="M14.1888 42.134C13.2954 41.7524 12.6676 40.8649 12.6676 39.8337V29.0009H28.1705L29.8372 27.3342H12.6676V24.0009H33.1704L34.837 22.3344H12.6676V21.5009C12.6676 20.1226 13.7892 19.001 15.1675 19.001H38.1704L39.8371 17.3343H15.1675C12.8709 17.3343 11.001 19.2042 11.001 21.5009V39.8338C11.001 41.5431 12.0369 43.0162 13.5137 43.6577L14.8569 42.3144C14.6227 42.2853 14.3985 42.2236 14.1888 42.134ZM13.7386 42.5842C12.7464 42.0669 12.0676 41.0287 12.0676 39.8337V28.4009H27.922L28.3886 27.9342H12.0676V23.4009H32.9219L33.3885 22.9344H12.0676V21.5009C12.0676 19.7912 13.4578 18.401 15.1675 18.401H37.9219L38.3886 17.9343H15.1675C13.2023 17.9343 11.601 19.5356 11.601 21.5009V39.8338C11.601 41.1531 12.323 42.3104 13.3953 42.9276L13.7386 42.5842Z" fill="#FFEC4A"/>
<path fill-rule="evenodd" clip-rule="evenodd" d="M12.6676 29.0009H28.1705L29.8372 27.3342H12.6676V24.0009H33.1704L34.837 22.3344H12.6676V21.5009C12.6676 20.1226 13.7892 19.001 15.1675 19.001H38.1704L39.8371 17.3343H15.1675C12.8709 17.3343 11.001 19.2042 11.001 21.5009V39.8338C11.001 41.5431 12.0369 43.0162 13.5137 43.6577L14.8569 42.3144C14.7361 42.2994 14.618 42.2757 14.5031 42.244C14.3953 42.2142 14.2903 42.1774 14.1888 42.134C13.2954 41.7524 12.6676 40.8649 12.6676 39.8337V29.0009ZM14.2633 42.4838C14.1981 42.4615 14.1339 42.4368 14.071 42.4099C13.0713 41.9829 12.3676 40.9896 12.3676 39.8337V28.7009H28.0462L29.1129 27.6342H12.3676V23.7009H33.0462L34.1128 22.6344H12.3676V21.5009C12.3676 19.9569 13.6235 18.701 15.1675 18.701H38.0462L39.1128 17.6343H15.1675C13.0366 17.6343 11.301 19.3699 11.301 21.5009V39.8338C11.301 41.3474 12.1769 42.6628 13.45 43.2971L14.2633 42.4838Z" fill="#FFC400"/>
<path fill-rule="evenodd" clip-rule="evenodd" d="M23.171 34.0005H16.8343C16.3743 34.0005 16.001 34.3738 16.001 34.8338C16.001 35.2938 16.3743 35.6671 16.8343 35.6671H21.5044L23.171 34.0005ZM16.8343 37.334H19.8375L18.171 39.0006L16.8343 39.0007C16.3743 39.0007 16.001 38.6273 16.001 38.1673C16.001 37.7073 16.3743 37.334 16.8343 37.334Z" fill="white"/>
<path fill-rule="evenodd" clip-rule="evenodd" d="M21.7225 34.6005H16.8343C16.7057 34.6005 16.601 34.7052 16.601 34.8338C16.601 34.9624 16.7056 35.0671 16.8343 35.0671H21.2559L21.7225 34.6005ZM16.8343 34.0005C16.3743 34.0005 16.001 34.3738 16.001 34.8338C16.001 35.2938 16.3743 35.6671 16.8343 35.6671H21.5044L23.171 34.0005H16.8343ZM18.389 37.934H16.8343C16.7057 37.934 16.601 38.0387 16.601 38.1673C16.601 38.2959 16.7057 38.4006 16.8343 38.4007L17.9224 38.4006L18.389 37.934ZM16.8343 37.334C16.3743 37.334 16.001 37.7073 16.001 38.1673C16.001 38.6273 16.3743 39.0007 16.8343 39.0007L18.171 39.0006L19.8375 37.334H16.8343Z" fill="#FFEC4A"/>
<path fill-rule="evenodd" clip-rule="evenodd" d="M22.4467 34.3005H16.8343C16.54 34.3005 16.301 34.5395 16.301 34.8338C16.301 35.1281 16.54 35.3671 16.8343 35.3671H21.3802L22.4467 34.3005ZM16.8343 34.0005C16.3743 34.0005 16.001 34.3738 16.001 34.8338C16.001 35.2938 16.3743 35.6671 16.8343 35.6671H21.5044L23.171 34.0005H16.8343ZM19.1133 37.634H16.8343C16.54 37.634 16.301 37.873 16.301 38.1673C16.301 38.4616 16.54 38.7006 16.8343 38.7007C16.8343 38.7007 16.8343 38.7007 16.8343 38.7007L18.0467 38.7006L19.1133 37.634ZM16.8343 37.334C16.3743 37.334 16.001 37.7073 16.001 38.1673C16.001 38.6273 16.3743 39.0007 16.8343 39.0007L18.171 39.0006L19.8375 37.334H16.8343Z" fill="#FFC400"/>
<path fill-rule="evenodd" clip-rule="evenodd" d="M43.5001 32.334H41.8336C40.4552 32.334 39.3336 33.4556 39.3336 34.8339V36.5005C39.3336 37.8788 40.4552 39.0004 41.8336 39.0004H43.5001C44.8785 39.0004 46.0001 37.8788 46.0001 36.5005V34.8339C46.0001 33.4557 44.8785 32.334 43.5001 32.334ZM44.3335 36.5006C44.3335 36.9606 43.9601 37.3339 43.5001 37.3339H41.8336C41.3736 37.3339 41.0002 36.9606 41.0002 36.5006V34.834C41.0002 34.374 41.3736 34.0007 41.8336 34.0007H43.5001C43.9601 34.0007 44.3335 34.374 44.3335 34.834V36.5006Z" fill="white"/>
<path fill-rule="evenodd" clip-rule="evenodd" d="M43.5001 32.934H41.8336C40.7866 32.934 39.9336 33.787 39.9336 34.8339V36.5005C39.9336 37.5475 40.7866 38.4004 41.8336 38.4004H43.5001C44.5471 38.4004 45.4001 37.5475 45.4001 36.5005V34.8339C45.4001 33.787 44.5471 32.934 43.5001 32.934ZM44.9335 36.5006C44.9335 37.2919 44.2915 37.9339 43.5001 37.9339H41.8336C41.0422 37.9339 40.4002 37.2919 40.4002 36.5006V34.834C40.4002 34.0426 41.0422 33.4007 41.8336 33.4007H43.5001C44.2915 33.4007 44.9335 34.0426 44.9335 34.834V36.5006ZM41.8336 32.334H43.5001C44.8785 32.334 46.0001 33.4557 46.0001 34.8339V36.5005C46.0001 37.8788 44.8785 39.0004 43.5001 39.0004H41.8336C40.4552 39.0004 39.3336 37.8788 39.3336 36.5005V34.8339C39.3336 33.4556 40.4552 32.334 41.8336 32.334ZM43.5001 37.3339C43.9601 37.3339 44.3335 36.9606 44.3335 36.5006V34.834C44.3335 34.374 43.9601 34.0007 43.5001 34.0007H41.8336C41.3736 34.0007 41.0002 34.374 41.0002 34.834V36.5006C41.0002 36.9606 41.3736 37.3339 41.8336 37.3339H43.5001Z" fill="#FFEC4A"/>
<path fill-rule="evenodd" clip-rule="evenodd" d="M43.5001 32.634H41.8336C40.6209 32.634 39.6336 33.6213 39.6336 34.8339V36.5005C39.6336 37.7132 40.6209 38.7004 41.8336 38.7004H43.5001C44.7128 38.7004 45.7001 37.7132 45.7001 36.5005V34.8339C45.7001 33.6214 44.7128 32.634 43.5001 32.634ZM44.6335 36.5006C44.6335 37.1263 44.1258 37.6339 43.5001 37.6339H41.8336C41.2079 37.6339 40.7002 37.1263 40.7002 36.5006V34.834C40.7002 34.2083 41.2079 33.7007 41.8336 33.7007H43.5001C44.1258 33.7007 44.6335 34.2083 44.6335 34.834V36.5006ZM41.8336 32.334H43.5001C44.8785 32.334 46.0001 33.4557 46.0001 34.8339V36.5005C46.0001 37.8788 44.8785 39.0004 43.5001 39.0004H41.8336C40.4552 39.0004 39.3336 37.8788 39.3336 36.5005V34.8339C39.3336 33.4556 40.4552 32.334 41.8336 32.334ZM43.5001 37.3339C43.9601 37.3339 44.3335 36.9606 44.3335 36.5006V34.834C44.3335 34.374 43.9601 34.0007 43.5001 34.0007H41.8336C41.3736 34.0007 41.0002 34.374 41.0002 34.834V36.5006C41.0002 36.9606 41.3736 37.3339 41.8336 37.3339H43.5001Z" fill="#FFC400"/>
</svg>
