<svg width="62" height="62" viewBox="0 0 62 62" fill="none" xmlns="http://www.w3.org/2000/svg">
<path d="M43.4744 46.3779C42.343 47.4543 40.8465 48.0001 39.0267 48.0001H22.174C19.879 48.0001 18.3477 46.9003 18.032 46.6491L19.4368 45.1453C20.1443 45.6855 21.044 45.949 22.174 45.949H39.0265C40.3205 45.949 41.3128 45.6032 42.0602 44.8919C43.34 43.6741 43.2074 41.8003 43.0923 40.1743L43.0897 40.1383C42.9152 37.6706 42.4669 34.8839 40.5921 33.0903C39.9148 32.4423 38.8858 31.9924 37.6593 31.9597C37.017 32.3011 36.4206 32.7455 35.8085 33.1367C33 35 29.9539 34.6144 29.9668 34.6154L32.1728 32.4093C33.926 32.0166 34.7855 31.3744 35.9791 30.5881C36.4322 30.2897 36.9367 29.9067 37.5023 29.9067C39.1469 29.9067 40.8084 30.4585 42.01 31.6082C43.6677 33.1937 44.4506 35.4968 44.8464 37.7018C45.0946 39.0876 45.196 40.4861 45.2005 41.8927C45.206 43.5655 44.7106 45.2016 43.4744 46.3779Z" fill="white"/>
<path fill-rule="evenodd" clip-rule="evenodd" d="M40.5921 33.0903C42.4669 34.8839 42.9152 37.6706 43.0897 40.1383L43.0923 40.1743C43.2074 41.8003 43.34 43.6741 42.0602 44.8919C41.3128 45.6032 40.3205 45.949 39.0265 45.949H22.174C21.044 45.949 20.1443 45.6855 19.4368 45.1453L18.032 46.6491C18.1158 46.7158 18.2855 46.8424 18.5324 46.9924C19.215 47.407 20.4886 48.0001 22.174 48.0001H39.0267C40.8465 48.0001 42.343 47.4543 43.4744 46.3779C44.7106 45.2016 45.206 43.5655 45.2005 41.8927C45.196 40.4861 45.0946 39.0876 44.8464 37.7018C44.4506 35.4968 43.6677 33.1937 42.01 31.6082C40.8084 30.4585 39.1469 29.9067 37.5023 29.9067C36.9964 29.9067 36.5393 30.2131 36.1242 30.4914C36.0753 30.5242 36.0269 30.5566 35.9791 30.5881C35.8782 30.6546 35.7796 30.7201 35.6827 30.7844C34.6338 31.4812 33.7778 32.0498 32.1728 32.4093L29.9668 34.6154C29.9699 34.6159 30.1117 34.6335 30.36 34.6425C30.4783 34.6468 30.6207 34.6492 30.7838 34.6469C31.8762 34.6312 33.8974 34.4046 35.8085 33.1367C36.006 33.0105 36.2019 32.8787 36.3982 32.7467C36.8103 32.4694 37.2242 32.1909 37.6593 31.9597C38.8858 31.9924 39.9148 32.4423 40.5921 33.0903ZM31.4162 34.0145C31.5249 34.0051 31.6385 33.9934 31.7564 33.9789C32.8042 33.85 34.1714 33.5028 35.4768 32.6367L35.4853 32.6311C35.6578 32.5208 35.8401 32.3984 36.0292 32.2713C36.4547 31.9852 36.915 31.6758 37.3776 31.4299L37.5172 31.3556L37.6753 31.3599C39.0373 31.3963 40.2126 31.8968 41.0068 32.6567C43.0632 34.624 43.5138 37.63 43.6882 40.0959L43.6908 40.1319L43.6928 40.16C43.749 40.9548 43.8147 41.8816 43.6938 42.7673C43.5696 43.6772 43.243 44.5945 42.4738 45.3265C41.5884 46.1692 40.4335 46.549 39.0265 46.549H22.174C21.1626 46.549 20.2784 46.3532 19.5294 45.9251L18.9517 46.5435C19.5888 46.9116 20.7117 47.4001 22.174 47.4001H39.0267C40.7198 47.4001 42.0592 46.896 43.0608 45.9432C44.1448 44.9117 44.6056 43.4537 44.6005 41.8946C44.5961 40.5154 44.4967 39.1526 44.2558 37.8078C43.8681 35.6477 43.116 33.4963 41.5953 32.0419C40.5242 31.017 39.0205 30.5067 37.5023 30.5067C37.3552 30.5067 37.1871 30.5567 36.9774 30.6668C36.8086 30.7554 36.652 30.8602 36.4736 30.9797C36.421 31.0149 36.3665 31.0514 36.3092 31.0892C36.2084 31.1556 36.1094 31.2214 36.0114 31.2866C34.9933 31.9633 34.0835 32.5681 32.4758 32.9549L31.4162 34.0145Z" fill="#FFEC4A"/>
<path fill-rule="evenodd" clip-rule="evenodd" d="M40.5921 33.0903C42.4669 34.8839 42.9152 37.6706 43.0897 40.1383L43.0923 40.1743C43.2074 41.8003 43.34 43.6741 42.0602 44.8919C41.3128 45.6032 40.3205 45.949 39.0265 45.949H22.174C21.044 45.949 20.1443 45.6855 19.4368 45.1453L18.032 46.6491C18.0826 46.6894 18.1646 46.7515 18.2759 46.8275C18.8586 47.2249 20.2471 48.0001 22.174 48.0001H39.0267C40.8465 48.0001 42.343 47.4543 43.4744 46.3779C44.7106 45.2016 45.206 43.5655 45.2005 41.8927C45.196 40.4861 45.0946 39.0876 44.8464 37.7018C44.4506 35.4968 43.6677 33.1937 42.01 31.6082C40.8084 30.4585 39.1469 29.9067 37.5023 29.9067C36.9964 29.9067 36.5393 30.2131 36.1242 30.4914C36.0753 30.5242 36.0269 30.5566 35.9791 30.5881C35.8782 30.6546 35.7796 30.7201 35.6827 30.7844C34.6338 31.4812 33.7778 32.0498 32.1728 32.4093L29.9668 34.6154C29.969 34.6157 30.0382 34.6244 30.1637 34.6326C30.2196 34.6363 30.2866 34.6399 30.3638 34.6427C31.2766 34.6755 33.615 34.592 35.8085 33.1367C36.006 33.0105 36.2019 32.8787 36.3982 32.7467C36.8103 32.4694 37.2242 32.1909 37.6593 31.9597C38.8858 31.9924 39.9148 32.4423 40.5921 33.0903ZM30.6586 34.3478C30.9581 34.3477 31.3458 34.3317 31.793 34.2767C32.8724 34.1439 34.2878 33.7856 35.6426 32.8867L35.6469 32.8839C35.8317 32.7658 36.0208 32.6386 36.2137 32.5089C36.6329 32.2271 37.0697 31.9333 37.5185 31.6948L37.5883 31.6577L37.6673 31.6598C38.9615 31.6943 40.0637 32.1696 40.7994 32.8735C42.7651 34.7539 43.2145 37.6503 43.389 40.1171L43.3926 40.168C43.4494 40.9713 43.5132 41.872 43.3966 42.7267C43.2783 43.5936 42.9715 44.4388 42.267 45.1092C41.4505 45.8862 40.377 46.249 39.0265 46.249H22.174C21.1069 46.249 20.2109 46.0228 19.4773 45.5415L18.4832 46.6055C19.0541 46.9873 20.3665 47.7001 22.174 47.7001H39.0267C40.7832 47.7001 42.2011 47.1751 43.2676 46.1605C44.4277 45.0566 44.9058 43.5096 44.9005 41.8936C44.896 40.5007 44.7956 39.1201 44.5511 37.7547C44.1593 35.5722 43.3919 33.3449 41.8026 31.8251C40.6663 30.7378 39.0837 30.2067 37.5023 30.2067C37.2874 30.2067 37.0695 30.2796 36.8379 30.4011C36.6536 30.4979 36.4798 30.6143 36.2987 30.7357C36.2479 30.7697 36.1965 30.8042 36.1441 30.8387C36.0433 30.9051 35.9444 30.9708 35.847 31.0355C34.8138 31.7221 33.9298 32.3095 32.3238 32.6826L30.6586 34.3478Z" fill="#FFC400"/>
<path d="M23.697 29.9065C24.7571 29.9065 25.8311 31.0395 26.7096 31.537L25.2196 33.0271C24.6913 32.64 24.1196 32.2678 23.54 31.9597C19.4603 32.0687 18.3337 36.854 18.1106 40.136L16.0043 42.2423C15.9874 37.1869 17.3969 29.9065 23.697 29.9065Z" fill="white"/>
<path fill-rule="evenodd" clip-rule="evenodd" d="M23.54 31.9597C24.1196 32.2678 24.6913 32.64 25.2196 33.0271L26.7096 31.537C26.5449 31.4437 26.3733 31.3281 26.1963 31.2018C26.0858 31.123 25.9732 31.0401 25.8588 30.9558C25.1785 30.4546 24.4344 29.9065 23.697 29.9065C17.7461 29.9065 16.1587 36.4022 16.0152 41.3829C16.0068 41.6751 16.0034 41.9621 16.0043 42.2423L18.1106 40.136C18.3337 36.854 19.4603 32.0687 23.54 31.9597ZM17.5286 39.8695C17.6576 38.2345 18.0102 36.2351 18.8437 34.5872C19.726 32.8428 21.1928 31.4222 23.5239 31.3599L23.682 31.3557L23.8216 31.4299C24.2787 31.6729 24.7278 31.9519 25.1536 32.2445L25.7663 31.6318C25.7316 31.6066 25.6972 31.5815 25.663 31.5566C25.6071 31.5156 25.5519 31.475 25.4972 31.4347C25.3075 31.295 25.1241 31.1599 24.9353 31.0322C24.433 30.6925 24.0314 30.5065 23.697 30.5065C20.8468 30.5065 19.0968 32.1235 18.026 34.4312C17.1502 36.3187 16.7563 38.6273 16.6416 40.7565L17.5286 39.8695Z" fill="#FFEC4A"/>
<path fill-rule="evenodd" clip-rule="evenodd" d="M23.54 31.9597C24.1196 32.2678 24.6913 32.64 25.2196 33.0271L26.7096 31.537C26.624 31.4885 26.5365 31.434 26.4473 31.375C26.258 31.2499 26.0613 31.105 25.8588 30.9558C25.1785 30.4546 24.4344 29.9065 23.697 29.9065C17.5719 29.9065 16.0695 36.788 16.0063 41.8161C16.0045 41.9598 16.0038 42.1019 16.0043 42.2423L18.1106 40.136C18.3337 36.854 19.4603 32.0687 23.54 31.9597ZM17.8193 40.0031C17.9396 38.3654 18.2845 36.3573 19.1114 34.7226C19.9623 33.0403 21.3464 31.7182 23.532 31.6598L23.611 31.6577L23.6808 31.6948C24.1996 31.9706 24.7099 32.2951 25.188 32.6344L26.231 31.5913C26.1009 31.5037 25.9701 31.4095 25.8402 31.3145C25.786 31.2748 25.732 31.235 25.6781 31.1953C25.4875 31.0549 25.2976 30.9151 25.1034 30.7837C24.5968 30.4411 24.1292 30.2065 23.697 30.2065C20.6969 30.2065 18.8582 31.9251 17.7539 34.3049C16.7487 36.4713 16.369 39.1604 16.3119 41.5104L17.8193 40.0031Z" fill="#FFC400"/>
<path d="M28.5688 29.6775L30.438 27.8084C28.6986 27.8216 27.1003 27.1698 25.8697 25.9397C24.612 24.6822 24.0005 23.2069 24.0005 21.4296C24.0005 19.6528 24.612 18.1774 25.8697 16.9197C27.1271 15.6623 28.6022 15.051 30.3796 15.051C32.1566 15.051 33.632 15.6623 34.8897 16.9197C36.1471 18.1774 36.7586 19.6528 36.7586 21.4296L38.6276 19.6188C38.3008 18.0553 37.5354 16.6649 36.3399 15.4692C34.7009 13.8307 32.6955 13 30.3796 13C28.0631 13 26.058 13.8307 24.4192 15.4695C22.7805 17.1082 21.9495 19.1136 21.9495 21.4296C21.9495 23.746 22.7805 25.7514 24.4192 27.3902C25.6081 28.5784 27.0162 29.3476 28.5688 29.6775Z" fill="white"/>
<path fill-rule="evenodd" clip-rule="evenodd" d="M34.8897 16.9197C35.9487 17.979 36.5496 19.1926 36.7128 20.6107C36.7434 20.8764 36.7586 21.1492 36.7586 21.4296L38.6276 19.6188C38.3008 18.0553 37.5354 16.6649 36.3399 15.4692C34.7009 13.8307 32.6955 13 30.3796 13C28.0631 13 26.058 13.8307 24.4192 15.4695C22.7805 17.1082 21.9495 19.1136 21.9495 21.4296C21.9495 23.746 22.7805 25.7514 24.4192 27.3902C25.6081 28.5784 27.0162 29.3476 28.5688 29.6775L30.438 27.8084C30.1568 27.8105 29.8794 27.7953 29.6065 27.763C28.1915 27.5958 26.9014 26.9709 25.8697 25.9397C24.612 24.6822 24.0005 23.2069 24.0005 21.4296C24.0005 19.6528 24.612 18.1774 25.8697 16.9197C27.1271 15.6623 28.6022 15.051 30.3796 15.051C32.1566 15.051 33.632 15.6623 34.8897 16.9197ZM29.0627 28.3069C27.6948 28.0505 26.447 27.3933 25.4314 26.3782C24.0575 25.0046 23.3805 23.3715 23.3805 21.4296C23.3805 19.4881 24.0575 17.8551 25.4313 16.4813C26.8049 15.1077 28.4377 14.431 30.3796 14.431C32.3212 14.431 33.9541 15.1077 35.328 16.4813C36.3708 17.5243 37.0122 18.7167 37.2606 20.08L37.9444 19.4174C37.6097 18.1109 36.9311 16.9374 35.9015 15.9076C34.3786 14.3853 32.5309 13.62 30.3796 13.62C28.2276 13.62 26.3802 14.3854 24.8576 15.9079C23.335 17.4305 22.5695 19.2782 22.5695 21.4296C22.5695 23.5814 23.335 25.4291 24.8575 26.9517C25.8811 27.9747 27.0706 28.6574 28.3746 28.995L29.0627 28.3069Z" fill="#FFEC4A"/>
<path fill-rule="evenodd" clip-rule="evenodd" d="M25.6576 26.1518C24.3437 24.8382 23.7005 23.2865 23.7005 21.4296C23.7005 19.5731 24.3437 18.0215 25.6576 16.7076C26.9712 15.3939 28.5226 14.751 30.3796 14.751C32.2362 14.751 33.7879 15.3939 35.1018 16.7076C36.2519 17.8579 36.8881 19.1904 37.0286 20.7502L38.2987 19.5198C37.9667 18.0816 37.2431 16.7968 36.1278 15.6813C34.545 14.0991 32.6159 13.3 30.3796 13.3C28.1427 13.3 26.2139 14.0991 24.6313 15.6816C23.0488 17.2642 22.2495 19.1932 22.2495 21.4296C22.2495 23.6664 23.0488 25.5955 24.6313 27.178C25.7402 28.2863 27.0418 29.0139 28.4733 29.3488L29.7431 28.0791C28.1945 27.9357 26.779 27.2727 25.6576 26.1518ZM30.0233 27.7988C28.4452 27.7136 27.0019 27.0713 25.8697 25.9397C24.612 24.6822 24.0005 23.2069 24.0005 21.4296C24.0005 19.6528 24.612 18.1774 25.8697 16.9197C27.1271 15.6623 28.6022 15.051 30.3796 15.051C32.1566 15.051 33.632 15.6623 34.8897 16.9197C36.0498 18.0801 36.6601 19.4258 36.7476 21.0225C36.7549 21.1564 36.7586 21.2921 36.7586 21.4296L38.6276 19.6188C38.3008 18.0553 37.5354 16.6649 36.3399 15.4692C34.7009 13.8307 32.6955 13 30.3796 13C28.0631 13 26.058 13.8307 24.4192 15.4695C22.7805 17.1082 21.9495 19.1136 21.9495 21.4296C21.9495 23.746 22.7805 25.7514 24.4192 27.3902C25.6081 28.5784 27.0162 29.3476 28.5688 29.6775L30.438 27.8084C30.2988 27.8094 30.1605 27.8062 30.0233 27.7988Z" fill="#FFC400"/>
<path fill-rule="evenodd" clip-rule="evenodd" d="M48.7072 12.707C49.0977 13.0975 49.0977 13.7306 48.7072 14.1212L14.1214 48.707C13.7309 49.0975 13.0977 49.0975 12.7072 48.707C12.3167 48.3164 12.3167 47.6833 12.7072 47.2927L47.293 12.707C47.6835 12.3164 48.3167 12.3164 48.7072 12.707Z" fill="#E4FFA3"/>
<path fill-rule="evenodd" clip-rule="evenodd" d="M48.9265 12.4878C49.4381 12.9993 49.4381 13.8288 48.9265 14.3404L14.3407 48.9262C13.8291 49.4377 12.9997 49.4377 12.4881 48.9262C11.9765 48.4146 11.9765 47.5851 12.4881 47.0735L47.0739 12.4878C47.5854 11.9762 48.4149 11.9762 48.9265 12.4878ZM48.4881 13.902C48.7575 13.6325 48.7575 13.1956 48.4881 12.9262C48.2186 12.6567 47.7817 12.6567 47.5123 12.9262L12.9265 47.5119C12.657 47.7814 12.657 48.2183 12.9265 48.4878C13.1959 48.7572 13.6328 48.7572 13.9023 48.4878L48.4881 13.902Z" fill="#17E200"/>
<path fill-rule="evenodd" clip-rule="evenodd" d="M48.488 13.902C48.7575 13.6325 48.7575 13.1956 48.488 12.9262C48.2185 12.6567 47.7817 12.6567 47.5122 12.9262L12.9264 47.5119C12.6569 47.7814 12.6569 48.2183 12.9264 48.4878C13.1959 48.7572 13.6328 48.7572 13.9022 48.4878L48.488 13.902ZM48.7072 14.1212C49.0977 13.7306 49.0977 13.0975 48.7072 12.707C48.3167 12.3164 47.6835 12.3164 47.293 12.707L12.7072 47.2927C12.3167 47.6833 12.3167 48.3164 12.7072 48.707C13.0977 49.0975 13.7309 49.0975 14.1214 48.707L48.7072 14.1212Z" fill="#AAFF5C"/>
</svg>
