<svg width="41" height="42" viewBox="0 0 41 42" fill="none" xmlns="http://www.w3.org/2000/svg">
<circle cx="20.5" cy="21.4244" r="19.5" stroke="#FFC400" stroke-width="2"/>
<circle cx="20.5" cy="21.4244" r="19.5" stroke="#FFEC4A" stroke-width="1.2"/>
<circle cx="20.5" cy="21.4244" r="19.5" stroke="white" stroke-width="0.6"/>
<path d="M24.0068 13.9244C23.1784 13.9244 22.5068 14.6413 22.5068 15.5257V26.913C22.5068 27.7974 23.1784 28.5143 24.0068 28.5143C24.8353 28.5143 25.5068 27.7974 25.5068 26.913V15.5257C25.5068 14.6413 24.8353 13.9244 24.0068 13.9244Z" fill="#E4FFA3" stroke="#17E200" stroke-width="0.6"/>
<path d="M22.6568 15.5257C22.6568 14.7148 23.2703 14.0744 24.0068 14.0744C24.7434 14.0744 25.3568 14.7148 25.3568 15.5257V26.913C25.3568 27.7239 24.7433 28.3643 24.0068 28.3643C23.2703 28.3643 22.6568 27.7239 22.6568 26.913V15.5257Z" stroke="#AAFF5C" stroke-width="0.3"/>
<path d="M17.5 13.9244C16.6716 13.9244 16 14.6413 16 15.5257V26.913C16 27.7974 16.6716 28.5143 17.5 28.5143C18.3284 28.5143 19 27.7974 19 26.913V15.5257C19 14.6413 18.3285 13.9244 17.5 13.9244Z" fill="#E4FFA3" stroke="#17E200" stroke-width="0.6"/>
<path d="M16.15 15.5257C16.15 14.7148 16.7635 14.0744 17.5 14.0744C18.2366 14.0744 18.85 14.7148 18.85 15.5257V26.913C18.85 27.7239 18.2365 28.3643 17.5 28.3643C16.7635 28.3643 16.15 27.7239 16.15 26.913V15.5257Z" stroke="#AAFF5C" stroke-width="0.3"/>
</svg>
