<svg width="41" height="42" viewBox="0 0 41 42" fill="none" xmlns="http://www.w3.org/2000/svg">
<circle cx="20.5" cy="21.4244" r="19.5" stroke="#FFC400" stroke-width="2"/>
<circle cx="20.5" cy="21.4244" r="19.5" stroke="#FFEC4A" stroke-width="1.2"/>
<circle cx="20.5" cy="21.4244" r="19.5" stroke="white" stroke-width="0.6"/>
<path d="M26 20.1923C27.3333 20.9621 27.3333 22.8866 26 23.6564L18.5 27.9866C17.1667 28.7564 15.5 27.7941 15.5 26.2545L15.5 17.5942C15.5 16.0546 17.1667 15.0924 18.5 15.8622L26 20.1923Z" stroke="#17E200" stroke-width="2"/>
<path d="M26 20.1923C27.3333 20.9621 27.3333 22.8866 26 23.6564L18.5 27.9866C17.1667 28.7564 15.5 27.7941 15.5 26.2545L15.5 17.5942C15.5 16.0546 17.1667 15.0924 18.5 15.8622L26 20.1923Z" stroke="#AAFF5C" stroke-width="1.2"/>
<path d="M26 20.1923C27.3333 20.9621 27.3333 22.8866 26 23.6564L18.5 27.9866C17.1667 28.7564 15.5 27.7941 15.5 26.2545L15.5 17.5942C15.5 16.0546 17.1667 15.0924 18.5 15.8622L26 20.1923Z" stroke="#E4FFA3" stroke-width="0.6"/>
</svg>
