<?xml version="1.0" encoding="utf-8"?>
<!-- Generator: Adobe Illustrator 24.2.1, SVG Export Plug-In . SVG Version: 6.00 Build 0)  -->
<svg version="1.1" id="Layer_1" xmlns="http://www.w3.org/2000/svg" xmlns:xlink="http://www.w3.org/1999/xlink" x="0px" y="0px"
	 viewBox="0 0 62 62" style="enable-background:new 0 0 62 62;" xml:space="preserve">
<style type="text/css">
	.st0{fill:#FFFFFF;}
	.st1{fill:#FFEC4A;}
	.st2{fill:#FFC400;}
	.st3{fill:#E4FFA3;}
	.st4{fill:#AAFF5C;}
	.st5{fill:#17E200;}
</style>
<path class="st0" d="M28.5493164,39.1621094c-0.1601563,0-0.3105469-0.0615234-0.4243164-0.1748047
	c-0.2319336-0.2324219-0.2319336-0.6132813,0.0009766-0.8466797c0.112793-0.1123047,0.2631836-0.1748047,0.4233398-0.1748047
	c0.159668,0,0.3100586,0.0625,0.4233398,0.1748047c0.2324219,0.2333984,0.2324219,0.6142578-0.0004883,0.8476563
	C28.8598633,39.1005859,28.7094727,39.1621094,28.5493164,39.1621094z"/>
<path class="st1" d="M28.5493507,38.2660484c0.0462704,0,0.1352692,0.0113487,0.2105598,0.0864906
	c0.1165199,0.1167488,0.1164894,0.3067703,0.0008507,0.4226685c-0.0761414,0.0759888-0.1651402,0.0873413-0.2114105,0.0873413
	c-0.0463505,0-0.1355095-0.0113831-0.2105598-0.0861893c-0.1165504-0.116951-0.116581-0.3071823-0.0013905-0.4227295
	C28.4138412,38.2774277,28.5030003,38.2660484,28.5493507,38.2660484 M28.5493507,37.6660461
	c-0.2299252,0-0.4598999,0.0875549-0.6355495,0.2626534c-0.3502007,0.3512993-0.3502007,0.9197998,0,1.2711983
	c0.1756496,0.1751022,0.4056244,0.2626495,0.6355495,0.2626495s0.4597988-0.0875473,0.6352501-0.2626495
	c0.3505993-0.3513985,0.3505993-0.919899,0-1.2711983C29.0091496,37.7536011,28.7792759,37.6660461,28.5493507,37.6660461
	L28.5493507,37.6660461z"/>
<path class="st2" d="M28.5493507,37.9660492c0.1599197,0,0.3102589,0.062149,0.4229088,0.1745682
	c0.23312,0.2335815,0.2331009,0.6137238,0.0004215,0.8469391c-0.1130714,0.1128426-0.2634106,0.1749916-0.4233303,0.1749916
	c-0.1599808,0-0.3104706-0.062191-0.4230595-0.1744194c-0.2329311-0.2337303-0.2329502-0.6139793-0.0006905-0.8469696
	C28.2388802,38.0282364,28.38937,37.9660492,28.5493507,37.9660492 M28.5493507,37.6660461
	c-0.2299252,0-0.4598999,0.0875549-0.6355495,0.2626534c-0.3502007,0.3512993-0.3502007,0.9197998,0,1.2711983
	c0.1756496,0.1751022,0.4056244,0.2626495,0.6355495,0.2626495s0.4597988-0.0875473,0.6352501-0.2626495
	c0.3505993-0.3513985,0.3505993-0.919899,0-1.2711983C29.0091496,37.7536011,28.7792759,37.6660461,28.5493507,37.6660461
	L28.5493507,37.6660461z"/>
<path class="st3" d="M35,27.7001953c-5.3486328,0-9.7001953-4.3515625-9.7001953-9.7001953S29.6513672,8.2998047,35,8.2998047
	S44.7001953,12.6513672,44.7001953,18S40.3486328,27.7001953,35,27.7001953z M35,9.7001953
	c-2.2177734,0-4.3017578,0.8632813-5.8691406,2.4311523C27.5634766,13.6982422,26.7001953,15.7827148,26.7001953,18
	s0.8632813,4.3017578,2.4311523,5.8691406C30.6982422,25.4365234,32.7822266,26.2998047,35,26.2998047
	c2.2167969,0,4.3007813-0.8632813,5.8691406-2.4306641C42.4365234,22.3012695,43.2998047,20.2172852,43.2998047,18
	s-0.8632813-4.3012695-2.4306641-5.8686523C39.3007813,10.5634766,37.2167969,9.7001953,35,9.7001953z M35.5,22.6987305
	c-0.4433594,0-0.8818359-0.0698242-1.3046875-0.2075195c-0.7675781-0.2509766-1.4423828-0.7143555-1.9521484-1.340332
	c-0.5097656-0.6264648-0.8271484-1.3818359-0.9169922-2.184082c-0.0170898-0.1518555-0.1455078-0.2666016-0.2983398-0.2666016
	h-0.7280273v-1.4003906h0.7270508c0.152832,0,0.28125-0.1147461,0.2983398-0.2666016
	c0.0898438-0.8032227,0.4067383-1.5585938,0.9160156-2.1850586c0.5107422-0.6269531,1.1865234-1.0908203,1.9541016-1.3413086
	c0.421875-0.1376953,0.8613281-0.2075195,1.3046875-0.2075195c0.3583984,0,0.7167969,0.0463867,1.0644531,0.137207
	c0.6669922,0.175293,1.2763672,0.5092773,1.7802734,0.9736328l-1.2167969,0.8105469
	c-0.3320313-0.2368164-0.7138672-0.3994141-1.1162109-0.4746094c-0.1699219-0.03125-0.3408203-0.0473633-0.5117188-0.0473633
	c-0.3144531,0-0.6230469,0.0522461-0.9179688,0.1552734c-0.4580078,0.1586914-0.8691406,0.4355469-1.1894531,0.8007813
	c-0.3193359,0.3642578-0.5390625,0.8085938-0.6367188,1.2851563c-0.0175781,0.0883789,0.0048828,0.1801758,0.0615234,0.25
	c0.0566406,0.0693359,0.1425781,0.1098633,0.2324219,0.1098633h4.6503906v1.4003906h-4.6503906
	c-0.0898438,0-0.1757813,0.0405273-0.2324219,0.1098633c-0.0566406,0.0698242-0.0791016,0.1616211-0.0615234,0.25
	c0.0976563,0.4765625,0.3173828,0.9208984,0.6367188,1.2851563c0.3203125,0.3652344,0.7314453,0.6420898,1.1894531,0.8012695
	c0.2949219,0.1025391,0.6035156,0.1547852,0.9179688,0.1547852c0.1708984,0,0.3417969-0.0161133,0.5117188-0.0473633
	c0.4023438-0.074707,0.7832031-0.237793,1.1152344-0.4746094l1.2167969,0.8105469
	c-0.5048828,0.4643555-1.1142578,0.7978516-1.7802734,0.972168C36.2167969,22.652832,35.859375,22.6987305,35.5,22.6987305z"/>
<path class="st4" d="M35,8.5999985c5.1831818,0,9.4000015,4.2168198,9.4000015,9.4000015S40.1831818,27.4000015,35,27.4000015
	S25.6000004,23.1831818,25.6000004,18S29.8168201,8.5999985,35,8.5999985 M35,26.5999985
	c2.2970886,0,4.456749-0.8945274,6.0811806-2.5188484C42.705471,22.456749,43.5999985,20.2970886,43.5999985,18
	s-0.8945274-4.456749-2.5188484-6.0811806C39.456749,10.294529,37.2970886,9.4000015,35,9.4000015
	s-4.4567509,0.8945274-6.0811806,2.5188484C27.2945309,13.543251,26.3999996,15.7029114,26.3999996,18
	s0.8945313,4.456749,2.5188503,6.0811806C30.5432491,25.705471,32.7029114,26.5999985,35,26.5999985 M35.4992294,13.5992889
	c0.33358,0,0.6663322,0.0429001,0.9889908,0.127491c0.4936523,0.1294365,0.9530029,0.3525238,1.355957,0.655941
	l-0.7172623,0.4777565c-0.3240471-0.1996994-0.6838303-0.3391762-1.0600548-0.409256
	c-0.1865311-0.0347023-0.3772812-0.0523033-0.5669708-0.0523033c-0.3467903,0-0.6887283,0.0576515-1.0161591,0.1712914
	c-0.5077209,0.1760521-0.9631004,0.4828911-1.3167915,0.8871918c-0.3539085,0.4042969-0.5976601,0.8963203-0.7048798,1.4228783
	c-0.0359306,0.1765022,0.0093193,0.3598099,0.1232719,0.4993095c0.1139603,0.139492,0.2845497,0.2204094,0.4646683,0.2204094
	h4.3500023v0.8000031h-4.3500023c-0.1801186,0-0.350708,0.0809174-0.4646683,0.2204094
	c-0.1139526,0.1394997-0.1592026,0.3228073-0.1232719,0.4993095c0.1072197,0.5265579,0.3509712,1.0185814,0.7047501,1.4227295
	c0.3538208,0.4044495,0.8092003,0.7112885,1.316761,0.8872795c0.3275986,0.1137009,0.6695404,0.1713524,1.0163193,0.1713524
	c0.1897202,0,0.3804817-0.017601,0.5670815-0.05233c0.3761139-0.0700569,0.7358246-0.2094955,1.0598412-0.4091644
	l0.7161026,0.4772606c-0.4028549,0.3029251-0.8619347,0.5255852-1.3551636,0.6547127
	c-0.3223915,0.0844002-0.6547699,0.1271896-0.9879303,0.1271896c-0.41185,0-0.8191605-0.0648308-1.2106514-0.1926994
	c-0.7128296-0.232811-1.3398895-0.66325-1.8134308-1.2448311c-0.4734802-0.5814095-0.7679081-1.2826996-0.8514786-2.0280685
	c-0.034029-0.3036003-0.29076-0.5331497-0.5962601-0.5331497h-0.4279995v-0.8000031h0.427
	c0.3055992,0,0.5623703-0.2296867,0.5962887-0.5333977c0.0833015-0.7457504,0.3776493-1.4474411,0.8512592-2.0292625
	c0.4736023-0.5818901,1.1008911-1.0125275,1.8141327-1.245388C34.6801109,13.6641083,35.0873985,13.5992889,35.4992294,13.5992889
	 M35,8c-5.5230007,0-10,4.4770012-10,10s4.4769993,10,10,10s10-4.4770012,10-10S40.5229988,8,35,8L35,8z M35,26
	c-2.1217003,0-4.156601-0.8428993-5.6569004-2.3431015C27.8428993,22.156601,27,20.1217003,27,18
	s0.8428993-4.156601,2.3430996-5.6568985C30.843399,10.8428993,32.8782997,10,35,10s4.156601,0.8428993,5.6568985,2.3431015
	C42.1571007,13.843399,43,15.8782997,43,18s-0.8428993,4.156601-2.3431015,5.6568985C39.156601,25.1571007,37.1217003,26,35,26
	L35,26z M35.4992294,12.9992905c-0.4720421,0-0.9435768,0.0742798-1.3968277,0.2223091
	c-0.8212013,0.2681007-1.5479012,0.7670021-2.0932007,1.4370003C31.4638004,15.3286018,31.1229,16.1413994,31.0270004,17H30v2
	h1.0279999c0.0962009,0.8581009,0.4372005,1.6705017,0.982502,2.3400993
	c0.5451965,0.6696014,1.2714996,1.1682014,2.0923996,1.4363022c0.453331,0.1480713,0.9247971,0.2223434,1.3969231,0.2223434
	c0.3826981,0,0.765873-0.0488358,1.1398773-0.1467438c0.8353996-0.2187004,1.5900993-0.6730995,2.1742973-1.3090019
	l-1.7000008-1.1329994c-0.331398,0.2803001-0.7300987,0.4693985-1.1568985,0.5489006
	c-0.1513672,0.0281639-0.3044167,0.0421753-0.4572105,0.0421753c-0.2779388,0-0.5550308-0.0463562-0.8195877-0.138176
	c-0.4101028-0.1422005-0.7761002-0.3888016-1.0619011-0.7154999C33.3325005,19.8208008,33.1366005,19.4253006,33.0499992,19H38v-2
	h-4.9500008c0.0866013-0.4253006,0.2825012-0.8208008,0.5684013-1.1473999
	c0.2858009-0.3266983,0.6517982-0.5732994,1.0619011-0.7154999c0.2645798-0.0918312,0.5416222-0.138176,0.8195877-0.138176
	c0.1527672,0,0.3058701,0.0140152,0.4572105,0.0421753c0.4267998,0.0795021,0.8255005,0.2686005,1.1568985,0.5489006
	l1.7010002-1.1329994c-0.5840988-0.6366005-1.3389969-1.0914993-2.1745987-1.3106003
	C36.2659569,13.0482292,35.882431,12.9992905,35.4992294,12.9992905L35.4992294,12.9992905z"/>
<path class="st5" d="M35,8.2999992c5.3485985,0,9.7000008,4.3514023,9.7000008,9.7000008S40.3485985,27.7000008,35,27.7000008
	S25.2999992,23.3485985,25.2999992,18S29.6513996,8.2999992,35,8.2999992 M35,26.2999992
	c2.2169609,0,4.3012886-0.8633308,5.8690414-2.4309807C42.4366684,22.3012886,43.2999992,20.2169609,43.2999992,18
	s-0.8633308-4.3012886-2.4309807-5.8690414C39.3012886,10.5633316,37.2169609,9.7000008,35,9.7000008
	s-4.3012905,0.8633308-5.8690395,2.4309807C27.5633297,13.6987114,26.7000008,15.7830391,26.7000008,18
	s0.8633289,4.3012886,2.4309788,5.8690414C30.6987095,25.4366684,32.7830391,26.2999992,35,26.2999992 M35.4992294,13.2992897
	c0.3592415,0,0.7175903,0.0461998,1.0650787,0.1372986c0.6672935,0.1749725,1.2764778,0.5088959,1.7802887,0.9732819
	l-1.217247,0.8107796c-0.3317184-0.2368355-0.7131348-0.3995628-1.1153717-0.4744911
	c-0.1684685-0.0313492-0.3407593-0.0472374-0.5120888-0.0472374c-0.3132286,0-0.6220703,0.0520706-0.9178696,0.1547394
	c-0.4585686,0.1590004-0.8698616,0.4361305-1.1893501,0.8013382c-0.3196487,0.3651619-0.5397987,0.8095512-0.6366386,1.285141
	c-0.017971,0.0882492,0.0046577,0.1799088,0.0616379,0.249649c0.0569725,0.0697517,0.1422729,0.1102104,0.2323303,0.1102104
	h4.6500015v1.4000015h-4.6500015c-0.0900574,0-0.1753578,0.0404587-0.2323303,0.1102104
	c-0.0569801,0.0697403-0.0796089,0.1613998-0.0616379,0.249649c0.0968399,0.4755898,0.3169899,0.9199791,0.6365776,1.2850685
	c0.3195496,0.3652802,0.7308426,0.6424103,1.1893311,0.8013916c0.2958908,0.1026878,0.6047287,0.1547585,0.9179497,0.1547585
	c0.1713524,0,0.3436508-0.0158997,0.5121498-0.0472488c0.4021568-0.074913,0.7835541-0.2376328,1.1152573-0.4744415
	l1.2161674,0.8105392c-0.5038567,0.4638214-1.1128654,0.7972755-1.7797432,0.9718513
	c-0.3471718,0.0908928-0.7051201,0.1369705-1.0639,0.1369705c-0.443531,0-0.8821907-0.0698204-1.3037796-0.207531
	c-0.7676811-0.2507095-1.4429817-0.7142677-1.9529228-1.3405571c-0.5099087-0.6261406-0.8269978-1.3813896-0.9169884-2.184082
	c-0.0170193-0.1517982-0.14538-0.2665787-0.29813-0.2665787h-0.7280006v-1.4000015h0.7270012
	c0.1527996,0,0.2811794-0.1148376,0.2981491-0.2667007c0.0897007-0.8031082,0.4066906-1.5587692,0.916729-2.1853294
	c0.5100327-0.6266594,1.1855812-1.0904388,1.9536629-1.3411903C34.6170883,13.3690987,35.0557213,13.2992897,35.4992294,13.2992897
	 M35,8c-5.5230007,0-10,4.4770012-10,10s4.4769993,10,10,10s10-4.4770012,10-10S40.5229988,8,35,8L35,8z M35,26
	c-2.1217003,0-4.156601-0.8428993-5.6569004-2.3431015C27.8428993,22.156601,27,20.1217003,27,18
	s0.8428993-4.156601,2.3430996-5.6568985C30.843399,10.8428993,32.8782997,10,35,10s4.156601,0.8428993,5.6568985,2.3431015
	C42.1571007,13.843399,43,15.8782997,43,18s-0.8428993,4.156601-2.3431015,5.6568985C39.156601,25.1571007,37.1217003,26,35,26
	L35,26z M35.4992294,12.9992905c-0.4720421,0-0.9435768,0.0742798-1.3968277,0.2223091
	c-0.8212013,0.2681007-1.5479012,0.7670021-2.0932007,1.4370003C31.4638004,15.3286018,31.1229,16.1413994,31.0270004,17H30v2
	h1.0279999c0.0962009,0.8581009,0.4372005,1.6705017,0.982502,2.3400993
	c0.5451965,0.6696014,1.2714996,1.1682014,2.0923996,1.4363022c0.453331,0.1480713,0.9247971,0.2223434,1.3969231,0.2223434
	c0.3826981,0,0.765873-0.0488358,1.1398773-0.1467438c0.8353996-0.2187004,1.5900993-0.6730995,2.1742973-1.3090019
	l-1.7000008-1.1329994c-0.331398,0.2803001-0.7300987,0.4693985-1.1568985,0.5489006
	c-0.1513672,0.0281639-0.3044167,0.0421753-0.4572105,0.0421753c-0.2779388,0-0.5550308-0.0463562-0.8195877-0.138176
	c-0.4101028-0.1422005-0.7761002-0.3888016-1.0619011-0.7154999C33.3325005,19.8208008,33.1366005,19.4253006,33.0499992,19H38v-2
	h-4.9500008c0.0866013-0.4253006,0.2825012-0.8208008,0.5684013-1.1473999
	c0.2858009-0.3266983,0.6517982-0.5732994,1.0619011-0.7154999c0.2645798-0.0918312,0.5416222-0.138176,0.8195877-0.138176
	c0.1527672,0,0.3058701,0.0140152,0.4572105,0.0421753c0.4267998,0.0795021,0.8255005,0.2686005,1.1568985,0.5489006
	l1.7010002-1.1329994c-0.5840988-0.6366005-1.3389969-1.0914993-2.1745987-1.3106003
	C36.2659569,13.0482292,35.882431,12.9992905,35.4992294,12.9992905L35.4992294,12.9992905z"/>
<path class="st0" d="M19.0288086,53.7001953c-0.1611328,0-0.3120117-0.0634766-0.425293-0.1767578L8.5185547,43.3613281
	c-0.2314453-0.2333984-0.230957-0.6113281,0.0009766-0.84375l4.2724609-4.2851563
	c0.453125-0.453125,1.0532227-0.703125,1.6889648-0.703125c0.1489258,0,0.2978516,0.0136719,0.4448242,0.0419922
	c0.019043,0.0029297,0.0375977,0.0048828,0.0561523,0.0048828c0.1088867,0,0.2109375-0.0585938,0.2636719-0.1572266
	c1.9208984-3.5498047,5.5166016-5.5864258,9.8652344-5.5864258c1.5200195,0,2.9941406,0.2944336,4.3818359,0.8745117
	c0.0366211,0.015625,0.0761719,0.0234375,0.1157227,0.0234375h10.015625c0.9931641,0,1.9267578,0.4472656,2.5605469,1.2275391
	c0.0537109,0.0664063,0.1337891,0.1064453,0.21875,0.1103516c0.0048828,0,0.0087891,0,0.0136719,0
	c0.0810547,0,0.1582031-0.0322266,0.2148438-0.0908203l5.2998047-5.4477539
	c0.6376953-0.7382813,1.5488281-1.1538086,2.5117188-1.1538086c0.7753906,0,1.5283203,0.2744141,2.1201172,0.7734375
	c0.6708984,0.5668945,1.0820313,1.362793,1.1552734,2.2402344c0.0742188,0.8774414-0.1972656,1.7294922-0.7646484,2.4003906
	c0,0-8.0869141,9.6699219-8.1201172,9.7070313c-1.4658203,1.4257813-3.3945313,2.2089844-5.4345703,2.2089844H27.4589844
	c-0.7792969,0-1.5170898,0.2978516-2.078125,0.8388672l-0.9370117,0.9033203
	c-0.0834961,0.0810547-0.112793,0.2021484-0.0751953,0.3125c0.2949219,0.8652344,0.0722656,1.8388672-0.5683594,2.4794922
	l-4.3525391,4.2880859C19.3354492,53.6386719,19.1865234,53.7001953,19.0288086,53.7001953L19.0288086,53.7001953z
	 M14.484375,38.7255859c-0.3188477,0-0.6191406,0.125-0.8457031,0.3525391l-3.6411133,3.6513672
	c-0.1166992,0.1171875-0.1166992,0.3056641-0.0004883,0.4228516l8.8251953,8.8925781
	c0.0585938,0.0595703,0.1357422,0.0888672,0.2128906,0.0888672c0.0761719,0,0.1523438-0.0283203,0.2104492-0.0859375
	l3.7124023-3.6572266c0.21875-0.21875,0.3447266-0.5224609,0.347168-0.8359375
	c0.0024414-0.3232422-0.1220703-0.6279297-0.3505859-0.8554688c-3.246582-3.2431641-5.1147461-5.1152344-6.1982422-6.2011719
	c-1.5253906-1.5273438-1.5253906-1.5273438-1.6279297-1.5859375C14.9277344,38.7890625,14.7075195,38.7255859,14.484375,38.7255859z
	 M25.1103516,33.0292969c-3.9204102,0-7.1401367,1.8212891-8.8334961,4.9980469
	c-0.0620117,0.1171875-0.0410156,0.2607422,0.0527344,0.3535156l7.0366211,7.0361328
	c0.0581055,0.0585938,0.1352539,0.0878906,0.2119141,0.0878906c0.0751953,0,0.1499023-0.0273438,0.2084961-0.0839844
	l0.7631836-0.7363281c0.784668-0.7578125,1.8178711-1.1757813,2.9091797-1.1757813h11.9404297
	c1.7099609,0,3.3300781-0.6513672,4.5615234-1.8330078l8.0791016-9.6552734
	c0.7460938-0.8837891,0.6347656-2.2109375-0.2480469-2.9570313c-0.3769531-0.3178711-0.8564453-0.4926758-1.3505859-0.4926758
	c-0.6201172,0-1.2050781,0.2705078-1.6035156,0.7416992c-0.0371094,0.0405273-5.8671875,6.0322266-5.8671875,6.0322266
	c-0.0644531,0.0654297-0.0947266,0.1572266-0.0830078,0.2480469c0.0195313,0.1425781,0.0292969,0.2861328,0.0292969,0.4306641
	c0,1.8154297-1.4775391,3.2929688-3.2929688,3.2929688h-7.328125c-0.3295898,0-0.5981445-0.2685547-0.5981445-0.5976563
	c0-0.3300781,0.2685547-0.5986328,0.5981445-0.5986328h7.328125c1.15625,0,2.0966797-0.9404297,2.0966797-2.0966797
	c0-1.1552734-0.9404297-2.0957031-2.0966797-2.0957031h-10.199707c-0.0830078,0-0.1635742-0.0166016-0.2397461-0.0498047
	C27.8994141,33.3144531,26.5288086,33.0292969,25.1103516,33.0292969z"/>
<path class="st1" d="M50.4428978,27.6756783c0.7052803,0.0000305,1.3898468,0.2496719,1.9269371,0.7023315
	c1.2611504,1.0661392,1.4208221,2.9584999,0.3539925,4.2206688l-6.6340294,7.931282
	c-1.0524483,1.2586746-1.3916855,1.6643906-1.4658165,1.750679c-0.0015259,0.0014496-0.0030098,0.0028763-0.0044441,0.0042725
	c-1.4052315,1.3675461-3.2590408,2.1206894-5.2199402,2.1206894H27.4591961c-0.8578491,0-1.6700897,0.3281479-2.2867908,0.9237061
	l-0.9366989,0.9033012c-0.1676006,0.1616096-0.2265606,0.4056015-0.1512699,0.6259117
	c0.2588596,0.7575073,0.064209,1.608902-0.4927197,2.1658592l-4.35462,4.29002
	c-0.0560799,0.0552406-0.13027,0.0856705-0.20891,0.0856705c-0.0463905,0-0.135561-0.0114517-0.2117214-0.0882187
	L8.7315264,43.1500092c-0.1152506-0.1161575-0.1150904-0.3048782,0.0003595-0.4206772l4.2721405-4.284832
	c0.3970098-0.3969498,0.9219694-0.6155586,1.4781694-0.6155586c0.1298504,0,0.2604704,0.0122681,0.3882103,0.0364685
	c0.0373945,0.0070877,0.0748005,0.0105247,0.1118574,0.0105247c0.217186,0,0.4213572-0.1182976,0.527523-0.3144722
	c1.866909-3.4499321,5.3662701-5.4285622,9.6008091-5.4285622c1.4802608,0,2.9156208,0.2865181,4.2662106,0.8516121
	c0.0733604,0.0306854,0.1520805,0.0464859,0.2315903,0.0464859h10.0157986c0.9028015,0,1.7509422,0.4065704,2.3269501,1.1154709
	c0.1080322,0.1329498,0.2677422,0.2133789,0.4388695,0.2210312c0.0089645,0.0004005,0.0178947,0.0005989,0.026825,0.0005989
	c0.1615829,0,0.3168106-0.0652504,0.4300156-0.1815987l5.3243027-5.474041
	C48.7394447,28.0535316,49.5674553,27.6756401,50.4428978,27.6756783 M32.2960052,39.0163994
	c-0.1643791,0-0.2981091-0.1337318-0.2981091-0.2980995s0.1337299-0.2980995,0.2981091-0.2980995h7.3281898
	c1.3214302,0,2.3964996-1.0750694,2.3964996-2.3964996c0-1.32127-1.0750694-2.3961983-2.3964996-2.3961983H29.4244957
	c-0.0412693,0-0.0812988-0.0083847-0.1196194-0.0251999c-1.3246002-0.579483-2.7359009-0.8733025-4.1946793-0.8733025
	c-4.0348015,0-7.3509903,1.8799324-9.0982704,5.1577606c-0.1242104,0.2329979-0.0814905,0.5198097,0.1052094,0.7065086
	l7.0366001,7.0363007c0.1170654,0.1170578,0.270607,0.1757317,0.4242916,0.1757317
	c0.1500874,0,0.300312-0.0560074,0.4166393-0.1682816l0.7635098-0.7369003
	c0.7280598-0.7033577,1.6872997-1.0907173,2.7010193-1.0907173h11.9404011c1.7870674,0,3.4807777-0.6811905,4.7691307-1.9180832
	c0.0157585-0.0151291,0.0306702-0.0310974,0.0446892-0.0478516l8.0542107-9.6285553
	c0.8539696-1.0108128,0.7276688-2.5273819-0.2821732-3.3812332c-0.4306374-0.3630676-0.9787598-0.5630188-1.5433998-0.5630188
	c-0.7086983,0-1.3770294,0.3090706-1.8225784,0.8353806c-0.0466919,0.0506401-0.5237885,0.5409393-2.104599,2.1655197
	l-3.7596512,3.8641586c-0.1280289,0.1315994-0.1887512,0.3145828-0.1648102,0.4966202
	c0.0170021,0.129261,0.0264816,0.2596817,0.0264816,0.3913612c0,1.6501808-1.3425217,2.9926987-2.9927025,2.9926987H32.2960052
	 M19.0353203,52.4341011c0.1520691,0,0.3042183-0.0574646,0.4210663-0.1725807l3.7154694-3.6604614
	c0.5816002-0.5815887,0.579401-1.5301208-0.0051899-2.1147194c-3.238369-3.2338791-5.1052799-5.1045303-6.1899891-6.1914177
	c-1.5622911-1.5654297-1.5622911-1.5654297-1.6980705-1.6420326c-0.2403402-0.1485176-0.5150003-0.2270164-0.7943201-0.2270164
	c-0.3986006,0.0000153-0.7741804,0.1560898-1.0581703,0.4400787l-3.6410999,3.6516991
	c-0.2330999,0.2337914-0.2335501,0.611969-0.0009899,0.846302l8.8254004,8.8927994
	C18.7266979,52.3749199,18.8809681,52.4341011,19.0353203,52.4341011 M50.4429283,27.0756798
	c-1.0118866-0.0000496-2.0173874,0.4231339-2.7261314,1.2449188l-5.2999916,5.4475021
	c-0.6693001-0.8237-1.6899109-1.337101-2.7926102-1.337101H29.6083965c-1.4251995-0.5963001-2.9375-0.8980999-4.4978008-0.8980999
	c-4.3250999,0-8.1016998,1.9976025-10.128499,5.7430019c-0.1655788-0.0313759-0.3329983-0.0469589-0.4998999-0.0469589
	c-0.693821,0-1.3801336,0.2690735-1.902401,0.7912598l-4.2727995,4.2854996
	c-0.3488503,0.3498993-0.3495502,0.9160004-0.0014105,1.2668991l10.0850105,10.1618996
	c0.1754303,0.1768417,0.4064655,0.2655678,0.6375904,0.2655678c0.2274857,0,0.4550591-0.0858994,0.6300087-0.2582703
	l4.3546009-4.2899971c0.7397995-0.7398033,0.9647999-1.8351021,0.6394005-2.7873001L25.5888958,45.7612
	c0.5044003-0.4870987,1.1683998-0.7556,1.8703003-0.7556h11.9404011c2.1184082,0,4.1204987-0.8134995,5.6383972-2.290699
	c0.0625-0.0607033-0.4740982,0.5713997,8.1459999-9.7312012c1.278511-1.5125999,1.0872002-3.7840004-0.4267998-5.0639
	C52.0843773,27.3527451,51.2615356,27.0757179,50.4429283,27.0756798L50.4429283,27.0756798z M32.2960052,39.6164017h7.3281898
	c1.981102,0,3.592701-1.6116028,3.592701-3.592701c0-0.1580009-0.0112-0.3145027-0.031601-0.4696007
	c5.1271019-5.2702999,5.8501015-6.0107994,5.8809013-6.0475998c0.355587-0.4196739,0.8643456-0.6358376,1.3758583-0.6358376
	c0.4094315,0,0.8205872,0.1384048,1.1566505,0.4217377c0.756691,0.639801,0.8524895,1.7754993,0.2105904,2.5352993
	l-8.0560989,9.6308002c-1.1763916,1.1293983-2.7210007,1.7509003-4.3535995,1.7509003H27.4591961
	c-1.1700993,0-2.2777004,0.4474983-3.1178989,1.2591972l-0.7633018,0.736702l-7.0365982-7.0363007
	c1.6445999-3.0851974,4.7304993-4.8399963,8.5688-4.8399963c1.3757992,0,2.7058983,0.2768974,3.9541988,0.822998
	c0.1137009,0.0499001,0.2362003,0.0755005,0.3600998,0.0755005h10.1996994c0.9738998,0,1.7965012,0.7941971,1.7965012,1.7961998
	c0,0.9906998-0.8056908,1.7964973-1.7965012,1.7964973h-7.3281898c-0.4959087,0-0.8981094,0.4022026-0.8981094,0.8981018
	C31.3978958,39.2145004,31.8000965,39.6164017,32.2960052,39.6164017L32.2960052,39.6164017z M19.0352955,51.8340988
	l-8.8253994-8.8927994l3.6410999-3.6516991c0.1735544-0.1735573,0.4015961-0.2637138,0.6333189-0.2637253
	c0.1637506-0.0000076,0.3293219,0.0450058,0.4788809,0.1374245c0.1554003,0.0946999-0.2909994-0.3116989,7.779501,7.7476006
	c0.3589993,0.3590012,0.3396988,0.9310989,0.0049,1.2658997L19.0352955,51.8340988L19.0352955,51.8340988z"/>
<path class="st2" d="M50.4429169,27.375679c0.7759209,0.000042,1.5291481,0.2747421,2.1205978,0.7732201
	c1.3874702,1.1729393,1.5630302,3.2549419,0.3903923,4.642292l-6.6339607,7.9312096
	c-1.2050705,1.4412003-1.4558487,1.7411194-1.4911804,1.7775078c-1.4615479,1.4223633-3.3896713,2.2056923-5.4291687,2.2056923
	H27.4591961c-0.7796803,0-1.51791,0.2982521-2.0785503,0.8396492l-0.9366989,0.9033012
	c-0.0837898,0.0808067-0.1132813,0.2028008-0.0756302,0.3129578c0.295599,0.8649902,0.0727787,1.8377304-0.566061,2.4765816
	l-4.3546085,4.2900085c-0.1125603,0.1109009-0.2615318,0.1719704-0.4194603,0.1719704
	c-0.1606808,0-0.3114815-0.062809-0.4246502-0.1768913l-10.08498-10.1618652
	c-0.2311306-0.2329636-0.2307301-0.6114807,0.0008898-0.843792l4.2724695-4.2851715
	c0.4536705-0.4536018,1.0539503-0.7034111,1.69028-0.7034111c0.14855,0,0.2979507,0.0140419,0.4440603,0.0417213
	c0.0186968,0.0035439,0.0373945,0.0052605,0.0559225,0.0052605c0.108593,0,0.2106848-0.0591469,0.2637672-0.1572418
	c1.92097-3.549839,5.5164995-5.5857773,9.8646498-5.5857773c1.5202312,0,2.9945507,0.2943382,4.3820114,0.8748474
	c0.0366688,0.0153503,0.0760288,0.0232544,0.1157894,0.0232544h10.0157986c0.9935417,0,1.9265404,0.4469566,2.5597801,1.2262878
	c0.0540199,0.0664673,0.1338692,0.1066895,0.2194405,0.1105118c0.0044861,0.0001984,0.0089569,0.0002975,0.0134239,0.0002975
	c0.08078,0,0.15839-0.0326309,0.2149849-0.0907974l5.3121529-5.4607735
	C48.5693054,27.7914619,49.4801369,27.3756294,50.4429169,27.375679 M32.2960052,39.3163986
	c-0.3297997,0-0.5981083-0.2683105-0.5981083-0.5980988s0.2683086-0.5980988,0.5981083-0.5980988h7.3281898
	c1.1560097,0,2.0965004-0.9404907,2.0965004-2.0965004c0-1.1558495-0.9404907-2.0962029-2.0965004-2.0962029H29.4244957
	c-0.0830288,0-0.1636295-0.0168877-0.2398586-0.0503464c-1.2864513-0.5627899-2.6572914-0.8481522-4.07444-0.8481522
	c-3.9203815,0-7.1400814,1.8220215-8.83354,4.9988785c-0.0621014,0.1165009-0.040741,0.2599106,0.0526085,0.3532639
	l7.0366001,7.0363007c0.0585308,0.0585251,0.1353035,0.0878563,0.2121468,0.0878563
	c0.0750465,0,0.1501598-0.0280037,0.2083244-0.0841408l0.7633991-0.7367973
	c0.7842903-0.757679,1.8175507-1.1749611,2.9094601-1.1749611h11.9404011c1.7092285,0,3.3291588-0.6514969,4.5837097-1.8584213
	l8.0551605-9.6296692c0.7472496-0.8845081,0.6368675-2.2114601-0.2463913-2.9582672
	c-0.3765984-0.3175201-0.8560486-0.492382-1.3500214-0.492382c-0.6203499,0-1.2052574,0.2704086-1.6012878,0.7379417
	c-0.037529,0.04142-0.4767418,0.4927902-2.1108818,2.1721783l-3.7596207,3.86413
	c-0.0640182,0.0657997-0.0943794,0.1572914-0.0824089,0.2483101c0.0186996,0.1421776,0.0290413,0.2856407,0.0290413,0.430481
	c0,1.8156013-1.4771004,3.2926979-3.2927017,3.2926979H32.2960052 M19.0353088,52.1341019
	c0.0760345,0,0.1521053-0.0287323,0.2105274-0.0862923l3.7138901-3.6588783
	c0.4646301-0.4646301,0.462429-1.2228317-0.0050507-1.6903114c-3.2385597-3.2340698-5.1055698-5.1048317-6.1903496-6.1917801
	c-1.5333395-1.5364304-1.5333395-1.5364304-1.6434298-1.5987511c-0.1929102-0.1192093-0.4130402-0.1822205-0.63659-0.1822205
	c-0.31847,0.0000114-0.6187201,0.1248817-0.8457499,0.3519135l-3.6410999,3.6516991
	c-0.1165504,0.11689-0.1167707,0.3059807-0.0005007,0.4231377l8.8253994,8.8927994
	C18.8809948,52.1045074,18.9581337,52.1341019,19.0353088,52.1341019 M50.4429283,27.0756798
	c-1.0118866-0.0000496-2.0173874,0.4231339-2.7261314,1.2449188l-5.2999916,5.4475021
	c-0.6693001-0.8237-1.6899109-1.337101-2.7926102-1.337101H29.6083965c-1.4251995-0.5963001-2.9375-0.8980999-4.4978008-0.8980999
	c-4.3250999,0-8.1016998,1.9976025-10.128499,5.7430019c-0.1655788-0.0313759-0.3329983-0.0469589-0.4998999-0.0469589
	c-0.693821,0-1.3801336,0.2690735-1.902401,0.7912598l-4.2727995,4.2854996
	c-0.3488503,0.3498993-0.3495502,0.9160004-0.0014105,1.2668991l10.0850105,10.1618996
	c0.1754303,0.1768417,0.4064655,0.2655678,0.6375904,0.2655678c0.2274857,0,0.4550591-0.0858994,0.6300087-0.2582703
	l4.3546009-4.2899971c0.7397995-0.7398033,0.9647999-1.8351021,0.6394005-2.7873001L25.5888958,45.7612
	c0.5044003-0.4870987,1.1683998-0.7556,1.8703003-0.7556h11.9404011c2.1184082,0,4.1204987-0.8134995,5.6383972-2.290699
	c0.0625-0.0607033-0.4740982,0.5713997,8.1459999-9.7312012c1.278511-1.5125999,1.0872002-3.7840004-0.4267998-5.0639
	C52.0843773,27.3527451,51.2615356,27.0757179,50.4429283,27.0756798L50.4429283,27.0756798z M32.2960052,39.6164017h7.3281898
	c1.981102,0,3.592701-1.6116028,3.592701-3.592701c0-0.1580009-0.0112-0.3145027-0.031601-0.4696007
	c5.1271019-5.2702999,5.8501015-6.0107994,5.8809013-6.0475998c0.355587-0.4196739,0.8643456-0.6358376,1.3758583-0.6358376
	c0.4094315,0,0.8205872,0.1384048,1.1566505,0.4217377c0.756691,0.639801,0.8524895,1.7754993,0.2105904,2.5352993
	l-8.0560989,9.6308002c-1.1763916,1.1293983-2.7210007,1.7509003-4.3535995,1.7509003H27.4591961
	c-1.1700993,0-2.2777004,0.4474983-3.1178989,1.2591972l-0.7633018,0.736702l-7.0365982-7.0363007
	c1.6445999-3.0851974,4.7304993-4.8399963,8.5688-4.8399963c1.3757992,0,2.7058983,0.2768974,3.9541988,0.822998
	c0.1137009,0.0499001,0.2362003,0.0755005,0.3600998,0.0755005h10.1996994c0.9738998,0,1.7965012,0.7941971,1.7965012,1.7961998
	c0,0.9906998-0.8056908,1.7964973-1.7965012,1.7964973h-7.3281898c-0.4959087,0-0.8981094,0.4022026-0.8981094,0.8981018
	C31.3978958,39.2145004,31.8000965,39.6164017,32.2960052,39.6164017L32.2960052,39.6164017z M19.0352955,51.8340988
	l-8.8253994-8.8927994l3.6410999-3.6516991c0.1735544-0.1735573,0.4015961-0.2637138,0.6333189-0.2637253
	c0.1637506-0.0000076,0.3293219,0.0450058,0.4788809,0.1374245c0.1554003,0.0946999-0.2909994-0.3116989,7.779501,7.7476006
	c0.3589993,0.3590012,0.3396988,0.9310989,0.0049,1.2658997L19.0352955,51.8340988L19.0352955,51.8340988z"/>
</svg>
