<svg width="65" height="73" viewBox="0 0 65 73" fill="none" xmlns="http://www.w3.org/2000/svg">
<g filter="url(#filter0_d)">
<path d="M27.7563 37.5913H32.4829C36.2427 37.5913 38.5254 39.4175 38.5254 42.4253C38.5254 45.272 36.1084 47.2324 32.5903 47.2324C28.8306 47.2324 26.4941 45.3794 26.333 42.479H16.9336C17.3096 50.0254 23.3252 54.9668 32.4292 54.9668C42.0703 54.9668 48.5156 50.3745 48.5156 43.2578C48.5156 37.9404 44.7827 34.5029 39.0356 33.9658V33.751C43.7622 32.9185 47.0923 29.5078 47.0923 24.8081C47.0923 18.4165 41.4258 14.2808 32.8052 14.2808C23.8086 14.2808 17.8198 19.1953 17.6855 26.6611H26.6016C26.709 23.6533 28.9917 21.6123 32.3755 21.6123C35.9204 21.6123 37.9614 23.3579 37.9614 26.1509C37.9614 28.9438 35.7861 30.7969 32.4561 30.7969H27.7563V37.5913Z" fill="#FFC400"/>
</g>
<defs>
<filter id="filter0_d" x="0.933594" y="0.280762" width="63.582" height="72.686" filterUnits="userSpaceOnUse" color-interpolation-filters="sRGB">
<feFlood flood-opacity="0" result="BackgroundImageFix"/>
<feColorMatrix in="SourceAlpha" type="matrix" values="0 0 0 0 0 0 0 0 0 0 0 0 0 0 0 0 0 0 127 0"/>
<feOffset dy="2"/>
<feGaussianBlur stdDeviation="8"/>
<feColorMatrix type="matrix" values="0 0 0 0 1 0 0 0 0 0.768627 0 0 0 0 0 0 0 0 0.35 0"/>
<feBlend mode="normal" in2="BackgroundImageFix" result="effect1_dropShadow"/>
<feBlend mode="normal" in="SourceGraphic" in2="effect1_dropShadow" result="shape"/>
</filter>
</defs>
</svg>
