<svg width="38" height="46" viewBox="0 0 38 46" fill="none" xmlns="http://www.w3.org/2000/svg">
<path d="M24.2847 35.2046C24.2848 35.2046 24.2848 35.2046 24.2848 35.2045L24.4555 35.7754M24.2847 35.2046L24.4555 35.7754M24.2847 35.2046C23.8649 35.3301 23.4734 35.5266 23.1174 35.7754H24.4555M24.4555 35.7754H25.2181" stroke="white" stroke-width="1.5"/>
<path d="M24.2847 35.2046C24.2848 35.2046 24.2848 35.2046 24.2848 35.2045L24.4555 35.7754M24.2847 35.2046L24.4555 35.7754M24.2847 35.2046C23.8649 35.3301 23.4734 35.5266 23.1174 35.7754H24.4555M24.4555 35.7754H25.2181" stroke="#FFC400" stroke-width="1.5"/>
<path d="M6.26103 14.73L6.26905 15.2299L6.26103 14.73L6.22685 14.7305C5.04551 14.7495 4.09974 14.7647 3.39804 14.8838C2.68269 15.0052 2.07565 15.2579 1.74921 15.8735C1.45116 16.4355 1.45679 17.1888 1.57696 18.0995C1.70006 19.0324 1.96636 20.2641 2.31238 21.8646L2.31413 21.8727C2.49478 22.7083 2.66312 23.4883 2.82027 24.2165C3.91197 29.2748 4.46401 31.8327 4.85612 33.1685C5.07662 33.9197 5.27056 34.3802 5.54718 34.6773C5.69544 34.8365 5.85066 34.932 5.9983 35.0045C6.06575 35.0376 6.13523 35.0676 6.19608 35.0939L6.2013 35.0962C6.26638 35.1243 6.32738 35.1507 6.39263 35.1818C6.39268 35.1818 6.39273 35.1818 6.39278 35.1819L7.0107 35.4767L7.11285 35.5254H7.22602H10.6952C8.33508 36.473 7.52477 38.7745 7.91686 40.7645C8.31345 42.7774 9.9644 44.5787 12.5466 44.414C14.8401 44.2678 16.2827 42.6144 16.6348 40.7606C16.9864 38.9092 16.2632 36.8036 14.2216 35.7199L14.2216 35.7198C14.0786 35.644 13.9138 35.5794 13.7358 35.5254H18.9773H24.1159C23.216 35.8657 22.461 36.5591 21.9502 37.3858C21.3938 38.2861 21.0993 39.3885 21.2449 40.4559L21.7403 40.3883L21.2449 40.456C22.0121 46.0772 30.0967 45.5503 30.0967 39.8612C30.0967 37.8126 28.8692 36.1572 27.1885 35.5254H30.7282H30.8526L30.9624 35.4672L31.619 35.1192C31.619 35.1192 31.6191 35.1192 31.6191 35.1192C31.8874 34.977 32.1604 34.8223 32.4028 34.5424C32.6409 34.2674 32.8199 33.9076 32.9947 33.4007C33.3394 32.4012 33.7291 30.6341 34.4475 27.3182L34.4475 27.3182C35.1557 24.0485 35.9199 20.5284 36.1455 19.4957L36.1455 19.4957C36.3474 18.5707 36.4874 17.8074 36.4992 17.1941C36.5111 16.5748 36.3943 16.0201 35.9922 15.5997C35.6053 15.1953 35.0349 15.003 34.3602 14.8945C33.6768 14.7846 32.7911 14.7477 31.6863 14.73L29.4394 14.6939V13.0382C29.4394 5.56845 23.5653 0.111408 16.8783 1.69817C14.2155 2.32998 12.1111 3.65835 10.6764 5.59658C9.24416 7.53162 8.50797 10.0356 8.50797 12.9738V14.6939L6.26103 14.73ZM24.4997 35.9231L24.3808 35.5254H24.3807L24.4997 35.9231ZM20.0702 6.03732C21.6586 6.34036 22.8398 7.10433 23.6344 8.28748C24.4376 9.48328 24.8755 11.1522 24.8755 13.3055V14.7057H18.9737H13.0719V13.3174C13.0719 10.6872 13.8252 8.67214 15.0466 7.42199C16.2546 6.1855 17.9768 5.63799 20.0702 6.03732Z" stroke="#FFEC4A"/>
<path d="M10.8583 35.7299C8.57549 36.6074 7.785 38.802 8.16214 40.7162C8.53952 42.6315 10.0981 44.3196 12.5307 44.1645C14.6937 44.0266 16.0551 42.4728 16.3892 40.714C16.723 38.9563 16.0373 36.9667 14.1044 35.9407L14.1044 35.9407C13.7044 35.7284 13.0863 35.605 12.4933 35.5663C11.9009 35.5277 11.2751 35.5696 10.8583 35.7299ZM10.8583 35.7299L10.948 35.9633L10.8582 35.73C10.8582 35.73 10.8583 35.73 10.8583 35.7299ZM24.4281 35.6836C23.4926 35.9633 22.6935 36.6586 22.1629 37.5172C21.632 38.3763 21.356 39.421 21.4926 40.4221L21.7403 40.3883L21.4926 40.4221C22.2182 45.7388 29.8467 45.2348 29.8467 39.8612C29.8467 36.9219 27.1936 34.8564 24.4281 35.6836ZM24.4281 35.6836L24.4997 35.9231L24.428 35.6836C24.4281 35.6836 24.4281 35.6836 24.4281 35.6836ZM7.11836 35.2511L7.16944 35.2754H7.22602H18.9773H30.7282H30.7904L30.8453 35.2463L31.502 34.8983C31.7668 34.758 32.0039 34.6211 32.2138 34.3787C32.4216 34.1388 32.5879 33.8135 32.7584 33.3192C33.0968 32.3376 33.4828 30.5902 34.2032 27.2653L33.9616 27.2129L34.2032 27.2652C34.9114 23.9956 35.6756 20.4753 35.9012 19.4423C36.1034 18.5163 36.238 17.7751 36.2492 17.1893C36.2605 16.6006 36.1483 16.1245 35.8115 15.7725C35.4824 15.4285 34.9797 15.2473 34.3205 15.1413C33.6569 15.0346 32.7879 14.9976 31.6823 14.9799L29.1894 14.94V13.0382C29.1894 5.692 23.4311 0.400198 16.936 1.94141C14.3229 2.56143 12.2725 3.86047 10.8774 5.74531C9.48345 7.62856 8.75797 10.0771 8.75797 12.9738V14.94L6.26504 14.9799L6.25312 14.9801C5.05298 14.9994 4.1227 15.0143 3.43989 15.1303C2.75137 15.2472 2.24172 15.4783 1.97008 15.9906C1.71264 16.4761 1.70473 17.1568 1.82481 18.0668C1.94645 18.9886 2.21065 20.211 2.55848 21.8198C2.7388 22.6539 2.9068 23.4323 3.06362 24.1589C4.15691 29.2245 4.70666 31.7717 5.096 33.0981C5.3167 33.85 5.49786 34.2574 5.73015 34.5069C5.85127 34.637 5.97832 34.7161 6.10854 34.7801C6.17043 34.8105 6.23504 34.8384 6.29738 34.8654L6.30042 34.8667C6.36521 34.8947 6.43025 34.9228 6.50029 34.9562C6.50032 34.9562 6.50034 34.9562 6.50037 34.9562L7.11836 35.2511ZM25.1255 13.3055V14.9557H18.9737H12.8219V13.3174C12.8219 10.643 13.5879 8.55733 14.8677 7.24729C16.1409 5.94408 17.9511 5.37856 20.1171 5.79175C21.7645 6.10605 23.0065 6.90418 23.842 8.14809C24.6817 9.39833 25.1255 11.1213 25.1255 13.3055Z" stroke="white" stroke-width="0.5"/>
<path d="M23.5797 21.2794C23.5797 20.3508 23.5438 20.1795 23.3243 20.0582C23.0669 19.9159 15.498 19.8689 15.165 20.0075C15.0515 20.0548 15 20.4318 15 21.2174V22.359L16.221 22.3981L17.4419 22.4373L17.5079 26.3195L17.5739 30.2017H19.1579H20.7418L20.8078 26.3195L20.8738 22.4373L22.2268 22.3985L23.5797 22.3596V21.2794Z" fill="#0B1C10"/>
<path d="M23.5797 21.2794C23.5797 20.3508 23.5438 20.1795 23.3243 20.0582C23.0669 19.9159 15.498 19.8689 15.165 20.0075C15.0515 20.0548 15 20.4318 15 21.2174V22.359L16.221 22.3981L17.4419 22.4373L17.5079 26.3195L17.5739 30.2017H19.1579H20.7418L20.8078 26.3195L20.8738 22.4373L22.2268 22.3985L23.5797 22.3596V21.2794Z" fill="#E4FFA3" stroke="#0B1C10"/>
<path d="M17.7419 22.4322L17.737 22.1466L17.4515 22.1374L16.2306 22.0983L15.3 22.0684V21.2174C15.3 20.8275 15.313 20.5536 15.3372 20.3762C15.3425 20.3372 15.348 20.3058 15.3532 20.2808C15.4186 20.2748 15.5063 20.269 15.6153 20.2637C15.8499 20.2522 16.1702 20.2433 16.5492 20.2369C17.3066 20.2241 18.2895 20.2214 19.2711 20.2275C20.2528 20.2336 21.2309 20.2485 21.9788 20.2706C22.3531 20.2817 22.6673 20.2946 22.8946 20.3089C23.0088 20.3161 23.0973 20.3234 23.1592 20.3307C23.1783 20.3329 23.1933 20.3349 23.2046 20.3367C23.2116 20.3419 23.213 20.3444 23.2132 20.3447L23.2132 20.3447C23.215 20.3472 23.2277 20.3655 23.2407 20.4275C23.2695 20.565 23.2797 20.8063 23.2797 21.2794V22.0681L22.2182 22.0986L20.8652 22.1374L20.5787 22.1456L20.5739 22.4322L20.5079 26.3144L20.4469 29.9017H19.1579H17.8689L17.8079 26.3144L17.7419 22.4322ZM15.3762 20.2029C15.3763 20.2031 15.3753 20.2053 15.3732 20.209C15.3751 20.2045 15.3761 20.2027 15.3762 20.2029ZM23.2306 20.3416C23.2304 20.3416 23.2286 20.3413 23.2255 20.3404C23.2291 20.3411 23.2307 20.3416 23.2306 20.3416Z" fill="#E4FFA3" stroke="#17E200" stroke-width="0.6"/>
<path d="M17.7419 22.4322L17.737 22.1466L17.4515 22.1374L16.2306 22.0983L15.3 22.0684V21.2174C15.3 20.8275 15.313 20.5536 15.3372 20.3762C15.3425 20.3372 15.348 20.3058 15.3532 20.2808C15.4186 20.2748 15.5063 20.269 15.6153 20.2637C15.8499 20.2522 16.1702 20.2433 16.5492 20.2369C17.3066 20.2241 18.2895 20.2214 19.2711 20.2275C20.2528 20.2336 21.2309 20.2485 21.9788 20.2706C22.3531 20.2817 22.6673 20.2946 22.8946 20.3089C23.0088 20.3161 23.0973 20.3234 23.1592 20.3307C23.1783 20.3329 23.1933 20.3349 23.2046 20.3367C23.2116 20.3419 23.213 20.3444 23.2132 20.3447L23.2132 20.3447C23.215 20.3472 23.2277 20.3655 23.2407 20.4275C23.2695 20.565 23.2797 20.8063 23.2797 21.2794V22.0681L22.2182 22.0986L20.8652 22.1374L20.5787 22.1456L20.5739 22.4322L20.5079 26.3144L20.4469 29.9017H19.1579H17.8689L17.8079 26.3144L17.7419 22.4322ZM15.3762 20.2029C15.3763 20.2031 15.3753 20.2053 15.3732 20.209C15.3751 20.2045 15.3761 20.2027 15.3762 20.2029ZM23.2306 20.3416C23.2304 20.3416 23.2286 20.3413 23.2255 20.3404C23.2291 20.3411 23.2307 20.3416 23.2306 20.3416Z" fill="#E4FFA3" stroke="#AAFF5C" stroke-width="0.6"/>
<path d="M17.5919 22.4347L17.5895 22.2919L17.4467 22.2874L16.2258 22.2482L15.15 22.2137V21.2174C15.15 20.8261 15.1629 20.5438 15.1886 20.3559C15.2015 20.2613 15.2166 20.1983 15.2314 20.1597C15.234 20.153 15.2363 20.1477 15.2382 20.1436C15.2392 20.1434 15.2403 20.1432 15.2414 20.143C15.2609 20.1398 15.2881 20.1364 15.3233 20.1329C15.3936 20.1261 15.4893 20.1197 15.608 20.1139C15.8449 20.1023 16.1671 20.0933 16.5467 20.0869C17.3056 20.0741 18.2897 20.0714 19.2721 20.0775C20.2544 20.0836 21.2338 20.0985 21.9832 20.1207C22.3581 20.1318 22.6743 20.1447 22.9041 20.1592C23.0192 20.1665 23.1108 20.174 23.1765 20.1817C23.2096 20.1855 23.234 20.1892 23.2506 20.1924C23.255 20.1933 23.2583 20.194 23.2607 20.1946C23.2978 20.216 23.3191 20.235 23.335 20.2572C23.353 20.2822 23.3719 20.3222 23.3875 20.3968C23.4201 20.5526 23.4297 20.8107 23.4297 21.2794V22.2139L22.2225 22.2485L20.8695 22.2873L20.7263 22.2915L20.7238 22.4347L20.6578 26.3169L20.5944 30.0517H19.1579H17.7214L17.6579 26.3169L17.5919 22.4347ZM23.2517 20.1895L23.2518 20.1895L23.2517 20.1895Z" stroke="#17E200" stroke-width="0.3"/>
</svg>
