<svg width="681" height="252" viewBox="0 0 681 252" fill="none" xmlns="http://www.w3.org/2000/svg">
<g filter="url(#filter0_d)">
<path d="M117.959 82.2476C122.131 82.2476 125.487 83.4919 128.03 85.9805C130.608 88.5049 131.897 91.835 131.897 95.9707C131.897 100.089 130.545 103.401 127.842 105.907C125.174 108.396 121.674 109.64 117.341 109.64H110.815V121H100.959V82.2476H117.959ZM110.815 102.228H115.273C117.386 102.228 119.024 101.7 120.188 100.644C121.352 99.5514 121.934 98.0028 121.934 95.9976C121.934 93.9924 121.352 92.4526 120.188 91.3784C119.042 90.3221 117.422 89.7939 115.327 89.7939H110.815V102.228ZM146.426 114.796C148.001 114.796 149.326 114.376 150.4 113.534C151.528 112.675 152.092 111.574 152.092 110.231V108.163L146.587 108.539C143.794 108.736 142.397 109.792 142.397 111.708C142.397 112.657 142.764 113.409 143.499 113.964C144.215 114.519 145.19 114.796 146.426 114.796ZM143.069 121.403C140.222 121.403 137.841 120.561 135.925 118.878C133.956 117.178 132.971 115.002 132.971 112.353C132.971 106.749 137.008 103.696 145.083 103.195L152.092 102.765V101.046C152.092 99.8468 151.689 98.9159 150.884 98.2534C150.096 97.6089 149.022 97.2866 147.661 97.2866C146.39 97.2866 145.334 97.591 144.492 98.1997C143.687 98.7905 143.212 99.5604 143.069 100.509H134.502C134.627 97.4836 135.916 95.0576 138.369 93.2314C140.84 91.3874 144.089 90.4653 148.118 90.4653C152.092 90.4653 155.297 91.3874 157.732 93.2314C160.167 95.0934 161.384 97.5283 161.384 100.536V121H152.146V116.703H151.958C151.17 118.171 149.944 119.326 148.279 120.167C146.667 120.991 144.931 121.403 143.069 121.403ZM170.408 131.93C168.277 131.93 167.122 131.912 166.943 131.876V124.679C167.033 124.697 167.588 124.706 168.608 124.706C171.759 124.706 173.496 123.829 173.818 122.074L173.953 121.242L163.748 91.1099H174.248L179.753 113.803H179.941L185.447 91.1099H195.491L185.876 120.946C184.605 124.921 182.779 127.75 180.398 129.433C178.035 131.098 174.705 131.93 170.408 131.93ZM198.015 91.1099H207.253V96.8569H207.441C208.032 94.9412 209.097 93.4194 210.637 92.2915C212.177 91.1636 213.958 90.5996 215.981 90.5996C218.201 90.5996 220.037 91.1457 221.487 92.2378C222.937 93.3478 223.877 94.9144 224.307 96.9375H224.495C225.085 95.0039 226.213 93.4642 227.878 92.3184C229.561 91.1725 231.513 90.5996 233.733 90.5996C236.651 90.5996 239.014 91.5306 240.823 93.3926C242.631 95.2725 243.535 97.7253 243.535 100.751V121H234.028V103.168C234.028 99.9453 232.596 98.334 229.731 98.334C228.389 98.334 227.323 98.7816 226.536 99.6768C225.73 100.572 225.327 101.771 225.327 103.275V121H216.25V103.034C216.25 101.53 215.874 100.366 215.122 99.5425C214.388 98.7368 213.332 98.334 211.953 98.334C210.628 98.334 209.554 98.7905 208.73 99.7036C207.925 100.617 207.522 101.825 207.522 103.329V121H198.015V91.1099ZM262.2 97.2329C260.678 97.2329 259.398 97.7432 258.359 98.7637C257.321 99.7842 256.739 101.091 256.614 102.685H267.732C267.642 101.037 267.096 99.7126 266.094 98.71C265.073 97.7253 263.775 97.2329 262.2 97.2329ZM276.541 111.601C276.075 114.662 274.571 117.097 272.029 118.905C269.469 120.731 266.255 121.645 262.388 121.645C257.661 121.645 253.955 120.275 251.27 117.536C248.584 114.796 247.241 111.019 247.241 106.203C247.241 101.387 248.575 97.5552 251.243 94.7085C253.91 91.8797 257.518 90.4653 262.065 90.4653C266.523 90.4653 270.086 91.8171 272.754 94.5205C275.404 97.2419 276.729 100.876 276.729 105.424V108.136H256.506V108.727C256.506 110.553 257.061 112.03 258.171 113.158C259.281 114.304 260.732 114.877 262.522 114.877C265.369 114.877 267.177 113.785 267.947 111.601H276.541ZM280.569 91.1099H289.807V96.7227H289.995C291.642 92.6406 294.82 90.5996 299.529 90.5996C302.859 90.5996 305.473 91.5933 307.371 93.5806C309.25 95.5679 310.19 98.325 310.19 101.852V121H300.657V103.893C300.657 102.156 300.209 100.805 299.314 99.8379C298.401 98.8532 297.13 98.3608 295.5 98.3608C293.889 98.3608 292.582 98.8979 291.58 99.9722C290.577 101.046 290.076 102.434 290.076 104.135V121H280.569V91.1099ZM326.733 84.5034V91.1099H332.131V98.146H326.733V110.902C326.733 112.997 327.888 114.044 330.198 114.044C330.86 114.044 331.505 114 332.131 113.91V120.678C331.039 120.928 329.643 121.054 327.942 121.054C324.111 121.054 321.362 120.409 319.697 119.12C318.05 117.849 317.227 115.745 317.227 112.809V98.146H313.225V91.1099H317.227V84.5034H326.733ZM347.385 91.1099H356.624V96.8569H356.812C357.402 94.9412 358.468 93.4194 360.007 92.2915C361.547 91.1636 363.328 90.5996 365.352 90.5996C367.572 90.5996 369.407 91.1457 370.857 92.2378C372.307 93.3478 373.247 94.9144 373.677 96.9375H373.865C374.456 95.0039 375.583 93.4642 377.249 92.3184C378.931 91.1725 380.883 90.5996 383.103 90.5996C386.021 90.5996 388.385 91.5306 390.193 93.3926C392.001 95.2725 392.905 97.7253 392.905 100.751V121H383.398V103.168C383.398 99.9453 381.966 98.334 379.102 98.334C377.759 98.334 376.694 98.7816 375.906 99.6768C375.1 100.572 374.697 101.771 374.697 103.275V121H365.62V103.034C365.62 101.53 365.244 100.366 364.492 99.5425C363.758 98.7368 362.702 98.334 361.323 98.334C359.998 98.334 358.924 98.7905 358.101 99.7036C357.295 100.617 356.892 101.825 356.892 103.329V121H347.385V91.1099ZM411.57 97.2329C410.048 97.2329 408.768 97.7432 407.729 98.7637C406.691 99.7842 406.109 101.091 405.984 102.685H417.102C417.013 101.037 416.466 99.7126 415.464 98.71C414.443 97.7253 413.145 97.2329 411.57 97.2329ZM425.911 111.601C425.445 114.662 423.941 117.097 421.399 118.905C418.839 120.731 415.625 121.645 411.758 121.645C407.031 121.645 403.325 120.275 400.64 117.536C397.954 114.796 396.611 111.019 396.611 106.203C396.611 101.387 397.945 97.5552 400.613 94.7085C403.28 91.8797 406.888 90.4653 411.436 90.4653C415.894 90.4653 419.456 91.8171 422.124 94.5205C424.774 97.2419 426.099 100.876 426.099 105.424V108.136H405.876V108.727C405.876 110.553 406.431 112.03 407.542 113.158C408.652 114.304 410.102 114.877 411.892 114.877C414.739 114.877 416.547 113.785 417.317 111.601H425.911ZM441.836 84.5034V91.1099H447.234V98.146H441.836V110.902C441.836 112.997 442.991 114.044 445.3 114.044C445.963 114.044 446.607 114 447.234 113.91V120.678C446.142 120.928 444.745 121.054 443.044 121.054C439.213 121.054 436.465 120.409 434.8 119.12C433.153 117.849 432.329 115.745 432.329 112.809V98.146H428.328V91.1099H432.329V84.5034H441.836ZM451.531 80.314H460.85V96.7227H461.038C462.649 92.6406 465.863 90.5996 470.679 90.5996C474.009 90.5996 476.623 91.5933 478.521 93.5806C480.418 95.5858 481.367 98.3519 481.367 101.879V121H471.833V103.92C471.833 102.201 471.368 100.84 470.437 99.8379C469.488 98.8532 468.199 98.3608 466.57 98.3608C464.941 98.3608 463.616 98.8979 462.595 99.9722C461.557 101.064 461.038 102.461 461.038 104.162V121H451.531V80.314ZM500.3 121.645C495.556 121.645 491.841 120.275 489.155 117.536C486.434 114.778 485.073 110.947 485.073 106.042C485.073 101.225 486.452 97.4209 489.209 94.6279C491.93 91.8529 495.627 90.4653 500.3 90.4653C504.991 90.4653 508.697 91.8439 511.418 94.6011C514.158 97.3761 515.527 101.19 515.527 106.042C515.527 110.965 514.167 114.805 511.445 117.562C508.76 120.284 505.045 121.645 500.3 121.645ZM500.3 114.635C502.055 114.635 503.416 113.892 504.382 112.406C505.385 110.902 505.886 108.781 505.886 106.042C505.886 103.374 505.385 101.27 504.382 99.7305C503.38 98.2266 502.019 97.4746 500.3 97.4746C498.564 97.4746 497.203 98.2266 496.218 99.7305C495.216 101.252 494.714 103.356 494.714 106.042C494.714 108.781 495.207 110.902 496.191 112.406C497.176 113.892 498.546 114.635 500.3 114.635ZM530.378 121.403C526.672 121.403 523.754 120.033 521.624 117.294C519.493 114.555 518.428 110.786 518.428 105.988C518.428 101.243 519.502 97.5104 521.65 94.7891C523.799 92.0677 526.735 90.707 530.459 90.707C532.59 90.707 534.46 91.2262 536.072 92.2646C537.629 93.2852 538.748 94.6458 539.429 96.3467H539.617V80.314H549.15V121H539.67V115.871H539.509C538.883 117.5 537.764 118.825 536.152 119.845C534.469 120.884 532.545 121.403 530.378 121.403ZM533.923 98.1997C532.151 98.1997 530.745 98.8979 529.707 100.294C528.669 101.709 528.149 103.625 528.149 106.042C528.149 108.476 528.669 110.401 529.707 111.815C530.728 113.212 532.133 113.91 533.923 113.91C535.696 113.91 537.101 113.212 538.14 111.815C539.16 110.419 539.67 108.503 539.67 106.068C539.67 103.651 539.16 101.736 538.14 100.321C537.101 98.9069 535.696 98.1997 533.923 98.1997ZM553.474 100.16C553.474 97.1882 554.665 94.8338 557.046 93.0972C559.445 91.3426 562.677 90.4653 566.741 90.4653C570.769 90.4653 573.965 91.3605 576.328 93.1509C578.691 94.9412 579.891 97.3672 579.927 100.429H571.226C571.19 99.3545 570.76 98.4951 569.937 97.8506C569.095 97.224 567.994 96.9106 566.633 96.9106C565.434 96.9106 564.467 97.1523 563.733 97.6357C562.999 98.1191 562.632 98.7547 562.632 99.5425C562.632 100.742 563.778 101.583 566.069 102.067L572.246 103.356C575.236 103.983 577.393 104.94 578.718 106.229C580.061 107.519 580.732 109.291 580.732 111.547C580.732 114.608 579.452 117.061 576.892 118.905C574.368 120.731 571.02 121.645 566.848 121.645C562.605 121.645 559.239 120.731 556.75 118.905C554.298 117.133 552.973 114.707 552.776 111.627H562.014C562.157 112.755 562.677 113.633 563.572 114.259C564.449 114.886 565.604 115.199 567.036 115.199C568.361 115.199 569.408 114.966 570.178 114.501C570.93 114.053 571.306 113.427 571.306 112.621C571.306 111.457 570.205 110.643 568.003 110.177L562.39 108.996C556.446 107.742 553.474 104.797 553.474 100.16Z" fill="url(#paint0_linear)"/>
</g>
<defs>
<filter id="filter0_d" x="0.959473" y="0.313965" width="679.773" height="251.616" filterUnits="userSpaceOnUse" color-interpolation-filters="sRGB">
<feFlood flood-opacity="0" result="BackgroundImageFix"/>
<feColorMatrix in="SourceAlpha" type="matrix" values="0 0 0 0 0 0 0 0 0 0 0 0 0 0 0 0 0 0 127 0"/>
<feOffset dy="20"/>
<feGaussianBlur stdDeviation="50"/>
<feColorMatrix type="matrix" values="0 0 0 0 1 0 0 0 0 0.497797 0 0 0 0 0 0 0 0 0.5 0"/>
<feBlend mode="normal" in2="BackgroundImageFix" result="effect1_dropShadow"/>
<feBlend mode="normal" in="SourceGraphic" in2="effect1_dropShadow" result="shape"/>
</filter>
<linearGradient id="paint0_linear" x1="98" y1="83.311" x2="596.349" y2="83.311" gradientUnits="userSpaceOnUse">
<stop stop-color="#EB8106"/>
<stop offset="1" stop-color="#F34119"/>
</linearGradient>
</defs>
</svg>
