<svg id="surface1" xmlns="http://www.w3.org/2000/svg" xmlns:xlink="http://www.w3.org/1999/xlink" width="2219.89" height="402.5" viewBox="0 0 2219.89 402.5">
  <defs>
    <clipPath id="clip-path">
      <path id="Path_29249" data-name="Path 29249" d="M1830,6h389.89V397H1830Zm0,0" fill="#fff"/>
    </clipPath>
    <clipPath id="clip-path-2">
      <path id="Path_29252" data-name="Path 29252" d="M476,0H852V402.5H476Zm0,0" fill="#fff"/>
    </clipPath>
    <clipPath id="clip-path-3">
      <path id="Path_29255" data-name="Path 29255" d="M1122,0h377V402.5H1122Zm0,0" fill="#fff"/>
    </clipPath>
    <clipPath id="clip-path-4">
      <path id="Path_29257" data-name="Path 29257" d="M1830,5h389.89V396H1830Zm0,0" fill="#fff"/>
    </clipPath>
  </defs>
  <path id="Path_29246" data-name="Path 29246" d="M613.656,6.016H390.027c-35.261,0-69.531,0-100.2,15.566-30.691,15.59-57.781,46.77-78.656,109.082-4.488,13.391-6.887,24.961-7.219,34.953-.312,10.082,1.445,18.633,5.242,26.051,4.707,9.039,12.3,17.59,21.828,24.762a107.58,107.58,0,0,0,33.18,16.789c.465.109,6.926,1.976,14.742,4.2,7.8,2.242,16.922,4.93,22.676,6.664a47.866,47.866,0,0,1,10.461,4.4,21.3,21.3,0,0,1,8.3,8.394,18.8,18.8,0,0,1,1.976,8.063,25.862,25.862,0,0,1-1.554,9.347c-2.844,8.461-7.2,13.926-15.457,17.258-8.239,3.328-20.407,4.4-38.84,4.528H36.4L0,396.02H246.324c23.184,0,65.559,0,106.309-17.3,40.726-17.3,79.769-51.9,96.312-121.078,6.219-26,4.309-47.211-5.882-63.844-10.239-16.637-28.715-28.692-55.633-36.422,0,0-6.016-1.754-13.125-3.774-7.039-2.042-15.188-4.375-19.364-5.574a26.035,26.035,0,0,1-15.324-11.015,21.743,21.743,0,0,1-2.265-17.524c1.843-6.527,6.308-11.746,12.769-15.344,6.484-3.574,14.992-5.55,24.918-5.55H518.211c1.019-1.445,1.953-3.02,2.953-4.508,26.137-36.976,57.8-66.933,92.492-88.074" fill="#fff"/>
  <path id="Path_29247" data-name="Path 29247" d="M613.781,5.578H390.152c-35.265,0-69.511,0-100.2,15.566-30.691,15.59-57.762,46.75-78.64,109.085-4.5,13.391-6.907,24.938-7.215,34.954-.313,10.058,1.441,18.609,5.242,26.027,4.683,9.059,12.277,17.609,21.805,24.781a107.7,107.7,0,0,0,33.2,16.77c.465.133,6.925,1.976,14.746,4.218,7.769,2.243,16.9,4.907,22.672,6.641a50.565,50.565,0,0,1,10.461,4.4,21.433,21.433,0,0,1,8.281,8.418,18.572,18.572,0,0,1,1.976,8.062,25.693,25.693,0,0,1-1.554,9.324c-2.84,8.485-7.172,13.926-15.457,17.278-8.239,3.332-20.387,4.4-38.817,4.531H36.52L.145,395.586H246.469c23.183,0,65.554,0,106.285-17.3s79.769-51.9,96.312-121.1c6.243-25.981,4.309-47.192-5.882-63.825-10.239-16.652-28.715-28.715-55.61-36.418,0,0-6.039-1.754-13.125-3.8-7.039-2.023-15.211-4.355-19.386-5.554a26.019,26.019,0,0,1-15.325-11.035,21.761,21.761,0,0,1-2.261-17.5c1.863-6.528,6.3-11.746,12.769-15.344,6.484-3.578,14.988-5.555,24.914-5.555H518.355c1.02-1.465,1.93-3.043,2.954-4.508,26.136-37,57.8-66.933,92.472-88.074" fill="#fff"/>
  <g id="Group_18527" data-name="Group 18527" clip-path="url(#clip-path)">
    <path id="Path_29248" data-name="Path 29248" d="M1831.16,6.242a97.245,97.245,0,0,1,19.7,20.809c14.03,20.23,19.41,44.262,16.19,71.773h71.82L1830.63,396.336h108.15l108.3-297.512h138.96l33.73-92.582H1831.16" fill="#fff"/>
  </g>
  <path id="Path_29250" data-name="Path 29250" d="M1720.8,130.648c-11.59,31.2-32.38,50.477-71.93,50.477h-.18l-20.45-.043,35-94.316h19.9c36.4,0,49.99,10.66,37.66,43.882m104.98-86.164c-17.81-25.606-54.01-38.176-110.73-38.242H1583.74l-142,390.008h120.61l51.66-137.266c2.48,5.641,32.95,137.266,32.95,137.266h126.83s-23.07-96.715-40.04-135.777c-4.35-10.059-8.91-21.321-14.99-30.711,35.82-13.3,87.74-41.907,109.22-99.8,13.23-35.6,12.45-64.359-2.2-85.477" fill="#fff"/>
  <g id="Group_18528" data-name="Group 18528" clip-path="url(#clip-path-2)">
    <path id="Path_29251" data-name="Path 29251" d="M718.7,199.215C685.277,290.707,661,313.738,624.5,313.738h-.066c-35.555-.047-48.035-22.543-14.77-113.593,24.871-67.973,57.051-111.434,96.024-111.434h.023c37.02.043,45.5,21.5,12.992,110.5M833.379,42.539C813.9,14.672,780.523.5,734.133.457A203.858,203.858,0,0,0,646.7,20.465c-39.531,18.68-75.328,49.9-104.574,91.273-19.012,26.895-35.266,58.028-48.012,92.871-23.984,65.711-23.719,119.079.844,154.207,13.9,19.9,42.812,43.641,101.641,43.684h.222c107.153,0,187.145-70.242,237.8-208.727,13.371-36.664,31.024-105.042-1.242-151.234" fill="#fff"/>
  </g>
  <path id="Path_29253" data-name="Path 29253" d="M1261.55,6.016H1033.64C969.922,6.016,922.488,38.258,900.1,98.6L791.844,396.02H910.406l55.629-152.9,104.815.09,29.81-81.9-104.469-.067L1013,113.832c3.54-8.484,11.89-15.234,24.17-15.234,6.84,0,83.74,0,123.58.02,1.02-1.465,1.93-3.039,2.95-4.527,26.14-36.976,63.16-66.933,97.85-88.074" fill="#fff"/>
  <g id="Group_18529" data-name="Group 18529" clip-path="url(#clip-path-3)">
    <path id="Path_29254" data-name="Path 29254" d="M1365.21,199.215c-33.42,91.492-57.69,114.523-94.18,114.523h-.09c-35.58-.047-47.99-22.543-14.72-113.593,24.83-67.973,57.05-111.434,95.96-111.434h.06c37.02.043,45.51,21.5,12.97,110.5m114.7-156.676C1460.42,14.672,1427.08.5,1380.62.457a203.873,203.873,0,0,0-87.4,20.008c-39.51,18.68-75.31,49.9-104.56,91.273-19.01,26.895-35.26,58.028-47.99,92.871-24.05,65.711-23.74,119.079.82,154.207,13.91,19.9,42.82,43.641,101.67,43.684h.2c107.13,0,187.14-70.242,237.75-208.727,13.42-36.664,31.05-105.042-1.2-151.234" fill="#fff"/>
  </g>
  <g id="Group_18530" data-name="Group 18530" clip-path="url(#clip-path-4)">
    <path id="Path_29256" data-name="Path 29256" d="M1831.3,5.809A96.946,96.946,0,0,1,1851,26.617c14.04,20.207,19.39,44.258,16.19,71.773h71.82L1830.77,395.9h108.15L2047.2,98.391h138.98l33.71-92.582H1831.3" fill="#fff"/>
  </g>
  <path id="Path_29258" data-name="Path 29258" d="M1720.92,130.215c-11.57,31.176-32.38,50.453-71.93,50.453h-.16l-20.45-.043,34.98-94.293h19.92c36.39,0,49.99,10.637,37.64,43.883m104.97-86.168c-17.79-25.606-53.98-38.172-110.7-38.238H1583.88l-142.02,390h120.63l51.63-137.262c2.51,5.64,32.96,137.262,32.96,137.262h126.85s-23.1-96.711-40.04-135.8c-4.36-10.039-8.91-21.3-14.99-30.711,35.82-13.3,87.72-41.887,109.21-99.782,13.22-35.6,12.44-64.355-2.22-85.476" fill="#fff"/>
  <g id="Group_18531" data-name="Group 18531" clip-path="url(#clip-path-2)">
    <path id="Path_29259" data-name="Path 29259" d="M718.824,198.777c-33.422,91.5-57.695,114.5-94.207,114.5h-.066c-35.551-.023-48.031-22.543-14.742-113.593,24.847-67.977,57.027-111.434,96-111.434h.023c37.043.043,45.523,21.516,12.992,110.523m114.7-156.671C814.027,14.234,780.672.066,734.258,0a204.119,204.119,0,0,0-87.43,20.008c-39.531,18.7-75.328,49.9-104.574,91.3-18.988,26.871-35.266,58.027-47.992,92.847-24.008,65.735-23.739,119.1.82,154.231,13.926,19.9,42.84,43.617,101.645,43.683h.222c107.149,0,187.141-70.242,237.8-208.75,13.367-36.664,31.047-105.043-1.223-151.21" fill="#fff"/>
  </g>
  <path id="Path_29261" data-name="Path 29261" d="M1261.69,5.578H1033.78c-63.741,0-111.175,32.246-133.561,92.582L791.961,395.586H910.547l55.629-152.9,104.794.066,29.8-81.879-104.457-.066,16.827-47.414c3.51-8.5,11.88-15.254,24.14-15.254,6.84,0,83.77.02,123.61.02,1-1.441,1.91-3.043,2.93-4.508,26.16-37,63.18-66.933,97.87-88.074" fill="#fff"/>
  <g id="Group_18532" data-name="Group 18532" clip-path="url(#clip-path-3)">
    <path id="Path_29262" data-name="Path 29262" d="M1365.34,198.777c-33.42,91.5-57.67,114.5-94.16,114.5h-.09c-35.6-.023-48.01-22.543-14.77-113.593,24.85-67.977,57.05-111.434,95.98-111.434h.07c37.02.043,45.5,21.516,12.97,110.523m114.7-156.671C1460.54,14.234,1427.21.066,1380.77,0a204.158,204.158,0,0,0-87.41,20.008c-39.53,18.7-75.32,49.9-104.57,91.3-19.01,26.871-35.24,58.027-47.99,92.847-24.03,65.735-23.74,119.1.84,154.231,13.88,19.9,42.8,43.617,101.67,43.683h.18c107.15,0,187.16-70.242,237.75-208.75,13.43-36.664,31.07-105.043-1.2-151.21" fill="#fff"/>
  </g>
</svg>
