<?xml version="1.0" encoding="UTF-8"?>
<svg width="544px" height="98px" viewBox="0 0 544 98" version="1.1" xmlns="http://www.w3.org/2000/svg" xmlns:xlink="http://www.w3.org/1999/xlink">
    <!-- Generator: Sketch 53.2 (72643) - https://sketchapp.com -->
    <title>SoftSwiss Powered white</title>
    <desc>Created with Sketch.</desc>
    <g id="SoftSwiss-Powered-white" stroke="none" stroke-width="1" fill="none" fill-rule="evenodd">
        <g id="Group" transform="translate(3.000000, 3.000000)" fill="#FFFFFF" fill-rule="nonzero">
            <path d="M68.6639212,38.0532507 L106.523921,0.173250727 C106.62783,0.0631466935 106.772528,0.000742448978 106.923921,0.000742448978 C107.075314,0.000742448978 107.220013,0.0631466935 107.323921,0.173250727 L152.443921,45.2932507 C152.560613,45.3975919 152.627315,45.5467131 152.627315,45.7032507 C152.627315,45.8597884 152.560613,46.0089096 152.443921,46.1132507 L107.323921,91.2332507 C107.102038,91.4518123 106.745804,91.4518123 106.523921,91.2332507 L84.3639212,69.0732507 C84.1453596,68.8513677 84.1453596,68.4951338 84.3639212,68.2732507 L98.8739212,53.7632507 C99.0958043,53.5446891 99.4520381,53.5446891 99.6739212,53.7632507 L106.523921,60.6132507 C106.745804,60.8318123 107.102038,60.8318123 107.323921,60.6132507 L121.833921,46.1132507 C122.052483,45.8913677 122.052483,45.5351338 121.833921,45.3132507 L107.323921,30.8032507 C107.102038,30.5846891 106.745804,30.5846891 106.523921,30.8032507 L83.9639212,53.3632507 L46.1039212,91.2332507 C45.8786379,91.4530098 45.5192045,91.4530098 45.2939212,91.2332507 L0.16392119,46.1132507 C-0.0546403966,45.8913677 -0.0546403966,45.5351338 0.16392119,45.3132507 L45.2939212,0.173250727 C45.3995858,0.062599844 45.5459224,0 45.6989212,0 C45.8519199,0 45.9982566,0.062599844 46.1039212,0.173250727 L68.2639212,22.3532507 C68.4824828,22.5751338 68.4824828,22.9313677 68.2639212,23.1532507 L53.7539212,37.6532507 C53.5320381,37.8718123 53.1758043,37.8718123 52.9539212,37.6532507 L46.1039212,30.8032507 C45.8786379,30.5834916 45.5192045,30.5834916 45.2939212,30.8032507 L30.7939212,45.3132507 C30.5753596,45.5351338 30.5753596,45.8913677 30.7939212,46.1132507 L45.2939212,60.6132507 C45.5192045,60.8330098 45.8786379,60.8330098 46.1039212,60.6132507 L68.6639212,38.0532507 Z" id="Combined-Shape"></path>
        </g>
        <path d="M425.654875,75.1983524 L429.701286,58.3739299 C429.765071,58.1215895 429.991096,57.9444653 430.250799,57.9433048 L440.741495,57.9433048 C440.923702,57.941398 441.095818,58.0270004 441.204515,58.1735895 C441.313212,58.3201786 441.345363,58.5100521 441.291008,58.6843806 L429.951065,95.4777903 C429.873402,95.7162409 429.651801,95.8777826 429.401552,95.8783718 L419.230573,95.8783718 C418.997005,95.8784106 418.787093,95.7354951 418.701042,95.5178485 L412.075863,78.1426264 C411.724356,77.0867144 411.509409,76.2691061 411.237661,75.1983524 C411.179133,74.8979163 411.011738,74.7476983 410.735476,74.7476983 C410.526016,74.7476983 410.260462,74.7476983 409.938813,74.7476983 C409.668722,74.7481813 409.437531,74.9419941 409.3893,75.208367 C409.17228,76.2743906 408.779571,77.2936966 408.440142,78.3228881 L401.796035,95.5178485 C401.709983,95.7354951 401.500072,95.8784106 401.266504,95.8783718 L391.774922,95.8783718 C391.528986,95.8811961 391.310049,95.7227047 391.235401,95.4878049 L379.495812,58.7344532 C379.437244,58.5615985 379.466277,58.3709875 379.573634,58.2235241 C379.680991,58.0760607 379.853236,57.9902005 380.035334,57.9933775 L391.40525,57.9933775 C391.662089,57.9933364 391.887173,58.1656214 391.954763,58.413988 L396.500731,75.4387013 C396.740675,76.3099669 396.920935,77.1966501 397.040252,78.0925537 C397.08035,78.3761852 397.323966,78.5860995 397.609747,78.583266 L398.478976,78.583266 C398.749701,78.5885433 398.985343,78.3987442 399.03848,78.1326119 C399.224754,77.2256899 399.471761,76.3323742 399.777825,75.4587304 L405.432809,58.4240026 C405.507457,58.1891028 405.726394,58.0306114 405.972331,58.0334356 L415.853568,58.0334356 C416.096827,58.0292165 416.314923,58.1830514 416.393089,58.413988 L422.217923,75.4387013 C422.52755,76.3274696 422.771329,77.237926 422.947276,78.1626555 C423.003335,78.4284757 423.235743,78.6198294 423.50678,78.6233242 L424.505894,78.6233242 C424.786199,78.6262039 425.025367,78.4207228 425.065398,78.1426264 C425.225256,77.2012599 425.415088,76.1998062 425.654875,75.1983524 Z M449.614132,57.9833629 L460.193738,57.9833629 C460.50854,57.9833629 460.763738,58.2385606 460.763738,58.5533629 L460.763738,95.34843 C460.763738,95.6632323 460.50854,95.91843 460.193738,95.91843 L449.614132,95.91843 C449.29933,95.91843 449.044132,95.6632323 449.044132,95.34843 L449.044132,58.5533629 C449.044132,58.2385606 449.29933,57.9833629 449.614132,57.9833629 Z M455.1687,37.0429656 C456.964446,37.0044186 458.698174,37.7017831 459.969192,38.9738875 C461.24021,40.2459919 461.938519,41.9827422 461.902728,43.7827492 C461.902728,48.5596834 458.515732,51.0633177 455.1687,51.0633177 C451.551908,51.0633177 447.905142,48.7900178 447.905142,43.7827492 C447.905142,40.5380391 450.173131,37.0429656 455.1687,37.0429656 Z M489.728051,72.4543692 C495.77269,73.8764335 504.065335,75.8492974 504.025371,84.3716686 C504.025371,92.022775 497.661015,96.9699564 487.799761,96.9699564 C480.206495,96.9699564 473.462476,93.2445485 471.094576,90.7509288 C470.918475,90.5392059 470.918475,90.2315905 471.094576,90.0198675 L475.870341,83.280084 C475.958362,83.1551367 476.093479,83.0716472 476.24439,83.0489575 C476.395302,83.0262678 476.548911,83.0663469 476.669632,83.1599095 C479.72692,85.3731223 485.192073,87.3760297 488.658999,87.3760297 C491.936092,87.3760297 492.285782,85.6935875 492.285782,84.9625262 C492.285782,82.9696333 489.608157,82.2986593 485.911436,81.3873365 C479.866796,79.8951704 471.574151,77.8421903 471.574151,69.0794702 C471.574151,63.4713293 475.410748,56.921822 486.231152,56.921822 C493.814427,56.921822 498.620165,59.2552092 501.467639,61.4483928 C501.677637,61.6215385 501.73622,61.9193364 501.607515,62.159425 L497.840856,69.3198191 C497.765313,69.4566494 497.637916,69.5571663 497.487482,69.5986325 C497.337047,69.6400988 497.176287,69.6190109 497.041565,69.5401389 C494.023083,67.6970089 490.582639,66.6624586 487.050425,66.5357777 C484.602596,66.5357777 483.333722,67.7475367 483.333722,68.9592958 C483.333722,70.922145 486.011347,71.5630754 489.728051,72.4543692 Z M529.71259,72.4543692 C535.757229,73.8764335 544.029892,75.8492974 543.999919,84.3716686 C543.999919,92.022775 537.625572,96.9699564 527.764318,96.9699564 C520.181043,96.9699564 513.427033,93.2445485 511.059133,90.7509288 C510.883032,90.5392059 510.883032,90.2315905 511.059133,90.0198675 L515.85488,83.280084 C515.942901,83.1551367 516.078018,83.0716472 516.228929,83.0489575 C516.379841,83.0262678 516.53345,83.0663469 516.654171,83.1599095 C519.721451,85.3731223 525.176613,87.3760297 528.643538,87.3760297 C531.920631,87.3760297 532.270321,85.6935875 532.270321,84.9625262 C532.270321,82.9696333 529.602687,82.2986593 525.895975,81.3873365 C519.851335,79.8951704 511.55869,77.8421903 511.55869,69.0794702 C511.55869,63.4713293 515.395287,56.921822 526.215691,56.921822 C533.798966,56.921822 538.604704,59.2552092 541.452178,61.4483928 C541.669305,61.6165134 541.732775,61.9176414 541.602045,62.159425 L537.825395,69.3198191 C537.749852,69.4566494 537.622455,69.5571663 537.472021,69.5986325 C537.321586,69.6400988 537.160826,69.6190109 537.026104,69.5401389 C534.007622,67.6970089 530.567178,66.6624586 527.034964,66.5357777 C524.597126,66.5357777 523.318261,67.7475367 523.318261,68.9592958 C523.318261,70.922145 526.005877,71.5630754 529.71259,72.4543692 Z M201.473694,61.1880149 C208.737252,64.5428848 216.95996,68.348409 216.95996,79.4845744 C216.95996,89.5091262 208.4575,96.7896947 196.737894,96.7896947 C189.254531,96.7896947 180.292479,93.7252463 177.065341,87.866742 C176.957356,87.6585509 176.984949,87.4056834 177.135279,87.2258117 L183.599546,79.4645453 C183.707705,79.3399556 183.864397,79.2684264 184.029165,79.2684264 C184.193933,79.2684264 184.350625,79.3399556 184.458784,79.4645453 C187.737567,82.9929303 192.307637,85.0320433 197.117557,85.1127443 C201.074048,85.1127443 203.531869,83.0497496 203.531869,79.7249233 C203.531869,75.5889194 199.115785,73.455823 194.000322,70.9822323 C186.916604,67.5272169 178.104419,63.2610241 178.104419,51.9546115 C178.104419,43.5323857 184.59866,35 197.087584,35 C203.98147,35 209.866251,37.0329511 213.792768,40.7583589 C214.001315,40.955415 214.03127,41.2771138 213.862706,41.5094492 L207.798085,49.9917622 C207.703437,50.1220389 207.558259,50.2061433 207.398391,50.2233121 C207.238523,50.2404808 207.078864,50.1891141 206.958829,50.0818931 C204.662461,47.8132667 201.527664,46.6050311 198.306503,46.7470522 C194.130207,46.7470522 191.542502,48.7399451 191.542502,51.9546115 C191.542502,56.6013568 196.138426,58.7244387 201.473694,61.1880149 Z M245.64452,56.9418511 C258.283311,56.9418511 266.745806,64.9534809 266.745806,76.9709255 C266.745806,88.9883702 258.263329,97 245.64452,97 C233.025711,97 224.543234,88.9883702 224.543234,76.9709255 C224.543234,64.9534809 233.025711,56.9418511 245.64452,56.9418511 Z M245.64452,86.094169 C250.73001,86.094169 254.156971,82.4689065 254.156971,76.960911 C254.156971,71.6632208 250.580143,67.8176385 245.64452,67.8176385 C241.418268,67.8176385 237.142061,70.9521887 237.142061,76.960911 C237.142061,82.2485867 240.718889,86.094169 245.64452,86.094169 Z M275.508035,50.9431433 C275.508035,40.8885479 280.473631,35.1201744 289.14594,35.1602326 C293.182361,35.1602326 297.248754,36.341948 299.436814,38.1645938 C299.625476,38.3288759 299.682567,38.5986467 299.57669,38.8255532 L296.189693,46.5667905 C296.12904,46.7100081 296.011756,46.8215333 295.865878,46.874704 C295.719999,46.9278748 295.55864,46.9179121 295.420376,46.8471975 C294.18964,46.2783005 292.849135,45.9876903 291.493858,45.9959619 C289.455666,45.9959619 287.257615,47.788564 287.257615,51.7242772 L287.257615,57.4325634 C287.262948,57.7345197 287.505877,57.9780173 287.807128,57.9833629 L294.93081,57.9833629 C295.245333,57.9833629 295.500305,58.2389316 295.500305,58.5541916 L295.500305,68.3083508 C295.500305,68.6236108 295.245333,68.8791795 294.93081,68.8791795 L287.807128,68.8791795 C287.655266,68.8764361 287.508817,68.9356955 287.401417,69.043347 C287.294017,69.1509986 287.234896,69.2977905 287.237633,69.4500081 L287.237633,95.3476014 C287.237633,95.6628613 286.982661,95.91843 286.668138,95.91843 L276.07753,95.91843 C275.925668,95.9211733 275.779219,95.861914 275.671819,95.7542624 C275.564419,95.6466108 275.505298,95.4998189 275.508035,95.3476014 L275.508035,50.9431433 Z M317.430855,86.094169 C319.185419,86.1161104 320.905706,85.6064951 322.366478,84.6320465 C322.509909,84.5390649 322.687404,84.5155256 322.850025,84.5679188 C323.012645,84.620312 323.143215,84.7431044 323.205734,84.902439 L326.203076,92.6136327 C326.297834,92.8515517 326.219703,93.1235904 326.013244,93.2745921 C322.515362,95.7650038 318.313686,97.0670642 314.023877,96.9899855 C306.170841,96.9899855 302.504093,92.1329349 302.504093,81.6977871 L302.504093,47.6483605 C302.504093,47.3331006 302.759065,47.0775319 303.073588,47.0775319 L313.664196,47.0775319 C313.978719,47.0775319 314.233691,47.3331006 314.233691,47.6483605 L314.233691,57.4325634 C314.236276,57.5830918 314.299134,57.726257 314.408122,57.8298497 C314.51711,57.9334423 314.663075,57.9887621 314.813177,57.9833629 L324.554538,57.9833629 C324.866823,57.9887148 325.118693,58.2411752 325.124033,58.5541916 L325.124033,68.3083508 C325.118693,68.6213672 324.866823,68.8738276 324.554538,68.8791795 L314.813177,68.8791795 C314.661315,68.8764361 314.514866,68.9356955 314.407466,69.043347 C314.300066,69.1509986 314.240945,69.2977905 314.243682,69.4500081 L314.243682,81.0869003 C314.243682,84.1613633 315.432627,86.094169 317.430855,86.094169 Z M358.674278,61.3182038 C365.927845,64.6730738 374.180526,68.4485544 374.230482,79.6648361 C374.230482,89.6994024 365.718031,96.9699564 353.998425,96.9699564 C346.515062,96.9699564 337.563001,93.9155225 334.335863,88.0570183 C334.222076,87.8499531 334.250049,87.5936033 334.405801,87.4160879 L340.870068,79.6548215 C340.976362,79.530648 341.131457,79.4591949 341.294691,79.4591949 C341.457926,79.4591949 341.613021,79.530648 341.719315,79.6548215 C345.003169,83.1507229 349.558319,85.1663291 354.348115,85.2429333 C358.304606,85.2429333 360.772417,83.1799386 360.772417,79.8651268 C360.772417,75.7291229 356.356334,73.586012 351.24087,71.1124213 C344.157153,67.6574059 335.334977,63.3912131 335.334977,52.0848005 C335.334977,43.6525602 341.839208,35.1201744 354.318141,35.1201744 C361.212027,35.1201744 367.096808,37.16314 371.033317,40.8885479 C371.237722,41.0876101 371.267378,41.4060994 371.103255,41.6396382 L365.038634,50.1219512 C364.940294,50.250225 364.793784,50.3324739 364.633288,50.3495075 C364.472791,50.366541 364.312346,50.3168694 364.189387,50.2120821 C361.875897,47.9119017 358.70131,46.6972787 355.44714,46.8672266 C351.270844,46.8672266 348.683139,48.8701341 348.683139,52.0848005 C348.683139,56.7215313 353.33901,58.8546277 358.674278,61.3182038 Z" id="Combined-Shape" fill="#FFFFFF" fill-rule="nonzero"></path>
        <g id="Group-19" transform="translate(179.000000, 1.000000)" fill="#FFFFFF">
            <path d="M5.18779713,5.24673 L5.18779713,10.21743 C5.87801722,10.31823 6.67300287,10.41903 7.46798852,10.41903 C8.7621512,10.41903 10.3459598,9.81423 10.3459598,7.67853 C10.3459598,5.75073 9.15656268,5.14593 7.36938565,5.14593 C6.67300287,5.14593 6.17998852,5.14593 5.18779713,5.24673 Z M0.319280383,22.48983 L0.319280383,0.47763 C1.51484019,0.47763 5.18779713,0.37683 6.87020861,0.37683 C13.4211368,0.37683 15.5102852,3.82293 15.5102852,7.67853 C15.5102852,11.63493 12.5275483,15.08733 7.56659139,15.08733 C7.07357703,15.08733 5.9766201,15.08733 5.18779713,14.98653 L5.18779713,22.48983 L0.319280383,22.48983 Z M29.0047043,18.13023 C33.0720727,18.13023 35.1612211,15.18813 35.1612211,11.43333 C35.1612211,7.37613 32.37569,4.74273 29.0047043,4.74273 C25.4303502,4.74273 22.8481876,7.37613 22.8481876,11.43333 C22.8481876,15.28893 25.6337187,18.13023 29.0047043,18.13023 Z M29.0047043,0.17523 C35.5556325,0.17523 40.4179866,4.53483 40.4179866,11.53413 C40.4179866,18.23103 35.5556325,22.89933 29.0047043,22.89933 C22.4537761,22.89933 17.591422,18.53343 17.591422,11.53413 C17.591422,5.14593 22.2565703,0.17523 29.0047043,0.17523 Z M65.7250297,22.49235 L61.0598813,22.49235 L56.5981014,8.39295 L52.1239962,22.49235 L47.4650105,22.49235 L41.111288,0.57465 L46.6700249,0.57465 L50.2443789,14.47875 L54.2131445,0.57465 L59.1741014,0.57465 L63.3400727,14.47875 L67.0130297,0.57465 L71.7767809,0.57465 L65.7250297,22.49235 Z M74.5567656,0.47574 L87.2642105,0.47574 L87.2642105,5.14404 L79.4191196,5.14404 L79.4191196,8.99964 L86.370622,8.99964 L86.370622,13.76874 L79.4191196,13.76874 L79.4191196,17.72514 L87.5600191,17.72514 L87.5600191,22.39344 L74.5567656,22.39344 L74.5567656,0.47574 Z M97.086289,5.24673 L97.086289,10.11663 L98.873466,10.11663 C100.759246,10.11663 102.244452,9.40473 102.244452,7.57773 C102.244452,6.36183 101.652834,5.24673 99.2678775,5.24673 C98.5714947,5.14593 98.1770833,5.14593 97.086289,5.24673 Z M92.2239349,22.48983 L92.2239349,0.47763 C93.4133321,0.47763 98.873466,0.37683 99.5636861,0.37683 C105.424394,0.37683 107.50738,3.31893 107.50738,7.37613 C107.50738,11.43333 105.029983,13.15953 103.933026,13.66353 L110.181983,22.28823 L104.234997,22.28823 L98.9720689,14.57703 L97.1848919,14.57703 L97.1848919,22.28823 L92.2239349,22.28823 L92.2239349,22.48983 Z M112.862748,0.47574 L125.570193,0.47574 L125.570193,5.14404 L117.725102,5.14404 L117.725102,8.99964 L124.676605,8.99964 L124.676605,13.76874 L117.725102,13.76874 L117.725102,17.72514 L125.866002,17.72514 L125.866002,22.39344 L112.862748,22.39344 L112.862748,0.47574 Z M135.395353,5.24673 L135.395353,17.82783 C135.993133,17.92863 136.486147,17.92863 137.176367,17.92863 C141.447104,17.92863 144.12787,15.59763 144.12787,11.43333 C144.12787,7.37613 141.249899,5.24673 137.176367,5.24673 C136.683353,5.14593 135.993133,5.14593 135.395353,5.24673 Z M130.532999,0.47763 L130.927411,0.47763 C132.018205,0.47763 135.888367,0.37683 137.281133,0.37683 C145.915047,0.37683 149.286033,5.44833 149.286033,11.23173 C149.286033,17.41833 145.218664,22.48983 136.985324,22.48983 C135.888367,22.48983 133.010396,22.38903 130.927411,22.38903 L130.532999,22.38903 L130.532999,0.47763 Z M164.372888,13.56525 L164.372888,17.62245 C164.668697,17.72325 165.063108,17.82405 166.0553,17.82405 C167.947242,17.82405 168.933271,17.01135 168.933271,15.49305 C168.933271,14.07555 167.947242,13.56525 166.357271,13.56525 L164.372888,13.56525 Z M164.372888,5.24925 L164.372888,9.20565 L165.962859,9.20565 C167.250859,9.20565 168.243051,8.69535 168.243051,7.06995 C168.243051,5.75325 167.053654,5.14845 165.858094,5.14845 C165.266477,5.04135 164.865902,5.14845 164.372888,5.24925 Z M159.405768,0.57465 C160.601328,0.47385 163.577902,0.37305 165.962859,0.37305 C171.121022,0.37305 173.21017,2.81115 173.21017,5.85405 C173.21017,8.18505 172.310419,9.70965 170.720448,10.72395 L170.720448,10.82475 C172.310419,11.43585 173.795625,13.05495 173.795625,15.79545 C173.795625,20.36295 170.326036,22.59315 165.660888,22.59315 C163.577902,22.59315 160.798534,22.49235 159.510534,22.39155 L159.405768,0.57465 Z M188.091192,13.56525 L188.091192,22.49235 L183.130235,22.49235 L183.130235,13.56525 L175.587116,0.57465 L181.244456,0.57465 L185.811001,8.89695 L190.371384,0.57465 L195.634312,0.57465 L188.091192,13.56525 Z" id="Combined-Shape"></path>
        </g>
    </g>
</svg>