<svg xmlns="http://www.w3.org/2000/svg" width="600" height="126.1" viewBox="0 0 600 126.1">
  <g id="Trustly_Checkout_Logotype_Horizontal_White_RGB" transform="translate(-68 -60)">
    <g id="Group_17908" data-name="Group 17908">
      <g id="Group_17907" data-name="Group 17907" transform="translate(-7 -15)">
        <path id="Path_29224" data-name="Path 29224" d="M275.1,175V92.9H245.5V75h78.7V93H294.6v82Z" fill="#fff"/>
        <path id="Path_29225" data-name="Path 29225" d="M322,175V102.3h18.1v11.5c4.7-9.7,10.6-11.5,16.9-11.5h7.1v18.2h-6.2c-9.2,0-17.3,5.3-17.3,21.4v33H322Z" fill="#fff"/>
        <path id="Path_29226" data-name="Path 29226" d="M374.4,148.7V102.4H393v41.9c0,9.3,4.8,15.5,13.3,15.5,8.2,0,14.3-6.2,14.3-15.4V102.3h18.6V175h-18v-9.2c-4.7,7.3-11.9,10.8-21,10.8C384.9,176.7,374.4,166.4,374.4,148.7Z" fill="#fff"/>
        <path id="Path_29227" data-name="Path 29227" d="M449.1,154.5l16.4-3.7c.8,6.4,6,10.7,14.7,10.7,7.1,0,11.2-3,11.2-6.9,0-3.2-1.9-5.3-8.8-7l-11.8-2.7c-13.8-3.2-20.3-9.7-20.3-21.8,0-12.3,10.3-22.1,29.1-22.1,19.9,0,28.1,11.8,29.2,20.3l-16.4,3.6c-.8-4.5-4.2-9.3-13.2-9.3-5.9,0-10.3,2.7-10.3,6.6,0,3.4,2.6,5.3,6.6,6.3l16,3.8c12.5,3,18.5,10.3,18.5,21,0,11.7-9.5,23.2-29.7,23.2C458.3,176.4,450.1,163.4,449.1,154.5Z" fill="#fff"/>
        <path id="Path_29228" data-name="Path 29228" d="M548.3,175c-12.5,0-20.4-7.1-20.4-20.4V118.5H515.8V102.3h12.1V85.8l18.6-5.3v21.9h14.8v16.2H546.5v32.9c0,5.3,2.6,7.4,8,7.4h8.1V175Z" fill="#fff"/>
        <path id="Path_29229" data-name="Path 29229" d="M574.8,175V75h18.6V175Z" fill="#fff"/>
        <path id="Path_29230" data-name="Path 29230" d="M655,102.4h20l-30.7,98.7h-20l8.5-26H622.7L602,102.4h20l15.8,57.2Z" fill="#fff"/>
      </g>
      <path id="Path_29231" data-name="Path 29231" d="M75,118.8h46.7V81.6l37.2,37.2L121.7,156v19h45.1V118.8h41.5V75H75Z" transform="translate(-7 -15)" fill="#fff"/>
    </g>
  </g>
</svg>
