<svg width="30" height="31" viewBox="0 0 30 31" fill="none" xmlns="http://www.w3.org/2000/svg">
<path fill-rule="evenodd" clip-rule="evenodd" d="M29.5 15.5C29.5 23.5081 23.0081 30 15 30C6.99187 30 0.5 23.5081 0.5 15.5C0.5 7.49187 6.99187 1 15 1C23.0081 1 29.5 7.49187 29.5 15.5ZM30 15.5C30 23.7843 23.2843 30.5 15 30.5C6.71573 30.5 0 23.7843 0 15.5C0 7.21573 6.71573 0.5 15 0.5C23.2843 0.5 30 7.21573 30 15.5ZM28.4998 15.5003C28.4998 22.9559 22.4559 28.9998 15.0003 28.9998C7.54471 28.9998 1.50077 22.9559 1.50077 15.5003C1.50077 8.04471 7.54471 2.00077 15.0003 2.00077C22.4559 2.00077 28.4998 8.04471 28.4998 15.5003ZM18.7665 17.7842C18.7665 19.4627 17.1686 20.6175 14.8389 20.6175C12.489 20.6175 10.9113 19.4559 10.9113 17.7775C10.9113 16.5018 11.8378 15.5149 13.1873 15.2934V15.2531C12.0593 14.9912 11.3007 14.1251 11.3007 13.0576C11.3007 11.5806 12.7643 10.4997 14.8389 10.4997C16.9202 10.4997 18.3704 11.5739 18.3704 13.0643C18.3704 14.1184 17.6184 14.9845 16.4905 15.2531V15.2934C17.8467 15.5216 18.7665 16.5086 18.7665 17.7842ZM13.0261 17.6298C13.0261 18.5026 13.7714 19.1404 14.8389 19.1404C15.9064 19.1404 16.6449 18.5026 16.6449 17.6298C16.6449 16.757 15.9064 16.1192 14.8389 16.1192C13.7714 16.1192 13.0261 16.757 13.0261 17.6298ZM13.3081 13.306C13.3081 14.0781 13.9392 14.6421 14.8389 14.6421C15.7318 14.6421 16.3696 14.0781 16.3696 13.306C16.3696 12.5272 15.7318 11.9633 14.8389 11.9633C13.9392 11.9633 13.3081 12.534 13.3081 13.306ZM9.51843 20.4026H7.51099V12.5742H7.4707L5 14.2796V12.4534L7.50427 10.7145H9.51843V20.4026ZM23.4808 16.2064H26.2201V14.4944H23.4808V11.594H21.7218V14.4944H18.9825V16.2064H21.7218V19.1404H23.4808V16.2064Z" fill="white"/>
</svg>
