<svg width="384" height="43" viewBox="0 0 384 43" fill="none" xmlns="http://www.w3.org/2000/svg">
<path d="M9.99414 21.6973H15.8218C17.63 21.6973 19.0444 21.2049 20.0649 20.2202C21.0854 19.2355 21.5957 17.9017 21.5957 16.2188C21.5957 14.5537 21.0675 13.2199 20.0112 12.2173C18.9549 11.1968 17.5495 10.6865 15.7949 10.6865H9.99414V21.6973ZM9.99414 42H0.138184V3.24756H16.7886C21.5868 3.24756 25.2749 4.37549 27.853 6.63135C30.3953 8.8514 31.6665 11.9845 31.6665 16.0308C31.6665 18.4657 31.0936 20.6499 29.9478 22.5835C28.7661 24.6066 27.1369 26.0747 25.0601 26.9878L32.7944 42H21.73L15.0967 28.438H9.99414V42ZM48.1289 35.7964C49.7044 35.7964 51.0293 35.3757 52.1035 34.5342C53.2314 33.6748 53.7954 32.5737 53.7954 31.231V29.1631L48.29 29.5391C45.4971 29.736 44.1006 30.7923 44.1006 32.708C44.1006 33.6569 44.4676 34.4089 45.2017 34.9639C45.9178 35.5189 46.8936 35.7964 48.1289 35.7964ZM44.772 42.4028C41.9253 42.4028 39.5441 41.5614 37.6284 39.8784C35.659 38.1776 34.6743 36.0023 34.6743 33.3525C34.6743 27.7487 38.7116 24.6961 46.7861 24.1948L53.7954 23.7651V22.0464C53.7954 20.8468 53.3926 19.9159 52.5869 19.2534C51.7992 18.6089 50.7249 18.2866 49.3643 18.2866C48.0931 18.2866 47.0368 18.591 46.1953 19.1997C45.3896 19.7905 44.9152 20.5604 44.772 21.5093H36.2051C36.3304 18.4836 37.6195 16.0576 40.0723 14.2314C42.543 12.3874 45.7925 11.4653 49.8208 11.4653C53.7954 11.4653 57.0002 12.3874 59.4351 14.2314C61.87 16.0934 63.0874 18.5283 63.0874 21.5361V42H53.8491V37.7031H53.6611C52.8734 39.1712 51.647 40.326 49.9819 41.1675C48.3706 41.991 46.634 42.4028 44.772 42.4028ZM67.9214 12.1099H77.4551V42H67.9214V12.1099ZM72.6748 9.63916C71.3141 9.63916 70.1683 9.19157 69.2373 8.29639C68.2705 7.4012 67.7871 6.28223 67.7871 4.93945C67.7871 3.61458 68.2705 2.49561 69.2373 1.58252C70.1683 0.687337 71.3141 0.239746 72.6748 0.239746C74.0355 0.239746 75.1903 0.687337 76.1392 1.58252C77.106 2.49561 77.5894 3.61458 77.5894 4.93945C77.5894 6.28223 77.106 7.4012 76.1392 8.29639C75.2082 9.19157 74.0534 9.63916 72.6748 9.63916ZM93.3267 42.4028C89.6206 42.4028 86.7023 41.0332 84.5718 38.2939C82.4412 35.5547 81.376 31.786 81.376 26.9878C81.376 22.2433 82.4502 18.5104 84.5986 15.7891C86.7471 13.0677 89.6833 11.707 93.4072 11.707C95.5378 11.707 97.4087 12.2262 99.02 13.2646C100.578 14.2852 101.697 15.6458 102.377 17.3467H102.565V1.31396H112.099V42H102.619V36.8706H102.458C101.831 38.4998 100.712 39.8247 99.1006 40.8452C97.4176 41.8836 95.493 42.4028 93.3267 42.4028ZM96.8716 19.1997C95.0991 19.1997 93.6937 19.8979 92.6553 21.2944C91.6169 22.7088 91.0977 24.6245 91.0977 27.0415C91.0977 29.4764 91.6169 31.401 92.6553 32.8154C93.6758 34.2119 95.0812 34.9102 96.8716 34.9102C98.644 34.9102 100.049 34.2119 101.088 32.8154C102.108 31.4189 102.619 29.5033 102.619 27.0684C102.619 24.6514 102.108 22.7357 101.088 21.3213C100.049 19.9069 98.644 19.1997 96.8716 19.1997ZM137.665 42V11.1968H126.923V3.24756H158.263V11.1968H147.521V42H137.665ZM162.077 1.31396H171.396V17.7227H171.583C173.195 13.6406 176.409 11.5996 181.225 11.5996C184.555 11.5996 187.169 12.5933 189.066 14.5806C190.964 16.5858 191.913 19.3519 191.913 22.8789V42H182.379V24.9199C182.379 23.2012 181.914 21.8405 180.983 20.8379C180.034 19.8532 178.745 19.3608 177.116 19.3608C175.486 19.3608 174.162 19.8979 173.141 20.9722C172.103 22.0643 171.583 23.4608 171.583 25.1616V42H162.077V1.31396ZM210.578 18.2329C209.056 18.2329 207.776 18.7432 206.737 19.7637C205.699 20.7842 205.117 22.0911 204.992 23.6846H216.11C216.02 22.0374 215.474 20.7126 214.472 19.71C213.451 18.7253 212.153 18.2329 210.578 18.2329ZM224.918 32.6006C224.453 35.6621 222.949 38.097 220.407 39.9053C217.847 41.7314 214.633 42.6445 210.766 42.6445C206.039 42.6445 202.333 41.2749 199.647 38.5356C196.962 35.7964 195.619 32.0187 195.619 27.2026C195.619 22.3866 196.953 18.5552 199.621 15.7085C202.288 12.8797 205.896 11.4653 210.443 11.4653C214.901 11.4653 218.464 12.8171 221.132 15.5205C223.782 18.2419 225.106 21.8763 225.106 26.4238V29.1362H204.884V29.7271C204.884 31.5532 205.439 33.0303 206.549 34.1582C207.659 35.304 209.11 35.877 210.9 35.877C213.747 35.877 215.555 34.7848 216.325 32.6006H224.918ZM249.652 42V11.1968H238.91V3.24756H270.25V11.1968H259.508V42H249.652ZM283.141 42.6445C278.397 42.6445 274.682 41.2749 271.996 38.5356C269.275 35.7785 267.914 31.9471 267.914 27.0415C267.914 22.2254 269.293 18.4209 272.05 15.6279C274.771 12.8529 278.468 11.4653 283.141 11.4653C287.832 11.4653 291.538 12.8439 294.259 15.6011C296.999 18.3761 298.368 22.1896 298.368 27.0415C298.368 31.965 297.007 35.8053 294.286 38.5625C291.601 41.2839 287.886 42.6445 283.141 42.6445ZM283.141 35.6353C284.896 35.6353 286.256 34.8923 287.223 33.4062C288.226 31.9023 288.727 29.7808 288.727 27.0415C288.727 24.3739 288.226 22.2702 287.223 20.7305C286.221 19.2266 284.86 18.4746 283.141 18.4746C281.404 18.4746 280.044 19.2266 279.059 20.7305C278.056 22.2523 277.555 24.356 277.555 27.0415C277.555 29.7808 278.048 31.9023 279.032 33.4062C280.017 34.8923 281.387 35.6353 283.141 35.6353ZM302.208 12.1099H311.447V17.8569H311.635C312.226 15.9412 313.291 14.4194 314.831 13.2915C316.37 12.1636 318.152 11.5996 320.175 11.5996C322.395 11.5996 324.23 12.1457 325.68 13.2378C327.13 14.3478 328.07 15.9144 328.5 17.9375H328.688C329.279 16.0039 330.407 14.4642 332.072 13.3184C333.755 12.1725 335.706 11.5996 337.926 11.5996C340.845 11.5996 343.208 12.5306 345.016 14.3926C346.824 16.2725 347.729 18.7253 347.729 21.751V42H338.222V24.168C338.222 20.9453 336.789 19.334 333.925 19.334C332.582 19.334 331.517 19.7816 330.729 20.6768C329.923 21.5719 329.521 22.7715 329.521 24.2754V42H320.443V24.0337C320.443 22.5298 320.067 21.366 319.315 20.5425C318.581 19.7368 317.525 19.334 316.146 19.334C314.822 19.334 313.747 19.7905 312.924 20.7036C312.118 21.6167 311.715 22.8252 311.715 24.3291V42H302.208V12.1099ZM371.388 42.4028C366.876 42.4028 363.806 40.5588 362.177 36.8706H361.989V42H352.536V1.31396H362.042V17.3467H362.257C363.887 13.5869 366.903 11.707 371.308 11.707C375.085 11.707 378.021 13.0498 380.116 15.7354C382.211 18.4209 383.258 22.1896 383.258 27.0415C383.258 31.8934 382.22 35.6621 380.143 38.3477C378.048 41.0511 375.13 42.4028 371.388 42.4028ZM367.79 19.1997C366.053 19.1997 364.656 19.9159 363.6 21.3481C362.544 22.7804 362.016 24.6872 362.016 27.0684C362.016 29.4495 362.535 31.3563 363.573 32.7886C364.63 34.203 366.035 34.9102 367.79 34.9102C369.544 34.9102 370.941 34.203 371.979 32.7886C373.017 31.3563 373.537 29.4406 373.537 27.0415C373.537 24.6603 373.008 22.7625 371.952 21.3481C370.914 19.9159 369.526 19.1997 367.79 19.1997Z" fill="url(#paint0_linear)"/>
<defs>
<linearGradient id="paint0_linear" x1="-3" y1="4.31101" x2="396.503" y2="4.31102" gradientUnits="userSpaceOnUse">
<stop stop-color="#EB8106"/>
<stop offset="1" stop-color="#F34119"/>
</linearGradient>
</defs>
</svg>
