<svg width="18" height="18" viewBox="0 0 18 18" fill="none" xmlns="http://www.w3.org/2000/svg">
<path d="M5.625 5.89453C6.26935 5.89453 6.8369 5.71131 7.30558 5.47751C6.82976 6.41009 6.54467 7.48961 6.48809 8.60289C4.58558 8.81564 3.09375 10.4782 3.09375 12.5156C3.09375 14.6965 4.79696 16.5 6.89062 16.5C7.53563 16.5 8.1535 16.3107 8.70765 15.9941C7.84797 15.1162 7.3125 13.8658 7.3125 12.5156C7.3125 11.1655 7.84797 9.94437 8.70765 9.06649C8.28094 8.82262 7.816 8.65679 7.33052 8.59236C7.51399 5.48621 9.76597 2.9241 12.6695 2.45661C11.9301 3.53808 11.5312 4.82851 11.5312 6.18338V8.60495C9.63798 8.82685 8.15625 10.4851 8.15625 12.5156C8.15625 14.6965 9.85946 16.5 11.9531 16.5C14.0468 16.5 15.75 14.6965 15.75 12.5156C15.75 10.4851 14.2683 8.82685 12.375 8.60495V6.18338C12.375 4.69759 12.9304 3.30073 13.9389 2.25016L14.6591 1.5H13.6406C11.6591 1.5 9.86331 2.34171 8.56395 3.69944C8.22283 3.35829 7.12903 2.37891 5.625 2.37891C3.84521 2.37891 2.62738 3.76032 2.56849 3.81915L2.25 4.13672L2.56849 4.45429C2.62738 4.51311 3.84521 5.89453 5.625 5.89453V5.89453ZM11.9531 11.1973C11.2553 11.1973 10.6875 11.7887 10.6875 12.5156H9.84375C9.84375 11.3042 10.7901 10.3184 11.9531 10.3184V11.1973ZM6.89062 11.1973C6.19277 11.1973 5.625 11.7887 5.625 12.5156H4.78125C4.78125 11.3042 5.72761 10.3184 6.89062 10.3184V11.1973Z" fill="#8292A7"/>
</svg>
