<svg width="18" height="18" viewBox="0 0 18 18" fill="none" xmlns="http://www.w3.org/2000/svg">
<path d="M6.75 5.25V12.75H11.25V5.25H6.75ZM10.35 8.72534L10.2182 8.86267C9.72996 9.37122 9.45 10.0753 9.45 10.7944V11.3438H8.55V10.7944C8.55 9.89539 8.87602 9.01379 9.45 8.34497V8.0625H8.55V8.53125H7.65V7.125H10.35V8.72534Z" fill="#8292A7"/>
<path d="M1.5 3H16.5V4.5H1.5V3Z" fill="#8292A7"/>
<path d="M1.5 13.5H16.5V15H1.5V13.5Z" fill="#8292A7"/>
<path d="M6 5.25H1.5V12.75H6V5.25ZM5.10596 8.72534L4.975 8.86267C4.49003 9.37122 4.21192 10.0753 4.21192 10.7944V11.3438H3.31788V10.7944C3.31788 9.89539 3.64174 9.01379 4.21192 8.34497V8.0625H3.31788V8.53125H2.42384V7.125H5.10596V8.72534Z" fill="#8292A7"/>
<path d="M12 12.75H16.5V5.25H12V12.75ZM12.894 7.125H15.5762V8.72534L15.4452 8.86267C14.9602 9.37122 14.6821 10.0753 14.6821 10.7944V11.3438H13.7881V10.7944C13.7881 9.89539 14.1119 9.01379 14.6821 8.34497V8.0625H13.7881V8.53125H12.894V7.125Z" fill="#8292A7"/>
</svg>
