<svg width="48" height="48" viewBox="0 0 48 48" fill="none" xmlns="http://www.w3.org/2000/svg">
<path d="M2.65967 26.3127L0.504575 28.6834C0.307805 28.8989 0.242215 29.1987 0.335915 29.4798C0.429615 29.7609 0.663864 29.9577 0.954333 30.0139C1.91944 30.1732 2.89392 30.2481 3.8684 30.2388C5.59247 30.2575 7.31655 29.9951 8.95629 29.4517C8.81574 30.2575 9.09684 31.0821 9.70589 31.6349L12.6668 34.3241C12.9854 34.6052 13.3977 34.7551 13.8193 34.7364C14.241 34.7176 14.6439 34.5302 14.925 34.2116L15.2154 33.8931V45.5774C15.2154 46.8986 16.293 47.9761 17.6142 47.9761H41.6013C42.9225 47.9761 44 46.8986 44 45.5774V25.5819C44 24.7011 43.2879 23.9796 42.3977 23.9796H24.2106L33.2058 14.0756C33.7961 13.4197 33.7492 12.4077 33.0933 11.8174L30.1324 9.12821C29.5234 8.57538 28.6707 8.37861 27.8743 8.60349C28.4177 5.95179 28.3428 3.20639 27.6588 0.582794C27.5838 0.301694 27.3589 0.0861851 27.0685 0.0205953C26.7874 -0.0449946 26.4875 0.0487052 26.2907 0.264215L24.1357 2.63482L21.7651 0.479724C21.5402 0.282955 21.231 0.217365 20.9499 0.320434C20.6688 0.423504 20.472 0.676493 20.4345 0.976333L19.966 4.95857C18.4762 4.80865 16.9676 4.96794 15.5528 5.43644C15.0936 5.58636 14.6907 5.86746 14.3909 6.23289C12.5356 8.58475 12.1608 11.7799 13.4164 14.4972C10.5867 13.5134 7.44773 14.188 5.28326 16.2681C4.94594 16.6055 4.70232 17.0365 4.59925 17.4956C4.26194 18.9573 4.25256 20.4753 4.54303 21.937L0.626384 22.7896C0.335915 22.8552 0.101666 23.0707 0.0267057 23.3612C-0.0482541 23.6517 0.0360757 23.9609 0.260955 24.1577L2.65967 26.3127ZM13.7444 33.1341L10.7834 30.4449C10.6241 30.3044 10.5304 30.1076 10.5211 29.8921C10.5117 29.6766 10.5867 29.4704 10.7272 29.3111L12.8729 26.9499L15.5621 23.989L19.1133 27.2123L13.7444 33.1341ZM15.4028 20.5971C14.9343 20.166 14.6532 19.5757 14.6158 18.9386C14.5783 18.3014 14.8032 17.683 15.2342 17.2145L16.3117 16.0339C16.7427 15.5654 17.3331 15.2843 17.9702 15.2468C18.6074 15.2187 19.2258 15.4342 19.6943 15.8652L20.2846 16.3993L15.9838 21.1405L15.4028 20.5971ZM13.0322 19.0791C13.0416 19.2478 13.0697 19.4071 13.1072 19.5664C11.9078 19.7631 10.6804 19.632 9.5466 19.1916C10.6616 18.7887 11.8891 18.7512 13.0322 19.0791ZM18.4481 13.6726C18.2794 13.6539 18.1108 13.6445 17.9515 13.6445C17.5205 12.5389 17.4455 11.3208 17.736 10.1683C18.2888 11.2458 18.5324 12.4639 18.4481 13.6726ZM20.1909 26.0223L16.6397 22.799L22.0087 16.8772L25.5599 20.1005L20.1909 26.0223ZM42.4071 45.5774C42.4071 46.0178 42.051 46.3739 41.6107 46.3739H33.6181V25.5819H42.4165V45.5774H42.4071ZM32.0158 25.5819V46.3739H27.2184V25.5819H32.0158ZM25.6161 25.5819V46.3739H17.6235C17.1831 46.3739 16.8271 46.0178 16.8271 45.5774V32.1221L22.7676 25.5819H25.6161ZM27.9211 10.3744C28.221 10.0465 28.7176 10.0184 29.0455 10.3182L32.0064 13.0074L26.6374 18.9198L23.0862 15.6966L25.7754 12.7357L27.9211 10.3744ZM21.8587 2.70978L23.6672 4.34952C23.8264 4.49007 24.0326 4.56503 24.2387 4.55566C24.4449 4.54629 24.651 4.45259 24.7915 4.2933L26.4219 2.49427C26.7592 4.64936 27.0029 8.66908 24.8197 11.3676C24.8103 10.1495 24.6323 8.95018 24.3043 7.77893C24.0326 6.8232 23.3579 6.03612 22.4491 5.62384C22.1586 5.49266 21.8587 5.38022 21.5495 5.28652L21.8587 2.70978ZM15.6652 7.23548C15.7776 7.1043 15.9182 7.0106 16.0775 6.95438C17.9327 6.29848 19.966 6.34533 21.7932 7.08556C22.271 7.30107 22.6271 7.71334 22.7676 8.20995C23.3111 9.92466 23.3579 11.7612 22.9082 13.504L21.3621 15.2093L20.7718 14.6752C20.5376 14.4691 20.2846 14.2911 20.0035 14.1411C20.219 12.1079 19.6943 10.0558 18.5324 8.36924C18.3356 8.06003 17.989 7.89137 17.6329 7.91011C17.2394 7.92885 16.8833 8.15373 16.6959 8.50979C15.8151 10.2151 15.7027 12.2203 16.3867 14.01C15.9931 14.2067 15.6277 14.4597 15.3185 14.7689C14.5221 13.326 13.3227 10.1683 15.6652 7.23548ZM6.18278 17.8517C6.22026 17.683 6.29522 17.5331 6.41703 17.4113C9.11558 14.797 12.3763 15.6872 13.9036 16.3337C13.6225 16.6804 13.407 17.0646 13.2477 17.4769C11.3925 16.9709 9.40605 17.2801 7.79442 18.3202C7.46647 18.545 7.27907 18.9105 7.29781 19.304C7.31655 19.6601 7.51332 19.988 7.8319 20.1567C9.13432 20.8594 10.5867 21.2342 12.0578 21.2623C12.62 21.2623 13.1822 21.1967 13.7256 21.0749C13.8943 21.3373 14.1004 21.5715 14.3347 21.787L14.925 22.3211L13.3789 24.0265C11.683 24.6355 9.85581 24.7667 8.09425 24.3919C7.57891 24.2982 7.13852 23.9796 6.87616 23.5299C5.9579 21.787 5.71428 19.7725 6.18278 17.8517ZM5.05838 23.4736C5.18019 23.7735 5.32074 24.0546 5.48003 24.3357C5.97664 25.1977 6.81994 25.7974 7.79442 25.9754C8.61897 26.1253 9.4529 26.2003 10.2868 26.2003C10.6523 26.2003 11.0364 26.1816 11.4206 26.1441C8.94692 28.5709 4.9272 28.7208 2.744 28.5897L4.38374 26.8C4.52429 26.6407 4.59925 26.4346 4.58988 26.2284C4.58051 26.0129 4.48681 25.8161 4.32753 25.6756L2.51912 24.0358L5.05838 23.4736Z" fill="#EB8106"/>
<path d="M40.0074 30.3792C40.4478 30.3792 40.8038 30.0232 40.8038 29.5828V27.9805C40.8038 27.5401 40.4478 27.1841 40.0074 27.1841C39.567 27.1841 39.2109 27.5401 39.2109 27.9805V29.5828C39.2109 30.0232 39.567 30.3792 40.0074 30.3792Z" fill="#EB8106"/>
<path d="M40.0074 44.7715C40.4478 44.7715 40.8038 44.4155 40.8038 43.9751V32.7779C40.8038 32.3376 40.4478 31.9815 40.0074 31.9815C39.567 31.9815 39.2109 32.3376 39.2109 32.7779V43.9751C39.2109 44.4155 39.567 44.7715 40.0074 44.7715Z" fill="#EB8106"/>
<path d="M19.2164 44.7715C19.6568 44.7715 20.0128 44.4155 20.0128 43.9751V32.7779C20.0128 32.3376 19.6568 31.9815 19.2164 31.9815C18.776 31.9815 18.4199 32.3376 18.4199 32.7779V43.9751C18.4199 44.4155 18.776 44.7715 19.2164 44.7715Z" fill="#EB8106"/>
</svg>
