<svg width="49" height="48" viewBox="0 0 49 48" fill="none" xmlns="http://www.w3.org/2000/svg">
<path fill-rule="evenodd" clip-rule="evenodd" d="M16.8 8C16.8 12.4184 20.3816 16 24.8 16C29.2184 16 32.8 12.4184 32.8 8C32.8 3.5816 29.2184 0 24.8 0C20.3816 0 16.8 3.5816 16.8 8ZM29.3255 12.5255C28.1252 13.7257 26.4974 14.4 24.8 14.4C23.1026 14.4 21.4747 13.7257 20.2745 12.5255C19.0743 11.3253 18.4 9.69739 18.4 8C18.4 6.30261 19.0743 4.67475 20.2745 3.47452C21.4747 2.27428 23.1026 1.6 24.8 1.6C26.4974 1.6 28.1252 2.27428 29.3255 3.47452C30.5257 4.67475 31.2 6.30261 31.2 8C31.2 9.69739 30.5257 11.3253 29.3255 12.5255ZM27.2 7.2H23.24C23.3093 6.85974 23.466 6.54338 23.6947 6.28206C23.9234 6.02074 24.2161 5.82347 24.5442 5.70965C24.8723 5.59582 25.2243 5.56938 25.5657 5.63292C25.9071 5.69645 26.226 5.84778 26.4912 6.072L27.852 5.1656C27.3848 4.65636 26.7808 4.29237 26.1123 4.11711C25.4438 3.94185 24.7389 3.96273 24.0819 4.17726C23.425 4.39178 22.8436 4.79088 22.4073 5.32688C21.9711 5.86289 21.6983 6.51315 21.6216 7.2H20.8V8.8H21.6224C21.6993 9.48651 21.9722 10.1364 22.4084 10.6721C22.8445 11.2078 23.4256 11.6066 24.0823 11.8211C24.739 12.0356 25.4435 12.0566 26.1118 11.8816C26.78 11.7067 27.3839 11.3431 27.8512 10.8344L26.4912 9.928C26.226 10.1522 25.9071 10.3035 25.5657 10.3671C25.2243 10.4306 24.8723 10.4042 24.5442 10.2904C24.2161 10.1765 23.9234 9.97926 23.6947 9.71794C23.466 9.45662 23.3093 9.14026 23.24 8.8H27.2V7.2ZM43.1998 45.6V38.4H44.7998C45.2417 38.4 45.5998 38.0418 45.5998 37.6C45.5998 37.1582 45.2417 36.8 44.7998 36.8H43.1998V35.2H47.1998C47.358 35.2 47.5127 35.153 47.6442 35.0651C47.7757 34.9772 47.8782 34.8523 47.9388 34.7061C47.9993 34.56 48.0152 34.3991 47.9843 34.244C47.9534 34.0888 47.8773 33.9463 47.7654 33.8344L42.9654 29.0344C42.8154 28.8844 42.612 28.8 42.3998 28.8H5.59983C5.38767 28.8 5.18422 28.8844 5.03423 29.0344L0.23423 33.8344C0.122382 33.9463 0.0462168 34.0888 0.0153628 34.244C-0.0154913 34.3991 0.00035116 34.56 0.0608872 34.7061C0.121423 34.8523 0.223935 34.9772 0.355463 35.0651C0.486991 35.153 0.641629 35.2 0.79983 35.2H3.99983V45.6C3.99983 46.4837 4.71617 47.2 5.59983 47.2H41.5998C42.4835 47.2 43.1998 46.4837 43.1998 45.6ZM41.5998 45.6H31.9998V38.4H41.5998V45.6ZM15.1998 32.8C14.758 32.8 14.3998 33.1582 14.3998 33.6V45.6H12.7998V33.1312L15.1998 30.7312L19.4342 34.9656C19.5842 35.1156 19.7877 35.2 19.9998 35.2H26.3998V36.8H23.9998C23.558 36.8 23.1998 37.1582 23.1998 37.6C23.1998 38.0418 23.558 38.4 23.9998 38.4H26.3998V45.6H15.9998V33.6C15.9998 33.1582 15.6417 32.8 15.1998 32.8ZM10.3998 35.2C10.612 35.2 10.8154 35.1156 10.9654 34.9656L11.1998 34.7312V45.6H8.79983V35.2H10.3998ZM30.3998 35.2V36.8H27.9998V35.2H30.3998ZM27.9998 38.4H30.3998V45.6H27.9998V38.4ZM41.5998 36.8H31.9998V35.2H41.5998V36.8ZM42.0686 30.4L45.2686 33.6H20.331L17.131 30.4H42.0686ZM5.93103 30.4H13.2686L10.0686 33.6H2.73103L5.93103 30.4ZM5.59983 35.2H7.19983V45.6H5.59983V35.2ZM20 37.6C20 38.0418 20.3582 38.4 20.8 38.4C21.2418 38.4 21.6 38.0418 21.6 37.6C21.6 37.1582 21.2418 36.8 20.8 36.8C20.3582 36.8 20 37.1582 20 37.6ZM36.0001 25.3283C32.1736 23.1191 30.8627 18.2265 33.0719 14.4001C35.2811 10.5736 40.1736 9.26268 44.0001 11.4719C47.8265 13.6811 49.1375 18.5736 46.9283 22.4001C44.7191 26.2265 39.8265 27.5375 36.0001 25.3283ZM36.8001 23.9426C38.2701 24.7913 40.017 25.0213 41.6565 24.582C43.2961 24.1427 44.6939 23.0701 45.5426 21.6001C46.3913 20.1301 46.6213 18.3832 46.182 16.7436C45.7427 15.1041 44.6701 13.7062 43.2001 12.8575C41.7301 12.0088 39.9832 11.7788 38.3436 12.2182C36.7041 12.6575 35.3062 13.7301 34.4575 15.2001C33.6088 16.6701 33.3788 18.417 33.8182 20.0565C34.2575 21.6961 35.3301 23.0939 36.8001 23.9426ZM39.0491 16.9273L42.4785 18.9073L41.6785 20.2929L38.2491 18.3129C38.139 18.6422 38.1165 18.9945 38.1839 19.3352C38.2513 19.6758 38.4062 19.9931 38.6334 20.2557C38.8606 20.5183 39.1522 20.7172 39.4797 20.8329C39.8071 20.9486 40.159 20.977 40.5007 20.9154L41.2253 22.3803C40.5662 22.5873 39.8615 22.6002 39.1953 22.4176C38.529 22.2349 37.9294 21.8645 37.468 21.3504C37.0065 20.8363 36.7027 20.2003 36.5928 19.5183C36.4829 18.8363 36.5716 18.1371 36.8482 17.5041L36.136 17.0929L36.936 15.7073L37.6475 16.1181C38.0573 15.5616 38.6187 15.1348 39.2645 14.8888C39.9104 14.6427 40.6134 14.5877 41.2896 14.7305C41.9658 14.8732 42.5867 15.2075 43.078 15.6935C43.5693 16.1796 43.9104 16.7968 44.0604 17.4714L42.4287 17.576C42.3112 17.2492 42.1106 16.9587 41.8467 16.733C41.5829 16.5073 41.2648 16.3541 40.9237 16.2887C40.5827 16.2232 40.2305 16.2477 39.9018 16.3596C39.5731 16.4716 39.2792 16.6672 39.0491 16.9273ZM1.87187 22.4001C4.08107 26.2265 8.97363 27.5375 12.8001 25.3283C16.6265 23.1191 17.9375 18.2265 15.7283 14.4001C13.5191 10.5736 8.62653 9.26268 4.80008 11.4719C0.973632 13.6811 -0.337325 18.5736 1.87187 22.4001ZM14.982 20.0565C14.5427 21.6961 13.4701 23.0939 12.0001 23.9426C10.5301 24.7913 8.78319 25.0213 7.14364 24.582C5.50409 24.1427 4.10621 23.0701 3.25752 21.6001C2.40882 20.1301 2.17884 18.3832 2.61815 16.7436C3.05747 15.1041 4.1301 13.7062 5.60008 12.8575C7.07006 12.0088 8.81697 11.7788 10.4565 12.2182C12.0961 12.6575 13.4939 13.7301 14.3426 15.2001C15.1913 16.6701 15.4213 18.417 14.982 20.0565ZM10.4785 16.5073L7.04908 18.4873C6.93896 18.1579 6.91649 17.8056 6.98388 17.465C7.05126 17.1243 7.20617 16.8071 7.43337 16.5445C7.66057 16.2819 7.95223 16.0829 8.27965 15.9673C8.60707 15.8516 8.95896 15.8232 9.3007 15.8848L10.026 14.4194C9.36672 14.212 8.66169 14.1988 7.99511 14.3813C7.32852 14.5637 6.72854 14.9342 6.26684 15.4485C5.80514 15.9628 5.50123 16.5991 5.39141 17.2814C5.28158 17.9638 5.37049 18.6633 5.6475 19.2965L4.93598 19.7073L5.73598 21.0929L6.4482 20.6817C6.85809 21.2378 7.41931 21.6641 8.06489 21.91C8.71048 22.1558 9.41316 22.2107 10.0891 22.0681C10.765 21.9255 11.3856 21.5915 11.8769 21.1058C12.3682 20.6201 12.7093 20.0034 12.8597 19.3291L11.2287 19.2242C11.1112 19.5509 10.9106 19.8415 10.6467 20.0672C10.3829 20.2929 10.0648 20.446 9.72373 20.5115C9.38271 20.5769 9.03051 20.5525 8.70181 20.4405C8.37311 20.3285 8.07923 20.1329 7.84908 19.8729L11.2785 17.8929L10.4785 16.5073ZM24.8 18.4C24.8 17.9582 24.4418 17.6 24 17.6C23.5582 17.6 23.2 17.9582 23.2 18.4V26.4C23.2 26.8418 23.5582 27.2 24 27.2C24.4418 27.2 24.8 26.8418 24.8 26.4V18.4ZM27.2 27.2C26.7582 27.2 26.4 26.8418 26.4 26.4V24C26.4 23.1513 26.7371 22.3374 27.3373 21.7373C27.7469 21.3276 28.2563 21.0404 28.8083 20.8995C29.2364 20.7902 29.6 21.1582 29.6 21.6C29.6 22.0418 29.2206 22.3841 28.8329 22.5959C28.7003 22.6683 28.5774 22.7598 28.4686 22.8686C28.1686 23.1687 28 23.5757 28 24V26.4C28 26.8418 27.6418 27.2 27.2 27.2ZM20.8 27.2C21.2418 27.2 21.6 26.8418 21.6 26.4V22.4C21.6 21.5513 21.2629 20.7374 20.6627 20.1373C20.2531 19.7276 19.7437 19.4405 19.1917 19.2995C18.7636 19.1902 18.4 19.5582 18.4 20C18.4 20.4418 18.7794 20.7841 19.1671 20.9959C19.2997 21.0683 19.4226 21.1598 19.5314 21.2686C19.8314 21.5687 20 21.9757 20 22.4V26.4C20 26.8418 20.3582 27.2 20.8 27.2ZM16.4903 0.489068C16.7864 0.163482 17.2929 0.176547 17.5978 0.493959C17.9044 0.813217 17.8903 1.31882 17.5966 1.65004C16.9177 2.41576 16.3655 3.2873 15.9628 4.23186C15.4549 5.42294 15.1954 6.7051 15.2001 7.99992C15.2001 8.40818 14.8982 8.7638 14.4911 8.79524L14.4308 8.79989C13.9902 8.83393 13.6026 8.50397 13.6002 8.06201L13.6001 7.99992C13.595 6.48956 13.898 4.99404 14.4906 3.60477C14.9789 2.45993 15.6554 1.40707 16.4903 0.489068Z" fill="#EB8106"/>
</svg>
