<svg width="48" height="48" viewBox="0 0 48 48" fill="none" xmlns="http://www.w3.org/2000/svg">
<path fill-rule="evenodd" clip-rule="evenodd" d="M39.779 24.2042C39.5748 24.3574 39.3195 24.4595 39.0642 24.4595H27.9833V26.9616H38.6556L46.0599 20.1701C46.4684 19.7616 47.1322 19.8127 47.4897 20.2212C47.8982 20.6297 47.8471 21.2935 47.4386 21.651L39.779 28.7488C39.5748 28.902 39.3195 29.0042 39.0642 29.0042H27.9833V31.5063H38.6556L46.0599 24.7659C46.4684 24.3574 47.1322 24.4084 47.4897 24.8169C47.8982 25.2254 47.8471 25.8893 47.4386 26.2467L39.779 33.3446C39.5748 33.4978 39.3195 33.5999 39.0642 33.5999H27.9833V36.102H38.6556L46.0599 29.2084C46.4684 28.7999 47.1322 28.851 47.4897 29.2595C47.8982 29.668 47.8471 30.3318 47.4386 30.6893L39.779 37.7871C39.5748 37.9403 39.3195 38.0425 39.0642 38.0425H1.27692C0.71522 38.0425 0.255645 37.5829 0.255645 37.0212C0.255645 36.4595 0.71522 35.9999 1.27692 35.9999H11.745V33.4978H1.27692C0.71522 33.4978 0.255645 33.0382 0.255645 32.4765C0.255645 31.9148 0.71522 31.4552 1.27692 31.4552H11.745V28.9531H1.27692C0.71522 28.9531 0.255645 28.4935 0.255645 27.9318C0.255645 27.3701 0.71522 26.9105 1.27692 26.9105H11.745V24.4084H1.27692C0.71522 24.4084 0.255645 23.9488 0.255645 23.3871C0.255645 22.8254 0.71522 22.3659 1.27692 22.3659H11.745V19.8637H1.27692C0.817347 19.8637 0.459901 19.6084 0.306709 19.1999C0.153518 18.7914 0.255645 18.3829 0.562028 18.0765L8.2216 10.9786C8.42586 10.8254 8.68118 10.7233 8.9365 10.7233H19.6599L20.3237 10.1105C20.528 9.95735 20.7833 9.85522 21.0386 9.85522H35.1833C35.6429 9.85522 36.0003 10.1105 36.1535 10.5191C36.2046 10.6212 36.2046 10.6722 36.2046 10.7744H46.7237C47.1833 10.7744 47.5408 11.0297 47.6939 11.4382C47.8471 11.8467 47.745 12.2552 47.4386 12.5616L39.779 19.6595C39.5748 19.8127 39.3195 19.9148 39.0642 19.9148H27.9833V22.4169H38.6556L46.0599 15.6254C46.4684 15.2169 47.1322 15.268 47.4897 15.6765C47.8982 16.085 47.8471 16.7488 47.4386 17.1063L39.779 24.2042ZM29.2088 17.8212H38.6556L44.0684 12.7659H34.6727H34.6216L29.2088 17.8212ZM17.5152 12.8169H9.34501L3.93224 17.8212H12.1025L17.5152 12.8169ZM13.7876 18.9957V36.102H25.9408V18.5871C25.9408 18.2808 26.0429 18.0254 26.2471 17.8212L32.6301 11.8978H21.4471L13.7876 18.9957ZM20.5792 31.1489C21.7536 31.1489 22.4175 30.6894 23.1834 29.9234C23.4898 29.617 23.9494 29.617 24.2047 29.9745C24.3068 30.0766 24.409 30.2809 24.409 30.4851C24.409 30.6894 24.3579 30.8426 24.2047 30.9958C23.4388 31.8128 22.3154 32.6809 20.5281 32.6809C18.4345 32.6809 16.5962 31.4043 15.8302 29.5149H15.0643C14.6558 29.5149 14.2983 29.1575 14.2983 28.7489C14.2983 28.3404 14.6558 27.983 15.0643 27.983H15.4728V27.5745V27.4723H15.0643C14.6558 27.4723 14.2983 27.1149 14.2983 26.7064C14.2983 26.2979 14.6558 25.9404 15.0643 25.9404H15.7281C16.443 23.8468 18.3324 22.4681 20.5281 22.4681C22.3154 22.4681 23.4388 23.3362 24.2047 24.1021C24.5111 24.4085 24.5111 24.8681 24.2047 25.1745C23.8983 25.4809 23.4388 25.4809 23.1324 25.1745C22.3664 24.4085 21.7026 23.9489 20.5281 23.9489C19.2005 23.9489 17.9749 24.7149 17.3622 25.8894H20.8856C21.2941 25.8894 21.6515 26.2468 21.6515 26.6553C21.6515 27.0638 21.2941 27.4213 20.8856 27.4213H17.0558V27.5234V27.9319H20.8856C21.2941 27.9319 21.6515 28.2894 21.6515 28.6979C21.6515 29.1064 21.2941 29.4638 20.8856 29.4638H17.5664C18.1792 30.5362 19.3026 31.1489 20.5792 31.1489Z" fill="#EB8106"/>
</svg>
