<svg width="48" height="48" viewBox="0 0 48 48" fill="none" xmlns="http://www.w3.org/2000/svg">
<path d="M43.1667 11.6217H33.6863C34.8647 10.4877 35.6 8.89603 35.6 7.13517C35.6 1.92888 29.5665 -0.962932 25.5062 2.24259C25.1305 2.53911 25.0664 3.08401 25.3632 3.45951C25.66 3.83516 26.205 3.89896 26.5804 3.60243C29.5056 1.29326 33.8667 3.37227 33.8667 7.13517C33.8667 9.51133 32.0136 11.4621 29.6763 11.6217H24.8667V7.13508C24.8667 3.699 22.0705 0.903822 18.6333 0.903822C15.1962 0.903822 12.4 3.699 12.4 7.13508C12.4 8.89602 13.1353 10.4877 14.3137 11.6216H4.83333C2.66444 11.6216 0.9 13.3854 0.9 15.5537V19.5042C0.9 21.4425 2.31006 23.0572 4.15833 23.3781V43.168C4.15833 45.3362 5.92277 47.1 8.09167 47.1H39.9083C42.0772 47.1 43.8417 45.3362 43.8417 43.168V26.6784C43.8417 26.1999 43.4536 25.812 42.975 25.812C42.4964 25.812 42.1083 26.1999 42.1083 26.6784V43.1681C42.1083 44.3805 41.1213 45.3673 39.9083 45.3673H21.4167V23.4363H26.5833V42.7092C26.5833 43.1877 26.9714 43.5756 27.45 43.5756C27.9286 43.5756 28.3167 43.1877 28.3167 42.7092V23.4363H36.7458C37.2244 23.4363 37.6125 23.0484 37.6125 22.5699C37.6125 22.0914 37.2244 21.7035 36.7458 21.7035H31.7667V13.3545H43.1667C44.3796 13.3545 45.3667 14.3412 45.3667 15.5538V19.5043C45.3667 20.7169 44.3796 21.7035 43.1667 21.7035H41.6813C41.2027 21.7035 40.8146 22.0914 40.8146 22.5699C40.8146 23.0484 41.2027 23.4363 41.6813 23.4363H43.1667C45.3356 23.4363 47.1 21.6725 47.1 19.5043V15.5538C47.1 13.3855 45.3356 11.6217 43.1667 11.6217ZM14.1333 7.13508C14.1333 4.65477 16.152 2.63664 18.6333 2.63664C21.1147 2.63664 23.1333 4.65477 23.1333 7.13508V11.6216H18.3237C15.9865 11.4621 14.1333 9.51123 14.1333 7.13508ZM19.6833 45.3673H8.09167C6.8787 45.3673 5.89167 44.3805 5.89167 43.1681V23.4363H19.6833V45.3673ZM30.0333 21.7035H4.83333C3.62036 21.7035 2.63333 20.7169 2.63333 19.5043V15.5538C2.63333 14.3412 3.62036 13.3545 4.83333 13.3545H16.2333V19.3977C16.2333 19.8762 16.6214 20.2641 17.1 20.2641C17.5786 20.2641 17.9667 19.8762 17.9667 19.3977V13.3545H30.0333V21.7035Z" fill="#EB8106" stroke="#EB8106" stroke-width="0.2"/>
</svg>
