<svg width="50" height="48" viewBox="0 0 50 48" fill="none" xmlns="http://www.w3.org/2000/svg">
<mask id="path-1-outside-1" maskUnits="userSpaceOnUse" x="0" y="9" width="50" height="30" fill="black">
<rect fill="white" y="9" width="50" height="30"/>
<path fill-rule="evenodd" clip-rule="evenodd" d="M15.5831 10H46.9477C48.0794 10 49.0001 10.9208 49 12.0525V30.9394C49 32.0712 48.0795 32.9917 46.9478 32.9917H36.4693V35.8545C36.4693 36.9862 35.5487 37.907 34.417 37.907H3.05228C1.9206 37.907 1 36.9862 1 35.8545V16.9676C1 15.8359 1.9206 14.9153 3.05228 14.9153H13.5307V12.0525C13.5307 10.9208 14.4514 10 15.5831 10ZM34.4169 36.6775C34.8706 36.6775 35.2397 36.3082 35.2397 35.8545V24.6283H2.22944V35.8545C2.22944 36.3082 2.59856 36.6775 3.05228 36.6775H34.4169ZM2.3216 20.448V23.3988H35.1476V20.448H2.3216ZM2.22934 19.2185H35.2397V16.9676C35.2397 16.5139 34.8706 16.1448 34.4169 16.1448H3.05218C2.59847 16.1448 2.22934 16.5139 2.22934 16.9676V19.2185ZM46.9479 31.7621C47.4015 31.7621 47.7707 31.3929 47.7707 30.9393V12.0524C47.7707 11.5986 47.4015 11.2294 46.9479 11.2294H15.5831C15.1293 11.2294 14.7602 11.5986 14.7602 12.0524V14.9152H34.4169C35.5486 14.9152 36.4692 15.8358 36.4692 16.9675V19.2184H37.2115C37.551 19.2184 37.8263 19.4937 37.8263 19.8332C37.8263 20.1727 37.551 20.4479 37.2115 20.4479H36.4692V24.4602C37.0822 23.5973 38.089 23.0326 39.2259 23.0326C39.748 23.0326 40.266 23.1559 40.7311 23.3872C41.1965 23.1548 41.7093 23.0326 42.238 23.0326C44.1022 23.0326 45.6189 24.5494 45.6189 26.4138C45.6189 28.2781 44.1022 29.7949 42.238 29.7949C41.7085 29.7949 41.1953 29.6732 40.7298 29.4407C40.2648 29.6724 39.7526 29.7949 39.2259 29.7949C38.0892 29.7949 37.0822 29.23 36.4692 28.3672V31.7621H46.9479ZM39.2259 28.5655C39.354 28.5655 39.4802 28.553 39.6044 28.5309C39.1278 27.9369 38.8572 27.1916 38.857 26.4139C38.857 25.6341 39.1275 24.8891 39.6049 24.2955C39.4811 24.2736 39.3547 24.2622 39.2259 24.2622C38.0395 24.2622 37.0744 25.2275 37.0744 26.4139C37.0744 27.6003 38.0395 28.5655 39.2259 28.5655ZM41.014 24.6444C40.4332 25.0471 40.0867 25.7085 40.0867 26.4139C40.0867 27.1105 40.4265 27.7672 40.9957 28.1709C41.3599 28.429 41.7896 28.5655 42.2382 28.5655C43.4246 28.5655 44.3897 27.6004 44.3897 26.4139C44.3897 25.2275 43.4246 24.2622 42.2382 24.2622C41.7976 24.2622 41.374 24.3944 41.014 24.6444ZM9.93023 26.7442H5.18605C4.8778 26.7442 4.62791 26.9941 4.62791 27.3023C4.62791 27.6106 4.87779 27.8605 5.18605 27.8605H9.93023C10.2385 27.8605 10.4884 27.6106 10.4884 27.3023C10.4884 26.9941 10.2385 26.7442 9.93023 26.7442ZM15.9302 29.2558H5.04651C4.6612 29.2558 4.34884 29.5682 4.34884 29.9535C4.34884 30.3388 4.66119 30.6512 5.04651 30.6512H15.9302C16.3155 30.6512 16.6279 30.3388 16.6279 29.9535C16.6279 29.5682 16.3155 29.2558 15.9302 29.2558ZM13 26.7442H16.0698C16.378 26.7442 16.6279 26.9941 16.6279 27.3023C16.6279 27.6106 16.378 27.8605 16.0698 27.8605H13C12.6917 27.8605 12.4419 27.6106 12.4419 27.3023C12.4419 26.9941 12.6917 26.7442 13 26.7442ZM32.814 29.9767C32.814 29.4245 32.3662 28.9767 31.814 28.9767H28.2326C27.6803 28.9767 27.2326 29.4245 27.2326 29.9767V33.5581C27.2326 34.1104 27.6803 34.5581 28.2326 34.5581H31.814C32.3662 34.5581 32.814 34.1104 32.814 33.5581V29.9767ZM31.5736 33.3178H28.4729V30.2171H31.5736V33.3178ZM42.6721 19.2111C42.4679 19.2112 42.3024 19.3769 42.3025 19.5811L42.3029 20.2349C42.303 20.4391 42.4686 20.6046 42.6729 20.6044C43.1588 20.6042 43.8424 20.6038 44.3965 20.6034C44.7813 20.6031 45.0925 20.2907 45.0919 19.9059C45.0913 19.5212 44.7791 19.2097 44.3944 19.21C43.8407 19.2105 43.1577 19.2109 42.6721 19.2111ZM39.6496 20.6033C39.265 20.6029 38.9539 20.2907 38.9545 19.9062C38.955 19.5214 39.2673 19.2099 39.6521 19.2103L40.7688 19.2112C41.1535 19.2114 41.465 19.5234 41.4649 19.908C41.4648 20.2927 41.1529 20.6045 40.7682 20.6042L39.6496 20.6033Z"/>
</mask>
<path fill-rule="evenodd" clip-rule="evenodd" d="M15.5831 10H46.9477C48.0794 10 49.0001 10.9208 49 12.0525V30.9394C49 32.0712 48.0795 32.9917 46.9478 32.9917H36.4693V35.8545C36.4693 36.9862 35.5487 37.907 34.417 37.907H3.05228C1.9206 37.907 1 36.9862 1 35.8545V16.9676C1 15.8359 1.9206 14.9153 3.05228 14.9153H13.5307V12.0525C13.5307 10.9208 14.4514 10 15.5831 10ZM34.4169 36.6775C34.8706 36.6775 35.2397 36.3082 35.2397 35.8545V24.6283H2.22944V35.8545C2.22944 36.3082 2.59856 36.6775 3.05228 36.6775H34.4169ZM2.3216 20.448V23.3988H35.1476V20.448H2.3216ZM2.22934 19.2185H35.2397V16.9676C35.2397 16.5139 34.8706 16.1448 34.4169 16.1448H3.05218C2.59847 16.1448 2.22934 16.5139 2.22934 16.9676V19.2185ZM46.9479 31.7621C47.4015 31.7621 47.7707 31.3929 47.7707 30.9393V12.0524C47.7707 11.5986 47.4015 11.2294 46.9479 11.2294H15.5831C15.1293 11.2294 14.7602 11.5986 14.7602 12.0524V14.9152H34.4169C35.5486 14.9152 36.4692 15.8358 36.4692 16.9675V19.2184H37.2115C37.551 19.2184 37.8263 19.4937 37.8263 19.8332C37.8263 20.1727 37.551 20.4479 37.2115 20.4479H36.4692V24.4602C37.0822 23.5973 38.089 23.0326 39.2259 23.0326C39.748 23.0326 40.266 23.1559 40.7311 23.3872C41.1965 23.1548 41.7093 23.0326 42.238 23.0326C44.1022 23.0326 45.6189 24.5494 45.6189 26.4138C45.6189 28.2781 44.1022 29.7949 42.238 29.7949C41.7085 29.7949 41.1953 29.6732 40.7298 29.4407C40.2648 29.6724 39.7526 29.7949 39.2259 29.7949C38.0892 29.7949 37.0822 29.23 36.4692 28.3672V31.7621H46.9479ZM39.2259 28.5655C39.354 28.5655 39.4802 28.553 39.6044 28.5309C39.1278 27.9369 38.8572 27.1916 38.857 26.4139C38.857 25.6341 39.1275 24.8891 39.6049 24.2955C39.4811 24.2736 39.3547 24.2622 39.2259 24.2622C38.0395 24.2622 37.0744 25.2275 37.0744 26.4139C37.0744 27.6003 38.0395 28.5655 39.2259 28.5655ZM41.014 24.6444C40.4332 25.0471 40.0867 25.7085 40.0867 26.4139C40.0867 27.1105 40.4265 27.7672 40.9957 28.1709C41.3599 28.429 41.7896 28.5655 42.2382 28.5655C43.4246 28.5655 44.3897 27.6004 44.3897 26.4139C44.3897 25.2275 43.4246 24.2622 42.2382 24.2622C41.7976 24.2622 41.374 24.3944 41.014 24.6444ZM9.93023 26.7442H5.18605C4.8778 26.7442 4.62791 26.9941 4.62791 27.3023C4.62791 27.6106 4.87779 27.8605 5.18605 27.8605H9.93023C10.2385 27.8605 10.4884 27.6106 10.4884 27.3023C10.4884 26.9941 10.2385 26.7442 9.93023 26.7442ZM15.9302 29.2558H5.04651C4.6612 29.2558 4.34884 29.5682 4.34884 29.9535C4.34884 30.3388 4.66119 30.6512 5.04651 30.6512H15.9302C16.3155 30.6512 16.6279 30.3388 16.6279 29.9535C16.6279 29.5682 16.3155 29.2558 15.9302 29.2558ZM13 26.7442H16.0698C16.378 26.7442 16.6279 26.9941 16.6279 27.3023C16.6279 27.6106 16.378 27.8605 16.0698 27.8605H13C12.6917 27.8605 12.4419 27.6106 12.4419 27.3023C12.4419 26.9941 12.6917 26.7442 13 26.7442ZM32.814 29.9767C32.814 29.4245 32.3662 28.9767 31.814 28.9767H28.2326C27.6803 28.9767 27.2326 29.4245 27.2326 29.9767V33.5581C27.2326 34.1104 27.6803 34.5581 28.2326 34.5581H31.814C32.3662 34.5581 32.814 34.1104 32.814 33.5581V29.9767ZM31.5736 33.3178H28.4729V30.2171H31.5736V33.3178ZM42.6721 19.2111C42.4679 19.2112 42.3024 19.3769 42.3025 19.5811L42.3029 20.2349C42.303 20.4391 42.4686 20.6046 42.6729 20.6044C43.1588 20.6042 43.8424 20.6038 44.3965 20.6034C44.7813 20.6031 45.0925 20.2907 45.0919 19.9059C45.0913 19.5212 44.7791 19.2097 44.3944 19.21C43.8407 19.2105 43.1577 19.2109 42.6721 19.2111ZM39.6496 20.6033C39.265 20.6029 38.9539 20.2907 38.9545 19.9062C38.955 19.5214 39.2673 19.2099 39.6521 19.2103L40.7688 19.2112C41.1535 19.2114 41.465 19.5234 41.4649 19.908C41.4648 20.2927 41.1529 20.6045 40.7682 20.6042L39.6496 20.6033Z" fill="#EB8106"/>
<path d="M49 12.0525L48.8 12.0525V12.0525H49ZM36.4693 32.9917V32.7917H36.2693V32.9917H36.4693ZM13.5307 14.9153V15.1153H13.7307V14.9153H13.5307ZM35.2397 24.6283H35.4397V24.4283H35.2397V24.6283ZM2.22944 24.6283V24.4283H2.02944V24.6283H2.22944ZM2.3216 23.3988H2.1216V23.5988H2.3216V23.3988ZM2.3216 20.448V20.248H2.1216V20.448H2.3216ZM35.1476 23.3988V23.5988H35.3476V23.3988H35.1476ZM35.1476 20.448H35.3476V20.248H35.1476V20.448ZM35.2397 19.2185V19.4185H35.4397V19.2185H35.2397ZM2.22934 19.2185H2.02934V19.4185H2.22934V19.2185ZM14.7602 14.9152H14.5602V15.1152H14.7602V14.9152ZM36.4692 19.2184H36.2692V19.4184H36.4692V19.2184ZM36.4692 20.4479V20.2479H36.2692V20.4479H36.4692ZM36.4692 24.4602H36.2692V25.0871L36.6322 24.5761L36.4692 24.4602ZM40.7311 23.3872L40.642 23.5663L40.7313 23.6107L40.8205 23.5662L40.7311 23.3872ZM40.7298 29.4407L40.8192 29.2618L40.7299 29.2172L40.6406 29.2617L40.7298 29.4407ZM36.4692 28.3672L36.6322 28.2514L36.2692 27.7404V28.3672H36.4692ZM36.4692 31.7621H36.2692V31.9621H36.4692V31.7621ZM39.6044 28.5309L39.6395 28.7278L39.9714 28.6687L39.7604 28.4057L39.6044 28.5309ZM38.857 26.4139L38.657 26.4139L38.657 26.4139L38.857 26.4139ZM39.6049 24.2955L39.7608 24.4208L39.9726 24.1575L39.6398 24.0986L39.6049 24.2955ZM41.014 24.6444L41.1279 24.8087L41.128 24.8087L41.014 24.6444ZM40.9957 28.1709L40.88 28.334L40.88 28.3341L40.9957 28.1709ZM28.4729 33.3178H28.2729V33.5178H28.4729V33.3178ZM31.5736 33.3178V33.5178H31.7736V33.3178H31.5736ZM28.4729 30.2171V30.0171H28.2729V30.2171H28.4729ZM31.5736 30.2171H31.7736V30.0171H31.5736V30.2171ZM42.3025 19.5811L42.5025 19.581L42.5025 19.581L42.3025 19.5811ZM42.6721 19.2111L42.672 19.0111L42.672 19.0111L42.6721 19.2111ZM42.3029 20.2349L42.5029 20.2347L42.5029 20.2347L42.3029 20.2349ZM42.6729 20.6044L42.6728 20.4044L42.6727 20.4044L42.6729 20.6044ZM44.3965 20.6034L44.3966 20.8034L44.3966 20.8034L44.3965 20.6034ZM45.0919 19.9059L45.2919 19.9056L45.2919 19.9056L45.0919 19.9059ZM44.3944 19.21L44.3942 19.01L44.3942 19.01L44.3944 19.21ZM38.9545 19.9062L38.7545 19.9059L38.7545 19.9059L38.9545 19.9062ZM39.6496 20.6033L39.6494 20.8033L39.6494 20.8033L39.6496 20.6033ZM39.6521 19.2103L39.6519 19.4103L39.652 19.4103L39.6521 19.2103ZM40.7688 19.2112L40.7686 19.4112L40.7687 19.4112L40.7688 19.2112ZM41.4649 19.908L41.2649 19.908L41.2649 19.908L41.4649 19.908ZM40.7682 20.6042L40.768 20.8042L40.7681 20.8042L40.7682 20.6042ZM46.9477 9.8H15.5831V10.2H46.9477V9.8ZM49.2 12.0525C49.2001 10.8103 48.1899 9.8 46.9477 9.8V10.2C47.9689 10.2 48.8001 11.0312 48.8 12.0525L49.2 12.0525ZM49.2 30.9394V12.0525H48.8V30.9394H49.2ZM46.9478 33.1917C48.19 33.1917 49.2 32.1816 49.2 30.9394H48.8C48.8 31.9607 47.969 32.7917 46.9478 32.7917V33.1917ZM36.4693 33.1917H46.9478V32.7917H36.4693V33.1917ZM36.6693 35.8545V32.9917H36.2693V35.8545H36.6693ZM34.417 38.107C35.6592 38.107 36.6693 37.0967 36.6693 35.8545H36.2693C36.2693 36.8758 35.4382 37.707 34.417 37.707V38.107ZM3.05228 38.107H34.417V37.707H3.05228V38.107ZM0.8 35.8545C0.8 37.0967 1.81012 38.107 3.05228 38.107V37.707C2.03108 37.707 1.2 36.8758 1.2 35.8545H0.8ZM0.8 16.9676V35.8545H1.2V16.9676H0.8ZM3.05228 14.7153C1.81014 14.7153 0.8 15.7255 0.8 16.9676H1.2C1.2 15.9464 2.03107 15.1153 3.05228 15.1153V14.7153ZM13.5307 14.7153H3.05228V15.1153H13.5307V14.7153ZM13.3307 12.0525V14.9153H13.7307V12.0525H13.3307ZM15.5831 9.8C14.341 9.8 13.3307 10.8103 13.3307 12.0525H13.7307C13.7307 11.0312 14.5619 10.2 15.5831 10.2V9.8ZM35.0397 35.8545C35.0397 36.1978 34.7601 36.4775 34.4169 36.4775V36.8775C34.9811 36.8775 35.4397 36.4186 35.4397 35.8545H35.0397ZM35.0397 24.6283V35.8545H35.4397V24.6283H35.0397ZM2.22944 24.8283H35.2397V24.4283H2.22944V24.8283ZM2.42944 35.8545V24.6283H2.02944V35.8545H2.42944ZM3.05228 36.4775C2.70906 36.4775 2.42944 36.1978 2.42944 35.8545H2.02944C2.02944 36.4186 2.48807 36.8775 3.05228 36.8775V36.4775ZM34.4169 36.4775H3.05228V36.8775H34.4169V36.4775ZM2.5216 23.3988V20.448H2.1216V23.3988H2.5216ZM35.1476 23.1988H2.3216V23.5988H35.1476V23.1988ZM34.9476 20.448V23.3988H35.3476V20.448H34.9476ZM2.3216 20.648H35.1476V20.248H2.3216V20.648ZM35.2397 19.0185H2.22934V19.4185H35.2397V19.0185ZM35.0397 16.9676V19.2185H35.4397V16.9676H35.0397ZM34.4169 16.3448C34.7601 16.3448 35.0397 16.6244 35.0397 16.9676H35.4397C35.4397 16.4035 34.9811 15.9448 34.4169 15.9448V16.3448ZM3.05218 16.3448H34.4169V15.9448H3.05218V16.3448ZM2.42934 16.9676C2.42934 16.6244 2.70893 16.3448 3.05218 16.3448V15.9448C2.488 15.9448 2.02934 16.4035 2.02934 16.9676H2.42934ZM2.42934 19.2185V16.9676H2.02934V19.2185H2.42934ZM47.5707 30.9393C47.5707 31.2824 47.2911 31.5621 46.9479 31.5621V31.9621C47.512 31.9621 47.9707 31.5033 47.9707 30.9393H47.5707ZM47.5707 12.0524V30.9393H47.9707V12.0524H47.5707ZM46.9479 11.4294C47.291 11.4294 47.5707 11.709 47.5707 12.0524H47.9707C47.9707 11.4881 47.512 11.0294 46.9479 11.0294V11.4294ZM15.5831 11.4294H46.9479V11.0294H15.5831V11.4294ZM14.9602 12.0524C14.9602 11.709 15.2398 11.4294 15.5831 11.4294V11.0294C15.0188 11.0294 14.5602 11.4881 14.5602 12.0524H14.9602ZM14.9602 14.9152V12.0524H14.5602V14.9152H14.9602ZM34.4169 14.7152H14.7602V15.1152H34.4169V14.7152ZM36.6692 16.9675C36.6692 15.7254 35.659 14.7152 34.4169 14.7152V15.1152C35.4381 15.1152 36.2692 15.9463 36.2692 16.9675H36.6692ZM36.6692 19.2184V16.9675H36.2692V19.2184H36.6692ZM37.2115 19.0184H36.4692V19.4184H37.2115V19.0184ZM38.0263 19.8332C38.0263 19.3832 37.6615 19.0184 37.2115 19.0184V19.4184C37.4406 19.4184 37.6263 19.6041 37.6263 19.8332H38.0263ZM37.2115 20.6479C37.6615 20.6479 38.0263 20.2832 38.0263 19.8332H37.6263C37.6263 20.0622 37.4406 20.2479 37.2115 20.2479V20.6479ZM36.4692 20.6479H37.2115V20.2479H36.4692V20.6479ZM36.6692 24.4602V20.4479H36.2692V24.4602H36.6692ZM39.2259 22.8326C38.0211 22.8326 36.9549 23.4312 36.3061 24.3444L36.6322 24.5761C37.2096 23.7634 38.1568 23.2326 39.2259 23.2326V22.8326ZM40.8202 23.2082C40.3277 22.9632 39.7793 22.8326 39.2259 22.8326V23.2326C39.7168 23.2326 40.2043 23.3486 40.642 23.5663L40.8202 23.2082ZM42.238 22.8326C41.6783 22.8326 41.1348 22.962 40.6417 23.2083L40.8205 23.5662C41.2582 23.3476 41.7404 23.2326 42.238 23.2326V22.8326ZM45.8189 26.4138C45.8189 24.4389 44.2127 22.8326 42.238 22.8326V23.2326C43.9918 23.2326 45.4189 24.6598 45.4189 26.4138H45.8189ZM42.238 29.9949C44.2127 29.9949 45.8189 28.3885 45.8189 26.4138H45.4189C45.4189 28.1677 43.9917 29.5949 42.238 29.5949V29.9949ZM40.6404 29.6196C41.1338 29.8661 41.6775 29.9949 42.238 29.9949V29.5949C41.7394 29.5949 41.2569 29.4804 40.8192 29.2618L40.6404 29.6196ZM39.2259 29.9949C39.7838 29.9949 40.3265 29.865 40.819 29.6197L40.6406 29.2617C40.203 29.4797 39.7213 29.5949 39.2259 29.5949V29.9949ZM36.3061 28.4831C36.9549 29.3961 38.0213 29.9949 39.2259 29.9949V29.5949C38.157 29.5949 37.2096 29.064 36.6322 28.2514L36.3061 28.4831ZM36.6692 31.7621V28.3672H36.2692V31.7621H36.6692ZM46.9479 31.5621H36.4692V31.9621H46.9479V31.5621ZM39.5694 28.334C39.4554 28.3543 39.341 28.3655 39.2259 28.3655V28.7655C39.3671 28.7655 39.5051 28.7517 39.6395 28.7278L39.5694 28.334ZM38.657 26.4139C38.6573 27.2381 38.944 28.0273 39.4484 28.656L39.7604 28.4057C39.3117 27.8464 39.0572 27.1451 39.057 26.4138L38.657 26.4139ZM39.4491 24.1701C38.9436 24.7986 38.657 25.5876 38.657 26.4139H39.057C39.057 25.6805 39.3114 24.9796 39.7608 24.4208L39.4491 24.1701ZM39.2259 24.4622C39.343 24.4622 39.4577 24.4725 39.5701 24.4924L39.6398 24.0986C39.5045 24.0746 39.3665 24.0622 39.2259 24.0622V24.4622ZM37.2744 26.4139C37.2744 25.3379 38.15 24.4622 39.2259 24.4622V24.0622C37.929 24.0622 36.8744 25.117 36.8744 26.4139H37.2744ZM39.2259 28.3655C38.15 28.3655 37.2744 27.4899 37.2744 26.4139H36.8744C36.8744 27.7107 37.929 28.7655 39.2259 28.7655V28.3655ZM40.2867 26.4139C40.2867 25.7742 40.6009 25.1741 41.1279 24.8087L40.9 24.48C40.2654 24.92 39.8867 25.6428 39.8867 26.4139H40.2867ZM41.1114 28.0077C40.5949 27.6415 40.2867 27.0455 40.2867 26.4139H39.8867C39.8867 27.1754 40.258 27.8929 40.88 28.334L41.1114 28.0077ZM42.2382 28.3655C41.8308 28.3655 41.4416 28.2417 41.1113 28.0077L40.88 28.3341C41.2782 28.6162 41.7484 28.7655 42.2382 28.7655V28.3655ZM44.1897 26.4139C44.1897 27.4899 43.3141 28.3655 42.2382 28.3655V28.7655C43.535 28.7655 44.5897 27.7108 44.5897 26.4139H44.1897ZM42.2382 24.4622C43.3142 24.4622 44.1897 25.3379 44.1897 26.4139H44.5897C44.5897 25.117 43.5351 24.0622 42.2382 24.0622V24.4622ZM41.128 24.8087C41.4544 24.5821 41.8381 24.4622 42.2382 24.4622V24.0622C41.757 24.0622 41.2937 24.2068 40.8999 24.4801L41.128 24.8087ZM5.18605 26.9442H9.93023V26.5442H5.18605V26.9442ZM4.82791 27.3023C4.82791 27.1045 4.98825 26.9442 5.18605 26.9442V26.5442C4.76734 26.5442 4.42791 26.8836 4.42791 27.3023H4.82791ZM5.18605 27.6605C4.98825 27.6605 4.82791 27.5001 4.82791 27.3023H4.42791C4.42791 27.721 4.76734 28.0605 5.18605 28.0605V27.6605ZM9.93023 27.6605H5.18605V28.0605H9.93023V27.6605ZM10.2884 27.3023C10.2884 27.5001 10.128 27.6605 9.93023 27.6605V28.0605C10.3489 28.0605 10.6884 27.721 10.6884 27.3023H10.2884ZM9.93023 26.9442C10.128 26.9442 10.2884 27.1045 10.2884 27.3023H10.6884C10.6884 26.8836 10.3489 26.5442 9.93023 26.5442V26.9442ZM5.04651 29.4558H15.9302V29.0558H5.04651V29.4558ZM4.54884 29.9535C4.54884 29.6786 4.77165 29.4558 5.04651 29.4558V29.0558C4.55074 29.0558 4.14884 29.4577 4.14884 29.9535H4.54884ZM5.04651 30.4512C4.77165 30.4512 4.54884 30.2283 4.54884 29.9535H4.14884C4.14884 30.4493 4.55074 30.8512 5.04651 30.8512V30.4512ZM15.9302 30.4512H5.04651V30.8512H15.9302V30.4512ZM16.4279 29.9535C16.4279 30.2283 16.2051 30.4512 15.9302 30.4512V30.8512C16.426 30.8512 16.8279 30.4493 16.8279 29.9535H16.4279ZM15.9302 29.4558C16.2051 29.4558 16.4279 29.6786 16.4279 29.9535H16.8279C16.8279 29.4577 16.426 29.0558 15.9302 29.0558V29.4558ZM16.0698 26.5442H13V26.9442H16.0698V26.5442ZM16.8279 27.3023C16.8279 26.8836 16.4885 26.5442 16.0698 26.5442V26.9442C16.2676 26.9442 16.4279 27.1045 16.4279 27.3023H16.8279ZM16.0698 28.0605C16.4885 28.0605 16.8279 27.721 16.8279 27.3023H16.4279C16.4279 27.5001 16.2676 27.6605 16.0698 27.6605V28.0605ZM13 28.0605H16.0698V27.6605H13V28.0605ZM12.2419 27.3023C12.2419 27.721 12.5813 28.0605 13 28.0605V27.6605C12.8022 27.6605 12.6419 27.5001 12.6419 27.3023H12.2419ZM13 26.5442C12.5813 26.5442 12.2419 26.8836 12.2419 27.3023H12.6419C12.6419 27.1045 12.8022 26.9442 13 26.9442V26.5442ZM31.814 29.1767C32.2558 29.1767 32.614 29.5349 32.614 29.9767H33.014C33.014 29.314 32.4767 28.7767 31.814 28.7767V29.1767ZM28.2326 29.1767H31.814V28.7767H28.2326V29.1767ZM27.4326 29.9767C27.4326 29.5349 27.7907 29.1767 28.2326 29.1767V28.7767C27.5698 28.7767 27.0326 29.314 27.0326 29.9767H27.4326ZM27.4326 33.5581V29.9767H27.0326V33.5581H27.4326ZM28.2326 34.3581C27.7907 34.3581 27.4326 34 27.4326 33.5581H27.0326C27.0326 34.2209 27.5698 34.7581 28.2326 34.7581V34.3581ZM31.814 34.3581H28.2326V34.7581H31.814V34.3581ZM32.614 33.5581C32.614 34 32.2558 34.3581 31.814 34.3581V34.7581C32.4767 34.7581 33.014 34.2209 33.014 33.5581H32.614ZM32.614 29.9767V33.5581H33.014V29.9767H32.614ZM28.4729 33.5178H31.5736V33.1178H28.4729V33.5178ZM28.2729 30.2171V33.3178H28.6729V30.2171H28.2729ZM31.5736 30.0171H28.4729V30.4171H31.5736V30.0171ZM31.7736 33.3178V30.2171H31.3736V33.3178H31.7736ZM42.5025 19.581C42.5025 19.4872 42.5785 19.4111 42.6722 19.4111L42.672 19.0111C42.3573 19.0113 42.1024 19.2665 42.1025 19.5812L42.5025 19.581ZM42.5029 20.2347L42.5025 19.581L42.1025 19.5812L42.1029 20.235L42.5029 20.2347ZM42.6727 20.4044C42.579 20.4045 42.5029 20.3285 42.5029 20.2347L42.1029 20.235C42.103 20.5497 42.3583 20.8046 42.673 20.8044L42.6727 20.4044ZM44.3963 20.4034C43.8422 20.4038 43.1587 20.4042 42.6728 20.4044L42.673 20.8044C43.1589 20.8042 43.8425 20.8038 44.3966 20.8034L44.3963 20.4034ZM44.8919 19.9062C44.8923 20.1806 44.6704 20.4032 44.3963 20.4034L44.3966 20.8034C44.8921 20.803 45.2927 20.4008 45.2919 19.9056L44.8919 19.9062ZM44.3945 19.41C44.6689 19.4098 44.8915 19.6319 44.8919 19.9062L45.2919 19.9056C45.2911 19.4105 44.8893 19.0096 44.3942 19.01L44.3945 19.41ZM42.6722 19.4111C43.1578 19.4109 43.8408 19.4105 44.3945 19.41L44.3942 19.01C43.8406 19.0105 43.1576 19.0109 42.672 19.0111L42.6722 19.4111ZM38.7545 19.9059C38.7538 20.4008 39.1542 20.8028 39.6494 20.8033L39.6498 20.4033C39.3758 20.403 39.1541 20.1807 39.1545 19.9064L38.7545 19.9059ZM39.6523 19.0103C39.1571 19.0097 38.7552 19.4106 38.7545 19.9059L39.1545 19.9064C39.1548 19.6321 39.3775 19.41 39.6519 19.4103L39.6523 19.0103ZM40.769 19.0112L39.6523 19.0103L39.652 19.4103L40.7686 19.4112L40.769 19.0112ZM41.6649 19.9081C41.665 19.413 41.2641 19.0115 40.7689 19.0112L40.7687 19.4112C41.0429 19.4114 41.265 19.6337 41.2649 19.908L41.6649 19.9081ZM40.7681 20.8042C41.2633 20.8046 41.6647 20.4032 41.6649 19.9081L41.2649 19.908C41.2648 20.1823 41.0425 20.4044 40.7683 20.4042L40.7681 20.8042ZM39.6494 20.8033L40.768 20.8042L40.7684 20.4042L39.6497 20.4033L39.6494 20.8033Z" fill="#EB8106" mask="url(#path-1-outside-1)"/>
</svg>
