<svg width="18" height="18" viewBox="0 0 18 18" fill="none" xmlns="http://www.w3.org/2000/svg">
<path d="M9.56128 15.8887V18C11.5727 17.8772 13.458 17.0963 14.9671 15.7608L13.4718 14.2655C12.3993 15.1777 11.0459 15.7689 9.56128 15.8887Z" fill="#8292A7"/>
<path d="M15.8889 9.56128C15.769 11.0459 15.1778 12.3993 14.2656 13.4718L15.761 14.9671C17.0965 13.458 17.8774 11.5727 18.0001 9.56128H15.8889Z" fill="#8292A7"/>
<path d="M8.43867 2.11124V0C6.42724 0.12273 4.54192 0.903656 3.03284 2.23917L4.52814 3.73447C5.60065 2.82227 6.95406 2.23112 8.43867 2.11124Z" fill="#8292A7"/>
<path d="M9.00005 3.21088C5.80793 3.21088 3.21094 5.80787 3.21094 8.99999C3.21094 12.1921 5.80793 14.7891 9.00005 14.7891C12.1922 14.7891 14.7891 12.1921 14.7891 8.99999C14.7891 5.80787 12.1922 3.21088 9.00005 3.21088ZM8.89046 8.29148H9.10963C9.98034 8.29148 10.6887 8.99985 10.6887 9.87056C10.6887 10.5843 10.2126 11.1887 9.56132 11.3835V12.5005H8.43878V11.3835C7.78754 11.1887 7.31139 10.5843 7.31139 9.87056H8.43393C8.43393 10.1223 8.63875 10.3271 8.89046 10.3271H9.10963C9.36135 10.3271 9.56617 10.1223 9.56617 9.87056C9.56617 9.61884 9.36135 9.41402 9.10963 9.41402H8.89046C8.01975 9.41402 7.31139 8.70566 7.31139 7.83494C7.31139 7.1212 7.78754 6.51683 8.43878 6.32203V5.20497H9.56132V6.32203C10.2126 6.51683 10.6887 7.12117 10.6887 7.83494H9.56617C9.56617 7.58322 9.36135 7.3784 9.10963 7.3784H8.89046C8.63875 7.3784 8.43393 7.58319 8.43393 7.83494C8.43393 8.0867 8.63871 8.29148 8.89046 8.29148Z" fill="#8292A7"/>
<path d="M13.4718 3.73447L14.9671 2.23917C13.458 0.903656 11.5727 0.12273 9.56128 0V2.11124C11.0459 2.23112 12.3993 2.82227 13.4718 3.73447Z" fill="#8292A7"/>
<path d="M3.73447 4.5282L2.23917 3.0329C0.903656 4.54194 0.12273 6.42727 0 8.4387H2.11127C2.23116 6.95409 2.82227 5.60067 3.73447 4.5282Z" fill="#8292A7"/>
<path d="M2.11127 9.56128H0C0.12273 11.5727 0.903656 13.458 2.23914 14.9671L3.73447 13.4718C2.82227 12.3993 2.23116 11.0459 2.11127 9.56128Z" fill="#8292A7"/>
<path d="M4.52817 14.2655L3.03284 15.7608C4.54192 17.0963 6.42724 17.8772 8.43867 18V15.8887C6.95406 15.7689 5.60065 15.1777 4.52817 14.2655Z" fill="#8292A7"/>
<path d="M15.8888 8.4387H18C17.8773 6.42727 17.0964 4.54194 15.7608 3.0329L14.2655 4.5282C15.1777 5.60067 15.7689 6.95409 15.8888 8.4387Z" fill="#8292A7"/>
</svg>
