<svg width="19" height="19" viewBox="0 0 19 19" fill="none" xmlns="http://www.w3.org/2000/svg">
<g opacity="0.5">
<path d="M2.22241 9.5C2.22241 13.5384 5.49651 16.8125 9.53491 16.8125C13.5733 16.8125 16.8474 13.5384 16.8474 9.5C16.8474 5.4616 13.5733 2.1875 9.53491 2.1875C5.49651 2.1875 2.22241 5.4616 2.22241 9.5ZM11.2706 9.5L8.29354 6.52262C8.19251 6.41627 8.13701 6.27466 8.13889 6.12798C8.14077 5.9813 8.19987 5.84116 8.3036 5.73744C8.40732 5.63371 8.54747 5.57461 8.69414 5.57273C8.84082 5.57085 8.98243 5.62635 9.08878 5.72738L12.4638 9.10238C12.5692 9.20786 12.6284 9.35088 12.6284 9.5C12.6284 9.64912 12.5692 9.79214 12.4638 9.89762L9.08878 13.2726C8.98243 13.3737 8.84082 13.4291 8.69414 13.4273C8.54747 13.4254 8.40732 13.3663 8.3036 13.2626C8.19987 13.1588 8.14077 13.0187 8.13889 12.872C8.13701 12.7253 8.19251 12.5837 8.29354 12.4774L11.2706 9.5Z" fill="#8292A7"/>
</g>
</svg>
