<svg width="15" height="15" viewBox="0 0 15 15" fill="none" xmlns="http://www.w3.org/2000/svg">
<path d="M15 7.5C15 11.6419 11.6419 15 7.5 15C3.35805 15 0 11.6419 0 7.5C0 3.35805 3.35805 0 7.5 0C11.6419 0 15 3.35805 15 7.5ZM5.71983 7.5L8.7732 4.44627C8.87682 4.3372 8.93374 4.19196 8.93182 4.04152C8.92989 3.89108 8.86927 3.74735 8.76289 3.64096C8.6565 3.53457 8.51277 3.47396 8.36233 3.47203C8.21189 3.4701 8.06665 3.52702 7.95757 3.63065L4.49603 7.09219C4.38792 7.20037 4.32719 7.34706 4.32719 7.5C4.32719 7.65294 4.38792 7.79963 4.49603 7.90781L7.95757 11.3694C8.06665 11.473 8.21189 11.5299 8.36233 11.528C8.51277 11.526 8.6565 11.4654 8.76289 11.359C8.86927 11.2527 8.92989 11.1089 8.93182 10.9585C8.93374 10.808 8.87682 10.6628 8.7732 10.5537L5.71983 7.5Z" fill="#8292A7"/>
</svg>
