<svg width="98" height="78" viewBox="0 0 98 78" fill="none" xmlns="http://www.w3.org/2000/svg">
<g filter="url(#filter0_d)">
<path fill-rule="evenodd" clip-rule="evenodd" d="M39.5831 21.0464H70.9477C72.0794 21.0464 73.0001 21.9671 73 23.0989V41.9858C73 43.1175 72.0795 44.0381 70.9478 44.0381H60.4693V46.9009C60.4693 48.0326 59.5487 48.9534 58.417 48.9534H27.0523C25.9206 48.9534 25 48.0326 25 46.9009V28.014C25 26.8823 25.9206 25.9616 27.0523 25.9616H37.5307V23.0989C37.5307 21.9671 38.4514 21.0464 39.5831 21.0464ZM58.4169 47.7239C58.8706 47.7239 59.2397 47.3546 59.2397 46.9009V35.6747H26.2294V46.9009C26.2294 47.3546 26.5986 47.7239 27.0523 47.7239H58.4169ZM26.3216 31.4944V34.4452H59.1476V31.4944H26.3216ZM26.2293 30.2649H59.2397V28.014C59.2397 27.5603 58.8706 27.1912 58.4169 27.1912H27.0522C26.5985 27.1912 26.2293 27.5603 26.2293 28.014V30.2649ZM70.9479 42.8085C71.4015 42.8085 71.7707 42.4393 71.7707 41.9857V23.0988C71.7707 22.6449 71.4015 22.2758 70.9479 22.2758H39.5831C39.1293 22.2758 38.7602 22.6449 38.7602 23.0988V25.9615H58.4169C59.5486 25.9615 60.4692 26.8822 60.4692 28.0139V30.2648H61.2115C61.551 30.2648 61.8263 30.54 61.8263 30.8796C61.8263 31.2191 61.551 31.4943 61.2115 31.4943H60.4692V35.5066C61.0822 34.6437 62.089 34.079 63.2259 34.079C63.748 34.079 64.266 34.2023 64.7311 34.4336C65.1965 34.2012 65.7093 34.079 66.238 34.079C68.1022 34.079 69.6189 35.5957 69.6189 37.4602C69.6189 39.3245 68.1022 40.8413 66.238 40.8413C65.7085 40.8413 65.1953 40.7196 64.7298 40.4871C64.2648 40.7187 63.7526 40.8413 63.2259 40.8413C62.0892 40.8413 61.0822 40.2764 60.4692 39.4136V42.8085H70.9479ZM63.2259 39.6119C63.354 39.6119 63.4802 39.5994 63.6044 39.5773C63.1278 38.9833 62.8572 38.238 62.857 37.4603C62.857 36.6805 63.1275 35.9355 63.6049 35.3419C63.4811 35.3199 63.3547 35.3086 63.2259 35.3086C62.0395 35.3086 61.0744 36.2738 61.0744 37.4603C61.0744 38.6467 62.0395 39.6119 63.2259 39.6119ZM65.014 35.6908C64.4332 36.0934 64.0867 36.7549 64.0867 37.4603C64.0867 38.1569 64.4265 38.8136 64.9957 39.2173C65.3599 39.4754 65.7896 39.6119 66.2382 39.6119C67.4246 39.6119 68.3897 38.6468 68.3897 37.4603C68.3897 36.2738 67.4246 35.3086 66.2382 35.3086C65.7976 35.3086 65.374 35.4408 65.014 35.6908ZM33.9302 37.7906H29.186C28.8778 37.7906 28.6279 38.0405 28.6279 38.3487C28.6279 38.657 28.8778 38.9068 29.186 38.9068H33.9302C34.2385 38.9068 34.4884 38.657 34.4884 38.3487C34.4884 38.0405 34.2385 37.7906 33.9302 37.7906ZM39.9302 40.3022H29.0465C28.6612 40.3022 28.3488 40.6146 28.3488 40.9999C28.3488 41.3852 28.6612 41.6975 29.0465 41.6975H39.9302C40.3155 41.6975 40.6279 41.3852 40.6279 40.9999C40.6279 40.6146 40.3155 40.3022 39.9302 40.3022ZM37 37.7906H40.0698C40.378 37.7906 40.6279 38.0405 40.6279 38.3487C40.6279 38.657 40.378 38.9068 40.0698 38.9068H37C36.6917 38.9068 36.4419 38.657 36.4419 38.3487C36.4419 38.0405 36.6917 37.7906 37 37.7906ZM56.814 41.0231C56.814 40.4708 56.3662 40.0231 55.814 40.0231H52.2326C51.6803 40.0231 51.2326 40.4708 51.2326 41.0231V44.6045C51.2326 45.1568 51.6803 45.6045 52.2326 45.6045H55.814C56.3662 45.6045 56.814 45.1568 56.814 44.6045V41.0231ZM55.5736 44.3642H52.4729V41.2634H55.5736V44.3642ZM66.6721 30.2575C66.4679 30.2576 66.3024 30.4233 66.3025 30.6275L66.3029 31.2812C66.303 31.4855 66.4686 31.6509 66.6729 31.6508C67.1588 31.6506 67.8424 31.6502 68.3965 31.6498C68.7813 31.6495 69.0925 31.3371 69.0919 30.9523C69.0913 30.5676 68.7791 30.2561 68.3944 30.2564C67.8407 30.2569 67.1577 30.2572 66.6721 30.2575ZM63.6496 31.6497C63.265 31.6493 62.9539 31.3371 62.9545 30.9525C62.955 30.5677 63.2673 30.2562 63.6521 30.2567L64.7688 30.2576C65.1535 30.2578 65.465 30.5697 65.4649 30.9544C65.4648 31.3391 65.1529 31.6509 64.7682 31.6506L63.6496 31.6497Z" fill="#E4FFA3"/>
<path d="M73 23.0989L72.8 23.0989V23.0989H73ZM60.4693 44.0381V43.8381H60.2693V44.0381H60.4693ZM37.5307 25.9616V26.1616H37.7307V25.9616H37.5307ZM59.2397 35.6747H59.4397V35.4747H59.2397V35.6747ZM26.2294 35.6747V35.4747H26.0294V35.6747H26.2294ZM26.3216 34.4452H26.1216V34.6452H26.3216V34.4452ZM26.3216 31.4944V31.2944H26.1216V31.4944H26.3216ZM59.1476 34.4452V34.6452H59.3476V34.4452H59.1476ZM59.1476 31.4944H59.3476V31.2944H59.1476V31.4944ZM59.2397 30.2649V30.4649H59.4397V30.2649H59.2397ZM26.2293 30.2649H26.0293V30.4649H26.2293V30.2649ZM38.7602 25.9615H38.5602V26.1615H38.7602V25.9615ZM60.4692 30.2648H60.2692V30.4648H60.4692V30.2648ZM60.4692 31.4943V31.2943H60.2692V31.4943H60.4692ZM60.4692 35.5066H60.2692V36.1335L60.6322 35.6225L60.4692 35.5066ZM64.7311 34.4336L64.642 34.6127L64.7313 34.6571L64.8204 34.6125L64.7311 34.4336ZM64.7298 40.4871L64.8192 40.3082L64.7299 40.2636L64.6406 40.3081L64.7298 40.4871ZM60.4692 39.4136L60.6322 39.2978L60.2692 38.7868V39.4136H60.4692ZM60.4692 42.8085H60.2692V43.0085H60.4692V42.8085ZM63.6044 39.5773L63.6395 39.7742L63.9714 39.715L63.7604 39.4521L63.6044 39.5773ZM62.857 37.4603H62.657V37.4603L62.857 37.4603ZM63.6049 35.3419L63.7608 35.4672L63.9726 35.2039L63.6398 35.1449L63.6049 35.3419ZM65.014 35.6908L65.1279 35.8551L65.128 35.8551L65.014 35.6908ZM64.9957 39.2173L64.88 39.3804L64.88 39.3805L64.9957 39.2173ZM52.4729 44.3642H52.2729V44.5642H52.4729V44.3642ZM55.5736 44.3642V44.5642H55.7736V44.3642H55.5736ZM52.4729 41.2634V41.0634H52.2729V41.2634H52.4729ZM55.5736 41.2634H55.7736V41.0634H55.5736V41.2634ZM66.3025 30.6275L66.5025 30.6274V30.6274L66.3025 30.6275ZM66.6721 30.2575L66.672 30.0575H66.672L66.6721 30.2575ZM66.3029 31.2812L66.5029 31.2811V31.2811L66.3029 31.2812ZM66.6729 31.6508L66.6728 31.4508H66.6727L66.6729 31.6508ZM68.3965 31.6498L68.3966 31.8498L68.3965 31.6498ZM69.0919 30.9523L69.2919 30.952V30.952L69.0919 30.9523ZM68.3944 30.2564L68.3942 30.0564L68.3944 30.2564ZM62.9545 30.9525L62.7545 30.9523V30.9523L62.9545 30.9525ZM63.6496 31.6497L63.6494 31.8497H63.6494L63.6496 31.6497ZM63.6521 30.2567L63.6519 30.4567H63.652L63.6521 30.2567ZM64.7688 30.2576L64.7686 30.4576H64.7687L64.7688 30.2576ZM65.4649 30.9544L65.2649 30.9543V30.9543L65.4649 30.9544ZM64.7682 31.6506L64.768 31.8506H64.7681L64.7682 31.6506ZM70.9477 20.8464H39.5831V21.2464H70.9477V20.8464ZM73.2 23.0989C73.2001 21.8567 72.1899 20.8464 70.9477 20.8464V21.2464C71.9689 21.2464 72.8001 22.0776 72.8 23.0989L73.2 23.0989ZM73.2 41.9858V23.0989H72.8V41.9858H73.2ZM70.9478 44.2381C72.19 44.2381 73.2 43.228 73.2 41.9858H72.8C72.8 43.0071 71.969 43.8381 70.9478 43.8381V44.2381ZM60.4693 44.2381H70.9478V43.8381H60.4693V44.2381ZM60.6693 46.9009V44.0381H60.2693V46.9009H60.6693ZM58.417 49.1534C59.6592 49.1534 60.6693 48.143 60.6693 46.9009H60.2693C60.2693 47.9222 59.4382 48.7534 58.417 48.7534V49.1534ZM27.0523 49.1534H58.417V48.7534H27.0523V49.1534ZM24.8 46.9009C24.8 48.143 25.8101 49.1534 27.0523 49.1534V48.7534C26.0311 48.7534 25.2 47.9222 25.2 46.9009H24.8ZM24.8 28.014V46.9009H25.2V28.014H24.8ZM27.0523 25.7616C25.8101 25.7616 24.8 26.7719 24.8 28.014H25.2C25.2 26.9927 26.0311 26.1616 27.0523 26.1616V25.7616ZM37.5307 25.7616H27.0523V26.1616H37.5307V25.7616ZM37.3307 23.0989V25.9616H37.7307V23.0989H37.3307ZM39.5831 20.8464C38.341 20.8464 37.3307 21.8567 37.3307 23.0989H37.7307C37.7307 22.0776 38.5619 21.2464 39.5831 21.2464V20.8464ZM59.0397 46.9009C59.0397 47.2442 58.7601 47.5239 58.4169 47.5239V47.9239C58.9811 47.9239 59.4397 47.465 59.4397 46.9009H59.0397ZM59.0397 35.6747V46.9009H59.4397V35.6747H59.0397ZM26.2294 35.8747H59.2397V35.4747H26.2294V35.8747ZM26.4294 46.9009V35.6747H26.0294V46.9009H26.4294ZM27.0523 47.5239C26.7091 47.5239 26.4294 47.2442 26.4294 46.9009H26.0294C26.0294 47.465 26.4881 47.9239 27.0523 47.9239V47.5239ZM58.4169 47.5239H27.0523V47.9239H58.4169V47.5239ZM26.5216 34.4452V31.4944H26.1216V34.4452H26.5216ZM59.1476 34.2452H26.3216V34.6452H59.1476V34.2452ZM58.9476 31.4944V34.4452H59.3476V31.4944H58.9476ZM26.3216 31.6944H59.1476V31.2944H26.3216V31.6944ZM59.2397 30.0649H26.2293V30.4649H59.2397V30.0649ZM59.0397 28.014V30.2649H59.4397V28.014H59.0397ZM58.4169 27.3912C58.7601 27.3912 59.0397 27.6707 59.0397 28.014H59.4397C59.4397 27.4499 58.9811 26.9912 58.4169 26.9912V27.3912ZM27.0522 27.3912H58.4169V26.9912H27.0522V27.3912ZM26.4293 28.014C26.4293 27.6707 26.7089 27.3912 27.0522 27.3912V26.9912C26.488 26.9912 26.0293 27.4499 26.0293 28.014H26.4293ZM26.4293 30.2649V28.014H26.0293V30.2649H26.4293ZM71.5707 41.9857C71.5707 42.3288 71.2911 42.6085 70.9479 42.6085V43.0085C71.512 43.0085 71.9707 42.5497 71.9707 41.9857H71.5707ZM71.5707 23.0988V41.9857H71.9707V23.0988H71.5707ZM70.9479 22.4758C71.291 22.4758 71.5707 22.7554 71.5707 23.0988H71.9707C71.9707 22.5345 71.512 22.0758 70.9479 22.0758V22.4758ZM39.5831 22.4758H70.9479V22.0758H39.5831V22.4758ZM38.9602 23.0988C38.9602 22.7554 39.2398 22.4758 39.5831 22.4758V22.0758C39.0188 22.0758 38.5602 22.5345 38.5602 23.0988H38.9602ZM38.9602 25.9615V23.0988H38.5602V25.9615H38.9602ZM58.4169 25.7615H38.7602V26.1615H58.4169V25.7615ZM60.6692 28.0139C60.6692 26.7718 59.659 25.7615 58.4169 25.7615V26.1615C59.4381 26.1615 60.2692 26.9926 60.2692 28.0139H60.6692ZM60.6692 30.2648V28.0139H60.2692V30.2648H60.6692ZM61.2115 30.0648H60.4692V30.4648H61.2115V30.0648ZM62.0263 30.8796C62.0263 30.4296 61.6615 30.0648 61.2115 30.0648V30.4648C61.4406 30.4648 61.6263 30.6505 61.6263 30.8796H62.0263ZM61.2115 31.6943C61.6615 31.6943 62.0263 31.3295 62.0263 30.8796H61.6263C61.6263 31.1086 61.4406 31.2943 61.2115 31.2943V31.6943ZM60.4692 31.6943H61.2115V31.2943H60.4692V31.6943ZM60.6692 35.5066V31.4943H60.2692V35.5066H60.6692ZM63.2259 33.879C62.0211 33.879 60.9549 34.4776 60.3061 35.3908L60.6322 35.6225C61.2096 34.8098 62.1568 34.279 63.2259 34.279V33.879ZM64.8202 34.2545C64.3277 34.0096 63.7793 33.879 63.2259 33.879V34.279C63.7168 34.279 64.2043 34.395 64.642 34.6127L64.8202 34.2545ZM66.238 33.879C65.6783 33.879 65.1348 34.0084 64.6417 34.2547L64.8204 34.6125C65.2582 34.394 65.7404 34.279 66.238 34.279V33.879ZM69.8189 37.4602C69.8189 35.4853 68.2127 33.879 66.238 33.879V34.279C67.9918 34.279 69.4189 35.7062 69.4189 37.4602H69.8189ZM66.238 41.0413C68.2127 41.0413 69.8189 39.4349 69.8189 37.4602H69.4189C69.4189 39.214 67.9917 40.6413 66.238 40.6413V41.0413ZM64.6404 40.666C65.1338 40.9125 65.6775 41.0413 66.238 41.0413V40.6413C65.7394 40.6413 65.2569 40.5268 64.8192 40.3082L64.6404 40.666ZM63.2259 41.0413C63.7838 41.0413 64.3265 40.9114 64.819 40.6661L64.6406 40.3081C64.203 40.5261 63.7213 40.6413 63.2259 40.6413V41.0413ZM60.3061 39.5294C60.9549 40.4425 62.0213 41.0413 63.2259 41.0413V40.6413C62.157 40.6413 61.2096 40.1103 60.6322 39.2978L60.3061 39.5294ZM60.6692 42.8085V39.4136H60.2692V42.8085H60.6692ZM70.9479 42.6085H60.4692V43.0085H70.9479V42.6085ZM63.5694 39.3804C63.4554 39.4007 63.341 39.4119 63.2259 39.4119V39.8119C63.3671 39.8119 63.5051 39.7981 63.6395 39.7742L63.5694 39.3804ZM62.657 37.4603C62.6572 38.2845 62.944 39.0737 63.4484 39.7024L63.7604 39.4521C63.3117 38.8928 63.0572 38.1915 63.057 37.4602L62.657 37.4603ZM63.4491 35.2165C62.9436 35.845 62.657 36.634 62.657 37.4603H63.057C63.057 36.7269 63.3114 36.026 63.7608 35.4672L63.4491 35.2165ZM63.2259 35.5086C63.343 35.5086 63.4577 35.5189 63.57 35.5388L63.6398 35.1449C63.5045 35.121 63.3665 35.1086 63.2259 35.1086V35.5086ZM61.2744 37.4603C61.2744 36.3843 62.15 35.5086 63.2259 35.5086V35.1086C61.929 35.1086 60.8744 36.1634 60.8744 37.4603H61.2744ZM63.2259 39.4119C62.15 39.4119 61.2744 38.5362 61.2744 37.4603H60.8744C60.8744 38.7571 61.929 39.8119 63.2259 39.8119V39.4119ZM64.2867 37.4603C64.2867 36.8206 64.6009 36.2205 65.1279 35.8551L64.9 35.5264C64.2654 35.9664 63.8867 36.6892 63.8867 37.4603H64.2867ZM65.1114 39.0541C64.5949 38.6879 64.2867 38.0919 64.2867 37.4603H63.8867C63.8867 38.2218 64.258 38.9393 64.88 39.3804L65.1114 39.0541ZM66.2382 39.4119C65.8308 39.4119 65.4416 39.2881 65.1113 39.0541L64.88 39.3805C65.2782 39.6626 65.7484 39.8119 66.2382 39.8119V39.4119ZM68.1897 37.4603C68.1897 38.5363 67.3141 39.4119 66.2382 39.4119V39.8119C67.535 39.8119 68.5897 38.7572 68.5897 37.4603H68.1897ZM66.2382 35.5086C67.3142 35.5086 68.1897 36.3843 68.1897 37.4603H68.5897C68.5897 36.1634 67.5351 35.1086 66.2382 35.1086V35.5086ZM65.128 35.8551C65.4544 35.6285 65.8381 35.5086 66.2382 35.5086V35.1086C65.757 35.1086 65.2937 35.2531 64.8999 35.5265L65.128 35.8551ZM29.186 37.9906H33.9302V37.5906H29.186V37.9906ZM28.8279 38.3487C28.8279 38.1509 28.9883 37.9906 29.186 37.9906V37.5906C28.7673 37.5906 28.4279 37.93 28.4279 38.3487H28.8279ZM29.186 38.7068C28.9883 38.7068 28.8279 38.5465 28.8279 38.3487H28.4279C28.4279 38.7674 28.7673 39.1068 29.186 39.1068V38.7068ZM33.9302 38.7068H29.186V39.1068H33.9302V38.7068ZM34.2884 38.3487C34.2884 38.5465 34.128 38.7068 33.9302 38.7068V39.1068C34.3489 39.1068 34.6884 38.7674 34.6884 38.3487H34.2884ZM33.9302 37.9906C34.128 37.9906 34.2884 38.1509 34.2884 38.3487H34.6884C34.6884 37.93 34.3489 37.5906 33.9302 37.5906V37.9906ZM29.0465 40.5022H39.9302V40.1022H29.0465V40.5022ZM28.5488 40.9999C28.5488 40.725 28.7717 40.5022 29.0465 40.5022V40.1022C28.5507 40.1022 28.1488 40.5041 28.1488 40.9999H28.5488ZM29.0465 41.4975C28.7717 41.4975 28.5488 41.2747 28.5488 40.9999H28.1488C28.1488 41.4956 28.5507 41.8975 29.0465 41.8975V41.4975ZM39.9302 41.4975H29.0465V41.8975H39.9302V41.4975ZM40.4279 40.9999C40.4279 41.2747 40.2051 41.4975 39.9302 41.4975V41.8975C40.426 41.8975 40.8279 41.4956 40.8279 40.9999H40.4279ZM39.9302 40.5022C40.2051 40.5022 40.4279 40.725 40.4279 40.9999H40.8279C40.8279 40.5041 40.426 40.1022 39.9302 40.1022V40.5022ZM40.0698 37.5906H37V37.9906H40.0698V37.5906ZM40.8279 38.3487C40.8279 37.93 40.4885 37.5906 40.0698 37.5906V37.9906C40.2676 37.9906 40.4279 38.1509 40.4279 38.3487H40.8279ZM40.0698 39.1068C40.4885 39.1068 40.8279 38.7674 40.8279 38.3487H40.4279C40.4279 38.5465 40.2676 38.7068 40.0698 38.7068V39.1068ZM37 39.1068H40.0698V38.7068H37V39.1068ZM36.2419 38.3487C36.2419 38.7674 36.5813 39.1068 37 39.1068V38.7068C36.8022 38.7068 36.6419 38.5465 36.6419 38.3487H36.2419ZM37 37.5906C36.5813 37.5906 36.2419 37.93 36.2419 38.3487H36.6419C36.6419 38.1509 36.8022 37.9906 37 37.9906V37.5906ZM55.814 40.2231C56.2558 40.2231 56.614 40.5813 56.614 41.0231H57.014C57.014 40.3604 56.4767 39.8231 55.814 39.8231V40.2231ZM52.2326 40.2231H55.814V39.8231H52.2326V40.2231ZM51.4326 41.0231C51.4326 40.5813 51.7907 40.2231 52.2326 40.2231V39.8231C51.5698 39.8231 51.0326 40.3604 51.0326 41.0231H51.4326ZM51.4326 44.6045V41.0231H51.0326V44.6045H51.4326ZM52.2326 45.4045C51.7907 45.4045 51.4326 45.0464 51.4326 44.6045H51.0326C51.0326 45.2673 51.5698 45.8045 52.2326 45.8045V45.4045ZM55.814 45.4045H52.2326V45.8045H55.814V45.4045ZM56.614 44.6045C56.614 45.0464 56.2558 45.4045 55.814 45.4045V45.8045C56.4767 45.8045 57.014 45.2673 57.014 44.6045H56.614ZM56.614 41.0231V44.6045H57.014V41.0231H56.614ZM52.4729 44.5642H55.5736V44.1642H52.4729V44.5642ZM52.2729 41.2634V44.3642H52.6729V41.2634H52.2729ZM55.5736 41.0634H52.4729V41.4634H55.5736V41.0634ZM55.7736 44.3642V41.2634H55.3736V44.3642H55.7736ZM66.5025 30.6274C66.5025 30.5336 66.5785 30.4575 66.6722 30.4575L66.672 30.0575C66.3573 30.0577 66.1024 30.3129 66.1025 30.6276L66.5025 30.6274ZM66.5029 31.2811L66.5025 30.6274L66.1025 30.6276L66.1029 31.2813L66.5029 31.2811ZM66.6727 31.4508C66.579 31.4509 66.5029 31.3749 66.5029 31.2811L66.1029 31.2813C66.103 31.596 66.3583 31.851 66.673 31.8508L66.6727 31.4508ZM68.3963 31.4498C67.8422 31.4502 67.1587 31.4506 66.6728 31.4508L66.673 31.8508C67.1589 31.8506 67.8425 31.8502 68.3966 31.8498L68.3963 31.4498ZM68.8919 30.9526C68.8923 31.227 68.6704 31.4495 68.3963 31.4498L68.3966 31.8498C68.8921 31.8494 69.2927 31.4472 69.2919 30.952L68.8919 30.9526ZM68.3945 30.4564C68.6689 30.4562 68.8915 30.6783 68.8919 30.9526L69.2919 30.952C69.2911 30.4569 68.8893 30.056 68.3942 30.0564L68.3945 30.4564ZM66.6722 30.4575C67.1578 30.4572 67.8408 30.4569 68.3945 30.4564L68.3942 30.0564C67.8406 30.0569 67.1576 30.0573 66.672 30.0575L66.6722 30.4575ZM62.7545 30.9523C62.7538 31.4472 63.1542 31.8492 63.6494 31.8497L63.6498 31.4497C63.3758 31.4494 63.1541 31.227 63.1545 30.9528L62.7545 30.9523ZM63.6523 30.0567C63.1571 30.0561 62.7552 30.457 62.7545 30.9523L63.1545 30.9528C63.1549 30.6785 63.3775 30.4564 63.6519 30.4567L63.6523 30.0567ZM64.769 30.0576L63.6523 30.0567L63.652 30.4567L64.7686 30.4576L64.769 30.0576ZM65.6649 30.9545C65.6651 30.4594 65.2641 30.0579 64.7689 30.0576L64.7687 30.4576C65.0429 30.4577 65.265 30.6801 65.2649 30.9543L65.6649 30.9545ZM64.7681 31.8506C65.2633 31.851 65.6647 31.4496 65.6649 30.9545L65.2649 30.9543C65.2648 31.2287 65.0425 31.4508 64.7683 31.4506L64.7681 31.8506ZM63.6494 31.8497L64.768 31.8506L64.7684 31.4506L63.6497 31.4497L63.6494 31.8497Z" fill="#AAFF5C"/>
<mask id="path-3-outside-1" maskUnits="userSpaceOnUse" x="24" y="20.0464" width="50" height="30" fill="black">
<rect fill="white" x="24" y="20.0464" width="50" height="30"/>
<path fill-rule="evenodd" clip-rule="evenodd" d="M39.5831 21.0464H70.9477C72.0794 21.0464 73.0001 21.9671 73 23.0989V41.9858C73 43.1175 72.0795 44.0381 70.9478 44.0381H60.4693V46.9009C60.4693 48.0326 59.5487 48.9534 58.417 48.9534H27.0523C25.9206 48.9534 25 48.0326 25 46.9009V28.014C25 26.8823 25.9206 25.9616 27.0523 25.9616H37.5307V23.0989C37.5307 21.9671 38.4514 21.0464 39.5831 21.0464ZM58.4169 47.7239C58.8706 47.7239 59.2397 47.3546 59.2397 46.9009V35.6747H26.2294V46.9009C26.2294 47.3546 26.5986 47.7239 27.0523 47.7239H58.4169ZM26.3216 31.4944V34.4452H59.1476V31.4944H26.3216ZM26.2293 30.2649H59.2397V28.014C59.2397 27.5603 58.8706 27.1912 58.4169 27.1912H27.0522C26.5985 27.1912 26.2293 27.5603 26.2293 28.014V30.2649ZM70.9479 42.8085C71.4015 42.8085 71.7707 42.4393 71.7707 41.9857V23.0988C71.7707 22.6449 71.4015 22.2758 70.9479 22.2758H39.5831C39.1293 22.2758 38.7602 22.6449 38.7602 23.0988V25.9615H58.4169C59.5486 25.9615 60.4692 26.8822 60.4692 28.0139V30.2648H61.2115C61.551 30.2648 61.8263 30.54 61.8263 30.8796C61.8263 31.2191 61.551 31.4943 61.2115 31.4943H60.4692V35.5066C61.0822 34.6437 62.089 34.079 63.2259 34.079C63.748 34.079 64.266 34.2023 64.7311 34.4336C65.1965 34.2012 65.7093 34.079 66.238 34.079C68.1022 34.079 69.6189 35.5957 69.6189 37.4602C69.6189 39.3245 68.1022 40.8413 66.238 40.8413C65.7085 40.8413 65.1953 40.7196 64.7298 40.4871C64.2648 40.7187 63.7526 40.8413 63.2259 40.8413C62.0892 40.8413 61.0822 40.2764 60.4692 39.4136V42.8085H70.9479ZM63.2259 39.6119C63.354 39.6119 63.4802 39.5994 63.6044 39.5773C63.1278 38.9833 62.8572 38.238 62.857 37.4603C62.857 36.6805 63.1275 35.9355 63.6049 35.3419C63.4811 35.3199 63.3547 35.3086 63.2259 35.3086C62.0395 35.3086 61.0744 36.2738 61.0744 37.4603C61.0744 38.6467 62.0395 39.6119 63.2259 39.6119ZM65.014 35.6908C64.4332 36.0934 64.0867 36.7549 64.0867 37.4603C64.0867 38.1569 64.4265 38.8136 64.9957 39.2173C65.3599 39.4754 65.7896 39.6119 66.2382 39.6119C67.4246 39.6119 68.3897 38.6468 68.3897 37.4603C68.3897 36.2738 67.4246 35.3086 66.2382 35.3086C65.7976 35.3086 65.374 35.4408 65.014 35.6908ZM33.9302 37.7906H29.186C28.8778 37.7906 28.6279 38.0405 28.6279 38.3487C28.6279 38.657 28.8778 38.9068 29.186 38.9068H33.9302C34.2385 38.9068 34.4884 38.657 34.4884 38.3487C34.4884 38.0405 34.2385 37.7906 33.9302 37.7906ZM39.9302 40.3022H29.0465C28.6612 40.3022 28.3488 40.6146 28.3488 40.9999C28.3488 41.3852 28.6612 41.6975 29.0465 41.6975H39.9302C40.3155 41.6975 40.6279 41.3852 40.6279 40.9999C40.6279 40.6146 40.3155 40.3022 39.9302 40.3022ZM37 37.7906H40.0698C40.378 37.7906 40.6279 38.0405 40.6279 38.3487C40.6279 38.657 40.378 38.9068 40.0698 38.9068H37C36.6917 38.9068 36.4419 38.657 36.4419 38.3487C36.4419 38.0405 36.6917 37.7906 37 37.7906ZM56.814 41.0231C56.814 40.4708 56.3662 40.0231 55.814 40.0231H52.2326C51.6803 40.0231 51.2326 40.4708 51.2326 41.0231V44.6045C51.2326 45.1568 51.6803 45.6045 52.2326 45.6045H55.814C56.3662 45.6045 56.814 45.1568 56.814 44.6045V41.0231ZM55.5736 44.3642H52.4729V41.2634H55.5736V44.3642ZM66.6721 30.2575C66.4679 30.2576 66.3024 30.4233 66.3025 30.6275L66.3029 31.2812C66.303 31.4855 66.4686 31.6509 66.6729 31.6508C67.1588 31.6506 67.8424 31.6502 68.3965 31.6498C68.7813 31.6495 69.0925 31.3371 69.0919 30.9523C69.0913 30.5676 68.7791 30.2561 68.3944 30.2564C67.8407 30.2569 67.1577 30.2572 66.6721 30.2575ZM63.6496 31.6497C63.265 31.6493 62.9539 31.3371 62.9545 30.9525C62.955 30.5677 63.2673 30.2562 63.6521 30.2567L64.7688 30.2576C65.1535 30.2578 65.465 30.5697 65.4649 30.9544C65.4648 31.3391 65.1529 31.6509 64.7682 31.6506L63.6496 31.6497Z"/>
</mask>
<path d="M73 23.0989L72.8 23.0989V23.0989H73ZM60.4693 44.0381V43.8381H60.2693V44.0381H60.4693ZM37.5307 25.9616V26.1616H37.7307V25.9616H37.5307ZM59.2397 35.6747H59.4397V35.4747H59.2397V35.6747ZM26.2294 35.6747V35.4747H26.0294V35.6747H26.2294ZM26.3216 34.4452H26.1216V34.6452H26.3216V34.4452ZM26.3216 31.4944V31.2944H26.1216V31.4944H26.3216ZM59.1476 34.4452V34.6452H59.3476V34.4452H59.1476ZM59.1476 31.4944H59.3476V31.2944H59.1476V31.4944ZM59.2397 30.2649V30.4649H59.4397V30.2649H59.2397ZM26.2293 30.2649H26.0293V30.4649H26.2293V30.2649ZM38.7602 25.9615H38.5602V26.1615H38.7602V25.9615ZM60.4692 30.2648H60.2692V30.4648H60.4692V30.2648ZM60.4692 31.4943V31.2943H60.2692V31.4943H60.4692ZM60.4692 35.5066H60.2692V36.1335L60.6322 35.6225L60.4692 35.5066ZM64.7311 34.4336L64.642 34.6127L64.7313 34.6571L64.8204 34.6125L64.7311 34.4336ZM64.7298 40.4871L64.8192 40.3082L64.7299 40.2636L64.6406 40.3081L64.7298 40.4871ZM60.4692 39.4136L60.6322 39.2978L60.2692 38.7868V39.4136H60.4692ZM60.4692 42.8085H60.2692V43.0085H60.4692V42.8085ZM63.6044 39.5773L63.6395 39.7742L63.9714 39.715L63.7604 39.4521L63.6044 39.5773ZM62.857 37.4603H62.657V37.4603L62.857 37.4603ZM63.6049 35.3419L63.7608 35.4672L63.9726 35.2039L63.6398 35.1449L63.6049 35.3419ZM65.014 35.6908L65.1279 35.8551L65.128 35.8551L65.014 35.6908ZM64.9957 39.2173L64.88 39.3804L64.88 39.3805L64.9957 39.2173ZM52.4729 44.3642H52.2729V44.5642H52.4729V44.3642ZM55.5736 44.3642V44.5642H55.7736V44.3642H55.5736ZM52.4729 41.2634V41.0634H52.2729V41.2634H52.4729ZM55.5736 41.2634H55.7736V41.0634H55.5736V41.2634ZM66.3025 30.6275L66.5025 30.6274V30.6274L66.3025 30.6275ZM66.6721 30.2575L66.672 30.0575H66.672L66.6721 30.2575ZM66.3029 31.2812L66.5029 31.2811V31.2811L66.3029 31.2812ZM66.6729 31.6508L66.6728 31.4508H66.6727L66.6729 31.6508ZM68.3965 31.6498L68.3966 31.8498L68.3965 31.6498ZM69.0919 30.9523L69.2919 30.952V30.952L69.0919 30.9523ZM68.3944 30.2564L68.3942 30.0564L68.3944 30.2564ZM62.9545 30.9525L62.7545 30.9523V30.9523L62.9545 30.9525ZM63.6496 31.6497L63.6494 31.8497H63.6494L63.6496 31.6497ZM63.6521 30.2567L63.6519 30.4567H63.652L63.6521 30.2567ZM64.7688 30.2576L64.7686 30.4576H64.7687L64.7688 30.2576ZM65.4649 30.9544L65.2649 30.9543V30.9543L65.4649 30.9544ZM64.7682 31.6506L64.768 31.8506H64.7681L64.7682 31.6506ZM70.9477 20.8464H39.5831V21.2464H70.9477V20.8464ZM73.2 23.0989C73.2001 21.8567 72.1899 20.8464 70.9477 20.8464V21.2464C71.9689 21.2464 72.8001 22.0776 72.8 23.0989L73.2 23.0989ZM73.2 41.9858V23.0989H72.8V41.9858H73.2ZM70.9478 44.2381C72.19 44.2381 73.2 43.228 73.2 41.9858H72.8C72.8 43.0071 71.969 43.8381 70.9478 43.8381V44.2381ZM60.4693 44.2381H70.9478V43.8381H60.4693V44.2381ZM60.6693 46.9009V44.0381H60.2693V46.9009H60.6693ZM58.417 49.1534C59.6592 49.1534 60.6693 48.143 60.6693 46.9009H60.2693C60.2693 47.9222 59.4382 48.7534 58.417 48.7534V49.1534ZM27.0523 49.1534H58.417V48.7534H27.0523V49.1534ZM24.8 46.9009C24.8 48.143 25.8101 49.1534 27.0523 49.1534V48.7534C26.0311 48.7534 25.2 47.9222 25.2 46.9009H24.8ZM24.8 28.014V46.9009H25.2V28.014H24.8ZM27.0523 25.7616C25.8101 25.7616 24.8 26.7719 24.8 28.014H25.2C25.2 26.9927 26.0311 26.1616 27.0523 26.1616V25.7616ZM37.5307 25.7616H27.0523V26.1616H37.5307V25.7616ZM37.3307 23.0989V25.9616H37.7307V23.0989H37.3307ZM39.5831 20.8464C38.341 20.8464 37.3307 21.8567 37.3307 23.0989H37.7307C37.7307 22.0776 38.5619 21.2464 39.5831 21.2464V20.8464ZM59.0397 46.9009C59.0397 47.2442 58.7601 47.5239 58.4169 47.5239V47.9239C58.9811 47.9239 59.4397 47.465 59.4397 46.9009H59.0397ZM59.0397 35.6747V46.9009H59.4397V35.6747H59.0397ZM26.2294 35.8747H59.2397V35.4747H26.2294V35.8747ZM26.4294 46.9009V35.6747H26.0294V46.9009H26.4294ZM27.0523 47.5239C26.7091 47.5239 26.4294 47.2442 26.4294 46.9009H26.0294C26.0294 47.465 26.4881 47.9239 27.0523 47.9239V47.5239ZM58.4169 47.5239H27.0523V47.9239H58.4169V47.5239ZM26.5216 34.4452V31.4944H26.1216V34.4452H26.5216ZM59.1476 34.2452H26.3216V34.6452H59.1476V34.2452ZM58.9476 31.4944V34.4452H59.3476V31.4944H58.9476ZM26.3216 31.6944H59.1476V31.2944H26.3216V31.6944ZM59.2397 30.0649H26.2293V30.4649H59.2397V30.0649ZM59.0397 28.014V30.2649H59.4397V28.014H59.0397ZM58.4169 27.3912C58.7601 27.3912 59.0397 27.6707 59.0397 28.014H59.4397C59.4397 27.4499 58.9811 26.9912 58.4169 26.9912V27.3912ZM27.0522 27.3912H58.4169V26.9912H27.0522V27.3912ZM26.4293 28.014C26.4293 27.6707 26.7089 27.3912 27.0522 27.3912V26.9912C26.488 26.9912 26.0293 27.4499 26.0293 28.014H26.4293ZM26.4293 30.2649V28.014H26.0293V30.2649H26.4293ZM71.5707 41.9857C71.5707 42.3288 71.2911 42.6085 70.9479 42.6085V43.0085C71.512 43.0085 71.9707 42.5497 71.9707 41.9857H71.5707ZM71.5707 23.0988V41.9857H71.9707V23.0988H71.5707ZM70.9479 22.4758C71.291 22.4758 71.5707 22.7554 71.5707 23.0988H71.9707C71.9707 22.5345 71.512 22.0758 70.9479 22.0758V22.4758ZM39.5831 22.4758H70.9479V22.0758H39.5831V22.4758ZM38.9602 23.0988C38.9602 22.7554 39.2398 22.4758 39.5831 22.4758V22.0758C39.0188 22.0758 38.5602 22.5345 38.5602 23.0988H38.9602ZM38.9602 25.9615V23.0988H38.5602V25.9615H38.9602ZM58.4169 25.7615H38.7602V26.1615H58.4169V25.7615ZM60.6692 28.0139C60.6692 26.7718 59.659 25.7615 58.4169 25.7615V26.1615C59.4381 26.1615 60.2692 26.9926 60.2692 28.0139H60.6692ZM60.6692 30.2648V28.0139H60.2692V30.2648H60.6692ZM61.2115 30.0648H60.4692V30.4648H61.2115V30.0648ZM62.0263 30.8796C62.0263 30.4296 61.6615 30.0648 61.2115 30.0648V30.4648C61.4406 30.4648 61.6263 30.6505 61.6263 30.8796H62.0263ZM61.2115 31.6943C61.6615 31.6943 62.0263 31.3295 62.0263 30.8796H61.6263C61.6263 31.1086 61.4406 31.2943 61.2115 31.2943V31.6943ZM60.4692 31.6943H61.2115V31.2943H60.4692V31.6943ZM60.6692 35.5066V31.4943H60.2692V35.5066H60.6692ZM63.2259 33.879C62.0211 33.879 60.9549 34.4776 60.3061 35.3908L60.6322 35.6225C61.2096 34.8098 62.1568 34.279 63.2259 34.279V33.879ZM64.8202 34.2545C64.3277 34.0096 63.7793 33.879 63.2259 33.879V34.279C63.7168 34.279 64.2043 34.395 64.642 34.6127L64.8202 34.2545ZM66.238 33.879C65.6783 33.879 65.1348 34.0084 64.6417 34.2547L64.8204 34.6125C65.2582 34.394 65.7404 34.279 66.238 34.279V33.879ZM69.8189 37.4602C69.8189 35.4853 68.2127 33.879 66.238 33.879V34.279C67.9918 34.279 69.4189 35.7062 69.4189 37.4602H69.8189ZM66.238 41.0413C68.2127 41.0413 69.8189 39.4349 69.8189 37.4602H69.4189C69.4189 39.214 67.9917 40.6413 66.238 40.6413V41.0413ZM64.6404 40.666C65.1338 40.9125 65.6775 41.0413 66.238 41.0413V40.6413C65.7394 40.6413 65.2569 40.5268 64.8192 40.3082L64.6404 40.666ZM63.2259 41.0413C63.7838 41.0413 64.3265 40.9114 64.819 40.6661L64.6406 40.3081C64.203 40.5261 63.7213 40.6413 63.2259 40.6413V41.0413ZM60.3061 39.5294C60.9549 40.4425 62.0213 41.0413 63.2259 41.0413V40.6413C62.157 40.6413 61.2096 40.1103 60.6322 39.2978L60.3061 39.5294ZM60.6692 42.8085V39.4136H60.2692V42.8085H60.6692ZM70.9479 42.6085H60.4692V43.0085H70.9479V42.6085ZM63.5694 39.3804C63.4554 39.4007 63.341 39.4119 63.2259 39.4119V39.8119C63.3671 39.8119 63.5051 39.7981 63.6395 39.7742L63.5694 39.3804ZM62.657 37.4603C62.6572 38.2845 62.944 39.0737 63.4484 39.7024L63.7604 39.4521C63.3117 38.8928 63.0572 38.1915 63.057 37.4602L62.657 37.4603ZM63.4491 35.2165C62.9436 35.845 62.657 36.634 62.657 37.4603H63.057C63.057 36.7269 63.3114 36.026 63.7608 35.4672L63.4491 35.2165ZM63.2259 35.5086C63.343 35.5086 63.4577 35.5189 63.57 35.5388L63.6398 35.1449C63.5045 35.121 63.3665 35.1086 63.2259 35.1086V35.5086ZM61.2744 37.4603C61.2744 36.3843 62.15 35.5086 63.2259 35.5086V35.1086C61.929 35.1086 60.8744 36.1634 60.8744 37.4603H61.2744ZM63.2259 39.4119C62.15 39.4119 61.2744 38.5362 61.2744 37.4603H60.8744C60.8744 38.7571 61.929 39.8119 63.2259 39.8119V39.4119ZM64.2867 37.4603C64.2867 36.8206 64.6009 36.2205 65.1279 35.8551L64.9 35.5264C64.2654 35.9664 63.8867 36.6892 63.8867 37.4603H64.2867ZM65.1114 39.0541C64.5949 38.6879 64.2867 38.0919 64.2867 37.4603H63.8867C63.8867 38.2218 64.258 38.9393 64.88 39.3804L65.1114 39.0541ZM66.2382 39.4119C65.8308 39.4119 65.4416 39.2881 65.1113 39.0541L64.88 39.3805C65.2782 39.6626 65.7484 39.8119 66.2382 39.8119V39.4119ZM68.1897 37.4603C68.1897 38.5363 67.3141 39.4119 66.2382 39.4119V39.8119C67.535 39.8119 68.5897 38.7572 68.5897 37.4603H68.1897ZM66.2382 35.5086C67.3142 35.5086 68.1897 36.3843 68.1897 37.4603H68.5897C68.5897 36.1634 67.5351 35.1086 66.2382 35.1086V35.5086ZM65.128 35.8551C65.4544 35.6285 65.8381 35.5086 66.2382 35.5086V35.1086C65.757 35.1086 65.2937 35.2531 64.8999 35.5265L65.128 35.8551ZM29.186 37.9906H33.9302V37.5906H29.186V37.9906ZM28.8279 38.3487C28.8279 38.1509 28.9883 37.9906 29.186 37.9906V37.5906C28.7673 37.5906 28.4279 37.93 28.4279 38.3487H28.8279ZM29.186 38.7068C28.9883 38.7068 28.8279 38.5465 28.8279 38.3487H28.4279C28.4279 38.7674 28.7673 39.1068 29.186 39.1068V38.7068ZM33.9302 38.7068H29.186V39.1068H33.9302V38.7068ZM34.2884 38.3487C34.2884 38.5465 34.128 38.7068 33.9302 38.7068V39.1068C34.3489 39.1068 34.6884 38.7674 34.6884 38.3487H34.2884ZM33.9302 37.9906C34.128 37.9906 34.2884 38.1509 34.2884 38.3487H34.6884C34.6884 37.93 34.3489 37.5906 33.9302 37.5906V37.9906ZM29.0465 40.5022H39.9302V40.1022H29.0465V40.5022ZM28.5488 40.9999C28.5488 40.725 28.7717 40.5022 29.0465 40.5022V40.1022C28.5507 40.1022 28.1488 40.5041 28.1488 40.9999H28.5488ZM29.0465 41.4975C28.7717 41.4975 28.5488 41.2747 28.5488 40.9999H28.1488C28.1488 41.4956 28.5507 41.8975 29.0465 41.8975V41.4975ZM39.9302 41.4975H29.0465V41.8975H39.9302V41.4975ZM40.4279 40.9999C40.4279 41.2747 40.2051 41.4975 39.9302 41.4975V41.8975C40.426 41.8975 40.8279 41.4956 40.8279 40.9999H40.4279ZM39.9302 40.5022C40.2051 40.5022 40.4279 40.725 40.4279 40.9999H40.8279C40.8279 40.5041 40.426 40.1022 39.9302 40.1022V40.5022ZM40.0698 37.5906H37V37.9906H40.0698V37.5906ZM40.8279 38.3487C40.8279 37.93 40.4885 37.5906 40.0698 37.5906V37.9906C40.2676 37.9906 40.4279 38.1509 40.4279 38.3487H40.8279ZM40.0698 39.1068C40.4885 39.1068 40.8279 38.7674 40.8279 38.3487H40.4279C40.4279 38.5465 40.2676 38.7068 40.0698 38.7068V39.1068ZM37 39.1068H40.0698V38.7068H37V39.1068ZM36.2419 38.3487C36.2419 38.7674 36.5813 39.1068 37 39.1068V38.7068C36.8022 38.7068 36.6419 38.5465 36.6419 38.3487H36.2419ZM37 37.5906C36.5813 37.5906 36.2419 37.93 36.2419 38.3487H36.6419C36.6419 38.1509 36.8022 37.9906 37 37.9906V37.5906ZM55.814 40.2231C56.2558 40.2231 56.614 40.5813 56.614 41.0231H57.014C57.014 40.3604 56.4767 39.8231 55.814 39.8231V40.2231ZM52.2326 40.2231H55.814V39.8231H52.2326V40.2231ZM51.4326 41.0231C51.4326 40.5813 51.7907 40.2231 52.2326 40.2231V39.8231C51.5698 39.8231 51.0326 40.3604 51.0326 41.0231H51.4326ZM51.4326 44.6045V41.0231H51.0326V44.6045H51.4326ZM52.2326 45.4045C51.7907 45.4045 51.4326 45.0464 51.4326 44.6045H51.0326C51.0326 45.2673 51.5698 45.8045 52.2326 45.8045V45.4045ZM55.814 45.4045H52.2326V45.8045H55.814V45.4045ZM56.614 44.6045C56.614 45.0464 56.2558 45.4045 55.814 45.4045V45.8045C56.4767 45.8045 57.014 45.2673 57.014 44.6045H56.614ZM56.614 41.0231V44.6045H57.014V41.0231H56.614ZM52.4729 44.5642H55.5736V44.1642H52.4729V44.5642ZM52.2729 41.2634V44.3642H52.6729V41.2634H52.2729ZM55.5736 41.0634H52.4729V41.4634H55.5736V41.0634ZM55.7736 44.3642V41.2634H55.3736V44.3642H55.7736ZM66.5025 30.6274C66.5025 30.5336 66.5785 30.4575 66.6722 30.4575L66.672 30.0575C66.3573 30.0577 66.1024 30.3129 66.1025 30.6276L66.5025 30.6274ZM66.5029 31.2811L66.5025 30.6274L66.1025 30.6276L66.1029 31.2813L66.5029 31.2811ZM66.6727 31.4508C66.579 31.4509 66.5029 31.3749 66.5029 31.2811L66.1029 31.2813C66.103 31.596 66.3583 31.851 66.673 31.8508L66.6727 31.4508ZM68.3963 31.4498C67.8422 31.4502 67.1587 31.4506 66.6728 31.4508L66.673 31.8508C67.1589 31.8506 67.8425 31.8502 68.3966 31.8498L68.3963 31.4498ZM68.8919 30.9526C68.8923 31.227 68.6704 31.4495 68.3963 31.4498L68.3966 31.8498C68.8921 31.8494 69.2927 31.4472 69.2919 30.952L68.8919 30.9526ZM68.3945 30.4564C68.6689 30.4562 68.8915 30.6783 68.8919 30.9526L69.2919 30.952C69.2911 30.4569 68.8893 30.056 68.3942 30.0564L68.3945 30.4564ZM66.6722 30.4575C67.1578 30.4572 67.8408 30.4569 68.3945 30.4564L68.3942 30.0564C67.8406 30.0569 67.1576 30.0573 66.672 30.0575L66.6722 30.4575ZM62.7545 30.9523C62.7538 31.4472 63.1542 31.8492 63.6494 31.8497L63.6498 31.4497C63.3758 31.4494 63.1541 31.227 63.1545 30.9528L62.7545 30.9523ZM63.6523 30.0567C63.1571 30.0561 62.7552 30.457 62.7545 30.9523L63.1545 30.9528C63.1549 30.6785 63.3775 30.4564 63.6519 30.4567L63.6523 30.0567ZM64.769 30.0576L63.6523 30.0567L63.652 30.4567L64.7686 30.4576L64.769 30.0576ZM65.6649 30.9545C65.6651 30.4594 65.2641 30.0579 64.7689 30.0576L64.7687 30.4576C65.0429 30.4577 65.265 30.6801 65.2649 30.9543L65.6649 30.9545ZM64.7681 31.8506C65.2633 31.851 65.6647 31.4496 65.6649 30.9545L65.2649 30.9543C65.2648 31.2287 65.0425 31.4508 64.7683 31.4506L64.7681 31.8506ZM63.6494 31.8497L64.768 31.8506L64.7684 31.4506L63.6497 31.4497L63.6494 31.8497Z" fill="#17E200" mask="url(#path-3-outside-1)"/>
</g>
<defs>
<filter id="filter0_d" x="0.800049" y="-9" width="96.4" height="96" filterUnits="userSpaceOnUse" color-interpolation-filters="sRGB">
<feFlood flood-opacity="0" result="BackgroundImageFix"/>
<feColorMatrix in="SourceAlpha" type="matrix" values="0 0 0 0 0 0 0 0 0 0 0 0 0 0 0 0 0 0 127 0"/>
<feOffset dy="4"/>
<feGaussianBlur stdDeviation="12"/>
<feColorMatrix type="matrix" values="0 0 0 0 0.411765 0 0 0 0 0.811765 0 0 0 0 0.0941176 0 0 0 0.5 0"/>
<feBlend mode="normal" in2="BackgroundImageFix" result="effect1_dropShadow"/>
<feBlend mode="normal" in="SourceGraphic" in2="effect1_dropShadow" result="shape"/>
</filter>
</defs>
</svg>
