<svg width="19" height="21" viewBox="0 0 19 21" fill="none" xmlns="http://www.w3.org/2000/svg">
<path d="M12.6875 15.7778H18L16.5072 14.2947C16.3067 14.0955 16.1477 13.859 16.0392 13.5988C15.9308 13.3385 15.875 13.0596 15.875 12.7779V9.44444C15.8752 8.13443 15.4666 6.85658 14.7054 5.78683C13.9443 4.71707 12.8681 3.90802 11.625 3.47106V3.11111C11.625 2.55121 11.4011 2.01424 11.0026 1.61833C10.6041 1.22242 10.0636 1 9.5 1C8.93641 1 8.39591 1.22242 7.9974 1.61833C7.59888 2.01424 7.375 2.55121 7.375 3.11111V3.47106C4.89938 4.34083 3.125 6.68733 3.125 9.44444V12.7789C3.125 13.3468 2.89763 13.8926 2.49281 14.2947L1 15.7778H6.3125M12.6875 15.7778H6.3125M12.6875 15.7778V16.8333C12.6875 17.6732 12.3517 18.4786 11.7539 19.0725C11.1561 19.6664 10.3454 20 9.5 20C8.65462 20 7.84387 19.6664 7.2461 19.0725C6.64832 18.4786 6.3125 17.6732 6.3125 16.8333V15.7778" stroke="#FFC400" stroke-width="2" stroke-linecap="round" stroke-linejoin="round"/>
</svg>
