<svg width="26" height="26" viewBox="0 0 26 26" fill="none" xmlns="http://www.w3.org/2000/svg">
<path d="M13.0069 26L23.1194 16.1496L19.5036 10.726H6.51031L2.89453 16.1496L13.0069 26ZM14.9973 16.8153L13.0069 22.8198L11.0166 16.8153H14.9973ZM11.3845 15.2929L13.0069 12.8594L14.6294 15.2929H11.3845ZM16.6013 16.8153H20.3105L14.7466 22.4102L16.6013 16.8153ZM17.4739 15.2929L19.0963 12.8594L20.7188 15.2929H17.4739ZM16.0516 14.6819L14.4292 12.2482H17.6741L16.0516 14.6819ZM9.96225 14.6819L8.33983 12.2482H11.5847L9.96225 14.6819ZM8.54018 15.2929H5.29533L6.91776 12.8594L8.54018 15.2929ZM9.41278 16.8153L11.2673 22.4102L5.70337 16.8153H9.41278Z" fill="#FFC400"/>
<path d="M13.007 0L10.6316 4.6322L13.007 9.38322L15.3826 4.6322L13.007 0ZM12.3379 4.64093L13.007 3.33609L13.6763 4.64093L13.007 5.97929L12.3379 4.64093Z" fill="#00FE01"/>
<path d="M22.3118 3.70465L18.068 4.55325L16.3704 9.64586L21.463 7.94846L22.3118 3.70465ZM20.1434 6.78366L18.7775 7.23891L19.2328 5.87297L20.3712 5.64525L20.1434 6.78366Z" fill="#00FE01"/>
<path d="M7.90782 4.55325L3.66382 3.70465L4.51262 7.94846L9.60522 9.64586L7.90782 4.55325ZM5.83214 6.78366L5.60442 5.64525L6.74283 5.87277L7.19827 7.23891L5.83214 6.78366Z" fill="#00FE01"/>
</svg>
