<?xml version="1.0" encoding="utf-8"?>
<!-- Generator: Adobe Illustrator 24.2.1, SVG Export Plug-In . SVG Version: 6.00 Build 0)  -->
<svg version="1.1" id="Layer_1" xmlns="http://www.w3.org/2000/svg" xmlns:xlink="http://www.w3.org/1999/xlink" x="0px" y="0px"
	 viewBox="0 0 62 62" style="enable-background:new 0 0 62 62;" xml:space="preserve">
<style type="text/css">
	.st0{fill:#E4FFA3;}
	.st1{fill:#AAFF5C;}
	.st2{fill:#17E200;}
	.st3{fill:#FFFFFF;}
	.st4{fill:#FFEC4A;}
	.st5{fill:#FFC400;}
</style>
<g>
	<path class="st0" d="M43.8189354,20.5091057l-25.6196308-0.0004883l-0.1420898,0.0043945
		c-1.0239258,0-1.8842773-0.8007813-1.9584961-1.8232422l0.0004883-6.0268564c0-0.1269531-0.0800781-0.2407227-0.2001953-0.2827148
		c-0.9067383-0.3203125-1.4790039-1.2133789-1.3916016-2.1713867c0.0878906-0.9575195,0.8129883-1.7314453,1.7631836-1.8818359
		c0.1103516-0.0175781,0.2207031-0.0258789,0.3300781-0.0258789c0.8398438,0,1.5966797,0.4990234,1.9282227,1.2714844
		c0.3798828,0.8842773,0.1108398,1.9101563-0.652832,2.4946289c-0.0751953,0.0576172-0.1191406,0.1469727-0.1176758,0.2416992
		c0.0009766,0.0947266,0.0463867,0.1831055,0.1230469,0.2392578l5.8168945,4.2392588
		c0.237793,0.1567383,0.5,0.2353516,0.7705078,0.2353516c0.3037109,0,0.6035156-0.1020508,0.8442383-0.2880859l4.5288086-4.1274424
		c0.0673828-0.0615234,0.1035156-0.1508789,0.097168-0.2421875s-0.0537109-0.1748047-0.1293945-0.2265625
		c-0.762207-0.5244141-1.0898438-1.4697266-0.8149414-2.3530273c0.2739258-0.8833008,1.0795898-1.4770508,2.0048828-1.4770508
		c0.9248047,0,1.7309589,0.59375,2.0058613,1.4775391c0.2744141,0.8828125-0.0532227,1.828125-0.8154297,2.3525391
		c-0.0756836,0.0517578-0.1230469,0.1352539-0.1293945,0.2265625s0.0297852,0.1806641,0.097168,0.2421875l4.5097656,4.1083994
		c0.2587891,0.2016602,0.5585938,0.3041992,0.8632813,0.3041992c0.2705078,0,0.5332031-0.0791016,0.7587891-0.2280273
		l5.828125-4.246583c0.0761719-0.0556641,0.1220703-0.1445313,0.1230469-0.2387695
		c0.0009766-0.0947266-0.0419922-0.184082-0.1171875-0.2416992c-0.7626953-0.5864258-1.0302734-1.612793-0.6494141-2.4960938
		c0.3320313-0.7705078,1.0888672-1.2685547,1.9277344-1.2685547c0.1103516,0,0.2216797,0.0083008,0.3330078,0.0263672
		c0.9492188,0.1518555,1.6738281,0.9267578,1.7597656,1.8842773c0.0869141,0.9575195-0.4873047,1.8496094-1.3945313,2.1689453
		c-0.1201172,0.0424805-0.2001953,0.1557617-0.2001953,0.2832031v6.0488291
		c-0.0732422,1.0004883-0.9335938,1.8012695-1.9580078,1.8012695L43.8189354,20.5091057z M17.3994999,13.5022688
		c-0.0463867,0-0.0927734,0.0107422-0.1357422,0.0322266c-0.1010742,0.0512695-0.1640625,0.1547852-0.1640625,0.2675781v4.9096689
		c0,0.4321289,0.503418,0.796875,1.0996094,0.796875h25.6010761c0.5957031,0,1.0996094-0.3647461,1.0996094-0.796875v-4.9096689
		c0-0.112793-0.0634766-0.2163086-0.1640625-0.2675781c-0.0429688-0.0214844-0.0888672-0.0322266-0.1357422-0.0322266
		c-0.0625,0-0.125,0.0195313-0.1767578,0.0576172l-5.5292969,4.0375986
		c-0.3974609,0.2797852-0.8691406,0.4291992-1.3603516,0.4291992c-0.5673828,0-1.1171875-0.2041016-1.5478516-0.574707
		l-4.7841816-4.3627939c-0.0571289-0.0522461-0.1298828-0.078125-0.2021484-0.078125s-0.1450195,0.0258789-0.2021484,0.078125
		l-4.7875977,4.3662119c-0.4238281,0.3647461-0.9736328,0.5688477-1.5415039,0.5688477l0,0
		c-0.4912109,0-0.9628906-0.1494141-1.3647461-0.4321289l-5.5273438-4.0322275
		C17.5240116,13.5213118,17.4619999,13.5022688,17.3994999,13.5022688z M45.3999901,9.3108625
		c-0.6064453,0-1.0996094,0.4931641-1.0996094,1.0996094s0.4931641,1.0996094,1.0996094,1.0996094
		s1.0996094-0.4931641,1.0996094-1.0996094S46.0064354,9.3108625,45.3999901,9.3108625z M30.9995975,9.3108625
		c-0.6064453,0-1.0996094,0.4931641-1.0996094,1.0996094s0.4931641,1.0996094,1.0996094,1.0996094
		c0.6069336,0,1.1000996-0.4931641,1.1000996-1.0996094S31.6065311,9.3108625,30.9995975,9.3108625z M16.5992069,9.3108625
		c-0.6064453,0-1.0996094,0.4931641-1.0996094,1.0996094s0.4931641,1.0996094,1.0996094,1.0996094
		c0.6069336,0,1.1000977-0.4931641,1.1000977-1.0996094S17.2061405,9.3108625,16.5992069,9.3108625z"/>
	<path class="st1" d="M45.4026413,8.6000013c0.0942574,0,0.189518,0.0074196,0.28479,0.0226097
		c0.8141899,0.1299934,1.4346275,0.7942619,1.5088005,1.6154022c0.0741577,0.8206291-0.4173622,1.5851288-1.1952934,1.8591309
		c-0.240078,0.084549-0.4006767,0.3113899-0.4006767,0.565918l0.0015984,6.004962
		c-0.0634308,0.8662701-0.7924995,1.5448494-1.65979,1.5448494c-0.0347214,0-0.0696716-0.0010796-0.1417313-0.0043793
		l-25.6379986,0.0011387c-0.0351601,0.0021706-0.0699806,0.0032406-0.1047401,0.0032406
		c-0.867651,0-1.5966702-0.6784592-1.6581116-1.50103v-6.0487814c0-0.2543678-0.1603985-0.4810982-0.4002695-0.5657806
		c-0.7775002-0.2744789-1.2680693-1.0397377-1.1929798-1.860878c0.0752001-0.8208694,0.6966801-1.4842415,1.5113401-1.6132011
		c0.0946903-0.0149879,0.1890697-0.0223007,0.2826099-0.0223007c0.7199993,0,1.3688202,0.4278793,1.6530209,1.0902405
		c0.3253288,0.7575798,0.0952396,1.6366119-0.5595207,2.1376419c-0.1503201,0.1150284-0.2375507,0.294239-0.2353401,0.4835091
		s0.0935993,0.3663902,0.2465706,0.4778805l5.8398094,4.255311c0.2751007,0.1813984,0.5946808,0.2772884,0.9241905,0.2772884
		c0.3698292,0,0.7348099-0.1245289,1.0653095-0.3822098l4.5096493-4.1116705
		c0.1352806-0.1233501,0.2068501-0.3016987,0.1943512-0.4843388c-0.0125008-0.1826515-0.1077003-0.3495903-0.2585201-0.4533501
		c-0.6532001-0.4493904-0.9340096-1.2596893-0.6986599-2.0166626c0.2348995-0.7570992,0.9255791-1.2657776,1.7186794-1.2657776
		c0.7928696,0,1.4837685,0.5088081,1.7191505,1.2658997c0.2349701,0.7567902-0.0459785,1.5671806-0.699131,2.0165405
		c-0.1508598,0.1037788-0.2460594,0.2707787-0.2585297,0.4534607c-0.0124588,0.1826897,0.0591698,0.3610687,0.1945305,0.4843788
		l4.5465813,4.1395006c0.2926102,0.2265606,0.6576996,0.3513393,1.0280075,0.3513393
		c0.3296432,0,0.6494217-0.0958996,0.9480705-0.2934799l5.8159599-4.2390699
		c0.1527596-0.1113396,0.2441216-0.2881622,0.2465401-0.4771805c0.0024223-0.1890221-0.0843697-0.3681297-0.23423-0.4833488
		c-0.6538277-0.5027008-0.8827171-1.3823814-0.5566597-2.139122c0.284832-0.660759,0.9335213-1.0876999,1.6525993-1.0876808
		C45.4026299,8.6000013,45.4026299,8.6000013,45.4026413,8.6000013 M45.40028,11.8103933
		c0.7719498,0,1.3999786-0.6279297,1.3999786-1.3997612c0-0.7718277-0.6280289-1.3997612-1.3999786-1.3997612
		s-1.399971,0.6279335-1.399971,1.3997612C44.000309,11.1824636,44.6283302,11.8103933,45.40028,11.8103933 M30.9997292,11.8103933
		c0.7720699,0,1.4001884-0.6279297,1.4001884-1.3997612c0-0.7718277-0.6281185-1.3997612-1.4001884-1.3997612
		c-0.7719498,0-1.3999691,0.6279335-1.3999691,1.3997612C29.5997601,11.1824636,30.2277794,11.8103933,30.9997292,11.8103933
		 M16.5994396,11.8103933c0.7719402,0,1.39995-0.6279297,1.39995-1.3997612c0-0.7718277-0.6280098-1.3997612-1.39995-1.3997612
		s-1.39995,0.6279335-1.39995,1.3997612C15.1994896,11.1824636,15.8274994,11.8103933,16.5994396,11.8103933 M24.4683895,17.7243042
		c-0.4288902,0-0.8409996-0.1305199-1.1835403-0.3715496l-5.5318489-4.0354223
		c-0.1046677-0.0763493-0.2288208-0.1152763-0.3536797-0.1152725c-0.0927925,0.0000019-0.1859818,0.0215073-0.2718105,0.0651321
		c-0.2013206,0.1023407-0.3281212,0.3090401-0.3281212,0.5348701v4.9097815c0,0.6048298,0.6280098,1.0969009,1.39995,1.0969009
		h25.6009998c0.7719498,0,1.399971-0.4920712,1.399971-1.0969009V13.802062c0-0.2258797-0.1268616-0.4326286-0.3282509-0.5349293
		c-0.0858078-0.0435925-0.1789246-0.065073-0.2716827-0.065073c-0.1249428,0-0.249218,0.0389957-0.3539162,0.1154537
		l-5.5204506,4.0314302c-0.3508797,0.2469501-0.76297,0.3774891-1.1917381,0.3774891
		c-0.4959526,0-0.9760399-0.1781292-1.3389702-0.4901981l-4.7913017-4.3687925
		c-0.1145344-0.104435-0.259388-0.1566391-0.4042702-0.1566391c-0.1448803,0-0.2897892,0.0522346-0.4043102,0.1566792
		l-4.77495,4.3551111C25.4447784,17.5461235,24.9646091,17.7243042,24.4683895,17.7243042 M45.4026337,7.9999995
		c-0.946003-0.0000229-1.8198547,0.5599437-2.2036018,1.4501643c-0.4344521,1.0083199-0.128891,2.1827583,0.7419281,2.8522987
		L38.125,16.5415344c-0.1809044,0.1192036-0.3880463,0.1783524-0.5946655,0.1783524
		c-0.2337608,0-0.4668617-0.0756893-0.6606636-0.2257538l-4.5098419-4.1086206
		c0.8661194-0.5958786,1.2435989-1.6853905,0.9320602-2.6887703c-0.3121796-1.0041199-1.2406082-1.6879807-2.29216-1.6879807
		c-1.0511189,0-1.9801903,0.6838608-2.291729,1.6879807c-0.3119602,1.0033798,0.0655098,2.0928917,0.9316292,2.6887703
		l-4.5096493,4.1116705c-0.1941319,0.1498661-0.4273605,0.2255936-0.6610622,0.2255936
		c-0.2064095,0-0.4131756-0.0590305-0.5938778-0.1781921l-5.8167305-4.2393026
		c0.8722191-0.6674271,1.1796188-1.841629,0.7462196-2.8508873c-0.3826103-0.8917084-1.2574043-1.4534874-2.2043419-1.4534874
		c-0.124588,0-0.2503033,0.0097084-0.3764381,0.0296745c-1.0848303,0.17173-1.9148102,1.0573502-2.0150099,2.1510811
		c-0.0999699,1.0932503,0.5547304,2.1156616,1.5907497,2.4813995v6.0487814
		c0.0866508,1.1909142,1.0798731,2.1010284,2.2581072,2.1010284c0.0470409,0,0.0941582-0.001442,0.1417427-0.0043774h25.6009998
		c0.0475044,0.0029316,0.0947685,0.0043774,0.1417274,0.0043774c1.1781921,0,2.1709785-0.910038,2.258194-2.1010284v-6.0487814
		c1.0357513-0.3647995,1.6923294-1.3858109,1.5935402-2.4790497c-0.0988007-1.0937386-0.9273605-1.9807587-2.0117722-2.1539001
		C45.6549683,8.00986,45.5281372,8.0000029,45.4026337,7.9999995L45.4026337,7.9999995z M45.40028,11.210391
		c-0.4419098,0-0.7999687-0.3579865-0.7999687-0.7997589c0-0.4417496,0.3580589-0.7997589,0.7999687-0.7997589
		c0.4419212,0,0.7999802,0.3580093,0.7999802,0.7997589C46.2002602,10.8524046,45.8422012,11.210391,45.40028,11.210391
		L45.40028,11.210391z M30.9997292,11.210391c-0.4417,0-0.7999687-0.3579865-0.7999687-0.7997589
		c0-0.4417496,0.3582687-0.7997589,0.7999687-0.7997589c0.442131,0,0.80019,0.3580093,0.80019,0.7997589
		C31.7999191,10.8524046,31.4418602,11.210391,30.9997292,11.210391L30.9997292,11.210391z M16.5994396,11.210391
		c-0.4418602,0-0.7999506-0.3579865-0.7999506-0.7997589c0-0.4417496,0.3580904-0.7997589,0.7999506-0.7997589
		c0.4418697,0,0.7999496,0.3580093,0.7999496,0.7997589C17.3993893,10.8524046,17.0413094,11.210391,16.5994396,11.210391
		L16.5994396,11.210391z M24.4683914,18.3243046c0.6235752,0,1.2449265-0.2176113,1.7436085-0.6470604l4.7877293-4.3664408
		l4.7913017,4.3687906c0.4987144,0.4292717,1.1198959,0.646843,1.7432365,0.646843
		c0.5362892,0,1.0741692-0.1610336,1.5370827-0.4868431l5.5289612-4.0375319v4.9097815
		c0,0.2348404-0.3426895,0.4969006-0.7999725,0.4969006H18.1993389c-0.4575787,0-0.7999496-0.2620602-0.7999496-0.4969006V13.802062
		l5.5318508,4.0354223C23.3940163,18.16325,23.9320374,18.3243046,24.4683914,18.3243046L24.4683914,18.3243046z"/>
	<path class="st2" d="M45.4026413,8.3000021c0.1098785,0,0.2209282,0.0086403,0.3320885,0.0263596
		c0.9498901,0.1516609,1.6737518,0.926651,1.7602921,1.8846512c0.0865173,0.9574814-0.4868927,1.8494492-1.3944206,2.1690903
		c-0.1200409,0.0422783-0.2003403,0.1556892-0.2003403,0.282959l0.0007973,6.0268717
		c-0.0748482,1.0222092-0.9353371,1.8229408-1.9589882,1.8229408c-0.0408401,0-0.0819511-0.0012608-0.1417313-0.0043812
		l-25.6194992,0.0005703c-0.0413704,0.0025597-0.0823402,0.0038109-0.1232395,0.0038109
		c-1.0240803,0-1.884531-0.8006706-1.9581108-1.8010311v-6.0487814c0-0.1271896-0.0802002-0.240551-0.2001295-0.2828903
		c-0.9071302-0.32024-1.4794807-1.2130585-1.3918705-2.1711388c0.0877399-0.9577293,0.8127804-1.7316895,1.7631693-1.8821411
		c0.1104202-0.0174789,0.2204704-0.0259895,0.3295307-0.0259895c0.8401108,0,1.5971508,0.4991989,1.9286804,1.271862
		c0.3796005,0.8839684,0.1111298,1.9096489-0.6528702,2.4942665c-0.075161,0.0575104-0.1187801,0.1471214-0.1176701,0.2417526
		c0.0011101,0.0946388,0.0468006,0.1832008,0.1232796,0.2389374l5.8282795,4.2473135
		c0.2259312,0.1489887,0.4884014,0.2277393,0.7590313,0.2277393c0.3038387,0,0.6037197-0.1023197,0.8631802-0.3038998
		l4.5096493-4.1116705c0.0676403-0.0616722,0.1034298-0.1508522,0.0971794-0.2421722
		c-0.0062485-0.09132-0.0538483-0.1747894-0.1292591-0.2266769c-0.7620697-0.524292-1.0896797-1.4697113-0.8151398-2.3527107
		c0.2740688-0.8833694,1.0798988-1.4768791,2.0051994-1.4768791c0.9249897,0,1.7310219,0.5935783,2.0056496,1.4769402
		c0.2741508,0.8829575-0.0536079,1.8284187-0.8155899,2.3526497c-0.075428,0.051899-0.1230278,0.1353874-0.129261,0.226738
		c-0.006237,0.0913391,0.029583,0.1805305,0.0972633,0.2421913l4.5282097,4.1240511
		c0.2403107,0.186079,0.5401688,0.2885494,0.8443375,0.2885494c0.2707901,0,0.5335007-0.0787907,0.7713623-0.2359104
		l5.8159599-4.2390718c0.0763893-0.0556793,0.1220589-0.1440887,0.1232796-0.2385979
		c0.0012093-0.0945129-0.0421906-0.184063-0.1171188-0.2416725c-0.7627525-0.5864487-1.0297432-1.6127396-0.6492996-2.4957085
		c0.3322983-0.7708702,1.0891266-1.2689514,1.9281082-1.2689209H45.4026413 M45.40028,11.5103941
		c0.6065292,0,1.0999794-0.493351,1.0999794-1.099762S46.0068092,9.310874,45.40028,9.310874
		s-1.0999718,0.4933472-1.0999718,1.0997581S44.7937508,11.5103941,45.40028,11.5103941 M30.9997292,11.5103941
		c0.6066494,0,1.1001892-0.493351,1.1001892-1.099762S31.6063786,9.310874,30.9997292,9.310874
		c-0.6065292,0-1.0999699,0.4933472-1.0999699,1.0997581S30.3931999,11.5103941,30.9997292,11.5103941 M16.5994396,11.5103941
		c0.6065102,0,1.0999489-0.493351,1.0999489-1.099762S17.2059498,9.310874,16.5994396,9.310874
		s-1.0999508,0.4933472-1.0999508,1.0997581S15.9929295,11.5103941,16.5994396,11.5103941 M24.4683895,18.0243034
		c-0.4910393,0-0.9628601-0.1494293-1.3603497-0.4291897l-5.5318508-4.0354204
		c-0.05233-0.0381718-0.114399-0.0576344-0.1768284-0.0576324c-0.0463943,0.0000038-0.0929966,0.0107574-0.1359119,0.0325718
		c-0.1006584,0.0511608-0.1640587,0.1545105-0.1640587,0.2674294v4.9097815c0,0.4319611,0.5037193,0.7968998,1.0999489,0.7968998
		h25.6009998c0.5962524,0,1.0999718-0.3649387,1.0999718-0.7968998V13.802062c0-0.1129398-0.0634308-0.2163086-0.1641312-0.2674694
		c-0.0429039-0.0217934-0.0894508-0.0325317-0.1358299-0.0325317c-0.0624695,0-0.1246109,0.0194988-0.17696,0.0577221
		l-5.5247078,4.0344801c-0.4017029,0.2827301-0.8735008,0.4321709-1.3644104,0.4321709
		c-0.5677528,0-1.1173401-0.2039299-1.541111-0.5685196l-4.7912998-4.3687906
		c-0.0572662-0.0522156-0.1296959-0.0783215-0.2021351-0.0783215c-0.0724411,0-0.1448917,0.0261154-0.2021561,0.0783405
		l-4.7813396,4.3607817C25.5861301,17.8203144,25.0364285,18.0243034,24.4683895,18.0243034 M45.4026337,7.9999995
		c-0.946003-0.0000229-1.8198547,0.5599437-2.2036018,1.4501643c-0.4344521,1.0083199-0.128891,2.1827583,0.7419281,2.8522987
		L38.125,16.5415344c-0.1809044,0.1192036-0.3880463,0.1783524-0.5946655,0.1783524
		c-0.2337608,0-0.4668617-0.0756893-0.6606636-0.2257538l-4.5098419-4.1086206
		c0.8661194-0.5958786,1.2435989-1.6853905,0.9320602-2.6887703c-0.3121796-1.0041199-1.2406082-1.6879807-2.29216-1.6879807
		c-1.0511189,0-1.9801903,0.6838608-2.291729,1.6879807c-0.3119602,1.0033798,0.0655098,2.0928917,0.9316292,2.6887703
		l-4.5096493,4.1116705c-0.1941319,0.1498661-0.4273605,0.2255936-0.6610622,0.2255936
		c-0.2064095,0-0.4131756-0.0590305-0.5938778-0.1781921l-5.8167305-4.2393026
		c0.8722191-0.6674271,1.1796188-1.841629,0.7462196-2.8508873c-0.3826103-0.8917084-1.2574043-1.4534874-2.2043419-1.4534874
		c-0.124588,0-0.2503033,0.0097084-0.3764381,0.0296745c-1.0848303,0.17173-1.9148102,1.0573502-2.0150099,2.1510811
		c-0.0999699,1.0932503,0.5547304,2.1156616,1.5907497,2.4813995v6.0487814
		c0.0866508,1.1909142,1.0798731,2.1010284,2.2581072,2.1010284c0.0470409,0,0.0941582-0.001442,0.1417427-0.0043774h25.6009998
		c0.0475044,0.0029316,0.0947685,0.0043774,0.1417274,0.0043774c1.1781921,0,2.1709785-0.910038,2.258194-2.1010284v-6.0487814
		c1.0357513-0.3647995,1.6923294-1.3858109,1.5935402-2.4790497c-0.0988007-1.0937386-0.9273605-1.9807587-2.0117722-2.1539001
		C45.6549683,8.00986,45.5281372,8.0000029,45.4026337,7.9999995L45.4026337,7.9999995z M45.40028,11.210391
		c-0.4419098,0-0.7999687-0.3579865-0.7999687-0.7997589c0-0.4417496,0.3580589-0.7997589,0.7999687-0.7997589
		c0.4419212,0,0.7999802,0.3580093,0.7999802,0.7997589C46.2002602,10.8524046,45.8422012,11.210391,45.40028,11.210391
		L45.40028,11.210391z M30.9997292,11.210391c-0.4417,0-0.7999687-0.3579865-0.7999687-0.7997589
		c0-0.4417496,0.3582687-0.7997589,0.7999687-0.7997589c0.442131,0,0.80019,0.3580093,0.80019,0.7997589
		C31.7999191,10.8524046,31.4418602,11.210391,30.9997292,11.210391L30.9997292,11.210391z M16.5994396,11.210391
		c-0.4418602,0-0.7999506-0.3579865-0.7999506-0.7997589c0-0.4417496,0.3580904-0.7997589,0.7999506-0.7997589
		c0.4418697,0,0.7999496,0.3580093,0.7999496,0.7997589C17.3993893,10.8524046,17.0413094,11.210391,16.5994396,11.210391
		L16.5994396,11.210391z M24.4683914,18.3243046c0.6235752,0,1.2449265-0.2176113,1.7436085-0.6470604l4.7877293-4.3664408
		l4.7913017,4.3687906c0.4987144,0.4292717,1.1198959,0.646843,1.7432365,0.646843
		c0.5362892,0,1.0741692-0.1610336,1.5370827-0.4868431l5.5289612-4.0375319v4.9097815
		c0,0.2348404-0.3426895,0.4969006-0.7999725,0.4969006H18.1993389c-0.4575787,0-0.7999496-0.2620602-0.7999496-0.4969006V13.802062
		l5.5318508,4.0354223C23.3940163,18.16325,23.9320374,18.3243046,24.4683914,18.3243046L24.4683914,18.3243046z"/>
</g>
<g>
	<path class="st3" d="M30.9287968,55.7000237c-0.0405273-0.0009766-0.0810547-0.0078125-0.1230469-0.0185547
		c-0.5639648-0.0625-1.0454102-0.3027344-1.4008789-0.6835938L7.8628793,31.4583244
		c-0.1835938-0.203125-0.3251953-0.4389648-0.4194336-0.6992188c-0.1054688-0.1611328-0.1396484-0.2578125-0.1425781-0.3598633
		c0.0112305-0.0390625,0.0234375-0.0878906,0.0185547-0.128418c-0.0200195-0.1557617-0.0219727-0.3139648-0.0068359-0.4702148
		c0.0634766-0.6049805,0.3833008-1.1572266,0.8784175-1.5126953l7.1801758-5.1728516
		c0.0585938,0,0.0478516-0.0234375,0.0966797-0.0556641c0.3491211-0.2280273,0.7539063-0.3496094,1.1708984-0.3510742H45.366787
		c0.4580078,0,0.8945313,0.1411133,1.265625,0.4082031l7.1787109,5.1713867
		c0.4951172,0.3544922,0.8154297,0.9052734,0.8779297,1.5107422c0.0634766,0.6054688-0.1357422,1.2099609-0.5478516,1.6591797
		L32.597744,54.993969c-0.4067383,0.4443359-0.9853535,0.7001953-1.5878925,0.7021484
		C30.9976444,55.6961174,30.960535,55.697094,30.9287968,55.7000237z M38.7320213,30.9070549
		c-0.1337891,0-0.2509766,0.0878906-0.2880859,0.2163086L31.9942265,53.337719
		c-0.0390625,0.1337891,0.0195332,0.2773438,0.1411152,0.3457031c0.0458984,0.0253906,0.0966797,0.0380859,0.1469727,0.0380859
		c0.0820313,0,0.1630859-0.0332031,0.2211914-0.0976563l20.3291016-22.2143555
		c0.0800781-0.0878906,0.1005859-0.2148438,0.0527344-0.3237305s-0.1552734-0.1787109-0.2744141-0.1787109H38.7320213z
		 M9.3931522,30.9070549c-0.1191406,0-0.2265625,0.0698242-0.2744141,0.1787109s-0.0273438,0.2358398,0.0532227,0.3237305
		l20.2255859,22.1010742c0.0581055,0.0644531,0.1391602,0.0976563,0.2211914,0.0976563
		c0.050293,0,0.1005859-0.0126953,0.1469727-0.0380859c0.121582-0.0683594,0.1801758-0.2119141,0.1411133-0.3457031
		l-6.4174805-22.1010742c-0.0371094-0.128418-0.1547852-0.2163086-0.2880859-0.2163086H9.3931522z M24.8672733,30.9070549
		c-0.0942383,0-0.1831055,0.0444336-0.2397461,0.1196289c-0.0566406,0.0756836-0.074707,0.1733398-0.0483398,0.2636719
		l6.0996094,21.0043945c0.0371094,0.1279297,0.1547852,0.2158203,0.2880859,0.2158203s0.2509766-0.0878906,0.2880859-0.2158203
		l6.099123-21.0043945c0.0263672-0.090332,0.0087891-0.1879883-0.0478516-0.2636719
		c-0.0566406-0.0751953-0.1455078-0.1196289-0.2402344-0.1196289H24.8672733z M46.3413963,24.209301
		c-0.0693359,0-0.1376953,0.0234375-0.1933594,0.0708008l-6.0263672,5.0981445
		c-0.0966797,0.0810547-0.1318359,0.2138672-0.0878906,0.3320313c0.0429688,0.1181641,0.1552734,0.1967773,0.28125,0.1967773
		h12.9785156c0.1064453,0,0.2050781-0.0566406,0.2587891-0.1489258s0.0546875-0.2060547,0.0019531-0.2988281
		c-0.0800781-0.1420898-0.1933594-0.2670898-0.328125-0.3618164l-6.7089844-4.8320313
		C46.4644432,24.2278557,46.4029198,24.209301,46.3413963,24.209301z M31.002039,24.0427971
		c-0.0795898,0-0.1557617,0.03125-0.2119141,0.0874023l-5.2666016,5.2646484
		c-0.0859375,0.0859375-0.1118164,0.2148438-0.0654297,0.3271484s0.1557617,0.1850586,0.2773438,0.1850586h10.4799824
		c0.1210938,0,0.2304688-0.0727539,0.2773438-0.184082c0.0458984-0.1118164,0.0214844-0.2407227-0.0644531-0.3266602
		l-5.2128925-5.2646484c-0.0561523-0.0566406-0.1328125-0.0888672-0.2124023-0.0888672
		C31.0025272,24.0427971,31.0025272,24.0427971,31.002039,24.0427971z M15.6241093,24.2361565
		c-0.0615234,0-0.1225586,0.0185547-0.175293,0.0561523l-6.6728516,4.8061523
		c-0.1347656,0.0961914-0.2446289,0.2182617-0.3251953,0.3618164c-0.0527344,0.0927734-0.0517578,0.206543,0.0024414,0.2983398
		c0.0537109,0.0922852,0.1523438,0.1484375,0.2587891,0.1484375h12.9057617c0.1259766,0,0.2382813-0.0786133,0.2817383-0.1967773
		s0.0083008-0.2504883-0.0878906-0.3320313l-5.9936523-5.0712891C15.7622929,24.259594,15.6934452,24.2361565,15.6241093,24.2361565
		z M17.4766483,23.7083244c-0.1259766,0-0.2382813,0.0786133-0.2817383,0.1967773s-0.0083008,0.2509766,0.0878906,0.3320313
		l6.2832031,5.3125c0.0561523,0.0473633,0.125,0.0708008,0.1938477,0.0708008c0.0771484,0,0.1538086-0.0292969,0.2119141-0.0878906
		l5.3129883-5.3125c0.0859375-0.0854492,0.1118164-0.2148438,0.0654297-0.3266602
		c-0.0463867-0.1123047-0.15625-0.1850586-0.2773438-0.1850586H17.4766483z M32.9219627,23.7083244
		c-0.1210938,0-0.2304688,0.0727539-0.2768555,0.184082c-0.046875,0.1118164-0.0214844,0.2407227,0.0634766,0.3266602
		l5.2578125,5.3100586c0.0585938,0.059082,0.1357422,0.0888672,0.2128906,0.0888672
		c0.0683594,0,0.1376953-0.0234375,0.1933594-0.0708008l6.2763672-5.3100586
		c0.0966797-0.0810547,0.1318359-0.2138672,0.0878906-0.3320313c-0.0429688-0.1181641-0.1552734-0.1967773-0.28125-0.1967773
		H32.9219627z"/>
	<path class="st4" d="M45.3687401,23.0083466c0.3923111,0,0.7682724,0.1215401,1.0874596,0.3516197l7.181221,5.1718407
		c0.4248619,0.3048,0.6996803,0.7779293,0.753933,1.2976494c0.0539703,0.5205898-0.1176796,1.0402012-0.4712105,1.4259109
		L32.3766327,54.7912064c-0.3507423,0.3827209-0.8491821,0.6031418-1.3656521,0.6047401h-0.0503502
		c-0.0143108,0-0.0304356,0.0007706-0.0471153,0.0021362c-0.0084839-0.0011902-0.0168705-0.0029221-0.0251045-0.005188
		c-0.0318604-0.0087585-0.0643787-0.0148773-0.0972404-0.01828c-0.4463482-0.046257-0.8606682-0.2528191-1.163269-0.57798
		L8.0869102,31.2590866c-0.1589694-0.1761093-0.2806296-0.3787403-0.3615794-0.6022701
		c-0.0208197-0.0575104-0.0503197-0.1114998-0.0874701-0.1600895c-0.0139647-0.0182648-0.024148-0.0387344-0.0302496-0.0605526
		c0.0143595-0.0660038,0.0174952-0.1340351,0.0091801-0.2012272c-0.01682-0.1360397-0.0187206-0.2722397-0.0060101-0.4012012
		c0.0546694-0.5215988,0.33002-0.9963188,0.7557492-1.302639l7.1822605-5.1728706
		c0.0068598-0.0039082,0.01371-0.0078449,0.0205402-0.0118294c0.0216656-0.0106888,0.0427437-0.0227165,0.0630999-0.0360394
		c0.3002701-0.1965313,0.6484699-0.3009605,1.005209-0.302021h28.7288723H45.3687401 M38.1792793,29.9183121
		c0.1373215,0,0.2750893-0.0469379,0.3873711-0.1419258l6.2768707-5.3099689
		c0.1922417-0.1626301,0.2624893-0.4279804,0.1758919-0.6644211c-0.0865898-0.2364388-0.3115997-0.3936596-0.5634003-0.3936596
		H32.9220428c-0.2421303,0-0.4605331,0.1455402-0.5537529,0.3689995c-0.0932198,0.2234707-0.0429878,0.4810715,0.1273727,0.653141
		l5.2570992,5.3099689C37.8696289,29.8584862,38.0241776,29.9183121,38.1792793,29.9183121 M23.7596455,29.92066
		c0.1540813,0,0.3077145-0.059082,0.4243546-0.175703l5.3132706-5.3123207
		c0.1716213-0.1715889,0.222971-0.4296684,0.1301098-0.6538887c-0.0928593-0.2242107-0.3116493-0.3704109-0.5543385-0.3704109
		H17.4767914c-0.2518311,0-0.47686,0.1572514-0.5634308,0.3937302c-0.0865688,0.2364807-0.0162697,0.5018501,0.1760406,0.6644497
		l6.28298,5.3123207C23.4846382,29.8737507,23.6223183,29.92066,23.7596455,29.92066 M25.7353516,30.2071571h10.4804611
		c0.2421494,0,0.4605598-0.1455498,0.5537682-0.3690414c0.0932121-0.2234898,0.042942-0.4810982-0.127449-0.6531582
		l-5.2137909-5.26474c-0.1123104-0.1134109-0.2651901-0.1774006-0.4248104-0.1778011
		c-0.0005054,0-0.0009995-0.0000019-0.0015049-0.0000019c-0.1590633,0.0000038-0.3116627,0.0631714-0.4241943,0.175663
		l-5.2666702,5.26474c-0.1716404,0.1715794-0.223011,0.4296684-0.1301594,0.6538982
		C25.2738609,30.0609474,25.492651,30.2071571,25.7353516,30.2071571 M40.3151016,30.2071571h12.9783592
		c0.213871,0,0.4115715-0.1138401,0.5189323-0.298811c0.1073608-0.1849689,0.108139-0.4131088,0.0020485-0.5988102
		c-0.1041374-0.1822987-0.24366-0.3360996-0.4106178-0.4542294l-6.7115211-4.83321
		c-0.1050529-0.0756512-0.2279434-0.1131191-0.3505592-0.1131134c-0.1382523,0.0000057-0.2761459,0.0476532-0.3875809,0.1419239
		l-6.0265694,5.0981693c-0.1922417,0.1626301-0.2624931,0.4279804-0.1758919,0.6644192
		C39.8382912,30.0499363,40.0633011,30.2071571,40.3151016,30.2071571 M8.7120504,30.2071571h12.9057512
		c0.2517891,0,0.476799-0.1572113,0.5633984-0.3936501c0.0866013-0.2364311,0.0163612-0.5017796-0.175869-0.6644096
		l-5.9938793-5.0709705c-0.1114559-0.0942974-0.2493191-0.1419487-0.387598-0.1419411
		c-0.1226101,0.0000076-0.245554,0.0374851-0.3505926,0.113142l-6.67068,4.8045197
		c-0.1718206,0.1226482-0.3108702,0.27701-0.4132805,0.4588089c-0.10466,0.1857796-0.1028605,0.4131393,0.0047302,0.5972404
		C8.3016109,30.0939865,8.4988203,30.2071571,8.7120504,30.2071571 M32.2818565,54.0212593
		c0.1641235,0,0.3260422-0.0672836,0.4428864-0.1949615l20.3285408-22.2145119
		c0.1605682-0.1754684,0.2023277-0.4292202,0.1064682-0.6468887c-0.095871-0.2176704-0.3112602-0.3581715-0.5491104-0.3581715
		H38.7320213c-0.2669411,0-0.50177,0.1763515-0.5761986,0.4327011l-6.4499226,22.21451
		c-0.0777493,0.2677803,0.0392303,0.5538406,0.2823315,0.6904106C32.080452,53.996151,32.1815491,54.0212593,32.2818565,54.0212593
		 M30.9668217,52.8105774c0.2669296,0,0.5017586-0.1763496,0.576189-0.4326897l6.0988998-21.0038509
		c0.0526314-0.1812401,0.0169106-0.3766804-0.0964203-0.5275993c-0.1133194-0.1509113-0.29105-0.2397118-0.4797783-0.2397118
		H24.8673611c-0.1887302,0-0.3664608,0.0888004-0.4797897,0.2397213c-0.1133308,0.150919-0.1490402,0.3463593-0.0964108,0.5276089
		l6.0994511,21.0038509C30.4650517,52.6342468,30.6998901,52.8105774,30.9668217,52.8105774 M29.618906,53.9079781
		c0.1002903,0,0.2014294-0.0251198,0.2936344-0.0769234c0.2431011-0.13657,0.3600807-0.4226265,0.28232-0.6904068
		l-6.4173889-22.1012306c-0.0744305-0.25634-0.3092709-0.4326916-0.5762005-0.4326916H9.3932505
		c-0.2378502,0-0.4532394,0.140501-0.5491095,0.3581715c-0.0958605,0.21768-0.0541,0.4714298,0.1064796,0.6468887
		l20.2254105,22.1012306C29.2928829,53.8407059,29.4547672,53.9079781,29.618906,53.9079781 M45.3687439,22.4083462
		c-0.0007591,0-0.0014763,0-0.0022316,0H16.63764c-0.4737797,0.0014-0.9369888,0.1402817-1.3337889,0.3999901h-0.0047007
		c-0.0338001,0.0227413-0.0703897,0.0394115-0.1032495,0.0631104l-7.18009,5.1728401
		c-0.5648198,0.4064007-0.9292502,1.0350895-1.00176,1.7269192c-0.0176001,0.1783504-0.01478,0.3590412,0.0072803,0.5373898
		c-0.0089207,0.0322113-0.0157204,0.0652809-0.0201807,0.098341c0.00422,0.1646996,0.06007,0.3234196,0.1600409,0.4541893
		c0.1067696,0.2948208,0.2698498,0.5668201,0.48034,0.8000011l21.5437508,23.5405903
		c0.4045696,0.4347687,0.9531784,0.7084694,1.5440388,0.7696991c0.0659313,0.0181313,0.133791,0.027729,0.2025013,0.0285797
		c0.0093899,0,0.0181389-0.0040512,0.0288086-0.0040512h0.0503502c0.6879501-0.0021286,1.343462-0.2924767,1.8079891-0.7993584
		l21.5437546-23.5361004c0.4698677-0.51264,0.6971283-1.2012806,0.6254272-1.8929005
		c-0.0721283-0.6909885-0.4365883-1.3183994-1.0009804-1.723299l-7.1803284-5.1711998
		C46.3879471,22.5711308,45.884758,22.4083462,45.3687439,22.4083462L45.3687439,22.4083462z M38.179142,29.318306
		l-5.2570992-5.3099689h11.5339699L38.179142,29.318306L38.179142,29.318306z M23.7597713,29.3206558l-6.28298-5.3123188h11.5962505
		L23.7597713,29.3206558L23.7597713,29.3206558z M25.7353516,29.6071568l5.2666702-5.26474l5.2137909,5.26474H25.7353516
		L25.7353516,29.6071568z M40.3151016,29.6071568l6.0265694-5.0981693l6.7115211,4.83321
		c0.0985794,0.0697594,0.1803093,0.1599998,0.2402687,0.2649593H40.3151016L40.3151016,29.6071568z M8.7120504,29.6071568
		c0.0591297-0.1049595,0.14079-0.1947708,0.2391205-0.2649593l6.6727495-4.8060112l5.9938812,5.0709705H8.7120504
		L8.7120504,29.6071568z M32.2821007,53.4212379l6.4499207-22.2145119h13.8786201L32.2821007,53.4212379L32.2821007,53.4212379z
		 M30.9668102,52.2105751l-6.0994492-21.003849H37.065712L30.9668102,52.2105751L30.9668102,52.2105751z M29.6186619,53.3079567
		L9.3932505,31.2067261h13.8080206L29.6186619,53.3079567L29.6186619,53.3079567z"/>
	<path class="st5" d="M45.3687401,22.7083473c0.4556732,0,0.8922997,0.141119,1.2627831,0.4081802l7.1807709,5.1715202
		c0.4944572,0.3547287,0.8142891,0.9053593,0.8774567,1.510479c0.0628128,0.6058598-0.1369972,1.21064-0.548317,1.659399
		L32.5978012,54.9938965c-0.4071808,0.4443016-0.9858894,0.7001915-1.5868206,0.7020493h-0.0503502
		c-0.0116234,0-0.0283718,0.0014229-0.0445023,0.0034332c-0.0372887-0.002018-0.0795383-0.0089684-0.1558876-0.0263634
		c-0.5185604-0.0537376-0.9998989-0.2936974-1.3536491-0.6738396L7.8642211,31.4601059
		c-0.1850996-0.2050495-0.3267298-0.4409485-0.4209604-0.7011299c-0.0104094-0.028759-0.0251598-0.0557499-0.0437393-0.0800495
		c-0.0618-0.0808506-0.09585-0.1775608-0.1010599-0.2318802c0.0026398-0.0196304,0.00669-0.039259,0.0119896-0.0583801
		c0.0105305-0.0380192,0.0134497-0.0777397,0.0086098-0.1168995c-0.0195398-0.1580009-0.0217199-0.3164997-0.0066395-0.4692898
		c0.06357-0.6065807,0.38381-1.158659,0.8787494-1.51478l7.2091398-5.1901398
		c0.0094309-0.0053711,0.0188446-0.010788,0.0281973-0.016346c0.0136871-0.0062542,0.0269394-0.0135536,0.0396328-0.0218639
		c0.3489599-0.2283897,0.7536707-0.3497696,1.1694994-0.3509998h28.7288723H45.3687401 M38.1792068,29.618309
		c0.0686722,0,0.1375465-0.0234661,0.1936951-0.0709629l6.2768707-5.3099689
		c0.0961189-0.0813103,0.131237-0.2139893,0.0879402-0.3322105c-0.0433006-0.1182194-0.1557999-0.1968288-0.2817001-0.1968288
		H32.9220428c-0.1210709,0-0.2302704,0.0727692-0.2768822,0.1844997c-0.046608,0.1117401-0.0214882,0.24053,0.0636902,0.3265686
		L37.96595,29.529377C38.0243797,29.5883923,38.1016655,29.618309,38.1792068,29.618309 M23.7597065,29.620657
		c0.0770416,0,0.1538544-0.029541,0.2121754-0.0878506l5.3132687-5.3123188
		c0.0858097-0.0857906,0.1114902-0.2148304,0.0650597-0.3269405c-0.0464287-0.1121101-0.1558285-0.1852093-0.2771683-0.1852093
		H17.4767914c-0.1259098,0-0.23843,0.0786285-0.2817097,0.1968689c-0.0432911,0.1182308-0.0081406,0.2509212,0.0880089,0.3322201
		l6.28298,5.3123207C23.6222019,29.5972023,23.6910439,29.620657,23.7597065,29.620657 M25.7353516,29.907156h10.4804611
		c0.121067,0,0.230278-0.0727787,0.2768784-0.1845188c0.0466118-0.1117496,0.0214806-0.240551-0.0637207-0.32658l-5.213789-5.26474
		c-0.05616-0.0566998-0.1326008-0.0886993-0.2124004-0.0888996c-0.0002537-0.0000019-0.0004997-0.0000019-0.0007534-0.0000019
		c-0.0795364,0.0000019-0.1558361,0.0315914-0.2120972,0.0878315l-5.2666702,5.26474
		c-0.0858288,0.0857887-0.1115093,0.2148304-0.0650787,0.3269501C25.5046005,29.8340569,25.6140003,29.907156,25.7353516,29.907156
		 M40.3151016,29.907156h12.9783592c0.1069298,0,0.20578-0.0569191,0.2594604-0.1494102
		c0.0536804-0.0924797,0.0540695-0.2065487,0.00103-0.2993984c-0.0822678-0.1440201-0.1924477-0.2654915-0.3254471-0.3595905
		l-6.7115211-4.83321c-0.0525246-0.0378284-0.1139717-0.0565624-0.1752777-0.0565605
		c-0.0691261,0.0000019-0.138073,0.0238247-0.1937943,0.070961l-6.0265694,5.0981693
		c-0.0961113,0.0813103-0.1312408,0.2139893-0.0879402,0.3322105C40.0767021,29.8285465,40.1892014,29.907156,40.3151016,29.907156
		 M8.7120504,29.907156h12.9057512c0.1258984,0,0.2383995-0.0786095,0.2817001-0.1968193
		c0.0432987-0.1182194,0.0081787-0.2509003-0.0879307-0.3322105l-5.9938803-5.0709686
		c-0.0557327-0.0471458-0.1246691-0.0709724-0.1938076-0.0709686c-0.061305,0.0000019-0.1227732,0.0187397-0.175292,0.0565681
		l-6.6717205,4.8052692c-0.1357698,0.0969105-0.2455206,0.2186699-0.3262005,0.3618793
		c-0.05233,0.0928917-0.0514297,0.2065716,0.0023699,0.2986202C8.5068302,29.8505764,8.6054401,29.907156,8.7120504,29.907156
		 M32.2819824,53.7212448c0.0820618,0,0.1630211-0.0336418,0.2214394-0.097477L52.8319626,31.409256
		c0.0802803-0.0877285,0.1011696-0.2146091,0.0532303-0.3234501c-0.0479317-0.1088295-0.155632-0.1790791-0.2745514-0.1790791
		H38.7320213c-0.1334686,0-0.2508888,0.0881805-0.2881012,0.2163506l-6.4499187,22.2145081
		c-0.0388813,0.1338921,0.0196095,0.2769203,0.1411686,0.3451996
		C32.1812782,53.7086906,32.2318306,53.7212448,32.2819824,53.7212448 M30.9668102,52.5105782
		c0.1334705,0,0.2508812-0.0881729,0.2881012-0.2163429l6.0989017-21.003849
		c0.02631-0.0906296,0.0084572-0.1883488-0.0482101-0.2637997c-0.0566597-0.0754604-0.1455307-0.1198597-0.2398911-0.1198597
		H24.8673611c-0.0943699,0-0.1832294,0.0443993-0.2398911,0.1198597c-0.0566692,0.0754604-0.0745182,0.1731796-0.0482082,0.2637997
		l6.0994492,21.003849C30.7159309,52.4224052,30.8333511,52.5105782,30.9668102,52.5105782 M29.6187763,53.6079674
		c0.0501461,0,0.1007195-0.0125618,0.1468239-0.0384598c0.1215515-0.0682907,0.1800404-0.2113113,0.141161-0.3451996
		l-6.4173908-22.1012306c-0.03722-0.1281815-0.1546288-0.2163506-0.2880993-0.2163506H9.3932505
		c-0.1189203,0-0.2266197,0.0702496-0.2745495,0.1790905c-0.0479403,0.1088295-0.02705,0.2357101,0.0532293,0.3234386
		l20.2254105,22.1012306C29.4557705,53.5743332,29.5367069,53.6079674,29.6187763,53.6079674 M45.3687439,22.4083462
		c-0.0007591,0-0.0014763,0-0.0022316,0H16.63764c-0.4737797,0.0014-0.9369888,0.1402817-1.3337889,0.3999901h-0.0047007
		c-0.0338001,0.0227413-0.0703897,0.0394115-0.1032495,0.0631104l-7.18009,5.1728401
		c-0.5648198,0.4064007-0.9292502,1.0350895-1.00176,1.7269192c-0.0176001,0.1783504-0.01478,0.3590412,0.0072803,0.5373898
		c-0.0089207,0.0322113-0.0157204,0.0652809-0.0201807,0.098341c0.00422,0.1646996,0.06007,0.3234196,0.1600409,0.4541893
		c0.1067696,0.2948208,0.2698498,0.5668201,0.48034,0.8000011l21.5437508,23.5405903
		c0.4045696,0.4347687,0.9531784,0.7084694,1.5440388,0.7696991c0.0659313,0.0181313,0.133791,0.027729,0.2025013,0.0285797
		c0.0093899,0,0.0181389-0.0040512,0.0288086-0.0040512h0.0503502c0.6879501-0.0021286,1.343462-0.2924767,1.8079891-0.7993584
		l21.5437546-23.5361004c0.4698677-0.51264,0.6971283-1.2012806,0.6254272-1.8929005
		c-0.0721283-0.6909885-0.4365883-1.3183994-1.0009804-1.723299l-7.1803284-5.1711998
		C46.3879471,22.5711308,45.884758,22.4083462,45.3687439,22.4083462L45.3687439,22.4083462z M38.179142,29.318306
		l-5.2570992-5.3099689h11.5339699L38.179142,29.318306L38.179142,29.318306z M23.7597713,29.3206558l-6.28298-5.3123188h11.5962505
		L23.7597713,29.3206558L23.7597713,29.3206558z M25.7353516,29.6071568l5.2666702-5.26474l5.2137909,5.26474H25.7353516
		L25.7353516,29.6071568z M40.3151016,29.6071568l6.0265694-5.0981693l6.7115211,4.83321
		c0.0985794,0.0697594,0.1803093,0.1599998,0.2402687,0.2649593H40.3151016L40.3151016,29.6071568z M8.7120504,29.6071568
		c0.0591297-0.1049595,0.14079-0.1947708,0.2391205-0.2649593l6.6727495-4.8060112l5.9938812,5.0709705H8.7120504
		L8.7120504,29.6071568z M32.2821007,53.4212379l6.4499207-22.2145119h13.8786201L32.2821007,53.4212379L32.2821007,53.4212379z
		 M30.9668102,52.2105751l-6.0994492-21.003849H37.065712L30.9668102,52.2105751L30.9668102,52.2105751z M29.6186619,53.3079567
		L9.3932505,31.2067261h13.8080206L29.6186619,53.3079567L29.6186619,53.3079567z"/>
</g>
</svg>
