<svg width="37" height="41" viewBox="0 0 37 41" fill="none" xmlns="http://www.w3.org/2000/svg">
<g clip-path="url(#clip0)">
<mask id="path-1-inside-1" fill="white">
<path d="M2.19573 22.4879L0.398854 24.4644C0.234791 24.6441 0.180104 24.8941 0.258229 25.1285C0.336354 25.3629 0.531666 25.5269 0.773854 25.5738C1.57854 25.7066 2.39104 25.7691 3.20354 25.7613C4.64104 25.7769 6.07854 25.5582 7.44573 25.1051C7.32854 25.7769 7.56292 26.4644 8.07073 26.9254L10.5395 29.1676C10.8051 29.4019 11.1489 29.5269 11.5004 29.5113C11.852 29.4957 12.1879 29.3394 12.4223 29.0738L12.6645 28.8082V38.5504C12.6645 39.6519 13.5629 40.5504 14.6645 40.5504H34.6645C35.766 40.5504 36.6645 39.6519 36.6645 38.5504V21.8785C36.6645 21.1441 36.0707 20.5426 35.3285 20.5426H20.1645L27.6645 12.2847C28.1567 11.7379 28.1176 10.8941 27.5707 10.4019L25.102 8.15975C24.5942 7.69881 23.8832 7.53475 23.2192 7.72225C23.6723 5.51131 23.6098 3.22225 23.0395 1.03475C22.977 0.800375 22.7895 0.620688 22.5473 0.566C22.3129 0.511313 22.0629 0.589438 21.8989 0.769125L20.102 2.74569L18.1254 0.948813C17.9379 0.78475 17.6801 0.730063 17.4457 0.816C17.2114 0.901938 17.0473 1.11287 17.016 1.36287L16.6254 4.68319C15.3832 4.55819 14.1254 4.691 12.9457 5.08162C12.5629 5.20662 12.227 5.441 11.977 5.74569C10.4301 7.70662 10.1176 10.3707 11.1645 12.6363C8.8051 11.816 6.18792 12.3785 4.38323 14.1129C4.10198 14.3941 3.89885 14.7535 3.81292 15.1363C3.53167 16.3551 3.52385 17.6207 3.76604 18.8394L0.500416 19.5504C0.258229 19.6051 0.0629161 19.7847 0.000416126 20.0269C-0.0620839 20.2691 0.00822862 20.5269 0.195729 20.691L2.19573 22.4879ZM11.4379 28.1754L8.96917 25.9332C8.83635 25.816 8.75823 25.6519 8.75042 25.4722C8.7426 25.2926 8.8051 25.1207 8.92229 24.9879L10.7114 23.0191L12.9535 20.5504L15.9145 23.2379L11.4379 28.1754ZM12.8207 17.7222C12.4301 17.3629 12.1957 16.8707 12.1645 16.3394C12.1332 15.8082 12.3207 15.2926 12.6801 14.9019L13.5785 13.9176C13.9379 13.5269 14.4301 13.2926 14.9614 13.2613C15.4926 13.2379 16.0082 13.4176 16.3989 13.7769L16.891 14.2222L13.3051 18.1754L12.8207 17.7222ZM10.8442 16.4566C10.852 16.5972 10.8754 16.7301 10.9067 16.8629C9.90667 17.0269 8.88323 16.9176 7.93792 16.5504C8.8676 16.2144 9.89104 16.1832 10.8442 16.4566ZM15.3598 11.9488C15.2192 11.9332 15.0785 11.9254 14.9457 11.9254C14.5864 11.0035 14.5239 9.98787 14.766 9.02694C15.227 9.92537 15.4301 10.941 15.3598 11.9488ZM16.8129 22.2457L13.852 19.5582L18.3285 14.6207L21.2895 17.3082L16.8129 22.2457ZM35.3364 38.5504C35.3364 38.9176 35.0395 39.2144 34.6723 39.2144H28.0082V21.8785H35.3442V38.5504H35.3364ZM26.6723 21.8785V39.2144H22.6723V21.8785H26.6723ZM21.3364 21.8785V39.2144H14.6723C14.3051 39.2144 14.0082 38.9176 14.0082 38.5504V27.3316L18.9614 21.8785H21.3364ZM23.2582 9.19881C23.5082 8.92537 23.9223 8.90194 24.1957 9.15194L26.6645 11.3941L22.1879 16.3238L19.227 13.6363L21.4692 11.1676L23.2582 9.19881ZM18.2035 2.80819L19.7114 4.17538C19.8442 4.29256 20.016 4.35506 20.1879 4.34725C20.3598 4.33944 20.5317 4.26131 20.6489 4.1285L22.0082 2.6285C22.2895 4.42537 22.4926 7.77694 20.6723 10.0269C20.6645 9.01131 20.516 8.01131 20.2426 7.03475C20.016 6.23787 19.4535 5.58162 18.6957 5.23787C18.4535 5.1285 18.2035 5.03475 17.9457 4.95663L18.2035 2.80819ZM13.0395 6.58162C13.1332 6.47225 13.2504 6.39412 13.3832 6.34725C14.9301 5.80037 16.6254 5.83944 18.1489 6.45662C18.5473 6.63631 18.8442 6.98006 18.9614 7.39412C19.4145 8.82381 19.4535 10.3551 19.0785 11.8082L17.7895 13.2301L17.2973 12.7848C17.102 12.6129 16.891 12.4644 16.6567 12.3394C16.8364 10.6441 16.3989 8.93319 15.4301 7.52694C15.266 7.26912 14.977 7.1285 14.6801 7.14412C14.352 7.15975 14.0551 7.34725 13.8989 7.64412C13.1645 9.066 13.0707 10.7379 13.641 12.2301C13.3129 12.3941 13.0082 12.6051 12.7504 12.8629C12.0864 11.6598 11.0864 9.02694 13.0395 6.58162ZM5.13323 15.4332C5.16448 15.2926 5.22698 15.1676 5.32854 15.066C7.57854 12.8863 10.2973 13.6285 11.5707 14.1676C11.3364 14.4566 11.1567 14.7769 11.0239 15.1207C9.47698 14.6988 7.82073 14.9566 6.47698 15.8238C6.20354 16.0113 6.04729 16.316 6.06292 16.6441C6.07854 16.941 6.2426 17.2144 6.50823 17.3551C7.59417 17.941 8.8051 18.2535 10.0317 18.2769C10.5004 18.2769 10.9692 18.2222 11.4223 18.1207C11.5629 18.3394 11.7348 18.5347 11.9301 18.7144L12.4223 19.1597L11.1332 20.5816C9.71917 21.0894 8.19573 21.1988 6.72698 20.8863C6.29729 20.8082 5.9301 20.5426 5.71135 20.1676C4.94573 18.7144 4.7426 17.0347 5.13323 15.4332ZM4.19573 20.1207C4.29729 20.3707 4.41448 20.6051 4.54729 20.8394C4.96135 21.5582 5.66448 22.0582 6.47698 22.2066C7.16448 22.3316 7.85979 22.3941 8.5551 22.3941C8.85979 22.3941 9.1801 22.3785 9.50042 22.3472C7.43792 24.3707 4.08635 24.4957 2.26604 24.3863L3.63323 22.8941C3.75042 22.7613 3.81292 22.5894 3.8051 22.4176C3.79729 22.2379 3.71917 22.0738 3.58635 21.9566L2.07854 20.5894L4.19573 20.1207Z"/>
</mask>
<path d="M2.19573 22.4879L0.398854 24.4644C0.234791 24.6441 0.180104 24.8941 0.258229 25.1285C0.336354 25.3629 0.531666 25.5269 0.773854 25.5738C1.57854 25.7066 2.39104 25.7691 3.20354 25.7613C4.64104 25.7769 6.07854 25.5582 7.44573 25.1051C7.32854 25.7769 7.56292 26.4644 8.07073 26.9254L10.5395 29.1676C10.8051 29.4019 11.1489 29.5269 11.5004 29.5113C11.852 29.4957 12.1879 29.3394 12.4223 29.0738L12.6645 28.8082V38.5504C12.6645 39.6519 13.5629 40.5504 14.6645 40.5504H34.6645C35.766 40.5504 36.6645 39.6519 36.6645 38.5504V21.8785C36.6645 21.1441 36.0707 20.5426 35.3285 20.5426H20.1645L27.6645 12.2847C28.1567 11.7379 28.1176 10.8941 27.5707 10.4019L25.102 8.15975C24.5942 7.69881 23.8832 7.53475 23.2192 7.72225C23.6723 5.51131 23.6098 3.22225 23.0395 1.03475C22.977 0.800375 22.7895 0.620688 22.5473 0.566C22.3129 0.511313 22.0629 0.589438 21.8989 0.769125L20.102 2.74569L18.1254 0.948813C17.9379 0.78475 17.6801 0.730063 17.4457 0.816C17.2114 0.901938 17.0473 1.11287 17.016 1.36287L16.6254 4.68319C15.3832 4.55819 14.1254 4.691 12.9457 5.08162C12.5629 5.20662 12.227 5.441 11.977 5.74569C10.4301 7.70662 10.1176 10.3707 11.1645 12.6363C8.8051 11.816 6.18792 12.3785 4.38323 14.1129C4.10198 14.3941 3.89885 14.7535 3.81292 15.1363C3.53167 16.3551 3.52385 17.6207 3.76604 18.8394L0.500416 19.5504C0.258229 19.6051 0.0629161 19.7847 0.000416126 20.0269C-0.0620839 20.2691 0.00822862 20.5269 0.195729 20.691L2.19573 22.4879ZM11.4379 28.1754L8.96917 25.9332C8.83635 25.816 8.75823 25.6519 8.75042 25.4722C8.7426 25.2926 8.8051 25.1207 8.92229 24.9879L10.7114 23.0191L12.9535 20.5504L15.9145 23.2379L11.4379 28.1754ZM12.8207 17.7222C12.4301 17.3629 12.1957 16.8707 12.1645 16.3394C12.1332 15.8082 12.3207 15.2926 12.6801 14.9019L13.5785 13.9176C13.9379 13.5269 14.4301 13.2926 14.9614 13.2613C15.4926 13.2379 16.0082 13.4176 16.3989 13.7769L16.891 14.2222L13.3051 18.1754L12.8207 17.7222ZM10.8442 16.4566C10.852 16.5972 10.8754 16.7301 10.9067 16.8629C9.90667 17.0269 8.88323 16.9176 7.93792 16.5504C8.8676 16.2144 9.89104 16.1832 10.8442 16.4566ZM15.3598 11.9488C15.2192 11.9332 15.0785 11.9254 14.9457 11.9254C14.5864 11.0035 14.5239 9.98787 14.766 9.02694C15.227 9.92537 15.4301 10.941 15.3598 11.9488ZM16.8129 22.2457L13.852 19.5582L18.3285 14.6207L21.2895 17.3082L16.8129 22.2457ZM35.3364 38.5504C35.3364 38.9176 35.0395 39.2144 34.6723 39.2144H28.0082V21.8785H35.3442V38.5504H35.3364ZM26.6723 21.8785V39.2144H22.6723V21.8785H26.6723ZM21.3364 21.8785V39.2144H14.6723C14.3051 39.2144 14.0082 38.9176 14.0082 38.5504V27.3316L18.9614 21.8785H21.3364ZM23.2582 9.19881C23.5082 8.92537 23.9223 8.90194 24.1957 9.15194L26.6645 11.3941L22.1879 16.3238L19.227 13.6363L21.4692 11.1676L23.2582 9.19881ZM18.2035 2.80819L19.7114 4.17538C19.8442 4.29256 20.016 4.35506 20.1879 4.34725C20.3598 4.33944 20.5317 4.26131 20.6489 4.1285L22.0082 2.6285C22.2895 4.42537 22.4926 7.77694 20.6723 10.0269C20.6645 9.01131 20.516 8.01131 20.2426 7.03475C20.016 6.23787 19.4535 5.58162 18.6957 5.23787C18.4535 5.1285 18.2035 5.03475 17.9457 4.95663L18.2035 2.80819ZM13.0395 6.58162C13.1332 6.47225 13.2504 6.39412 13.3832 6.34725C14.9301 5.80037 16.6254 5.83944 18.1489 6.45662C18.5473 6.63631 18.8442 6.98006 18.9614 7.39412C19.4145 8.82381 19.4535 10.3551 19.0785 11.8082L17.7895 13.2301L17.2973 12.7848C17.102 12.6129 16.891 12.4644 16.6567 12.3394C16.8364 10.6441 16.3989 8.93319 15.4301 7.52694C15.266 7.26912 14.977 7.1285 14.6801 7.14412C14.352 7.15975 14.0551 7.34725 13.8989 7.64412C13.1645 9.066 13.0707 10.7379 13.641 12.2301C13.3129 12.3941 13.0082 12.6051 12.7504 12.8629C12.0864 11.6598 11.0864 9.02694 13.0395 6.58162ZM5.13323 15.4332C5.16448 15.2926 5.22698 15.1676 5.32854 15.066C7.57854 12.8863 10.2973 13.6285 11.5707 14.1676C11.3364 14.4566 11.1567 14.7769 11.0239 15.1207C9.47698 14.6988 7.82073 14.9566 6.47698 15.8238C6.20354 16.0113 6.04729 16.316 6.06292 16.6441C6.07854 16.941 6.2426 17.2144 6.50823 17.3551C7.59417 17.941 8.8051 18.2535 10.0317 18.2769C10.5004 18.2769 10.9692 18.2222 11.4223 18.1207C11.5629 18.3394 11.7348 18.5347 11.9301 18.7144L12.4223 19.1597L11.1332 20.5816C9.71917 21.0894 8.19573 21.1988 6.72698 20.8863C6.29729 20.8082 5.9301 20.5426 5.71135 20.1676C4.94573 18.7144 4.7426 17.0347 5.13323 15.4332ZM4.19573 20.1207C4.29729 20.3707 4.41448 20.6051 4.54729 20.8394C4.96135 21.5582 5.66448 22.0582 6.47698 22.2066C7.16448 22.3316 7.85979 22.3941 8.5551 22.3941C8.85979 22.3941 9.1801 22.3785 9.50042 22.3472C7.43792 24.3707 4.08635 24.4957 2.26604 24.3863L3.63323 22.8941C3.75042 22.7613 3.81292 22.5894 3.8051 22.4176C3.79729 22.2379 3.71917 22.0738 3.58635 21.9566L2.07854 20.5894L4.19573 20.1207Z" fill="#E4FFA3" stroke="#AAFF5C" stroke-width="0.8" mask="url(#path-1-inside-1)"/>
<mask id="path-2-inside-2" fill="white">
<path d="M2.21758 22.4879L0.420704 24.4644C0.256642 24.6441 0.201954 24.8941 0.280079 25.1285C0.358204 25.3629 0.553517 25.5269 0.795704 25.5738C1.60039 25.7066 2.41289 25.7691 3.22539 25.7613C4.66289 25.7769 6.10039 25.5582 7.46758 25.1051C7.35039 25.7769 7.58477 26.4644 8.09258 26.9254L10.5613 29.1676C10.827 29.4019 11.1707 29.5269 11.5223 29.5113C11.8738 29.4957 12.2098 29.3394 12.4441 29.0738L12.6863 28.8082V38.5504C12.6863 39.6519 13.5848 40.5504 14.6863 40.5504H34.6863C35.7879 40.5504 36.6863 39.6519 36.6863 38.5504V21.8785C36.6863 21.1441 36.0926 20.5426 35.3504 20.5426H20.1863L27.6863 12.2847C28.1785 11.7379 28.1395 10.8941 27.5926 10.4019L25.1238 8.15975C24.616 7.69881 23.9051 7.53475 23.241 7.72225C23.6941 5.51131 23.6316 3.22225 23.0613 1.03475C22.9988 0.800375 22.8113 0.620688 22.5691 0.566C22.3348 0.511313 22.0848 0.589438 21.9207 0.769125L20.1238 2.74569L18.1473 0.948813C17.9598 0.78475 17.702 0.730063 17.4676 0.816C17.2332 0.901938 17.0691 1.11287 17.0379 1.36287L16.6473 4.68319C15.4051 4.55819 14.1473 4.691 12.9676 5.08162C12.5848 5.20662 12.2488 5.441 11.9988 5.74569C10.452 7.70662 10.1395 10.3707 11.1863 12.6363C8.82695 11.816 6.20977 12.3785 4.40508 14.1129C4.12383 14.3941 3.9207 14.7535 3.83477 15.1363C3.55352 16.3551 3.5457 17.6207 3.78789 18.8394L0.522267 19.5504C0.280079 19.6051 0.0847667 19.7847 0.0222667 20.0269C-0.0402333 20.2691 0.0300792 20.5269 0.217579 20.691L2.21758 22.4879ZM11.4598 28.1754L8.99102 25.9332C8.8582 25.816 8.78008 25.6519 8.77227 25.4722C8.76445 25.2926 8.82695 25.1207 8.94414 24.9879L10.7332 23.0191L12.9754 20.5504L15.9363 23.2379L11.4598 28.1754ZM12.8426 17.7222C12.452 17.3629 12.2176 16.8707 12.1863 16.3394C12.1551 15.8082 12.3426 15.2926 12.702 14.9019L13.6004 13.9176C13.9598 13.5269 14.452 13.2926 14.9832 13.2613C15.5145 13.2379 16.0301 13.4176 16.4207 13.7769L16.9129 14.2222L13.327 18.1754L12.8426 17.7222ZM10.866 16.4566C10.8738 16.5972 10.8973 16.7301 10.9285 16.8629C9.92852 17.0269 8.90508 16.9176 7.95977 16.5504C8.88945 16.2144 9.91289 16.1832 10.866 16.4566ZM15.3816 11.9488C15.241 11.9332 15.1004 11.9254 14.9676 11.9254C14.6082 11.0035 14.5457 9.98787 14.7879 9.02694C15.2488 9.92537 15.452 10.941 15.3816 11.9488ZM16.8348 22.2457L13.8738 19.5582L18.3504 14.6207L21.3113 17.3082L16.8348 22.2457ZM35.3582 38.5504C35.3582 38.9176 35.0613 39.2144 34.6941 39.2144H28.0301V21.8785H35.366V38.5504H35.3582ZM26.6941 21.8785V39.2144H22.6941V21.8785H26.6941ZM21.3582 21.8785V39.2144H14.6941C14.327 39.2144 14.0301 38.9176 14.0301 38.5504V27.3316L18.9832 21.8785H21.3582ZM23.2801 9.19881C23.5301 8.92537 23.9441 8.90194 24.2176 9.15194L26.6863 11.3941L22.2098 16.3238L19.2488 13.6363L21.491 11.1676L23.2801 9.19881ZM18.2254 2.80819L19.7332 4.17538C19.866 4.29256 20.0379 4.35506 20.2098 4.34725C20.3816 4.33944 20.5535 4.26131 20.6707 4.1285L22.0301 2.6285C22.3113 4.42537 22.5145 7.77694 20.6941 10.0269C20.6863 9.01131 20.5379 8.01131 20.2645 7.03475C20.0379 6.23787 19.4754 5.58162 18.7176 5.23787C18.4754 5.1285 18.2254 5.03475 17.9676 4.95663L18.2254 2.80819ZM13.0613 6.58162C13.1551 6.47225 13.2723 6.39412 13.4051 6.34725C14.952 5.80037 16.6473 5.83944 18.1707 6.45662C18.5691 6.63631 18.866 6.98006 18.9832 7.39412C19.4363 8.82381 19.4754 10.3551 19.1004 11.8082L17.8113 13.2301L17.3191 12.7848C17.1238 12.6129 16.9129 12.4644 16.6785 12.3394C16.8582 10.6441 16.4207 8.93319 15.452 7.52694C15.2879 7.26912 14.9988 7.1285 14.702 7.14412C14.3738 7.15975 14.077 7.34725 13.9207 7.64412C13.1863 9.066 13.0926 10.7379 13.6629 12.2301C13.3348 12.3941 13.0301 12.6051 12.7723 12.8629C12.1082 11.6598 11.1082 9.02694 13.0613 6.58162ZM5.15508 15.4332C5.18633 15.2926 5.24883 15.1676 5.35039 15.066C7.60039 12.8863 10.3191 13.6285 11.5926 14.1676C11.3582 14.4566 11.1785 14.7769 11.0457 15.1207C9.49883 14.6988 7.84258 14.9566 6.49883 15.8238C6.22539 16.0113 6.06914 16.316 6.08477 16.6441C6.10039 16.941 6.26445 17.2144 6.53008 17.3551C7.61602 17.941 8.82695 18.2535 10.0535 18.2769C10.5223 18.2769 10.991 18.2222 11.4441 18.1207C11.5848 18.3394 11.7566 18.5347 11.952 18.7144L12.4441 19.1597L11.1551 20.5816C9.74102 21.0894 8.21758 21.1988 6.74883 20.8863C6.31914 20.8082 5.95195 20.5426 5.7332 20.1676C4.96758 18.7144 4.76445 17.0347 5.15508 15.4332ZM4.21758 20.1207C4.31914 20.3707 4.43633 20.6051 4.56914 20.8394C4.9832 21.5582 5.68633 22.0582 6.49883 22.2066C7.18633 22.3316 7.88164 22.3941 8.57695 22.3941C8.88164 22.3941 9.20195 22.3785 9.52227 22.3472C7.45977 24.3707 4.1082 24.4957 2.28789 24.3863L3.65508 22.8941C3.77227 22.7613 3.83477 22.5894 3.82695 22.4176C3.81914 22.2379 3.74102 22.0738 3.6082 21.9566L2.10039 20.5894L4.21758 20.1207Z"/>
</mask>
<path d="M2.21758 22.4879L0.420704 24.4644C0.256642 24.6441 0.201954 24.8941 0.280079 25.1285C0.358204 25.3629 0.553517 25.5269 0.795704 25.5738C1.60039 25.7066 2.41289 25.7691 3.22539 25.7613C4.66289 25.7769 6.10039 25.5582 7.46758 25.1051C7.35039 25.7769 7.58477 26.4644 8.09258 26.9254L10.5613 29.1676C10.827 29.4019 11.1707 29.5269 11.5223 29.5113C11.8738 29.4957 12.2098 29.3394 12.4441 29.0738L12.6863 28.8082V38.5504C12.6863 39.6519 13.5848 40.5504 14.6863 40.5504H34.6863C35.7879 40.5504 36.6863 39.6519 36.6863 38.5504V21.8785C36.6863 21.1441 36.0926 20.5426 35.3504 20.5426H20.1863L27.6863 12.2847C28.1785 11.7379 28.1395 10.8941 27.5926 10.4019L25.1238 8.15975C24.616 7.69881 23.9051 7.53475 23.241 7.72225C23.6941 5.51131 23.6316 3.22225 23.0613 1.03475C22.9988 0.800375 22.8113 0.620688 22.5691 0.566C22.3348 0.511313 22.0848 0.589438 21.9207 0.769125L20.1238 2.74569L18.1473 0.948813C17.9598 0.78475 17.702 0.730063 17.4676 0.816C17.2332 0.901938 17.0691 1.11287 17.0379 1.36287L16.6473 4.68319C15.4051 4.55819 14.1473 4.691 12.9676 5.08162C12.5848 5.20662 12.2488 5.441 11.9988 5.74569C10.452 7.70662 10.1395 10.3707 11.1863 12.6363C8.82695 11.816 6.20977 12.3785 4.40508 14.1129C4.12383 14.3941 3.9207 14.7535 3.83477 15.1363C3.55352 16.3551 3.5457 17.6207 3.78789 18.8394L0.522267 19.5504C0.280079 19.6051 0.0847667 19.7847 0.0222667 20.0269C-0.0402333 20.2691 0.0300792 20.5269 0.217579 20.691L2.21758 22.4879ZM11.4598 28.1754L8.99102 25.9332C8.8582 25.816 8.78008 25.6519 8.77227 25.4722C8.76445 25.2926 8.82695 25.1207 8.94414 24.9879L10.7332 23.0191L12.9754 20.5504L15.9363 23.2379L11.4598 28.1754ZM12.8426 17.7222C12.452 17.3629 12.2176 16.8707 12.1863 16.3394C12.1551 15.8082 12.3426 15.2926 12.702 14.9019L13.6004 13.9176C13.9598 13.5269 14.452 13.2926 14.9832 13.2613C15.5145 13.2379 16.0301 13.4176 16.4207 13.7769L16.9129 14.2222L13.327 18.1754L12.8426 17.7222ZM10.866 16.4566C10.8738 16.5972 10.8973 16.7301 10.9285 16.8629C9.92852 17.0269 8.90508 16.9176 7.95977 16.5504C8.88945 16.2144 9.91289 16.1832 10.866 16.4566ZM15.3816 11.9488C15.241 11.9332 15.1004 11.9254 14.9676 11.9254C14.6082 11.0035 14.5457 9.98787 14.7879 9.02694C15.2488 9.92537 15.452 10.941 15.3816 11.9488ZM16.8348 22.2457L13.8738 19.5582L18.3504 14.6207L21.3113 17.3082L16.8348 22.2457ZM35.3582 38.5504C35.3582 38.9176 35.0613 39.2144 34.6941 39.2144H28.0301V21.8785H35.366V38.5504H35.3582ZM26.6941 21.8785V39.2144H22.6941V21.8785H26.6941ZM21.3582 21.8785V39.2144H14.6941C14.327 39.2144 14.0301 38.9176 14.0301 38.5504V27.3316L18.9832 21.8785H21.3582ZM23.2801 9.19881C23.5301 8.92537 23.9441 8.90194 24.2176 9.15194L26.6863 11.3941L22.2098 16.3238L19.2488 13.6363L21.491 11.1676L23.2801 9.19881ZM18.2254 2.80819L19.7332 4.17538C19.866 4.29256 20.0379 4.35506 20.2098 4.34725C20.3816 4.33944 20.5535 4.26131 20.6707 4.1285L22.0301 2.6285C22.3113 4.42537 22.5145 7.77694 20.6941 10.0269C20.6863 9.01131 20.5379 8.01131 20.2645 7.03475C20.0379 6.23787 19.4754 5.58162 18.7176 5.23787C18.4754 5.1285 18.2254 5.03475 17.9676 4.95663L18.2254 2.80819ZM13.0613 6.58162C13.1551 6.47225 13.2723 6.39412 13.4051 6.34725C14.952 5.80037 16.6473 5.83944 18.1707 6.45662C18.5691 6.63631 18.866 6.98006 18.9832 7.39412C19.4363 8.82381 19.4754 10.3551 19.1004 11.8082L17.8113 13.2301L17.3191 12.7848C17.1238 12.6129 16.9129 12.4644 16.6785 12.3394C16.8582 10.6441 16.4207 8.93319 15.452 7.52694C15.2879 7.26912 14.9988 7.1285 14.702 7.14412C14.3738 7.15975 14.077 7.34725 13.9207 7.64412C13.1863 9.066 13.0926 10.7379 13.6629 12.2301C13.3348 12.3941 13.0301 12.6051 12.7723 12.8629C12.1082 11.6598 11.1082 9.02694 13.0613 6.58162ZM5.15508 15.4332C5.18633 15.2926 5.24883 15.1676 5.35039 15.066C7.60039 12.8863 10.3191 13.6285 11.5926 14.1676C11.3582 14.4566 11.1785 14.7769 11.0457 15.1207C9.49883 14.6988 7.84258 14.9566 6.49883 15.8238C6.22539 16.0113 6.06914 16.316 6.08477 16.6441C6.10039 16.941 6.26445 17.2144 6.53008 17.3551C7.61602 17.941 8.82695 18.2535 10.0535 18.2769C10.5223 18.2769 10.991 18.2222 11.4441 18.1207C11.5848 18.3394 11.7566 18.5347 11.952 18.7144L12.4441 19.1597L11.1551 20.5816C9.74102 21.0894 8.21758 21.1988 6.74883 20.8863C6.31914 20.8082 5.95195 20.5426 5.7332 20.1676C4.96758 18.7144 4.76445 17.0347 5.15508 15.4332ZM4.21758 20.1207C4.31914 20.3707 4.43633 20.6051 4.56914 20.8394C4.9832 21.5582 5.68633 22.0582 6.49883 22.2066C7.18633 22.3316 7.88164 22.3941 8.57695 22.3941C8.88164 22.3941 9.20195 22.3785 9.52227 22.3472C7.45977 24.3707 4.1082 24.4957 2.28789 24.3863L3.65508 22.8941C3.77227 22.7613 3.83477 22.5894 3.82695 22.4176C3.81914 22.2379 3.74102 22.0738 3.6082 21.9566L2.10039 20.5894L4.21758 20.1207Z" stroke="#17E200" stroke-width="0.4" mask="url(#path-2-inside-2)"/>
<path d="M33.8001 25.2144C33.8001 25.4711 33.5928 25.6784 33.3361 25.6784C33.0793 25.6784 32.872 25.4711 32.872 25.2144V23.8784C32.872 23.6217 33.0793 23.4144 33.3361 23.4144C33.5928 23.4144 33.8001 23.6217 33.8001 23.8784V25.2144Z" fill="#E4FFA3" stroke="#AAFF5C" stroke-width="0.4"/>
<path d="M33.922 25.2144C33.922 25.5263 33.6699 25.7784 33.3579 25.7784C33.046 25.7784 32.7938 25.5263 32.7938 25.2144V23.8784C32.7938 23.5665 33.046 23.3144 33.3579 23.3144C33.6699 23.3144 33.922 23.5665 33.922 23.8784V25.2144Z" stroke="#17E200" stroke-width="0.2"/>
<path d="M33.8001 37.2144C33.8001 37.4711 33.5928 37.6784 33.3361 37.6784C33.0793 37.6784 32.872 37.4711 32.872 37.2144V27.8784C32.872 27.6217 33.0793 27.4144 33.3361 27.4144C33.5928 27.4144 33.8001 27.6217 33.8001 27.8784V37.2144Z" fill="#E4FFA3" stroke="#AAFF5C" stroke-width="0.4"/>
<path d="M33.922 37.2144C33.922 37.5263 33.6699 37.7784 33.3579 37.7784C33.046 37.7784 32.7938 37.5263 32.7938 37.2144V27.8784C32.7938 27.5665 33.046 27.3144 33.3579 27.3144C33.6699 27.3144 33.922 27.5665 33.922 27.8784V37.2144Z" stroke="#17E200" stroke-width="0.2"/>
<path d="M16.4642 37.2144C16.4642 37.4711 16.2568 37.6784 16.0001 37.6784C15.7434 37.6784 15.5361 37.4711 15.5361 37.2144V27.8784C15.5361 27.6217 15.7434 27.4144 16.0001 27.4144C16.2568 27.4144 16.4642 27.6217 16.4642 27.8784V37.2144Z" fill="#E4FFA3" stroke="#AAFF5C" stroke-width="0.4"/>
<path d="M16.586 37.2144C16.586 37.5263 16.3339 37.7784 16.022 37.7784C15.71 37.7784 15.4579 37.5263 15.4579 37.2144V27.8784C15.4579 27.5665 15.71 27.3144 16.022 27.3144C16.3339 27.3144 16.586 27.5665 16.586 27.8784V37.2144Z" stroke="#17E200" stroke-width="0.2"/>
</g>
<defs>
<clipPath id="clip0">
<rect width="36.6719" height="40" fill="white" transform="translate(0 0.550293)"/>
</clipPath>
</defs>
</svg>
