<svg width="97" height="96" viewBox="0 0 97 96" fill="none" xmlns="http://www.w3.org/2000/svg">
<g filter="url(#filter0_d)">
<mask id="path-1-inside-1" fill="white">
<path fill-rule="evenodd" clip-rule="evenodd" d="M40.8 28C40.8 32.4184 44.3816 36 48.8 36C53.2184 36 56.8 32.4184 56.8 28C56.8 23.5816 53.2184 20 48.8 20C44.3816 20 40.8 23.5816 40.8 28ZM53.3255 32.5255C52.1252 33.7257 50.4974 34.4 48.8 34.4C47.1026 34.4 45.4747 33.7257 44.2745 32.5255C43.0743 31.3253 42.4 29.6974 42.4 28C42.4 26.3026 43.0743 24.6747 44.2745 23.4745C45.4747 22.2743 47.1026 21.6 48.8 21.6C50.4974 21.6 52.1252 22.2743 53.3255 23.4745C54.5257 24.6747 55.2 26.3026 55.2 28C55.2 29.6974 54.5257 31.3253 53.3255 32.5255ZM51.2 27.2H47.24C47.3093 26.8597 47.466 26.5434 47.6947 26.2821C47.9234 26.0207 48.2161 25.8235 48.5442 25.7096C48.8723 25.5958 49.2243 25.5694 49.5657 25.6329C49.9071 25.6965 50.226 25.8478 50.4912 26.072L51.852 25.1656C51.3848 24.6564 50.7808 24.2924 50.1123 24.1171C49.4438 23.9419 48.7389 23.9627 48.0819 24.1773C47.425 24.3918 46.8436 24.7909 46.4073 25.3269C45.9711 25.8629 45.6983 26.5132 45.6216 27.2H44.8V28.8H45.6224C45.6993 29.4865 45.9722 30.1364 46.4084 30.6721C46.8445 31.2078 47.4256 31.6066 48.0823 31.8211C48.739 32.0356 49.4435 32.0566 50.1118 31.8816C50.78 31.7067 51.3839 31.3431 51.8512 30.8344L50.4912 29.928C50.226 30.1522 49.9071 30.3035 49.5657 30.3671C49.2243 30.4306 48.8723 30.4042 48.5442 30.2904C48.2161 30.1765 47.9234 29.9793 47.6947 29.7179C47.466 29.4566 47.3093 29.1403 47.24 28.8H51.2V27.2ZM67.1998 65.6V58.4H68.7998C69.2417 58.4 69.5998 58.0418 69.5998 57.6C69.5998 57.1582 69.2417 56.8 68.7998 56.8H67.1998V55.2H71.1998C71.358 55.2 71.5127 55.153 71.6442 55.0651C71.7757 54.9772 71.8782 54.8523 71.9388 54.7061C71.9993 54.56 72.0152 54.3991 71.9843 54.244C71.9534 54.0888 71.8773 53.9463 71.7654 53.8344L66.9654 49.0344C66.8154 48.8844 66.612 48.8 66.3998 48.8H29.5998C29.3877 48.8 29.1842 48.8844 29.0342 49.0344L24.2342 53.8344C24.1224 53.9463 24.0462 54.0888 24.0154 54.244C23.9845 54.3991 24.0004 54.56 24.0609 54.7061C24.1214 54.8523 24.2239 54.9772 24.3555 55.0651C24.487 55.153 24.6416 55.2 24.7998 55.2H27.9998V65.6C27.9998 66.4837 28.7162 67.2 29.5998 67.2H65.5998C66.4835 67.2 67.1998 66.4837 67.1998 65.6ZM65.5998 65.6H55.9998V58.4H65.5998V65.6ZM39.1998 52.8C38.758 52.8 38.3998 53.1582 38.3998 53.6V65.6H36.7998V53.1312L39.1998 50.7312L43.4342 54.9656C43.5842 55.1156 43.7877 55.2 43.9998 55.2H50.3998V56.8H47.9998C47.558 56.8 47.1998 57.1582 47.1998 57.6C47.1998 58.0418 47.558 58.4 47.9998 58.4H50.3998V65.6H39.9998V53.6C39.9998 53.1582 39.6417 52.8 39.1998 52.8ZM34.3998 55.2C34.612 55.2 34.8154 55.1156 34.9654 54.9656L35.1998 54.7312V65.6H32.7998V55.2H34.3998ZM54.3998 55.2V56.8H51.9998V55.2H54.3998ZM51.9998 58.4H54.3998V65.6H51.9998V58.4ZM65.5998 56.8H55.9998V55.2H65.5998V56.8ZM66.0686 50.4L69.2686 53.6H44.331L41.131 50.4H66.0686ZM29.931 50.4H37.2686L34.0686 53.6H26.731L29.931 50.4ZM29.5998 55.2H31.1998V65.6H29.5998V55.2ZM44 57.6C44 58.0418 44.3582 58.4 44.8 58.4C45.2418 58.4 45.6 58.0418 45.6 57.6C45.6 57.1582 45.2418 56.8 44.8 56.8C44.3582 56.8 44 57.1582 44 57.6ZM60.0001 45.3283C56.1736 43.1191 54.8627 38.2265 57.0719 34.4001C59.2811 30.5736 64.1736 29.2627 68.0001 31.4719C71.8265 33.6811 73.1375 38.5736 70.9283 42.4001C68.7191 46.2265 63.8265 47.5375 60.0001 45.3283ZM60.8001 43.9426C62.2701 44.7913 64.017 45.0213 65.6565 44.582C67.2961 44.1427 68.6939 43.0701 69.5426 41.6001C70.3913 40.1301 70.6213 38.3832 70.182 36.7436C69.7427 35.1041 68.6701 33.7062 67.2001 32.8575C65.7301 32.0088 63.9832 31.7788 62.3436 32.2182C60.7041 32.6575 59.3062 33.7301 58.4575 35.2001C57.6088 36.6701 57.3788 38.417 57.8182 40.0565C58.2575 41.6961 59.3301 43.0939 60.8001 43.9426ZM63.0491 36.9273L66.4785 38.9073L65.6785 40.2929L62.2491 38.3129C62.139 38.6422 62.1165 38.9945 62.1839 39.3352C62.2513 39.6758 62.4062 39.9931 62.6334 40.2557C62.8606 40.5183 63.1522 40.7172 63.4797 40.8329C63.8071 40.9486 64.159 40.977 64.5007 40.9154L65.2253 42.3803C64.5662 42.5873 63.8615 42.6002 63.1953 42.4176C62.529 42.2349 61.9294 41.8645 61.468 41.3504C61.0065 40.8363 60.7027 40.2003 60.5928 39.5183C60.4829 38.8363 60.5716 38.1371 60.8482 37.5041L60.136 37.0929L60.936 35.7073L61.6475 36.1181C62.0573 35.5616 62.6187 35.1348 63.2645 34.8888C63.9104 34.6427 64.6134 34.5877 65.2896 34.7305C65.9658 34.8732 66.5867 35.2075 67.078 35.6935C67.5693 36.1796 67.9104 36.7968 68.0604 37.4714L66.4287 37.576C66.3112 37.2492 66.1106 36.9587 65.8467 36.733C65.5829 36.5073 65.2648 36.3541 64.9237 36.2887C64.5827 36.2232 64.2305 36.2477 63.9018 36.3596C63.5731 36.4716 63.2792 36.6672 63.0491 36.9273ZM25.8719 42.4001C28.0811 46.2265 32.9736 47.5375 36.8001 45.3283C40.6265 43.1191 41.9375 38.2265 39.7283 34.4001C37.5191 30.5736 32.6265 29.2627 28.8001 31.4719C24.9736 33.6811 23.6627 38.5736 25.8719 42.4001ZM38.982 40.0565C38.5427 41.6961 37.4701 43.0939 36.0001 43.9426C34.5301 44.7913 32.7832 45.0213 31.1436 44.582C29.5041 44.1427 28.1062 43.0701 27.2575 41.6001C26.4088 40.1301 26.1788 38.3832 26.6182 36.7436C27.0575 35.1041 28.1301 33.7062 29.6001 32.8575C31.0701 32.0088 32.817 31.7788 34.4565 32.2182C36.0961 32.6575 37.4939 33.7301 38.3426 35.2001C39.1913 36.6701 39.4213 38.417 38.982 40.0565ZM34.4785 36.5073L31.0491 38.4873C30.939 38.1579 30.9165 37.8056 30.9839 37.465C31.0513 37.1243 31.2062 36.8071 31.4334 36.5445C31.6606 36.2819 31.9522 36.0829 32.2797 35.9673C32.6071 35.8516 32.959 35.8232 33.3007 35.8848L34.026 34.4194C33.3667 34.212 32.6617 34.1988 31.9951 34.3813C31.3285 34.5637 30.7285 34.9342 30.2668 35.4485C29.8051 35.9628 29.5012 36.5991 29.3914 37.2814C29.2816 37.9638 29.3705 38.6633 29.6475 39.2965L28.936 39.7073L29.736 41.0929L30.4482 40.6817C30.8581 41.2378 31.4193 41.6641 32.0649 41.91C32.7105 42.1558 33.4132 42.2107 34.0891 42.0681C34.765 41.9255 35.3856 41.5915 35.8769 41.1058C36.3682 40.6201 36.7093 40.0034 36.8597 39.3291L35.2287 39.2242C35.1112 39.5509 34.9106 39.8415 34.6467 40.0672C34.3829 40.2929 34.0648 40.446 33.7237 40.5115C33.3827 40.5769 33.0305 40.5525 32.7018 40.4405C32.3731 40.3285 32.0792 40.1329 31.8491 39.8729L35.2785 37.8929L34.4785 36.5073ZM48.8 38.4C48.8 37.9582 48.4418 37.6 48 37.6C47.5582 37.6 47.2 37.9582 47.2 38.4V46.4C47.2 46.8418 47.5582 47.2 48 47.2C48.4418 47.2 48.8 46.8418 48.8 46.4V38.4ZM51.2 47.2C50.7582 47.2 50.4 46.8418 50.4 46.4V44C50.4 43.1513 50.7371 42.3374 51.3373 41.7373C51.7469 41.3276 52.2563 41.0404 52.8083 40.8995C53.2364 40.7902 53.6 41.1582 53.6 41.6C53.6 42.0418 53.2206 42.3841 52.8329 42.5959C52.7003 42.6683 52.5774 42.7598 52.4686 42.8686C52.1686 43.1687 52 43.5757 52 44V46.4C52 46.8418 51.6418 47.2 51.2 47.2ZM44.8 47.2C45.2418 47.2 45.6 46.8418 45.6 46.4V42.4C45.6 41.5513 45.2629 40.7374 44.6627 40.1373C44.2531 39.7276 43.7437 39.4405 43.1917 39.2995C42.7636 39.1902 42.4 39.5582 42.4 40C42.4 40.4418 42.7794 40.7841 43.1671 40.9959C43.2997 41.0683 43.4226 41.1598 43.5314 41.2686C43.8314 41.5687 44 41.9757 44 42.4V46.4C44 46.8418 44.3582 47.2 44.8 47.2ZM40.4903 20.4891C40.7864 20.1635 41.2929 20.1765 41.5978 20.494C41.9044 20.8132 41.8903 21.3188 41.5966 21.65C40.9177 22.4158 40.3655 23.2873 39.9628 24.2319C39.4549 25.4229 39.1954 26.7051 39.2001 27.9999C39.2001 28.4082 38.8982 28.7638 38.4911 28.7952L38.4308 28.7999C37.9902 28.8339 37.6026 28.504 37.6002 28.062L37.6001 27.9999C37.595 26.4896 37.898 24.994 38.4906 23.6048C38.9789 22.4599 39.6554 21.4071 40.4903 20.4891Z"/>
</mask>
<path fill-rule="evenodd" clip-rule="evenodd" d="M40.8 28C40.8 32.4184 44.3816 36 48.8 36C53.2184 36 56.8 32.4184 56.8 28C56.8 23.5816 53.2184 20 48.8 20C44.3816 20 40.8 23.5816 40.8 28ZM53.3255 32.5255C52.1252 33.7257 50.4974 34.4 48.8 34.4C47.1026 34.4 45.4747 33.7257 44.2745 32.5255C43.0743 31.3253 42.4 29.6974 42.4 28C42.4 26.3026 43.0743 24.6747 44.2745 23.4745C45.4747 22.2743 47.1026 21.6 48.8 21.6C50.4974 21.6 52.1252 22.2743 53.3255 23.4745C54.5257 24.6747 55.2 26.3026 55.2 28C55.2 29.6974 54.5257 31.3253 53.3255 32.5255ZM51.2 27.2H47.24C47.3093 26.8597 47.466 26.5434 47.6947 26.2821C47.9234 26.0207 48.2161 25.8235 48.5442 25.7096C48.8723 25.5958 49.2243 25.5694 49.5657 25.6329C49.9071 25.6965 50.226 25.8478 50.4912 26.072L51.852 25.1656C51.3848 24.6564 50.7808 24.2924 50.1123 24.1171C49.4438 23.9419 48.7389 23.9627 48.0819 24.1773C47.425 24.3918 46.8436 24.7909 46.4073 25.3269C45.9711 25.8629 45.6983 26.5132 45.6216 27.2H44.8V28.8H45.6224C45.6993 29.4865 45.9722 30.1364 46.4084 30.6721C46.8445 31.2078 47.4256 31.6066 48.0823 31.8211C48.739 32.0356 49.4435 32.0566 50.1118 31.8816C50.78 31.7067 51.3839 31.3431 51.8512 30.8344L50.4912 29.928C50.226 30.1522 49.9071 30.3035 49.5657 30.3671C49.2243 30.4306 48.8723 30.4042 48.5442 30.2904C48.2161 30.1765 47.9234 29.9793 47.6947 29.7179C47.466 29.4566 47.3093 29.1403 47.24 28.8H51.2V27.2ZM67.1998 65.6V58.4H68.7998C69.2417 58.4 69.5998 58.0418 69.5998 57.6C69.5998 57.1582 69.2417 56.8 68.7998 56.8H67.1998V55.2H71.1998C71.358 55.2 71.5127 55.153 71.6442 55.0651C71.7757 54.9772 71.8782 54.8523 71.9388 54.7061C71.9993 54.56 72.0152 54.3991 71.9843 54.244C71.9534 54.0888 71.8773 53.9463 71.7654 53.8344L66.9654 49.0344C66.8154 48.8844 66.612 48.8 66.3998 48.8H29.5998C29.3877 48.8 29.1842 48.8844 29.0342 49.0344L24.2342 53.8344C24.1224 53.9463 24.0462 54.0888 24.0154 54.244C23.9845 54.3991 24.0004 54.56 24.0609 54.7061C24.1214 54.8523 24.2239 54.9772 24.3555 55.0651C24.487 55.153 24.6416 55.2 24.7998 55.2H27.9998V65.6C27.9998 66.4837 28.7162 67.2 29.5998 67.2H65.5998C66.4835 67.2 67.1998 66.4837 67.1998 65.6ZM65.5998 65.6H55.9998V58.4H65.5998V65.6ZM39.1998 52.8C38.758 52.8 38.3998 53.1582 38.3998 53.6V65.6H36.7998V53.1312L39.1998 50.7312L43.4342 54.9656C43.5842 55.1156 43.7877 55.2 43.9998 55.2H50.3998V56.8H47.9998C47.558 56.8 47.1998 57.1582 47.1998 57.6C47.1998 58.0418 47.558 58.4 47.9998 58.4H50.3998V65.6H39.9998V53.6C39.9998 53.1582 39.6417 52.8 39.1998 52.8ZM34.3998 55.2C34.612 55.2 34.8154 55.1156 34.9654 54.9656L35.1998 54.7312V65.6H32.7998V55.2H34.3998ZM54.3998 55.2V56.8H51.9998V55.2H54.3998ZM51.9998 58.4H54.3998V65.6H51.9998V58.4ZM65.5998 56.8H55.9998V55.2H65.5998V56.8ZM66.0686 50.4L69.2686 53.6H44.331L41.131 50.4H66.0686ZM29.931 50.4H37.2686L34.0686 53.6H26.731L29.931 50.4ZM29.5998 55.2H31.1998V65.6H29.5998V55.2ZM44 57.6C44 58.0418 44.3582 58.4 44.8 58.4C45.2418 58.4 45.6 58.0418 45.6 57.6C45.6 57.1582 45.2418 56.8 44.8 56.8C44.3582 56.8 44 57.1582 44 57.6ZM60.0001 45.3283C56.1736 43.1191 54.8627 38.2265 57.0719 34.4001C59.2811 30.5736 64.1736 29.2627 68.0001 31.4719C71.8265 33.6811 73.1375 38.5736 70.9283 42.4001C68.7191 46.2265 63.8265 47.5375 60.0001 45.3283ZM60.8001 43.9426C62.2701 44.7913 64.017 45.0213 65.6565 44.582C67.2961 44.1427 68.6939 43.0701 69.5426 41.6001C70.3913 40.1301 70.6213 38.3832 70.182 36.7436C69.7427 35.1041 68.6701 33.7062 67.2001 32.8575C65.7301 32.0088 63.9832 31.7788 62.3436 32.2182C60.7041 32.6575 59.3062 33.7301 58.4575 35.2001C57.6088 36.6701 57.3788 38.417 57.8182 40.0565C58.2575 41.6961 59.3301 43.0939 60.8001 43.9426ZM63.0491 36.9273L66.4785 38.9073L65.6785 40.2929L62.2491 38.3129C62.139 38.6422 62.1165 38.9945 62.1839 39.3352C62.2513 39.6758 62.4062 39.9931 62.6334 40.2557C62.8606 40.5183 63.1522 40.7172 63.4797 40.8329C63.8071 40.9486 64.159 40.977 64.5007 40.9154L65.2253 42.3803C64.5662 42.5873 63.8615 42.6002 63.1953 42.4176C62.529 42.2349 61.9294 41.8645 61.468 41.3504C61.0065 40.8363 60.7027 40.2003 60.5928 39.5183C60.4829 38.8363 60.5716 38.1371 60.8482 37.5041L60.136 37.0929L60.936 35.7073L61.6475 36.1181C62.0573 35.5616 62.6187 35.1348 63.2645 34.8888C63.9104 34.6427 64.6134 34.5877 65.2896 34.7305C65.9658 34.8732 66.5867 35.2075 67.078 35.6935C67.5693 36.1796 67.9104 36.7968 68.0604 37.4714L66.4287 37.576C66.3112 37.2492 66.1106 36.9587 65.8467 36.733C65.5829 36.5073 65.2648 36.3541 64.9237 36.2887C64.5827 36.2232 64.2305 36.2477 63.9018 36.3596C63.5731 36.4716 63.2792 36.6672 63.0491 36.9273ZM25.8719 42.4001C28.0811 46.2265 32.9736 47.5375 36.8001 45.3283C40.6265 43.1191 41.9375 38.2265 39.7283 34.4001C37.5191 30.5736 32.6265 29.2627 28.8001 31.4719C24.9736 33.6811 23.6627 38.5736 25.8719 42.4001ZM38.982 40.0565C38.5427 41.6961 37.4701 43.0939 36.0001 43.9426C34.5301 44.7913 32.7832 45.0213 31.1436 44.582C29.5041 44.1427 28.1062 43.0701 27.2575 41.6001C26.4088 40.1301 26.1788 38.3832 26.6182 36.7436C27.0575 35.1041 28.1301 33.7062 29.6001 32.8575C31.0701 32.0088 32.817 31.7788 34.4565 32.2182C36.0961 32.6575 37.4939 33.7301 38.3426 35.2001C39.1913 36.6701 39.4213 38.417 38.982 40.0565ZM34.4785 36.5073L31.0491 38.4873C30.939 38.1579 30.9165 37.8056 30.9839 37.465C31.0513 37.1243 31.2062 36.8071 31.4334 36.5445C31.6606 36.2819 31.9522 36.0829 32.2797 35.9673C32.6071 35.8516 32.959 35.8232 33.3007 35.8848L34.026 34.4194C33.3667 34.212 32.6617 34.1988 31.9951 34.3813C31.3285 34.5637 30.7285 34.9342 30.2668 35.4485C29.8051 35.9628 29.5012 36.5991 29.3914 37.2814C29.2816 37.9638 29.3705 38.6633 29.6475 39.2965L28.936 39.7073L29.736 41.0929L30.4482 40.6817C30.8581 41.2378 31.4193 41.6641 32.0649 41.91C32.7105 42.1558 33.4132 42.2107 34.0891 42.0681C34.765 41.9255 35.3856 41.5915 35.8769 41.1058C36.3682 40.6201 36.7093 40.0034 36.8597 39.3291L35.2287 39.2242C35.1112 39.5509 34.9106 39.8415 34.6467 40.0672C34.3829 40.2929 34.0648 40.446 33.7237 40.5115C33.3827 40.5769 33.0305 40.5525 32.7018 40.4405C32.3731 40.3285 32.0792 40.1329 31.8491 39.8729L35.2785 37.8929L34.4785 36.5073ZM48.8 38.4C48.8 37.9582 48.4418 37.6 48 37.6C47.5582 37.6 47.2 37.9582 47.2 38.4V46.4C47.2 46.8418 47.5582 47.2 48 47.2C48.4418 47.2 48.8 46.8418 48.8 46.4V38.4ZM51.2 47.2C50.7582 47.2 50.4 46.8418 50.4 46.4V44C50.4 43.1513 50.7371 42.3374 51.3373 41.7373C51.7469 41.3276 52.2563 41.0404 52.8083 40.8995C53.2364 40.7902 53.6 41.1582 53.6 41.6C53.6 42.0418 53.2206 42.3841 52.8329 42.5959C52.7003 42.6683 52.5774 42.7598 52.4686 42.8686C52.1686 43.1687 52 43.5757 52 44V46.4C52 46.8418 51.6418 47.2 51.2 47.2ZM44.8 47.2C45.2418 47.2 45.6 46.8418 45.6 46.4V42.4C45.6 41.5513 45.2629 40.7374 44.6627 40.1373C44.2531 39.7276 43.7437 39.4405 43.1917 39.2995C42.7636 39.1902 42.4 39.5582 42.4 40C42.4 40.4418 42.7794 40.7841 43.1671 40.9959C43.2997 41.0683 43.4226 41.1598 43.5314 41.2686C43.8314 41.5687 44 41.9757 44 42.4V46.4C44 46.8418 44.3582 47.2 44.8 47.2ZM40.4903 20.4891C40.7864 20.1635 41.2929 20.1765 41.5978 20.494C41.9044 20.8132 41.8903 21.3188 41.5966 21.65C40.9177 22.4158 40.3655 23.2873 39.9628 24.2319C39.4549 25.4229 39.1954 26.7051 39.2001 27.9999C39.2001 28.4082 38.8982 28.7638 38.4911 28.7952L38.4308 28.7999C37.9902 28.8339 37.6026 28.504 37.6002 28.062L37.6001 27.9999C37.595 26.4896 37.898 24.994 38.4906 23.6048C38.9789 22.4599 39.6554 21.4071 40.4903 20.4891Z" fill="#E4FFA3"/>
<path d="M53.3255 32.5255L53.7497 32.9497L53.3255 32.5255ZM44.2745 32.5255L43.8503 32.9497H43.8503L44.2745 32.5255ZM44.2745 23.4745L43.8503 23.0503L43.8503 23.0503L44.2745 23.4745ZM47.24 27.2L46.6521 27.0803L46.5055 27.8H47.24V27.2ZM51.2 27.2H51.8V26.6H51.2V27.2ZM47.6947 26.2821L47.2432 25.8869L47.2432 25.8869L47.6947 26.2821ZM48.5442 25.7096L48.3475 25.1428V25.1428L48.5442 25.7096ZM49.5657 25.6329L49.4559 26.2228L49.5657 25.6329ZM50.4912 26.072L50.1038 26.5301L50.4483 26.8215L50.8238 26.5714L50.4912 26.072ZM51.852 25.1656L52.1846 25.665L52.768 25.2764L52.2941 24.76L51.852 25.1656ZM48.0819 24.1773L47.8957 23.6069V23.6069L48.0819 24.1773ZM46.4073 25.3269L45.942 24.9481V24.9481L46.4073 25.3269ZM45.6216 27.2V27.8H46.1583L46.2179 27.2666L45.6216 27.2ZM44.8 27.2V26.6H44.2V27.2H44.8ZM44.8 28.8H44.2V29.4H44.8V28.8ZM45.6224 28.8L46.2187 28.7332L46.1589 28.2H45.6224V28.8ZM46.4084 30.6721L46.8736 30.2932V30.2932L46.4084 30.6721ZM48.0823 31.8211L47.896 32.3915L48.0823 31.8211ZM50.1118 31.8816L50.2637 32.4621L50.1118 31.8816ZM51.8512 30.8344L52.2931 31.2403L52.7674 30.724L52.184 30.3351L51.8512 30.8344ZM50.4912 29.928L50.824 29.4287L50.4484 29.1784L50.1038 29.4699L50.4912 29.928ZM48.5442 30.2904L48.7409 29.7235L48.5442 30.2904ZM47.6947 29.7179L47.2432 30.1131L47.2432 30.1131L47.6947 29.7179ZM47.24 28.8V28.2H46.5055L46.6521 28.9197L47.24 28.8ZM51.2 28.8V29.4H51.8V28.8H51.2ZM67.1998 58.4V57.8H66.5998V58.4H67.1998ZM67.1998 56.8H66.5998V57.4H67.1998V56.8ZM67.1998 55.2V54.6H66.5998V55.2H67.1998ZM71.1998 55.2V55.8H71.2L71.1998 55.2ZM71.6442 55.0651L71.9776 55.564L71.9776 55.564L71.6442 55.0651ZM71.9843 54.244L71.3958 54.361L71.3958 54.361L71.9843 54.244ZM71.7654 53.8344L72.1898 53.4102L72.1897 53.4101L71.7654 53.8344ZM66.9654 49.0344L66.5411 49.4586L66.5412 49.4587L66.9654 49.0344ZM66.3998 48.8L66.4 48.2H66.3998V48.8ZM29.5998 48.8V48.2H29.5997L29.5998 48.8ZM29.0342 49.0344L29.4585 49.4587L29.4586 49.4586L29.0342 49.0344ZM24.2342 53.8344L23.81 53.4101L23.8099 53.4102L24.2342 53.8344ZM24.0609 54.7061L23.5066 54.9357L24.0609 54.7061ZM24.3555 55.0651L24.0221 55.564L24.0221 55.564L24.3555 55.0651ZM24.7998 55.2L24.7997 55.8H24.7998V55.2ZM27.9998 55.2H28.5998V54.6H27.9998V55.2ZM55.9998 65.6H55.3998V66.2H55.9998V65.6ZM65.5998 65.6V66.2H66.1998V65.6H65.5998ZM55.9998 58.4V57.8H55.3998V58.4H55.9998ZM65.5998 58.4H66.1998V57.8H65.5998V58.4ZM38.3998 65.6V66.2H38.9998V65.6H38.3998ZM36.7998 65.6H36.1998V66.2H36.7998V65.6ZM36.7998 53.1312L36.3756 52.7069L36.1998 52.8827V53.1312H36.7998ZM39.1998 50.7312L39.6241 50.3069L39.1998 49.8827L38.7756 50.3069L39.1998 50.7312ZM43.4342 54.9656L43.8586 54.5414L43.8585 54.5413L43.4342 54.9656ZM43.9998 55.2L43.9997 55.8H43.9998V55.2ZM50.3998 55.2H50.9998V54.6H50.3998V55.2ZM50.3998 56.8V57.4H50.9998V56.8H50.3998ZM50.3998 58.4H50.9998V57.8H50.3998V58.4ZM50.3998 65.6V66.2H50.9998V65.6H50.3998ZM39.9998 65.6H39.3998V66.2H39.9998V65.6ZM34.9654 54.9656L34.5412 54.5413L34.5411 54.5414L34.9654 54.9656ZM34.3998 55.2V55.8H34.4L34.3998 55.2ZM35.1998 54.7312H35.7998V53.2827L34.7756 54.3069L35.1998 54.7312ZM35.1998 65.6V66.2H35.7998V65.6H35.1998ZM32.7998 65.6H32.1998V66.2H32.7998V65.6ZM32.7998 55.2V54.6H32.1998V55.2H32.7998ZM54.3998 56.8V57.4H54.9998V56.8H54.3998ZM54.3998 55.2H54.9998V54.6H54.3998V55.2ZM51.9998 56.8H51.3998V57.4H51.9998V56.8ZM51.9998 55.2V54.6H51.3998V55.2H51.9998ZM54.3998 58.4H54.9998V57.8H54.3998V58.4ZM51.9998 58.4V57.8H51.3998V58.4H51.9998ZM54.3998 65.6V66.2H54.9998V65.6H54.3998ZM51.9998 65.6H51.3998V66.2H51.9998V65.6ZM55.9998 56.8H55.3998V57.4H55.9998V56.8ZM65.5998 56.8V57.4H66.1998V56.8H65.5998ZM55.9998 55.2V54.6H55.3998V55.2H55.9998ZM65.5998 55.2H66.1998V54.6H65.5998V55.2ZM69.2686 53.6V54.2H70.7172L69.6929 53.1757L69.2686 53.6ZM66.0686 50.4L66.4929 49.9757L66.3172 49.8H66.0686V50.4ZM44.331 53.6L43.9068 54.0243L44.0825 54.2H44.331V53.6ZM41.131 50.4V49.8H39.6825L40.7068 50.8243L41.131 50.4ZM37.2686 50.4L37.6929 50.8243L38.7172 49.8H37.2686V50.4ZM29.931 50.4V49.8H29.6825L29.5068 49.9757L29.931 50.4ZM34.0686 53.6V54.2H34.3172L34.4929 54.0243L34.0686 53.6ZM26.731 53.6L26.3068 53.1757L25.2825 54.2H26.731V53.6ZM31.1998 55.2H31.7998V54.6H31.1998V55.2ZM29.5998 55.2V54.6H28.9998V55.2H29.5998ZM31.1998 65.6V66.2H31.7998V65.6H31.1998ZM29.5998 65.6H28.9998V66.2H29.5998V65.6ZM57.0719 34.4001L56.5523 34.1001L57.0719 34.4001ZM60.0001 45.3283L60.3001 44.8087L60.0001 45.3283ZM68.0001 31.4719L68.3001 30.9523L68.0001 31.4719ZM70.9283 42.4001L70.4087 42.1001L70.9283 42.4001ZM60.8001 43.9426L60.5001 44.4623L60.8001 43.9426ZM69.5426 41.6001L69.023 41.3001V41.3001L69.5426 41.6001ZM67.2001 32.8575L66.9001 33.3771L67.2001 32.8575ZM62.3436 32.2182L62.4989 32.7977L62.3436 32.2182ZM58.4575 35.2001L57.9379 34.9001V34.9001L58.4575 35.2001ZM57.8182 40.0565L58.3977 39.9012V39.9012L57.8182 40.0565ZM66.4785 38.9073L66.9982 39.2073L67.2982 38.6876L66.7785 38.3876L66.4785 38.9073ZM63.0491 36.9273L62.5998 36.5296L62.113 37.0796L62.7491 37.4469L63.0491 36.9273ZM65.6785 40.2929L65.3785 40.8125L65.8982 41.1125L66.1982 40.5929L65.6785 40.2929ZM62.2491 38.3129L62.5491 37.7933L61.913 37.426L61.68 38.1226L62.2491 38.3129ZM62.1839 39.3352L61.5953 39.4516V39.4516L62.1839 39.3352ZM62.6334 40.2557L62.1796 40.6483L62.1796 40.6483L62.6334 40.2557ZM63.4797 40.8329L63.2798 41.3986L63.2798 41.3986L63.4797 40.8329ZM64.5007 40.9154L65.0385 40.6494L64.8384 40.2448L64.3943 40.3249L64.5007 40.9154ZM65.2253 42.3803L65.405 42.9528L66.0739 42.7428L65.7631 42.1143L65.2253 42.3803ZM63.1953 42.4176L63.3539 41.8389L63.1953 42.4176ZM60.5928 39.5183L61.1852 39.4229V39.4229L60.5928 39.5183ZM60.8482 37.5041L61.398 37.7444L61.6128 37.2527L61.1482 36.9845L60.8482 37.5041ZM60.136 37.0929L59.6164 36.7929L59.3164 37.3125L59.836 37.6125L60.136 37.0929ZM60.936 35.7073L61.236 35.1876L60.7164 34.8876L60.4164 35.4073L60.936 35.7073ZM61.6475 36.1181L61.3475 36.6377L61.8123 36.906L62.1306 36.4739L61.6475 36.1181ZM63.2645 34.8888L63.4781 35.4494L63.2645 34.8888ZM65.2896 34.7305L65.4135 34.1434L65.2896 34.7305ZM67.078 35.6935L67.5 35.267L67.5 35.267L67.078 35.6935ZM68.0604 37.4714L68.0988 38.0702L68.7982 38.0254L68.6461 37.3412L68.0604 37.4714ZM66.4287 37.576L65.8641 37.779L66.0168 38.2036L66.4671 38.1748L66.4287 37.576ZM65.8467 36.733L65.4567 37.1889L65.4567 37.1889L65.8467 36.733ZM64.9237 36.2887L65.0368 35.6994H65.0368L64.9237 36.2887ZM36.8001 45.3283L37.1001 45.8479L36.8001 45.3283ZM25.8719 42.4001L25.3523 42.7001L25.8719 42.4001ZM39.7283 34.4001L40.2479 34.1001L39.7283 34.4001ZM28.8001 31.4719L28.5001 30.9523L28.8001 31.4719ZM36.0001 43.9426L35.7001 43.423H35.7001L36.0001 43.9426ZM38.982 40.0565L39.5616 40.2118L38.982 40.0565ZM31.1436 44.582L30.9883 45.1616L31.1436 44.582ZM27.2575 41.6001L26.7379 41.9001L27.2575 41.6001ZM26.6182 36.7436L27.1977 36.8989L26.6182 36.7436ZM29.6001 32.8575L29.3001 32.3379L29.6001 32.8575ZM38.3426 35.2001L38.8623 34.9001L38.3426 35.2001ZM31.0491 38.4873L30.48 38.6775L30.713 39.3741L31.3491 39.0069L31.0491 38.4873ZM34.4785 36.5073L34.9982 36.2073L34.6982 35.6876L34.1785 35.9876L34.4785 36.5073ZM31.4334 36.5445L31.8871 36.937L31.8871 36.937L31.4334 36.5445ZM32.2797 35.9673L32.0798 35.4015L32.0798 35.4015L32.2797 35.9673ZM33.3007 35.8848L33.1942 36.4753L33.6383 36.5553L33.8384 36.1509L33.3007 35.8848ZM34.026 34.4194L34.5637 34.6856L34.8746 34.0574L34.206 33.8471L34.026 34.4194ZM31.9951 34.3813L31.8367 33.8025H31.8367L31.9951 34.3813ZM30.2668 35.4485L30.7133 35.8493L30.2668 35.4485ZM29.3914 37.2814L29.9838 37.3768L29.3914 37.2814ZM29.6475 39.2965L29.9475 39.8161L30.4123 39.5477L30.1972 39.056L29.6475 39.2965ZM28.936 39.7073L28.636 39.1876L28.1164 39.4876L28.4164 40.0073L28.936 39.7073ZM29.736 41.0929L29.2164 41.3929L29.5164 41.9125L30.036 41.6125L29.736 41.0929ZM30.4482 40.6817L30.9312 40.3257L30.6128 39.8938L30.1482 40.1621L30.4482 40.6817ZM32.0649 41.91L32.2784 41.3492H32.2784L32.0649 41.91ZM34.0891 42.0681L33.9652 41.481H33.9652L34.0891 42.0681ZM36.8597 39.3291L37.4453 39.4597L37.5979 38.7754L36.8982 38.7304L36.8597 39.3291ZM35.2287 39.2242L35.2672 38.6254L34.8168 38.5964L34.6641 39.0211L35.2287 39.2242ZM34.6467 40.0672L35.0367 40.5231L35.0367 40.5231L34.6467 40.0672ZM33.7237 40.5115L33.6106 39.9222L33.7237 40.5115ZM32.7018 40.4405L32.5083 41.0085L32.5083 41.0085L32.7018 40.4405ZM31.8491 39.8729L31.5491 39.3533L30.913 39.7205L31.3998 40.2706L31.8491 39.8729ZM35.2785 37.8929L35.5785 38.4125L36.0982 38.1125L35.7982 37.5929L35.2785 37.8929ZM51.3373 41.7373L50.913 41.313V41.313L51.3373 41.7373ZM52.8083 40.8995L52.9567 41.4808H52.9567L52.8083 40.8995ZM52.8329 42.5959L53.1205 43.1224L53.1206 43.1224L52.8329 42.5959ZM52.4686 42.8686L52.0444 42.4444L52.0444 42.4444L52.4686 42.8686ZM43.1917 39.2995L43.0433 39.8808H43.0433L43.1917 39.2995ZM43.1671 40.9959L42.8794 41.5224V41.5224L43.1671 40.9959ZM41.5978 20.494L42.0305 20.0783L42.0305 20.0783L41.5978 20.494ZM40.4903 20.4891L40.0464 20.0854V20.0854L40.4903 20.4891ZM41.5966 21.65L42.0456 22.0481L42.0456 22.0481L41.5966 21.65ZM39.9628 24.2319L40.5147 24.4672V24.4672L39.9628 24.2319ZM39.2001 27.9999H39.8001L39.8001 27.9978L39.2001 27.9999ZM38.4911 28.7952L38.5373 29.3935H38.5373L38.4911 28.7952ZM38.4308 28.7999L38.3846 28.2017H38.3846L38.4308 28.7999ZM37.6002 28.062L37.0002 28.0636L37.0002 28.0653L37.6002 28.062ZM37.6001 27.9999L38.2001 27.9983L38.2001 27.9979L37.6001 27.9999ZM38.4906 23.6048L39.0425 23.8402L38.4906 23.6048ZM48.8 35.4C44.713 35.4 41.4 32.087 41.4 28H40.2C40.2 32.7498 44.0502 36.6 48.8 36.6V35.4ZM56.2 28C56.2 32.087 52.887 35.4 48.8 35.4V36.6C53.5498 36.6 57.4 32.7498 57.4 28H56.2ZM48.8 20.6C52.887 20.6 56.2 23.913 56.2 28H57.4C57.4 23.2502 53.5498 19.4 48.8 19.4V20.6ZM41.4 28C41.4 23.913 44.713 20.6 48.8 20.6V19.4C44.0502 19.4 40.2 23.2502 40.2 28H41.4ZM48.8 35C50.6565 35 52.437 34.2625 53.7497 32.9497L52.9012 32.1012C51.8135 33.1889 50.3383 33.8 48.8 33.8V35ZM43.8503 32.9497C45.163 34.2625 46.9435 35 48.8 35V33.8C47.2617 33.8 45.7865 33.1889 44.6988 32.1012L43.8503 32.9497ZM41.8 28C41.8 29.8565 42.5375 31.637 43.8503 32.9497L44.6988 32.1012C43.6111 31.0135 43 29.5383 43 28H41.8ZM43.8503 23.0503C42.5375 24.363 41.8 26.1435 41.8 28H43C43 26.4617 43.6111 24.9865 44.6988 23.8988L43.8503 23.0503ZM48.8 21C46.9435 21 45.163 21.7375 43.8503 23.0503L44.6988 23.8988C45.7865 22.8111 47.2617 22.2 48.8 22.2V21ZM53.7497 23.0503C52.437 21.7375 50.6565 21 48.8 21V22.2C50.3383 22.2 51.8135 22.8111 52.9012 23.8988L53.7497 23.0503ZM55.8 28C55.8 26.1435 55.0625 24.363 53.7497 23.0503L52.9012 23.8988C53.9889 24.9865 54.6 26.4617 54.6 28H55.8ZM53.7497 32.9497C55.0625 31.637 55.8 29.8565 55.8 28H54.6C54.6 29.5383 53.9889 31.0135 52.9012 32.1012L53.7497 32.9497ZM47.24 27.8H51.2V26.6H47.24V27.8ZM47.2432 25.8869C46.9459 26.2266 46.7422 26.6379 46.6521 27.0803L47.8279 27.3197C47.8764 27.0816 47.9861 26.8601 48.1462 26.6772L47.2432 25.8869ZM48.3475 25.1428C47.921 25.2908 47.5404 25.5472 47.2432 25.8869L48.1462 26.6772C48.3063 26.4943 48.5112 26.3562 48.7409 26.2765L48.3475 25.1428ZM49.6755 25.043C49.2317 24.9604 48.774 24.9948 48.3475 25.1428L48.7409 26.2765C48.9705 26.1968 49.2169 26.1783 49.4559 26.2228L49.6755 25.043ZM50.8786 25.6139C50.5339 25.3224 50.1193 25.1256 49.6755 25.043L49.4559 26.2228C49.6949 26.2673 49.9182 26.3732 50.1038 26.5301L50.8786 25.6139ZM51.5194 24.6662L50.1586 25.5726L50.8238 26.5714L52.1846 25.665L51.5194 24.6662ZM49.9601 24.6975C50.5172 24.8435 51.0205 25.1469 51.4099 25.5712L52.2941 24.76C51.749 24.1658 51.0444 23.7412 50.2644 23.5367L49.9601 24.6975ZM48.2682 24.7476C48.8157 24.5689 49.403 24.5515 49.9601 24.6975L50.2644 23.5367C49.4845 23.3323 48.6622 23.3566 47.8957 23.6069L48.2682 24.7476ZM46.8727 25.7056C47.2362 25.259 47.7207 24.9264 48.2682 24.7476L47.8957 23.6069C47.1292 23.8572 46.451 24.3228 45.942 24.9481L46.8727 25.7056ZM46.2179 27.2666C46.2818 26.6942 46.5091 26.1523 46.8727 25.7056L45.942 24.9481C45.433 25.5735 45.1148 26.3321 45.0253 27.1334L46.2179 27.2666ZM44.8 27.8H45.6216V26.6H44.8V27.8ZM45.4 28.8V27.2H44.2V28.8H45.4ZM45.6224 28.2H44.8V29.4H45.6224V28.2ZM46.8736 30.2932C46.5102 29.8468 46.2828 29.3053 46.2187 28.7332L45.0261 28.8668C45.1159 29.6678 45.4342 30.4259 45.9431 31.0509L46.8736 30.2932ZM48.2686 31.2508C47.7214 31.072 47.2371 30.7396 46.8736 30.2932L45.9431 31.0509C46.452 31.6759 47.1299 32.1412 47.896 32.3915L48.2686 31.2508ZM49.9598 31.3012C49.4029 31.447 48.8158 31.4295 48.2686 31.2508L47.896 32.3915C48.6621 32.6417 49.4841 32.6662 50.2637 32.4621L49.9598 31.3012ZM51.4093 30.4285C51.0199 30.8525 50.5167 31.1554 49.9598 31.3012L50.2637 32.4621C51.0434 32.258 51.7479 31.8338 52.2931 31.2403L51.4093 30.4285ZM50.1584 30.4273L51.5184 31.3337L52.184 30.3351L50.824 29.4287L50.1584 30.4273ZM49.6755 30.957C50.1193 30.8744 50.5339 30.6776 50.8786 30.3861L50.1038 29.4699C49.9182 29.6268 49.6949 29.7327 49.4559 29.7772L49.6755 30.957ZM48.3475 30.8572C48.774 31.0052 49.2317 31.0396 49.6755 30.957L49.4559 29.7772C49.2169 29.8217 48.9705 29.8032 48.7409 29.7235L48.3475 30.8572ZM47.2432 30.1131C47.5404 30.4528 47.921 30.7092 48.3475 30.8572L48.7409 29.7235C48.5112 29.6438 48.3063 29.5057 48.1462 29.3228L47.2432 30.1131ZM46.6521 28.9197C46.7422 29.3621 46.9459 29.7734 47.2432 30.1131L48.1462 29.3228C47.9861 29.1399 47.8764 28.9184 47.8279 28.6803L46.6521 28.9197ZM51.2 28.2H47.24V29.4H51.2V28.2ZM50.6 27.2V28.8H51.8V27.2H50.6ZM66.5998 58.4V65.6H67.7998V58.4H66.5998ZM68.7998 57.8H67.1998V59H68.7998V57.8ZM68.9998 57.6C68.9998 57.7105 68.9103 57.8 68.7998 57.8V59C69.573 59 70.1998 58.3732 70.1998 57.6H68.9998ZM68.7998 57.4C68.9103 57.4 68.9998 57.4895 68.9998 57.6H70.1998C70.1998 56.8268 69.573 56.2 68.7998 56.2V57.4ZM67.1998 57.4H68.7998V56.2H67.1998V57.4ZM66.5998 55.2V56.8H67.7998V55.2H66.5998ZM71.1998 54.6H67.1998V55.8H71.1998V54.6ZM71.3108 54.5663C71.2779 54.5883 71.2393 54.6 71.1997 54.6L71.2 55.8C71.4768 55.7999 71.7474 55.7178 71.9776 55.564L71.3108 54.5663ZM71.3844 54.4765C71.3693 54.5131 71.3437 54.5443 71.3108 54.5663L71.9776 55.564C72.2078 55.4101 72.3872 55.1915 72.4931 54.9357L71.3844 54.4765ZM71.3958 54.361C71.4035 54.3998 71.3996 54.44 71.3844 54.4765L72.4931 54.9357C72.599 54.6799 72.6268 54.3985 72.5728 54.1269L71.3958 54.361ZM71.3411 54.2586C71.3691 54.2866 71.3881 54.3222 71.3958 54.361L72.5728 54.127C72.5188 53.8554 72.3855 53.606 72.1898 53.4102L71.3411 54.2586ZM66.5412 49.4587L71.3412 54.2587L72.1897 53.4101L67.3897 48.6101L66.5412 49.4587ZM66.3997 49.4C66.4527 49.4 66.5036 49.4211 66.5411 49.4586L67.3898 48.6102C67.1273 48.3476 66.7712 48.2001 66.4 48.2L66.3997 49.4ZM29.5998 49.4H66.3998V48.2H29.5998V49.4ZM29.4586 49.4586C29.4961 49.4211 29.5469 49.4 29.6 49.4L29.5997 48.2C29.2284 48.2001 28.8724 48.3476 28.6099 48.6102L29.4586 49.4586ZM24.6585 54.2587L29.4585 49.4587L28.61 48.6101L23.81 53.4101L24.6585 54.2587ZM24.6038 54.361C24.6116 54.3222 24.6306 54.2866 24.6586 54.2586L23.8099 53.4102C23.6142 53.606 23.4809 53.8554 23.4269 54.127L24.6038 54.361ZM24.6152 54.4765C24.6001 54.44 24.5961 54.3998 24.6038 54.361L23.4269 54.127C23.3729 54.3985 23.4006 54.6799 23.5066 54.9357L24.6152 54.4765ZM24.6889 54.5663C24.656 54.5443 24.6304 54.5131 24.6152 54.4765L23.5066 54.9357C23.6125 55.1915 23.7919 55.4101 24.0221 55.564L24.6889 54.5663ZM24.8 54.6C24.7604 54.6 24.7217 54.5883 24.6889 54.5663L24.0221 55.564C24.2522 55.7178 24.5229 55.7999 24.7997 55.8L24.8 54.6ZM27.9998 54.6H24.7998V55.8H27.9998V54.6ZM28.5998 65.6V55.2H27.3998V65.6H28.5998ZM29.5998 66.6C29.0475 66.6 28.5998 66.1523 28.5998 65.6H27.3998C27.3998 66.815 28.3848 67.8 29.5998 67.8V66.6ZM65.5998 66.6H29.5998V67.8H65.5998V66.6ZM66.5998 65.6C66.5998 66.1523 66.1521 66.6 65.5998 66.6V67.8C66.8148 67.8 67.7998 66.815 67.7998 65.6H66.5998ZM55.9998 66.2H65.5998V65H55.9998V66.2ZM55.3998 58.4V65.6H56.5998V58.4H55.3998ZM65.5998 57.8H55.9998V59H65.5998V57.8ZM66.1998 65.6V58.4H64.9998V65.6H66.1998ZM38.9998 53.6C38.9998 53.4895 39.0894 53.4 39.1998 53.4V52.2C38.4266 52.2 37.7998 52.8268 37.7998 53.6H38.9998ZM38.9998 65.6V53.6H37.7998V65.6H38.9998ZM36.7998 66.2H38.3998V65H36.7998V66.2ZM36.1998 53.1312V65.6H37.3998V53.1312H36.1998ZM38.7756 50.3069L36.3756 52.7069L37.2241 53.5555L39.6241 51.1555L38.7756 50.3069ZM43.8585 54.5413L39.6241 50.3069L38.7756 51.1555L43.01 55.3899L43.8585 54.5413ZM44 54.6C43.9469 54.6 43.8961 54.5789 43.8586 54.5414L43.0099 55.3898C43.2724 55.6524 43.6284 55.7999 43.9997 55.8L44 54.6ZM50.3998 54.6H43.9998V55.8H50.3998V54.6ZM50.9998 56.8V55.2H49.7998V56.8H50.9998ZM47.9998 57.4H50.3998V56.2H47.9998V57.4ZM47.7998 57.6C47.7998 57.4895 47.8894 57.4 47.9998 57.4V56.2C47.2266 56.2 46.5998 56.8268 46.5998 57.6H47.7998ZM47.9998 57.8C47.8894 57.8 47.7998 57.7105 47.7998 57.6H46.5998C46.5998 58.3732 47.2266 59 47.9998 59V57.8ZM50.3998 57.8H47.9998V59H50.3998V57.8ZM50.9998 65.6V58.4H49.7998V65.6H50.9998ZM39.9998 66.2H50.3998V65H39.9998V66.2ZM39.3998 53.6V65.6H40.5998V53.6H39.3998ZM39.1998 53.4C39.3103 53.4 39.3998 53.4895 39.3998 53.6H40.5998C40.5998 52.8268 39.973 52.2 39.1998 52.2V53.4ZM34.5411 54.5414C34.5036 54.5789 34.4527 54.6 34.3997 54.6L34.4 55.8C34.7712 55.7999 35.1273 55.6524 35.3898 55.3898L34.5411 54.5414ZM34.7756 54.3069L34.5412 54.5413L35.3897 55.3899L35.6241 55.1555L34.7756 54.3069ZM35.7998 65.6V54.7312H34.5998V65.6H35.7998ZM32.7998 66.2H35.1998V65H32.7998V66.2ZM32.1998 55.2V65.6H33.3998V55.2H32.1998ZM34.3998 54.6H32.7998V55.8H34.3998V54.6ZM54.9998 56.8V55.2H53.7998V56.8H54.9998ZM51.9998 57.4H54.3998V56.2H51.9998V57.4ZM51.3998 55.2V56.8H52.5998V55.2H51.3998ZM54.3998 54.6H51.9998V55.8H54.3998V54.6ZM54.3998 57.8H51.9998V59H54.3998V57.8ZM54.9998 65.6V58.4H53.7998V65.6H54.9998ZM51.9998 66.2H54.3998V65H51.9998V66.2ZM51.3998 58.4V65.6H52.5998V58.4H51.3998ZM55.9998 57.4H65.5998V56.2H55.9998V57.4ZM55.3998 55.2V56.8H56.5998V55.2H55.3998ZM65.5998 54.6H55.9998V55.8H65.5998V54.6ZM66.1998 56.8V55.2H64.9998V56.8H66.1998ZM69.6929 53.1757L66.4929 49.9757L65.6444 50.8243L68.8444 54.0243L69.6929 53.1757ZM44.331 54.2H69.2686V53H44.331V54.2ZM40.7068 50.8243L43.9068 54.0243L44.7553 53.1757L41.5553 49.9757L40.7068 50.8243ZM66.0686 49.8H41.131V51H66.0686V49.8ZM37.2686 49.8H29.931V51H37.2686V49.8ZM34.4929 54.0243L37.6929 50.8243L36.8444 49.9757L33.6444 53.1757L34.4929 54.0243ZM26.731 54.2H34.0686V53H26.731V54.2ZM29.5068 49.9757L26.3068 53.1757L27.1553 54.0243L30.3553 50.8243L29.5068 49.9757ZM31.1998 54.6H29.5998V55.8H31.1998V54.6ZM31.7998 65.6V55.2H30.5998V65.6H31.7998ZM29.5998 66.2H31.1998V65H29.5998V66.2ZM28.9998 55.2V65.6H30.1998V55.2H28.9998ZM44.8 57.8C44.6895 57.8 44.6 57.7105 44.6 57.6H43.4C43.4 58.3732 44.0268 59 44.8 59V57.8ZM45 57.6C45 57.7105 44.9105 57.8 44.8 57.8V59C45.5732 59 46.2 58.3732 46.2 57.6H45ZM44.8 57.4C44.9105 57.4 45 57.4895 45 57.6H46.2C46.2 56.8268 45.5732 56.2 44.8 56.2V57.4ZM44.6 57.6C44.6 57.4895 44.6895 57.4 44.8 57.4V56.2C44.0268 56.2 43.4 56.8268 43.4 57.6H44.6ZM56.5523 34.1001C54.1774 38.2135 55.5867 43.473 59.7001 45.8479L60.3001 44.8087C56.7606 42.7652 55.548 38.2395 57.5915 34.7001L56.5523 34.1001ZM68.3001 30.9523C64.1867 28.5774 58.9271 29.9867 56.5523 34.1001L57.5915 34.7001C59.635 31.1606 64.1606 29.948 67.7001 31.9915L68.3001 30.9523ZM71.4479 42.7001C73.8228 38.5867 72.4135 33.3271 68.3001 30.9523L67.7001 31.9915C71.2395 34.035 72.4522 38.5606 70.4087 42.1001L71.4479 42.7001ZM59.7001 45.8479C63.8135 48.2228 69.073 46.8135 71.4479 42.7001L70.4087 42.1001C68.3652 45.6396 63.8396 46.8522 60.3001 44.8087L59.7001 45.8479ZM65.5012 44.0024C64.0154 44.4006 62.4322 44.1922 61.1001 43.423L60.5001 44.4623C62.1079 45.3905 64.0186 45.6421 65.8118 45.1616L65.5012 44.0024ZM69.023 41.3001C68.2539 42.6322 66.9871 43.6043 65.5012 44.0024L65.8118 45.1616C67.6051 44.6811 69.134 43.5079 70.0623 41.9001L69.023 41.3001ZM69.6024 36.8989C70.0006 38.3848 69.7922 39.9679 69.023 41.3001L70.0623 41.9001C70.9905 40.2923 71.2421 38.3816 70.7616 36.5883L69.6024 36.8989ZM66.9001 33.3771C68.2323 34.1463 69.2043 35.4131 69.6024 36.8989L70.7616 36.5883C70.2811 34.7951 69.1079 33.2662 67.5001 32.3379L66.9001 33.3771ZM62.4989 32.7977C63.9848 32.3996 65.5679 32.608 66.9001 33.3771L67.5001 32.3379C65.8923 31.4096 63.9816 31.1581 62.1883 31.6386L62.4989 32.7977ZM58.9771 35.5001C59.7463 34.1679 61.0131 33.1958 62.4989 32.7977L62.1883 31.6386C60.3951 32.1191 58.8662 33.2923 57.9379 34.9001L58.9771 35.5001ZM58.3977 39.9012C57.9996 38.4154 58.208 36.8322 58.9771 35.5001L57.9379 34.9001C57.0096 36.5079 56.7581 38.4186 57.2386 40.2118L58.3977 39.9012ZM61.1001 43.423C59.7679 42.6539 58.7958 41.3871 58.3977 39.9012L57.2386 40.2118C57.7191 42.0051 58.8923 43.534 60.5001 44.4623L61.1001 43.423ZM66.7785 38.3876L63.3491 36.4076L62.7491 37.4469L66.1785 39.4269L66.7785 38.3876ZM66.1982 40.5929L66.9982 39.2073L65.9589 38.6073L65.1589 39.9929L66.1982 40.5929ZM61.9491 38.8325L65.3785 40.8125L65.9785 39.7733L62.5491 37.7933L61.9491 38.8325ZM62.7725 39.2188C62.7253 38.9803 62.741 38.7337 62.8181 38.5032L61.68 38.1226C61.5369 38.5508 61.5077 39.0088 61.5953 39.4516L62.7725 39.2188ZM63.0871 39.8631C62.9281 39.6793 62.8196 39.4572 62.7725 39.2188L61.5953 39.4516C61.6829 39.8945 61.8843 40.3069 62.1796 40.6483L63.0871 39.8631ZM63.6795 40.2672C63.4503 40.1862 63.2462 40.0469 63.0871 39.8631L62.1796 40.6483C62.475 40.9896 62.8541 41.2482 63.2798 41.3986L63.6795 40.2672ZM64.3943 40.3249C64.155 40.368 63.9087 40.3481 63.6795 40.2672L63.2798 41.3986C63.7054 41.549 64.1629 41.5859 64.6072 41.5059L64.3943 40.3249ZM65.7631 42.1143L65.0385 40.6494L63.9629 41.1814L64.6875 42.6463L65.7631 42.1143ZM63.0367 42.9962C63.8139 43.2093 64.6361 43.1942 65.405 42.9528L65.0456 41.8079C64.4963 41.9803 63.9091 41.9911 63.3539 41.8389L63.0367 42.9962ZM61.0215 41.7512C61.5598 42.351 62.2594 42.7831 63.0367 42.9962L63.3539 41.8389C62.7987 41.6867 62.299 41.378 61.9145 40.9496L61.0215 41.7512ZM60.0005 39.6138C60.1287 40.4095 60.4831 41.1514 61.0215 41.7512L61.9145 40.9496C61.5299 40.5212 61.2768 39.9912 61.1852 39.4229L60.0005 39.6138ZM60.2984 37.2638C59.9757 38.0023 59.8723 38.8181 60.0005 39.6138L61.1852 39.4229C61.0936 38.8545 61.1675 38.2719 61.398 37.7444L60.2984 37.2638ZM59.836 37.6125L60.5482 38.0237L61.1482 36.9845L60.436 36.5733L59.836 37.6125ZM60.4164 35.4073L59.6164 36.7929L60.6556 37.3929L61.4556 36.0073L60.4164 35.4073ZM61.9475 35.5984L61.236 35.1876L60.636 36.2269L61.3475 36.6377L61.9475 35.5984ZM63.0509 34.3281C62.2974 34.6151 61.6425 35.113 61.1644 35.7623L62.1306 36.4739C62.4722 36.0101 62.9399 35.6545 63.4781 35.4494L63.0509 34.3281ZM65.4135 34.1434C64.6246 33.9769 63.8044 34.041 63.0509 34.3281L63.4781 35.4494C64.0163 35.2444 64.6022 35.1986 65.1657 35.3175L65.4135 34.1434ZM67.5 35.267C66.9267 34.6999 66.2024 34.3099 65.4135 34.1434L65.1657 35.3175C65.7292 35.4364 66.2466 35.7151 66.656 36.1201L67.5 35.267ZM68.6461 37.3412C68.4711 36.5541 68.0732 35.834 67.5 35.267L66.656 36.1201C67.0655 36.5251 67.3497 37.0395 67.4747 37.6017L68.6461 37.3412ZM66.4671 38.1748L68.0988 38.0702L68.022 36.8726L66.3903 36.9772L66.4671 38.1748ZM65.4567 37.1889C65.6414 37.3469 65.7818 37.5503 65.8641 37.779L66.9933 37.3729C66.8405 36.9481 66.5798 36.5704 66.2367 36.277L65.4567 37.1889ZM64.8106 36.8779C65.0493 36.9237 65.272 37.0309 65.4567 37.1889L66.2367 36.277C65.8937 35.9836 65.4802 35.7845 65.0368 35.6994L64.8106 36.8779ZM64.0953 36.9276C64.3254 36.8492 64.5719 36.8321 64.8106 36.8779L65.0368 35.6994C64.5935 35.6143 64.1357 35.6461 63.7083 35.7917L64.0953 36.9276ZM63.4984 37.3249C63.6595 37.1429 63.8652 37.006 64.0953 36.9276L63.7083 35.7917C63.281 35.9372 62.899 36.1916 62.5998 36.5296L63.4984 37.3249ZM36.5001 44.8087C32.9606 46.8522 28.435 45.6395 26.3915 42.1001L25.3523 42.7001C27.7271 46.8135 32.9867 48.2228 37.1001 45.8479L36.5001 44.8087ZM39.2087 34.7001C41.2522 38.2395 40.0395 42.7652 36.5001 44.8087L37.1001 45.8479C41.2135 43.473 42.6228 38.2135 40.2479 34.1001L39.2087 34.7001ZM29.1001 31.9915C32.6395 29.948 37.1652 31.1606 39.2087 34.7001L40.2479 34.1001C37.873 29.9867 32.6135 28.5774 28.5001 30.9523L29.1001 31.9915ZM26.3915 42.1001C24.348 38.5606 25.5606 34.035 29.1001 31.9915L28.5001 30.9523C24.3867 33.3271 22.9774 38.5867 25.3523 42.7001L26.3915 42.1001ZM36.3001 44.4623C37.9079 43.534 39.0811 42.0051 39.5616 40.2118L38.4024 39.9012C38.0043 41.3871 37.0322 42.6539 35.7001 43.423L36.3001 44.4623ZM30.9883 45.1616C32.7816 45.6421 34.6923 45.3905 36.3001 44.4623L35.7001 43.423C34.3679 44.1922 32.7848 44.4006 31.2989 44.0024L30.9883 45.1616ZM26.7379 41.9001C27.6662 43.5079 29.1951 44.6811 30.9883 45.1616L31.2989 44.0024C29.8131 43.6043 28.5463 42.6322 27.7771 41.3001L26.7379 41.9001ZM26.0386 36.5883C25.5581 38.3816 25.8096 40.2923 26.7379 41.9001L27.7771 41.3001C27.008 39.9679 26.7996 38.3848 27.1977 36.8989L26.0386 36.5883ZM29.3001 32.3379C27.6923 33.2662 26.5191 34.7951 26.0386 36.5883L27.1977 36.8989C27.5958 35.4131 28.5679 34.1463 29.9001 33.3771L29.3001 32.3379ZM34.6118 31.6386C32.8186 31.1581 30.9079 31.4096 29.3001 32.3379L29.9001 33.3771C31.2322 32.608 32.8154 32.3996 34.3012 32.7977L34.6118 31.6386ZM38.8623 34.9001C37.934 33.2923 36.4051 32.1191 34.6118 31.6386L34.3012 32.7977C35.7871 33.1958 37.0539 34.1679 37.823 35.5001L38.8623 34.9001ZM39.5616 40.2118C40.0421 38.4186 39.7905 36.5079 38.8623 34.9001L37.823 35.5001C38.5922 36.8322 38.8006 38.4154 38.4024 39.9012L39.5616 40.2118ZM31.3491 39.0069L34.7785 37.0269L34.1785 35.9876L30.7491 37.9676L31.3491 39.0069ZM30.3953 37.3485C30.3077 37.7914 30.3369 38.2494 30.48 38.6775L31.6181 38.297C31.541 38.0665 31.5253 37.8198 31.5725 37.5814L30.3953 37.3485ZM30.9796 36.1519C30.6843 36.4933 30.4829 36.9057 30.3953 37.3485L31.5725 37.5814C31.6196 37.3429 31.7281 37.1209 31.8871 36.937L30.9796 36.1519ZM32.0798 35.4015C31.6541 35.5519 31.275 35.8105 30.9796 36.1519L31.8871 36.937C32.0462 36.7532 32.2503 36.614 32.4795 36.533L32.0798 35.4015ZM33.4072 35.2943C32.9629 35.2142 32.5054 35.2512 32.0798 35.4015L32.4795 36.533C32.7087 36.452 32.955 36.4321 33.1942 36.4753L33.4072 35.2943ZM33.4882 34.1533L32.763 35.6186L33.8384 36.1509L34.5637 34.6856L33.4882 34.1533ZM32.1535 34.96C32.709 34.8079 33.2965 34.8189 33.8459 34.9918L34.206 33.8471C33.4369 33.6051 32.6144 33.5897 31.8367 33.8025L32.1535 34.96ZM30.7133 35.8493C31.0981 35.4208 31.598 35.112 32.1535 34.96L31.8367 33.8025C31.059 34.0154 30.359 34.4477 29.8204 35.0477L30.7133 35.8493ZM29.9838 37.3768C30.0753 36.8082 30.3286 36.2779 30.7133 35.8493L29.8204 35.0477C29.2817 35.6477 28.9272 36.39 28.799 37.1861L29.9838 37.3768ZM30.1972 39.056C29.9664 38.5283 29.8923 37.9454 29.9838 37.3768L28.799 37.1861C28.6709 37.9821 28.7746 38.7983 29.0978 39.537L30.1972 39.056ZM29.236 40.2269L29.9475 39.8161L29.3475 38.7768L28.636 39.1876L29.236 40.2269ZM30.2556 40.7929L29.4556 39.4073L28.4164 40.0073L29.2164 41.3929L30.2556 40.7929ZM30.1482 40.1621L29.436 40.5733L30.036 41.6125L30.7482 41.2013L30.1482 40.1621ZM32.2784 41.3492C31.7404 41.1444 31.2727 40.7891 30.9312 40.3257L29.9652 41.0377C30.4434 41.6864 31.0982 42.1839 31.8514 42.4707L32.2784 41.3492ZM33.9652 41.481C33.402 41.5999 32.8164 41.5541 32.2784 41.3492L31.8514 42.4707C32.6046 42.7575 33.4244 42.8215 34.2129 42.6552L33.9652 41.481ZM35.4551 40.6791C35.0457 41.0838 34.5285 41.3622 33.9652 41.481L34.2129 42.6552C35.0015 42.4888 35.7256 42.0991 36.2987 41.5325L35.4551 40.6791ZM36.2741 39.1986C36.1488 39.7604 35.8645 40.2744 35.4551 40.6791L36.2987 41.5325C36.8719 40.9659 37.2699 40.2463 37.4453 39.4597L36.2741 39.1986ZM35.1902 39.8229L36.8212 39.9279L36.8982 38.7304L35.2672 38.6254L35.1902 39.8229ZM35.0367 40.5231C35.3798 40.2297 35.6405 39.852 35.7933 39.4272L34.6641 39.0211C34.5818 39.2499 34.4414 39.4532 34.2567 39.6112L35.0367 40.5231ZM33.8368 41.1007C34.2802 41.0156 34.6937 40.8166 35.0367 40.5231L34.2567 39.6112C34.072 39.7692 33.8493 39.8764 33.6106 39.9222L33.8368 41.1007ZM32.5083 41.0085C32.9357 41.154 33.3935 41.1858 33.8368 41.1007L33.6106 39.9222C33.3719 39.9681 33.1254 39.9509 32.8953 39.8726L32.5083 41.0085ZM31.3998 40.2706C31.699 40.6086 32.081 40.8629 32.5083 41.0085L32.8953 39.8726C32.6652 39.7942 32.4595 39.6572 32.2984 39.4752L31.3998 40.2706ZM34.9785 37.3733L31.5491 39.3533L32.1491 40.3925L35.5785 38.4125L34.9785 37.3733ZM33.9589 36.8073L34.7589 38.1929L35.7982 37.5929L34.9982 36.2073L33.9589 36.8073ZM48 38.2C48.1105 38.2 48.2 38.2895 48.2 38.4H49.4C49.4 37.6268 48.7732 37 48 37V38.2ZM47.8 38.4C47.8 38.2895 47.8895 38.2 48 38.2V37C47.2268 37 46.6 37.6268 46.6 38.4H47.8ZM47.8 46.4V38.4H46.6V46.4H47.8ZM48 46.6C47.8895 46.6 47.8 46.5105 47.8 46.4H46.6C46.6 47.1732 47.2268 47.8 48 47.8V46.6ZM48.2 46.4C48.2 46.5105 48.1105 46.6 48 46.6V47.8C48.7732 47.8 49.4 47.1732 49.4 46.4H48.2ZM48.2 38.4V46.4H49.4V38.4H48.2ZM49.8 46.4C49.8 47.1732 50.4268 47.8 51.2 47.8V46.6C51.0895 46.6 51 46.5105 51 46.4H49.8ZM49.8 44V46.4H51V44H49.8ZM50.913 41.313C50.2004 42.0256 49.8 42.9922 49.8 44H51C51 43.3104 51.2739 42.6491 51.7615 42.1615L50.913 41.313ZM52.6598 40.3181C52.0044 40.4855 51.3995 40.8265 50.913 41.313L51.7615 42.1615C52.0944 41.8287 52.5082 41.5954 52.9567 41.4808L52.6598 40.3181ZM54.2 41.6C54.2 40.8824 53.5722 40.0851 52.6598 40.3181L52.9567 41.4808C52.963 41.4792 52.9598 41.4809 52.9529 41.479C52.9478 41.4776 52.9499 41.4767 52.9573 41.4835C52.9748 41.4997 53 41.5407 53 41.6H54.2ZM53.1206 43.1224C53.3557 42.994 53.6127 42.8136 53.8175 42.5746C54.0249 42.3325 54.2 42.0032 54.2 41.6H53C53 41.6386 52.9855 41.7013 52.9062 41.7938C52.8244 41.8893 52.6978 41.986 52.5453 42.0693L53.1206 43.1224ZM52.8929 43.2929C52.9609 43.2249 53.0377 43.1677 53.1205 43.1224L52.5453 42.0693C52.3629 42.169 52.1939 42.2948 52.0444 42.4444L52.8929 43.2929ZM52.6 44C52.6 43.7348 52.7054 43.4804 52.8929 43.2929L52.0444 42.4444C51.6318 42.8569 51.4 43.4165 51.4 44H52.6ZM52.6 46.4V44H51.4V46.4H52.6ZM51.2 47.8C51.9732 47.8 52.6 47.1732 52.6 46.4H51.4C51.4 46.5105 51.3105 46.6 51.2 46.6V47.8ZM45 46.4C45 46.5105 44.9105 46.6 44.8 46.6V47.8C45.5732 47.8 46.2 47.1732 46.2 46.4H45ZM45 42.4V46.4H46.2V42.4H45ZM44.2385 40.5615C44.7261 41.0491 45 41.7104 45 42.4H46.2C46.2 41.3922 45.7996 40.4256 45.087 39.713L44.2385 40.5615ZM43.0433 39.8808C43.4918 39.9954 43.9056 40.2287 44.2385 40.5615L45.087 39.713C44.6005 39.2265 43.9956 38.8855 43.3402 38.7181L43.0433 39.8808ZM43 40C43 39.9407 43.0252 39.8997 43.0427 39.8835C43.0501 39.8767 43.0522 39.8776 43.0471 39.879C43.0402 39.8809 43.037 39.8792 43.0433 39.8808L43.3402 38.7181C42.4278 38.4851 41.8 39.2823 41.8 40H43ZM43.4547 40.4693C43.3022 40.386 43.1756 40.2893 43.0938 40.1938C43.0145 40.1013 43 40.0386 43 40H41.8C41.8 40.4032 41.9751 40.7325 42.1825 40.9746C42.3873 41.2136 42.6443 41.394 42.8794 41.5224L43.4547 40.4693ZM43.9556 40.8444C43.8061 40.6948 43.6371 40.569 43.4547 40.4693L42.8794 41.5224C42.9623 41.5677 43.0391 41.6249 43.1071 41.6929L43.9556 40.8444ZM44.6 42.4C44.6 41.8165 44.3682 41.2569 43.9556 40.8444L43.1071 41.6929C43.2946 41.8804 43.4 42.1348 43.4 42.4H44.6ZM44.6 46.4V42.4H43.4V46.4H44.6ZM44.8 46.6C44.6895 46.6 44.6 46.5105 44.6 46.4H43.4C43.4 47.1732 44.0268 47.8 44.8 47.8V46.6ZM42.0305 20.0783C41.5054 19.5316 40.5955 19.4817 40.0464 20.0854L40.9342 20.8928C40.9602 20.8642 40.9933 20.8499 41.0341 20.8504C41.0773 20.8508 41.1259 20.8688 41.1651 20.9096L42.0305 20.0783ZM42.0456 22.0481C42.5253 21.507 42.5754 20.6457 42.0305 20.0783L41.1651 20.9096C41.2334 20.9808 41.2552 21.1307 41.1477 21.252L42.0456 22.0481ZM40.5147 24.4672C40.8921 23.5822 41.4095 22.7656 42.0456 22.0481L41.1477 21.252C40.426 22.066 39.839 22.9924 39.4109 23.9965L40.5147 24.4672ZM39.8001 27.9978C39.7957 26.7846 40.0389 25.5832 40.5147 24.4672L39.4109 23.9965C38.871 25.2627 38.5951 26.6257 38.6001 28.0021L39.8001 27.9978ZM38.5373 29.3935C39.285 29.3357 39.8001 28.6927 39.8001 27.9999H38.6001C38.6001 28.1237 38.5114 28.1919 38.4449 28.197L38.5373 29.3935ZM38.477 29.3981L38.5373 29.3935L38.4449 28.197L38.3846 28.2017L38.477 29.3981ZM37.0002 28.0653C37.0047 28.8838 37.718 29.4567 38.477 29.3981L38.3846 28.2017C38.3279 28.2061 38.2794 28.187 38.2467 28.1583C38.2158 28.1312 38.2004 28.098 38.2002 28.0588L37.0002 28.0653ZM37.0001 28.0015L37.0002 28.0636L38.2002 28.0604L38.2001 27.9983L37.0001 28.0015ZM37.9387 23.3694C37.3141 24.8337 36.9948 26.41 37.0001 28.0019L38.2001 27.9979C38.1953 26.5691 38.4819 25.1544 39.0425 23.8402L37.9387 23.3694ZM40.0464 20.0854C39.1664 21.053 38.4534 22.1627 37.9387 23.3694L39.0425 23.8402C39.5044 22.7572 40.1444 21.7612 40.9342 20.8928L40.0464 20.0854Z" fill="#AAFF5C" mask="url(#path-1-inside-1)"/>
<mask id="path-3-inside-2" fill="white">
<path fill-rule="evenodd" clip-rule="evenodd" d="M40.8 28C40.8 32.4184 44.3816 36 48.8 36C53.2184 36 56.8 32.4184 56.8 28C56.8 23.5816 53.2184 20 48.8 20C44.3816 20 40.8 23.5816 40.8 28ZM53.3255 32.5255C52.1252 33.7257 50.4974 34.4 48.8 34.4C47.1026 34.4 45.4747 33.7257 44.2745 32.5255C43.0743 31.3253 42.4 29.6974 42.4 28C42.4 26.3026 43.0743 24.6747 44.2745 23.4745C45.4747 22.2743 47.1026 21.6 48.8 21.6C50.4974 21.6 52.1252 22.2743 53.3255 23.4745C54.5257 24.6747 55.2 26.3026 55.2 28C55.2 29.6974 54.5257 31.3253 53.3255 32.5255ZM51.2 27.2H47.24C47.3093 26.8597 47.466 26.5434 47.6947 26.2821C47.9234 26.0207 48.2161 25.8235 48.5442 25.7096C48.8723 25.5958 49.2243 25.5694 49.5657 25.6329C49.9071 25.6965 50.226 25.8478 50.4912 26.072L51.852 25.1656C51.3848 24.6564 50.7808 24.2924 50.1123 24.1171C49.4438 23.9419 48.7389 23.9627 48.0819 24.1773C47.425 24.3918 46.8436 24.7909 46.4073 25.3269C45.9711 25.8629 45.6983 26.5132 45.6216 27.2H44.8V28.8H45.6224C45.6993 29.4865 45.9722 30.1364 46.4084 30.6721C46.8445 31.2078 47.4256 31.6066 48.0823 31.8211C48.739 32.0356 49.4435 32.0566 50.1118 31.8816C50.78 31.7067 51.3839 31.3431 51.8512 30.8344L50.4912 29.928C50.226 30.1522 49.9071 30.3035 49.5657 30.3671C49.2243 30.4306 48.8723 30.4042 48.5442 30.2904C48.2161 30.1765 47.9234 29.9793 47.6947 29.7179C47.466 29.4566 47.3093 29.1403 47.24 28.8H51.2V27.2ZM67.1998 65.6V58.4H68.7998C69.2417 58.4 69.5998 58.0418 69.5998 57.6C69.5998 57.1582 69.2417 56.8 68.7998 56.8H67.1998V55.2H71.1998C71.358 55.2 71.5127 55.153 71.6442 55.0651C71.7757 54.9772 71.8782 54.8523 71.9388 54.7061C71.9993 54.56 72.0152 54.3991 71.9843 54.244C71.9534 54.0888 71.8773 53.9463 71.7654 53.8344L66.9654 49.0344C66.8154 48.8844 66.612 48.8 66.3998 48.8H29.5998C29.3877 48.8 29.1842 48.8844 29.0342 49.0344L24.2342 53.8344C24.1224 53.9463 24.0462 54.0888 24.0154 54.244C23.9845 54.3991 24.0004 54.56 24.0609 54.7061C24.1214 54.8523 24.2239 54.9772 24.3555 55.0651C24.487 55.153 24.6416 55.2 24.7998 55.2H27.9998V65.6C27.9998 66.4837 28.7162 67.2 29.5998 67.2H65.5998C66.4835 67.2 67.1998 66.4837 67.1998 65.6ZM65.5998 65.6H55.9998V58.4H65.5998V65.6ZM39.1998 52.8C38.758 52.8 38.3998 53.1582 38.3998 53.6V65.6H36.7998V53.1312L39.1998 50.7312L43.4342 54.9656C43.5842 55.1156 43.7877 55.2 43.9998 55.2H50.3998V56.8H47.9998C47.558 56.8 47.1998 57.1582 47.1998 57.6C47.1998 58.0418 47.558 58.4 47.9998 58.4H50.3998V65.6H39.9998V53.6C39.9998 53.1582 39.6417 52.8 39.1998 52.8ZM34.3998 55.2C34.612 55.2 34.8154 55.1156 34.9654 54.9656L35.1998 54.7312V65.6H32.7998V55.2H34.3998ZM54.3998 55.2V56.8H51.9998V55.2H54.3998ZM51.9998 58.4H54.3998V65.6H51.9998V58.4ZM65.5998 56.8H55.9998V55.2H65.5998V56.8ZM66.0686 50.4L69.2686 53.6H44.331L41.131 50.4H66.0686ZM29.931 50.4H37.2686L34.0686 53.6H26.731L29.931 50.4ZM29.5998 55.2H31.1998V65.6H29.5998V55.2ZM44 57.6C44 58.0418 44.3582 58.4 44.8 58.4C45.2418 58.4 45.6 58.0418 45.6 57.6C45.6 57.1582 45.2418 56.8 44.8 56.8C44.3582 56.8 44 57.1582 44 57.6ZM60.0001 45.3283C56.1736 43.1191 54.8627 38.2265 57.0719 34.4001C59.2811 30.5736 64.1736 29.2627 68.0001 31.4719C71.8265 33.6811 73.1375 38.5736 70.9283 42.4001C68.7191 46.2265 63.8265 47.5375 60.0001 45.3283ZM60.8001 43.9426C62.2701 44.7913 64.017 45.0213 65.6565 44.582C67.2961 44.1427 68.6939 43.0701 69.5426 41.6001C70.3913 40.1301 70.6213 38.3832 70.182 36.7436C69.7427 35.1041 68.6701 33.7062 67.2001 32.8575C65.7301 32.0088 63.9832 31.7788 62.3436 32.2182C60.7041 32.6575 59.3062 33.7301 58.4575 35.2001C57.6088 36.6701 57.3788 38.417 57.8182 40.0565C58.2575 41.6961 59.3301 43.0939 60.8001 43.9426ZM63.0491 36.9273L66.4785 38.9073L65.6785 40.2929L62.2491 38.3129C62.139 38.6422 62.1165 38.9945 62.1839 39.3352C62.2513 39.6758 62.4062 39.9931 62.6334 40.2557C62.8606 40.5183 63.1522 40.7172 63.4797 40.8329C63.8071 40.9486 64.159 40.977 64.5007 40.9154L65.2253 42.3803C64.5662 42.5873 63.8615 42.6002 63.1953 42.4176C62.529 42.2349 61.9294 41.8645 61.468 41.3504C61.0065 40.8363 60.7027 40.2003 60.5928 39.5183C60.4829 38.8363 60.5716 38.1371 60.8482 37.5041L60.136 37.0929L60.936 35.7073L61.6475 36.1181C62.0573 35.5616 62.6187 35.1348 63.2645 34.8888C63.9104 34.6427 64.6134 34.5877 65.2896 34.7305C65.9658 34.8732 66.5867 35.2075 67.078 35.6935C67.5693 36.1796 67.9104 36.7968 68.0604 37.4714L66.4287 37.576C66.3112 37.2492 66.1106 36.9587 65.8467 36.733C65.5829 36.5073 65.2648 36.3541 64.9237 36.2887C64.5827 36.2232 64.2305 36.2477 63.9018 36.3596C63.5731 36.4716 63.2792 36.6672 63.0491 36.9273ZM25.8719 42.4001C28.0811 46.2265 32.9736 47.5375 36.8001 45.3283C40.6265 43.1191 41.9375 38.2265 39.7283 34.4001C37.5191 30.5736 32.6265 29.2627 28.8001 31.4719C24.9736 33.6811 23.6627 38.5736 25.8719 42.4001ZM38.982 40.0565C38.5427 41.6961 37.4701 43.0939 36.0001 43.9426C34.5301 44.7913 32.7832 45.0213 31.1436 44.582C29.5041 44.1427 28.1062 43.0701 27.2575 41.6001C26.4088 40.1301 26.1788 38.3832 26.6182 36.7436C27.0575 35.1041 28.1301 33.7062 29.6001 32.8575C31.0701 32.0088 32.817 31.7788 34.4565 32.2182C36.0961 32.6575 37.4939 33.7301 38.3426 35.2001C39.1913 36.6701 39.4213 38.417 38.982 40.0565ZM34.4785 36.5073L31.0491 38.4873C30.939 38.1579 30.9165 37.8056 30.9839 37.465C31.0513 37.1243 31.2062 36.8071 31.4334 36.5445C31.6606 36.2819 31.9522 36.0829 32.2797 35.9673C32.6071 35.8516 32.959 35.8232 33.3007 35.8848L34.026 34.4194C33.3667 34.212 32.6617 34.1988 31.9951 34.3813C31.3285 34.5637 30.7285 34.9342 30.2668 35.4485C29.8051 35.9628 29.5012 36.5991 29.3914 37.2814C29.2816 37.9638 29.3705 38.6633 29.6475 39.2965L28.936 39.7073L29.736 41.0929L30.4482 40.6817C30.8581 41.2378 31.4193 41.6641 32.0649 41.91C32.7105 42.1558 33.4132 42.2107 34.0891 42.0681C34.765 41.9255 35.3856 41.5915 35.8769 41.1058C36.3682 40.6201 36.7093 40.0034 36.8597 39.3291L35.2287 39.2242C35.1112 39.5509 34.9106 39.8415 34.6467 40.0672C34.3829 40.2929 34.0648 40.446 33.7237 40.5115C33.3827 40.5769 33.0305 40.5525 32.7018 40.4405C32.3731 40.3285 32.0792 40.1329 31.8491 39.8729L35.2785 37.8929L34.4785 36.5073ZM48.8 38.4C48.8 37.9582 48.4418 37.6 48 37.6C47.5582 37.6 47.2 37.9582 47.2 38.4V46.4C47.2 46.8418 47.5582 47.2 48 47.2C48.4418 47.2 48.8 46.8418 48.8 46.4V38.4ZM51.2 47.2C50.7582 47.2 50.4 46.8418 50.4 46.4V44C50.4 43.1513 50.7371 42.3374 51.3373 41.7373C51.7469 41.3276 52.2563 41.0404 52.8083 40.8995C53.2364 40.7902 53.6 41.1582 53.6 41.6C53.6 42.0418 53.2206 42.3841 52.8329 42.5959C52.7003 42.6683 52.5774 42.7598 52.4686 42.8686C52.1686 43.1687 52 43.5757 52 44V46.4C52 46.8418 51.6418 47.2 51.2 47.2ZM44.8 47.2C45.2418 47.2 45.6 46.8418 45.6 46.4V42.4C45.6 41.5513 45.2629 40.7374 44.6627 40.1373C44.2531 39.7276 43.7437 39.4405 43.1917 39.2995C42.7636 39.1902 42.4 39.5582 42.4 40C42.4 40.4418 42.7794 40.7841 43.1671 40.9959C43.2997 41.0683 43.4226 41.1598 43.5314 41.2686C43.8314 41.5687 44 41.9757 44 42.4V46.4C44 46.8418 44.3582 47.2 44.8 47.2ZM40.4903 20.4891C40.7864 20.1635 41.2929 20.1765 41.5978 20.494C41.9044 20.8132 41.8903 21.3188 41.5966 21.65C40.9177 22.4158 40.3655 23.2873 39.9628 24.2319C39.4549 25.4229 39.1954 26.7051 39.2001 27.9999C39.2001 28.4082 38.8982 28.7638 38.4911 28.7952L38.4308 28.7999C37.9902 28.8339 37.6026 28.504 37.6002 28.062L37.6001 27.9999C37.595 26.4896 37.898 24.994 38.4906 23.6048C38.9789 22.4599 39.6554 21.4071 40.4903 20.4891Z"/>
</mask>
<path d="M53.3255 32.5255L53.5376 32.7376L53.3255 32.5255ZM44.2745 32.5255L44.0624 32.7376V32.7376L44.2745 32.5255ZM44.2745 23.4745L44.0624 23.2624V23.2624L44.2745 23.4745ZM47.24 27.2L46.946 27.1401L46.8727 27.5H47.24V27.2ZM51.2 27.2H51.5V26.9H51.2V27.2ZM47.6947 26.2821L47.4689 26.0845L47.4689 26.0845L47.6947 26.2821ZM48.5442 25.7096L48.4459 25.4262H48.4459L48.5442 25.7096ZM49.5657 25.6329L49.5108 25.9279L49.5657 25.6329ZM50.4912 26.072L50.2975 26.3011L50.4697 26.4467L50.6575 26.3217L50.4912 26.072ZM51.852 25.1656L52.0183 25.4153L52.31 25.221L52.0731 24.9628L51.852 25.1656ZM48.0819 24.1773L47.9888 23.8921L48.0819 24.1773ZM46.4073 25.3269L46.1747 25.1375L46.4073 25.3269ZM45.6216 27.2V27.5H45.89L45.9197 27.2333L45.6216 27.2ZM44.8 27.2V26.9H44.5V27.2H44.8ZM44.8 28.8H44.5V29.1H44.8V28.8ZM45.6224 28.8L45.9205 28.7666L45.8907 28.5H45.6224V28.8ZM46.4084 30.6721L46.641 30.4826L46.4084 30.6721ZM48.0823 31.8211L47.9892 32.1063L48.0823 31.8211ZM50.1118 31.8816L50.1877 32.1719H50.1877L50.1118 31.8816ZM51.8512 30.8344L52.0721 31.0373L52.3093 30.7792L52.0176 30.5848L51.8512 30.8344ZM50.4912 29.928L50.6576 29.6784L50.4698 29.5532L50.2975 29.6989L50.4912 29.928ZM48.5442 30.2904L48.6425 30.0069H48.6425L48.5442 30.2904ZM47.6947 29.7179L47.4689 29.9155L47.4689 29.9155L47.6947 29.7179ZM47.24 28.8V28.5H46.8727L46.946 28.8599L47.24 28.8ZM51.2 28.8V29.1H51.5V28.8H51.2ZM67.1998 58.4V58.1H66.8998V58.4H67.1998ZM67.1998 56.8H66.8998V57.1H67.1998V56.8ZM67.1998 55.2V54.9H66.8998V55.2H67.1998ZM71.1998 55.2V55.5H71.1999L71.1998 55.2ZM71.6442 55.0651L71.8109 55.3145L71.8109 55.3145L71.6442 55.0651ZM71.9843 54.244L71.6901 54.3025V54.3025L71.9843 54.244ZM71.7654 53.8344L71.9776 53.6223L71.9776 53.6223L71.7654 53.8344ZM66.9654 49.0344L66.7533 49.2465L66.7533 49.2465L66.9654 49.0344ZM66.3998 48.8L66.3999 48.5H66.3998V48.8ZM29.5998 48.8V48.5H29.5998L29.5998 48.8ZM29.0342 49.0344L29.2464 49.2465L29.2464 49.2465L29.0342 49.0344ZM24.2342 53.8344L24.0221 53.6223L24.0221 53.6223L24.2342 53.8344ZM24.0609 54.7061L23.7837 54.8209L24.0609 54.7061ZM24.3555 55.0651L24.1888 55.3145H24.1888L24.3555 55.0651ZM24.7998 55.2L24.7998 55.5H24.7998V55.2ZM27.9998 55.2H28.2998V54.9H27.9998V55.2ZM55.9998 65.6H55.6998V65.9H55.9998V65.6ZM65.5998 65.6V65.9H65.8998V65.6H65.5998ZM55.9998 58.4V58.1H55.6998V58.4H55.9998ZM65.5998 58.4H65.8998V58.1H65.5998V58.4ZM38.3998 65.6V65.9H38.6998V65.6H38.3998ZM36.7998 65.6H36.4998V65.9H36.7998V65.6ZM36.7998 53.1312L36.5877 52.9191L36.4998 53.0069V53.1312H36.7998ZM39.1998 50.7312L39.412 50.5191L39.1998 50.3069L38.9877 50.5191L39.1998 50.7312ZM43.4342 54.9656L43.6464 54.7535L43.6464 54.7535L43.4342 54.9656ZM43.9998 55.2L43.9998 55.5H43.9998V55.2ZM50.3998 55.2H50.6998V54.9H50.3998V55.2ZM50.3998 56.8V57.1H50.6998V56.8H50.3998ZM50.3998 58.4H50.6998V58.1H50.3998V58.4ZM50.3998 65.6V65.9H50.6998V65.6H50.3998ZM39.9998 65.6H39.6998V65.9H39.9998V65.6ZM34.9654 54.9656L34.7533 54.7535L34.7533 54.7535L34.9654 54.9656ZM34.3998 55.2V55.5H34.3999L34.3998 55.2ZM35.1998 54.7312H35.4998V54.0069L34.9877 54.5191L35.1998 54.7312ZM35.1998 65.6V65.9H35.4998V65.6H35.1998ZM32.7998 65.6H32.4998V65.9H32.7998V65.6ZM32.7998 55.2V54.9H32.4998V55.2H32.7998ZM54.3998 56.8V57.1H54.6998V56.8H54.3998ZM54.3998 55.2H54.6998V54.9H54.3998V55.2ZM51.9998 56.8H51.6998V57.1H51.9998V56.8ZM51.9998 55.2V54.9H51.6998V55.2H51.9998ZM54.3998 58.4H54.6998V58.1H54.3998V58.4ZM51.9998 58.4V58.1H51.6998V58.4H51.9998ZM54.3998 65.6V65.9H54.6998V65.6H54.3998ZM51.9998 65.6H51.6998V65.9H51.9998V65.6ZM55.9998 56.8H55.6998V57.1H55.9998V56.8ZM65.5998 56.8V57.1H65.8998V56.8H65.5998ZM55.9998 55.2V54.9H55.6998V55.2H55.9998ZM65.5998 55.2H65.8998V54.9H65.5998V55.2ZM69.2686 53.6V53.9H69.9929L69.4808 53.3879L69.2686 53.6ZM66.0686 50.4L66.2808 50.1879L66.1929 50.1H66.0686V50.4ZM44.331 53.6L44.1189 53.8121L44.2068 53.9H44.331V53.6ZM41.131 50.4V50.1H40.4068L40.9189 50.6121L41.131 50.4ZM37.2686 50.4L37.4808 50.6121L37.9929 50.1H37.2686V50.4ZM29.931 50.4V50.1H29.8068L29.7189 50.1879L29.931 50.4ZM34.0686 53.6V53.9H34.1929L34.2808 53.8121L34.0686 53.6ZM26.731 53.6L26.5189 53.3879L26.0068 53.9H26.731V53.6ZM31.1998 55.2H31.4998V54.9H31.1998V55.2ZM29.5998 55.2V54.9H29.2998V55.2H29.5998ZM31.1998 65.6V65.9H31.4998V65.6H31.1998ZM29.5998 65.6H29.2998V65.9H29.5998V65.6ZM57.0719 34.4001L56.8121 34.2501L57.0719 34.4001ZM60.0001 45.3283L60.1501 45.0685L60.0001 45.3283ZM68.0001 31.4719L68.1501 31.2121L68.0001 31.4719ZM70.9283 42.4001L70.6685 42.2501L70.9283 42.4001ZM60.8001 43.9426L60.6501 44.2024L60.8001 43.9426ZM69.5426 41.6001L69.2828 41.4501L69.5426 41.6001ZM67.2001 32.8575L67.0501 33.1173L67.2001 32.8575ZM62.3436 32.2182L62.4213 32.5079L62.3436 32.2182ZM58.4575 35.2001L58.1977 35.0501V35.0501L58.4575 35.2001ZM57.8182 40.0565L58.1079 39.9789L57.8182 40.0565ZM66.4785 38.9073L66.7383 39.0573L66.8883 38.7975L66.6285 38.6475L66.4785 38.9073ZM63.0491 36.9273L62.8244 36.7284L62.581 37.0034L62.8991 37.1871L63.0491 36.9273ZM65.6785 40.2929L65.5285 40.5527L65.7883 40.7027L65.9383 40.4429L65.6785 40.2929ZM62.2491 38.3129L62.3991 38.0531L62.081 37.8695L61.9646 38.2178L62.2491 38.3129ZM62.1839 39.3352L61.8896 39.3934L61.8896 39.3934L62.1839 39.3352ZM62.6334 40.2557L62.4065 40.452L62.4065 40.452L62.6334 40.2557ZM63.4797 40.8329L63.3797 41.1158H63.3797L63.4797 40.8329ZM64.5007 40.9154L64.7696 40.7824L64.6696 40.5801L64.4475 40.6201L64.5007 40.9154ZM65.2253 42.3803L65.3152 42.6666L65.6496 42.5616L65.4942 42.2473L65.2253 42.3803ZM63.1953 42.4176L63.2746 42.1282L63.1953 42.4176ZM60.5928 39.5183L60.889 39.4706V39.4706L60.5928 39.5183ZM60.8482 37.5041L61.1231 37.6242L61.2305 37.3784L60.9982 37.2443L60.8482 37.5041ZM60.136 37.0929L59.8762 36.9429L59.7262 37.2027L59.986 37.3527L60.136 37.0929ZM60.936 35.7073L61.086 35.4475L60.8262 35.2975L60.6762 35.5573L60.936 35.7073ZM61.6475 36.1181L61.4975 36.3779L61.7299 36.5121L61.8891 36.296L61.6475 36.1181ZM63.2645 34.8888L63.3713 35.1691V35.1691L63.2645 34.8888ZM65.2896 34.7305L65.3515 34.4369L65.2896 34.7305ZM67.078 35.6935L67.289 35.4803V35.4803L67.078 35.6935ZM68.0604 37.4714L68.0796 37.7708L68.4293 37.7484L68.3532 37.4063L68.0604 37.4714ZM66.4287 37.576L66.1464 37.6775L66.2227 37.8898L66.4479 37.8754L66.4287 37.576ZM65.8467 36.733L65.6517 36.9609V36.961L65.8467 36.733ZM64.9237 36.2887L64.9803 35.9941L64.9237 36.2887ZM36.8001 45.3283L36.9501 45.5881H36.9501L36.8001 45.3283ZM25.8719 42.4001L25.6121 42.5501L25.8719 42.4001ZM39.7283 34.4001L39.9881 34.2501L39.7283 34.4001ZM28.8001 31.4719L28.6501 31.2121L28.8001 31.4719ZM36.0001 43.9426L35.8501 43.6828L36.0001 43.9426ZM38.982 40.0565L39.2718 40.1342L38.982 40.0565ZM31.1436 44.582L31.066 44.8718L31.1436 44.582ZM27.2575 41.6001L26.9977 41.7501L27.2575 41.6001ZM26.6182 36.7436L26.9079 36.8213L26.6182 36.7436ZM29.6001 32.8575L29.4501 32.5977H29.4501L29.6001 32.8575ZM38.3426 35.2001L38.6024 35.0501L38.3426 35.2001ZM31.0491 38.4873L30.7646 38.5824L30.881 38.9307L31.1991 38.7471L31.0491 38.4873ZM34.4785 36.5073L34.7383 36.3573L34.5883 36.0975L34.3285 36.2474L34.4785 36.5073ZM31.4334 36.5445L31.6602 36.7408H31.6602L31.4334 36.5445ZM32.2797 35.9673L32.1797 35.6844V35.6844L32.2797 35.9673ZM33.3007 35.8848L33.2475 36.18L33.4695 36.22L33.5696 36.0179L33.3007 35.8848ZM34.026 34.4194L34.2949 34.5525L34.4503 34.2384L34.116 34.1332L34.026 34.4194ZM31.9951 34.3813L31.9159 34.0919H31.9159L31.9951 34.3813ZM30.2668 35.4485L30.4901 35.6489L30.2668 35.4485ZM29.3914 37.2814L29.6876 37.3291H29.6876L29.3914 37.2814ZM29.6475 39.2965L29.7975 39.5563L30.0299 39.4221L29.9223 39.1762L29.6475 39.2965ZM28.936 39.7073L28.786 39.4475L28.5262 39.5975L28.6762 39.8573L28.936 39.7073ZM29.736 41.0929L29.4762 41.2429L29.6262 41.5027L29.886 41.3527L29.736 41.0929ZM30.4482 40.6817L30.6897 40.5037L30.5305 40.2878L30.2982 40.4219L30.4482 40.6817ZM32.0649 41.91L32.1716 41.6296L32.0649 41.91ZM34.0891 42.0681L34.0272 41.7746H34.0272L34.0891 42.0681ZM36.8597 39.3291L37.1525 39.3944L37.2288 39.0523L36.879 39.0298L36.8597 39.3291ZM35.2287 39.2242L35.248 38.9248L35.0228 38.9103L34.9464 39.1226L35.2287 39.2242ZM34.6467 40.0672L34.8417 40.2952V40.2952L34.6467 40.0672ZM33.7237 40.5115L33.6672 40.2169L33.7237 40.5115ZM32.7018 40.4405L32.6051 40.7245H32.6051L32.7018 40.4405ZM31.8491 39.8729L31.6991 39.6131L31.381 39.7967L31.6244 40.0717L31.8491 39.8729ZM35.2785 37.8929L35.4285 38.1527L35.6883 38.0027L35.5383 37.7429L35.2785 37.8929ZM51.3373 41.7373L51.1251 41.5251L51.3373 41.7373ZM52.8083 40.8995L52.8825 41.1901L52.8083 40.8995ZM52.8329 42.5959L52.9767 42.8592L52.9767 42.8591L52.8329 42.5959ZM52.4686 42.8686L52.2565 42.6565L52.2565 42.6565L52.4686 42.8686ZM43.1917 39.2995L43.1175 39.5901L43.1917 39.2995ZM43.1671 40.9959L43.0233 41.2592H43.0233L43.1671 40.9959ZM41.5978 20.494L41.8142 20.2861V20.2861L41.5978 20.494ZM40.4903 20.4891L40.2684 20.2872V20.2872L40.4903 20.4891ZM41.5966 21.65L41.8211 21.8491V21.8491L41.5966 21.65ZM39.9628 24.2319L40.2388 24.3495L39.9628 24.2319ZM39.2001 27.9999H39.5001L39.5001 27.9988L39.2001 27.9999ZM38.4911 28.7952L38.5142 29.0943H38.5142L38.4911 28.7952ZM38.4308 28.7999L38.4077 28.5008H38.4077L38.4308 28.7999ZM37.6002 28.062L37.3002 28.0628L37.3002 28.0636L37.6002 28.062ZM37.6001 27.9999L37.9001 27.9991L37.9001 27.9989L37.6001 27.9999ZM38.4906 23.6048L38.7666 23.7225L38.4906 23.6048ZM48.8 35.7C44.5473 35.7 41.1 32.2527 41.1 28H40.5C40.5 32.5841 44.2159 36.3 48.8 36.3V35.7ZM56.5 28C56.5 32.2527 53.0527 35.7 48.8 35.7V36.3C53.3841 36.3 57.1 32.5841 57.1 28H56.5ZM48.8 20.3C53.0527 20.3 56.5 23.7473 56.5 28H57.1C57.1 23.4159 53.3841 19.7 48.8 19.7V20.3ZM41.1 28C41.1 23.7473 44.5473 20.3 48.8 20.3V19.7C44.2159 19.7 40.5 23.4159 40.5 28H41.1ZM48.8 34.7C50.577 34.7 52.2811 33.9941 53.5376 32.7376L53.1134 32.3134C51.9694 33.4573 50.4178 34.1 48.8 34.1V34.7ZM44.0624 32.7376C45.3189 33.9941 47.023 34.7 48.8 34.7V34.1C47.1822 34.1 45.6306 33.4573 44.4866 32.3134L44.0624 32.7376ZM42.1 28C42.1 29.777 42.8059 31.4811 44.0624 32.7376L44.4866 32.3134C43.3427 31.1694 42.7 29.6178 42.7 28H42.1ZM44.0624 23.2624C42.8059 24.5189 42.1 26.223 42.1 28H42.7C42.7 26.3822 43.3427 24.8306 44.4866 23.6866L44.0624 23.2624ZM48.8 21.3C47.023 21.3 45.3189 22.0059 44.0624 23.2624L44.4866 23.6866C45.6306 22.5427 47.1822 21.9 48.8 21.9V21.3ZM53.5376 23.2624C52.2811 22.0059 50.577 21.3 48.8 21.3V21.9C50.4178 21.9 51.9694 22.5427 53.1134 23.6866L53.5376 23.2624ZM55.5 28C55.5 26.2231 54.7941 24.5189 53.5376 23.2624L53.1134 23.6866C54.2573 24.8306 54.9 26.3822 54.9 28H55.5ZM53.5376 32.7376C54.7941 31.4811 55.5 29.777 55.5 28H54.9C54.9 29.6178 54.2573 31.1694 53.1134 32.3134L53.5376 32.7376ZM47.24 27.5H51.2V26.9H47.24V27.5ZM47.4689 26.0845C47.2059 26.385 47.0257 26.7488 46.946 27.1401L47.534 27.2599C47.5929 26.9707 47.7261 26.7017 47.9204 26.4796L47.4689 26.0845ZM48.4459 25.4262C48.0686 25.5571 47.7319 25.784 47.4689 26.0845L47.9204 26.4796C48.1148 26.2575 48.3637 26.0898 48.6425 25.9931L48.4459 25.4262ZM49.6206 25.338C49.228 25.2649 48.8231 25.2953 48.4459 25.4262L48.6425 25.9931C48.9214 25.8963 49.2206 25.8738 49.5108 25.9279L49.6206 25.338ZM50.6849 25.8429C50.38 25.5851 50.0132 25.411 49.6206 25.338L49.5108 25.9279C49.801 25.9819 50.0721 26.1105 50.2975 26.3011L50.6849 25.8429ZM51.6857 24.9159L50.3249 25.8223L50.6575 26.3217L52.0183 25.4153L51.6857 24.9159ZM50.0362 24.4073C50.649 24.568 51.2026 24.9016 51.6309 25.3684L52.0731 24.9628C51.5669 24.4111 50.9126 24.0168 50.1884 23.8269L50.0362 24.4073ZM48.1751 24.4624C48.7773 24.2658 49.4234 24.2467 50.0362 24.4073L50.1884 23.8269C49.4641 23.6371 48.7005 23.6597 47.9888 23.8921L48.1751 24.4624ZM46.64 25.5163C47.0399 25.0249 47.5728 24.6591 48.1751 24.4624L47.9888 23.8921C47.2771 24.1245 46.6473 24.5568 46.1747 25.1375L46.64 25.5163ZM45.9197 27.2333C45.99 26.6037 46.2401 26.0076 46.64 25.5163L46.1747 25.1375C45.702 25.7182 45.4065 26.4226 45.3235 27.1667L45.9197 27.2333ZM44.8 27.5H45.6216V26.9H44.8V27.5ZM45.1 28.8V27.2H44.5V28.8H45.1ZM45.6224 28.5H44.8V29.1H45.6224V28.5ZM46.641 30.4826C46.2412 29.9916 45.9911 29.3959 45.9205 28.7666L45.3243 28.8334C45.4076 29.5771 45.7032 30.2812 46.1757 30.8615L46.641 30.4826ZM48.1754 31.5359C47.5735 31.3393 47.0408 30.9737 46.641 30.4826L46.1757 30.8615C46.6483 31.4418 47.2778 31.8739 47.9892 32.1063L48.1754 31.5359ZM50.0358 31.5914C49.4232 31.7518 48.7774 31.7325 48.1754 31.5359L47.9892 32.1063C48.7005 32.3386 49.4638 32.3614 50.1877 32.1719L50.0358 31.5914ZM51.6303 30.6315C51.2019 31.0978 50.6484 31.431 50.0358 31.5914L50.1877 32.1719C50.9117 31.9823 51.5659 31.5885 52.0721 31.0373L51.6303 30.6315ZM50.3248 30.1776L51.6848 31.084L52.0176 30.5848L50.6576 29.6784L50.3248 30.1776ZM49.6206 30.662C50.0132 30.589 50.38 30.4149 50.6849 30.1571L50.2975 29.6989C50.0721 29.8895 49.801 30.0181 49.5108 30.0722L49.6206 30.662ZM48.4459 30.5738C48.8231 30.7047 49.228 30.7351 49.6206 30.662L49.5108 30.0722C49.2206 30.1262 48.9214 30.1037 48.6425 30.0069L48.4459 30.5738ZM47.4689 29.9155C47.7319 30.216 48.0686 30.4429 48.4459 30.5738L48.6425 30.0069C48.3637 29.9102 48.1148 29.7425 47.9204 29.5204L47.4689 29.9155ZM46.946 28.8599C47.0257 29.2512 47.2059 29.615 47.4689 29.9155L47.9204 29.5204C47.7261 29.2983 47.5929 29.0293 47.534 28.7401L46.946 28.8599ZM51.2 28.5H47.24V29.1H51.2V28.5ZM50.9 27.2V28.8H51.5V27.2H50.9ZM66.8998 58.4V65.6H67.4998V58.4H66.8998ZM68.7998 58.1H67.1998V58.7H68.7998V58.1ZM69.2998 57.6C69.2998 57.8761 69.076 58.1 68.7998 58.1V58.7C69.4073 58.7 69.8998 58.2075 69.8998 57.6H69.2998ZM68.7998 57.1C69.076 57.1 69.2998 57.3239 69.2998 57.6H69.8998C69.8998 56.9925 69.4073 56.5 68.7998 56.5V57.1ZM67.1998 57.1H68.7998V56.5H67.1998V57.1ZM66.8998 55.2V56.8H67.4998V55.2H66.8998ZM71.1998 54.9H67.1998V55.5H71.1998V54.9ZM71.4775 54.8157C71.3953 54.8706 71.2986 54.9 71.1998 54.9L71.1999 55.5C71.4174 55.5 71.63 55.4354 71.8109 55.3145L71.4775 54.8157ZM71.6616 54.5913C71.6238 54.6827 71.5597 54.7608 71.4775 54.8157L71.8109 55.3145C71.9917 55.1937 72.1327 55.0219 72.2159 54.8209L71.6616 54.5913ZM71.6901 54.3025C71.7093 54.3995 71.6994 54.5 71.6616 54.5913L72.2159 54.8209C72.2992 54.62 72.321 54.3988 72.2785 54.1855L71.6901 54.3025ZM71.5533 54.0465C71.6232 54.1164 71.6708 54.2055 71.6901 54.3025L72.2785 54.1855C72.2361 53.9721 72.1314 53.7761 71.9776 53.6223L71.5533 54.0465ZM66.7533 49.2465L71.5533 54.0465L71.9776 53.6223L67.1776 48.8223L66.7533 49.2465ZM66.3998 49.1C66.5324 49.1 66.6595 49.1527 66.7533 49.2465L67.1776 48.8223C66.9714 48.616 66.6916 48.5001 66.3999 48.5L66.3998 49.1ZM29.5998 49.1H66.3998V48.5H29.5998V49.1ZM29.2464 49.2465C29.3401 49.1527 29.4673 49.1 29.5999 49.1L29.5998 48.5C29.3081 48.5001 29.0283 48.616 28.8221 48.8223L29.2464 49.2465ZM24.4464 54.0465L29.2464 49.2465L28.8221 48.8223L24.0221 53.6223L24.4464 54.0465ZM24.3096 54.3025C24.3289 54.2055 24.3765 54.1164 24.4464 54.0465L24.0221 53.6223C23.8683 53.7761 23.7635 53.9721 23.7211 54.1855L24.3096 54.3025ZM24.3381 54.5913C24.3002 54.5 24.2903 54.3995 24.3096 54.3025L23.7211 54.1855C23.6787 54.3988 23.7005 54.62 23.7837 54.8209L24.3381 54.5913ZM24.5222 54.8157C24.44 54.7608 24.3759 54.6827 24.3381 54.5913L23.7837 54.8209C23.867 55.0219 24.0079 55.1937 24.1888 55.3145L24.5222 54.8157ZM24.7999 54.9C24.701 54.9 24.6044 54.8706 24.5222 54.8157L24.1888 55.3145C24.3696 55.4354 24.5822 55.5 24.7998 55.5L24.7999 54.9ZM27.9998 54.9H24.7998V55.5H27.9998V54.9ZM28.2998 65.6V55.2H27.6998V65.6H28.2998ZM29.5998 66.9C28.8819 66.9 28.2998 66.318 28.2998 65.6H27.6998C27.6998 66.6493 28.5505 67.5 29.5998 67.5V66.9ZM65.5998 66.9H29.5998V67.5H65.5998V66.9ZM66.8998 65.6C66.8998 66.318 66.3178 66.9 65.5998 66.9V67.5C66.6492 67.5 67.4998 66.6493 67.4998 65.6H66.8998ZM55.9998 65.9H65.5998V65.3H55.9998V65.9ZM55.6998 58.4V65.6H56.2998V58.4H55.6998ZM65.5998 58.1H55.9998V58.7H65.5998V58.1ZM65.8998 65.6V58.4H65.2998V65.6H65.8998ZM38.6998 53.6C38.6998 53.3239 38.9237 53.1 39.1998 53.1V52.5C38.5923 52.5 38.0998 52.9925 38.0998 53.6H38.6998ZM38.6998 65.6V53.6H38.0998V65.6H38.6998ZM36.7998 65.9H38.3998V65.3H36.7998V65.9ZM36.4998 53.1312V65.6H37.0998V53.1312H36.4998ZM38.9877 50.5191L36.5877 52.9191L37.012 53.3433L39.412 50.9433L38.9877 50.5191ZM43.6464 54.7535L39.412 50.5191L38.9877 50.9433L43.2221 55.1777L43.6464 54.7535ZM43.9999 54.9C43.8673 54.9 43.7401 54.8473 43.6464 54.7535L43.2221 55.1777C43.4283 55.384 43.7081 55.4999 43.9998 55.5L43.9999 54.9ZM50.3998 54.9H43.9998V55.5H50.3998V54.9ZM50.6998 56.8V55.2H50.0998V56.8H50.6998ZM47.9998 57.1H50.3998V56.5H47.9998V57.1ZM47.4998 57.6C47.4998 57.3239 47.7237 57.1 47.9998 57.1V56.5C47.3923 56.5 46.8998 56.9925 46.8998 57.6H47.4998ZM47.9998 58.1C47.7237 58.1 47.4998 57.8761 47.4998 57.6H46.8998C46.8998 58.2075 47.3923 58.7 47.9998 58.7V58.1ZM50.3998 58.1H47.9998V58.7H50.3998V58.1ZM50.6998 65.6V58.4H50.0998V65.6H50.6998ZM39.9998 65.9H50.3998V65.3H39.9998V65.9ZM39.6998 53.6V65.6H40.2998V53.6H39.6998ZM39.1998 53.1C39.476 53.1 39.6998 53.3239 39.6998 53.6H40.2998C40.2998 52.9925 39.8073 52.5 39.1998 52.5V53.1ZM34.7533 54.7535C34.6595 54.8473 34.5324 54.9 34.3998 54.9L34.3999 55.5C34.6916 55.4999 34.9713 55.384 35.1776 55.1777L34.7533 54.7535ZM34.9877 54.5191L34.7533 54.7535L35.1776 55.1777L35.412 54.9433L34.9877 54.5191ZM35.4998 65.6V54.7312H34.8998V65.6H35.4998ZM32.7998 65.9H35.1998V65.3H32.7998V65.9ZM32.4998 55.2V65.6H33.0998V55.2H32.4998ZM34.3998 54.9H32.7998V55.5H34.3998V54.9ZM54.6998 56.8V55.2H54.0998V56.8H54.6998ZM51.9998 57.1H54.3998V56.5H51.9998V57.1ZM51.6998 55.2V56.8H52.2998V55.2H51.6998ZM54.3998 54.9H51.9998V55.5H54.3998V54.9ZM54.3998 58.1H51.9998V58.7H54.3998V58.1ZM54.6998 65.6V58.4H54.0998V65.6H54.6998ZM51.9998 65.9H54.3998V65.3H51.9998V65.9ZM51.6998 58.4V65.6H52.2998V58.4H51.6998ZM55.9998 57.1H65.5998V56.5H55.9998V57.1ZM55.6998 55.2V56.8H56.2998V55.2H55.6998ZM65.5998 54.9H55.9998V55.5H65.5998V54.9ZM65.8998 56.8V55.2H65.2998V56.8H65.8998ZM69.4808 53.3879L66.2808 50.1879L65.8565 50.6121L69.0565 53.8121L69.4808 53.3879ZM44.331 53.9H69.2686V53.3H44.331V53.9ZM40.9189 50.6121L44.1189 53.8121L44.5432 53.3879L41.3432 50.1879L40.9189 50.6121ZM66.0686 50.1H41.131V50.7H66.0686V50.1ZM37.2686 50.1H29.931V50.7H37.2686V50.1ZM34.2808 53.8121L37.4808 50.6121L37.0565 50.1879L33.8565 53.3879L34.2808 53.8121ZM26.731 53.9H34.0686V53.3H26.731V53.9ZM29.7189 50.1879L26.5189 53.3879L26.9432 53.8121L30.1432 50.6121L29.7189 50.1879ZM31.1998 54.9H29.5998V55.5H31.1998V54.9ZM31.4998 65.6V55.2H30.8998V65.6H31.4998ZM29.5998 65.9H31.1998V65.3H29.5998V65.9ZM29.2998 55.2V65.6H29.8998V55.2H29.2998ZM44.8 58.1C44.5239 58.1 44.3 57.8761 44.3 57.6H43.7C43.7 58.2075 44.1925 58.7 44.8 58.7V58.1ZM45.3 57.6C45.3 57.8761 45.0761 58.1 44.8 58.1V58.7C45.4075 58.7 45.9 58.2075 45.9 57.6H45.3ZM44.8 57.1C45.0761 57.1 45.3 57.3239 45.3 57.6H45.9C45.9 56.9925 45.4075 56.5 44.8 56.5V57.1ZM44.3 57.6C44.3 57.3239 44.5239 57.1 44.8 57.1V56.5C44.1925 56.5 43.7 56.9925 43.7 57.6H44.3ZM56.8121 34.2501C54.52 38.22 55.8801 43.296 59.8501 45.5881L60.1501 45.0685C56.4671 42.9421 55.2053 38.233 57.3317 34.5501L56.8121 34.2501ZM68.1501 31.2121C64.1801 28.92 59.1041 30.2801 56.8121 34.2501L57.3317 34.5501C59.458 30.8671 64.1671 29.6053 67.8501 31.7317L68.1501 31.2121ZM71.1881 42.5501C73.4801 38.5801 72.12 33.5041 68.1501 31.2121L67.8501 31.7317C71.533 33.858 72.7948 38.5671 70.6685 42.2501L71.1881 42.5501ZM59.8501 45.5881C63.82 47.8801 68.896 46.52 71.1881 42.5501L70.6685 42.2501C68.5421 45.933 63.833 47.1948 60.1501 45.0685L59.8501 45.5881ZM65.5789 44.2922C64.0162 44.7109 62.3512 44.4917 60.9501 43.6828L60.6501 44.2024C62.189 45.0909 64.0178 45.3317 65.7342 44.8718L65.5789 44.2922ZM69.2828 41.4501C68.4739 42.8512 67.1416 43.8735 65.5789 44.2922L65.7342 44.8718C67.4506 44.4119 68.914 43.289 69.8024 41.7501L69.2828 41.4501ZM69.8922 36.8213C70.3109 38.384 70.0917 40.049 69.2828 41.4501L69.8024 41.7501C70.6909 40.2112 70.9317 38.3824 70.4718 36.666L69.8922 36.8213ZM67.0501 33.1173C68.4512 33.9262 69.4735 35.2586 69.8922 36.8213L70.4718 36.666C70.0119 34.9496 68.889 33.4862 67.3501 32.5977L67.0501 33.1173ZM62.4213 32.5079C63.984 32.0892 65.649 32.3084 67.0501 33.1173L67.3501 32.5977C65.8112 31.7092 63.9824 31.4685 62.266 31.9284L62.4213 32.5079ZM58.7173 35.3501C59.5262 33.949 60.8586 32.9267 62.4213 32.5079L62.266 31.9284C60.5496 32.3883 59.0862 33.5112 58.1977 35.0501L58.7173 35.3501ZM58.1079 39.9789C57.6892 38.4162 57.9084 36.7512 58.7173 35.3501L58.1977 35.0501C57.3092 36.589 57.0685 38.4178 57.5284 40.1342L58.1079 39.9789ZM60.9501 43.6828C59.549 42.8739 58.5267 41.5416 58.1079 39.9789L57.5284 40.1342C57.9883 41.8506 59.1112 43.314 60.6501 44.2024L60.9501 43.6828ZM66.6285 38.6475L63.1991 36.6674L62.8991 37.1871L66.3285 39.1671L66.6285 38.6475ZM65.9383 40.4429L66.7383 39.0573L66.2187 38.7573L65.4187 40.1429L65.9383 40.4429ZM62.0991 38.5727L65.5285 40.5527L65.8285 40.0331L62.3991 38.0531L62.0991 38.5727ZM62.4782 39.277C62.4209 38.9874 62.44 38.688 62.5336 38.408L61.9646 38.2178C61.8379 38.5965 61.8121 39.0017 61.8896 39.3934L62.4782 39.277ZM62.8602 40.0594C62.6671 39.8362 62.5354 39.5665 62.4782 39.277L61.8896 39.3934C61.9671 39.7852 62.1452 40.15 62.4065 40.452L62.8602 40.0594ZM63.5796 40.55C63.3013 40.4517 63.0534 40.2826 62.8602 40.0594L62.4065 40.452C62.6678 40.754 63.0032 40.9827 63.3797 41.1158L63.5796 40.55ZM64.4475 40.6201C64.157 40.6725 63.8579 40.6483 63.5796 40.55L63.3797 41.1158C63.7563 41.2488 64.1609 41.2815 64.5539 41.2106L64.4475 40.6201ZM65.4942 42.2473L64.7696 40.7824L64.2318 41.0484L64.9564 42.5133L65.4942 42.2473ZM63.116 42.7069C63.8377 42.9047 64.6011 42.8907 65.3152 42.6666L65.1354 42.0941C64.5313 42.2838 63.8853 42.2956 63.2746 42.1282L63.116 42.7069ZM61.2447 41.5508C61.7446 42.1077 62.3942 42.509 63.116 42.7069L63.2746 42.1282C62.6639 41.9608 62.1142 41.6212 61.6912 41.15L61.2447 41.5508ZM60.2966 39.5661C60.4157 40.3049 60.7448 40.9939 61.2447 41.5508L61.6912 41.15C61.2682 40.6788 60.9897 40.0958 60.889 39.4706L60.2966 39.5661ZM60.5733 37.384C60.2736 38.0697 60.1776 38.8272 60.2966 39.5661L60.889 39.4706C60.7883 38.8454 60.8695 38.2045 61.1231 37.6242L60.5733 37.384ZM59.986 37.3527L60.6982 37.7639L60.9982 37.2443L60.286 36.8331L59.986 37.3527ZM60.6762 35.5573L59.8762 36.9429L60.3958 37.2429L61.1958 35.8573L60.6762 35.5573ZM61.7975 35.8583L61.086 35.4475L60.786 35.9671L61.4975 36.3779L61.7975 35.8583ZM63.1577 34.6084C62.4581 34.875 61.8499 35.3373 61.4059 35.9402L61.8891 36.296C62.2647 35.7858 62.7793 35.3947 63.3713 35.1691L63.1577 34.6084ZM65.3515 34.4369C64.619 34.2823 63.8574 34.3419 63.1577 34.6084L63.3713 35.1691C63.9633 34.9435 64.6078 34.8932 65.2276 35.024L65.3515 34.4369ZM67.289 35.4803C66.7567 34.9537 66.0841 34.5915 65.3515 34.4369L65.2276 35.024C65.8475 35.1548 66.4166 35.4613 66.867 35.9068L67.289 35.4803ZM68.3532 37.4063C68.1907 36.6754 67.8213 36.0068 67.289 35.4803L66.867 35.9068C67.3174 36.3524 67.63 36.9181 67.7675 37.5365L68.3532 37.4063ZM66.4479 37.8754L68.0796 37.7708L68.0412 37.172L66.4095 37.2766L66.4479 37.8754ZM65.6517 36.961C65.876 37.1528 66.0465 37.3998 66.1464 37.6775L66.711 37.4745C66.5759 37.0987 66.3452 36.7646 66.0417 36.505L65.6517 36.961ZM64.8672 36.5833C65.157 36.6389 65.4274 36.7691 65.6517 36.9609L66.0417 36.505C65.7383 36.2454 65.3725 36.0693 64.9803 35.9941L64.8672 36.5833ZM63.9985 36.6436C64.2779 36.5484 64.5773 36.5277 64.8672 36.5833L64.9803 35.9941C64.5881 35.9188 64.1831 35.9469 63.8051 36.0757L63.9985 36.6436ZM63.2737 37.1261C63.4693 36.9051 63.7192 36.7388 63.9985 36.6436L63.8051 36.0757C63.4271 36.2044 63.0891 36.4294 62.8244 36.7284L63.2737 37.1261ZM36.6501 45.0685C32.9671 47.1948 28.258 45.933 26.1317 42.2501L25.6121 42.5501C27.9041 46.52 32.9801 47.8801 36.9501 45.5881L36.6501 45.0685ZM39.4685 34.5501C41.5948 38.233 40.333 42.9421 36.6501 45.0685L36.9501 45.5881C40.92 43.296 42.2801 38.22 39.9881 34.2501L39.4685 34.5501ZM28.9501 31.7317C32.633 29.6053 37.3421 30.8671 39.4685 34.5501L39.9881 34.2501C37.696 30.2801 32.62 28.92 28.6501 31.2121L28.9501 31.7317ZM26.1317 42.2501C24.0053 38.5671 25.2671 33.858 28.9501 31.7317L28.6501 31.2121C24.6801 33.5041 23.32 38.5801 25.6121 42.5501L26.1317 42.2501ZM36.1501 44.2024C37.689 43.314 38.8119 41.8506 39.2718 40.1342L38.6922 39.9789C38.2735 41.5416 37.2512 42.8739 35.8501 43.6828L36.1501 44.2024ZM31.066 44.8718C32.7824 45.3317 34.6112 45.0909 36.1501 44.2024L35.8501 43.6828C34.449 44.4917 32.784 44.7109 31.2213 44.2922L31.066 44.8718ZM26.9977 41.7501C27.8862 43.289 29.3496 44.4119 31.066 44.8718L31.2213 44.2922C29.6586 43.8735 28.3262 42.8512 27.5173 41.4501L26.9977 41.7501ZM26.3284 36.666C25.8685 38.3824 26.1092 40.2112 26.9977 41.7501L27.5173 41.4501C26.7084 40.049 26.4892 38.384 26.9079 36.8213L26.3284 36.666ZM29.4501 32.5977C27.9112 33.4862 26.7883 34.9496 26.3284 36.666L26.9079 36.8213C27.3267 35.2586 28.349 33.9262 29.7501 33.1173L29.4501 32.5977ZM34.5342 31.9284C32.8178 31.4685 30.989 31.7092 29.4501 32.5977L29.7501 33.1173C31.1512 32.3084 32.8162 32.0892 34.3789 32.5079L34.5342 31.9284ZM38.6024 35.0501C37.714 33.5112 36.2506 32.3883 34.5342 31.9284L34.3789 32.5079C35.9416 32.9267 37.2739 33.949 38.0828 35.3501L38.6024 35.0501ZM39.2718 40.1342C39.7317 38.4178 39.4909 36.589 38.6024 35.0501L38.0828 35.3501C38.8917 36.7512 39.1109 38.4162 38.6922 39.9789L39.2718 40.1342ZM31.1991 38.7471L34.6285 36.7671L34.3285 36.2474L30.8991 38.2274L31.1991 38.7471ZM30.6896 37.4067C30.6121 37.7985 30.6379 38.2037 30.7646 38.5824L31.3336 38.3921C31.24 38.1122 31.2209 37.8127 31.2782 37.5232L30.6896 37.4067ZM31.2065 36.3482C30.9452 36.6502 30.7671 37.015 30.6896 37.4067L31.2782 37.5232C31.3354 37.2336 31.4671 36.964 31.6602 36.7408L31.2065 36.3482ZM32.1797 35.6844C31.8032 35.8174 31.4678 36.0462 31.2065 36.3482L31.6602 36.7408C31.8534 36.5175 32.1013 36.3485 32.3796 36.2501L32.1797 35.6844ZM33.3539 35.5895C32.9609 35.5187 32.5563 35.5514 32.1797 35.6844L32.3796 36.2501C32.6579 36.1518 32.957 36.1277 33.2475 36.18L33.3539 35.5895ZM33.7571 34.2863L33.0318 35.7517L33.5696 36.0179L34.2949 34.5525L33.7571 34.2863ZM32.0743 34.6706C32.6854 34.5033 33.3316 34.5155 33.936 34.7056L34.116 34.1332C33.4018 33.9086 32.638 33.8942 31.9159 34.0919L32.0743 34.6706ZM30.4901 35.6489C30.9133 35.1775 31.4633 34.8379 32.0743 34.6706L31.9159 34.0919C31.1938 34.2896 30.5438 34.691 30.0436 35.2481L30.4901 35.6489ZM29.6876 37.3291C29.7883 36.7036 30.0669 36.1203 30.4901 35.6489L30.0436 35.2481C29.5434 35.8052 29.2142 36.4946 29.0952 37.2338L29.6876 37.3291ZM29.9223 39.1762C29.6684 38.5958 29.5869 37.9546 29.6876 37.3291L29.0952 37.2338C28.9762 37.9729 29.0726 38.7308 29.3727 39.4167L29.9223 39.1762ZM29.086 39.9671L29.7975 39.5563L29.4975 39.0366L28.786 39.4475L29.086 39.9671ZM29.9958 40.9429L29.1958 39.5573L28.6762 39.8573L29.4762 41.2429L29.9958 40.9429ZM30.2982 40.4219L29.586 40.8331L29.886 41.3527L30.5982 40.9415L30.2982 40.4219ZM32.1716 41.6296C31.5799 41.4043 31.0654 41.0134 30.6897 40.5037L30.2067 40.8597C30.6508 41.4621 31.2588 41.924 31.9581 42.1903L32.1716 41.6296ZM34.0272 41.7746C33.4076 41.9053 32.7634 41.855 32.1716 41.6296L31.9581 42.1903C32.6575 42.4566 33.4188 42.5161 34.151 42.3616L34.0272 41.7746ZM35.666 40.8924C35.2157 41.3376 34.6468 41.6439 34.0272 41.7746L34.151 42.3616C34.8833 42.2072 35.5556 41.8453 36.0878 41.3191L35.666 40.8924ZM36.5669 39.2638C36.4291 39.8819 36.1163 40.4473 35.666 40.8924L36.0878 41.3191C36.62 40.793 36.9896 40.1249 37.1525 39.3944L36.5669 39.2638ZM35.2094 39.5236L36.8404 39.6285L36.879 39.0298L35.248 38.9248L35.2094 39.5236ZM34.8417 40.2952C35.1452 40.0356 35.3759 39.7015 35.511 39.3257L34.9464 39.1226C34.8465 39.4004 34.676 39.6473 34.4517 39.8392L34.8417 40.2952ZM33.7803 40.8061C34.1725 40.7308 34.5383 40.5547 34.8417 40.2952L34.4517 39.8392C34.2274 40.0311 33.957 40.1612 33.6672 40.2169L33.7803 40.8061ZM32.6051 40.7245C32.9831 40.8533 33.3881 40.8814 33.7803 40.8061L33.6672 40.2169C33.3773 40.2725 33.0779 40.2517 32.7985 40.1565L32.6051 40.7245ZM31.6244 40.0717C31.8891 40.3708 32.2271 40.5957 32.6051 40.7245L32.7985 40.1565C32.5192 40.0614 32.2693 39.8951 32.0737 39.6741L31.6244 40.0717ZM35.1285 37.6331L31.6991 39.6131L31.9991 40.1327L35.4285 38.1527L35.1285 37.6331ZM34.2187 36.6573L35.0187 38.0429L35.5383 37.7429L34.7383 36.3573L34.2187 36.6573ZM48 37.9C48.2761 37.9 48.5 38.1239 48.5 38.4H49.1C49.1 37.7925 48.6075 37.3 48 37.3V37.9ZM47.5 38.4C47.5 38.1239 47.7239 37.9 48 37.9V37.3C47.3925 37.3 46.9 37.7925 46.9 38.4H47.5ZM47.5 46.4V38.4H46.9V46.4H47.5ZM48 46.9C47.7239 46.9 47.5 46.6761 47.5 46.4H46.9C46.9 47.0075 47.3925 47.5 48 47.5V46.9ZM48.5 46.4C48.5 46.6761 48.2761 46.9 48 46.9V47.5C48.6075 47.5 49.1 47.0075 49.1 46.4H48.5ZM48.5 38.4V46.4H49.1V38.4H48.5ZM50.1 46.4C50.1 47.0075 50.5925 47.5 51.2 47.5V46.9C50.9239 46.9 50.7 46.6761 50.7 46.4H50.1ZM50.1 44V46.4H50.7V44H50.1ZM51.1251 41.5251C50.4688 42.1815 50.1 43.0717 50.1 44H50.7C50.7 43.2309 51.0055 42.4932 51.5494 41.9494L51.1251 41.5251ZM52.7341 40.6088C52.1303 40.763 51.5732 41.077 51.1251 41.5251L51.5494 41.9494C51.9207 41.5781 52.3822 41.3179 52.8825 41.1901L52.7341 40.6088ZM53.9 41.6C53.9 41.0203 53.4043 40.4376 52.7341 40.6088L52.8825 41.1901C53.0684 41.1427 53.3 41.2961 53.3 41.6H53.9ZM52.9767 42.8591C53.1913 42.742 53.4156 42.5825 53.5897 42.3794C53.765 42.1747 53.9 41.9121 53.9 41.6H53.3C53.3 41.7298 53.2453 41.8591 53.134 41.989C53.0215 42.1204 52.8623 42.238 52.6891 42.3326L52.9767 42.8591ZM52.6808 43.0808C52.7692 42.9924 52.869 42.918 52.9767 42.8592L52.6891 42.3326C52.5316 42.4186 52.3857 42.5273 52.2565 42.6565L52.6808 43.0808ZM52.3 44C52.3 43.6552 52.437 43.3246 52.6808 43.0808L52.2565 42.6565C51.9002 43.0128 51.7 43.4961 51.7 44H52.3ZM52.3 46.4V44H51.7V46.4H52.3ZM51.2 47.5C51.8075 47.5 52.3 47.0075 52.3 46.4H51.7C51.7 46.6761 51.4761 46.9 51.2 46.9V47.5ZM45.3 46.4C45.3 46.6761 45.0761 46.9 44.8 46.9V47.5C45.4075 47.5 45.9 47.0075 45.9 46.4H45.3ZM45.3 42.4V46.4H45.9V42.4H45.3ZM44.4506 40.3494C44.9945 40.8932 45.3 41.6309 45.3 42.4H45.9C45.9 41.4717 45.5312 40.5815 44.8749 39.9251L44.4506 40.3494ZM43.1175 39.5901C43.6178 39.7179 44.0793 39.9781 44.4506 40.3494L44.8749 39.9251C44.4268 39.477 43.8697 39.163 43.2659 39.0088L43.1175 39.5901ZM42.7 40C42.7 39.6961 42.9316 39.5427 43.1175 39.5901L43.2659 39.0088C42.5957 38.8376 42.1 39.4203 42.1 40H42.7ZM43.3109 40.7326C43.1377 40.638 42.9785 40.5204 42.866 40.389C42.7547 40.2591 42.7 40.1298 42.7 40H42.1C42.1 40.3121 42.235 40.5747 42.4103 40.7794C42.5844 40.9825 42.8087 41.142 43.0233 41.2592L43.3109 40.7326ZM43.7435 41.0565C43.6143 40.9273 43.4684 40.8186 43.3109 40.7326L43.0233 41.2592C43.131 41.318 43.2308 41.3924 43.3192 41.4808L43.7435 41.0565ZM44.3 42.4C44.3 41.8961 44.0998 41.4128 43.7435 41.0565L43.3192 41.4808C43.563 41.7246 43.7 42.0552 43.7 42.4H44.3ZM44.3 46.4V42.4H43.7V46.4H44.3ZM44.8 46.9C44.5239 46.9 44.3 46.6761 44.3 46.4H43.7C43.7 47.0075 44.1925 47.5 44.8 47.5V46.9ZM41.8142 20.2861C41.3992 19.8541 40.691 19.8226 40.2684 20.2872L40.7122 20.6909C40.8819 20.5044 41.1867 20.499 41.3814 20.7018L41.8142 20.2861ZM41.8211 21.8491C42.2078 21.4129 42.2399 20.7294 41.8142 20.2861L41.3814 20.7018C41.5689 20.897 41.5728 21.2247 41.3722 21.451L41.8211 21.8491ZM40.2388 24.3495C40.6288 23.4347 41.1636 22.5907 41.8211 21.8491L41.3722 21.451C40.6719 22.2409 40.1023 23.1399 39.6868 24.1142L40.2388 24.3495ZM39.5001 27.9988C39.4956 26.7448 39.7469 25.5031 40.2388 24.3495L39.6868 24.1142C39.163 25.3428 38.8953 26.6654 38.9001 28.001L39.5001 27.9988ZM38.5142 29.0943C39.0916 29.0498 39.5001 28.5504 39.5001 27.9999H38.9001C38.9001 28.2659 38.7048 28.4778 38.468 28.4961L38.5142 29.0943ZM38.4539 29.099L38.5142 29.0943L38.468 28.4961L38.4077 28.5008L38.4539 29.099ZM37.3002 28.0636C37.3036 28.6939 37.8541 29.1453 38.4539 29.099L38.4077 28.5008C38.1263 28.5225 37.9016 28.314 37.9002 28.0604L37.3002 28.0636ZM37.3001 28.0007L37.3002 28.0628L37.9002 28.0612L37.9001 27.9991L37.3001 28.0007ZM38.2147 23.4871C37.6061 24.9139 37.2949 26.4498 37.3001 28.0009L37.9001 27.9989C37.8952 26.5294 38.19 25.0742 38.7666 23.7225L38.2147 23.4871ZM40.2684 20.2872C39.4109 21.23 38.7162 22.3113 38.2147 23.4871L38.7666 23.7225C39.2417 22.6086 39.8999 21.5841 40.7122 20.6909L40.2684 20.2872Z" fill="#17E200" mask="url(#path-3-inside-2)"/>
</g>
<defs>
<filter id="filter0_d" x="0" y="0" width="96.0015" height="96" filterUnits="userSpaceOnUse" color-interpolation-filters="sRGB">
<feFlood flood-opacity="0" result="BackgroundImageFix"/>
<feColorMatrix in="SourceAlpha" type="matrix" values="0 0 0 0 0 0 0 0 0 0 0 0 0 0 0 0 0 0 127 0"/>
<feOffset dy="4"/>
<feGaussianBlur stdDeviation="12"/>
<feColorMatrix type="matrix" values="0 0 0 0 0.411765 0 0 0 0 0.811765 0 0 0 0 0.0941176 0 0 0 0.5 0"/>
<feBlend mode="normal" in2="BackgroundImageFix" result="effect1_dropShadow"/>
<feBlend mode="normal" in="SourceGraphic" in2="effect1_dropShadow" result="shape"/>
</filter>
</defs>
</svg>
