<svg width="94" height="94" viewBox="0 0 94 94" fill="none" xmlns="http://www.w3.org/2000/svg">
<g filter="url(#filter0_d)">
<mask id="path-1-inside-1" fill="white">
<path d="M67.1327 36.1206V33.1213C67.1327 31.8784 66.1256 30.8715 64.8834 30.8715H59.1497C60.728 30.0863 62.1169 28.9668 63.2191 27.5909C63.9928 26.5409 65.1462 25.8344 66.4333 25.6224C66.8474 25.5949 67.1604 25.2364 67.1327 24.8225C67.105 24.4083 66.7469 24.0953 66.3326 24.1226C64.6249 24.363 63.0831 25.2729 62.0481 26.6519C60.0908 28.9791 57.3079 30.4574 54.2837 30.7763C57.7971 29.066 59.634 26.2974 59.634 24.0762C59.6538 23.0434 59.2038 22.0576 58.4109 21.3953C57.4344 20.6669 56.2324 20.3053 55.0157 20.3737C50.2412 20.3737 47.8973 24.9258 46.8264 28.2146C45.7563 24.9258 43.4124 20.3737 38.6379 20.3737C37.4212 20.3053 36.2195 20.6669 35.2425 21.3953C34.4498 22.0576 33.9998 23.0434 34.0194 24.0762C34.0194 26.2884 35.8365 29.0387 39.3151 30.7499C36.3554 30.403 33.6398 28.9371 31.7249 26.6535C30.6899 25.2738 29.1481 24.3632 27.4398 24.1226C27.2428 24.1081 27.0474 24.173 26.8981 24.3032C26.7485 24.4336 26.6577 24.6179 26.6454 24.8156C26.6298 25.014 26.6933 25.2104 26.8224 25.3618C26.9518 25.5133 27.1359 25.607 27.3342 25.6224C28.6231 25.8331 29.7787 26.5393 30.5538 27.5909C31.6559 28.9668 33.0444 30.0863 34.6231 30.8715H28.8895C27.6472 30.8715 26.6399 31.8784 26.6399 33.1213V36.1206C26.6399 37.3629 27.6472 38.3704 28.8895 38.3704H30.3892V61.6161C30.3917 63.6857 32.0689 65.3628 34.1388 65.3654H59.634C61.7037 65.3628 63.3809 63.6857 63.3836 61.6161V38.3704H64.8834C65.4798 38.3704 66.0519 38.1333 66.4738 37.7115C66.8956 37.2896 67.1327 36.7171 67.1327 36.1206ZM55.0157 21.8733C55.8818 21.815 56.7422 22.053 57.455 22.548C57.9075 22.9235 58.1589 23.4885 58.1344 24.0762C58.1344 26.7357 54.421 30.5348 47.676 30.8504C48.197 28.4359 50.0712 21.8733 55.0157 21.8733ZM47.0054 32.3713H50.636V36.8704H43.1368V32.3713H47.0054ZM53.5295 54.581C53.735 54.1924 53.9054 53.7861 54.0391 53.3676H55.5886C55.379 54.1792 55.0559 54.9576 54.6295 55.6794L53.5295 54.581ZM53.7499 56.9227C53.4259 57.3041 53.0714 57.6589 52.6896 57.9829L51.6268 56.9205C52.0148 56.6029 52.3702 56.248 52.6874 55.8604L53.7499 56.9227ZM54.3468 51.8676C54.3976 51.3694 54.3976 50.8669 54.3468 50.368H55.8464C55.8675 50.6163 55.8847 50.8642 55.8847 51.118C55.8847 51.3714 55.8675 51.6195 55.8464 51.8676H54.3468ZM54.0391 48.8683C53.9056 48.4495 53.7361 48.043 53.5308 47.6542L54.6295 46.5564C55.0559 47.2783 55.379 48.0564 55.5886 48.8683H54.0391ZM52.6896 46.3759C52.3724 45.9879 52.0172 45.6329 51.6295 45.3155L52.692 44.2528C53.0738 44.5767 53.4284 44.9313 53.7519 45.3131L52.6896 46.3759ZM52.8853 51.118C52.8853 54.431 50.1994 57.1169 46.8866 57.1169C43.5734 57.1169 40.8877 54.431 40.8877 51.118C40.8877 47.8048 43.5734 45.1189 46.8866 45.1189C50.1979 45.1226 52.8816 47.8062 52.8853 51.118ZM47.6362 58.5787V60.0782C47.3879 60.0991 47.1398 60.1165 46.8866 60.1165C46.6328 60.1165 46.3845 60.0991 46.1364 60.0782V58.5787C46.6352 58.6295 47.1376 58.6295 47.6362 58.5787ZM36.6373 53.3676H31.889V48.8683H36.6373C36.3052 50.3498 36.3052 51.8863 36.6373 53.3676ZM31.889 47.3687V38.3704H43.1368V41.3238C40.3588 42.394 38.1629 44.5902 37.0924 47.3687H31.889ZM44.6368 42.4193V43.9686C44.2183 44.1021 43.8123 44.2719 43.4236 44.4771L42.3248 43.3785C43.0469 42.9518 43.825 42.6292 44.6368 42.4193ZM40.0211 45.3171C40.3453 44.9353 40.6999 44.5807 41.0817 44.2565L42.1442 45.3195C41.7565 45.6364 41.4011 45.9919 41.0839 46.3796L40.0211 45.3171ZM40.242 47.6588C40.0372 48.0463 39.8672 48.4508 39.7337 48.8683H38.1879C38.3978 48.0564 38.7206 47.2783 39.1469 46.5564L40.242 47.6588ZM37.9264 50.368H39.426C39.375 50.8669 39.375 51.3694 39.426 51.8676H37.9264C37.9053 51.6195 37.8879 51.3714 37.8879 51.118C37.8879 50.8642 37.9053 50.6163 37.9264 50.368ZM39.7337 53.3676C39.8667 53.7861 40.0372 54.1924 40.242 54.581L39.1431 55.6794C38.718 54.9576 38.3967 54.1792 38.1879 53.3676H39.7337ZM41.0832 55.8604C41.4006 56.248 41.7556 56.6029 42.1436 56.9205L41.0808 57.9829C40.699 57.6589 40.3445 57.3041 40.0207 56.9227L41.0832 55.8604ZM46.8866 40.6198C46.1298 40.6215 45.3754 40.7049 44.6368 40.8688V38.3704H49.1358V40.8688C48.3972 40.7049 47.643 40.6215 46.8866 40.6198ZM47.6362 42.1578V43.6576C47.1376 43.6064 46.6352 43.6064 46.1364 43.6576V42.1578C46.3845 42.1367 46.6328 42.1193 46.8866 42.1193C47.1398 42.1193 47.3879 42.1367 47.6362 42.1578ZM50.3501 44.4732C49.9612 44.2686 49.555 44.0984 49.1358 43.9649V42.4193C49.9476 42.6292 50.7264 42.9518 51.4478 43.3785L50.3501 44.4732ZM35.5192 24.0762C35.4952 23.4885 35.7459 22.9235 36.1988 22.548C36.9116 22.053 37.7718 21.815 38.6379 21.8733C43.5725 21.8733 45.4526 28.4354 45.9769 30.8504C39.2324 30.5348 35.5192 26.7357 35.5192 24.0762ZM31.1392 36.8704H28.8895C28.4757 36.8704 28.1401 36.5346 28.1401 36.1206V35.3704H39.3879C39.8016 35.3704 40.1377 35.0348 40.1377 34.6211C40.1377 34.2065 39.8016 33.8709 39.3879 33.8709H28.1401V33.1213C28.1401 32.7069 28.4757 32.3713 28.8895 32.3713H41.6373V36.8704H31.1392ZM43.1368 63.8659H34.1388C33.1884 63.8617 32.3439 63.2615 32.0269 62.3661H37.8879C38.3021 62.3661 38.6379 62.0302 38.6379 61.6161C38.6379 61.2021 38.3021 60.8663 37.8879 60.8663H31.889V54.8672H37.0924C38.1629 57.6459 40.3588 59.8418 43.1368 60.912V63.8659ZM42.3248 58.8609L43.4236 57.7627C43.8123 57.9675 44.2183 58.1375 44.6368 58.271V59.82C43.825 59.6102 43.0469 59.2878 42.3248 58.8609ZM49.1358 63.8659H44.6368V61.3673C46.1184 61.699 47.6549 61.699 49.1358 61.3673V63.8659ZM49.1358 59.8163V58.271C49.5545 58.1375 49.9608 57.9675 50.3492 57.7627L51.4478 58.8609C50.7264 59.2878 49.9476 59.6102 49.1358 59.82V59.8163ZM61.8838 60.8663H55.8847C55.4707 60.8663 55.1351 61.2021 55.1351 61.6161C55.1351 62.0302 55.4707 62.3661 55.8847 62.3661H61.7459C61.429 63.2615 60.5842 63.8617 59.634 63.8659H50.636V60.912C53.4143 59.8418 55.61 57.6459 56.6804 54.8672H61.8838V60.8663ZM61.8838 53.3676H57.1355C57.4676 51.8863 57.4676 50.3498 57.1355 48.8683H61.8838V53.3676ZM61.8838 47.3687H56.6804C55.61 44.5902 53.4143 42.394 50.636 41.3238V38.3704H61.8838V47.3687ZM65.6329 33.8709H54.3851C53.9712 33.8709 53.6351 34.2065 53.6351 34.6211C53.6351 35.0348 53.9712 35.3704 54.3851 35.3704H65.6329V36.1206C65.6329 36.5346 65.2973 36.8704 64.8834 36.8704H52.1355V32.3713H64.8834C65.2973 32.3713 65.6329 32.7069 65.6329 33.1213V33.8709Z"/>
</mask>
<path d="M67.1327 36.1206V33.1213C67.1327 31.8784 66.1256 30.8715 64.8834 30.8715H59.1497C60.728 30.0863 62.1169 28.9668 63.2191 27.5909C63.9928 26.5409 65.1462 25.8344 66.4333 25.6224C66.8474 25.5949 67.1604 25.2364 67.1327 24.8225C67.105 24.4083 66.7469 24.0953 66.3326 24.1226C64.6249 24.363 63.0831 25.2729 62.0481 26.6519C60.0908 28.9791 57.3079 30.4574 54.2837 30.7763C57.7971 29.066 59.634 26.2974 59.634 24.0762C59.6538 23.0434 59.2038 22.0576 58.4109 21.3953C57.4344 20.6669 56.2324 20.3053 55.0157 20.3737C50.2412 20.3737 47.8973 24.9258 46.8264 28.2146C45.7563 24.9258 43.4124 20.3737 38.6379 20.3737C37.4212 20.3053 36.2195 20.6669 35.2425 21.3953C34.4498 22.0576 33.9998 23.0434 34.0194 24.0762C34.0194 26.2884 35.8365 29.0387 39.3151 30.7499C36.3554 30.403 33.6398 28.9371 31.7249 26.6535C30.6899 25.2738 29.1481 24.3632 27.4398 24.1226C27.2428 24.1081 27.0474 24.173 26.8981 24.3032C26.7485 24.4336 26.6577 24.6179 26.6454 24.8156C26.6298 25.014 26.6933 25.2104 26.8224 25.3618C26.9518 25.5133 27.1359 25.607 27.3342 25.6224C28.6231 25.8331 29.7787 26.5393 30.5538 27.5909C31.6559 28.9668 33.0444 30.0863 34.6231 30.8715H28.8895C27.6472 30.8715 26.6399 31.8784 26.6399 33.1213V36.1206C26.6399 37.3629 27.6472 38.3704 28.8895 38.3704H30.3892V61.6161C30.3917 63.6857 32.0689 65.3628 34.1388 65.3654H59.634C61.7037 65.3628 63.3809 63.6857 63.3836 61.6161V38.3704H64.8834C65.4798 38.3704 66.0519 38.1333 66.4738 37.7115C66.8956 37.2896 67.1327 36.7171 67.1327 36.1206ZM55.0157 21.8733C55.8818 21.815 56.7422 22.053 57.455 22.548C57.9075 22.9235 58.1589 23.4885 58.1344 24.0762C58.1344 26.7357 54.421 30.5348 47.676 30.8504C48.197 28.4359 50.0712 21.8733 55.0157 21.8733ZM47.0054 32.3713H50.636V36.8704H43.1368V32.3713H47.0054ZM53.5295 54.581C53.735 54.1924 53.9054 53.7861 54.0391 53.3676H55.5886C55.379 54.1792 55.0559 54.9576 54.6295 55.6794L53.5295 54.581ZM53.7499 56.9227C53.4259 57.3041 53.0714 57.6589 52.6896 57.9829L51.6268 56.9205C52.0148 56.6029 52.3702 56.248 52.6874 55.8604L53.7499 56.9227ZM54.3468 51.8676C54.3976 51.3694 54.3976 50.8669 54.3468 50.368H55.8464C55.8675 50.6163 55.8847 50.8642 55.8847 51.118C55.8847 51.3714 55.8675 51.6195 55.8464 51.8676H54.3468ZM54.0391 48.8683C53.9056 48.4495 53.7361 48.043 53.5308 47.6542L54.6295 46.5564C55.0559 47.2783 55.379 48.0564 55.5886 48.8683H54.0391ZM52.6896 46.3759C52.3724 45.9879 52.0172 45.6329 51.6295 45.3155L52.692 44.2528C53.0738 44.5767 53.4284 44.9313 53.7519 45.3131L52.6896 46.3759ZM52.8853 51.118C52.8853 54.431 50.1994 57.1169 46.8866 57.1169C43.5734 57.1169 40.8877 54.431 40.8877 51.118C40.8877 47.8048 43.5734 45.1189 46.8866 45.1189C50.1979 45.1226 52.8816 47.8062 52.8853 51.118ZM47.6362 58.5787V60.0782C47.3879 60.0991 47.1398 60.1165 46.8866 60.1165C46.6328 60.1165 46.3845 60.0991 46.1364 60.0782V58.5787C46.6352 58.6295 47.1376 58.6295 47.6362 58.5787ZM36.6373 53.3676H31.889V48.8683H36.6373C36.3052 50.3498 36.3052 51.8863 36.6373 53.3676ZM31.889 47.3687V38.3704H43.1368V41.3238C40.3588 42.394 38.1629 44.5902 37.0924 47.3687H31.889ZM44.6368 42.4193V43.9686C44.2183 44.1021 43.8123 44.2719 43.4236 44.4771L42.3248 43.3785C43.0469 42.9518 43.825 42.6292 44.6368 42.4193ZM40.0211 45.3171C40.3453 44.9353 40.6999 44.5807 41.0817 44.2565L42.1442 45.3195C41.7565 45.6364 41.4011 45.9919 41.0839 46.3796L40.0211 45.3171ZM40.242 47.6588C40.0372 48.0463 39.8672 48.4508 39.7337 48.8683H38.1879C38.3978 48.0564 38.7206 47.2783 39.1469 46.5564L40.242 47.6588ZM37.9264 50.368H39.426C39.375 50.8669 39.375 51.3694 39.426 51.8676H37.9264C37.9053 51.6195 37.8879 51.3714 37.8879 51.118C37.8879 50.8642 37.9053 50.6163 37.9264 50.368ZM39.7337 53.3676C39.8667 53.7861 40.0372 54.1924 40.242 54.581L39.1431 55.6794C38.718 54.9576 38.3967 54.1792 38.1879 53.3676H39.7337ZM41.0832 55.8604C41.4006 56.248 41.7556 56.6029 42.1436 56.9205L41.0808 57.9829C40.699 57.6589 40.3445 57.3041 40.0207 56.9227L41.0832 55.8604ZM46.8866 40.6198C46.1298 40.6215 45.3754 40.7049 44.6368 40.8688V38.3704H49.1358V40.8688C48.3972 40.7049 47.643 40.6215 46.8866 40.6198ZM47.6362 42.1578V43.6576C47.1376 43.6064 46.6352 43.6064 46.1364 43.6576V42.1578C46.3845 42.1367 46.6328 42.1193 46.8866 42.1193C47.1398 42.1193 47.3879 42.1367 47.6362 42.1578ZM50.3501 44.4732C49.9612 44.2686 49.555 44.0984 49.1358 43.9649V42.4193C49.9476 42.6292 50.7264 42.9518 51.4478 43.3785L50.3501 44.4732ZM35.5192 24.0762C35.4952 23.4885 35.7459 22.9235 36.1988 22.548C36.9116 22.053 37.7718 21.815 38.6379 21.8733C43.5725 21.8733 45.4526 28.4354 45.9769 30.8504C39.2324 30.5348 35.5192 26.7357 35.5192 24.0762ZM31.1392 36.8704H28.8895C28.4757 36.8704 28.1401 36.5346 28.1401 36.1206V35.3704H39.3879C39.8016 35.3704 40.1377 35.0348 40.1377 34.6211C40.1377 34.2065 39.8016 33.8709 39.3879 33.8709H28.1401V33.1213C28.1401 32.7069 28.4757 32.3713 28.8895 32.3713H41.6373V36.8704H31.1392ZM43.1368 63.8659H34.1388C33.1884 63.8617 32.3439 63.2615 32.0269 62.3661H37.8879C38.3021 62.3661 38.6379 62.0302 38.6379 61.6161C38.6379 61.2021 38.3021 60.8663 37.8879 60.8663H31.889V54.8672H37.0924C38.1629 57.6459 40.3588 59.8418 43.1368 60.912V63.8659ZM42.3248 58.8609L43.4236 57.7627C43.8123 57.9675 44.2183 58.1375 44.6368 58.271V59.82C43.825 59.6102 43.0469 59.2878 42.3248 58.8609ZM49.1358 63.8659H44.6368V61.3673C46.1184 61.699 47.6549 61.699 49.1358 61.3673V63.8659ZM49.1358 59.8163V58.271C49.5545 58.1375 49.9608 57.9675 50.3492 57.7627L51.4478 58.8609C50.7264 59.2878 49.9476 59.6102 49.1358 59.82V59.8163ZM61.8838 60.8663H55.8847C55.4707 60.8663 55.1351 61.2021 55.1351 61.6161C55.1351 62.0302 55.4707 62.3661 55.8847 62.3661H61.7459C61.429 63.2615 60.5842 63.8617 59.634 63.8659H50.636V60.912C53.4143 59.8418 55.61 57.6459 56.6804 54.8672H61.8838V60.8663ZM61.8838 53.3676H57.1355C57.4676 51.8863 57.4676 50.3498 57.1355 48.8683H61.8838V53.3676ZM61.8838 47.3687H56.6804C55.61 44.5902 53.4143 42.394 50.636 41.3238V38.3704H61.8838V47.3687ZM65.6329 33.8709H54.3851C53.9712 33.8709 53.6351 34.2065 53.6351 34.6211C53.6351 35.0348 53.9712 35.3704 54.3851 35.3704H65.6329V36.1206C65.6329 36.5346 65.2973 36.8704 64.8834 36.8704H52.1355V32.3713H64.8834C65.2973 32.3713 65.6329 32.7069 65.6329 33.1213V33.8709Z" fill="white" stroke="#FFEC4A" stroke-width="1.2" stroke-linejoin="round" mask="url(#path-1-inside-1)"/>
<mask id="path-2-inside-2" fill="white">
<path d="M67.1327 36.1206V33.1213C67.1327 31.8784 66.1256 30.8715 64.8834 30.8715H59.1497C60.728 30.0863 62.1169 28.9668 63.2191 27.5909C63.9928 26.5409 65.1462 25.8344 66.4333 25.6224C66.8474 25.5949 67.1604 25.2364 67.1327 24.8225C67.105 24.4083 66.7469 24.0953 66.3326 24.1226C64.6249 24.363 63.0831 25.2729 62.0481 26.6519C60.0908 28.9791 57.3079 30.4574 54.2837 30.7763C57.7971 29.066 59.634 26.2974 59.634 24.0762C59.6538 23.0434 59.2038 22.0576 58.4109 21.3953C57.4344 20.6669 56.2324 20.3053 55.0157 20.3737C50.2412 20.3737 47.8973 24.9258 46.8264 28.2146C45.7563 24.9258 43.4124 20.3737 38.6379 20.3737C37.4212 20.3053 36.2195 20.6669 35.2425 21.3953C34.4498 22.0576 33.9998 23.0434 34.0194 24.0762C34.0194 26.2884 35.8365 29.0387 39.3151 30.7499C36.3554 30.403 33.6398 28.9371 31.7249 26.6535C30.6899 25.2738 29.1481 24.3632 27.4398 24.1226C27.2428 24.1081 27.0474 24.173 26.8981 24.3032C26.7485 24.4336 26.6577 24.6179 26.6454 24.8156C26.6298 25.014 26.6933 25.2104 26.8224 25.3618C26.9518 25.5133 27.1359 25.607 27.3342 25.6224C28.6231 25.8331 29.7787 26.5393 30.5538 27.5909C31.6559 28.9668 33.0444 30.0863 34.6231 30.8715H28.8895C27.6472 30.8715 26.6399 31.8784 26.6399 33.1213V36.1206C26.6399 37.3629 27.6472 38.3704 28.8895 38.3704H30.3892V61.6161C30.3917 63.6857 32.0689 65.3628 34.1388 65.3654H59.634C61.7037 65.3628 63.3809 63.6857 63.3836 61.6161V38.3704H64.8834C65.4798 38.3704 66.0519 38.1333 66.4738 37.7115C66.8956 37.2896 67.1327 36.7171 67.1327 36.1206ZM55.0157 21.8733C55.8818 21.815 56.7422 22.053 57.455 22.548C57.9075 22.9235 58.1589 23.4885 58.1344 24.0762C58.1344 26.7357 54.421 30.5348 47.676 30.8504C48.197 28.4359 50.0712 21.8733 55.0157 21.8733ZM47.0054 32.3713H50.636V36.8704H43.1368V32.3713H47.0054ZM53.5295 54.581C53.735 54.1924 53.9054 53.7861 54.0391 53.3676H55.5886C55.379 54.1792 55.0559 54.9576 54.6295 55.6794L53.5295 54.581ZM53.7499 56.9227C53.4259 57.3041 53.0714 57.6589 52.6896 57.9829L51.6268 56.9205C52.0148 56.6029 52.3702 56.248 52.6874 55.8604L53.7499 56.9227ZM54.3468 51.8676C54.3976 51.3694 54.3976 50.8669 54.3468 50.368H55.8464C55.8675 50.6163 55.8847 50.8642 55.8847 51.118C55.8847 51.3714 55.8675 51.6195 55.8464 51.8676H54.3468ZM54.0391 48.8683C53.9056 48.4495 53.7361 48.043 53.5308 47.6542L54.6295 46.5564C55.0559 47.2783 55.379 48.0564 55.5886 48.8683H54.0391ZM52.6896 46.3759C52.3724 45.9879 52.0172 45.6329 51.6295 45.3155L52.692 44.2528C53.0738 44.5767 53.4284 44.9313 53.7519 45.3131L52.6896 46.3759ZM52.8853 51.118C52.8853 54.431 50.1994 57.1169 46.8866 57.1169C43.5734 57.1169 40.8877 54.431 40.8877 51.118C40.8877 47.8048 43.5734 45.1189 46.8866 45.1189C50.1979 45.1226 52.8816 47.8062 52.8853 51.118ZM47.6362 58.5787V60.0782C47.3879 60.0991 47.1398 60.1165 46.8866 60.1165C46.6328 60.1165 46.3845 60.0991 46.1364 60.0782V58.5787C46.6352 58.6295 47.1376 58.6295 47.6362 58.5787ZM36.6373 53.3676H31.889V48.8683H36.6373C36.3052 50.3498 36.3052 51.8863 36.6373 53.3676ZM31.889 47.3687V38.3704H43.1368V41.3238C40.3588 42.394 38.1629 44.5902 37.0924 47.3687H31.889ZM44.6368 42.4193V43.9686C44.2183 44.1021 43.8123 44.2719 43.4236 44.4771L42.3248 43.3785C43.0469 42.9518 43.825 42.6292 44.6368 42.4193ZM40.0211 45.3171C40.3453 44.9353 40.6999 44.5807 41.0817 44.2565L42.1442 45.3195C41.7565 45.6364 41.4011 45.9919 41.0839 46.3796L40.0211 45.3171ZM40.242 47.6588C40.0372 48.0463 39.8672 48.4508 39.7337 48.8683H38.1879C38.3978 48.0564 38.7206 47.2783 39.1469 46.5564L40.242 47.6588ZM37.9264 50.368H39.426C39.375 50.8669 39.375 51.3694 39.426 51.8676H37.9264C37.9053 51.6195 37.8879 51.3714 37.8879 51.118C37.8879 50.8642 37.9053 50.6163 37.9264 50.368ZM39.7337 53.3676C39.8667 53.7861 40.0372 54.1924 40.242 54.581L39.1431 55.6794C38.718 54.9576 38.3967 54.1792 38.1879 53.3676H39.7337ZM41.0832 55.8604C41.4006 56.248 41.7556 56.6029 42.1436 56.9205L41.0808 57.9829C40.699 57.6589 40.3445 57.3041 40.0207 56.9227L41.0832 55.8604ZM46.8866 40.6198C46.1298 40.6215 45.3754 40.7049 44.6368 40.8688V38.3704H49.1358V40.8688C48.3972 40.7049 47.643 40.6215 46.8866 40.6198ZM47.6362 42.1578V43.6576C47.1376 43.6064 46.6352 43.6064 46.1364 43.6576V42.1578C46.3845 42.1367 46.6328 42.1193 46.8866 42.1193C47.1398 42.1193 47.3879 42.1367 47.6362 42.1578ZM50.3501 44.4732C49.9612 44.2686 49.555 44.0984 49.1358 43.9649V42.4193C49.9476 42.6292 50.7264 42.9518 51.4478 43.3785L50.3501 44.4732ZM35.5192 24.0762C35.4952 23.4885 35.7459 22.9235 36.1988 22.548C36.9116 22.053 37.7718 21.815 38.6379 21.8733C43.5725 21.8733 45.4526 28.4354 45.9769 30.8504C39.2324 30.5348 35.5192 26.7357 35.5192 24.0762ZM31.1392 36.8704H28.8895C28.4757 36.8704 28.1401 36.5346 28.1401 36.1206V35.3704H39.3879C39.8016 35.3704 40.1377 35.0348 40.1377 34.6211C40.1377 34.2065 39.8016 33.8709 39.3879 33.8709H28.1401V33.1213C28.1401 32.7069 28.4757 32.3713 28.8895 32.3713H41.6373V36.8704H31.1392ZM43.1368 63.8659H34.1388C33.1884 63.8617 32.3439 63.2615 32.0269 62.3661H37.8879C38.3021 62.3661 38.6379 62.0302 38.6379 61.6161C38.6379 61.2021 38.3021 60.8663 37.8879 60.8663H31.889V54.8672H37.0924C38.1629 57.6459 40.3588 59.8418 43.1368 60.912V63.8659ZM42.3248 58.8609L43.4236 57.7627C43.8123 57.9675 44.2183 58.1375 44.6368 58.271V59.82C43.825 59.6102 43.0469 59.2878 42.3248 58.8609ZM49.1358 63.8659H44.6368V61.3673C46.1184 61.699 47.6549 61.699 49.1358 61.3673V63.8659ZM49.1358 59.8163V58.271C49.5545 58.1375 49.9608 57.9675 50.3492 57.7627L51.4478 58.8609C50.7264 59.2878 49.9476 59.6102 49.1358 59.82V59.8163ZM61.8838 60.8663H55.8847C55.4707 60.8663 55.1351 61.2021 55.1351 61.6161C55.1351 62.0302 55.4707 62.3661 55.8847 62.3661H61.7459C61.429 63.2615 60.5842 63.8617 59.634 63.8659H50.636V60.912C53.4143 59.8418 55.61 57.6459 56.6804 54.8672H61.8838V60.8663ZM61.8838 53.3676H57.1355C57.4676 51.8863 57.4676 50.3498 57.1355 48.8683H61.8838V53.3676ZM61.8838 47.3687H56.6804C55.61 44.5902 53.4143 42.394 50.636 41.3238V38.3704H61.8838V47.3687ZM65.6329 33.8709H54.3851C53.9712 33.8709 53.6351 34.2065 53.6351 34.6211C53.6351 35.0348 53.9712 35.3704 54.3851 35.3704H65.6329V36.1206C65.6329 36.5346 65.2973 36.8704 64.8834 36.8704H52.1355V32.3713H64.8834C65.2973 32.3713 65.6329 32.7069 65.6329 33.1213V33.8709Z"/>
</mask>
<path d="M67.1327 36.1206V33.1213C67.1327 31.8784 66.1256 30.8715 64.8834 30.8715H59.1497C60.728 30.0863 62.1169 28.9668 63.2191 27.5909C63.9928 26.5409 65.1462 25.8344 66.4333 25.6224C66.8474 25.5949 67.1604 25.2364 67.1327 24.8225C67.105 24.4083 66.7469 24.0953 66.3326 24.1226C64.6249 24.363 63.0831 25.2729 62.0481 26.6519C60.0908 28.9791 57.3079 30.4574 54.2837 30.7763C57.7971 29.066 59.634 26.2974 59.634 24.0762C59.6538 23.0434 59.2038 22.0576 58.4109 21.3953C57.4344 20.6669 56.2324 20.3053 55.0157 20.3737C50.2412 20.3737 47.8973 24.9258 46.8264 28.2146C45.7563 24.9258 43.4124 20.3737 38.6379 20.3737C37.4212 20.3053 36.2195 20.6669 35.2425 21.3953C34.4498 22.0576 33.9998 23.0434 34.0194 24.0762C34.0194 26.2884 35.8365 29.0387 39.3151 30.7499C36.3554 30.403 33.6398 28.9371 31.7249 26.6535C30.6899 25.2738 29.1481 24.3632 27.4398 24.1226C27.2428 24.1081 27.0474 24.173 26.8981 24.3032C26.7485 24.4336 26.6577 24.6179 26.6454 24.8156C26.6298 25.014 26.6933 25.2104 26.8224 25.3618C26.9518 25.5133 27.1359 25.607 27.3342 25.6224C28.6231 25.8331 29.7787 26.5393 30.5538 27.5909C31.6559 28.9668 33.0444 30.0863 34.6231 30.8715H28.8895C27.6472 30.8715 26.6399 31.8784 26.6399 33.1213V36.1206C26.6399 37.3629 27.6472 38.3704 28.8895 38.3704H30.3892V61.6161C30.3917 63.6857 32.0689 65.3628 34.1388 65.3654H59.634C61.7037 65.3628 63.3809 63.6857 63.3836 61.6161V38.3704H64.8834C65.4798 38.3704 66.0519 38.1333 66.4738 37.7115C66.8956 37.2896 67.1327 36.7171 67.1327 36.1206ZM55.0157 21.8733C55.8818 21.815 56.7422 22.053 57.455 22.548C57.9075 22.9235 58.1589 23.4885 58.1344 24.0762C58.1344 26.7357 54.421 30.5348 47.676 30.8504C48.197 28.4359 50.0712 21.8733 55.0157 21.8733ZM47.0054 32.3713H50.636V36.8704H43.1368V32.3713H47.0054ZM53.5295 54.581C53.735 54.1924 53.9054 53.7861 54.0391 53.3676H55.5886C55.379 54.1792 55.0559 54.9576 54.6295 55.6794L53.5295 54.581ZM53.7499 56.9227C53.4259 57.3041 53.0714 57.6589 52.6896 57.9829L51.6268 56.9205C52.0148 56.6029 52.3702 56.248 52.6874 55.8604L53.7499 56.9227ZM54.3468 51.8676C54.3976 51.3694 54.3976 50.8669 54.3468 50.368H55.8464C55.8675 50.6163 55.8847 50.8642 55.8847 51.118C55.8847 51.3714 55.8675 51.6195 55.8464 51.8676H54.3468ZM54.0391 48.8683C53.9056 48.4495 53.7361 48.043 53.5308 47.6542L54.6295 46.5564C55.0559 47.2783 55.379 48.0564 55.5886 48.8683H54.0391ZM52.6896 46.3759C52.3724 45.9879 52.0172 45.6329 51.6295 45.3155L52.692 44.2528C53.0738 44.5767 53.4284 44.9313 53.7519 45.3131L52.6896 46.3759ZM52.8853 51.118C52.8853 54.431 50.1994 57.1169 46.8866 57.1169C43.5734 57.1169 40.8877 54.431 40.8877 51.118C40.8877 47.8048 43.5734 45.1189 46.8866 45.1189C50.1979 45.1226 52.8816 47.8062 52.8853 51.118ZM47.6362 58.5787V60.0782C47.3879 60.0991 47.1398 60.1165 46.8866 60.1165C46.6328 60.1165 46.3845 60.0991 46.1364 60.0782V58.5787C46.6352 58.6295 47.1376 58.6295 47.6362 58.5787ZM36.6373 53.3676H31.889V48.8683H36.6373C36.3052 50.3498 36.3052 51.8863 36.6373 53.3676ZM31.889 47.3687V38.3704H43.1368V41.3238C40.3588 42.394 38.1629 44.5902 37.0924 47.3687H31.889ZM44.6368 42.4193V43.9686C44.2183 44.1021 43.8123 44.2719 43.4236 44.4771L42.3248 43.3785C43.0469 42.9518 43.825 42.6292 44.6368 42.4193ZM40.0211 45.3171C40.3453 44.9353 40.6999 44.5807 41.0817 44.2565L42.1442 45.3195C41.7565 45.6364 41.4011 45.9919 41.0839 46.3796L40.0211 45.3171ZM40.242 47.6588C40.0372 48.0463 39.8672 48.4508 39.7337 48.8683H38.1879C38.3978 48.0564 38.7206 47.2783 39.1469 46.5564L40.242 47.6588ZM37.9264 50.368H39.426C39.375 50.8669 39.375 51.3694 39.426 51.8676H37.9264C37.9053 51.6195 37.8879 51.3714 37.8879 51.118C37.8879 50.8642 37.9053 50.6163 37.9264 50.368ZM39.7337 53.3676C39.8667 53.7861 40.0372 54.1924 40.242 54.581L39.1431 55.6794C38.718 54.9576 38.3967 54.1792 38.1879 53.3676H39.7337ZM41.0832 55.8604C41.4006 56.248 41.7556 56.6029 42.1436 56.9205L41.0808 57.9829C40.699 57.6589 40.3445 57.3041 40.0207 56.9227L41.0832 55.8604ZM46.8866 40.6198C46.1298 40.6215 45.3754 40.7049 44.6368 40.8688V38.3704H49.1358V40.8688C48.3972 40.7049 47.643 40.6215 46.8866 40.6198ZM47.6362 42.1578V43.6576C47.1376 43.6064 46.6352 43.6064 46.1364 43.6576V42.1578C46.3845 42.1367 46.6328 42.1193 46.8866 42.1193C47.1398 42.1193 47.3879 42.1367 47.6362 42.1578ZM50.3501 44.4732C49.9612 44.2686 49.555 44.0984 49.1358 43.9649V42.4193C49.9476 42.6292 50.7264 42.9518 51.4478 43.3785L50.3501 44.4732ZM35.5192 24.0762C35.4952 23.4885 35.7459 22.9235 36.1988 22.548C36.9116 22.053 37.7718 21.815 38.6379 21.8733C43.5725 21.8733 45.4526 28.4354 45.9769 30.8504C39.2324 30.5348 35.5192 26.7357 35.5192 24.0762ZM31.1392 36.8704H28.8895C28.4757 36.8704 28.1401 36.5346 28.1401 36.1206V35.3704H39.3879C39.8016 35.3704 40.1377 35.0348 40.1377 34.6211C40.1377 34.2065 39.8016 33.8709 39.3879 33.8709H28.1401V33.1213C28.1401 32.7069 28.4757 32.3713 28.8895 32.3713H41.6373V36.8704H31.1392ZM43.1368 63.8659H34.1388C33.1884 63.8617 32.3439 63.2615 32.0269 62.3661H37.8879C38.3021 62.3661 38.6379 62.0302 38.6379 61.6161C38.6379 61.2021 38.3021 60.8663 37.8879 60.8663H31.889V54.8672H37.0924C38.1629 57.6459 40.3588 59.8418 43.1368 60.912V63.8659ZM42.3248 58.8609L43.4236 57.7627C43.8123 57.9675 44.2183 58.1375 44.6368 58.271V59.82C43.825 59.6102 43.0469 59.2878 42.3248 58.8609ZM49.1358 63.8659H44.6368V61.3673C46.1184 61.699 47.6549 61.699 49.1358 61.3673V63.8659ZM49.1358 59.8163V58.271C49.5545 58.1375 49.9608 57.9675 50.3492 57.7627L51.4478 58.8609C50.7264 59.2878 49.9476 59.6102 49.1358 59.82V59.8163ZM61.8838 60.8663H55.8847C55.4707 60.8663 55.1351 61.2021 55.1351 61.6161C55.1351 62.0302 55.4707 62.3661 55.8847 62.3661H61.7459C61.429 63.2615 60.5842 63.8617 59.634 63.8659H50.636V60.912C53.4143 59.8418 55.61 57.6459 56.6804 54.8672H61.8838V60.8663ZM61.8838 53.3676H57.1355C57.4676 51.8863 57.4676 50.3498 57.1355 48.8683H61.8838V53.3676ZM61.8838 47.3687H56.6804C55.61 44.5902 53.4143 42.394 50.636 41.3238V38.3704H61.8838V47.3687ZM65.6329 33.8709H54.3851C53.9712 33.8709 53.6351 34.2065 53.6351 34.6211C53.6351 35.0348 53.9712 35.3704 54.3851 35.3704H65.6329V36.1206C65.6329 36.5346 65.2973 36.8704 64.8834 36.8704H52.1355V32.3713H64.8834C65.2973 32.3713 65.6329 32.7069 65.6329 33.1213V33.8709Z" stroke="#FFC400" stroke-width="0.6" mask="url(#path-2-inside-2)"/>
<path d="M43.2694 50.0307L43.2704 50.0311C43.3261 50.0557 43.3865 50.0684 43.4486 50.0682L43.4492 50.0682C43.6285 50.0682 43.7906 49.9622 43.8619 49.7984L43.862 49.7983C44.2917 48.8133 45.174 48.0993 46.2267 47.8845L46.227 47.8844C46.4703 47.835 46.6278 47.5969 46.578 47.3534L46.578 47.3532C46.5284 47.1097 46.2906 46.9524 46.0467 47.002C44.7071 47.2766 43.5848 48.1856 43.0375 49.4385L43.2694 50.0307ZM43.2694 50.0307C43.042 49.9312 42.9381 49.666 43.0374 49.4385L43.2694 50.0307Z" fill="#E4FFA3" stroke="#AAFF5C" stroke-width="0.6"/>
<path d="M43.2093 50.1681L43.2098 50.1683C43.2849 50.2015 43.3662 50.2184 43.4489 50.2182L43.4492 50.2182C43.688 50.2182 43.9042 50.077 43.9994 49.8583L43.9995 49.8582C44.4096 48.9181 45.2519 48.2366 46.2567 48.0315L46.2568 48.0314C46.5815 47.9655 46.7913 47.6481 46.725 47.3234L46.725 47.3233C46.6588 46.9984 46.3416 46.7889 46.0166 46.8551L45.9867 46.7081L46.0168 46.855C44.6293 47.1393 43.4669 48.0808 42.9 49.3785L43.2093 50.1681ZM43.2093 50.1681C42.906 50.0355 42.7675 49.6818 42.9 49.3785L43.2093 50.1681Z" stroke="#17E200" stroke-width="0.3"/>
<path d="M51.2959 52.0183L51.002 51.9581C50.7273 53.2977 49.8189 54.4203 48.5657 54.968L48.5657 54.968L48.5646 54.9685C48.5086 54.9933 48.4481 55.0059 48.3865 55.0058L48.3864 55.0058C48.1731 55.0054 47.9896 54.8559 47.9463 54.6479C47.9028 54.4395 48.0111 54.2292 48.206 54.1436C49.1909 53.7143 49.9049 52.8318 50.1193 51.779C50.1433 51.6614 50.2126 51.5587 50.3119 51.4931L50.3121 51.493C50.4116 51.4271 50.5332 51.4036 50.6502 51.4274L50.6502 51.4275C50.7677 51.4514 50.8705 51.5207 50.9364 51.62C51.0023 51.7197 51.0258 51.8416 51.002 51.9583L51.2959 52.0183ZM51.2959 52.0183C51.3357 51.8235 51.2963 51.6205 51.1866 51.4544L50.1465 51.2428C49.9804 51.3526 49.8652 51.5239 49.8254 51.719C49.6305 52.6762 48.9812 53.4785 48.0859 53.8687C47.7608 54.0112 47.5802 54.3618 47.6526 54.7091C47.7249 55.0564 48.0311 55.3052 48.3859 55.3058C48.4892 55.306 48.5913 55.2847 48.6859 55.2429C50.0284 54.6561 51.0016 53.4535 51.2959 52.0183Z" fill="#E4FFA3" stroke="#AAFF5C" stroke-width="0.6"/>
<path d="M50.6802 51.2805L50.6802 51.2805C50.5243 51.2486 50.3621 51.28 50.2293 51.3679L50.2292 51.368C50.0965 51.4557 50.0043 51.5926 49.9724 51.7489L50.6802 51.2805ZM50.6802 51.2805C50.8365 51.3124 50.9736 51.4047 51.0616 51.5373L51.1866 51.4544L50.6802 51.2805ZM48.3861 55.1558H48.3862C48.4687 55.156 48.5499 55.139 48.6252 55.1057L48.6258 55.1055C49.9236 54.5382 50.8644 53.3757 51.1489 51.9883L48.3861 55.1558ZM48.3861 55.1558C48.1021 55.1553 47.8573 54.9562 47.7994 54.6785C47.7415 54.4007 47.886 54.1202 48.1459 54.0062M48.3861 55.1558L48.3859 55.3058M48.3859 55.3058C48.0311 55.3052 47.7249 55.0564 47.6526 54.7091C47.5802 54.3618 47.7608 54.0113 48.0859 53.8687M48.3859 55.3058C48.4892 55.306 48.5913 55.2847 48.6859 55.2429M48.3859 55.3058L48.6859 55.2429M48.0859 53.8687L48.1458 54.0062C48.1458 54.0062 48.1459 54.0062 48.1459 54.0062M48.0859 53.8687L48.1461 54.0061C48.146 54.0061 48.146 54.0062 48.1459 54.0062M48.0859 53.8687L48.1459 54.0062M48.1459 54.0062C49.086 53.5964 49.7677 52.754 49.9723 51.749L48.1459 54.0062ZM48.6859 55.2429C50.0284 54.6561 51.0016 53.4535 51.2959 52.0184L48.6859 55.2429Z" stroke="#17E200" stroke-width="0.3"/>
<path d="M67.5408 43.323L67.5535 43.3127L67.5651 43.3011C67.7427 43.1224 67.9033 42.9595 68.012 42.7793C68.131 42.582 68.1824 42.3766 68.1824 42.1196C68.1824 41.8718 68.3839 41.6703 68.6321 41.6703C68.8806 41.6703 69.0815 41.8711 69.0823 42.1181C69.0738 42.8157 68.7591 43.4741 68.2213 43.9184L68.2099 43.9279L68.1995 43.9383C68.0223 44.1169 67.8617 44.2796 67.753 44.4596C67.6338 44.6567 67.5824 44.8621 67.5824 45.1192C67.5824 45.3763 67.6338 45.5817 67.7529 45.7789C67.8617 45.9589 68.0222 46.1217 68.1995 46.3003L68.2099 46.3108L68.2213 46.3202C68.7591 46.7648 69.0738 47.423 69.0823 48.1201C69.0815 48.368 68.8804 48.5686 68.6321 48.5686C68.3841 48.5686 68.1824 48.3672 68.1824 48.1186C68.1824 47.8623 68.131 47.6565 68.0122 47.4591C67.9032 47.2782 67.7427 47.1153 67.5644 46.9371L67.5532 46.9259L67.5409 46.916C66.9982 46.4774 66.6828 45.8169 66.6828 45.1192C66.6828 44.4215 66.9982 43.7611 67.5408 43.323Z" fill="#E4FFA3" stroke="#AAFF5C" stroke-width="0.6"/>
<path d="M67.4465 43.2063L67.4529 43.2012L67.4587 43.1953C67.6394 43.0136 67.7859 42.8637 67.8836 42.7018C67.9864 42.5314 68.0324 42.3537 68.0324 42.1196C68.0324 41.7889 68.3011 41.5203 68.6321 41.5203C68.9635 41.5203 69.2319 41.7885 69.2323 42.1188C69.2236 42.8609 68.8889 43.5614 68.3169 44.0341L68.3112 44.0388L68.306 44.044C68.1256 44.2257 67.979 44.3755 67.8813 44.5372C67.7785 44.7074 67.7324 44.8851 67.7324 45.1192C67.7324 45.3533 67.7785 45.531 67.8813 45.7013C67.979 45.8631 68.1255 46.0129 68.306 46.1946L68.3112 46.1999L68.3168 46.2046C68.889 46.6775 69.2236 47.3778 69.2323 48.1194C69.2319 48.4505 68.9634 48.7186 68.6321 48.7186C68.3012 48.7186 68.0324 48.4501 68.0324 48.1186C68.0324 47.8852 67.9864 47.7071 67.8837 47.5364C67.7859 47.3741 67.6394 47.2241 67.4583 47.0432L67.4527 47.0376L67.4466 47.0326C66.8686 46.5656 66.5328 45.8622 66.5328 45.1192C66.5328 44.3762 66.8686 43.6729 67.4465 43.2063Z" stroke="#17E200" stroke-width="0.3"/>
<path d="M26.2985 51.571L26.3113 51.5607L26.323 51.5489C26.5003 51.3703 26.6608 51.2075 26.7695 51.0273C26.8885 50.8302 26.9399 50.6248 26.9399 50.3679C26.9399 50.1198 27.1414 49.9183 27.3899 49.9183C27.638 49.9183 27.8393 50.1191 27.8401 50.3663C27.8314 51.0638 27.5166 51.7223 26.9791 52.1664L26.9678 52.1758L26.9574 52.1863C26.7799 52.3649 26.6193 52.5276 26.5105 52.7077C26.3914 52.9049 26.3399 53.1103 26.3399 53.3674C26.3399 53.6244 26.3914 53.8298 26.5106 54.027C26.6193 54.207 26.7799 54.3698 26.9574 54.5484L26.9677 54.5588L26.9791 54.5682C27.5167 55.0125 27.8314 55.6709 27.8401 56.3682C27.8393 56.6162 27.6378 56.8168 27.3899 56.8168C27.1416 56.8168 26.9399 56.6154 26.9399 56.3666C26.9399 56.11 26.8884 55.9048 26.7695 55.7077C26.6608 55.5276 26.5005 55.3647 26.323 55.1859L26.3114 55.1742L26.2986 55.1639C25.7554 54.7251 25.4401 54.065 25.4401 53.3674C25.4401 52.6698 25.7555 52.0093 26.2985 51.571Z" fill="#E4FFA3" stroke="#AAFF5C" stroke-width="0.6"/>
<path d="M26.2043 51.4543L26.2107 51.4491L26.2165 51.4433C26.397 51.2615 26.5434 51.1116 26.6411 50.9498C26.7439 50.7795 26.7899 50.6018 26.7899 50.3679C26.7899 50.0369 27.0587 49.7683 27.3899 49.7683C27.7209 49.7683 27.9897 50.0365 27.9901 50.367C27.9811 51.1089 27.6465 51.8096 27.0747 52.2821L27.069 52.2868L27.0638 52.292C26.8832 52.4737 26.7367 52.6235 26.6389 52.7853C26.536 52.9556 26.4899 53.1333 26.4899 53.3674C26.4899 53.6015 26.536 53.7791 26.6389 53.9494C26.7367 54.1111 26.8832 54.2609 27.0638 54.4427L27.069 54.4479L27.0746 54.4526C27.6465 54.9253 27.9811 55.6257 27.9901 56.3674C27.9897 56.6987 27.7208 56.9668 27.3899 56.9668C27.0588 56.9668 26.7899 56.6983 26.7899 56.3666C26.7899 56.1331 26.7438 55.9555 26.6411 55.7852C26.5435 55.6234 26.397 55.4734 26.2165 55.2916L26.2107 55.2858L26.2043 55.2806C25.6259 54.8133 25.2901 54.1104 25.2901 53.3674C25.2901 52.6245 25.626 51.9211 26.2043 51.4543Z" stroke="#17E200" stroke-width="0.3"/>
<path d="M26.2074 59.7983L26.2178 59.8088L26.2292 59.8182C26.7663 60.2617 27.0809 60.9196 27.0899 61.6165C27.0809 62.3133 26.7663 62.9711 26.229 63.4154L26.2177 63.4247L26.2074 63.4351C26.0298 63.6139 25.8694 63.7767 25.7607 63.9568C25.6417 64.154 25.5904 64.3592 25.5904 64.6159C25.5904 64.8644 25.389 65.0659 25.1402 65.0659C24.8924 65.0659 24.6912 64.8654 24.6904 64.6174C24.6989 63.9198 25.0138 63.2616 25.5511 62.8172L25.5624 62.8079L25.5726 62.7975C25.7503 62.6188 25.9109 62.456 26.0197 62.2759C26.1389 62.0787 26.1904 61.8733 26.1904 61.6165C26.1904 61.3597 26.1389 61.1542 26.0198 60.957C25.9109 60.7768 25.7503 60.6139 25.5726 60.4352L25.5623 60.4249L25.551 60.4156C25.0138 59.9714 24.6989 59.3132 24.6904 58.6154C24.6912 58.3677 24.8924 58.1671 25.1402 58.1671C25.389 58.1671 25.5904 58.3686 25.5904 58.6169C25.5904 58.8738 25.6417 59.0792 25.7607 59.2765C25.8694 59.4567 26.0298 59.6196 26.2074 59.7983Z" fill="#E4FFA3" stroke="#AAFF5C" stroke-width="0.6"/>
<path d="M26.3138 59.6926L26.319 59.6978L26.3247 59.7025C26.8963 60.1746 27.2309 60.8749 27.2399 61.6165C27.2309 62.3581 26.8963 63.0582 26.3246 63.531L26.319 63.5356L26.3138 63.5408C26.1332 63.7226 25.9867 63.8726 25.8891 64.0343C25.7864 64.2046 25.7404 64.3822 25.7404 64.6158C25.7404 64.9473 25.4717 65.2159 25.1402 65.2159C24.8093 65.2159 24.5408 64.9478 24.5404 64.6167C24.5492 63.8746 24.884 63.1743 25.4555 62.7016L25.4611 62.6969L25.4663 62.6917C25.647 62.51 25.7936 62.3601 25.8913 62.1983C25.9942 62.028 26.0404 61.8503 26.0404 61.6165C26.0404 61.3827 25.9943 61.2049 25.8914 61.0345C25.7936 60.8726 25.647 60.7227 25.4662 60.541L25.4611 60.5358L25.4555 60.5312C24.884 60.0587 24.5492 59.3584 24.5404 58.6161C24.5408 58.2852 24.8093 58.0171 25.1402 58.0171C25.4718 58.0171 25.7404 58.2857 25.7404 58.6169C25.7404 58.8509 25.7864 59.0286 25.8891 59.199C25.9867 59.3609 26.1332 59.5108 26.3138 59.6926Z" stroke="#17E200" stroke-width="0.3"/>
<path d="M67.4744 55.164L67.4618 55.1742L67.4504 55.1857C67.2724 55.3645 67.1118 55.5274 67.003 55.7076C66.884 55.9048 66.8326 56.1101 66.8326 56.3666C66.8326 56.6155 66.631 56.8168 66.3828 56.8168C66.1349 56.8168 65.9337 56.6163 65.9328 56.3681C65.9414 55.6709 66.256 55.0125 66.7937 54.5682L66.805 54.5588L66.8154 54.5484C66.993 54.3696 67.1534 54.2066 67.2621 54.0265C67.3811 53.8293 67.4326 53.624 67.4326 53.3674C67.4326 53.1108 67.3812 52.9049 67.2623 52.7075C67.1534 52.5267 66.9928 52.3638 66.8147 52.1856L66.8046 52.1755L66.7936 52.1664C66.2561 51.7223 65.9414 51.0638 65.9328 50.3663C65.9337 50.1189 66.1347 49.9183 66.3828 49.9183C66.6312 49.9183 66.8326 50.1197 66.8326 50.3679C66.8326 50.6247 66.8839 50.8301 67.003 51.0274C67.1118 51.2076 67.2726 51.3705 67.4504 51.5492L67.4619 51.5607L67.4745 51.5709C68.017 52.0093 68.3326 52.6698 68.3326 53.3674C68.3326 54.065 68.0171 54.7251 67.4744 55.164Z" fill="#E4FFA3" stroke="#AAFF5C" stroke-width="0.6"/>
<path d="M67.5687 55.2806L67.5624 55.2857L67.5567 55.2915C67.3758 55.4733 67.2291 55.6233 67.1314 55.7852C67.0286 55.9555 66.9826 56.1331 66.9826 56.3666C66.9826 56.6983 66.7139 56.9668 66.3828 56.9668C66.0518 56.9668 65.7833 56.6988 65.7828 56.3674C65.7916 55.6257 66.1262 54.9253 66.6981 54.4525L66.7038 54.4479L66.7089 54.4426C66.8896 54.2608 67.0361 54.1108 67.1337 53.949C67.2365 53.7786 67.2826 53.601 67.2826 53.3674C67.2826 53.1337 67.2365 52.9555 67.1338 52.7849C67.036 52.6226 66.8895 52.4726 66.7086 52.2917L66.7036 52.2866L66.6981 52.2821C66.1262 51.8096 65.7916 51.1089 65.7828 50.367C65.7833 50.0364 66.0517 49.7683 66.3828 49.7683C66.7139 49.7683 66.9826 50.0368 66.9826 50.3679C66.9826 50.6018 67.0286 50.7795 67.1314 50.9499C67.2292 51.1117 67.3758 51.2616 67.5567 51.4434L67.5625 51.4491L67.5688 51.4542C68.1465 51.9211 68.4826 52.6245 68.4826 53.3674C68.4826 54.1103 68.1465 54.8133 67.5687 55.2806Z" stroke="#17E200" stroke-width="0.3"/>
</g>
<defs>
<filter id="filter0_d" x="-1" y="-1" width="96" height="96" filterUnits="userSpaceOnUse" color-interpolation-filters="sRGB">
<feFlood flood-opacity="0" result="BackgroundImageFix"/>
<feColorMatrix in="SourceAlpha" type="matrix" values="0 0 0 0 0 0 0 0 0 0 0 0 0 0 0 0 0 0 127 0"/>
<feOffset dy="4"/>
<feGaussianBlur stdDeviation="12"/>
<feColorMatrix type="matrix" values="0 0 0 0 0.411765 0 0 0 0 0.811765 0 0 0 0 0.0941176 0 0 0 1 0"/>
<feBlend mode="normal" in2="BackgroundImageFix" result="effect1_dropShadow"/>
<feBlend mode="normal" in="SourceGraphic" in2="effect1_dropShadow" result="shape"/>
</filter>
</defs>
</svg>
