<svg width="26" height="26" viewBox="0 0 26 26" fill="none" xmlns="http://www.w3.org/2000/svg">
<g clip-path="url(#clip0)">
<path d="M26 19.504V9.71988L22.6623 3.15382L16.8086 1.69049V3.05176e-05H9.19141V1.69049L3.33768 3.15382L0 9.71988V19.504L4.62109 22.5509V26H21.3789V22.5509L26 19.504ZM10.7148 1.52347H15.2852V2.10547L13 6.67578L10.7148 2.10547V1.52347ZM6.14453 24.308C6.14453 23.7805 6.14453 11.1913 6.14453 10.6641H4.62109V20.7261L1.52344 18.6836V10.0849L4.38107 4.46342L9.54509 3.17247L11.2966 6.67578L9.19141 5.62306V11.1348L12.2383 9.61137V16.8086C12.2383 20.4381 9.68315 23.5863 6.15862 24.3062L6.14453 24.308ZM11.2968 8.37894L10.7148 8.66994V8.08794L11.2968 8.37894ZM9.64586 24.4766C11.1235 23.4969 12.2914 22.1008 13 20.4714C13.7086 22.1008 14.8765 23.4969 16.3541 24.4766H9.64586ZM19.8555 24.309L19.8517 24.3084C16.3216 23.5925 13.7617 20.4417 13.7617 16.8086V9.61137L16.8086 11.1348V5.62306L14.7032 6.67558L16.4549 3.17227L21.6189 4.46342L24.4766 10.0849V18.6836L21.3789 20.7261V10.6641H19.8555V24.309ZM14.7032 8.37894L15.2852 8.08794V8.66994L14.7032 8.37894Z" fill="#FFC400"/>
<path d="M15.2852 12.1875H16.8086V13.711H15.2852V12.1875Z" fill="#00FE01"/>
<path d="M15.2852 15.2852H16.8086V16.8086H15.2852V15.2852Z" fill="#00FE01"/>
<path d="M15.2852 18.3321H16.8086V19.8555H15.2852V18.3321Z" fill="#00FE01"/>
</g>
<defs>
<clipPath id="clip0">
<rect width="26" height="26" fill="white"/>
</clipPath>
</defs>
</svg>
