<svg width="26" height="26" viewBox="0 0 26 26" fill="none" xmlns="http://www.w3.org/2000/svg">
<path d="M13 26C20.1582 26 26 20.1576 26 13C26 5.84183 20.1576 0 13 0C5.84183 0 0 5.84242 0 13C0 20.1582 5.84242 26 13 26ZM4.65601 13.7611C4.81351 15.5004 5.50441 17.0885 6.56407 18.3588L4.36818 20.5545C2.75488 18.7135 1.72002 16.3533 1.54942 13.7611H4.65601ZM18.3588 6.56407C17.0885 5.50441 15.501 4.81351 13.7617 4.65601V1.54942C16.3539 1.72002 18.7135 2.75488 20.5545 4.36818L18.3588 6.56407ZM12.2383 4.65601C10.499 4.81351 8.91151 5.50441 7.64119 6.56407L5.4455 4.36818C7.28651 2.75488 9.64606 1.72002 12.2383 1.54942V4.65601ZM13 6.14453C16.78 6.14453 19.8555 9.21997 19.8555 13C19.8555 16.78 16.78 19.8555 13 19.8555C9.21997 19.8555 6.14453 16.78 6.14453 13C6.14453 9.21997 9.21997 6.14453 13 6.14453ZM7.64119 19.4359C8.91151 20.4954 10.499 21.1865 12.2383 21.344V24.4506C9.64606 24.28 7.28651 23.2451 5.4455 21.6318L7.64119 19.4359ZM13.7617 21.344C15.501 21.1865 17.0885 20.4956 18.3588 19.4359L20.5545 21.6318C18.7135 23.2451 16.3539 24.28 13.7617 24.4506V21.344ZM21.6318 20.5545L19.4359 18.3588C20.4956 17.0885 21.1865 15.5004 21.344 13.7611H24.4506C24.28 16.3533 23.2451 18.7135 21.6318 20.5545ZM24.4506 12.2383H21.344C21.1865 10.499 20.4956 8.91151 19.4359 7.64119L21.6318 5.4455C23.2451 7.28651 24.28 9.64606 24.4506 12.2383ZM4.36818 5.4455L6.56407 7.64119C5.50441 8.91151 4.81351 10.499 4.65601 12.2383H1.54942C1.72002 9.64606 2.75488 7.28651 4.36818 5.4455Z" fill="#FFC400"/>
</svg>
