<svg width="26" height="26" viewBox="0 0 26 26" fill="none" xmlns="http://www.w3.org/2000/svg">
<path d="M24.4584 10.7889C24.1254 4.78385 19.1136 0 13 0C6.88645 0 1.87464 4.78385 1.54157 10.7889C0.645582 11.0982 0 11.9495 0 12.9492V15.9961C0 17.2561 1.02512 18.2812 2.28516 18.2812H5.5378C6.92697 20.9921 9.75041 22.8516 13 22.8516C16.2496 22.8516 19.073 20.9921 20.4622 18.2812H22.9531V19.1445C22.9531 22.0846 20.5612 24.4766 17.6211 24.4766H12.2383V26H17.6211C21.4012 26 24.4766 22.9246 24.4766 19.1445V18.1502C25.3632 17.8358 26 16.9891 26 15.9961V12.9492C26 11.9495 25.3544 11.0982 24.4584 10.7889ZM13 1.52344C18.2306 1.52344 22.5317 5.55841 22.924 10.6641H20.4622C19.073 7.95326 16.2496 6.09375 13 6.09375C9.75041 6.09375 6.92697 7.95326 5.5378 10.6641H3.07602C3.46826 5.55841 7.76938 1.52344 13 1.52344ZM4.62109 16.7578H2.28516C1.86514 16.7578 1.52344 16.4161 1.52344 15.9961V12.9492C1.52344 12.5292 1.86514 12.1875 2.28516 12.1875H4.62109V16.7578ZM13 21.3281C9.21989 21.3281 6.14453 18.2528 6.14453 14.4727C6.14453 10.6926 9.21989 7.61719 13 7.61719C16.7801 7.61719 19.8555 10.6926 19.8555 14.4727C19.8555 18.2528 16.7801 21.3281 13 21.3281ZM24.4766 15.9961C24.4766 16.4161 24.1349 16.7578 23.7148 16.7578H21.3789V12.1875H23.7148C24.1349 12.1875 24.4766 12.5292 24.4766 12.9492V15.9961Z" fill="#FFC400"/>
</svg>
