<svg width="12" height="11" viewBox="0 0 12 11" fill="none" xmlns="http://www.w3.org/2000/svg">
<mask id="path-1-outside-1" maskUnits="userSpaceOnUse" x="-0.00012207" y="0" width="12" height="11" fill="black">
<rect fill="white" x="-0.00012207" width="12" height="11"/>
<path fill-rule="evenodd" clip-rule="evenodd" d="M3.84371 9.74808C4.19747 10.1098 4.77619 10.0778 5.09057 9.67887L10.8103 2.42319C11.1044 2.04982 11.0504 1.50023 10.6894 1.19607C10.3283 0.891907 9.79681 0.947738 9.50267 1.32111L4.37856 7.83936L2.43657 5.8562C2.10531 5.51715 1.57102 5.52064 1.2437 5.86318C0.915812 6.20573 0.919187 6.75822 1.25045 7.0967L3.84371 9.74866"/>
</mask>
<path fill-rule="evenodd" clip-rule="evenodd" d="M3.84371 9.74808C4.19747 10.1098 4.77619 10.0778 5.09057 9.67887L10.8103 2.42319C11.1044 2.04982 11.0504 1.50023 10.6894 1.19607C10.3283 0.891907 9.79681 0.947738 9.50267 1.32111L4.37856 7.83936L2.43657 5.8562C2.10531 5.51715 1.57102 5.52064 1.2437 5.86318C0.915812 6.20573 0.919187 6.75822 1.25045 7.0967L3.84371 9.74866" fill="white"/>
<path d="M5.09057 9.67887L4.85497 9.49315L4.85494 9.49319L5.09057 9.67887ZM10.8103 2.42319L11.0459 2.60891L11.0459 2.60884L10.8103 2.42319ZM9.50267 1.32111L9.26701 1.13546L9.26682 1.1357L9.50267 1.32111ZM4.37856 7.83936L4.16422 8.04926L4.40326 8.29337L4.61441 8.02477L4.37856 7.83936ZM2.43657 5.8562L2.22198 6.06585L2.22222 6.0661L2.43657 5.8562ZM1.2437 5.86318L1.46042 6.07063L1.46059 6.07044L1.2437 5.86318ZM1.25045 7.0967L1.46494 6.88695L1.46485 6.88686L1.25045 7.0967ZM3.62923 9.95783C4.11038 10.4498 4.9005 10.4048 5.3262 9.86456L4.85494 9.49319C4.65187 9.75089 4.28456 9.7698 4.0582 9.53833L3.62923 9.95783ZM5.32617 9.8646L11.0459 2.60891L10.5747 2.23746L4.85497 9.49315L5.32617 9.8646ZM11.0459 2.60884C11.439 2.10991 11.369 1.37636 10.8826 0.966629L10.4961 1.42551C10.7318 1.6241 10.7698 1.98973 10.5746 2.23754L11.0459 2.60884ZM10.8826 0.966629C10.3905 0.552073 9.66495 0.630332 9.26701 1.13546L9.73833 1.50676C9.92867 1.26514 10.2661 1.23174 10.4961 1.42551L10.8826 0.966629ZM9.26682 1.1357L4.14271 7.65396L4.61441 8.02477L9.73852 1.50651L9.26682 1.1357ZM4.59291 7.62947L2.65091 5.64631L2.22222 6.0661L4.16422 8.04926L4.59291 7.62947ZM2.65115 5.64655C2.20108 5.18588 1.47117 5.19088 1.0268 5.65593L1.46059 6.07044C1.67087 5.85039 2.00954 5.84841 2.22198 6.06585L2.65115 5.64655ZM1.02698 5.65574C0.587113 6.11527 0.591607 6.85242 1.03604 7.30653L1.46485 6.88686C1.24677 6.66403 1.24451 6.29619 1.46042 6.07063L1.02698 5.65574ZM1.03595 7.30644L3.62922 9.95841L4.05821 9.53892L1.46494 6.88695L1.03595 7.30644Z" fill="white" mask="url(#path-1-outside-1)"/>
</svg>
