<svg width="109" height="136" viewBox="0 0 109 136" fill="none" xmlns="http://www.w3.org/2000/svg">
<path d="M96.3773 48.3638H72.3595V20.3842V9.66364C72.3593 4.3349 68.0244 0 62.6959 0H9.66337C4.3349 0 0 4.3349 0 9.66364V20.3842V115.272V125.993C0 131.321 4.3349 135.656 9.66364 135.656H62.6959C68.0244 135.656 72.3595 131.321 72.3595 125.993V115.272V96.9848H96.3773C100.51 96.9848 103.872 93.6228 103.872 89.4903V55.8582C103.872 51.7258 100.51 48.3638 96.3773 48.3638ZM72.3593 53.6631H96.3773V53.6628C96.4618 53.6628 96.5447 53.6687 96.6266 53.6779C96.6528 53.6808 96.6785 53.6859 96.7045 53.6899C96.7601 53.6981 96.815 53.7079 96.8693 53.7203C96.8982 53.7269 96.9268 53.7346 96.9554 53.7426C97.0063 53.7564 97.0561 53.7723 97.1054 53.7895C97.1326 53.799 97.1599 53.8088 97.1867 53.8194C97.2389 53.8401 97.2895 53.8634 97.3393 53.888C97.3605 53.8984 97.3825 53.9079 97.4034 53.919C97.4731 53.9561 97.5412 53.9961 97.6061 54.0404C97.6125 54.0446 97.618 54.0497 97.6241 54.0539C97.6824 54.0944 97.7386 54.1374 97.7926 54.1832C97.8128 54.2002 97.8316 54.2187 97.8512 54.2364C97.8899 54.2717 97.9278 54.3077 97.9638 54.3456C97.9842 54.3671 98.0041 54.3891 98.0237 54.4113C98.0568 54.4489 98.0886 54.4879 98.1191 54.5276C98.1302 54.5419 98.1408 54.5565 98.1517 54.5711L72.3593 69.449L72.0697 69.6159L67.6632 72.1576C66.6885 72.7193 65.4776 72.7198 64.5029 72.1576L60.0967 69.6159L47.7205 62.4768V53.6631H67.0602H72.3593ZM54.7942 72.6743L47.7205 76.7546V68.594L54.7942 72.6743ZM5.29906 9.66364C5.29906 7.25707 7.25654 5.29906 9.66337 5.29906H62.6956C65.1022 5.29906 67.0602 7.25707 67.0602 9.66364V17.7346H5.29906V9.66364ZM67.0602 125.992C67.0602 128.399 65.1022 130.357 62.6956 130.357H9.66337C7.2568 130.357 5.2988 128.399 5.2988 125.992V117.921H67.0602V125.992ZM67.0602 112.623H5.29906V23.0337H67.0602V48.364H47.7205V43.8943C47.7205 42.4312 46.534 41.2447 45.0709 41.2447C43.6079 41.2447 42.4214 42.4312 42.4214 43.8943V51.0136V64.0071V81.3417V94.3355V101.663C42.4214 103.126 43.6079 104.313 45.0709 104.313C46.534 104.313 47.7205 103.126 47.7205 101.663V96.9851H67.0602V112.623ZM98.1201 90.8212C98.0886 90.8612 98.0571 90.8999 98.0239 90.9375C98.0043 90.9598 97.9847 90.9817 97.9641 91.0032C97.9278 91.0411 97.8899 91.0774 97.8512 91.1126C97.8319 91.1301 97.813 91.1484 97.7932 91.1654C97.7391 91.2112 97.683 91.2544 97.6247 91.2947C97.6186 91.2989 97.6127 91.3039 97.6067 91.3082C97.5415 91.3524 97.4736 91.3924 97.404 91.4295C97.383 91.4407 97.361 91.4499 97.3398 91.4605C97.2898 91.4852 97.2392 91.5085 97.1872 91.5291C97.1605 91.5397 97.1332 91.5493 97.1059 91.5591C97.0566 91.5766 97.0065 91.5922 96.9557 91.606C96.9273 91.6137 96.8987 91.6213 96.8701 91.628C96.8158 91.6404 96.7607 91.6502 96.705 91.6584C96.679 91.6624 96.6536 91.6672 96.6274 91.6704C96.5455 91.6796 96.4623 91.6855 96.3781 91.6855H72.3603H67.0612H47.7215V82.8715L60.0978 75.7326L61.8565 76.7471C63.1603 77.4993 64.6221 77.8753 66.0841 77.8753C66.4105 77.8753 66.7367 77.8536 67.0612 77.8162C68.1907 77.6859 69.2993 77.3316 70.3122 76.7474L72.0707 75.7329L72.3603 75.9001L98.1527 90.7777C98.1421 90.7923 98.1313 90.8069 98.1201 90.8212ZM98.5727 84.9032L77.3724 72.6743L98.5727 60.4454V84.9032Z" fill="#FFC400"/>
<path d="M47.5843 8.86523H24.7748C23.3117 8.86523 22.1252 10.0517 22.1252 11.5148C22.1252 12.9778 23.3117 14.1643 24.7748 14.1643H47.5843C49.0474 14.1643 50.2339 12.9778 50.2339 11.5148C50.2339 10.0517 49.0477 8.86523 47.5843 8.86523Z" fill="#FFC400"/>
<path d="M32.8722 126.786H39.487C40.9501 126.786 42.1365 125.6 42.1365 124.137C42.1365 122.674 40.9501 121.487 39.487 121.487H32.8722C31.4091 121.487 30.2227 122.674 30.2227 124.137C30.2227 125.6 31.4091 126.786 32.8722 126.786Z" fill="#FFC400"/>
<path d="M106.351 38.0635H78.8722C77.4091 38.0635 76.2227 39.2499 76.2227 40.713C76.2227 42.1761 77.4091 43.3625 78.8722 43.3625H106.351C107.814 43.3625 109 42.1761 109 40.713C109 39.2499 107.814 38.0635 106.351 38.0635Z" fill="#FFC400"/>
<path d="M90.5298 101.742H84.7008C83.2377 101.742 82.0513 102.929 82.0513 104.392C82.0513 105.855 83.2377 107.041 84.7008 107.041H90.5298C91.9928 107.041 93.1793 105.855 93.1793 104.392C93.1793 102.929 91.9928 101.742 90.5298 101.742Z" fill="#FFC400"/>
<path d="M43.6007 35.4962C43.7437 35.5916 43.8974 35.6737 44.059 35.7399C44.218 35.8062 44.3847 35.8565 44.5545 35.891C44.7241 35.9254 44.8989 35.9439 45.0711 35.9439C45.2431 35.9439 45.4182 35.9254 45.5875 35.891C45.7574 35.8565 45.9243 35.8062 46.083 35.7399C46.2446 35.6737 46.3983 35.5916 46.5414 35.4962C46.6871 35.4011 46.8222 35.2898 46.9441 35.1679C47.066 35.046 47.1773 34.9106 47.2726 34.7649C47.368 34.6218 47.4502 34.4682 47.5164 34.3068C47.5826 34.1476 47.6356 33.9809 47.6674 33.8113C47.7019 33.6415 47.7204 33.4666 47.7204 33.2947C47.7204 33.1225 47.7019 32.9473 47.6674 32.7754C47.6356 32.6055 47.5826 32.4386 47.5164 32.2799C47.4502 32.1212 47.368 31.9673 47.2726 31.8242C47.1773 31.6782 47.066 31.5431 46.9441 31.4212C46.8222 31.2993 46.6871 31.188 46.5414 31.09C46.3983 30.9949 46.2446 30.9125 46.083 30.8462C45.924 30.78 45.7574 30.7299 45.5875 30.6952C45.2487 30.6263 44.8963 30.6263 44.5545 30.6952C44.3847 30.7299 44.2177 30.78 44.059 30.8462C43.8974 30.9125 43.7437 30.9949 43.6007 31.09C43.4549 31.188 43.3198 31.2993 43.1979 31.4212C43.076 31.5431 42.9648 31.6782 42.8694 31.8242C42.7743 31.9673 42.6919 32.1209 42.6256 32.2799C42.5594 32.4389 42.5064 32.6055 42.4746 32.7754C42.4402 32.9473 42.4219 33.1225 42.4219 33.2947C42.4219 33.9915 42.7051 34.6751 43.1982 35.1679C43.3201 35.2898 43.4552 35.4011 43.6007 35.4962Z" fill="#FFC400"/>
</svg>
