<svg width="24" height="22" viewBox="0 0 24 22" fill="none" xmlns="http://www.w3.org/2000/svg">
<path d="M19.5 17.5C17.019 17.5 15 15.481 15 13C15 10.519 17.019 8.5 19.5 8.5H22V6.5C22 5.397 21.103 4.5 20 4.5H19V2.5C19 1.397 18.103 0.5 17 0.5H3C1.517 0.5 0.291 1.584 0.051 2.999C0.029 3.081 0 3.161 0 3.25V18.5C0 20.154 1.346 21.5 3 21.5H20C21.103 21.5 22 20.603 22 19.5V17.5H19.5ZM2 3.5C2 2.949 2.448 2.5 3 2.5H17V4.5H3C2.448 4.5 2 4.051 2 3.5Z" fill="white"/>
<path d="M23.25 9.99998H19.5C17.846 9.99998 16.5 11.346 16.5 13C16.5 14.654 17.846 16 19.5 16H23.25C23.664 16 24 15.664 24 15.25V10.75C24 10.336 23.664 9.99998 23.25 9.99998ZM19.5 14C18.948 14 18.5 13.552 18.5 13C18.5 12.448 18.948 12 19.5 12C20.052 12 20.5 12.448 20.5 13C20.5 13.552 20.052 14 19.5 14Z" fill="white"/>
</svg>
