<svg width="46" height="46" viewBox="0 0 46 46" fill="none" xmlns="http://www.w3.org/2000/svg">
<path d="M44.7779 38.3353L44.778 38.3353C45.1091 38.6663 45.1091 39.203 44.778 39.534L39.0604 45.2517L39.0603 45.2518C38.8948 45.4173 38.6788 45.5 38.4611 45.5C38.2435 45.5 38.0274 45.4173 37.8617 45.2517L30.0895 37.4796L29.736 37.126L29.3824 37.4796L25.5706 41.2913L25.5706 41.2913C25.3628 41.4992 25.0623 41.5845 24.7767 41.5169L24.7764 41.5169C24.4907 41.4494 24.2601 41.2387 24.1671 40.96C24.1671 40.9599 24.167 40.9599 24.167 40.9599L16.5436 18.0894L16.5435 18.0894C16.442 17.7849 16.5213 17.4491 16.7484 17.222L16.7484 17.2219C16.9754 16.9949 17.3113 16.9156 17.6157 17.0172L17.6158 17.0172L40.4862 24.6407C40.7649 24.7336 40.9756 24.9641 41.0431 25.2501C41.1107 25.536 41.0253 25.8365 40.8176 26.0442L37.0058 29.856L36.6522 30.2095L37.0057 30.5631L44.7779 38.3353ZM38.1074 43.1L38.461 43.4535L38.8145 43.1L42.6263 39.2882L42.9799 38.9347L42.6263 38.5811L34.8541 30.8089L34.8541 30.8089C34.5232 30.4781 34.5234 29.9408 34.8541 29.6102L34.8541 29.6102L38.0769 26.3874L38.649 25.8153L37.8815 25.5595L19.6366 19.4779L18.6879 19.1617L19.0042 20.1103L25.0858 38.3552L25.3416 39.1227L25.9137 38.5506L29.1365 35.3278L29.1365 35.3278C29.4674 34.9968 30.0042 34.9968 30.3352 35.3278L30.3352 35.3278L38.1074 43.1Z" fill="white" stroke="#FFEC4A"/>
<path d="M44.9547 38.1585L44.9547 38.1585C45.3835 38.5872 45.3835 39.2821 44.9548 39.7108L39.2372 45.4285L39.2371 45.4285C39.0229 45.6429 38.7423 45.75 38.4611 45.75C38.1799 45.75 37.8994 45.6429 37.6849 45.4285L29.9127 37.6563L29.736 37.4796L29.5592 37.6563L25.7474 41.468L25.7474 41.4681C25.4783 41.7372 25.0892 41.8478 24.7192 41.7602L24.719 41.7602C24.3489 41.6728 24.0503 41.4 23.9299 41.039C23.9299 41.039 23.9299 41.039 23.9299 41.039L16.3064 18.1685L16.3064 18.1685C16.1749 17.7741 16.2775 17.3393 16.5716 17.0452L16.5716 17.0452C16.8655 16.7512 17.3005 16.6485 17.6948 16.78L17.6948 16.78L40.5653 24.4035C40.9262 24.5238 41.199 24.8224 41.2864 25.1927C41.3739 25.5629 41.2633 25.952 40.9943 26.221L37.1825 30.0327L37.0057 30.2095L37.1825 30.3863L44.9547 38.1585ZM38.2842 42.9232L38.461 43.0999L38.6377 42.9232L42.4495 39.1115L42.6263 38.9347L42.4495 38.7579L34.6773 30.9857L34.6773 30.9857C34.2487 30.5572 34.2491 29.8616 34.6773 29.4334L34.6773 29.4334L37.9001 26.2106L38.1862 25.9246L37.8024 25.7967L19.5576 19.7151L19.0832 19.5569L19.2413 20.0313L25.323 38.2761L25.4509 38.6599L25.7369 38.3738L28.9597 35.1511L28.9597 35.151C29.3883 34.7224 30.0834 34.7224 30.512 35.151L30.512 35.1511L38.2842 42.9232Z" stroke="#FFC400" stroke-width="0.5"/>
<path d="M18.3672 9.43359C18.3672 9.90172 17.9877 10.2812 17.5195 10.2812C17.0514 10.2812 16.6719 9.90172 16.6719 9.43359V1.34766C16.6719 0.879533 17.0514 0.5 17.5195 0.5C17.9877 0.5 18.3672 0.879533 18.3672 1.34766V9.43359Z" fill="#E4FFA3" stroke="#AAFF5C"/>
<path d="M18.6172 9.43359C18.6172 10.0398 18.1257 10.5312 17.5195 10.5312C16.9133 10.5312 16.4219 10.0398 16.4219 9.43359V1.34766C16.4219 0.741462 16.9133 0.25 17.5195 0.25C18.1257 0.25 18.6172 0.741462 18.6172 1.34766V9.43359Z" stroke="#17E200" stroke-width="0.5"/>
<path d="M6.6826 5.48458L6.68263 5.48461L12.4003 11.2023C12.7313 11.5333 12.7313 12.07 12.4003 12.401L12.4003 12.401C12.0693 12.732 11.5325 12.732 11.2016 12.401L11.2015 12.401L5.48388 6.68336C5.15284 6.35232 5.15284 5.81565 5.48388 5.48461C5.81494 5.15355 6.35167 5.15359 6.6826 5.48458Z" fill="#E4FFA3" stroke="#AAFF5C"/>
<path d="M6.85939 5.30782L6.8594 5.30783L12.5771 11.0255C13.0057 11.4542 13.0057 12.1491 12.5771 12.5778L12.577 12.5778C12.1485 13.0065 11.4534 13.0065 11.0248 12.5778L11.0248 12.5778L5.3071 6.86014C4.87843 6.43146 4.87843 5.73651 5.3071 5.30783C5.73578 4.87915 6.43082 4.87917 6.85939 5.30782Z" stroke="#17E200" stroke-width="0.5"/>
<path d="M11.2015 22.6379L11.2016 22.6379C11.5325 22.3069 12.0692 22.3069 12.4003 22.6379C12.7313 22.969 12.7313 23.5056 12.4003 23.8367L6.68263 29.5543L6.6826 29.5544C6.35165 29.8854 5.81485 29.8854 5.48391 29.5544L5.48388 29.5543C5.15284 29.2233 5.15283 28.6866 5.48388 28.3556L11.2015 22.6379Z" fill="#E4FFA3" stroke="#AAFF5C"/>
<path d="M11.0248 22.4612L11.0248 22.4611C11.4533 22.0325 12.1484 22.0325 12.5771 22.4612C13.0057 22.8898 13.0057 23.5848 12.5771 24.0135L6.8594 29.7311L6.85939 29.7311C6.43081 30.1598 5.7357 30.1598 5.30712 29.7311L5.3071 29.7311C4.87843 29.3024 4.87843 28.6075 5.3071 28.1788L11.0248 22.4612Z" stroke="#17E200" stroke-width="0.5"/>
<path d="M23.8357 12.401L23.8357 12.401C23.5047 12.732 22.9679 12.732 22.637 12.401L22.637 12.401C22.3059 12.07 22.3059 11.5333 22.637 11.2023L28.3546 5.48461C28.6857 5.15355 29.2224 5.15359 29.5533 5.48458L29.5534 5.48461C29.8844 5.81565 29.8844 6.35232 29.5534 6.68336L23.8357 12.401Z" fill="#E4FFA3" stroke="#AAFF5C"/>
<path d="M24.0125 12.5778L24.0125 12.5778C23.5839 13.0065 22.8888 13.0065 22.4602 12.5778L22.4602 12.5778C22.0315 12.1491 22.0315 11.4542 22.4602 11.0255L28.1778 5.30783C28.6065 4.87915 29.3015 4.87917 29.7301 5.30782L29.7301 5.30783C30.1588 5.73651 30.1588 6.43146 29.7301 6.86014L24.0125 12.5778Z" stroke="#17E200" stroke-width="0.5"/>
<path d="M9.43359 16.6719C9.90172 16.6719 10.2812 17.0514 10.2812 17.5195C10.2812 17.9877 9.90172 18.3672 9.43359 18.3672H1.34766C0.879533 18.3672 0.5 17.9877 0.5 17.5195C0.5 17.0514 0.879533 16.6719 1.34766 16.6719H9.43359Z" fill="#E4FFA3" stroke="#AAFF5C"/>
<path d="M9.43359 16.4219C10.0398 16.4219 10.5312 16.9133 10.5312 17.5195C10.5312 18.1257 10.0398 18.6172 9.43359 18.6172H1.34766C0.741462 18.6172 0.25 18.1257 0.25 17.5195C0.25 16.9133 0.741462 16.4219 1.34766 16.4219H9.43359Z" stroke="#17E200" stroke-width="0.5"/>
</svg>
