<svg height="512" viewBox="0 0 64 64" width="512" xmlns="http://www.w3.org/2000/svg"><g id="Email-smartphone-money-notifications-income"><path d="m61 22h-7v-9a1 1 0 0 0 -1-1h-17v-7a3.009 3.009 0 0 0 -3-3h-28a3.009 3.009 0 0 0 -3 3v54a3.009 3.009 0 0 0 3 3h28a3.009 3.009 0 0 0 3-3v-3h25a1 1 0 0 0 1-1v-32a1 1 0 0 0 -1-1zm-7 2h4.2l-4.2 3.44zm-2-10v2.86a4.017 4.017 0 0 1 -2.86-2.86zm-4.91 0a5.992 5.992 0 0 0 4.91 4.91v10.16l-3.58 2.93h-26.84l-3.58-2.93v-10.16a5.992 5.992 0 0 0 4.91-4.91zm-18.04 26.7-19.05 12.45v-28.04zm-17.25-16.7h4.2v3.44zm12.22 10h21.96l-6.69 5.47-3.77-2.32a1.008 1.008 0 0 0 -1.07.01l-3.65 2.39zm-6.02-17.14v-2.86h2.86a4.017 4.017 0 0 1 -2.86 2.86zm10.72-12.86-.5 2h-18.44l-.5-2zm5.28 55a1 1 0 0 1 -1 1h-28a1 1 0 0 1 -1-1v-54a1 1 0 0 1 1-1h2.22l.81 3.24a1 1 0 0 0 .97.76h20a1 1 0 0 0 .97-.76l.81-3.24h2.22a1 1 0 0 1 1 1v7h-17a1 1 0 0 0 -1 1v9h-7a1 1 0 0 0 -1 1v32a1 1 0 0 0 1 1h25zm-21.64-5 22.66-14.82 24.07 14.82zm47.64-1.79-18.9-11.63 18.9-15.47z"/><path d="m35 30a7 7 0 1 0 -7-7 7.009 7.009 0 0 0 7 7zm0-12a5 5 0 1 1 -5 5 5.006 5.006 0 0 1 5-5z"/><path d="m60 4h2v2h-2z"/><path d="m58 2h2v2h-2z"/><path d="m56 4h2v2h-2z"/><path d="m58 6h2v2h-2z"/><path d="m60 14h2v2h-2z"/><path d="m58 12h2v2h-2z"/><path d="m56 14h2v2h-2z"/><path d="m58 16h2v2h-2z"/><path d="m50 6h2v2h-2z"/><path d="m48 4h2v2h-2z"/><path d="m46 6h2v2h-2z"/><path d="m48 8h2v2h-2z"/></g></svg>