<svg width="94" height="94" viewBox="0 0 94 94" fill="none" xmlns="http://www.w3.org/2000/svg">
<g filter="url(#filter0_d)">
<path d="M68.7806 57.2829L68.7804 57.2829L65.2167 56.353L65.1048 56.3237L65.0415 56.227L63.0491 53.183C62.9593 53.0635 62.8179 52.9929 62.6679 52.9929C62.5175 52.9929 62.3766 53.0633 62.2862 53.1832L60.2939 56.227L60.2306 56.3237L60.1187 56.3529L56.5564 57.2826C56.5563 57.2826 56.5561 57.2827 56.556 57.2827C56.4078 57.3221 56.2901 57.4336 56.2429 57.579L68.7806 57.2829ZM68.7806 57.2829C68.9293 57.3216 69.0484 57.4338 69.0958 57.5801C69.1427 57.7264 69.1117 57.8866 69.0138 58.0045L69.0134 58.0049L66.6886 60.8165L66.6137 60.9071L66.6203 61.0246L66.8252 64.6444C66.8252 64.6446 66.8253 64.6447 66.8253 64.6448C66.8333 64.7973 66.764 64.9434 66.641 65.033L66.6406 65.0333C66.5178 65.1232 66.3572 65.1448 66.2144 65.0904C66.2144 65.0904 66.2143 65.0904 66.2143 65.0903L62.775 63.7767L62.6681 63.7358L62.5612 63.7766L59.1204 65.0868L59.12 65.0869C58.9774 65.1415 58.817 65.12 58.6941 65.0302C58.5703 64.9397 58.5012 64.7936 58.5099 64.6415L58.5099 64.6413L58.7142 61.0208L58.7209 60.9034M68.7806 57.2829L58.7209 60.9034M58.7209 60.9034L58.6459 60.8127M58.7209 60.9034L58.6459 60.8127M58.6459 60.8127L56.3227 58.0032C56.3225 58.003 56.3223 58.0028 56.3221 58.0025M58.6459 60.8127L56.3221 58.0025M56.3221 58.0025C56.2256 57.8838 56.1959 57.7242 56.2429 57.5791L56.3221 58.0025ZM65.8078 60.4703L65.8081 60.4699L67.5703 58.3377L67.87 57.9751L67.4147 57.8563L64.7099 57.151L64.7097 57.1509C64.6016 57.1228 64.5077 57.0553 64.4467 56.9621L64.4467 56.962L62.9189 54.6276L62.668 54.2441L62.4169 54.6275L60.8892 56.9611L60.889 56.9614C60.8282 57.0546 60.7345 57.1218 60.6265 57.1497L60.6259 57.1499L57.9209 57.8557L57.4653 57.9746L57.7655 58.3373L59.531 60.47L59.7621 60.2788L59.531 60.47C59.603 60.5571 59.6396 60.6682 59.6334 60.7819C59.6334 60.782 59.6334 60.782 59.6334 60.7821L59.4775 63.5398L59.4513 64.0024L59.8841 63.837L62.5087 62.8338C62.5087 62.8338 62.5087 62.8338 62.5087 62.8338C62.6124 62.7942 62.7263 62.7942 62.83 62.8338C62.83 62.8338 62.83 62.8338 62.83 62.8338L65.4546 63.837L65.8873 64.0024L65.8612 63.5399L65.7055 60.7816L65.7055 60.7814C65.699 60.6684 65.7355 60.5575 65.8078 60.4703Z" fill="#E4FFA3" stroke="#AAFF5C" stroke-width="0.6"/>
<path d="M58.2104 64.6244L58.4147 61.0039L56.0901 58.1928C55.9289 57.9951 55.879 57.729 55.9575 57.4866L58.2104 64.6244ZM58.2104 64.6244C58.1959 64.8786 58.3116 65.1221 58.517 65.2723L58.2104 64.6244ZM68.8183 57.1377L68.8184 57.1378C69.0165 57.1893 69.1752 57.3387 69.2384 57.5337C69.3012 57.7289 69.26 57.9428 69.1292 58.1003L69.129 58.1005L66.8042 60.9121L66.7667 60.9574L66.7701 61.0161L66.975 64.6364C66.975 64.6365 66.975 64.6366 66.975 64.6367C66.9858 64.8397 66.8935 65.0345 66.7294 65.1542L66.7292 65.1544C66.5652 65.2744 66.351 65.303 66.1609 65.2305C66.1609 65.2305 66.1608 65.2305 66.1608 65.2305L62.7214 63.9168L62.668 63.8964L62.6145 63.9167L59.1738 65.2269L59.1736 65.227C58.9835 65.2997 58.7696 65.2712 58.6055 65.1512C58.4409 65.0309 58.3485 64.8361 58.3601 64.6329L58.3601 64.6328L58.5645 61.0124L58.5678 60.9536L58.5303 60.9083L56.2064 58.098C56.2063 58.0979 56.2062 58.0978 56.2061 58.0977C56.0773 57.9394 56.0375 57.7265 56.1002 57.5328C56.1632 57.3387 56.3204 57.19 56.5178 57.1377C56.5179 57.1376 56.518 57.1376 56.518 57.1376L60.0808 56.2078L60.1368 56.1932L60.1684 56.1448L62.1633 53.0972C62.2818 52.9371 62.4687 52.8429 62.6679 52.8429C62.8667 52.8429 63.0541 52.9372 63.1721 53.0971L65.167 56.1448L65.1986 56.1932L65.2546 56.2078L68.8183 57.1377ZM65.6923 60.3745L65.6925 60.3743L67.4546 58.2422L67.6045 58.0608L67.3769 58.0015L64.672 57.2961L64.6719 57.2961C64.5278 57.2586 64.4026 57.1687 64.3212 57.0442L64.3211 57.0442L62.7934 54.7097L62.6679 54.5179L62.5424 54.7097L61.0147 57.0433L61.0146 57.0434C60.9333 57.168 60.8081 57.2577 60.6641 57.295L60.6638 57.295L57.9587 58.0008L57.7309 58.0603L57.881 58.2416L59.6465 60.3744L59.7621 60.2788L59.6465 60.3744C59.7428 60.4907 59.7914 60.6389 59.7832 60.7901C59.7832 60.7902 59.7832 60.7902 59.7832 60.7903L59.6273 63.5483L59.6142 63.7796L59.8306 63.6969L62.4551 62.6937C62.5933 62.6409 62.7454 62.6409 62.8836 62.6937L65.5081 63.6969L65.7245 63.7796L65.7114 63.5483L65.5557 60.79L65.5557 60.7899C65.5471 60.6391 65.5958 60.4909 65.6923 60.3745Z" stroke="#17E200" stroke-width="0.3"/>
<path d="M37.3217 24.8915L37.3219 24.8915C37.5205 24.9431 37.6791 25.0926 37.7418 25.2874C37.8047 25.4827 37.7638 25.6967 37.6328 25.8545L37.6326 25.8547L35.3081 28.666L35.2706 28.7113L35.2739 28.7701L35.4782 32.3905C35.4782 32.3905 35.4782 32.3905 35.4782 32.3905C35.4896 32.5937 35.3973 32.7883 35.233 32.9081L35.2329 32.9082C35.0687 33.0282 34.8548 33.0569 34.6648 32.9843L34.6647 32.9842L31.2248 31.6707L31.1713 31.6503L31.1178 31.6707L27.6775 32.9842L27.6772 32.9843C27.4872 33.0573 27.2732 33.0288 27.1095 32.9088L27.1092 32.9086C26.9445 32.7886 26.8524 32.5938 26.864 32.3906L26.864 32.3905L27.0683 28.7701L27.0716 28.7113L27.0341 28.666L24.7094 25.8548C24.7094 25.8547 24.7094 25.8547 24.7094 25.8547C24.5786 25.6965 24.5379 25.4828 24.6012 25.2878L24.6013 25.2875C24.6642 25.0924 24.8224 24.9431 25.021 24.8915L25.0211 24.8915L28.5846 23.962L28.6406 23.9474L28.6723 23.899L30.6671 20.8509C30.7855 20.6909 30.9723 20.5967 31.1713 20.5967C31.3704 20.5967 31.5574 20.6909 31.676 20.851L33.6704 23.899L33.702 23.9474L33.758 23.962L37.3217 24.8915ZM24.9833 24.7464C24.735 24.8108 24.5372 24.9975 24.4585 25.2414L24.9833 24.7464ZM34.0118 31.4506L34.2282 31.5333L34.2151 31.302L34.0589 28.5444C34.0589 28.5443 34.0589 28.5443 34.0589 28.5442C34.0509 28.393 34.0997 28.2445 34.1959 28.1281C34.1959 28.1281 34.1959 28.128 34.1959 28.128L35.9583 25.996L36.1082 25.8146L35.8805 25.7552L33.1754 25.0499L33.1754 25.0499C33.0314 25.0124 32.9062 24.9226 32.8243 24.7979C32.8243 24.7978 32.8242 24.7978 32.8242 24.7977L31.2968 22.4635L31.1713 22.2716L31.0458 22.4635L29.5187 24.7977C29.5186 24.7978 29.5186 24.7979 29.5185 24.7979C29.4366 24.9226 29.3116 25.0124 29.1676 25.0498L29.1674 25.0499L26.4624 25.7548L26.2345 25.8142L26.3847 25.9956L28.1498 28.128C28.1499 28.1281 28.1499 28.1281 28.1499 28.1281C28.2461 28.2447 28.295 28.3931 28.2866 28.544C28.2866 28.544 28.2866 28.544 28.2866 28.5441L28.1309 31.302L28.1178 31.5333L28.3342 31.4506L30.9587 30.4475L30.9589 30.4474C31.0965 30.3947 31.2492 30.3947 31.3871 30.4474L31.3872 30.4475L34.0118 31.4506Z" stroke="#17E200" stroke-width="0.3"/>
<path d="M29.2053 25.195L26.8206 25.8165L26.7313 25.7086L26.5002 25.8999L26.5759 26.1902L26.7113 26.155L28.2655 28.0325C28.3858 28.1781 28.4469 28.3637 28.4364 28.5524L29.2053 25.195ZM29.2053 25.195C29.3856 25.1482 29.5418 25.0358 29.6441 24.8801L29.2053 25.195ZM28.1368 28.5357C28.1368 28.5356 28.1368 28.5356 28.1368 28.5356C28.1368 28.5355 28.1368 28.5355 28.1368 28.5355C28.1431 28.4225 28.1065 28.3112 28.0344 28.2238L28.1368 28.5357ZM28.1368 28.5357L27.9811 31.2936L27.955 31.7561L28.3877 31.5907L31.0123 30.5876L31.0125 30.5875C31.1156 30.548 31.2301 30.548 31.3335 30.5875L31.3336 30.5876L33.9582 31.5907L34.391 31.7562L34.3648 31.2935L34.2087 28.5364C34.2087 28.5363 34.2087 28.5361 34.2087 28.536C34.2027 28.4223 34.2395 28.3108 34.3115 28.2236L36.0739 26.0915L36.3737 25.7288L35.9183 25.6101L33.2133 24.9047L33.2131 24.9047C33.1052 24.8766 33.0112 24.8092 32.9496 24.7154L31.4224 22.3814L31.1713 21.9977L30.9203 22.3814L29.3933 24.7154C29.3933 24.7154 29.3932 24.7155 29.3932 24.7156C29.3315 24.8094 29.2377 24.8766 29.1298 24.9047L29.1296 24.9047L26.4246 25.6096L25.9688 25.7284L26.2691 26.0912L28.0342 28.2236L28.1368 28.5357ZM37.2839 25.0366L37.2842 25.0367C37.4333 25.0754 37.5521 25.1876 37.599 25.3334C37.6462 25.4801 37.6154 25.6405 37.5173 25.7588L37.517 25.7591L35.1925 28.5704L35.1175 28.6611L35.1241 28.7785L35.3285 32.3989C35.337 32.5512 35.2679 32.6971 35.1446 32.7869L35.1444 32.7872C35.0213 32.8771 34.8608 32.8986 34.7184 32.8442L34.7182 32.8441L31.2783 31.5306L31.1713 31.4897L31.0643 31.5306L27.624 32.8441L27.6234 32.8443C27.481 32.8991 27.3207 32.8776 27.1981 32.7878L27.1975 32.7873C27.074 32.6974 27.005 32.5514 27.0137 32.3992L27.0137 32.399L27.2181 28.7785L27.2247 28.6611L27.1497 28.5704L24.825 25.7592C24.825 25.7592 24.825 25.7592 24.825 25.7591C24.7269 25.6404 24.6964 25.4803 24.7438 25.3341L24.744 25.3336C24.7912 25.1873 24.9098 25.0754 25.0586 25.0367L25.059 25.0366L28.6225 24.1072L28.7344 24.078L28.7978 23.9812L30.7901 20.9369C30.8803 20.8171 31.0211 20.7467 31.1713 20.7467C31.3215 20.7467 31.4627 20.8171 31.553 20.937L33.5448 23.9811L33.6082 24.078L33.7202 24.1072L37.2839 25.0366ZM26.7142 32.3821C26.6997 32.6361 26.815 32.8798 27.0208 33.0298L26.7142 32.3821Z" fill="#E4FFA3" stroke="#AAFF5C" stroke-width="0.6"/>
<path d="M37.3217 24.8915L37.3219 24.8915C37.5205 24.9431 37.6791 25.0926 37.7418 25.2874C37.8047 25.4827 37.7638 25.6967 37.6328 25.8545L37.6326 25.8547L35.3081 28.666L35.2706 28.7113L35.2739 28.7701L35.4782 32.3905C35.4782 32.3905 35.4782 32.3905 35.4782 32.3905C35.4896 32.5937 35.3973 32.7883 35.233 32.9081L35.2329 32.9082C35.0687 33.0282 34.8548 33.0569 34.6648 32.9843L34.6647 32.9842L31.2248 31.6707L31.1713 31.6503L31.1178 31.6707L27.6775 32.9842L27.6772 32.9843C27.4872 33.0573 27.2732 33.0288 27.1095 32.9088L27.1092 32.9086C26.9445 32.7886 26.8524 32.5938 26.864 32.3906L26.864 32.3905L27.0683 28.7701L27.0716 28.7113L27.0341 28.666L24.7094 25.8548C24.7094 25.8547 24.7094 25.8547 24.7094 25.8547C24.5786 25.6965 24.5379 25.4828 24.6012 25.2878L24.6013 25.2875C24.6642 25.0924 24.8224 24.9431 25.021 24.8915L25.0211 24.8915L28.5846 23.962L28.6406 23.9474L28.6723 23.899L30.6671 20.8509C30.7855 20.6909 30.9723 20.5967 31.1713 20.5967C31.3704 20.5967 31.5574 20.6909 31.676 20.851L33.6704 23.899L33.702 23.9474L33.758 23.962L37.3217 24.8915ZM24.9833 24.7464C24.735 24.8108 24.5372 24.9975 24.4585 25.2414L24.9833 24.7464ZM34.0118 31.4506L34.2282 31.5333L34.2151 31.302L34.0589 28.5444C34.0589 28.5443 34.0589 28.5443 34.0589 28.5442C34.0509 28.393 34.0997 28.2445 34.1959 28.1281C34.1959 28.1281 34.1959 28.128 34.1959 28.128L35.9583 25.996L36.1082 25.8146L35.8805 25.7552L33.1754 25.0499L33.1754 25.0499C33.0314 25.0124 32.9062 24.9226 32.8243 24.7979C32.8243 24.7978 32.8242 24.7978 32.8242 24.7977L31.2968 22.4635L31.1713 22.2716L31.0458 22.4635L29.5187 24.7977C29.5186 24.7978 29.5186 24.7979 29.5185 24.7979C29.4366 24.9226 29.3116 25.0124 29.1676 25.0498L29.1674 25.0499L26.4624 25.7548L26.2345 25.8142L26.3847 25.9956L28.1498 28.128C28.1499 28.1281 28.1499 28.1281 28.1499 28.1281C28.2461 28.2447 28.295 28.3931 28.2866 28.544C28.2866 28.544 28.2866 28.544 28.2866 28.5441L28.1309 31.302L28.1178 31.5333L28.3342 31.4506L30.9587 30.4475L30.9589 30.4474C31.0965 30.3947 31.2492 30.3947 31.3871 30.4474L31.3872 30.4475L34.0118 31.4506Z" stroke="#17E200" stroke-width="0.3"/>
<path d="M53.7845 30.8761L53.785 30.876L55.9013 30.3119L55.9017 30.3117C56.0099 30.2831 56.1039 30.2146 56.1647 30.1197L56.1647 30.1196L57.4144 28.1702L53.7845 30.8761ZM53.7845 30.8761C53.7474 30.8861 53.7087 30.8912 53.6687 30.8912C53.4431 30.8912 53.2525 30.7241 53.2232 30.4999L53.2232 30.4997C53.1938 30.2764 53.3347 30.0653 53.5526 30.0067C53.5527 30.0067 53.5528 30.0067 53.5529 30.0067L55.3887 29.5172L55.5012 29.4872L55.564 29.3892L56.6562 27.6856L56.6564 27.6853C56.7431 27.5498 56.8955 27.4711 57.0556 27.4785L57.0561 27.4785C57.2168 27.4856 57.3612 27.5781 57.4348 27.7205L57.435 27.721M53.7845 30.8761L57.435 27.721M57.435 27.721C57.5089 27.8633 57.5011 28.0346 57.4144 28.17L57.435 27.721Z" fill="#E4FFA3" stroke="#AAFF5C" stroke-width="0.6"/>
<path d="M57.0694 27.1788C56.8022 27.1665 56.5482 27.2978 56.4037 27.5236L57.0694 27.1788ZM57.0694 27.1788C57.3373 27.1907 57.5784 27.3448 57.7013 27.5828C57.8247 27.8206 57.8115 28.1063 57.667 28.3319L57.0694 27.1788ZM53.8236 31.021L53.8234 31.021C53.7733 31.0345 53.7215 31.0412 53.6687 31.0412C53.3677 31.0412 53.1136 30.8182 53.0745 30.5194L53.0745 30.5193C53.0353 30.2211 53.2233 29.9397 53.514 29.8618L55.3501 29.3723L55.4063 29.3573L55.4377 29.3083L56.53 27.6046L56.53 27.6045C56.6456 27.4238 56.8488 27.3188 57.0625 27.3286L57.0628 27.3286C57.2771 27.3381 57.4698 27.4614 57.5681 27.6517L57.5682 27.6519C57.6668 27.8419 57.6563 28.0704 57.5407 28.251C57.5407 28.251 57.5407 28.251 57.5407 28.251L56.291 30.2006L56.291 30.2006C56.21 30.327 56.0847 30.4184 55.9401 30.4567L55.9399 30.4568L53.8236 31.021ZM53.8623 31.1659L55.9785 30.6017L53.4752 29.7169C53.1118 29.8143 52.8767 30.166 52.9258 30.5388C52.9746 30.9123 53.2924 31.1912 53.6687 31.1912C53.7343 31.1912 53.7991 31.1828 53.8623 31.1659Z" stroke="#17E200" stroke-width="0.3"/>
<path d="M48.1141 64.7156L48.1141 64.7152C48.1374 64.4866 47.984 64.277 47.7584 64.2299L47.7568 64.2296C47.5806 64.1919 45.7919 63.7758 44.0464 61.9312C42.2955 60.0809 40.6201 56.8267 40.6201 51.172C40.6201 47.4548 42.1736 44.8958 44.1723 43.1537C46.1615 41.4199 48.5842 40.5001 50.337 40.0244C50.43 39.9991 50.5294 40.0201 50.6043 40.0807C50.6792 40.1413 50.7204 40.2342 50.7151 40.3304L50.6236 41.9916L50.6236 41.9919C50.6151 42.1443 50.6848 42.2909 50.8091 42.381L50.8092 42.381C50.9327 42.4706 51.094 42.4914 51.2368 42.4358L57.6857 39.9181C57.7559 39.8907 57.8338 39.8907 57.9039 39.9181L64.3529 42.4358C64.4954 42.4912 64.6564 42.4707 64.7805 42.3812L48.1141 64.7156ZM48.1141 64.7156C48.091 64.9448 47.8984 65.1194 47.6686 65.1202H28.9219C26.6034 65.1181 24.7246 63.2392 24.7222 60.9207L24.7222 43.673L24.7222 43.6727C24.7221 43.5704 24.7568 43.4714 24.8206 43.3918L24.8208 43.3915C27.5834 39.9385 32.246 37.7158 37.0498 36.329C41.845 34.9446 46.7325 34.4067 49.89 34.2906C50.0035 34.2864 50.1049 34.2184 50.152 34.115C50.199 34.0116 50.1836 33.8905 50.1122 33.8021L46.5703 29.4224L46.5691 29.4211C46.4722 29.3027 46.4423 29.1433 46.4897 28.9976C46.5372 28.8519 46.6553 28.7403 46.803 28.7015L46.804 28.7012L53.4893 26.919C53.5618 26.8997 53.6243 26.854 53.6647 26.7909L57.4093 20.941C57.4998 20.8201 57.6422 20.7485 57.7933 20.7485C57.9443 20.7485 58.0868 20.8201 58.1775 20.9411L61.9216 26.7908C61.9621 26.854 62.0247 26.8998 62.0972 26.919L68.7856 28.6975L68.7864 28.6977C68.9345 28.7367 69.0527 28.8484 69.0997 28.9935L69.0998 28.9939C69.1472 29.1398 69.1173 29.2994 69.0204 29.4179L69.0194 29.4191L64.6472 34.8244C64.6005 34.8822 64.5768 34.9554 64.5809 35.0296M48.1141 64.7156L64.5809 35.0296M64.5809 35.0296L64.9658 41.9917C64.9743 42.1443 64.9046 42.2909 64.781 42.3809L64.5809 35.0296ZM47.9443 29.4704C47.9758 29.3738 48.0541 29.2997 48.1523 29.2735L54.0015 27.7137L47.9443 29.4704ZM47.9443 29.4704C47.9129 29.5671 47.9324 29.6731 47.9964 29.7521M47.9443 29.4704L47.9964 29.7521M47.9964 29.7521L51.8069 34.4618L47.9964 29.7521ZM52.1949 40.774L57.5221 38.6942C57.6974 38.6254 57.8923 38.6254 58.0678 38.6942L63.3945 40.774L63.402 40.9104L63.7016 40.8939L63.8107 40.6144L63.6834 40.5647L63.366 34.8068M52.1949 40.774L51.8718 36.2161C51.8701 36.2047 51.8681 36.1932 51.8658 36.1819M52.1949 40.774L52.1874 40.9104L51.8879 40.8939L52.1949 40.774ZM63.366 34.8068L63.6655 34.7905L64.0011 40.8774C64.0068 40.9792 63.9602 41.077 63.8776 41.1368C63.7949 41.1967 63.6875 41.2104 63.5925 41.1733L57.9587 38.9737L57.9582 38.9735C57.8531 38.9323 57.7365 38.9323 57.6318 38.9735L57.6312 38.9737L51.997 41.1733C51.9019 41.2104 51.7945 41.1967 51.7119 41.1368C51.6293 41.077 51.5827 40.9792 51.5883 40.8774L51.8402 36.3094C51.8415 36.2857 51.8456 36.2622 51.8524 36.2395C51.8583 36.22 51.8627 36.2008 51.8658 36.1819M63.366 34.8068C63.3558 34.6209 63.415 34.4386 63.5314 34.2936M63.366 34.8068L63.6655 34.7903M51.8658 36.1819C51.8642 36.1742 51.8625 36.1666 51.8606 36.1591C51.8534 36.1301 51.8506 36.1001 51.8523 36.0703L51.9224 34.7979L51.8658 36.1819ZM63.6655 34.7903C63.6595 34.679 63.6948 34.5695 63.7649 34.4819L63.7646 34.4823L63.5314 34.2936M63.6655 34.7903L54.0016 27.7137C54.1107 27.6845 54.2046 27.6159 54.2651 27.5215L57.5406 22.4048C57.5958 22.3187 57.691 22.2666 57.7933 22.2666C57.8956 22.2666 57.9908 22.3187 58.046 22.4049L61.3208 27.5215C61.3209 27.5215 61.3209 27.5215 61.3209 27.5216C61.3816 27.6162 61.4753 27.6846 61.5843 27.7137L67.4337 29.2735C67.5318 29.2997 67.6101 29.3738 67.6416 29.4704C67.6731 29.567 67.6535 29.673 67.5896 29.752L63.7653 34.4814L63.5314 34.2936M63.6655 34.7903L63.5314 34.2936M48.4126 64.7456C48.4515 64.3638 48.1953 64.0146 47.8196 63.9363L48.4126 64.7456ZM50.3982 40.6297L50.3241 41.9751L50.3982 40.6297ZM50.5754 39.0356C50.703 39.0038 50.7949 38.8926 50.8022 38.7613L50.8134 38.56C50.8185 38.4695 50.7823 38.3815 50.7149 38.3207C50.6476 38.2599 50.5564 38.2328 50.4668 38.2471C48.5687 38.5489 43.7671 39.645 39.3902 43.3331C35.0018 47.031 31.0701 53.3101 30.8888 63.9155C30.8874 63.996 30.9184 64.0736 30.9748 64.131C31.0312 64.1883 31.1083 64.2206 31.1887 64.2206H44.4761C44.6053 64.2206 44.72 64.1379 44.7608 64.0152C44.8015 63.8925 44.7591 63.7575 44.6555 63.6802C42.4393 62.0261 39.7205 58.5102 39.7205 51.172C39.7205 46.8989 41.6337 44.0741 43.9439 42.2094C46.2642 40.3366 48.987 39.4327 50.5754 39.0356ZM25.6918 43.7475C25.6467 43.8015 25.622 43.8695 25.622 43.9398V48.2923C25.622 48.4318 25.7182 48.5529 25.8542 48.5845C25.9901 48.616 26.1298 48.5497 26.1913 48.4245C28.5058 43.7099 33.226 40.64 38.0538 38.6984C42.8758 36.7592 47.7551 35.966 50.3109 35.7739C50.4735 35.7617 50.5965 35.622 50.5881 35.4592C50.5796 35.2965 50.4428 35.1702 50.2799 35.1749C47.3265 35.2591 42.5864 35.7303 37.8888 37.0095C33.2006 38.2862 28.5034 40.3812 25.6918 43.7475ZM25.6224 54.182C25.6222 54.1852 25.6221 54.1884 25.6221 54.1916C25.622 54.1935 25.622 54.1954 25.622 54.1973V60.9209C25.622 62.7431 27.0995 64.2206 28.9216 64.2206H29.689C29.8527 64.2206 29.9862 64.0893 29.9889 63.9255C30.1738 52.61 34.4913 46.0925 39.1606 42.3369C43.825 38.5851 48.8706 37.5662 50.5898 37.3203C50.5936 37.3204 50.5976 37.3205 50.6019 37.3205C50.7676 37.3205 50.9019 37.1862 50.9019 37.0205V36.9536C50.9019 36.8709 50.8677 36.7918 50.8074 36.7351C50.7471 36.6784 50.6661 36.6491 50.5835 36.6542C47.8309 36.8232 41.792 37.7679 36.345 40.372C30.9006 42.9749 25.9733 47.276 25.6224 54.182ZM50.5567 37.3178L50.5568 37.3178L50.5567 37.3178Z" fill="white" stroke="#FFEC4A" stroke-width="0.6" stroke-linejoin="round"/>
<path d="M69.2527 29.6078C69.4143 29.4101 69.4641 29.1439 69.3851 28.9011C69.3066 28.6585 69.1093 28.4725 68.8627 28.4076L69.2527 29.6078ZM69.2527 29.6078L64.8805 35.0131L65.2654 41.9751C65.2794 42.2298 65.1631 42.4741 64.9568 42.6239M69.2527 29.6078L50.4069 40.4717M50.4069 40.4717L50.3241 41.9751C50.3098 42.2298 50.4264 42.4741 50.6331 42.6239C50.8394 42.7735 51.108 42.8078 51.3455 42.7154M50.4069 40.4717C50.4229 40.4673 50.4389 40.463 50.4549 40.4586L50.4156 40.3139L50.2658 40.3056L50.263 40.356C46.7792 41.3325 40.9201 44.0358 40.9201 51.172C40.9201 62.3547 47.5383 63.876 47.8196 63.9363L50.4069 40.4717ZM51.3455 42.7154L57.7948 40.1975L64.2442 42.7154M51.3455 42.7154L51.2911 42.5756M51.3455 42.7154L51.2909 42.5757L51.2911 42.5756M64.2442 42.7154C64.4817 42.8078 64.75 42.7735 64.9568 42.6239M64.2442 42.7154L64.2987 42.5757L64.2986 42.5756M64.2442 42.7154L64.2986 42.5756M64.9568 42.6239L64.8687 42.5025M64.9568 42.6239L64.8689 42.5024C65.0339 42.3825 65.1269 42.187 65.1156 41.9834L64.7307 35.0214L64.7275 34.9637L64.7639 34.9187L69.1361 29.5135L69.1366 29.5128C69.2658 29.3547 69.3056 29.1419 69.2425 28.9475L69.2424 28.9473C69.1796 28.7535 69.0219 28.6046 68.8246 28.5526L68.8242 28.5525L62.1358 26.7741L62.0794 26.7591L62.048 26.71L58.3011 20.8559C58.1824 20.6944 57.9937 20.5985 57.7933 20.5985C57.5928 20.5985 57.4042 20.6944 57.2857 20.8559L53.5384 26.71L53.507 26.7591L53.4507 26.7741L46.7654 28.5562L46.7649 28.5564C46.5676 28.6082 46.4103 28.7572 46.347 28.9512L64.8687 42.5025M64.8687 42.5025C64.7032 42.6221 64.4886 42.6495 64.2986 42.5756M64.8687 42.5025L64.2986 42.5756M64.2986 42.5756L57.8494 40.0578L57.7948 40.0365L57.7403 40.0578L51.2911 42.5756M64.2986 42.5756L47.6691 65.2702C47.6693 65.2702 47.6694 65.2702 47.6696 65.2702C47.9761 65.2689 48.2326 65.0361 48.2633 64.7306L48.2633 64.7304C48.2945 64.4252 48.0896 64.1458 47.789 64.0831L47.7882 64.0829C47.6298 64.049 45.873 63.6433 44.1554 61.8281C42.4351 60.0101 40.7701 56.795 40.7701 51.172C40.7701 47.5031 42.301 44.9838 44.2709 43.2668C46.236 41.5539 48.6343 40.642 50.3763 40.1691L50.5768 40.1147L50.5654 40.3221L50.4739 41.9834L50.4739 41.9835C50.4624 42.187 50.5556 42.3825 50.7211 42.5025L50.7211 42.5025C50.8861 42.622 51.101 42.6496 51.2911 42.5756M47.9676 29.478L48.1909 29.4184L54.0402 27.8586C54.1853 27.8198 54.3105 27.7286 54.3914 27.6024L57.667 22.4857L57.7933 22.2884L57.9196 22.4857L61.1945 27.6024C61.1945 27.6024 61.1946 27.6024 61.1946 27.6024C61.2755 27.7287 61.4005 27.8199 61.5455 27.8586L67.395 29.4184L67.6183 29.478L67.473 29.6577L63.6483 34.3875C63.6482 34.3876 63.6482 34.3878 63.6481 34.3879C63.5549 34.5041 63.5077 34.65 63.5157 34.7985L63.5157 34.7986M47.9676 29.478L63.366 34.8068L63.5157 34.7986M47.9676 29.478L48.113 29.6577M47.9676 29.478L48.113 29.6577M63.5157 34.7986L63.8514 40.8856L63.8642 41.1184L63.647 41.0336L58.0132 38.834L58.013 38.8339C57.8727 38.7788 57.717 38.7789 57.5769 38.8339L57.5767 38.834L51.9424 41.0336L51.7253 41.1184L51.7381 40.8856L51.9899 36.3176L51.9909 36.2998L51.9961 36.2827C52.0065 36.248 52.0138 36.2131 52.0176 36.1781M63.5157 34.7986L52.0176 36.1781M52.0176 36.1781C52.0145 36.1595 52.0107 36.141 52.0062 36.1229L52.0008 36.1011L52.002 36.0786L52.0724 34.8021C52.0727 34.7532 52.0663 34.7058 52.0533 34.6609L52.0499 34.6492L52.0504 34.6491C52.0373 34.5849 52.0134 34.5234 51.9793 34.4666L51.974 34.4576L51.9743 34.4575C51.9669 34.4428 51.9623 34.434 51.9576 34.4262L52.0176 36.1781ZM48.113 29.6577L51.9349 34.3815L48.113 29.6577ZM28.9217 65.2702C26.5204 65.2681 24.5746 63.322 24.5722 60.9207L24.5722 43.673L24.5722 43.6729C24.5721 43.5365 24.6183 43.4043 24.7036 43.298L24.7037 43.2978C27.4953 39.8084 32.1943 37.5746 37.0082 36.1848C41.8178 34.7963 46.7179 34.2571 49.8844 34.1407L50.1842 34.1297L49.9956 33.8965L46.4536 29.5168L46.4531 29.5161C46.3238 29.3582 46.2839 29.1456 46.347 28.9513L28.9217 65.2702ZM50.5391 38.8901L50.6463 38.8633L50.6524 38.7529L50.6637 38.5517L50.674 38.366L50.4903 38.3952C48.6062 38.6948 43.8347 39.7842 39.4869 43.4478C35.1333 47.1163 31.2194 53.3537 31.0388 63.9181L31.0362 64.0706H31.1887H44.4761H44.9278L44.5658 63.8004C42.3083 62.1155 39.5705 58.5531 39.5705 51.172C39.5705 46.8462 41.5104 43.9809 43.8497 42.0927C46.1941 40.2004 48.9408 39.2896 50.5391 38.8901ZM25.8069 43.8437L25.772 43.8854V43.9398V48.2923L26.0567 48.3584C28.3951 43.5951 33.1559 40.5065 37.9978 38.5592C42.8368 36.6132 47.7317 35.8174 50.2997 35.6243L50.2842 35.3248C47.3398 35.4087 42.6119 35.8788 37.9282 37.1543C33.2492 38.4284 28.5886 40.5132 25.8069 43.8437ZM25.7722 54.1896L25.772 54.1896V54.1973V60.9209C25.772 62.6603 27.1824 64.0706 28.9216 64.0706H29.689H29.8365L29.8389 63.9231C30.0245 52.5647 34.3613 46.0046 39.0665 42.22C43.7738 38.4339 48.8649 37.4138 50.5833 37.1697C50.5881 37.1701 50.5946 37.1705 50.6019 37.1705H50.7519V37.0205V36.9536V36.7941L50.5927 36.8039C47.8534 36.9721 41.8346 37.9138 36.4097 40.5073C30.9861 43.1003 26.119 47.3644 25.7722 54.1896Z" stroke="#FFC400" stroke-width="0.3"/>
</g>
<defs>
<filter id="filter0_d" x="-1" y="-1" width="96" height="96" filterUnits="userSpaceOnUse" color-interpolation-filters="sRGB">
<feFlood flood-opacity="0" result="BackgroundImageFix"/>
<feColorMatrix in="SourceAlpha" type="matrix" values="0 0 0 0 0 0 0 0 0 0 0 0 0 0 0 0 0 0 127 0"/>
<feOffset dy="4"/>
<feGaussianBlur stdDeviation="12"/>
<feColorMatrix type="matrix" values="0 0 0 0 0.411765 0 0 0 0 0.811765 0 0 0 0 0.0941176 0 0 0 1 0"/>
<feBlend mode="normal" in2="BackgroundImageFix" result="effect1_dropShadow"/>
<feBlend mode="normal" in="SourceGraphic" in2="effect1_dropShadow" result="shape"/>
</filter>
</defs>
</svg>
