<svg width="94" height="91" viewBox="0 0 94 91" fill="none" xmlns="http://www.w3.org/2000/svg">
<g filter="url(#filter0_d)">
<path d="M31.257 39.8692C31.0175 39.8692 30.7816 39.7573 30.6317 39.5464L30.2772 39.0468C30.0318 38.7019 30.1134 38.2236 30.458 37.9787C30.8041 37.7336 31.2819 37.8145 31.5274 38.1594L31.8819 38.659C32.1257 39.0047 32.0444 39.483 31.6999 39.728C31.5658 39.8231 31.41 39.8692 31.257 39.8692Z" fill="#17E200"/>
<path d="M43.055 41.1205C41.7223 39.2418 41.9558 36.7796 43.5756 35.6297C45.1921 34.4806 47.5965 35.0723 48.9288 36.9508C50.2615 38.8287 50.0291 41.291 48.4106 42.4417C46.7857 43.5915 44.3837 42.9936 43.055 41.1205ZM44.4618 36.8795C43.5316 37.5401 43.4618 39.0444 44.3051 40.2331C45.1477 41.4219 46.5918 41.8525 47.5232 41.1911C48.4526 40.5313 48.5228 39.027 47.679 37.8382C46.836 36.6495 45.3956 36.2189 44.4618 36.8795ZM52.2238 42.9556C51.9831 42.9556 51.7472 42.8429 51.5977 42.6312C51.353 42.2862 51.4339 41.8081 51.7797 41.563L60.7942 35.1658L54.531 26.342L31.4426 42.7279C31.096 42.9714 30.6198 42.8897 30.3743 42.5464C30.1289 42.2006 30.2102 41.7224 30.5552 41.4774L54.2701 24.6481C54.4363 24.5307 54.646 24.484 54.8411 24.5181C55.0409 24.5522 55.2205 24.664 55.3379 24.8297L62.4873 34.9041C62.7311 35.249 62.651 35.7272 62.3053 35.9723L52.6658 42.8136C52.5315 42.908 52.3772 42.9556 52.2238 42.9556ZM30.9025 39.3695C30.663 39.3695 30.4271 39.257 30.2772 39.0468C30.0318 38.7018 30.1134 38.2236 30.458 37.9786L55.0493 20.5268C55.2157 20.4095 55.4255 20.3635 55.6206 20.3968C55.8205 20.4309 56.0005 20.5427 56.1174 20.7085L63.2664 30.7828C63.3837 30.9485 63.4306 31.1547 63.3969 31.3546C63.3624 31.5544 63.251 31.7336 63.0844 31.851L62.5948 32.1984C62.2498 32.4442 61.7724 32.3617 61.5269 32.0168C61.3148 31.7186 61.3473 31.3197 61.5833 31.0588L55.3105 22.2207L31.3454 39.2284C31.2114 39.3235 31.0555 39.3695 30.9025 39.3695ZM51.2372 35.3133C50.4517 34.2063 50.7083 32.6686 51.8098 31.8859C51.8106 31.8859 51.8106 31.8859 51.8106 31.8859C52.9125 31.1048 54.4485 31.3689 55.2352 32.4767C56.0203 33.5845 55.7641 35.1214 54.6627 35.9041C53.5611 36.6844 52.0251 36.4227 51.2372 35.3133ZM52.6968 33.1357C52.2848 33.4291 52.1901 34.008 52.487 34.426C52.7832 34.8438 53.361 34.9485 53.7757 34.6543C54.1876 34.3617 54.282 33.7828 53.985 33.364C53.6908 32.9477 53.1135 32.8423 52.6968 33.1357Z" fill="#17E200"/>
<path d="M62.6681 62.4089H26.4989C26.0762 62.4089 25.7324 62.0639 25.7324 61.6429V55.5914C25.7324 55.1695 26.0762 54.8254 26.4989 54.8254C26.9224 54.8254 27.2649 55.1695 27.2649 55.5914V60.876H61.8957L61.9013 45.7858C61.898 45.3616 62.2391 45.0174 62.6617 45.0142C62.6641 45.0142 62.6665 45.0142 62.6681 45.0142C63.0884 45.0142 63.4306 45.3545 63.4342 45.774V61.6349C63.4353 61.8411 63.3552 62.0378 63.2117 62.1813C63.0682 62.3272 62.8723 62.4089 62.6681 62.4089Z" fill="#FFC400"/>
<path d="M58.9369 58.6278H53.6245C53.2018 58.6278 52.8584 58.2852 52.8584 57.8617C52.8584 57.4399 53.2018 57.0949 53.6245 57.0949H58.9369C59.3595 57.0949 59.7033 57.4399 59.7033 57.8617C59.7033 58.2852 59.3595 58.6278 58.9369 58.6278Z" fill="#FFC400"/>
<path d="M27.1844 45.0553C26.9251 44.5327 26.0722 44.5327 25.8126 45.0553C25.3447 45.9959 23.0778 50.7944 24.4189 52.9616C24.7146 53.4407 25.3169 54.0108 26.4989 54.0108C27.6816 54.0108 28.2828 53.4407 28.5793 52.9616C29.9204 50.7944 27.6527 45.9959 27.1844 45.0553ZM27.2756 52.1552C27.2158 52.2511 27.0758 52.4779 26.4989 52.4779C25.9228 52.4779 25.7816 52.2511 25.7217 52.1552C25.2114 51.3312 25.761 49.1671 26.4997 47.2893C27.2383 49.164 27.7871 51.3312 27.2756 52.1552Z" fill="#FFC400"/>
<path d="M44.5264 45.5074C32.0551 45.5074 25.7324 44.6953 25.7324 43.0943C25.7324 42.153 26.9437 41.8485 28.1856 41.6177C28.6036 41.536 29.002 41.8152 29.0789 42.2307C29.1491 42.605 28.9326 42.9666 28.5857 43.0912C31.1574 43.5392 36.7703 43.9753 44.5264 43.9753C52.2503 43.9753 57.8485 43.5431 60.4362 43.0975C59.6364 42.9555 58.4306 42.7922 56.6262 42.6414C56.2035 42.6066 55.891 42.2362 55.9259 41.8136C55.962 41.3917 56.3398 41.08 56.7534 41.1142C62.8366 41.6232 63.3203 42.283 63.3203 43.0943C63.3203 44.6953 56.9977 45.5074 44.5264 45.5074Z" fill="#FFC400"/>
<path d="M67.8004 41.3124C67.3777 41.3124 67.0343 40.9691 67.0343 40.5464V40.004H66.493C66.0704 40.004 65.7271 39.6614 65.7271 39.2379C65.7271 38.8152 66.0704 38.4719 66.493 38.4719H67.0343V37.9303C67.0343 37.5076 67.3777 37.1642 67.8004 37.1642C68.223 37.1642 68.5672 37.5076 68.5672 37.9303V38.4719H69.1081C69.5307 38.4719 69.8745 38.8152 69.8745 39.2379C69.8745 39.6614 69.5307 40.004 69.1081 40.004H68.5672V40.5464C68.5672 40.9691 68.223 41.3124 67.8004 41.3124Z" fill="#FFC400"/>
<path d="M33.3554 28.4561C32.9328 28.4561 32.589 28.1135 32.589 27.69V27.1484H32.0478C31.6251 27.1484 31.2817 26.8051 31.2817 26.3816C31.2817 25.9589 31.6251 25.6155 32.0478 25.6155H32.589V25.074C32.589 24.6505 32.9328 24.3079 33.3554 24.3079C33.7789 24.3079 34.1215 24.6505 34.1215 25.074V25.6155H34.664C35.0866 25.6155 35.4304 25.9589 35.4304 26.3816C35.4304 26.8051 35.0866 27.1484 34.664 27.1484H34.1215V27.69C34.1215 28.1135 33.7789 28.4561 33.3554 28.4561Z" fill="#FFC400"/>
<path d="M62.6679 62.1027H26.4988C26.2446 62.1027 26.0388 61.8966 26.0388 61.6428V55.5913C26.0388 55.3375 26.2446 55.1314 26.4988 55.1314C26.7525 55.1314 26.9583 55.3375 26.9583 55.5913V61.1829H62.2044L62.208 45.7834C62.2056 45.5296 62.4102 45.3234 62.6639 45.3211C62.9335 45.3377 63.1251 45.5216 63.1275 45.7762V61.6372C63.1291 61.7625 63.0811 61.8799 62.9946 61.9655C62.907 62.052 62.7896 62.1027 62.6679 62.1027Z" fill="#FFEC4A"/>
<path d="M44.5263 45.2014C40.1896 45.2014 26.0388 45.0507 26.0388 43.0944C26.0388 42.5361 26.6359 42.2173 28.2418 41.9191C28.4931 41.8739 28.7315 42.0364 28.7782 42.2862C28.8246 42.5361 28.6597 42.7756 28.4107 42.8231C27.8441 42.9286 27.4864 43.0245 27.2624 43.1015C28.856 43.6447 35.0351 44.2823 44.5263 44.2823C54.0217 44.2823 60.204 43.6423 61.7936 43.0991C61.2469 42.9127 59.9031 42.6075 56.6513 42.3362C56.3988 42.3148 56.2108 42.0928 56.231 41.8398C56.2525 41.5876 56.4551 41.3957 56.7282 41.4203C63.0141 41.9452 63.0141 42.636 63.0141 43.0944C63.0141 45.0507 48.8628 45.2014 44.5263 45.2014Z" fill="#FFEC4A"/>
<path d="M26.4988 53.704C25.4579 53.704 24.935 53.2139 24.6789 52.7991C23.3966 50.7302 25.8077 45.7525 26.088 45.1918C26.2423 44.8778 26.7561 44.8778 26.9103 45.1918C27.1895 45.7525 29.6006 50.7302 28.3183 52.7991C28.0634 53.2139 27.54 53.704 26.4988 53.704ZM26.4996 46.4916C25.7443 48.2425 24.7446 51.1584 25.4604 52.3154C25.5861 52.5169 25.8291 52.7849 26.4988 52.7849C27.1689 52.7849 27.4119 52.5169 27.5364 52.3154C28.195 51.252 27.362 48.482 26.4996 46.4916Z" fill="#FFEC4A"/>
<path d="M58.9369 58.3217H53.6246C53.3708 58.3217 53.165 58.1155 53.165 57.8617C53.165 57.608 53.3708 57.4018 53.6246 57.4018H58.9369C59.1907 57.4018 59.3969 57.608 59.3969 57.8617C59.3969 58.1155 59.1907 58.3217 58.9369 58.3217Z" fill="#FFEC4A"/>
<path d="M33.3555 28.15C33.1014 28.15 32.896 27.9438 32.896 27.6901V25.074C32.896 24.8202 33.1014 24.6141 33.3555 24.6141C33.6093 24.6141 33.8151 24.8202 33.8151 25.074V27.6901C33.8151 27.9438 33.6093 28.15 33.3555 28.15Z" fill="#FFEC4A"/>
<path d="M34.6641 26.8416H32.0479C31.7942 26.8416 31.5884 26.6362 31.5884 26.3816C31.5884 26.1279 31.7942 25.9225 32.0479 25.9225H34.6641C34.9178 25.9225 35.124 26.1279 35.124 26.3816C35.124 26.6362 34.9178 26.8416 34.6641 26.8416Z" fill="#FFEC4A"/>
<path d="M69.1079 39.6977H66.4929C66.2391 39.6977 66.033 39.4915 66.033 39.2378C66.033 38.984 66.2391 38.7778 66.4929 38.7778H69.1079C69.3617 38.7778 69.5675 38.984 69.5675 39.2378C69.5675 39.4915 69.3617 39.6977 69.1079 39.6977Z" fill="#FFEC4A"/>
<path d="M62.6679 61.7959H26.4987C26.4146 61.7959 26.3452 61.7261 26.3452 61.6429V55.5914C26.3452 55.5073 26.4146 55.4383 26.4987 55.4383C26.5835 55.4383 26.6518 55.5073 26.6518 55.5914V61.489H62.5132L62.5144 45.7811C62.5132 45.697 62.5814 45.6272 62.6662 45.6272H62.6679C62.7515 45.6272 62.8197 45.6946 62.8209 45.7786V61.6397C62.8209 61.6809 62.805 61.7213 62.7765 61.7499C62.7479 61.7785 62.7083 61.7959 62.6679 61.7959Z" fill="white"/>
<path d="M44.5262 44.8944C37.2178 44.8944 26.3452 44.4154 26.3452 43.0943C26.3452 42.8429 26.5772 42.5399 28.298 42.2204C28.3805 42.2053 28.461 42.26 28.4764 42.3425C28.4919 42.4258 28.4368 42.5059 28.3543 42.5217C26.6985 42.8302 26.6518 43.0911 26.6518 43.0943C26.6518 43.7192 33.4522 44.5883 44.5262 44.5883C55.6013 44.5883 62.4006 43.7192 62.4006 43.0943C62.4006 43.0887 62.3352 42.5035 56.6767 42.0309C56.5926 42.0237 56.5304 41.95 56.5363 41.8659C56.5438 41.7851 56.6104 41.7247 56.6898 41.7247C56.6929 41.7247 56.698 41.7247 56.7028 41.7255C62.7071 42.2267 62.7071 42.8564 62.7071 43.0943C62.7071 44.4154 51.8342 44.8944 44.5262 44.8944Z" fill="white"/>
<path d="M26.499 53.3979C25.7765 53.3979 25.2524 53.1441 24.94 52.639C23.7247 50.6755 26.2531 45.5455 26.3622 45.3282C26.4137 45.2228 26.585 45.2228 26.6362 45.3282C26.744 45.5455 29.2742 50.6755 28.0576 52.639C27.7464 53.1441 27.2218 53.3979 26.499 53.3979ZM26.499 45.7541C25.9816 46.8698 24.2298 50.9102 25.2008 52.478C25.457 52.8903 25.8808 53.0918 26.499 53.0918C27.1163 53.0918 27.5414 52.8903 27.7979 52.478C28.7686 50.9071 27.016 46.8698 26.499 45.7541Z" fill="white"/>
<path d="M58.9371 58.0148H53.6247C53.5398 58.0148 53.4712 57.9482 53.4712 57.8617C53.4712 57.7776 53.5398 57.7079 53.6247 57.7079H58.9371C59.0219 57.7079 59.0904 57.7776 59.0904 57.8617C59.0904 57.9482 59.0219 58.0148 58.9371 58.0148Z" fill="white"/>
<path d="M67.8004 41.0055C67.5466 41.0055 67.3408 40.8001 67.3408 40.5463V37.9302C67.3408 37.6764 67.5466 37.4711 67.8004 37.4711C68.0541 37.4711 68.2607 37.6764 68.2607 37.9302V40.5463C68.2607 40.8001 68.0541 41.0055 67.8004 41.0055Z" fill="#FFEC4A"/>
<path d="M33.3555 27.8431C33.2715 27.8431 33.2021 27.7741 33.2021 27.69V25.0739C33.2021 24.9891 33.2715 24.9209 33.3555 24.9209C33.4404 24.9209 33.5086 24.9891 33.5086 25.0739V27.69C33.5086 27.7741 33.4404 27.8431 33.3555 27.8431Z" fill="white"/>
<path d="M34.664 26.5354H32.0478C31.9641 26.5354 31.8948 26.4664 31.8948 26.3815C31.8948 26.2975 31.9641 26.2285 32.0478 26.2285H34.664C34.748 26.2285 34.8174 26.2975 34.8174 26.3815C34.8174 26.4664 34.748 26.5354 34.664 26.5354Z" fill="white"/>
<path d="M69.1081 39.391H66.4931C66.4082 39.391 66.3401 39.3227 66.3401 39.2379C66.3401 39.1538 66.4082 39.0849 66.4931 39.0849H69.1081C69.1933 39.0849 69.2615 39.1538 69.2615 39.2379C69.2615 39.3227 69.1933 39.391 69.1081 39.391Z" fill="white"/>
<path d="M52.2229 42.6478C52.079 42.6478 51.9378 42.5804 51.8474 42.4535C51.7006 42.2473 51.7494 41.9602 51.9568 41.8135L61.2215 35.2379L54.6038 25.9144L31.2648 42.4773C31.0578 42.6247 30.7703 42.5748 30.6244 42.3686C30.4769 42.1616 30.5261 41.8746 30.7335 41.7278L54.4469 24.8986C54.5464 24.828 54.6712 24.8002 54.7898 24.8201C54.9104 24.8407 55.017 24.9073 55.0876 25.0072L62.2366 35.0817C62.3841 35.2878 62.3353 35.5749 62.128 35.7224L52.4885 42.5629C52.408 42.62 52.3149 42.6478 52.2229 42.6478Z" fill="#AAFF5C"/>
<path d="M31.2569 39.5622C31.1129 39.5622 30.9705 39.4956 30.8817 39.3695L30.5272 38.8699C30.3802 38.6629 30.4293 38.375 30.6355 38.2284C30.8433 38.0801 31.1308 38.13 31.2771 38.337L31.6311 38.8366C31.7786 39.0436 31.7295 39.3306 31.5225 39.4774C31.4424 39.5353 31.3488 39.5622 31.2569 39.5622Z" fill="#AAFF5C"/>
<path d="M30.9023 39.0634C30.7584 39.0634 30.616 38.9952 30.5272 38.8691C30.3801 38.6629 30.4293 38.375 30.6363 38.2284L55.2267 20.7773C55.3246 20.7068 55.4491 20.6783 55.5689 20.6989C55.6898 20.7195 55.7965 20.7861 55.867 20.886L63.0164 30.9604C63.0866 31.0596 63.1152 31.1832 63.0949 31.3037C63.0735 31.4235 63.0065 31.5314 62.907 31.6011L62.4177 31.9485C62.2111 32.0944 61.9241 32.0468 61.7769 31.839C61.6294 31.6321 61.6786 31.345 61.8856 31.1983L62.0006 31.1174L55.3833 21.7932L31.168 38.9777C31.0878 39.0356 30.9943 39.0634 30.9023 39.0634Z" fill="#AAFF5C"/>
<path d="M43.3052 40.9422C42.0709 39.2031 42.2719 36.9311 43.7532 35.8804C45.2005 34.8534 47.4035 35.3308 48.6787 37.1286C49.9145 38.8684 49.7147 41.1396 48.2321 42.1912C46.7809 43.2204 44.578 42.7375 43.3052 40.9422ZM44.2846 36.6297C43.2168 37.3878 43.1137 39.0841 44.0546 40.4108C44.9586 41.6852 46.6672 42.1752 47.7005 41.4417C48.7683 40.6828 48.8702 38.9873 47.9293 37.6614C47.0038 36.3561 45.3659 35.8637 44.2846 36.6297Z" fill="#AAFF5C"/>
<path d="M51.4878 35.1356C50.7991 34.1657 51.0227 32.8199 51.9877 32.1364C52.9219 31.4719 54.324 31.7208 54.9846 32.6542C55.6733 33.6241 55.4481 34.969 54.4846 35.6542C53.5167 36.3417 52.1738 36.103 51.4878 35.1356ZM52.5195 32.8866C51.9687 33.2767 51.8419 34.0475 52.2368 34.6026C52.6167 35.1379 53.4176 35.283 53.9525 34.904C54.5024 34.5131 54.6289 33.743 54.2356 33.1863C53.8438 32.636 53.0798 32.4901 52.5195 32.8866Z" fill="#AAFF5C"/>
<path d="M52.2229 42.3409C52.1745 42.3409 52.1281 42.3187 52.098 42.2767C52.0488 42.2077 52.0643 42.1126 52.134 42.0626L61.649 35.3109L54.6769 25.4871L31.088 42.2275C31.0186 42.2767 30.9238 42.2592 30.8735 42.1911C30.8243 42.1229 30.8409 42.0261 30.9108 41.9778L54.6241 25.1485C54.6582 25.1239 54.6975 25.1144 54.7383 25.1223C54.7788 25.1286 54.8148 25.1509 54.8378 25.185L61.9868 35.2585C62.0356 35.3275 62.0201 35.4235 61.9507 35.4727C58.1861 38.144 56.0755 39.6418 52.3109 42.3131C52.2848 42.333 52.2538 42.3409 52.2229 42.3409Z" fill="#E4FFA3"/>
<path d="M31.2568 39.2561C31.2084 39.2561 31.1609 39.2331 31.1307 39.191L30.7763 38.6923C30.7275 38.6233 30.7441 38.5273 30.8136 38.4781C30.8817 38.4289 30.9789 38.4457 31.0268 38.5146L31.3809 39.0142C31.4301 39.0832 31.4134 39.1784 31.3452 39.2275C31.3175 39.2466 31.2866 39.2561 31.2568 39.2561Z" fill="#E4FFA3"/>
<path d="M30.9023 38.7565C30.8543 38.7565 30.8064 38.7343 30.7763 38.6923C30.7275 38.6233 30.7441 38.5273 30.8136 38.4782L55.404 21.0272C55.4373 21.0034 55.4765 20.9907 55.5173 21.001C55.5582 21.0082 55.5939 21.0304 55.6169 21.0637L62.7659 31.1373C62.7897 31.1706 62.7996 31.2119 62.7924 31.2523C62.7849 31.2919 62.7635 31.3276 62.7302 31.3514L62.2405 31.6988C62.1735 31.7471 62.0764 31.7313 62.0272 31.6622C61.978 31.5933 61.9935 31.4973 62.0629 31.4482L62.4285 31.1896L55.4563 21.3659L30.9907 38.7288C30.9634 38.7478 30.932 38.7565 30.9023 38.7565Z" fill="#E4FFA3"/>
<path d="M43.5552 40.7652C42.4176 39.1632 42.5865 37.0832 43.9299 36.13C45.3069 35.1522 47.3196 35.7438 48.4286 37.306C49.5658 38.9079 49.3981 40.9872 48.0547 41.9412C46.6705 42.9237 44.6566 42.3187 43.5552 40.7652ZM44.1071 36.3798C42.9013 37.2363 42.7661 39.1236 43.8042 40.5875C44.822 42.0228 46.6491 42.5629 47.8779 41.6914C49.0828 40.8349 49.2185 38.9476 48.1792 37.4829C47.1637 36.0531 45.3379 35.5059 44.1071 36.3798Z" fill="#E4FFA3"/>
<path d="M51.7375 34.9579C51.1463 34.1269 51.339 32.9722 52.1649 32.3855C53.002 31.7938 54.1502 32.0064 54.7343 32.8319C55.3247 33.6638 55.1332 34.8176 54.3073 35.4044C53.4702 35.996 52.322 35.7835 51.7375 34.9579ZM52.3426 32.6361C51.6538 33.1245 51.4948 34.0873 51.9869 34.7811C52.475 35.4686 53.4341 35.6478 54.1296 35.1538C54.8184 34.6654 54.9774 33.7026 54.4853 33.0087C53.9972 32.322 53.0376 32.1412 52.3426 32.6361Z" fill="#E4FFA3"/>
<path d="M67.8004 40.6994C67.7155 40.6994 67.6477 40.6304 67.6477 40.5464V37.9302C67.6477 37.8462 67.7155 37.7771 67.8004 37.7771C67.886 37.7771 67.9538 37.8462 67.9538 37.9302V40.5464C67.9538 40.6304 67.886 40.6994 67.8004 40.6994Z" fill="white"/>
</g>
<defs>
<filter id="filter0_d" x="-1" y="-3" width="96" height="96" filterUnits="userSpaceOnUse" color-interpolation-filters="sRGB">
<feFlood flood-opacity="0" result="BackgroundImageFix"/>
<feColorMatrix in="SourceAlpha" type="matrix" values="0 0 0 0 0 0 0 0 0 0 0 0 0 0 0 0 0 0 127 0"/>
<feOffset dy="4"/>
<feGaussianBlur stdDeviation="12"/>
<feColorMatrix type="matrix" values="0 0 0 0 0.411765 0 0 0 0 0.811765 0 0 0 0 0.0941176 0 0 0 1 0"/>
<feBlend mode="normal" in2="BackgroundImageFix" result="effect1_dropShadow"/>
<feBlend mode="normal" in="SourceGraphic" in2="effect1_dropShadow" result="shape"/>
</filter>
</defs>
</svg>
