<svg width="98" height="80" viewBox="0 0 98 80" fill="none" xmlns="http://www.w3.org/2000/svg">
<g filter="url(#filter0_d)">
<mask id="path-1-inside-1" fill="white">
<path d="M38.9921 20.5017C38.6037 20.5064 38.2231 20.6051 37.8834 20.7952L26.1117 27.3985C25.9152 27.5085 25.7426 27.6495 25.59 27.8061C25.5632 27.8337 25.5337 27.8586 25.5084 27.8876C25.1566 28.2848 24.9542 28.7911 24.9541 29.3387V42.5289C24.9542 43.3389 25.4043 44.0729 26.1117 44.4691L37.8834 51.0561C38.5909 51.4523 39.4586 51.4522 40.1661 51.0561L46.5737 47.4691L47.6987 49.6865C48.0638 50.4096 48.7962 50.8744 49.6063 50.9093L63.09 51.4963C63.9001 51.5313 64.6586 51.1416 65.1117 50.4691L72.6606 39.2843C73.1137 38.6119 73.1723 37.7412 72.8074 37.0181L66.8726 25.2463C66.7503 25.004 66.5774 24.8046 66.3835 24.6267C66.3632 24.6035 66.3414 24.5817 66.3182 24.5615C66.3123 24.5563 66.3079 24.5501 66.3019 24.5452C66.2922 24.5372 66.2792 24.5368 66.2693 24.529C65.9018 24.2358 65.4508 24.0445 64.965 24.0235L51.4813 23.4529C51.1135 23.4372 50.7556 23.5115 50.4215 23.6648C50.4106 23.6701 50.3997 23.6759 50.3889 23.6811C50.3606 23.6955 50.3334 23.7118 50.3074 23.73C49.9646 23.9089 49.6588 24.1601 49.4432 24.48L48.6932 25.5887L40.1661 20.7952C40.1054 20.7612 40.0353 20.7366 39.9704 20.7137C39.7179 20.6024 39.4472 20.5359 39.1715 20.518C39.15 20.5115 39.1282 20.5061 39.1063 20.5018C39.0957 20.5014 39.0843 20.502 39.0737 20.5018C39.052 20.5007 39.0302 20.5007 39.0084 20.5018C39.003 20.5017 38.9976 20.5017 38.9921 20.5017ZM39.0084 21.855C39.0193 21.8552 39.0302 21.8552 39.0411 21.855C39.1979 21.8586 39.3638 21.9106 39.4976 21.9854L47.9432 26.7137L46.9161 28.23C46.7876 27.7491 46.4136 27.3679 45.9867 27.1213C45.4584 26.8161 44.7943 26.6485 44.0791 26.6485C43.3639 26.6485 42.7162 26.8161 42.1878 27.1213C41.6595 27.4265 41.2095 27.9373 41.2095 28.5887C41.2095 29.24 41.6595 29.7509 42.1878 30.0561C42.7162 30.3613 43.3639 30.5126 44.0791 30.5126C44.6097 30.5126 45.1067 30.4194 45.5465 30.2517L43.9813 32.5833L39.5628 35.0615C39.2539 35.2345 38.7956 35.2345 38.4867 35.0615L26.8291 28.5398L38.5519 21.9854C38.6887 21.9088 38.8471 21.857 39.0084 21.855ZM38.9106 23.4854C38.1955 23.4854 37.5314 23.653 37.003 23.9582C36.4747 24.2635 36.0248 24.7743 36.0248 25.4256C36.0248 26.077 36.4747 26.5878 37.003 26.893C37.5314 27.1982 38.1955 27.3496 38.9106 27.3496C39.6258 27.3496 40.2736 27.1982 40.8019 26.893C41.3302 26.5878 41.7802 26.077 41.7802 25.4256C41.7802 24.7743 41.3302 24.2635 40.8019 23.9582C40.2736 23.653 39.6258 23.4854 38.9106 23.4854ZM51.4161 24.8061H51.4324L64.8345 25.393L57.3834 36.4637C57.1856 36.7573 56.7589 36.968 56.4052 36.9528L43.0682 36.3659L50.5682 25.23C50.6157 25.1595 50.6794 25.1061 50.7476 25.0506C50.7687 25.0333 50.7903 25.0174 50.8128 25.0018C50.8508 24.9754 50.8863 24.9416 50.9269 24.9202C50.9379 24.9151 50.9488 24.9097 50.9595 24.904C51.0965 24.8387 51.2673 24.8023 51.4161 24.8061ZM38.9106 24.8223C39.4036 24.8223 39.8374 24.9473 40.1008 25.0995C40.3642 25.2517 40.3943 25.379 40.3943 25.4256C40.3943 25.4722 40.3643 25.5832 40.1008 25.7354C39.8374 25.8875 39.4036 26.0126 38.9106 26.0126C38.4177 26.0126 37.9675 25.8875 37.7041 25.7354C37.4407 25.5832 37.3943 25.4722 37.3943 25.4256C37.3943 25.379 37.4407 25.2517 37.7041 25.0995C37.9675 24.9473 38.4177 24.8223 38.9106 24.8223ZM65.8617 26.2897L71.6008 37.6376C71.7279 37.8894 71.7069 38.2637 71.5356 38.518L64.1171 49.5071L58.1334 37.6539C58.2707 37.5261 58.4014 37.3725 58.5085 37.2137L65.8617 26.2897ZM33.6606 26.3386C32.9455 26.3386 32.2814 26.5062 31.753 26.8114C31.2247 27.1167 30.7911 27.6275 30.7911 28.2788C30.7911 28.9302 31.2247 29.441 31.753 29.7462C32.2814 30.0514 32.9455 30.2191 33.6606 30.2191C34.3758 30.2191 35.0236 30.0514 35.5519 29.7462C36.0802 29.441 36.5302 28.9302 36.5302 28.2788C36.5302 27.6275 36.0802 27.1167 35.5519 26.8114C35.0236 26.5062 34.3758 26.3386 33.6606 26.3386ZM33.6606 27.6919C34.1536 27.6919 34.5874 27.8006 34.8508 27.9528C35.1142 28.1049 35.1606 28.2322 35.1606 28.2788C35.1606 28.3254 35.1142 28.4528 34.8508 28.6049C34.5874 28.7571 34.1536 28.8658 33.6606 28.8658C33.1677 28.8658 32.7175 28.7571 32.4541 28.6049C32.1907 28.4528 32.1606 28.3254 32.1606 28.2788C32.1606 28.2322 32.1907 28.1049 32.4541 27.9528C32.7175 27.8006 33.1677 27.6919 33.6606 27.6919ZM44.0791 27.9854C44.5721 27.9854 45.0059 28.1104 45.2693 28.2625C45.5327 28.4147 45.5791 28.542 45.5791 28.5886C45.5791 28.6352 45.5327 28.7463 45.2693 28.8984C45.0059 29.0506 44.5721 29.1756 44.0791 29.1756C43.5862 29.1756 43.1523 29.0506 42.8889 28.8984C42.6255 28.7463 42.5791 28.6352 42.5791 28.5886C42.5791 28.542 42.6255 28.4147 42.8889 28.2625C43.1523 28.1104 43.5862 27.9854 44.0791 27.9854ZM54.8726 28.4745C54.2634 28.4401 53.6034 28.5924 52.965 28.9147C52.3265 29.237 51.8154 29.6759 51.4813 30.1864C51.1472 30.697 50.9758 31.3658 51.2693 31.9473C51.5628 32.5288 52.1928 32.777 52.8019 32.8114C53.4111 32.8458 54.0711 32.6935 54.7095 32.3712C55.348 32.049 55.8591 31.61 56.1932 31.0995C56.5274 30.589 56.6987 29.9364 56.4052 29.3549C56.1117 28.7735 55.4817 28.5089 54.8726 28.4745ZM38.8454 29.518C38.1302 29.518 37.4662 29.6856 36.9378 29.9908C36.4095 30.296 35.9595 30.8068 35.9595 31.4582C35.9595 32.1095 36.4095 32.6204 36.9378 32.9256C37.4662 33.2308 38.1302 33.3821 38.8454 33.3821C39.5606 33.3821 40.2084 33.2308 40.7367 32.9256C41.265 32.6204 41.715 32.1095 41.715 31.4582C41.715 30.8068 41.265 30.296 40.7367 29.9908C40.2084 29.6856 39.5606 29.518 38.8454 29.518ZM26.3237 29.8114L37.8182 36.2517C37.9852 36.3451 38.1602 36.4281 38.34 36.4799V49.768L26.7802 43.2789C26.5127 43.129 26.3237 42.8109 26.3237 42.5289V29.8114ZM54.5139 29.8114C54.6053 29.8021 54.6825 29.8073 54.7584 29.8114C55.0622 29.8286 55.1451 29.9329 55.1661 29.9745C55.187 30.0161 55.2022 30.1276 55.0356 30.3821C54.869 30.6366 54.5464 30.9426 54.1063 31.1647C53.6662 31.3868 53.2198 31.4753 52.9161 31.4582C52.6124 31.4411 52.5131 31.3693 52.4921 31.3278C52.4712 31.2862 52.456 31.1584 52.6226 30.9038C52.7892 30.6493 53.1282 30.3271 53.5682 30.1049C53.8983 29.9383 54.2396 29.8395 54.5139 29.8114ZM65.4704 30.6104C64.9131 30.679 64.4384 31.0684 64.1335 31.5071C63.7849 32.0085 63.5791 32.6366 63.5302 33.3332C63.4813 34.0298 63.5963 34.6803 63.8726 35.2082C64.1488 35.736 64.6407 36.1908 65.3074 36.2191C65.9741 36.2472 66.5403 35.8237 66.8889 35.3223C67.2375 34.821 67.4432 34.1928 67.4921 33.4962C67.5411 32.7996 67.426 32.1654 67.1498 31.6375C66.8735 31.1097 66.3817 30.6386 65.715 30.6104C65.6316 30.6067 65.55 30.6006 65.4704 30.6104ZM38.8454 30.8549C39.3384 30.8549 39.7722 30.9799 40.0356 31.1321C40.299 31.2843 40.3291 31.4116 40.3291 31.4582C40.3291 31.5048 40.299 31.6158 40.0356 31.768C39.7722 31.9201 39.3384 32.0451 38.8454 32.0451C38.3525 32.0451 37.9023 31.9201 37.6389 31.768C37.3755 31.6158 37.3454 31.5048 37.3454 31.4582C37.3454 31.4116 37.3755 31.2843 37.6389 31.1321C37.9023 30.9799 38.3525 30.8549 38.8454 30.8549ZM65.6171 31.9636C65.6648 31.9657 65.7892 31.9939 65.9269 32.2571C66.0647 32.5203 66.1563 32.9508 66.1226 33.431C66.0888 33.9112 65.9377 34.3387 65.7639 34.5886C65.5901 34.8386 65.4529 34.8841 65.4052 34.8821C65.3575 34.8821 65.2494 34.8357 65.1117 34.5723C64.974 34.3091 64.8823 33.8623 64.9161 33.3821C64.9498 32.9019 65.101 32.4908 65.2748 32.2408C65.4485 31.9908 65.5695 31.9616 65.6171 31.9636ZM28.3943 32.2571C28.1614 32.2687 27.928 32.3306 27.7095 32.4528C27.1271 32.7784 26.9031 33.4059 26.8943 34.0017C26.8856 34.5974 27.0748 35.228 27.4324 35.8278C27.7899 36.4276 28.2485 36.8905 28.7856 37.181C29.3227 37.4715 30.013 37.6045 30.5954 37.2789C31.1778 36.9532 31.4019 36.3093 31.4106 35.7137C31.4194 35.1179 31.2302 34.4874 30.8726 33.8875C30.515 33.2877 30.0564 32.8248 29.5193 32.5343C29.1836 32.3527 28.7825 32.2378 28.3943 32.2571ZM28.5411 33.5778C28.6128 33.5855 28.717 33.6194 28.8508 33.6919C29.1186 33.8367 29.4359 34.1425 29.6824 34.556C29.9289 34.9695 30.0454 35.4003 30.0411 35.6973C30.0369 35.9943 29.936 36.0816 29.8943 36.105C29.8527 36.1284 29.7219 36.1682 29.4541 36.0234C29.1863 35.8786 28.8691 35.5727 28.6226 35.1593C28.3761 34.7458 28.2595 34.315 28.2639 34.018C28.2681 33.721 28.3527 33.6173 28.3943 33.5941C28.4151 33.5824 28.4693 33.57 28.5411 33.5778ZM42.2856 35.0941L41.9106 35.6647C41.85 35.7548 41.794 35.8461 41.7476 35.9419C41.7306 35.9774 41.73 36.02 41.715 36.056C41.6944 36.1045 41.6668 36.153 41.6498 36.2028C41.6355 36.2456 41.6288 36.2898 41.6171 36.3332C41.5917 36.4248 41.5654 36.5168 41.5519 36.6104C41.5315 36.7578 41.527 36.8997 41.5356 37.0506C41.5359 37.0558 41.5353 37.0616 41.5356 37.0668C41.5368 37.1107 41.5423 37.1544 41.5519 37.1972C41.583 37.4447 41.6473 37.6836 41.7639 37.9146L45.9704 46.2461L39.6932 49.7678V36.4798C39.8783 36.4277 40.0597 36.3476 40.2313 36.2516L42.2856 35.0941ZM31.3454 37.1973C31.1115 37.2072 30.879 37.2708 30.6606 37.393C30.0782 37.7186 29.8542 38.3462 29.8454 38.9419C29.8366 39.5376 30.0259 40.1682 30.3834 40.768C30.741 41.3678 31.1996 41.847 31.7367 42.1376C32.2738 42.4281 32.964 42.5447 33.5465 42.2191C34.1289 41.8934 34.353 41.2658 34.3617 40.6702C34.3705 40.0745 34.1812 39.4439 33.8237 38.8441C33.4661 38.2442 33.0075 37.765 32.4704 37.4745C32.1347 37.2929 31.7352 37.1807 31.3454 37.1973ZM43.1824 37.7354L56.3563 38.306C56.5478 38.3144 56.7429 38.306 56.9269 38.2737L62.9106 50.127L49.6715 49.5563C49.3652 49.5432 49.0323 49.3353 48.9052 49.0835L43.1824 37.7354ZM31.4921 38.5343C31.5639 38.5421 31.668 38.576 31.8019 38.6484C32.0697 38.7933 32.387 39.0828 32.6334 39.4963C32.8799 39.9097 32.9965 40.3568 32.9921 40.6538C32.988 40.9509 32.8871 41.0382 32.8454 41.0615C32.8038 41.085 32.673 41.1084 32.4052 40.9637C32.1374 40.8188 31.8202 40.513 31.5737 40.0995C31.3272 39.686 31.2106 39.2715 31.215 38.9745C31.2191 38.6775 31.3201 38.5739 31.3617 38.5506C31.3825 38.5391 31.4204 38.5264 31.4921 38.5343ZM47.2584 38.7137C46.6481 38.6964 45.9849 38.9105 45.6117 39.4637C45.2385 40.0168 45.3185 40.6724 45.5791 41.2082C45.8397 41.744 46.294 42.2197 46.8834 42.5941C47.473 42.9684 48.0992 43.18 48.7095 43.1973C49.3199 43.2145 49.9831 43.0168 50.3563 42.4637C50.7295 41.9105 50.6495 41.2385 50.3889 40.7028C50.1283 40.167 49.6903 39.6912 49.1008 39.3169C48.5113 38.9425 47.8688 38.731 47.2584 38.7137ZM65.0954 39.4147C64.4287 39.3865 63.8624 39.7938 63.5139 40.2951C63.1653 40.7965 62.9596 41.4409 62.9106 42.1376C62.8617 42.8341 62.9768 43.4684 63.253 43.9963C63.5293 44.5241 64.0211 44.9951 64.6878 45.0234C65.3545 45.0516 65.9208 44.628 66.2693 44.1267C66.6179 43.6253 66.8236 42.9972 66.8726 42.3006C66.9215 41.604 66.8064 40.9534 66.5302 40.4256C66.2539 39.8977 65.7621 39.443 65.0954 39.4147ZM47.1932 40.0506C47.4975 40.0595 47.9282 40.2001 48.3345 40.4582C48.7409 40.7162 49.0198 41.0389 49.1498 41.306C49.2797 41.5731 49.2417 41.7067 49.215 41.7463C49.1883 41.7859 49.0954 41.869 48.7911 41.8604C48.4867 41.8515 48.0561 41.7271 47.6498 41.4691C47.2434 41.211 46.9482 40.872 46.8182 40.605C46.6883 40.3378 46.7263 40.2206 46.753 40.181C46.7797 40.1414 46.8889 40.0419 47.1932 40.0506ZM64.9976 40.7517C65.0453 40.7517 65.1696 40.7981 65.3074 41.0615C65.4451 41.3246 65.5368 41.7715 65.503 42.2517C65.4693 42.7319 65.3181 43.143 65.1443 43.393C64.9705 43.6429 64.8333 43.6722 64.7856 43.6702C64.7379 43.6702 64.6299 43.6237 64.4921 43.3604C64.3544 43.0972 64.2628 42.6667 64.2965 42.1864C64.3303 41.7063 64.4814 41.2788 64.6552 41.0289C64.829 40.7789 64.9499 40.7496 64.9976 40.7517ZM52.1334 41.8115C51.5231 41.7943 50.8436 41.9919 50.4704 42.5451C50.0972 43.0983 50.1935 43.7702 50.4541 44.306C50.7147 44.8418 51.1526 45.3176 51.7421 45.6919C52.3316 46.0663 52.9742 46.2778 53.5845 46.2951C54.1949 46.3124 54.8418 46.1146 55.215 45.5615C55.5882 45.0083 55.5245 44.3363 55.2639 43.8006C55.0033 43.2648 54.549 42.7891 53.9595 42.4147C53.37 42.0404 52.7438 41.8288 52.1334 41.8115ZM34.2965 42.1538C34.0636 42.1653 33.8301 42.2274 33.6117 42.3495C33.0293 42.6752 32.8053 43.3027 32.7965 43.8984C32.7877 44.4941 32.977 45.1247 33.3345 45.7245C33.6921 46.3243 34.1507 46.7872 34.6878 47.0778C35.2249 47.3683 35.9151 47.5012 36.4976 47.1756C37.08 46.8499 37.304 46.2224 37.3128 45.6267C37.3216 45.031 37.1323 44.3841 36.7748 43.7843C36.4172 43.1845 35.9586 42.7215 35.4215 42.431C35.0858 42.2494 34.6847 42.1345 34.2965 42.1538ZM52.0519 43.1484C52.3562 43.1573 52.7869 43.2817 53.1932 43.5397C53.5996 43.7977 53.8948 44.1367 54.0248 44.4038C54.1547 44.671 54.1167 44.7882 54.09 44.8278C54.0633 44.8674 53.9541 44.9668 53.6498 44.9582C53.3454 44.9493 52.9148 44.8086 52.5084 44.5506C52.1021 44.2926 51.8069 43.9699 51.6769 43.7028C51.547 43.4357 51.585 43.3021 51.6117 43.2625C51.6384 43.2229 51.7476 43.1398 52.0519 43.1484ZM34.3454 43.4745C34.3703 43.4693 34.4067 43.4693 34.4432 43.4745C34.5164 43.4844 34.6191 43.5163 34.753 43.5886C35.0208 43.7335 35.338 44.0393 35.5845 44.4528C35.831 44.8662 35.9476 45.2971 35.9432 45.5941C35.9391 45.8911 35.8381 45.9784 35.7965 46.0017C35.7549 46.0251 35.624 46.065 35.3563 45.9202C35.0885 45.7753 34.7712 45.4695 34.5248 45.056C34.2783 44.6425 34.1617 44.2117 34.1661 43.9147C34.1702 43.6177 34.2548 43.5141 34.2965 43.4908C34.3069 43.4851 34.3205 43.4782 34.3454 43.4745ZM56.9921 44.893C56.3818 44.8758 55.7186 45.0735 55.3454 45.6267C54.9722 46.1798 55.0522 46.8518 55.3128 47.3875C55.5734 47.9233 56.0277 48.3991 56.6171 48.7734C57.2066 49.1478 57.8329 49.3593 58.4432 49.3767C59.0536 49.3939 59.7168 49.1962 60.09 48.643C60.4632 48.0898 60.3832 47.4179 60.1226 46.8821C59.862 46.3463 59.4077 45.8706 58.8182 45.4963C58.2287 45.1219 57.6025 44.9103 56.9921 44.893ZM56.7313 46.2463C56.7851 46.2395 56.8509 46.2463 56.9269 46.2463C57.2312 46.2551 57.6456 46.3795 58.0519 46.6376C58.4583 46.8956 58.7535 47.2182 58.8835 47.4854C59.0134 47.7524 58.9754 47.886 58.9487 47.9256C58.922 47.9652 58.8128 48.0483 58.5085 48.0397C58.2041 48.0308 57.7735 47.9064 57.3671 47.6484C56.9608 47.3904 56.6819 47.0514 56.5519 46.7843C56.422 46.5171 56.4437 46.3836 56.4704 46.3441C56.4904 46.3144 56.5697 46.2671 56.7313 46.2463Z"/>
</mask>
<path d="M38.9921 20.5017C38.6037 20.5064 38.2231 20.6051 37.8834 20.7952L26.1117 27.3985C25.9152 27.5085 25.7426 27.6495 25.59 27.8061C25.5632 27.8337 25.5337 27.8586 25.5084 27.8876C25.1566 28.2848 24.9542 28.7911 24.9541 29.3387V42.5289C24.9542 43.3389 25.4043 44.0729 26.1117 44.4691L37.8834 51.0561C38.5909 51.4523 39.4586 51.4522 40.1661 51.0561L46.5737 47.4691L47.6987 49.6865C48.0638 50.4096 48.7962 50.8744 49.6063 50.9093L63.09 51.4963C63.9001 51.5313 64.6586 51.1416 65.1117 50.4691L72.6606 39.2843C73.1137 38.6119 73.1723 37.7412 72.8074 37.0181L66.8726 25.2463C66.7503 25.004 66.5774 24.8046 66.3835 24.6267C66.3632 24.6035 66.3414 24.5817 66.3182 24.5615C66.3123 24.5563 66.3079 24.5501 66.3019 24.5452C66.2922 24.5372 66.2792 24.5368 66.2693 24.529C65.9018 24.2358 65.4508 24.0445 64.965 24.0235L51.4813 23.4529C51.1135 23.4372 50.7556 23.5115 50.4215 23.6648C50.4106 23.6701 50.3997 23.6759 50.3889 23.6811C50.3606 23.6955 50.3334 23.7118 50.3074 23.73C49.9646 23.9089 49.6588 24.1601 49.4432 24.48L48.6932 25.5887L40.1661 20.7952C40.1054 20.7612 40.0353 20.7366 39.9704 20.7137C39.7179 20.6024 39.4472 20.5359 39.1715 20.518C39.15 20.5115 39.1282 20.5061 39.1063 20.5018C39.0957 20.5014 39.0843 20.502 39.0737 20.5018C39.052 20.5007 39.0302 20.5007 39.0084 20.5018C39.003 20.5017 38.9976 20.5017 38.9921 20.5017ZM39.0084 21.855C39.0193 21.8552 39.0302 21.8552 39.0411 21.855C39.1979 21.8586 39.3638 21.9106 39.4976 21.9854L47.9432 26.7137L46.9161 28.23C46.7876 27.7491 46.4136 27.3679 45.9867 27.1213C45.4584 26.8161 44.7943 26.6485 44.0791 26.6485C43.3639 26.6485 42.7162 26.8161 42.1878 27.1213C41.6595 27.4265 41.2095 27.9373 41.2095 28.5887C41.2095 29.24 41.6595 29.7509 42.1878 30.0561C42.7162 30.3613 43.3639 30.5126 44.0791 30.5126C44.6097 30.5126 45.1067 30.4194 45.5465 30.2517L43.9813 32.5833L39.5628 35.0615C39.2539 35.2345 38.7956 35.2345 38.4867 35.0615L26.8291 28.5398L38.5519 21.9854C38.6887 21.9088 38.8471 21.857 39.0084 21.855ZM38.9106 23.4854C38.1955 23.4854 37.5314 23.653 37.003 23.9582C36.4747 24.2635 36.0248 24.7743 36.0248 25.4256C36.0248 26.077 36.4747 26.5878 37.003 26.893C37.5314 27.1982 38.1955 27.3496 38.9106 27.3496C39.6258 27.3496 40.2736 27.1982 40.8019 26.893C41.3302 26.5878 41.7802 26.077 41.7802 25.4256C41.7802 24.7743 41.3302 24.2635 40.8019 23.9582C40.2736 23.653 39.6258 23.4854 38.9106 23.4854ZM51.4161 24.8061H51.4324L64.8345 25.393L57.3834 36.4637C57.1856 36.7573 56.7589 36.968 56.4052 36.9528L43.0682 36.3659L50.5682 25.23C50.6157 25.1595 50.6794 25.1061 50.7476 25.0506C50.7687 25.0333 50.7903 25.0174 50.8128 25.0018C50.8508 24.9754 50.8863 24.9416 50.9269 24.9202C50.9379 24.9151 50.9488 24.9097 50.9595 24.904C51.0965 24.8387 51.2673 24.8023 51.4161 24.8061ZM38.9106 24.8223C39.4036 24.8223 39.8374 24.9473 40.1008 25.0995C40.3642 25.2517 40.3943 25.379 40.3943 25.4256C40.3943 25.4722 40.3643 25.5832 40.1008 25.7354C39.8374 25.8875 39.4036 26.0126 38.9106 26.0126C38.4177 26.0126 37.9675 25.8875 37.7041 25.7354C37.4407 25.5832 37.3943 25.4722 37.3943 25.4256C37.3943 25.379 37.4407 25.2517 37.7041 25.0995C37.9675 24.9473 38.4177 24.8223 38.9106 24.8223ZM65.8617 26.2897L71.6008 37.6376C71.7279 37.8894 71.7069 38.2637 71.5356 38.518L64.1171 49.5071L58.1334 37.6539C58.2707 37.5261 58.4014 37.3725 58.5085 37.2137L65.8617 26.2897ZM33.6606 26.3386C32.9455 26.3386 32.2814 26.5062 31.753 26.8114C31.2247 27.1167 30.7911 27.6275 30.7911 28.2788C30.7911 28.9302 31.2247 29.441 31.753 29.7462C32.2814 30.0514 32.9455 30.2191 33.6606 30.2191C34.3758 30.2191 35.0236 30.0514 35.5519 29.7462C36.0802 29.441 36.5302 28.9302 36.5302 28.2788C36.5302 27.6275 36.0802 27.1167 35.5519 26.8114C35.0236 26.5062 34.3758 26.3386 33.6606 26.3386ZM33.6606 27.6919C34.1536 27.6919 34.5874 27.8006 34.8508 27.9528C35.1142 28.1049 35.1606 28.2322 35.1606 28.2788C35.1606 28.3254 35.1142 28.4528 34.8508 28.6049C34.5874 28.7571 34.1536 28.8658 33.6606 28.8658C33.1677 28.8658 32.7175 28.7571 32.4541 28.6049C32.1907 28.4528 32.1606 28.3254 32.1606 28.2788C32.1606 28.2322 32.1907 28.1049 32.4541 27.9528C32.7175 27.8006 33.1677 27.6919 33.6606 27.6919ZM44.0791 27.9854C44.5721 27.9854 45.0059 28.1104 45.2693 28.2625C45.5327 28.4147 45.5791 28.542 45.5791 28.5886C45.5791 28.6352 45.5327 28.7463 45.2693 28.8984C45.0059 29.0506 44.5721 29.1756 44.0791 29.1756C43.5862 29.1756 43.1523 29.0506 42.8889 28.8984C42.6255 28.7463 42.5791 28.6352 42.5791 28.5886C42.5791 28.542 42.6255 28.4147 42.8889 28.2625C43.1523 28.1104 43.5862 27.9854 44.0791 27.9854ZM54.8726 28.4745C54.2634 28.4401 53.6034 28.5924 52.965 28.9147C52.3265 29.237 51.8154 29.6759 51.4813 30.1864C51.1472 30.697 50.9758 31.3658 51.2693 31.9473C51.5628 32.5288 52.1928 32.777 52.8019 32.8114C53.4111 32.8458 54.0711 32.6935 54.7095 32.3712C55.348 32.049 55.8591 31.61 56.1932 31.0995C56.5274 30.589 56.6987 29.9364 56.4052 29.3549C56.1117 28.7735 55.4817 28.5089 54.8726 28.4745ZM38.8454 29.518C38.1302 29.518 37.4662 29.6856 36.9378 29.9908C36.4095 30.296 35.9595 30.8068 35.9595 31.4582C35.9595 32.1095 36.4095 32.6204 36.9378 32.9256C37.4662 33.2308 38.1302 33.3821 38.8454 33.3821C39.5606 33.3821 40.2084 33.2308 40.7367 32.9256C41.265 32.6204 41.715 32.1095 41.715 31.4582C41.715 30.8068 41.265 30.296 40.7367 29.9908C40.2084 29.6856 39.5606 29.518 38.8454 29.518ZM26.3237 29.8114L37.8182 36.2517C37.9852 36.3451 38.1602 36.4281 38.34 36.4799V49.768L26.7802 43.2789C26.5127 43.129 26.3237 42.8109 26.3237 42.5289V29.8114ZM54.5139 29.8114C54.6053 29.8021 54.6825 29.8073 54.7584 29.8114C55.0622 29.8286 55.1451 29.9329 55.1661 29.9745C55.187 30.0161 55.2022 30.1276 55.0356 30.3821C54.869 30.6366 54.5464 30.9426 54.1063 31.1647C53.6662 31.3868 53.2198 31.4753 52.9161 31.4582C52.6124 31.4411 52.5131 31.3693 52.4921 31.3278C52.4712 31.2862 52.456 31.1584 52.6226 30.9038C52.7892 30.6493 53.1282 30.3271 53.5682 30.1049C53.8983 29.9383 54.2396 29.8395 54.5139 29.8114ZM65.4704 30.6104C64.9131 30.679 64.4384 31.0684 64.1335 31.5071C63.7849 32.0085 63.5791 32.6366 63.5302 33.3332C63.4813 34.0298 63.5963 34.6803 63.8726 35.2082C64.1488 35.736 64.6407 36.1908 65.3074 36.2191C65.9741 36.2472 66.5403 35.8237 66.8889 35.3223C67.2375 34.821 67.4432 34.1928 67.4921 33.4962C67.5411 32.7996 67.426 32.1654 67.1498 31.6375C66.8735 31.1097 66.3817 30.6386 65.715 30.6104C65.6316 30.6067 65.55 30.6006 65.4704 30.6104ZM38.8454 30.8549C39.3384 30.8549 39.7722 30.9799 40.0356 31.1321C40.299 31.2843 40.3291 31.4116 40.3291 31.4582C40.3291 31.5048 40.299 31.6158 40.0356 31.768C39.7722 31.9201 39.3384 32.0451 38.8454 32.0451C38.3525 32.0451 37.9023 31.9201 37.6389 31.768C37.3755 31.6158 37.3454 31.5048 37.3454 31.4582C37.3454 31.4116 37.3755 31.2843 37.6389 31.1321C37.9023 30.9799 38.3525 30.8549 38.8454 30.8549ZM65.6171 31.9636C65.6648 31.9657 65.7892 31.9939 65.9269 32.2571C66.0647 32.5203 66.1563 32.9508 66.1226 33.431C66.0888 33.9112 65.9377 34.3387 65.7639 34.5886C65.5901 34.8386 65.4529 34.8841 65.4052 34.8821C65.3575 34.8821 65.2494 34.8357 65.1117 34.5723C64.974 34.3091 64.8823 33.8623 64.9161 33.3821C64.9498 32.9019 65.101 32.4908 65.2748 32.2408C65.4485 31.9908 65.5695 31.9616 65.6171 31.9636ZM28.3943 32.2571C28.1614 32.2687 27.928 32.3306 27.7095 32.4528C27.1271 32.7784 26.9031 33.4059 26.8943 34.0017C26.8856 34.5974 27.0748 35.228 27.4324 35.8278C27.7899 36.4276 28.2485 36.8905 28.7856 37.181C29.3227 37.4715 30.013 37.6045 30.5954 37.2789C31.1778 36.9532 31.4019 36.3093 31.4106 35.7137C31.4194 35.1179 31.2302 34.4874 30.8726 33.8875C30.515 33.2877 30.0564 32.8248 29.5193 32.5343C29.1836 32.3527 28.7825 32.2378 28.3943 32.2571ZM28.5411 33.5778C28.6128 33.5855 28.717 33.6194 28.8508 33.6919C29.1186 33.8367 29.4359 34.1425 29.6824 34.556C29.9289 34.9695 30.0454 35.4003 30.0411 35.6973C30.0369 35.9943 29.936 36.0816 29.8943 36.105C29.8527 36.1284 29.7219 36.1682 29.4541 36.0234C29.1863 35.8786 28.8691 35.5727 28.6226 35.1593C28.3761 34.7458 28.2595 34.315 28.2639 34.018C28.2681 33.721 28.3527 33.6173 28.3943 33.5941C28.4151 33.5824 28.4693 33.57 28.5411 33.5778ZM42.2856 35.0941L41.9106 35.6647C41.85 35.7548 41.794 35.8461 41.7476 35.9419C41.7306 35.9774 41.73 36.02 41.715 36.056C41.6944 36.1045 41.6668 36.153 41.6498 36.2028C41.6355 36.2456 41.6288 36.2898 41.6171 36.3332C41.5917 36.4248 41.5654 36.5168 41.5519 36.6104C41.5315 36.7578 41.527 36.8997 41.5356 37.0506C41.5359 37.0558 41.5353 37.0616 41.5356 37.0668C41.5368 37.1107 41.5423 37.1544 41.5519 37.1972C41.583 37.4447 41.6473 37.6836 41.7639 37.9146L45.9704 46.2461L39.6932 49.7678V36.4798C39.8783 36.4277 40.0597 36.3476 40.2313 36.2516L42.2856 35.0941ZM31.3454 37.1973C31.1115 37.2072 30.879 37.2708 30.6606 37.393C30.0782 37.7186 29.8542 38.3462 29.8454 38.9419C29.8366 39.5376 30.0259 40.1682 30.3834 40.768C30.741 41.3678 31.1996 41.847 31.7367 42.1376C32.2738 42.4281 32.964 42.5447 33.5465 42.2191C34.1289 41.8934 34.353 41.2658 34.3617 40.6702C34.3705 40.0745 34.1812 39.4439 33.8237 38.8441C33.4661 38.2442 33.0075 37.765 32.4704 37.4745C32.1347 37.2929 31.7352 37.1807 31.3454 37.1973ZM43.1824 37.7354L56.3563 38.306C56.5478 38.3144 56.7429 38.306 56.9269 38.2737L62.9106 50.127L49.6715 49.5563C49.3652 49.5432 49.0323 49.3353 48.9052 49.0835L43.1824 37.7354ZM31.4921 38.5343C31.5639 38.5421 31.668 38.576 31.8019 38.6484C32.0697 38.7933 32.387 39.0828 32.6334 39.4963C32.8799 39.9097 32.9965 40.3568 32.9921 40.6538C32.988 40.9509 32.8871 41.0382 32.8454 41.0615C32.8038 41.085 32.673 41.1084 32.4052 40.9637C32.1374 40.8188 31.8202 40.513 31.5737 40.0995C31.3272 39.686 31.2106 39.2715 31.215 38.9745C31.2191 38.6775 31.3201 38.5739 31.3617 38.5506C31.3825 38.5391 31.4204 38.5264 31.4921 38.5343ZM47.2584 38.7137C46.6481 38.6964 45.9849 38.9105 45.6117 39.4637C45.2385 40.0168 45.3185 40.6724 45.5791 41.2082C45.8397 41.744 46.294 42.2197 46.8834 42.5941C47.473 42.9684 48.0992 43.18 48.7095 43.1973C49.3199 43.2145 49.9831 43.0168 50.3563 42.4637C50.7295 41.9105 50.6495 41.2385 50.3889 40.7028C50.1283 40.167 49.6903 39.6912 49.1008 39.3169C48.5113 38.9425 47.8688 38.731 47.2584 38.7137ZM65.0954 39.4147C64.4287 39.3865 63.8624 39.7938 63.5139 40.2951C63.1653 40.7965 62.9596 41.4409 62.9106 42.1376C62.8617 42.8341 62.9768 43.4684 63.253 43.9963C63.5293 44.5241 64.0211 44.9951 64.6878 45.0234C65.3545 45.0516 65.9208 44.628 66.2693 44.1267C66.6179 43.6253 66.8236 42.9972 66.8726 42.3006C66.9215 41.604 66.8064 40.9534 66.5302 40.4256C66.2539 39.8977 65.7621 39.443 65.0954 39.4147ZM47.1932 40.0506C47.4975 40.0595 47.9282 40.2001 48.3345 40.4582C48.7409 40.7162 49.0198 41.0389 49.1498 41.306C49.2797 41.5731 49.2417 41.7067 49.215 41.7463C49.1883 41.7859 49.0954 41.869 48.7911 41.8604C48.4867 41.8515 48.0561 41.7271 47.6498 41.4691C47.2434 41.211 46.9482 40.872 46.8182 40.605C46.6883 40.3378 46.7263 40.2206 46.753 40.181C46.7797 40.1414 46.8889 40.0419 47.1932 40.0506ZM64.9976 40.7517C65.0453 40.7517 65.1696 40.7981 65.3074 41.0615C65.4451 41.3246 65.5368 41.7715 65.503 42.2517C65.4693 42.7319 65.3181 43.143 65.1443 43.393C64.9705 43.6429 64.8333 43.6722 64.7856 43.6702C64.7379 43.6702 64.6299 43.6237 64.4921 43.3604C64.3544 43.0972 64.2628 42.6667 64.2965 42.1864C64.3303 41.7063 64.4814 41.2788 64.6552 41.0289C64.829 40.7789 64.9499 40.7496 64.9976 40.7517ZM52.1334 41.8115C51.5231 41.7943 50.8436 41.9919 50.4704 42.5451C50.0972 43.0983 50.1935 43.7702 50.4541 44.306C50.7147 44.8418 51.1526 45.3176 51.7421 45.6919C52.3316 46.0663 52.9742 46.2778 53.5845 46.2951C54.1949 46.3124 54.8418 46.1146 55.215 45.5615C55.5882 45.0083 55.5245 44.3363 55.2639 43.8006C55.0033 43.2648 54.549 42.7891 53.9595 42.4147C53.37 42.0404 52.7438 41.8288 52.1334 41.8115ZM34.2965 42.1538C34.0636 42.1653 33.8301 42.2274 33.6117 42.3495C33.0293 42.6752 32.8053 43.3027 32.7965 43.8984C32.7877 44.4941 32.977 45.1247 33.3345 45.7245C33.6921 46.3243 34.1507 46.7872 34.6878 47.0778C35.2249 47.3683 35.9151 47.5012 36.4976 47.1756C37.08 46.8499 37.304 46.2224 37.3128 45.6267C37.3216 45.031 37.1323 44.3841 36.7748 43.7843C36.4172 43.1845 35.9586 42.7215 35.4215 42.431C35.0858 42.2494 34.6847 42.1345 34.2965 42.1538ZM52.0519 43.1484C52.3562 43.1573 52.7869 43.2817 53.1932 43.5397C53.5996 43.7977 53.8948 44.1367 54.0248 44.4038C54.1547 44.671 54.1167 44.7882 54.09 44.8278C54.0633 44.8674 53.9541 44.9668 53.6498 44.9582C53.3454 44.9493 52.9148 44.8086 52.5084 44.5506C52.1021 44.2926 51.8069 43.9699 51.6769 43.7028C51.547 43.4357 51.585 43.3021 51.6117 43.2625C51.6384 43.2229 51.7476 43.1398 52.0519 43.1484ZM34.3454 43.4745C34.3703 43.4693 34.4067 43.4693 34.4432 43.4745C34.5164 43.4844 34.6191 43.5163 34.753 43.5886C35.0208 43.7335 35.338 44.0393 35.5845 44.4528C35.831 44.8662 35.9476 45.2971 35.9432 45.5941C35.9391 45.8911 35.8381 45.9784 35.7965 46.0017C35.7549 46.0251 35.624 46.065 35.3563 45.9202C35.0885 45.7753 34.7712 45.4695 34.5248 45.056C34.2783 44.6425 34.1617 44.2117 34.1661 43.9147C34.1702 43.6177 34.2548 43.5141 34.2965 43.4908C34.3069 43.4851 34.3205 43.4782 34.3454 43.4745ZM56.9921 44.893C56.3818 44.8758 55.7186 45.0735 55.3454 45.6267C54.9722 46.1798 55.0522 46.8518 55.3128 47.3875C55.5734 47.9233 56.0277 48.3991 56.6171 48.7734C57.2066 49.1478 57.8329 49.3593 58.4432 49.3767C59.0536 49.3939 59.7168 49.1962 60.09 48.643C60.4632 48.0898 60.3832 47.4179 60.1226 46.8821C59.862 46.3463 59.4077 45.8706 58.8182 45.4963C58.2287 45.1219 57.6025 44.9103 56.9921 44.893ZM56.7313 46.2463C56.7851 46.2395 56.8509 46.2463 56.9269 46.2463C57.2312 46.2551 57.6456 46.3795 58.0519 46.6376C58.4583 46.8956 58.7535 47.2182 58.8835 47.4854C59.0134 47.7524 58.9754 47.886 58.9487 47.9256C58.922 47.9652 58.8128 48.0483 58.5085 48.0397C58.2041 48.0308 57.7735 47.9064 57.3671 47.6484C56.9608 47.3904 56.6819 47.0514 56.5519 46.7843C56.422 46.5171 56.4437 46.3836 56.4704 46.3441C56.4904 46.3144 56.5697 46.2671 56.7313 46.2463Z" fill="#E4FFA3" stroke="#AAFF5C" stroke-width="0.8" mask="url(#path-1-inside-1)"/>
<mask id="path-2-inside-2" fill="white">
<path d="M39.038 20.5017C38.6496 20.5064 38.269 20.6051 37.9293 20.7952L26.1576 27.3985C25.9611 27.5085 25.7885 27.6495 25.6359 27.8061C25.6091 27.8337 25.5796 27.8586 25.5543 27.8876C25.2025 28.2848 25.0001 28.7911 25 29.3387V42.5289C25.0001 43.3389 25.4502 44.0729 26.1576 44.4691L37.9293 51.0561C38.6368 51.4523 39.5045 51.4522 40.212 51.0561L46.6196 47.4691L47.7446 49.6865C48.1097 50.4096 48.8421 50.8744 49.6522 50.9093L63.1359 51.4963C63.946 51.5313 64.7045 51.1416 65.1576 50.4691L72.7065 39.2843C73.1596 38.6119 73.2182 37.7412 72.8533 37.0181L66.9185 25.2463C66.7962 25.004 66.6233 24.8046 66.4294 24.6267C66.4091 24.6035 66.3873 24.5817 66.3641 24.5615C66.3582 24.5563 66.3538 24.5501 66.3478 24.5452C66.3381 24.5372 66.3251 24.5368 66.3152 24.529C65.9477 24.2358 65.4967 24.0445 65.0109 24.0235L51.5272 23.4529C51.1594 23.4372 50.8015 23.5115 50.4674 23.6648C50.4565 23.6701 50.4456 23.6759 50.4348 23.6811C50.4065 23.6955 50.3793 23.7118 50.3533 23.73C50.0105 23.9089 49.7047 24.1601 49.4891 24.48L48.7391 25.5887L40.212 20.7952C40.1513 20.7612 40.0812 20.7366 40.0163 20.7137C39.7638 20.6024 39.4931 20.5359 39.2174 20.518C39.1959 20.5115 39.1741 20.5061 39.1522 20.5018C39.1416 20.5014 39.1302 20.502 39.1196 20.5018C39.0979 20.5007 39.0761 20.5007 39.0543 20.5018C39.0489 20.5017 39.0435 20.5017 39.038 20.5017ZM39.0543 21.855C39.0652 21.8552 39.0761 21.8552 39.087 21.855C39.2438 21.8586 39.4097 21.9106 39.5435 21.9854L47.9891 26.7137L46.962 28.23C46.8335 27.7491 46.4595 27.3679 46.0326 27.1213C45.5043 26.8161 44.8402 26.6485 44.125 26.6485C43.4098 26.6485 42.7621 26.8161 42.2337 27.1213C41.7054 27.4265 41.2554 27.9373 41.2554 28.5887C41.2554 29.24 41.7054 29.7509 42.2337 30.0561C42.7621 30.3613 43.4098 30.5126 44.125 30.5126C44.6556 30.5126 45.1526 30.4194 45.5924 30.2517L44.0272 32.5833L39.6087 35.0615C39.2998 35.2345 38.8415 35.2345 38.5326 35.0615L26.875 28.5398L38.5978 21.9854C38.7346 21.9088 38.893 21.857 39.0543 21.855ZM38.9565 23.4854C38.2414 23.4854 37.5773 23.653 37.0489 23.9582C36.5206 24.2635 36.0707 24.7743 36.0707 25.4256C36.0707 26.077 36.5206 26.5878 37.0489 26.893C37.5773 27.1982 38.2414 27.3496 38.9565 27.3496C39.6717 27.3496 40.3195 27.1982 40.8478 26.893C41.3761 26.5878 41.8261 26.077 41.8261 25.4256C41.8261 24.7743 41.3761 24.2635 40.8478 23.9582C40.3195 23.653 39.6717 23.4854 38.9565 23.4854ZM51.462 24.8061H51.4783L64.8804 25.393L57.4293 36.4637C57.2315 36.7573 56.8048 36.968 56.4511 36.9528L43.1141 36.3659L50.6141 25.23C50.6616 25.1595 50.7253 25.1061 50.7935 25.0506C50.8146 25.0333 50.8362 25.0174 50.8587 25.0018C50.8967 24.9754 50.9322 24.9416 50.9728 24.9202C50.9838 24.9151 50.9947 24.9097 51.0054 24.904C51.1424 24.8387 51.3132 24.8023 51.462 24.8061ZM38.9565 24.8223C39.4495 24.8223 39.8833 24.9473 40.1467 25.0995C40.4101 25.2517 40.4402 25.379 40.4402 25.4256C40.4402 25.4722 40.4102 25.5832 40.1467 25.7354C39.8833 25.8875 39.4495 26.0126 38.9565 26.0126C38.4636 26.0126 38.0134 25.8875 37.75 25.7354C37.4866 25.5832 37.4402 25.4722 37.4402 25.4256C37.4402 25.379 37.4866 25.2517 37.75 25.0995C38.0134 24.9473 38.4636 24.8223 38.9565 24.8223ZM65.9076 26.2897L71.6467 37.6376C71.7738 37.8894 71.7528 38.2637 71.5815 38.518L64.163 49.5071L58.1793 37.6539C58.3166 37.5261 58.4473 37.3725 58.5544 37.2137L65.9076 26.2897ZM33.7065 26.3386C32.9914 26.3386 32.3273 26.5062 31.7989 26.8114C31.2706 27.1167 30.837 27.6275 30.837 28.2788C30.837 28.9302 31.2706 29.441 31.7989 29.7462C32.3273 30.0514 32.9914 30.2191 33.7065 30.2191C34.4217 30.2191 35.0695 30.0514 35.5978 29.7462C36.1261 29.441 36.5761 28.9302 36.5761 28.2788C36.5761 27.6275 36.1261 27.1167 35.5978 26.8114C35.0695 26.5062 34.4217 26.3386 33.7065 26.3386ZM33.7065 27.6919C34.1995 27.6919 34.6333 27.8006 34.8967 27.9528C35.1601 28.1049 35.2065 28.2322 35.2065 28.2788C35.2065 28.3254 35.1601 28.4528 34.8967 28.6049C34.6333 28.7571 34.1995 28.8658 33.7065 28.8658C33.2136 28.8658 32.7634 28.7571 32.5 28.6049C32.2366 28.4528 32.2065 28.3254 32.2065 28.2788C32.2065 28.2322 32.2366 28.1049 32.5 27.9528C32.7634 27.8006 33.2136 27.6919 33.7065 27.6919ZM44.125 27.9854C44.618 27.9854 45.0518 28.1104 45.3152 28.2625C45.5786 28.4147 45.625 28.542 45.625 28.5886C45.625 28.6352 45.5786 28.7463 45.3152 28.8984C45.0518 29.0506 44.618 29.1756 44.125 29.1756C43.632 29.1756 43.1982 29.0506 42.9348 28.8984C42.6714 28.7463 42.625 28.6352 42.625 28.5886C42.625 28.542 42.6714 28.4147 42.9348 28.2625C43.1982 28.1104 43.632 27.9854 44.125 27.9854ZM54.9185 28.4745C54.3093 28.4401 53.6493 28.5924 53.0109 28.9147C52.3724 29.237 51.8613 29.6759 51.5272 30.1864C51.1931 30.697 51.0217 31.3658 51.3152 31.9473C51.6087 32.5288 52.2387 32.777 52.8478 32.8114C53.457 32.8458 54.117 32.6935 54.7554 32.3712C55.3939 32.049 55.905 31.61 56.2391 31.0995C56.5733 30.589 56.7446 29.9364 56.4511 29.3549C56.1576 28.7735 55.5276 28.5089 54.9185 28.4745ZM38.8913 29.518C38.1761 29.518 37.5121 29.6856 36.9837 29.9908C36.4554 30.296 36.0054 30.8068 36.0054 31.4582C36.0054 32.1095 36.4554 32.6204 36.9837 32.9256C37.5121 33.2308 38.1761 33.3821 38.8913 33.3821C39.6065 33.3821 40.2543 33.2308 40.7826 32.9256C41.3109 32.6204 41.7609 32.1095 41.7609 31.4582C41.7609 30.8068 41.3109 30.296 40.7826 29.9908C40.2543 29.6856 39.6065 29.518 38.8913 29.518ZM26.3696 29.8114L37.8641 36.2517C38.0311 36.3451 38.2061 36.4281 38.3859 36.4799V49.768L26.8261 43.2789C26.5586 43.129 26.3696 42.8109 26.3696 42.5289V29.8114ZM54.5598 29.8114C54.6512 29.8021 54.7284 29.8073 54.8043 29.8114C55.1081 29.8286 55.191 29.9329 55.212 29.9745C55.2329 30.0161 55.2481 30.1276 55.0815 30.3821C54.9149 30.6366 54.5923 30.9426 54.1522 31.1647C53.7121 31.3868 53.2657 31.4753 52.962 31.4582C52.6583 31.4411 52.559 31.3693 52.538 31.3278C52.5171 31.2862 52.5019 31.1584 52.6685 30.9038C52.835 30.6493 53.1741 30.3271 53.6141 30.1049C53.9442 29.9383 54.2855 29.8395 54.5598 29.8114ZM65.5163 30.6104C64.959 30.679 64.4843 31.0684 64.1794 31.5071C63.8308 32.0085 63.625 32.6366 63.5761 33.3332C63.5272 34.0298 63.6422 34.6803 63.9185 35.2082C64.1947 35.736 64.6866 36.1908 65.3533 36.2191C66.02 36.2472 66.5862 35.8237 66.9348 35.3223C67.2834 34.821 67.4891 34.1928 67.538 33.4962C67.587 32.7996 67.4719 32.1654 67.1957 31.6375C66.9194 31.1097 66.4276 30.6386 65.7609 30.6104C65.6775 30.6067 65.5959 30.6006 65.5163 30.6104ZM38.8913 30.8549C39.3843 30.8549 39.8181 30.9799 40.0815 31.1321C40.3449 31.2843 40.375 31.4116 40.375 31.4582C40.375 31.5048 40.3449 31.6158 40.0815 31.768C39.8181 31.9201 39.3843 32.0451 38.8913 32.0451C38.3984 32.0451 37.9482 31.9201 37.6848 31.768C37.4214 31.6158 37.3913 31.5048 37.3913 31.4582C37.3913 31.4116 37.4214 31.2843 37.6848 31.1321C37.9482 30.9799 38.3984 30.8549 38.8913 30.8549ZM65.663 31.9636C65.7107 31.9657 65.8351 31.9939 65.9728 32.2571C66.1106 32.5203 66.2022 32.9508 66.1685 33.431C66.1347 33.9112 65.9836 34.3387 65.8098 34.5886C65.636 34.8386 65.4988 34.8841 65.4511 34.8821C65.4034 34.8821 65.2953 34.8357 65.1576 34.5723C65.0199 34.3091 64.9282 33.8623 64.962 33.3821C64.9957 32.9019 65.1469 32.4908 65.3207 32.2408C65.4944 31.9908 65.6154 31.9616 65.663 31.9636ZM28.4402 32.2571C28.2073 32.2687 27.9739 32.3306 27.7554 32.4528C27.173 32.7784 26.949 33.4059 26.9402 34.0017C26.9315 34.5974 27.1207 35.228 27.4783 35.8278C27.8358 36.4276 28.2944 36.8905 28.8315 37.181C29.3686 37.4715 30.0589 37.6045 30.6413 37.2789C31.2237 36.9532 31.4478 36.3093 31.4565 35.7137C31.4653 35.1179 31.2761 34.4874 30.9185 33.8875C30.5609 33.2877 30.1023 32.8248 29.5652 32.5343C29.2295 32.3527 28.8284 32.2378 28.4402 32.2571ZM28.587 33.5778C28.6587 33.5855 28.7629 33.6194 28.8967 33.6919C29.1645 33.8367 29.4818 34.1425 29.7283 34.556C29.9748 34.9695 30.0913 35.4003 30.087 35.6973C30.0828 35.9943 29.9819 36.0816 29.9402 36.105C29.8986 36.1284 29.7678 36.1682 29.5 36.0234C29.2322 35.8786 28.915 35.5727 28.6685 35.1593C28.422 34.7458 28.3054 34.315 28.3098 34.018C28.314 33.721 28.3986 33.6173 28.4402 33.5941C28.461 33.5824 28.5152 33.57 28.587 33.5778ZM42.3315 35.0941L41.9565 35.6647C41.8959 35.7548 41.8399 35.8461 41.7935 35.9419C41.7765 35.9774 41.7759 36.02 41.7609 36.056C41.7403 36.1045 41.7127 36.153 41.6957 36.2028C41.6814 36.2456 41.6747 36.2898 41.663 36.3332C41.6376 36.4248 41.6113 36.5168 41.5978 36.6104C41.5774 36.7578 41.5729 36.8997 41.5815 37.0506C41.5818 37.0558 41.5812 37.0616 41.5815 37.0668C41.5827 37.1107 41.5882 37.1544 41.5978 37.1972C41.6289 37.4447 41.6932 37.6836 41.8098 37.9146L46.0163 46.2461L39.7391 49.7678V36.4798C39.9242 36.4277 40.1056 36.3476 40.2772 36.2516L42.3315 35.0941ZM31.3913 37.1973C31.1574 37.2072 30.9249 37.2708 30.7065 37.393C30.1241 37.7186 29.9001 38.3462 29.8913 38.9419C29.8825 39.5376 30.0718 40.1682 30.4293 40.768C30.7869 41.3678 31.2455 41.847 31.7826 42.1376C32.3197 42.4281 33.0099 42.5447 33.5924 42.2191C34.1748 41.8934 34.3989 41.2658 34.4076 40.6702C34.4164 40.0745 34.2271 39.4439 33.8696 38.8441C33.512 38.2442 33.0534 37.765 32.5163 37.4745C32.1806 37.2929 31.7811 37.1807 31.3913 37.1973ZM43.2283 37.7354L56.4022 38.306C56.5937 38.3144 56.7888 38.306 56.9728 38.2737L62.9565 50.127L49.7174 49.5563C49.4111 49.5432 49.0782 49.3353 48.9511 49.0835L43.2283 37.7354ZM31.538 38.5343C31.6098 38.5421 31.7139 38.576 31.8478 38.6484C32.1156 38.7933 32.4329 39.0828 32.6793 39.4963C32.9258 39.9097 33.0424 40.3568 33.038 40.6538C33.0339 40.9509 32.933 41.0382 32.8913 41.0615C32.8497 41.085 32.7189 41.1084 32.4511 40.9637C32.1833 40.8188 31.8661 40.513 31.6196 40.0995C31.3731 39.686 31.2565 39.2715 31.2609 38.9745C31.265 38.6775 31.366 38.5739 31.4076 38.5506C31.4284 38.5391 31.4663 38.5264 31.538 38.5343ZM47.3043 38.7137C46.694 38.6964 46.0308 38.9105 45.6576 39.4637C45.2844 40.0168 45.3644 40.6724 45.625 41.2082C45.8856 41.744 46.3399 42.2197 46.9293 42.5941C47.5189 42.9684 48.1451 43.18 48.7554 43.1973C49.3658 43.2145 50.029 43.0168 50.4022 42.4637C50.7754 41.9105 50.6954 41.2385 50.4348 40.7028C50.1742 40.167 49.7362 39.6912 49.1467 39.3169C48.5572 38.9425 47.9147 38.731 47.3043 38.7137ZM65.1413 39.4147C64.4746 39.3865 63.9083 39.7938 63.5598 40.2951C63.2112 40.7965 63.0055 41.4409 62.9565 42.1376C62.9076 42.8341 63.0227 43.4684 63.2989 43.9963C63.5752 44.5241 64.067 44.9951 64.7337 45.0234C65.4004 45.0516 65.9667 44.628 66.3152 44.1267C66.6638 43.6253 66.8695 42.9972 66.9185 42.3006C66.9674 41.604 66.8523 40.9534 66.5761 40.4256C66.2998 39.8977 65.808 39.443 65.1413 39.4147ZM47.2391 40.0506C47.5434 40.0595 47.9741 40.2001 48.3804 40.4582C48.7868 40.7162 49.0657 41.0389 49.1957 41.306C49.3256 41.5731 49.2876 41.7067 49.2609 41.7463C49.2342 41.7859 49.1413 41.869 48.837 41.8604C48.5326 41.8515 48.102 41.7271 47.6957 41.4691C47.2893 41.211 46.9941 40.872 46.8641 40.605C46.7342 40.3378 46.7722 40.2206 46.7989 40.181C46.8256 40.1414 46.9348 40.0419 47.2391 40.0506ZM65.0435 40.7517C65.0912 40.7517 65.2155 40.7981 65.3533 41.0615C65.491 41.3246 65.5827 41.7715 65.5489 42.2517C65.5152 42.7319 65.364 43.143 65.1902 43.393C65.0164 43.6429 64.8792 43.6722 64.8315 43.6702C64.7838 43.6702 64.6758 43.6237 64.538 43.3604C64.4003 43.0972 64.3087 42.6667 64.3424 42.1864C64.3762 41.7063 64.5273 41.2788 64.7011 41.0289C64.8749 40.7789 64.9958 40.7496 65.0435 40.7517ZM52.1793 41.8115C51.569 41.7943 50.8895 41.9919 50.5163 42.5451C50.1431 43.0983 50.2394 43.7702 50.5 44.306C50.7606 44.8418 51.1985 45.3176 51.788 45.6919C52.3775 46.0663 53.0201 46.2778 53.6304 46.2951C54.2408 46.3124 54.8877 46.1146 55.2609 45.5615C55.6341 45.0083 55.5704 44.3363 55.3098 43.8006C55.0492 43.2648 54.5949 42.7891 54.0054 42.4147C53.4159 42.0404 52.7897 41.8288 52.1793 41.8115ZM34.3424 42.1538C34.1095 42.1653 33.876 42.2274 33.6576 42.3495C33.0752 42.6752 32.8512 43.3027 32.8424 43.8984C32.8336 44.4941 33.0229 45.1247 33.3804 45.7245C33.738 46.3243 34.1966 46.7872 34.7337 47.0778C35.2708 47.3683 35.961 47.5012 36.5435 47.1756C37.1259 46.8499 37.3499 46.2224 37.3587 45.6267C37.3675 45.031 37.1782 44.3841 36.8207 43.7843C36.4631 43.1845 36.0045 42.7215 35.4674 42.431C35.1317 42.2494 34.7306 42.1345 34.3424 42.1538ZM52.0978 43.1484C52.4021 43.1573 52.8328 43.2817 53.2391 43.5397C53.6455 43.7977 53.9407 44.1367 54.0707 44.4038C54.2006 44.671 54.1626 44.7882 54.1359 44.8278C54.1092 44.8674 54 44.9668 53.6957 44.9582C53.3913 44.9493 52.9607 44.8086 52.5543 44.5506C52.148 44.2926 51.8528 43.9699 51.7228 43.7028C51.5929 43.4357 51.6309 43.3021 51.6576 43.2625C51.6843 43.2229 51.7935 43.1398 52.0978 43.1484ZM34.3913 43.4745C34.4162 43.4693 34.4526 43.4693 34.4891 43.4745C34.5623 43.4844 34.665 43.5163 34.7989 43.5886C35.0667 43.7335 35.3839 44.0393 35.6304 44.4528C35.8769 44.8662 35.9935 45.2971 35.9891 45.5941C35.985 45.8911 35.884 45.9784 35.8424 46.0017C35.8008 46.0251 35.6699 46.065 35.4022 45.9202C35.1344 45.7753 34.8171 45.4695 34.5707 45.056C34.3242 44.6425 34.2076 44.2117 34.212 43.9147C34.2161 43.6177 34.3007 43.5141 34.3424 43.4908C34.3528 43.4851 34.3664 43.4782 34.3913 43.4745ZM57.038 44.893C56.4277 44.8758 55.7645 45.0735 55.3913 45.6267C55.0181 46.1798 55.0981 46.8518 55.3587 47.3875C55.6193 47.9233 56.0735 48.3991 56.663 48.7734C57.2525 49.1478 57.8788 49.3593 58.4891 49.3767C59.0995 49.3939 59.7627 49.1962 60.1359 48.643C60.5091 48.0898 60.4291 47.4179 60.1685 46.8821C59.9079 46.3463 59.4536 45.8706 58.8641 45.4963C58.2746 45.1219 57.6484 44.9103 57.038 44.893ZM56.7772 46.2463C56.831 46.2395 56.8968 46.2463 56.9728 46.2463C57.2771 46.2551 57.6915 46.3795 58.0978 46.6376C58.5042 46.8956 58.7994 47.2182 58.9294 47.4854C59.0593 47.7524 59.0213 47.886 58.9946 47.9256C58.9679 47.9652 58.8587 48.0483 58.5544 48.0397C58.25 48.0308 57.8194 47.9064 57.413 47.6484C57.0067 47.3904 56.7278 47.0514 56.5978 46.7843C56.4679 46.5171 56.4896 46.3836 56.5163 46.3441C56.5363 46.3144 56.6156 46.2671 56.7772 46.2463Z"/>
</mask>
<path d="M39.038 20.5017C38.6496 20.5064 38.269 20.6051 37.9293 20.7952L26.1576 27.3985C25.9611 27.5085 25.7885 27.6495 25.6359 27.8061C25.6091 27.8337 25.5796 27.8586 25.5543 27.8876C25.2025 28.2848 25.0001 28.7911 25 29.3387V42.5289C25.0001 43.3389 25.4502 44.0729 26.1576 44.4691L37.9293 51.0561C38.6368 51.4523 39.5045 51.4522 40.212 51.0561L46.6196 47.4691L47.7446 49.6865C48.1097 50.4096 48.8421 50.8744 49.6522 50.9093L63.1359 51.4963C63.946 51.5313 64.7045 51.1416 65.1576 50.4691L72.7065 39.2843C73.1596 38.6119 73.2182 37.7412 72.8533 37.0181L66.9185 25.2463C66.7962 25.004 66.6233 24.8046 66.4294 24.6267C66.4091 24.6035 66.3873 24.5817 66.3641 24.5615C66.3582 24.5563 66.3538 24.5501 66.3478 24.5452C66.3381 24.5372 66.3251 24.5368 66.3152 24.529C65.9477 24.2358 65.4967 24.0445 65.0109 24.0235L51.5272 23.4529C51.1594 23.4372 50.8015 23.5115 50.4674 23.6648C50.4565 23.6701 50.4456 23.6759 50.4348 23.6811C50.4065 23.6955 50.3793 23.7118 50.3533 23.73C50.0105 23.9089 49.7047 24.1601 49.4891 24.48L48.7391 25.5887L40.212 20.7952C40.1513 20.7612 40.0812 20.7366 40.0163 20.7137C39.7638 20.6024 39.4931 20.5359 39.2174 20.518C39.1959 20.5115 39.1741 20.5061 39.1522 20.5018C39.1416 20.5014 39.1302 20.502 39.1196 20.5018C39.0979 20.5007 39.0761 20.5007 39.0543 20.5018C39.0489 20.5017 39.0435 20.5017 39.038 20.5017ZM39.0543 21.855C39.0652 21.8552 39.0761 21.8552 39.087 21.855C39.2438 21.8586 39.4097 21.9106 39.5435 21.9854L47.9891 26.7137L46.962 28.23C46.8335 27.7491 46.4595 27.3679 46.0326 27.1213C45.5043 26.8161 44.8402 26.6485 44.125 26.6485C43.4098 26.6485 42.7621 26.8161 42.2337 27.1213C41.7054 27.4265 41.2554 27.9373 41.2554 28.5887C41.2554 29.24 41.7054 29.7509 42.2337 30.0561C42.7621 30.3613 43.4098 30.5126 44.125 30.5126C44.6556 30.5126 45.1526 30.4194 45.5924 30.2517L44.0272 32.5833L39.6087 35.0615C39.2998 35.2345 38.8415 35.2345 38.5326 35.0615L26.875 28.5398L38.5978 21.9854C38.7346 21.9088 38.893 21.857 39.0543 21.855ZM38.9565 23.4854C38.2414 23.4854 37.5773 23.653 37.0489 23.9582C36.5206 24.2635 36.0707 24.7743 36.0707 25.4256C36.0707 26.077 36.5206 26.5878 37.0489 26.893C37.5773 27.1982 38.2414 27.3496 38.9565 27.3496C39.6717 27.3496 40.3195 27.1982 40.8478 26.893C41.3761 26.5878 41.8261 26.077 41.8261 25.4256C41.8261 24.7743 41.3761 24.2635 40.8478 23.9582C40.3195 23.653 39.6717 23.4854 38.9565 23.4854ZM51.462 24.8061H51.4783L64.8804 25.393L57.4293 36.4637C57.2315 36.7573 56.8048 36.968 56.4511 36.9528L43.1141 36.3659L50.6141 25.23C50.6616 25.1595 50.7253 25.1061 50.7935 25.0506C50.8146 25.0333 50.8362 25.0174 50.8587 25.0018C50.8967 24.9754 50.9322 24.9416 50.9728 24.9202C50.9838 24.9151 50.9947 24.9097 51.0054 24.904C51.1424 24.8387 51.3132 24.8023 51.462 24.8061ZM38.9565 24.8223C39.4495 24.8223 39.8833 24.9473 40.1467 25.0995C40.4101 25.2517 40.4402 25.379 40.4402 25.4256C40.4402 25.4722 40.4102 25.5832 40.1467 25.7354C39.8833 25.8875 39.4495 26.0126 38.9565 26.0126C38.4636 26.0126 38.0134 25.8875 37.75 25.7354C37.4866 25.5832 37.4402 25.4722 37.4402 25.4256C37.4402 25.379 37.4866 25.2517 37.75 25.0995C38.0134 24.9473 38.4636 24.8223 38.9565 24.8223ZM65.9076 26.2897L71.6467 37.6376C71.7738 37.8894 71.7528 38.2637 71.5815 38.518L64.163 49.5071L58.1793 37.6539C58.3166 37.5261 58.4473 37.3725 58.5544 37.2137L65.9076 26.2897ZM33.7065 26.3386C32.9914 26.3386 32.3273 26.5062 31.7989 26.8114C31.2706 27.1167 30.837 27.6275 30.837 28.2788C30.837 28.9302 31.2706 29.441 31.7989 29.7462C32.3273 30.0514 32.9914 30.2191 33.7065 30.2191C34.4217 30.2191 35.0695 30.0514 35.5978 29.7462C36.1261 29.441 36.5761 28.9302 36.5761 28.2788C36.5761 27.6275 36.1261 27.1167 35.5978 26.8114C35.0695 26.5062 34.4217 26.3386 33.7065 26.3386ZM33.7065 27.6919C34.1995 27.6919 34.6333 27.8006 34.8967 27.9528C35.1601 28.1049 35.2065 28.2322 35.2065 28.2788C35.2065 28.3254 35.1601 28.4528 34.8967 28.6049C34.6333 28.7571 34.1995 28.8658 33.7065 28.8658C33.2136 28.8658 32.7634 28.7571 32.5 28.6049C32.2366 28.4528 32.2065 28.3254 32.2065 28.2788C32.2065 28.2322 32.2366 28.1049 32.5 27.9528C32.7634 27.8006 33.2136 27.6919 33.7065 27.6919ZM44.125 27.9854C44.618 27.9854 45.0518 28.1104 45.3152 28.2625C45.5786 28.4147 45.625 28.542 45.625 28.5886C45.625 28.6352 45.5786 28.7463 45.3152 28.8984C45.0518 29.0506 44.618 29.1756 44.125 29.1756C43.632 29.1756 43.1982 29.0506 42.9348 28.8984C42.6714 28.7463 42.625 28.6352 42.625 28.5886C42.625 28.542 42.6714 28.4147 42.9348 28.2625C43.1982 28.1104 43.632 27.9854 44.125 27.9854ZM54.9185 28.4745C54.3093 28.4401 53.6493 28.5924 53.0109 28.9147C52.3724 29.237 51.8613 29.6759 51.5272 30.1864C51.1931 30.697 51.0217 31.3658 51.3152 31.9473C51.6087 32.5288 52.2387 32.777 52.8478 32.8114C53.457 32.8458 54.117 32.6935 54.7554 32.3712C55.3939 32.049 55.905 31.61 56.2391 31.0995C56.5733 30.589 56.7446 29.9364 56.4511 29.3549C56.1576 28.7735 55.5276 28.5089 54.9185 28.4745ZM38.8913 29.518C38.1761 29.518 37.5121 29.6856 36.9837 29.9908C36.4554 30.296 36.0054 30.8068 36.0054 31.4582C36.0054 32.1095 36.4554 32.6204 36.9837 32.9256C37.5121 33.2308 38.1761 33.3821 38.8913 33.3821C39.6065 33.3821 40.2543 33.2308 40.7826 32.9256C41.3109 32.6204 41.7609 32.1095 41.7609 31.4582C41.7609 30.8068 41.3109 30.296 40.7826 29.9908C40.2543 29.6856 39.6065 29.518 38.8913 29.518ZM26.3696 29.8114L37.8641 36.2517C38.0311 36.3451 38.2061 36.4281 38.3859 36.4799V49.768L26.8261 43.2789C26.5586 43.129 26.3696 42.8109 26.3696 42.5289V29.8114ZM54.5598 29.8114C54.6512 29.8021 54.7284 29.8073 54.8043 29.8114C55.1081 29.8286 55.191 29.9329 55.212 29.9745C55.2329 30.0161 55.2481 30.1276 55.0815 30.3821C54.9149 30.6366 54.5923 30.9426 54.1522 31.1647C53.7121 31.3868 53.2657 31.4753 52.962 31.4582C52.6583 31.4411 52.559 31.3693 52.538 31.3278C52.5171 31.2862 52.5019 31.1584 52.6685 30.9038C52.835 30.6493 53.1741 30.3271 53.6141 30.1049C53.9442 29.9383 54.2855 29.8395 54.5598 29.8114ZM65.5163 30.6104C64.959 30.679 64.4843 31.0684 64.1794 31.5071C63.8308 32.0085 63.625 32.6366 63.5761 33.3332C63.5272 34.0298 63.6422 34.6803 63.9185 35.2082C64.1947 35.736 64.6866 36.1908 65.3533 36.2191C66.02 36.2472 66.5862 35.8237 66.9348 35.3223C67.2834 34.821 67.4891 34.1928 67.538 33.4962C67.587 32.7996 67.4719 32.1654 67.1957 31.6375C66.9194 31.1097 66.4276 30.6386 65.7609 30.6104C65.6775 30.6067 65.5959 30.6006 65.5163 30.6104ZM38.8913 30.8549C39.3843 30.8549 39.8181 30.9799 40.0815 31.1321C40.3449 31.2843 40.375 31.4116 40.375 31.4582C40.375 31.5048 40.3449 31.6158 40.0815 31.768C39.8181 31.9201 39.3843 32.0451 38.8913 32.0451C38.3984 32.0451 37.9482 31.9201 37.6848 31.768C37.4214 31.6158 37.3913 31.5048 37.3913 31.4582C37.3913 31.4116 37.4214 31.2843 37.6848 31.1321C37.9482 30.9799 38.3984 30.8549 38.8913 30.8549ZM65.663 31.9636C65.7107 31.9657 65.8351 31.9939 65.9728 32.2571C66.1106 32.5203 66.2022 32.9508 66.1685 33.431C66.1347 33.9112 65.9836 34.3387 65.8098 34.5886C65.636 34.8386 65.4988 34.8841 65.4511 34.8821C65.4034 34.8821 65.2953 34.8357 65.1576 34.5723C65.0199 34.3091 64.9282 33.8623 64.962 33.3821C64.9957 32.9019 65.1469 32.4908 65.3207 32.2408C65.4944 31.9908 65.6154 31.9616 65.663 31.9636ZM28.4402 32.2571C28.2073 32.2687 27.9739 32.3306 27.7554 32.4528C27.173 32.7784 26.949 33.4059 26.9402 34.0017C26.9315 34.5974 27.1207 35.228 27.4783 35.8278C27.8358 36.4276 28.2944 36.8905 28.8315 37.181C29.3686 37.4715 30.0589 37.6045 30.6413 37.2789C31.2237 36.9532 31.4478 36.3093 31.4565 35.7137C31.4653 35.1179 31.2761 34.4874 30.9185 33.8875C30.5609 33.2877 30.1023 32.8248 29.5652 32.5343C29.2295 32.3527 28.8284 32.2378 28.4402 32.2571ZM28.587 33.5778C28.6587 33.5855 28.7629 33.6194 28.8967 33.6919C29.1645 33.8367 29.4818 34.1425 29.7283 34.556C29.9748 34.9695 30.0913 35.4003 30.087 35.6973C30.0828 35.9943 29.9819 36.0816 29.9402 36.105C29.8986 36.1284 29.7678 36.1682 29.5 36.0234C29.2322 35.8786 28.915 35.5727 28.6685 35.1593C28.422 34.7458 28.3054 34.315 28.3098 34.018C28.314 33.721 28.3986 33.6173 28.4402 33.5941C28.461 33.5824 28.5152 33.57 28.587 33.5778ZM42.3315 35.0941L41.9565 35.6647C41.8959 35.7548 41.8399 35.8461 41.7935 35.9419C41.7765 35.9774 41.7759 36.02 41.7609 36.056C41.7403 36.1045 41.7127 36.153 41.6957 36.2028C41.6814 36.2456 41.6747 36.2898 41.663 36.3332C41.6376 36.4248 41.6113 36.5168 41.5978 36.6104C41.5774 36.7578 41.5729 36.8997 41.5815 37.0506C41.5818 37.0558 41.5812 37.0616 41.5815 37.0668C41.5827 37.1107 41.5882 37.1544 41.5978 37.1972C41.6289 37.4447 41.6932 37.6836 41.8098 37.9146L46.0163 46.2461L39.7391 49.7678V36.4798C39.9242 36.4277 40.1056 36.3476 40.2772 36.2516L42.3315 35.0941ZM31.3913 37.1973C31.1574 37.2072 30.9249 37.2708 30.7065 37.393C30.1241 37.7186 29.9001 38.3462 29.8913 38.9419C29.8825 39.5376 30.0718 40.1682 30.4293 40.768C30.7869 41.3678 31.2455 41.847 31.7826 42.1376C32.3197 42.4281 33.0099 42.5447 33.5924 42.2191C34.1748 41.8934 34.3989 41.2658 34.4076 40.6702C34.4164 40.0745 34.2271 39.4439 33.8696 38.8441C33.512 38.2442 33.0534 37.765 32.5163 37.4745C32.1806 37.2929 31.7811 37.1807 31.3913 37.1973ZM43.2283 37.7354L56.4022 38.306C56.5937 38.3144 56.7888 38.306 56.9728 38.2737L62.9565 50.127L49.7174 49.5563C49.4111 49.5432 49.0782 49.3353 48.9511 49.0835L43.2283 37.7354ZM31.538 38.5343C31.6098 38.5421 31.7139 38.576 31.8478 38.6484C32.1156 38.7933 32.4329 39.0828 32.6793 39.4963C32.9258 39.9097 33.0424 40.3568 33.038 40.6538C33.0339 40.9509 32.933 41.0382 32.8913 41.0615C32.8497 41.085 32.7189 41.1084 32.4511 40.9637C32.1833 40.8188 31.8661 40.513 31.6196 40.0995C31.3731 39.686 31.2565 39.2715 31.2609 38.9745C31.265 38.6775 31.366 38.5739 31.4076 38.5506C31.4284 38.5391 31.4663 38.5264 31.538 38.5343ZM47.3043 38.7137C46.694 38.6964 46.0308 38.9105 45.6576 39.4637C45.2844 40.0168 45.3644 40.6724 45.625 41.2082C45.8856 41.744 46.3399 42.2197 46.9293 42.5941C47.5189 42.9684 48.1451 43.18 48.7554 43.1973C49.3658 43.2145 50.029 43.0168 50.4022 42.4637C50.7754 41.9105 50.6954 41.2385 50.4348 40.7028C50.1742 40.167 49.7362 39.6912 49.1467 39.3169C48.5572 38.9425 47.9147 38.731 47.3043 38.7137ZM65.1413 39.4147C64.4746 39.3865 63.9083 39.7938 63.5598 40.2951C63.2112 40.7965 63.0055 41.4409 62.9565 42.1376C62.9076 42.8341 63.0227 43.4684 63.2989 43.9963C63.5752 44.5241 64.067 44.9951 64.7337 45.0234C65.4004 45.0516 65.9667 44.628 66.3152 44.1267C66.6638 43.6253 66.8695 42.9972 66.9185 42.3006C66.9674 41.604 66.8523 40.9534 66.5761 40.4256C66.2998 39.8977 65.808 39.443 65.1413 39.4147ZM47.2391 40.0506C47.5434 40.0595 47.9741 40.2001 48.3804 40.4582C48.7868 40.7162 49.0657 41.0389 49.1957 41.306C49.3256 41.5731 49.2876 41.7067 49.2609 41.7463C49.2342 41.7859 49.1413 41.869 48.837 41.8604C48.5326 41.8515 48.102 41.7271 47.6957 41.4691C47.2893 41.211 46.9941 40.872 46.8641 40.605C46.7342 40.3378 46.7722 40.2206 46.7989 40.181C46.8256 40.1414 46.9348 40.0419 47.2391 40.0506ZM65.0435 40.7517C65.0912 40.7517 65.2155 40.7981 65.3533 41.0615C65.491 41.3246 65.5827 41.7715 65.5489 42.2517C65.5152 42.7319 65.364 43.143 65.1902 43.393C65.0164 43.6429 64.8792 43.6722 64.8315 43.6702C64.7838 43.6702 64.6758 43.6237 64.538 43.3604C64.4003 43.0972 64.3087 42.6667 64.3424 42.1864C64.3762 41.7063 64.5273 41.2788 64.7011 41.0289C64.8749 40.7789 64.9958 40.7496 65.0435 40.7517ZM52.1793 41.8115C51.569 41.7943 50.8895 41.9919 50.5163 42.5451C50.1431 43.0983 50.2394 43.7702 50.5 44.306C50.7606 44.8418 51.1985 45.3176 51.788 45.6919C52.3775 46.0663 53.0201 46.2778 53.6304 46.2951C54.2408 46.3124 54.8877 46.1146 55.2609 45.5615C55.6341 45.0083 55.5704 44.3363 55.3098 43.8006C55.0492 43.2648 54.5949 42.7891 54.0054 42.4147C53.4159 42.0404 52.7897 41.8288 52.1793 41.8115ZM34.3424 42.1538C34.1095 42.1653 33.876 42.2274 33.6576 42.3495C33.0752 42.6752 32.8512 43.3027 32.8424 43.8984C32.8336 44.4941 33.0229 45.1247 33.3804 45.7245C33.738 46.3243 34.1966 46.7872 34.7337 47.0778C35.2708 47.3683 35.961 47.5012 36.5435 47.1756C37.1259 46.8499 37.3499 46.2224 37.3587 45.6267C37.3675 45.031 37.1782 44.3841 36.8207 43.7843C36.4631 43.1845 36.0045 42.7215 35.4674 42.431C35.1317 42.2494 34.7306 42.1345 34.3424 42.1538ZM52.0978 43.1484C52.4021 43.1573 52.8328 43.2817 53.2391 43.5397C53.6455 43.7977 53.9407 44.1367 54.0707 44.4038C54.2006 44.671 54.1626 44.7882 54.1359 44.8278C54.1092 44.8674 54 44.9668 53.6957 44.9582C53.3913 44.9493 52.9607 44.8086 52.5543 44.5506C52.148 44.2926 51.8528 43.9699 51.7228 43.7028C51.5929 43.4357 51.6309 43.3021 51.6576 43.2625C51.6843 43.2229 51.7935 43.1398 52.0978 43.1484ZM34.3913 43.4745C34.4162 43.4693 34.4526 43.4693 34.4891 43.4745C34.5623 43.4844 34.665 43.5163 34.7989 43.5886C35.0667 43.7335 35.3839 44.0393 35.6304 44.4528C35.8769 44.8662 35.9935 45.2971 35.9891 45.5941C35.985 45.8911 35.884 45.9784 35.8424 46.0017C35.8008 46.0251 35.6699 46.065 35.4022 45.9202C35.1344 45.7753 34.8171 45.4695 34.5707 45.056C34.3242 44.6425 34.2076 44.2117 34.212 43.9147C34.2161 43.6177 34.3007 43.5141 34.3424 43.4908C34.3528 43.4851 34.3664 43.4782 34.3913 43.4745ZM57.038 44.893C56.4277 44.8758 55.7645 45.0735 55.3913 45.6267C55.0181 46.1798 55.0981 46.8518 55.3587 47.3875C55.6193 47.9233 56.0735 48.3991 56.663 48.7734C57.2525 49.1478 57.8788 49.3593 58.4891 49.3767C59.0995 49.3939 59.7627 49.1962 60.1359 48.643C60.5091 48.0898 60.4291 47.4179 60.1685 46.8821C59.9079 46.3463 59.4536 45.8706 58.8641 45.4963C58.2746 45.1219 57.6484 44.9103 57.038 44.893ZM56.7772 46.2463C56.831 46.2395 56.8968 46.2463 56.9728 46.2463C57.2771 46.2551 57.6915 46.3795 58.0978 46.6376C58.5042 46.8956 58.7994 47.2182 58.9294 47.4854C59.0593 47.7524 59.0213 47.886 58.9946 47.9256C58.9679 47.9652 58.8587 48.0483 58.5544 48.0397C58.25 48.0308 57.8194 47.9064 57.413 47.6484C57.0067 47.3904 56.7278 47.0514 56.5978 46.7843C56.4679 46.5171 56.4896 46.3836 56.5163 46.3441C56.5363 46.3144 56.6156 46.2671 56.7772 46.2463Z" stroke="#17E200" stroke-width="0.4" mask="url(#path-2-inside-2)"/>
</g>
<defs>
<filter id="filter0_d" x="0.954102" y="-8" width="96.1373" height="96" filterUnits="userSpaceOnUse" color-interpolation-filters="sRGB">
<feFlood flood-opacity="0" result="BackgroundImageFix"/>
<feColorMatrix in="SourceAlpha" type="matrix" values="0 0 0 0 0 0 0 0 0 0 0 0 0 0 0 0 0 0 127 0"/>
<feOffset dy="4"/>
<feGaussianBlur stdDeviation="12"/>
<feColorMatrix type="matrix" values="0 0 0 0 0.411765 0 0 0 0 0.811765 0 0 0 0 0.0941176 0 0 0 0.5 0"/>
<feBlend mode="normal" in2="BackgroundImageFix" result="effect1_dropShadow"/>
<feBlend mode="normal" in="SourceGraphic" in2="effect1_dropShadow" result="shape"/>
</filter>
</defs>
</svg>
