<svg xmlns="http://www.w3.org/2000/svg" xmlns:xlink="http://www.w3.org/1999/xlink" width="108.482" height="88.27" viewBox="0 0 108.482 88.27">
  <defs>
    <linearGradient id="linear-gradient" x1="0.258" y1="0.139" x2="0.819" y2="0.851" gradientUnits="objectBoundingBox">
      <stop offset="0" stop-color="#ffd621"/>
      <stop offset="1" stop-color="#FFEC4A"/>
    </linearGradient>
  </defs>
  <g id="identity" transform="translate(-5908.238 526.39)" style="isolation: isolate">
    <path id="Path_29242" data-name="Path 29242" d="M311.864,71.5a8.188,8.188,0,0,0-8.222-8.222h-9.82A8.188,8.188,0,0,0,285.6,71.5v6.052h26.264Z" transform="translate(5663.747 -589.67)" fill="url(#linear-gradient)"/>
    <path id="Path_29243" data-name="Path 29243" d="M216.631,249.436a6.395,6.395,0,1,1-6.395-6.395,6.395,6.395,0,0,1,6.395,6.395" transform="translate(5728.834 -732.775)" fill="url(#linear-gradient)"/>
    <path id="Path_29244" data-name="Path 29244" d="M181.405,154.56H95.077A11.161,11.161,0,0,0,84,165.637v47.5a11.161,11.161,0,0,0,11.077,11.077h86.329a11.161,11.161,0,0,0,11.077-11.077v-47.5A11.087,11.087,0,0,0,181.405,154.56Zm-66.574,57.1a28.306,28.306,0,0,1-10.392-1.713c-4.91-2.055-5.71-5.138-5.71-6.737a17.532,17.532,0,0,1,9.249-15.873,10.619,10.619,0,1,1,13.7,0,17.792,17.792,0,0,1,9.249,15.873c0,5.71-8.106,8.45-16.1,8.45Zm59.608-3.425H144.521a2.17,2.17,0,0,1,0-4.34H174.44a2.17,2.17,0,0,1,0,4.34Zm0-16.672H144.521a2.168,2.168,0,0,1-2.17-2.17,2.1,2.1,0,0,1,2.17-2.17H174.44a2.17,2.17,0,1,1,0,4.34Zm0-16.786H144.521a2.168,2.168,0,0,1-2.17-2.17,2.1,2.1,0,0,1,2.17-2.17H174.44a2.17,2.17,0,1,1,0,4.34Z" transform="translate(5824.238 -662.337)" fill="url(#linear-gradient)"/>
    <path id="Path_29245" data-name="Path 29245" d="M188.838,326.48c-6.509,0-11.876,6.052-11.876,13.36,0,2.284,5.367,4.339,11.876,4.339s11.876-1.941,11.876-4.339C200.714,332.532,195.347,326.48,188.838,326.48Z" transform="translate(5750.232 -799.2)" fill="url(#linear-gradient)"/>
  </g>
</svg>
