<svg width="26" height="26" viewBox="0 0 26 26" fill="none" xmlns="http://www.w3.org/2000/svg">
<path d="M12.9998 13.4348C10.3607 13.4348 8.21716 15.5783 8.21716 18.2175C8.21716 20.8566 10.3607 23.0001 12.9998 23.0001C15.639 23.0001 17.7824 20.8566 17.7824 18.2175C17.7824 15.5783 15.639 13.4348 12.9998 13.4348ZM15.0476 16.787L11.5694 20.2653C11.4824 20.3523 11.3737 20.3914 11.2607 20.3914C11.1476 20.3914 11.0389 20.3479 10.952 20.2653L10.0824 19.3957C9.91283 19.2262 9.91283 18.9522 10.0824 18.7827C10.252 18.6131 10.5259 18.6131 10.6954 18.7827L11.2563 19.3436L14.4259 16.174C14.5955 16.0044 14.8694 16.0044 15.0389 16.174C15.2172 16.3392 15.2172 16.6174 15.0476 16.787Z" fill="#FFC400"/>
<path d="M5 3C3.89543 3 3 3.89543 3 5V15.7827C3 16.8873 3.89543 17.7827 5 17.7827H7.22551C7.30465 17.7827 7.37113 17.7224 7.37829 17.6436C7.37829 17.6116 7.38486 17.5798 7.38714 17.5479C7.38818 17.5334 7.38926 17.5189 7.39133 17.5044C7.39568 17.4871 7.39568 17.4653 7.40003 17.4479C7.40438 17.4218 7.40873 17.3958 7.41307 17.3697C7.42111 17.3295 7.42473 17.2884 7.43226 17.2481C7.43311 17.2435 7.43396 17.2391 7.43481 17.2349C7.43916 17.2131 7.44351 17.1957 7.44786 17.174C7.4522 17.1479 7.45655 17.1262 7.4609 17.1001C7.46525 17.0784 7.4696 17.0566 7.47394 17.0392C7.47829 17.0131 7.48264 16.9914 7.49133 16.9653C7.49568 16.9436 7.50003 16.9218 7.50438 16.9044C7.50873 16.8827 7.51742 16.8566 7.52177 16.8349C7.53003 16.7936 7.54526 16.7535 7.55481 16.7125C7.55544 16.7097 7.55603 16.7071 7.55655 16.7044C7.5609 16.6827 7.5696 16.661 7.57394 16.6436C7.58264 16.6218 7.58699 16.6001 7.59568 16.574C7.60003 16.5523 7.60873 16.5305 7.61308 16.5131C7.62177 16.4914 7.62612 16.4697 7.63481 16.4479C7.64351 16.4262 7.64786 16.4088 7.65655 16.387C7.65707 16.3857 7.65759 16.3844 7.65811 16.3831C7.67406 16.3432 7.68406 16.3009 7.70003 16.261C7.70873 16.2392 7.71742 16.2175 7.72612 16.1957C7.74212 16.1557 7.75591 16.1147 7.77191 16.0748C7.77259 16.0731 7.77327 16.0714 7.77395 16.0697C7.78264 16.0479 7.79134 16.0305 7.80003 16.0088C7.80873 15.987 7.81742 15.9653 7.82612 15.9436C7.83482 15.9262 7.84351 15.9044 7.85221 15.887C7.8609 15.8653 7.87395 15.8436 7.88264 15.8218C7.89134 15.8044 7.90003 15.7827 7.90873 15.7653C7.91742 15.7436 7.93047 15.7218 7.93916 15.7001C7.94786 15.6827 7.95656 15.661 7.9696 15.6436C7.98264 15.6218 7.99134 15.6001 8.00438 15.5783C8.01308 15.561 8.02177 15.5436 8.03482 15.5218C8.04786 15.5001 8.05656 15.4783 8.0696 15.4566C8.0783 15.4392 8.09134 15.4218 8.10003 15.4044C8.11308 15.3827 8.12612 15.361 8.13917 15.3392C8.15603 15.3055 8.17809 15.274 8.19971 15.2431C8.2055 15.2349 8.21146 15.2264 8.21743 15.2175C8.22612 15.2044 8.23482 15.1914 8.24351 15.1783C8.26525 15.1436 8.29134 15.1044 8.31743 15.0696C8.32612 15.0566 8.33482 15.0436 8.34786 15.0262C8.36525 15.0044 8.3783 14.9827 8.39569 14.9566C8.40873 14.9392 8.41743 14.9262 8.43047 14.9088C8.44351 14.887 8.46091 14.8696 8.47395 14.8479C8.4976 14.8164 8.52093 14.7844 8.54492 14.7532C8.54745 14.7499 8.5499 14.7466 8.55221 14.7436C8.56526 14.7262 8.5783 14.7131 8.59134 14.6957C8.60439 14.6783 8.62178 14.661 8.63482 14.6392C8.64786 14.6218 8.66091 14.6088 8.67395 14.5914C8.687 14.574 8.70439 14.5566 8.71743 14.5392C8.73047 14.5218 8.74352 14.5088 8.76091 14.4914C8.77037 14.4819 8.77854 14.4725 8.78683 14.463C8.80102 14.4468 8.81525 14.4305 8.83047 14.4153C8.8457 14.4001 8.85993 14.3838 8.87412 14.3676C8.87546 14.3661 8.8768 14.3645 8.87814 14.363C8.89233 14.3468 8.90655 14.3305 8.92178 14.3153C8.93701 14.3001 8.95101 14.2836 8.96563 14.2678C8.96597 14.2674 8.96632 14.267 8.96666 14.2667C8.98201 14.2502 8.99935 14.2356 9.01529 14.2196C9.02215 14.2127 9.02893 14.206 9.03482 14.2001C9.04083 14.1941 9.04684 14.1886 9.05266 14.1833C9.07381 14.1639 9.09368 14.1428 9.11426 14.1229C9.12454 14.1129 9.13547 14.1036 9.14613 14.0941C9.15038 14.0903 9.15462 14.0866 9.15886 14.0829C9.17506 14.0687 9.19133 14.0544 9.20656 14.0392C9.22179 14.024 9.23785 14.0095 9.25448 13.9958C9.26387 13.9881 9.27326 13.981 9.28265 13.974C9.31711 13.9481 9.34601 13.9153 9.38008 13.889C9.38094 13.8883 9.38179 13.8877 9.38265 13.887C9.40004 13.874 9.41309 13.8609 9.43048 13.8479C9.44787 13.8349 9.46526 13.8175 9.48265 13.8044C9.5156 13.7797 9.54674 13.7525 9.57946 13.7275C9.58204 13.7256 9.58456 13.7236 9.587 13.7218C9.59403 13.7165 9.60107 13.7113 9.60781 13.706C9.62654 13.6913 9.64467 13.6759 9.66391 13.662C9.66606 13.6604 9.66822 13.6588 9.67036 13.6572C9.68504 13.6461 9.69926 13.6329 9.71435 13.6223C9.73347 13.6089 9.75281 13.5972 9.77257 13.5847C9.78282 13.5782 9.79361 13.5718 9.80439 13.5653C9.82179 13.5522 9.83918 13.5436 9.85657 13.5305C9.87831 13.5175 9.8957 13.5044 9.91744 13.4914C9.93483 13.4827 9.95222 13.4696 9.96526 13.4609C9.987 13.4479 10.0087 13.4349 10.0305 13.4218C10.0479 13.4131 10.0609 13.4001 10.0783 13.3914C10.1044 13.3783 10.1305 13.3609 10.1522 13.3479C10.1771 13.3313 10.2045 13.3189 10.2306 13.3044C10.2566 13.2899 10.2827 13.2754 10.3087 13.2609C10.3174 13.2566 10.3305 13.2479 10.3392 13.2435C10.3696 13.2262 10.3957 13.2131 10.4261 13.1957C10.4271 13.1953 10.428 13.1948 10.4288 13.1944C10.4582 13.1793 10.4888 13.1654 10.5186 13.1512C10.5379 13.142 10.5575 13.1344 10.5766 13.1248C10.5844 13.1209 10.5922 13.117 10.6001 13.1131C10.6218 13.1001 10.6479 13.0914 10.6696 13.0783C10.687 13.0696 10.7044 13.0609 10.7261 13.0522C10.7308 13.0504 10.7355 13.0483 10.7402 13.0461C10.7768 13.0292 10.813 13.0099 10.8522 13.0001C10.8565 12.9984 10.8607 12.9967 10.8649 12.995C10.9025 12.9801 10.9422 12.9703 10.9783 12.9522C11.0001 12.9435 11.0218 12.9349 11.0479 12.9262C11.0696 12.9175 11.087 12.9131 11.1088 12.9044C11.1305 12.8957 11.1522 12.887 11.1783 12.8783C11.2001 12.8696 11.2174 12.8653 11.2392 12.8566C11.2515 12.8517 11.2651 12.8482 11.2786 12.8445C11.2989 12.8389 11.3192 12.8328 11.3392 12.8262C11.3592 12.8195 11.3795 12.8134 11.3998 12.8079C11.4013 12.8074 11.4029 12.807 11.4044 12.8066C11.4278 12.8002 11.4511 12.7931 11.4742 12.7855C11.4825 12.7828 11.4909 12.7802 11.5001 12.7783C11.5218 12.774 11.5479 12.7653 11.5696 12.7609C11.6109 12.7527 11.651 12.7374 11.692 12.7279C11.6948 12.7273 11.6974 12.7267 11.7001 12.7262C11.7218 12.7218 11.7435 12.7175 11.7609 12.7131C11.764 12.7125 11.7671 12.7119 11.7703 12.7113C11.811 12.7034 11.8512 12.6927 11.8914 12.6827C11.9175 12.6783 11.9392 12.674 11.9653 12.6696C11.987 12.6653 12.0088 12.6609 12.0261 12.6566C12.0522 12.6522 12.074 12.6479 12.1001 12.6435C12.1092 12.6417 12.1184 12.6399 12.1272 12.6384C12.1495 12.6346 12.1738 12.6324 12.1962 12.6293C12.2229 12.6257 12.2483 12.624 12.2751 12.6209C12.2824 12.6201 12.2893 12.619 12.2957 12.6175C12.3218 12.6131 12.3479 12.6131 12.374 12.6088C12.3957 12.6044 12.4131 12.6044 12.4348 12.6001C12.4407 12.5991 12.4465 12.5983 12.4524 12.5977C12.4928 12.5933 12.5333 12.587 12.574 12.587C12.6001 12.587 12.6305 12.5827 12.6566 12.5827C12.674 12.5827 12.6957 12.5783 12.7131 12.5783C12.7435 12.5783 12.7783 12.574 12.8088 12.574C12.8262 12.574 12.8392 12.574 12.8566 12.574C12.9044 12.574 12.9522 12.574 13.0001 12.574C13.0479 12.574 13.0957 12.574 13.1435 12.574C13.1609 12.574 13.174 12.574 13.1914 12.574C13.2039 12.574 13.2171 12.574 13.2305 12.5743C13.2682 12.5751 13.3058 12.5827 13.3435 12.5827C13.3696 12.5827 13.4001 12.587 13.4262 12.587C13.4338 12.587 13.4409 12.5876 13.4478 12.5883C13.4739 12.5909 13.5 12.5935 13.5262 12.5957C13.5523 12.5979 13.5786 12.5994 13.6044 12.6043C13.6113 12.6057 13.6185 12.6072 13.6262 12.6088C13.6522 12.6131 13.6783 12.6131 13.7044 12.6175C13.7262 12.6218 13.7479 12.6218 13.7653 12.6262C13.7788 12.6284 13.7911 12.6306 13.8034 12.6323C13.8271 12.6354 13.8511 12.6379 13.8747 12.6413C13.8945 12.644 13.9143 12.6452 13.934 12.6487C13.9485 12.6513 13.9626 12.654 13.9783 12.6566C14.0001 12.6609 14.0218 12.6653 14.0436 12.6696C14.0696 12.674 14.0914 12.6783 14.1175 12.6827C14.1392 12.687 14.1609 12.6914 14.1827 12.6957C14.1857 12.6963 14.1889 12.6969 14.1921 12.6976C14.2327 12.7055 14.2729 12.7161 14.3131 12.7262C14.3349 12.7305 14.3609 12.7392 14.3827 12.7435C14.424 12.7518 14.464 12.767 14.5051 12.7766C14.5078 12.7772 14.5105 12.7778 14.5131 12.7783C14.5349 12.7827 14.5566 12.7914 14.574 12.7957C14.5863 12.8006 14.5999 12.8042 14.6134 12.8079C14.6337 12.8134 14.654 12.8195 14.674 12.8262C14.694 12.8328 14.7142 12.839 14.7345 12.8448C14.7468 12.8484 14.7598 12.8518 14.774 12.8566C14.7957 12.8653 14.8131 12.8696 14.8349 12.8783C14.8375 12.8794 14.8401 12.8804 14.8427 12.8814C14.8826 12.8973 14.9254 12.9058 14.9653 12.9218C14.987 12.9305 15.0088 12.9392 15.0305 12.9479C15.0523 12.9566 15.0696 12.9609 15.0914 12.9696C15.1131 12.9783 15.1349 12.987 15.1566 12.9957C15.174 13.0044 15.1957 13.0131 15.2131 13.0218C15.2349 13.0305 15.2566 13.0392 15.2783 13.0522C15.2957 13.0609 15.3175 13.0696 15.3349 13.0783C15.3566 13.087 15.3783 13.1001 15.4001 13.1088C15.4175 13.1175 15.4349 13.1262 15.4523 13.1349C15.474 13.1479 15.5001 13.1566 15.5218 13.1696C15.5392 13.1783 15.5566 13.187 15.574 13.1957C15.6001 13.2088 15.6262 13.2218 15.6523 13.2349C15.6653 13.2435 15.6783 13.2479 15.6914 13.2566C15.7305 13.2783 15.7697 13.3001 15.8044 13.3218C15.8218 13.3305 15.8349 13.3392 15.8523 13.3479C15.874 13.3609 15.9001 13.374 15.9218 13.387C15.9392 13.3957 15.9566 13.4088 15.974 13.4175C15.9957 13.4305 16.0131 13.4436 16.0349 13.4566C16.0523 13.4696 16.0697 13.4783 16.087 13.4914C16.1044 13.5044 16.1262 13.5175 16.1436 13.5305C16.177 13.5556 16.2136 13.5765 16.2475 13.6009C16.2491 13.6021 16.2507 13.6032 16.2523 13.6044C16.2697 13.6175 16.287 13.6305 16.3044 13.6436C16.3218 13.6566 16.3436 13.6696 16.361 13.6827C16.3784 13.6957 16.3957 13.7088 16.4131 13.7218C16.4305 13.7349 16.4479 13.7479 16.4653 13.7609C16.4827 13.774 16.5001 13.787 16.5175 13.8001C16.5265 13.8068 16.5354 13.8135 16.5444 13.8208C16.5619 13.8352 16.5782 13.8494 16.5957 13.8637C16.6133 13.8779 16.6309 13.8939 16.6479 13.9088C16.6566 13.9164 16.6653 13.924 16.674 13.9305C16.6824 13.9368 16.6908 13.9441 16.6987 13.9514C16.7144 13.9661 16.7316 13.981 16.7474 13.9957C16.7631 14.0104 16.7783 14.024 16.7936 14.0392C16.8012 14.0468 16.8088 14.0544 16.8175 14.0609C16.8259 14.0672 16.8342 14.0745 16.8421 14.0819C16.8579 14.0965 16.874 14.1109 16.8892 14.1262C16.9045 14.1414 16.9208 14.1555 16.936 14.1708C16.944 14.1787 16.9519 14.1866 16.961 14.1957C16.9784 14.2131 16.9914 14.2262 17.0088 14.2436C17.0262 14.2609 17.0392 14.274 17.0566 14.2914C17.074 14.3088 17.0871 14.3218 17.1044 14.3392C17.1218 14.3566 17.1349 14.3696 17.1479 14.387C17.161 14.4044 17.1784 14.4175 17.1914 14.4349C17.2044 14.4523 17.2218 14.4696 17.2349 14.487C17.2607 14.5215 17.2935 14.5504 17.3199 14.5845C17.3205 14.5853 17.3212 14.5862 17.3218 14.587C17.349 14.6232 17.3817 14.6552 17.4088 14.6914C17.4218 14.7088 17.4349 14.7262 17.4479 14.7436C17.461 14.761 17.474 14.7783 17.4914 14.8001C17.5044 14.8175 17.5175 14.8349 17.5305 14.8523C17.5322 14.8545 17.5339 14.8568 17.5356 14.8592C17.5599 14.8932 17.5901 14.9236 17.6088 14.961C17.6218 14.9827 17.6392 15.0001 17.6523 15.0218C17.6653 15.0392 17.674 15.0523 17.6871 15.0696C17.7019 15.0894 17.7153 15.1106 17.7289 15.1315C17.7494 15.1632 17.7687 15.196 17.7914 15.2262C17.7945 15.2313 17.7976 15.2365 17.8007 15.2416C17.8217 15.2759 17.8474 15.3076 17.8653 15.3436C17.872 15.3547 17.8786 15.3658 17.8853 15.3763C17.8974 15.3954 17.9092 15.4132 17.9206 15.4327C17.9308 15.4501 17.9401 15.4696 17.9499 15.4872C17.9562 15.4984 17.9622 15.5094 17.9697 15.5218C17.9784 15.5392 17.9914 15.561 18.0001 15.5783C18.0131 15.6001 18.0218 15.6175 18.0305 15.6392C18.0496 15.6774 18.0702 15.7153 18.0897 15.7532C18.0903 15.7544 18.0909 15.7555 18.0914 15.7566C18.1001 15.774 18.1088 15.7957 18.1175 15.8131C18.1262 15.8349 18.1392 15.8566 18.1479 15.874C18.1566 15.8957 18.1653 15.9131 18.174 15.9349C18.1827 15.9566 18.1914 15.9783 18.2001 16.0001C18.2088 16.0218 18.2175 16.0392 18.2262 16.061C18.2349 16.0827 18.2436 16.1044 18.2523 16.1262C18.261 16.1479 18.2697 16.1653 18.2784 16.187C18.2871 16.2088 18.2958 16.2305 18.3045 16.2523C18.3131 16.274 18.3175 16.2914 18.3262 16.3131C18.3267 16.3144 18.3272 16.3157 18.3278 16.317C18.3437 16.357 18.3537 16.3993 18.3697 16.4392C18.3784 16.461 18.3827 16.4827 18.3914 16.5044C18.4001 16.5262 18.4045 16.5479 18.4088 16.5653C18.4175 16.587 18.4218 16.6088 18.4305 16.6349C18.4349 16.6566 18.4436 16.6784 18.4479 16.6957C18.4523 16.7175 18.461 16.7436 18.4653 16.7653C18.4697 16.7871 18.4784 16.8088 18.4827 16.8262C18.4871 16.8479 18.4958 16.874 18.5001 16.8957C18.5045 16.9175 18.5088 16.9392 18.5131 16.961C18.5138 16.964 18.5144 16.9671 18.515 16.9703C18.5229 17.011 18.5335 17.0512 18.5436 17.0914C18.5479 17.1175 18.5523 17.1392 18.5566 17.1653C18.561 17.1871 18.5653 17.2044 18.5697 17.2262C18.574 17.2523 18.5784 17.2784 18.5827 17.3001C18.5908 17.3403 18.5948 17.3813 18.6015 17.4217C18.6025 17.4276 18.6035 17.4334 18.6045 17.4392C18.6088 17.4566 18.6088 17.4784 18.6131 17.4958C18.6175 17.5262 18.6218 17.5566 18.6218 17.5871C18.6218 17.6044 18.6262 17.6218 18.6262 17.6349C18.6334 17.7137 18.6998 17.774 18.779 17.774H21.0001C22.1047 17.774 23.0001 16.8786 23.0001 15.774V5C23.0001 3.89543 22.1047 3 21.0001 3H5ZM19.9566 9.95657H6.0435C5.80437 9.95657 5.60871 9.76092 5.60871 9.52178C5.60871 9.28265 5.80437 9.087 6.0435 9.087H19.9566C20.1958 9.087 20.3914 9.28265 20.3914 9.52178C20.3914 9.76092 20.1958 9.95657 19.9566 9.95657ZM19.9566 6.47828H6.0435C5.80437 6.47828 5.60871 6.28263 5.60871 6.0435C5.60871 5.80437 5.80437 5.60871 6.0435 5.60871H19.9566C20.1958 5.60871 20.3914 5.80437 20.3914 6.0435C20.3914 6.28263 20.1958 6.47828 19.9566 6.47828Z" fill="#FFC400"/>
</svg>
