<svg width="16" height="16" viewBox="0 0 16 16" fill="none" xmlns="http://www.w3.org/2000/svg">
<path d="M12.0166 3.94995H0.46875C0.209839 3.94995 0 4.15991 0 4.4187V10.577C0 10.8359 0.209839 11.0458 0.46875 11.0458H12.0166C12.2755 11.0458 12.4854 10.8359 12.4854 10.577V4.4187C12.4854 4.15991 12.2755 3.94995 12.0166 3.94995ZM10.4771 9.50623C10.4771 9.76514 10.2672 9.97498 10.0083 9.97498H2.47705C2.21826 9.97498 2.0083 9.76514 2.0083 9.50623V5.48962C2.0083 5.23071 2.21826 5.02087 2.47705 5.02087H10.0083C10.2672 5.02087 10.4771 5.23071 10.4771 5.48962V9.50623Z" fill="#8292A7"/>
<path d="M7.96655 5.95837H9.53943V9.03748H7.96655V5.95837Z" fill="#8292A7"/>
<path d="M5.4563 5.95837H7.02917V9.03748H5.4563V5.95837Z" fill="#8292A7"/>
<path d="M2.9458 5.95837H4.5188V9.03748H2.9458V5.95837Z" fill="#8292A7"/>
<path d="M1.00415 15.5312C1.00415 15.7902 1.21411 16 1.4729 16H11.0125C11.2714 16 11.4812 15.7902 11.4812 15.5312V11.9834H1.00415V15.5312ZM8 13.0542H9.00415C9.26306 13.0542 9.4729 13.264 9.4729 13.5229C9.4729 13.7817 9.26306 13.9917 9.00415 13.9917H8C7.74109 13.9917 7.53125 13.7817 7.53125 13.5229C7.53125 13.264 7.74109 13.0542 8 13.0542Z" fill="#8292A7"/>
<path d="M11.4812 2.47705C11.4812 1.11121 10.3701 0 9.00415 0H3.4812C2.11536 0 1.00415 1.11121 1.00415 2.47705V3.01245H11.4812V2.47705Z" fill="#8292A7"/>
<path d="M14.0583 4.33923V7.02917H13.4229V7.96667H14.5271C14.7859 7.96667 14.9958 7.75684 14.9958 7.49792V4.33923C14.8441 4.36926 14.6874 4.38538 14.5271 4.38538C14.3667 4.38538 14.2101 4.36926 14.0583 4.33923Z" fill="#8292A7"/>
<path d="M14.5271 0.502075C13.715 0.502075 13.0542 1.16284 13.0542 1.97498C13.0542 2.78711 13.715 3.44788 14.5271 3.44788C15.3392 3.44788 16 2.78711 16 1.97498C16 1.16284 15.3392 0.502075 14.5271 0.502075Z" fill="#8292A7"/>
</svg>
