<svg width="18" height="19" viewBox="0 0 18 19" fill="none" xmlns="http://www.w3.org/2000/svg">
<path fill-rule="evenodd" clip-rule="evenodd" d="M15.9809 3.95166H6.55403C6.30804 3.95166 6.10767 4.15183 6.10767 4.39783V18.5537C6.10767 18.7997 6.30784 19 6.55403 19H15.9809C16.2271 19 16.4273 18.7997 16.4273 18.5537V4.39783C16.4273 4.15183 16.2273 3.95166 15.9809 3.95166ZM8.16076 6.75981C7.90306 6.50211 7.16645 5.72067 7.16645 5.18245C7.16645 4.88249 7.40967 4.63966 7.70943 4.63966C7.8975 4.63966 8.06335 4.73528 8.16076 4.8807C8.25817 4.73548 8.42402 4.63966 8.61209 4.63966C8.91205 4.63966 9.15487 4.88268 9.15487 5.18245C9.15487 5.72067 8.46409 6.45648 8.16076 6.75981ZM11.2677 13.5881C10.7543 13.0746 9.2868 11.5175 9.2868 10.4452C9.2868 9.84789 9.77106 9.36363 10.3684 9.36363C10.7435 9.36363 11.0737 9.55428 11.2677 9.84392C11.4619 9.55428 11.7922 9.36363 12.167 9.36363C12.7645 9.36363 13.2486 9.84789 13.2486 10.4452C13.2486 11.5175 11.8722 12.9834 11.2677 13.5881ZM14.8239 18.3467C14.6359 18.3467 14.47 18.2511 14.3728 18.1055C14.2752 18.2509 14.1096 18.3467 13.9215 18.3467C13.6215 18.3467 13.3787 18.1035 13.3787 17.804C13.3787 17.2657 14.0693 16.5299 14.373 16.2266C14.6307 16.4843 15.3673 17.2655 15.3673 17.804C15.3671 18.1037 15.1239 18.3467 14.8239 18.3467Z" fill="#8292A7"/>
<path fill-rule="evenodd" clip-rule="evenodd" d="M11.3542 3.35648L10.5789 1.40297C10.4279 1.02247 9.99328 0.834994 9.61318 0.985966L0.851068 4.46347C0.470762 4.61444 0.283089 5.04911 0.434061 5.42921L5.51274 18.2251V4.39781C5.51274 3.82348 5.97994 3.35648 6.55427 3.35648H11.3542ZM3.268 7.80548L3.04859 7.25218L3.3301 7.14049L3.21047 6.83895C3.16861 6.87287 3.12298 6.90302 3.07021 6.92405C2.79148 7.03475 2.47585 6.89846 2.36535 6.61973C2.16696 6.1196 2.56334 5.12132 2.70756 4.78684C3.10156 4.95686 4.01512 5.38597 4.21371 5.8861C4.32441 6.16483 4.18812 6.48046 3.90938 6.59116C3.86237 6.61001 3.81416 6.62032 3.76595 6.62548L3.8832 6.92108L4.18078 6.80284L4.40019 7.35614L3.268 7.80548Z" fill="#8292A7"/>
</svg>
