<svg width="20" height="31" viewBox="0 0 20 31" fill="none" xmlns="http://www.w3.org/2000/svg">
<path d="M13.5321 9.65475C13.5321 7.58448 11.8478 5.90016 9.77753 5.90016C7.70726 5.90016 6.02295 7.58441 6.02295 9.65475C6.02295 11.7251 7.70726 13.4093 9.77753 13.4093C11.8478 13.4093 13.5321 11.7251 13.5321 9.65475Z" fill="url(#paint0_linear)"/>
<path d="M15.9887 24.1437C15.4392 23.9473 14.8313 23.7807 14.1812 23.6445C12.2215 25.976 10.5838 27.5906 10.4129 27.7577L9.77893 28.378L9.14374 27.7589C8.97262 27.5921 7.33015 25.9793 5.36645 23.6471C4.72115 23.7828 4.11756 23.9485 3.57163 24.1436C1.05267 25.0438 0.523926 26.2527 0.523926 27.1084C0.523926 27.964 1.05267 29.173 3.57163 30.0732C5.24395 30.6708 7.44889 31 9.7802 31C12.1115 31 14.3165 30.6708 15.9888 30.0732C18.5077 29.173 19.0364 27.964 19.0364 27.1084C19.0364 26.2527 18.5076 25.0439 15.9887 24.1437Z" fill="url(#paint1_linear)"/>
<path d="M14.4137 20.4504C17.7773 16.0736 19.5551 12.383 19.5551 9.77751C19.5551 4.3862 15.1689 0 9.77757 0C4.3862 0 0 4.3862 0 9.77757C0 12.4033 1.78229 16.1051 5.15418 20.4825C6.9886 22.8641 8.83653 24.845 9.7763 25.8153C10.7188 24.8386 12.5763 22.8412 14.4137 20.4504ZM4.20642 9.65477C4.20642 6.58285 6.70558 4.08362 9.77757 4.08362C12.8495 4.08362 15.3487 6.58278 15.3487 9.65477C15.3487 12.7267 12.8495 15.2259 9.77757 15.2259C6.70565 15.2259 4.20642 12.7267 4.20642 9.65477Z" fill="url(#paint2_linear)"/>
<defs>
<linearGradient id="paint0_linear" x1="6.02295" y1="7.50927" x2="15.9458" y2="15.8229" gradientUnits="userSpaceOnUse">
<stop stop-color="#EB7E07"/>
<stop offset="0.615299" stop-color="#FFEC4A"/>
</linearGradient>
<linearGradient id="paint1_linear" x1="0.523925" y1="25.2206" x2="8.16831" y2="41.3402" gradientUnits="userSpaceOnUse">
<stop stop-color="#EB7E07"/>
<stop offset="0.615299" stop-color="#FFEC4A"/>
</linearGradient>
<linearGradient id="paint2_linear" x1="-3.12951e-07" y1="5.53185" x2="31.3518" y2="25.4297" gradientUnits="userSpaceOnUse">
<stop stop-color="#EB7E07"/>
<stop offset="0.615299" stop-color="#FFEC4A"/>
</linearGradient>
</defs>
</svg>
