<svg width="26" height="26" viewBox="0 0 26 26" fill="none" xmlns="http://www.w3.org/2000/svg">
<g clip-path="url(#clip0)">
<path d="M1.66924 7.58287L3.00125 12.9113L1.43358 16.0469L2.57616 18.332H1.52344V19.8555H3.04688V22.9023H1.52344V24.4258H24.4766V22.9023H22.9531V19.8555H24.4766V18.332H23.4238L24.5664 16.0469L22.9987 12.9113L24.3308 7.58287C25.2924 7.31329 26 6.42938 26 5.38281C26 4.1228 24.9749 3.09766 23.7148 3.09766C22.4548 3.09766 21.4297 4.1228 21.4297 5.38281C21.4297 5.73392 21.5094 6.06677 21.6517 6.36432L17.7607 10.2164L14.9767 5.00374C15.1725 4.66692 15.2852 4.27614 15.2852 3.85938C15.2852 2.59937 14.26 1.57422 13 1.57422C11.74 1.57422 10.7148 2.59937 10.7148 3.85938C10.7148 4.27614 10.8275 4.66692 11.0233 5.00374L8.23926 10.2162L4.34834 6.36432C4.49057 6.06677 4.57031 5.73392 4.57031 5.38281C4.57031 4.1228 3.54517 3.09766 2.28516 3.09766C1.02515 3.09766 0 4.1228 0 5.38281C0 6.42938 0.707565 7.31329 1.66924 7.58287ZM4.48045 16.0469L3.80859 17.3906L3.13673 16.0469L3.80859 14.7032L4.48045 16.0469ZM4.57031 22.9023V19.8555H21.4297V22.9023H4.57031ZM22.8633 16.0469L22.1914 17.3906L21.5195 16.0469L22.1914 14.7032L22.8633 16.0469ZM23.7148 4.62109C24.1348 4.62109 24.4766 4.96288 24.4766 5.38281C24.4766 5.80275 24.1348 6.14453 23.7148 6.14453C23.2949 6.14453 22.9531 5.80275 22.9531 5.38281C22.9531 4.96288 23.2949 4.62109 23.7148 4.62109ZM13 3.09766C13.4199 3.09766 13.7617 3.43944 13.7617 3.85938C13.7617 4.27931 13.4199 4.62109 13 4.62109C12.5801 4.62109 12.2383 4.27931 12.2383 3.85938C12.2383 3.43944 12.5801 3.09766 13 3.09766ZM8.62012 12.737L12.2153 6.00568C12.4601 6.09554 12.7245 6.14453 13 6.14453C13.2755 6.14453 13.5399 6.09554 13.7847 6.00568L17.3799 12.737L22.7272 7.44322C22.7474 7.45294 22.7681 7.46187 22.7885 7.47099L21.4727 12.7342L19.8164 16.0469L20.959 18.332H14.2324L15.375 16.0469L13 11.2968L10.625 16.0469L11.7676 18.332H5.04103L6.18361 16.0469L4.52727 12.7342L3.21152 7.47099C3.23195 7.46187 3.25278 7.45294 3.27281 7.44322L8.62012 12.737ZM12.3281 16.0469L13 14.7032L13.6719 16.0469L13 17.3906L12.3281 16.0469ZM2.28516 4.62109C2.70509 4.62109 3.04688 4.96288 3.04688 5.38281C3.04688 5.80275 2.70509 6.14453 2.28516 6.14453C1.86522 6.14453 1.52344 5.80275 1.52344 5.38281C1.52344 4.96288 1.86522 4.62109 2.28516 4.62109Z" fill="#FFC400"/>
</g>
<defs>
<clipPath id="clip0">
<rect width="26" height="26" fill="white"/>
</clipPath>
</defs>
</svg>
