<svg width="83" height="92" viewBox="0 0 83 92" fill="none" xmlns="http://www.w3.org/2000/svg">
<g filter="url(#filter0_d)">
<path d="M49.5072 44.0495C46.6304 44.0495 44.4605 46.1113 44.4605 48.8457C44.4605 50.324 45.0888 51.2036 45.6994 52.053C45.702 52.0564 45.7046 52.0607 45.7072 52.0638C46.1701 52.7078 46.6489 53.3739 47.0393 54.4126C47.0702 54.512 47.248 55.1859 47.3012 55.4534C47.3613 55.7564 47.6259 55.9743 47.9329 55.9743H47.9342L49.5068 55.9708L51.0837 55.9743H51.085C51.392 55.9743 51.6565 55.7564 51.7167 55.4534C51.7691 55.1911 51.946 54.5163 51.9717 54.4303C51.9739 54.4251 51.9765 54.4178 51.9799 54.4091C52.3733 53.3674 52.8706 52.6749 53.3103 52.0638C53.3129 52.0603 53.3154 52.056 53.3185 52.053C53.9291 51.2036 54.5578 50.324 54.5578 48.8457C54.5565 46.1113 52.387 44.0495 49.5072 44.0495ZM52.2659 51.3021C52.2633 51.3065 52.2608 51.3099 52.2582 51.3138C51.7961 51.9561 51.2232 52.7558 50.762 53.9825C50.7577 53.9933 50.7504 54.0162 50.747 54.0274C50.7221 54.1087 50.6461 54.3923 50.5748 54.6758L49.5068 54.6741L48.4422 54.6758C48.3709 54.3923 48.2936 54.1053 48.2649 54.0132C48.2619 54.0045 48.2486 53.9661 48.2451 53.9574C47.7955 52.7601 47.2218 51.9583 46.7588 51.3142C46.7563 51.3108 46.7533 51.3065 46.7503 51.3026C46.1688 50.4947 45.7488 49.9103 45.7488 48.8457C45.7488 46.8509 47.3652 45.3462 49.5098 45.3462C51.6522 45.3462 53.2682 46.8504 53.2682 48.8457C53.2682 49.9094 52.8482 50.4934 52.2659 51.3021ZM50.6353 56.2055C50.4099 56.2055 50.2119 56.3222 50.0964 56.4986H48.9202C48.8051 56.3222 48.6067 56.2055 48.3812 56.2055C48.0252 56.2055 47.7371 56.496 47.7371 56.8539V57.147C47.7371 57.5049 48.0252 57.7953 48.3812 57.7953H50.6353C50.9909 57.7953 51.2795 57.5049 51.2795 57.147V56.8539C51.2795 56.496 50.9913 56.2055 50.6353 56.2055ZM49.5089 41.8723C49.0048 41.8723 48.5144 41.9246 48.0325 42.0054V33.9043C48.6243 33.9038 49.1057 33.4197 49.1057 32.8236V29.9868C49.1057 29.3912 48.6243 28.9062 48.0325 28.9062V24.2418C48.0325 22.4541 46.5879 21 44.8118 21H27.7208C25.9446 21 24.5 22.4541 24.5 24.2418V59.7582C24.5 61.5455 25.9446 63 27.7208 63H44.8118C46.5609 63 47.9862 61.5883 48.0287 59.8386C48.5114 59.9198 49.0039 59.9721 49.5089 59.9721C54.4668 59.9721 58.5 55.912 58.5 50.9226C58.5 45.9324 54.4668 41.8723 49.5089 41.8723ZM46.7442 59.7582C46.7442 60.8301 45.8772 61.7033 44.8118 61.7033H27.7208C26.6553 61.7033 25.7883 60.8301 25.7883 59.7582V28.0962H43.4106C43.7661 28.0962 44.0547 27.8061 44.0547 27.4478C44.0547 27.0895 43.7661 26.7994 43.4106 26.7994H25.7883V24.2418C25.7883 23.1694 26.6553 22.2967 27.7208 22.2967H44.8118C45.8772 22.2967 46.7442 23.1694 46.7442 24.2418V42.3149C43.1361 43.4919 40.5179 46.9032 40.5179 50.9226C40.5179 54.9412 43.1361 58.3525 46.7442 59.5295V59.7582ZM49.5089 58.675C45.2614 58.675 41.8058 55.1967 41.8058 50.9222C41.8058 46.6469 45.2614 43.1686 49.5089 43.1686C53.7565 43.1686 57.2117 46.6469 57.2117 50.9222C57.2117 55.1967 53.7565 58.675 49.5089 58.675ZM36.8033 55.711C35.4403 55.711 34.3315 56.8271 34.3315 58.199C34.3315 59.571 35.4403 60.6871 36.8033 60.6871C38.1663 60.6871 39.2751 59.571 39.2751 58.199C39.2751 56.8271 38.1659 55.711 36.8033 55.711ZM36.8033 59.3899C36.1505 59.3899 35.6198 58.8556 35.6198 58.1986C35.6198 57.5416 36.1505 57.0074 36.8033 57.0074C37.456 57.0074 37.9868 57.5416 37.9868 58.1986C37.9868 58.8556 37.4556 59.3899 36.8033 59.3899ZM40.517 23.5031C39.9695 23.5031 39.5237 23.9518 39.5237 24.5029C39.5237 25.054 39.9695 25.5027 40.517 25.5027C41.0646 25.5027 41.5103 25.054 41.5103 24.5029C41.5103 23.9518 41.0646 23.5031 40.517 23.5031ZM40.517 24.7999C40.3543 24.7999 40.2216 24.6663 40.2216 24.5025C40.2216 24.3387 40.3543 24.2051 40.517 24.2051C40.6798 24.2051 40.8125 24.3387 40.8125 24.5025C40.8125 24.6663 40.6798 24.7999 40.517 24.7999Z" fill="#E4FFA3" stroke="#AAFF5C" stroke-width="0.4"/>
<path d="M45.6189 52.1123L45.6182 52.1113L45.6182 52.1113C45.0066 51.2606 44.3605 50.3583 44.3605 48.8457C44.3605 46.0513 46.5801 43.9495 49.5072 43.9495C52.4374 43.9495 54.6565 46.0513 54.6578 48.8456V48.8457C54.6578 50.3583 54.0112 51.2607 53.3996 52.1113L53.395 52.1178L53.3935 52.1193L53.3915 52.1222C52.9523 52.7326 52.4618 53.416 52.0735 54.4445L52.0728 54.4461L52.0689 54.4562L52.0688 54.4567C52.0681 54.4584 52.0673 54.4606 52.0664 54.463C52.0374 54.5621 51.8656 55.2181 51.8147 55.473C51.7453 55.8224 51.44 56.0743 51.085 56.0743H51.0837H51.0835L49.507 56.0708H49.5066L47.9344 56.0743H47.9342H47.9329C47.5778 56.0743 47.2725 55.8224 47.2031 55.4729M45.6189 52.1123L47.3012 55.4534M45.6189 52.1123L45.6192 52.1127L45.6207 52.1148L45.6244 52.1202C45.6253 52.1213 45.6263 52.1227 45.6276 52.1243M45.6189 52.1123L45.6276 52.1243M47.2031 55.4729L47.3012 55.4534M47.2031 55.4729C47.2031 55.4729 47.2031 55.4729 47.2031 55.4729L47.3012 55.4534M47.2031 55.4729C47.1511 55.2113 46.9768 54.5503 46.9446 54.4449M47.3012 55.4534C47.248 55.1859 47.0702 54.512 47.0393 54.4126M46.9446 54.4449C46.945 54.4459 46.9453 54.4468 46.9457 54.4478L47.0393 54.4126M46.9446 54.4449C46.5599 53.4224 46.089 52.7664 45.6276 52.1243M46.9446 54.4449C46.9443 54.444 46.944 54.4431 46.9438 54.4423L47.0393 54.4126M47.0393 54.4126L45.6276 52.1243M45.6276 52.1243C45.6286 52.1257 45.6298 52.1271 45.631 52.1286L45.7072 52.0638L45.626 52.1221C45.6265 52.1229 45.627 52.1236 45.6276 52.1243ZM52.1845 51.2435L52.1848 51.2437C52.7671 50.435 53.1682 49.8743 53.1682 48.8457C53.1682 46.9123 51.6039 45.4462 49.5098 45.4462C47.4135 45.4462 45.8488 46.9128 45.8488 48.8457C45.8488 49.8752 46.25 50.4363 46.8314 51.2442L46.8357 51.2499L46.839 51.2545L46.8401 51.2559L46.84 51.2559C47.3036 51.9008 47.884 52.7115 48.3385 53.9216C48.3434 53.9344 48.3571 53.974 48.3593 53.9803L48.3604 53.9833L48.3603 53.9834C48.3874 54.07 48.4545 54.318 48.5201 54.5757L49.5066 54.5741L49.507 54.5741L50.497 54.5757C50.5623 54.3187 50.6279 54.0748 50.6514 53.9982C50.6514 53.9982 50.6514 53.9982 50.6514 53.9981L52.1845 51.2435ZM52.1845 51.2435L52.1801 51.2508M52.1845 51.2435L52.1801 51.2508M52.1801 51.2508C52.18 51.251 52.1798 51.2513 52.1794 51.2518M52.1801 51.2508L52.1794 51.2518M52.1794 51.2518L52.1777 51.2544M52.1794 51.2518L52.1777 51.2544M52.1777 51.2544L52.1762 51.2565M52.1777 51.2544L52.1762 51.2565M52.1762 51.2565C51.7135 51.8997 51.1346 52.7079 50.6688 53.9464C50.6689 53.9461 50.669 53.9459 50.6691 53.9456L52.1762 51.2565ZM53.3103 52.0638L53.3864 52.1205L53.3898 52.123C53.3902 52.1226 53.3906 52.1222 53.391 52.1218L53.3103 52.0638ZM50.6353 56.1055C50.3943 56.1055 50.1808 56.221 50.0448 56.3986H48.9719C48.8361 56.2208 48.6222 56.1055 48.3812 56.1055C47.9694 56.1055 47.6371 56.4414 47.6371 56.8539V57.147C47.6371 57.5594 47.9694 57.8953 48.3812 57.8953H50.6353C51.0468 57.8953 51.3795 57.5595 51.3795 57.147V56.8539C51.3795 56.4414 51.0472 56.1055 50.6353 56.1055ZM49.5089 41.7723C49.0387 41.7723 48.5811 41.8172 48.1325 41.8878V34C48.7333 33.9484 49.2057 33.4405 49.2057 32.8236V29.9868C49.2057 29.3704 48.7334 28.8617 48.1325 28.8104V24.2418C48.1325 22.3995 46.6438 20.9 44.8118 20.9H27.7208C25.8888 20.9 24.4 22.3995 24.4 24.2418V59.7582C24.4 61.6001 25.8888 63.1 27.7208 63.1H44.8118C46.5777 63.1 48.0223 61.7053 48.1239 59.9554C48.5751 60.0269 49.0362 60.0721 49.5089 60.0721C54.5226 60.0721 58.6 55.9667 58.6 50.9226C58.6 45.8777 54.5226 41.7723 49.5089 41.7723ZM46.6442 59.7582C46.6442 60.7755 45.8214 61.6033 44.8118 61.6033H27.7208C26.7112 61.6033 25.8883 60.7755 25.8883 59.7582V28.1962H43.4106C43.8219 28.1962 44.1547 27.8608 44.1547 27.4478C44.1547 27.0348 43.8219 26.6994 43.4106 26.6994H25.8883V24.2418C25.8883 23.2241 26.7112 22.3967 27.7208 22.3967H44.8118C45.8214 22.3967 46.6442 23.2241 46.6442 24.2418V42.2426C43.0317 43.4535 40.4179 46.8845 40.4179 50.9226C40.4179 54.9599 43.0317 58.3909 46.6442 59.6018V59.7582ZM49.5089 58.575C45.3172 58.575 41.9058 55.1421 41.9058 50.9222C41.9058 46.7015 45.3173 43.2686 49.5089 43.2686C53.7006 43.2686 57.1117 46.7015 57.1117 50.9222C57.1117 55.1421 53.7006 58.575 49.5089 58.575ZM36.8033 55.611C35.3844 55.611 34.2315 56.7725 34.2315 58.199C34.2315 59.6256 35.3844 60.7871 36.8033 60.7871C38.2221 60.7871 39.3751 59.6256 39.3751 58.199C39.3751 56.7725 38.2217 55.611 36.8033 55.611ZM36.8033 59.2899C36.2064 59.2899 35.7198 58.801 35.7198 58.1986C35.7198 57.5962 36.2064 57.1073 36.8033 57.1073C37.4002 57.1073 37.8868 57.5962 37.8868 58.1986C37.8868 58.801 37.3998 59.2899 36.8033 59.2899ZM40.517 23.4031C39.9137 23.4031 39.4237 23.8972 39.4237 24.5029C39.4237 25.1086 39.9137 25.6027 40.517 25.6027C41.1204 25.6027 41.6103 25.1086 41.6103 24.5029C41.6103 23.8972 41.1204 23.4031 40.517 23.4031ZM40.517 24.6999C40.4101 24.6999 40.3216 24.6117 40.3216 24.5025C40.3216 24.3933 40.4101 24.3051 40.517 24.3051C40.6239 24.3051 40.7125 24.3933 40.7125 24.5025C40.7125 24.6117 40.6239 24.6999 40.517 24.6999Z" stroke="#17E200" stroke-width="0.2"/>
</g>
<defs>
<filter id="filter0_d" x="-6.5" y="-2" width="96" height="96" filterUnits="userSpaceOnUse" color-interpolation-filters="sRGB">
<feFlood flood-opacity="0" result="BackgroundImageFix"/>
<feColorMatrix in="SourceAlpha" type="matrix" values="0 0 0 0 0 0 0 0 0 0 0 0 0 0 0 0 0 0 127 0"/>
<feOffset dy="4"/>
<feGaussianBlur stdDeviation="12"/>
<feColorMatrix type="matrix" values="0 0 0 0 0.411765 0 0 0 0 0.811765 0 0 0 0 0.0941176 0 0 0 0.5 0"/>
<feBlend mode="normal" in2="BackgroundImageFix" result="effect1_dropShadow"/>
<feBlend mode="normal" in="SourceGraphic" in2="effect1_dropShadow" result="shape"/>
</filter>
</defs>
</svg>
