<svg width="18" height="18" viewBox="0 0 18 18" fill="none" xmlns="http://www.w3.org/2000/svg">
<g clip-path="url(#clip0)">
<path d="M16.3839 7.61728L16.8483 6.27228L15.6448 5.51229L15.7093 4.09025L14.3401 3.70254L14.0015 2.32109L12.5794 2.33269L11.868 1.10093L10.5054 1.51085L9.47477 0.528755L8.28363 1.30832L7.018 0.658734L6.09469 1.74091L4.69657 1.47302L4.11699 2.77334L2.70092 2.91255L2.51156 4.32236L1.19196 4.85256L1.40431 6.25897L0.285452 7.13839L0.886106 8.42897L0.0621336 9.58965L1.00318 10.6569L0.538796 12.0019L1.74235 12.7619L1.67778 14.184L3.04706 14.5717L3.38566 15.9531L4.80776 15.9415L5.51916 17.1733L6.88173 16.7634L7.91238 17.7454L9.10349 16.9659L10.3691 17.6155L11.2924 16.5333L12.6905 16.8012L13.2701 15.5009L14.6862 15.3617L14.8756 13.9518L16.1952 13.4216L15.9828 12.0152L17.1017 11.1358L16.501 9.8452L17.325 8.68451L16.3839 7.61728ZM9.89445 15.2136C6.54384 15.8758 3.27919 13.6886 2.61702 10.338C1.95485 6.98738 4.14206 3.72274 7.49267 3.06056C10.8433 2.39839 14.1079 4.58561 14.7701 7.93622C15.4322 11.2868 13.2451 14.5515 9.89445 15.2136Z" fill="#8292A7"/>
<path d="M9.81868 4.0805C7.03051 3.46007 4.25745 5.22365 3.63703 8.01179C3.0166 10.7999 4.78015 13.573 7.56832 14.1934C10.3565 14.8139 13.1295 13.0503 13.75 10.2621C14.3704 7.47401 12.6068 4.70092 9.81868 4.0805ZM5.89932 10.2796L5.02824 9.2202L5.01933 10.2722L4.25848 10.2657L4.2781 7.95005L4.91986 7.95548L5.79093 9.01494L5.79984 7.96295L6.5607 7.96936L6.54108 10.2851L5.89932 10.2796ZM7.08355 10.2897L7.10314 7.97397L8.98548 7.98988L8.98051 8.57872L7.86566 8.56928L7.8634 8.84055L8.84259 8.84882L8.8378 9.41121L7.85862 9.4029L7.85605 9.70727L9.01392 9.71705L9.00895 10.3059L7.08355 10.2897ZM12.4692 10.3352L11.6322 10.3281L11.2688 9.08772L10.8647 10.3216L10.0277 10.3145L9.30628 7.99258L10.1102 7.9994L10.5026 9.31945L10.9405 8.00644L11.6584 8.01252L12.0507 9.34911L12.4887 8.01953L13.2297 8.02578L12.4692 10.3352Z" fill="#8292A7"/>
</g>
<defs>
<clipPath id="clip0">
<rect width="18" height="18" fill="white"/>
</clipPath>
</defs>
</svg>
