<svg width="26" height="26" viewBox="0 0 26 26" fill="none" xmlns="http://www.w3.org/2000/svg">
<path d="M8.66493 25C3.74771 22.2287 2.45311 19.6056 3.19327 16.023C3.73969 13.3775 5.52891 11.2252 5.70047 8.5849C6.46477 9.97578 6.78413 10.9787 6.86953 12.4322C9.30039 9.4539 10.9067 5.33092 11.0019 1C11.0019 1 17.3334 4.7202 17.7488 10.3396C18.2939 9.18134 18.5683 7.34176 18.0232 6.14952C19.6583 7.34182 29.2291 17.9263 16.7268 25C19.0774 20.4232 17.3332 14.2478 13.2521 11.3956C13.5246 12.622 13.0468 17.1961 11.2412 19.2059C11.7415 15.8476 10.7652 14.4276 10.7652 14.4276C10.7652 14.4276 10.4301 16.3087 9.13007 18.2089C7.94287 19.9441 7.12027 21.7858 8.66493 25Z" fill="#FFC400"/>
<path d="M16.3351 8.38949C16.2844 8.23537 16.1406 8.13154 15.9787 8.13154L9.87327 8.12964C9.71115 8.12964 9.56751 8.23385 9.51683 8.38778C9.46635 8.5419 9.52064 8.71107 9.65133 8.80709L12.7115 11.0539C12.7776 11.1025 12.8555 11.1267 12.9334 11.1267C13.0115 11.1267 13.0898 11.1023 13.1559 11.0534L16.2014 8.80842C16.3317 8.7124 16.3858 8.54342 16.3351 8.38949Z" fill="#FFC400"/>
</svg>
