<svg width="46" height="46" viewBox="0 0 46 46" fill="none" xmlns="http://www.w3.org/2000/svg">
<path d="M38.6596 38.0519L38.8049 38.1972L38.9462 38.048C42.6455 34.1428 44.7747 29.0105 44.9263 23.6335L44.9321 23.4278H44.7264H40.5936H40.4005L40.3937 23.6208C40.2472 27.8046 38.5921 31.7941 35.7339 34.8529L35.6019 34.9942L35.7386 35.1309L38.6596 38.0519ZM5.33392 22.5978L5.59613 22.6981L5.60526 22.4175C5.74197 18.219 7.39818 14.2128 10.2661 11.1435L10.3981 11.0022L10.2614 10.8655L7.34043 7.94452L7.19513 7.79921L7.05381 7.9484C3.34673 11.862 1.21669 17.0076 1.07299 22.3963L1.06539 22.6813L1.33598 22.5914C1.37645 22.578 1.41874 22.5708 1.46139 22.57H5.1887C5.23837 22.5706 5.28753 22.58 5.33392 22.5978ZM34.854 10.2665L34.9953 10.3985L35.132 10.2617L38.053 7.33931L38.1982 7.194L38.0491 7.05272C34.1438 3.35357 29.0116 1.22439 23.6346 1.07263L23.4289 1.06682V1.27255V5.40572V5.59884L23.6219 5.6056C27.8059 5.75215 31.7955 7.40769 34.854 10.2665ZM22.3781 5.6056L22.5711 5.59885V5.40572V1.27255V1.06683L22.3655 1.07263C16.9884 1.22425 11.8562 3.35346 7.95092 7.05272L7.80174 7.19404L7.94704 7.33934L10.868 10.2603L11.0048 10.3971L11.146 10.265C14.2047 7.40678 18.1943 5.75176 22.3781 5.6056ZM23 6.44844L22.9998 6.44844C18.6116 6.45335 14.4046 8.19872 11.3016 11.3016C8.19873 14.4046 6.45336 18.6116 6.44845 22.9998V23C6.44845 26.2736 7.41918 29.4737 9.23789 32.1956C11.0566 34.9174 13.6416 37.0389 16.666 38.2917C19.6904 39.5444 23.0184 39.8722 26.2291 39.2335C29.4397 38.5949 32.389 37.0185 34.7037 34.7037C37.0185 32.3889 38.5949 29.4397 39.2335 26.229C39.8722 23.0184 39.5444 19.6904 38.2917 16.666C37.0389 13.6416 34.9175 11.0566 32.1956 9.23788C29.4737 7.41917 26.2736 6.44844 23 6.44844ZM10.7803 35.8253L8.00262 38.6036C7.99103 38.6143 7.97882 38.6242 7.96605 38.6334L7.77026 38.7747L7.94549 38.9408C11.8514 42.6429 16.986 44.7738 22.3655 44.9252L22.5711 44.931V44.7253V40.5925V40.3994L22.3781 40.3926C18.1901 40.2458 14.197 38.5875 11.1371 35.7243L10.9647 35.563L10.834 35.7595C10.8184 35.783 10.8005 35.8049 10.7807 35.8249C10.7805 35.825 10.7804 35.8251 10.7803 35.8253ZM23.6219 40.3926L23.4289 40.3994V40.5925V44.7253V44.931L23.6346 44.9252C29.0116 44.7735 34.1438 42.6443 38.0491 38.9451L38.1983 38.8038L38.053 38.6585L35.132 35.7375L34.9953 35.6008L34.854 35.7328C31.7954 38.5912 27.8058 40.2463 23.6219 40.3926ZM44.7264 22.57H44.9321L44.9263 22.3644C44.7745 16.9874 42.6454 11.8552 38.9462 7.94984L38.8049 7.80065L38.6596 7.94595L35.7386 10.867L35.6019 11.0037L35.7339 11.1449C38.5921 14.2037 40.2472 18.1932 40.3937 22.377L40.4005 22.57H40.5936H44.7264ZM1.33598 23.4064L1.06537 23.3165L1.07299 23.6015C1.21714 28.9925 3.34922 34.1399 7.05925 38.0538L7.22658 38.2303L7.36745 38.032C7.37632 38.0196 7.38597 38.0076 7.39634 37.9963L10.1737 35.2186C10.1938 35.1987 10.2158 35.1807 10.2394 35.165L10.436 35.0342L10.2746 34.8618C7.40122 31.7921 5.74126 27.7828 5.60383 23.5803L5.59465 23.2998L5.33249 23.4001C5.28609 23.4178 5.23693 23.4272 5.18727 23.4278H1.46139C1.41874 23.4271 1.37646 23.4199 1.33598 23.4064ZM10.333 4.04249C14.0824 1.53722 18.4905 0.200022 22.9999 0.2C29.0447 0.206914 34.84 2.61128 39.1144 6.88563C43.3888 11.16 45.7931 16.9553 45.8 23.0002C45.8 27.5096 44.4628 31.9176 41.9575 35.667C39.4522 39.4164 35.8913 42.3388 31.7252 44.0645C27.559 45.7901 22.9747 46.2416 18.552 45.3619C14.1292 44.4822 10.0666 42.3107 6.87798 39.122C3.68934 35.9334 1.51785 31.8708 0.638106 27.4481C-0.241637 23.0253 0.209879 18.441 1.93556 14.2748C3.66124 10.1087 6.58357 6.54779 10.333 4.04249Z" fill="white" stroke="#AAFF5C" stroke-width="0.4"/>
<path d="M8.07192 38.6758L10.8512 35.8958L8.07192 38.6758ZM8.07192 38.6758C8.05693 38.6896 8.04112 38.7026 8.02456 38.7145L7.92667 38.7851L8.01428 38.8682C11.9023 42.5534 17.0134 44.6745 22.3683 44.8253L22.4711 44.8282V44.7253V40.5925V40.4959L22.3746 40.4925C18.1625 40.3449 14.1463 38.677 11.0688 35.7973L10.9826 35.7166L10.9172 35.8149C10.898 35.8439 10.8759 35.8709 10.8514 35.8955L8.07192 38.6758ZM1.16914 23.4564L1.30445 23.5013C1.35481 23.518 1.40743 23.527 1.46049 23.5278H5.18782C5.24951 23.5271 5.31059 23.5155 5.36821 23.4935L5.49929 23.4433L5.50388 23.5836C5.64211 27.8103 7.31164 31.8427 10.2016 34.9301L10.2823 35.0163L10.184 35.0817C10.1551 35.101 10.1281 35.123 10.1034 35.1475L1.16914 23.4564ZM1.16914 23.4564L1.17295 23.5989C1.31644 28.9652 3.43877 34.089 7.13182 37.985L7.21549 38.0733L7.28592 37.9741C7.29764 37.9576 7.31041 37.9419 7.32417 37.9271C7.32454 37.9267 7.32492 37.9263 7.32529 37.9259L10.1032 35.1477L1.16914 23.4564ZM38.7303 37.9812L38.803 38.0538L38.8736 37.9792C42.556 34.0919 44.6754 28.9831 44.8263 23.6306L44.8292 23.5278H44.7264H40.5936H40.497L40.4936 23.6243C40.3463 27.8322 38.6816 31.8448 35.8069 34.9212L35.7409 34.9918L35.8093 35.0602L38.7303 37.9812ZM5.36965 22.5044L5.50075 22.5545L5.50532 22.4142C5.64281 18.1915 7.30857 14.1623 10.1931 11.0752L10.2591 11.0046L10.1907 10.9362L7.26972 8.01523L7.19707 7.94257L7.12641 8.01717C3.43629 11.9129 1.316 17.0349 1.17295 22.399L1.16915 22.5415L1.30445 22.4965C1.35481 22.4798 1.40743 22.4709 1.46049 22.47H5.18926C5.25095 22.4707 5.31202 22.4823 5.36965 22.5044ZM34.9223 10.1934L34.9929 10.2595L35.0613 10.1911L37.9823 7.26861L38.0549 7.19596L37.9803 7.12532C34.0929 3.4431 28.9841 1.32365 23.6317 1.17259L23.5289 1.16968V1.27255V5.40572V5.50228L23.6254 5.50566C27.8335 5.65305 31.8461 7.31814 34.9223 10.1934ZM22.3746 5.50566L22.4711 5.50229V5.40572V1.27255V1.16969L22.3683 1.17259C17.0159 1.32352 11.9071 3.44298 8.01969 7.12532L7.9451 7.19598L8.01775 7.26863L10.9388 10.1896L11.0071 10.258L11.0777 10.192C14.1541 7.31723 18.1667 5.65266 22.3746 5.50566ZM23 6.54844H22.9999C18.6382 6.55332 14.4565 8.28816 11.3724 11.3723C8.28817 14.4565 6.55333 18.6382 6.54845 22.9999V23C6.54845 26.2538 7.51332 29.4346 9.32104 32.14C11.1288 34.8454 13.6981 36.9541 16.7043 38.1993C19.7104 39.4444 23.0183 39.7702 26.2096 39.1355C29.4008 38.5007 32.3322 36.9338 34.633 34.633C36.9338 32.3322 38.5007 29.4008 39.1355 26.2095C39.7702 23.0182 39.4445 19.7104 38.1993 16.7043C36.9541 13.6981 34.8455 11.1287 32.14 9.32103C29.4346 7.5133 26.2538 6.54844 23 6.54844ZM23.6254 40.4925L23.5289 40.4959V40.5925V44.7253V44.8282L23.6317 44.8253C28.9841 44.6742 34.0929 42.5547 37.9803 38.8725L38.0549 38.8019L37.9823 38.7292L35.0613 35.8082L34.9929 35.7399L34.9223 35.8059C31.846 38.6807 27.8334 40.3454 23.6254 40.4925ZM44.7264 22.47H44.8293L44.8263 22.3672C44.6753 17.0148 42.5558 11.9061 38.8736 8.01861L38.803 7.94401L38.7303 8.01666L35.8093 10.9377L35.7409 11.006L35.8069 11.0766C38.6816 14.1531 40.3463 18.1656 40.4936 22.3735L40.497 22.47H40.5936H44.7264ZM10.2775 3.95935C14.0433 1.44307 18.4708 0.100011 23 0.1C29.0713 0.106929 34.892 2.52183 39.1851 6.81492C43.4782 11.108 45.8931 16.9287 45.9 23.0001C45.9 27.5293 44.5569 31.9567 42.0407 35.7226C39.5244 39.4884 35.9479 42.4236 31.7635 44.1568C27.579 45.8901 22.9746 46.3436 18.5324 45.46C14.0903 44.5764 10.0099 42.3954 6.80727 39.1927C3.60464 35.9901 1.42363 31.9097 0.540027 27.4676C-0.343574 23.0254 0.109922 18.421 1.84317 14.2365C3.57642 10.0521 6.51157 6.47563 10.2775 3.95935Z" stroke="#17E200" stroke-width="0.2"/>
<path d="M14.0597 19.5447L14.0597 19.5447L14.0601 19.5444C14.1384 19.5026 14.2278 19.4861 14.3158 19.4974C14.4038 19.5087 14.4862 19.5471 14.5514 19.6073L14.5516 19.6076L19.8147 24.4519L20.0049 24.6271L20.1266 24.3989L22.6214 19.7213C22.6214 19.7213 22.6214 19.7213 22.6214 19.7213C22.658 19.6527 22.7125 19.5954 22.7791 19.5554C22.8458 19.5154 22.9221 19.4943 22.9998 19.4943C23.0775 19.4943 23.1538 19.5154 23.2204 19.5554C23.2871 19.5954 23.3416 19.6527 23.3782 19.7213C23.3782 19.7213 23.3782 19.7213 23.3782 19.7213L25.873 24.3989L25.9947 24.6271L26.1849 24.4519L31.4465 19.6076C31.4465 19.6076 31.4465 19.6076 31.4465 19.6076C31.5119 19.5474 31.5943 19.5091 31.6824 19.4978C31.7705 19.4865 31.8599 19.5029 31.9383 19.5446C32.0168 19.5863 32.0803 19.6514 32.1201 19.7307C32.16 19.8101 32.1743 19.8999 32.1609 19.9877L30.364 31.8022L30.364 31.8023C30.3486 31.9037 30.2974 31.9963 30.2196 32.0631C30.1419 32.13 30.0427 32.1667 29.9401 32.1667H29.94H16.0582C15.9556 32.1666 15.8564 32.1298 15.7786 32.0629L15.6483 32.2146L15.7786 32.0629C15.7009 31.9961 15.6496 31.9036 15.6341 31.8022C15.6341 31.8022 15.6341 31.8021 15.6341 31.8021L13.8372 19.9877L13.8372 19.9877C13.8238 19.8999 13.8381 19.8101 13.8779 19.7307C13.9178 19.6514 13.9813 19.5863 14.0597 19.5447ZM19.8323 25.6337L19.8322 25.6336L15.2875 21.4515L14.8688 21.0661L14.9544 21.6288L16.402 31.1389L16.4278 31.3088H16.5997H29.3999H29.5717L29.5976 31.1389L31.0452 21.6288L31.1308 21.0661L30.712 21.4515L26.1674 25.6336L26.1673 25.6337C26.1191 25.6781 26.0614 25.7108 25.9986 25.7294C25.9358 25.748 25.8696 25.752 25.805 25.741C25.7404 25.7301 25.6792 25.7044 25.6261 25.6661C25.573 25.6278 25.5294 25.5778 25.4986 25.52L25.4985 25.5199L23.1763 21.1653L22.9998 20.8344L22.8233 21.1653L20.501 25.5199L20.501 25.52C20.4702 25.5778 20.4266 25.6278 20.3734 25.6661C20.3203 25.7044 20.2591 25.7301 20.1946 25.741C20.13 25.752 20.0638 25.748 20.001 25.7294L19.9441 25.9212L20.001 25.7294C19.9382 25.7108 19.8805 25.6781 19.8323 25.6337Z" fill="#E4FFA3" stroke="#FFEC4A" stroke-width="0.4"/>
<path d="M22.9999 14.692L22.9998 14.692C22.6312 14.6922 22.2777 14.8387 22.017 15.0993C21.7563 15.36 21.6097 15.7134 21.6093 16.082L21.6093 16.0822C21.6092 16.3572 21.6907 16.6261 21.8435 16.8548C21.9962 17.0836 22.2134 17.2619 22.4675 17.3672C22.7216 17.4725 23.0012 17.5001 23.271 17.4465C23.5408 17.3929 23.7886 17.2605 23.9831 17.066C24.1776 16.8716 24.3101 16.6238 24.3638 16.354C24.4175 16.0843 24.39 15.8046 24.2847 15.5505C24.1795 15.2964 24.0013 15.0792 23.7726 14.9264C23.5439 14.7735 23.275 14.692 22.9999 14.692ZM24.2491 17.9517C23.8794 18.1987 23.4448 18.3306 23.0002 18.3306C22.404 18.3299 21.8325 18.0928 21.4109 17.6712C20.9894 17.2497 20.7522 16.6782 20.7515 16.0821C20.7515 15.6374 20.8834 15.2028 21.1304 14.8331C21.3775 14.4633 21.7287 14.1751 22.1395 14.0049C22.5504 13.8348 23.0024 13.7902 23.4386 13.877C23.8747 13.9637 24.2754 14.1779 24.5898 14.4923C24.9043 14.8068 25.1184 15.2074 25.2052 15.6436C25.2919 16.0797 25.2474 16.5318 25.0772 16.9426C24.907 17.3535 24.6189 17.7046 24.2491 17.9517Z" fill="#E4FFA3" stroke="#FFEC4A" stroke-width="0.4"/>
<path d="M31.7387 14.692H31.7386C31.3698 14.692 31.016 14.8384 30.7551 15.099C30.4941 15.3596 30.3473 15.7132 30.3469 16.082L30.3469 16.0822C30.3468 16.3572 30.4282 16.626 30.5809 16.8547C30.7336 17.0834 30.9507 17.2617 31.2047 17.3671C31.4588 17.4724 31.7383 17.5001 32.0081 17.4466C32.2778 17.3931 32.5256 17.2608 32.7202 17.0665C32.9148 16.8721 33.0474 16.6245 33.1012 16.3548C33.155 16.0851 33.1277 15.8055 33.0226 15.5514C32.9176 15.2972 32.7396 15.0799 32.511 14.927C32.2825 14.774 32.0137 14.6922 31.7387 14.692ZM32.9874 17.9512C32.6178 18.1984 32.1832 18.3304 31.7386 18.3306C31.1423 18.3302 30.5705 18.0932 30.1488 17.6716C29.7271 17.25 29.4898 16.6784 29.4891 16.0821C29.4891 15.6375 29.6209 15.2029 29.8679 14.8332C30.1149 14.4634 30.466 14.1752 30.8768 14.005C31.2876 13.8348 31.7396 13.7902 32.1758 13.8769C32.6119 13.9636 33.0125 14.1776 33.327 14.492C33.6415 14.8063 33.8557 15.2069 33.9426 15.643C34.0295 16.079 33.9851 16.5311 33.815 16.942C33.645 17.3528 33.357 17.704 32.9874 17.9512Z" fill="#E4FFA3" stroke="#FFEC4A" stroke-width="0.4"/>
<path d="M14.2612 14.692L14.261 14.692C13.8924 14.6922 13.5389 14.8387 13.2782 15.0993C13.0175 15.36 12.8709 15.7134 12.8706 16.082L12.8706 16.0822C12.8705 16.3572 12.952 16.6261 13.1047 16.8548C13.2575 17.0836 13.4746 17.2619 13.7287 17.3672C13.9828 17.4725 14.2624 17.5001 14.5322 17.4465C14.802 17.3929 15.0498 17.2605 15.2443 17.066C15.4388 16.8716 15.5713 16.6238 15.625 16.354C15.6787 16.0843 15.6512 15.8046 15.546 15.5505C15.4407 15.2964 15.2625 15.0792 15.0338 14.9264C14.8051 14.7735 14.5362 14.692 14.2612 14.692ZM15.5103 17.9517C15.1406 18.1987 14.706 18.3306 14.2614 18.3306C13.6652 18.3299 13.0937 18.0928 12.6721 17.6712C12.2506 17.2497 12.0135 16.6782 12.0127 16.0821C12.0128 15.6374 12.1446 15.2028 12.3917 14.8331C12.6387 14.4633 12.9899 14.1751 13.4007 14.0049C13.8116 13.8348 14.2637 13.7902 14.6998 13.877C15.136 13.9637 15.5366 14.1779 15.851 14.4923C16.1655 14.8068 16.3796 15.2074 16.4664 15.6436C16.5531 16.0797 16.5086 16.5318 16.3384 16.9426C16.1683 17.3535 15.8801 17.7046 15.5103 17.9517Z" fill="#E4FFA3" stroke="#FFEC4A" stroke-width="0.4"/>
<path d="M14.0101 19.4564L14.0101 19.4564C13.9134 19.5078 13.835 19.588 13.7859 19.6858C13.7367 19.7837 13.7192 19.8945 13.7357 20.0027L13.7357 20.0028L15.5326 31.8172C15.5326 31.8172 15.5326 31.8172 15.5326 31.8172C15.5516 31.9423 15.6149 32.0563 15.7108 32.1388C15.8067 32.2212 15.929 32.2666 16.0555 32.2667H29.9373H29.9374C30.0639 32.2667 30.1862 32.2214 30.2821 32.1389C30.3781 32.0565 30.4412 31.9424 30.4602 31.8173L30.4602 31.8172L32.2571 20.0028C32.2735 19.8945 32.256 19.7837 32.2068 19.6859C32.1577 19.588 32.0793 19.5078 31.9826 19.4563C31.8859 19.4049 31.7756 19.3847 31.667 19.3986C31.5583 19.4125 31.4567 19.4598 31.3761 19.534L26.1145 24.3784L26.0194 24.4659L25.9585 24.3519L23.4637 19.6742C23.4186 19.5897 23.3514 19.519 23.2692 19.4696M14.0101 19.4564L23.2692 19.4696M14.0101 19.4564L14.0103 19.4562M14.0101 19.4564L14.0103 19.4562M23.2692 19.4696C23.187 19.4203 23.0929 19.3943 22.9971 19.3943C22.9012 19.3943 22.8072 19.4203 22.725 19.4696C22.6428 19.519 22.5756 19.5897 22.5305 19.6742L20.0357 24.3519M23.2692 19.4696L20.0357 24.3519M14.0103 19.4562C14.1069 19.4046 14.2172 19.3843 14.3258 19.3982C14.4345 19.4121 14.5361 19.4595 14.6165 19.5339L14.6167 19.534L19.8797 24.3784L19.9748 24.4659M14.0103 19.4562L19.9748 24.4659M19.9748 24.4659L20.0357 24.3519M19.9748 24.4659L20.0357 24.3519M19.7619 25.7072L19.7618 25.7072L15.2171 21.5251L15.0077 21.3324L15.0506 21.6137L16.4981 31.1239L16.5111 31.2088H16.597H29.3972H29.4831L29.4961 31.1239L30.9436 21.6137L30.9864 21.3324L30.777 21.5251L26.2324 25.7072L26.2323 25.7072C26.1729 25.762 26.1018 25.8024 26.0243 25.8253C25.9469 25.8483 25.8652 25.8532 25.7856 25.8396C25.7059 25.8261 25.6304 25.7945 25.5649 25.7472C25.4994 25.6999 25.4456 25.6383 25.4076 25.567L25.4076 25.5669L23.0853 21.2124L22.9971 21.0469L22.9089 21.2124L20.5866 25.5669L20.5866 25.567C20.5486 25.6383 20.4948 25.6999 20.4293 25.7472C20.3637 25.7945 20.2883 25.8261 20.2086 25.8396C20.129 25.8532 20.0473 25.8483 19.9699 25.8253C19.8924 25.8024 19.8213 25.762 19.7619 25.7072Z" stroke="#FFC400" stroke-width="0.2"/>
<path d="M22.9973 14.792H22.9972C22.655 14.7922 22.327 14.9281 22.085 15.17C21.843 15.4119 21.707 15.74 21.7066 16.0821V16.0822C21.7066 16.3375 21.7822 16.587 21.924 16.7993C22.0657 17.0116 22.2673 17.1771 22.5031 17.2748C22.7389 17.3726 22.9984 17.3982 23.2488 17.3484C23.4992 17.2987 23.7292 17.1758 23.9097 16.9953C24.0903 16.8148 24.2132 16.5849 24.263 16.3345C24.3129 16.0841 24.2873 15.8246 24.1897 15.5888C24.092 15.3529 23.9266 15.1513 23.7143 15.0095C23.5021 14.8677 23.2525 14.792 22.9973 14.792ZM24.302 18.0349C23.9158 18.2929 23.4618 18.4306 22.9974 18.4306C22.3747 18.4299 21.7778 18.1822 21.3375 17.742C20.8972 17.3017 20.6496 16.7047 20.6488 16.0821L20.5488 16.0822H20.6488C20.6488 15.6177 20.7866 15.1637 21.0446 14.7775C21.3027 14.3913 21.6694 14.0903 22.0986 13.9126C22.5277 13.7348 22.9999 13.6883 23.4554 13.7789C23.911 13.8695 24.3294 14.0932 24.6578 14.4216C24.9863 14.7501 25.2099 15.1685 25.3006 15.6241C25.3912 16.0796 25.3447 16.5518 25.1669 16.9809C24.9892 17.41 24.6882 17.7768 24.302 18.0349Z" stroke="#FFC400" stroke-width="0.2"/>
<path d="M31.736 14.792H31.7359C31.3936 14.792 31.0653 14.9278 30.8231 15.1697C30.5809 15.4116 30.4446 15.7398 30.4442 16.0821V16.0822C30.4441 16.3374 30.5197 16.5869 30.6614 16.7992C30.8031 17.0115 31.0046 17.1769 31.2404 17.2747C31.4761 17.3725 31.7356 17.3982 31.9859 17.3485C32.2363 17.2989 32.4663 17.1761 32.6468 16.9957C32.8274 16.8154 32.9505 16.5855 33.0004 16.3352C33.0504 16.0849 33.025 15.8254 32.9275 15.5896C32.83 15.3537 32.6648 15.152 32.4527 15.0101C32.2406 14.8681 31.9912 14.7922 31.736 14.792ZM33.0403 18.0343C32.6542 18.2925 32.2003 18.4304 31.7359 18.4306C31.1131 18.4302 30.5159 18.1826 30.0754 17.7423C29.6349 17.302 29.3871 16.7049 29.3864 16.0821L29.2864 16.0822H29.3864C29.3864 15.6178 29.5241 15.1638 29.7821 14.7776C30.0401 14.3914 30.4068 14.0904 30.8359 13.9127C31.2649 13.7349 31.7371 13.6883 32.1926 13.7788C32.6481 13.8694 33.0665 14.0929 33.395 14.4213C33.7235 14.7496 33.9472 15.1679 34.038 15.6234C34.1287 16.0789 34.0823 16.5511 33.9048 16.9802C33.7272 17.4093 33.4263 17.7762 33.0403 18.0343Z" stroke="#FFC400" stroke-width="0.2"/>
<path d="M14.2585 14.792H14.2584C13.9163 14.7922 13.5882 14.9281 13.3462 15.17C13.1043 15.4119 12.9682 15.74 12.9679 16.0821V16.0822C12.9678 16.3375 13.0434 16.587 13.1852 16.7993C13.327 17.0116 13.5285 17.1771 13.7643 17.2748C14.0001 17.3726 14.2596 17.3982 14.51 17.3484C14.7604 17.2987 14.9904 17.1758 15.1709 16.9953C15.3515 16.8148 15.4744 16.5849 15.5243 16.3345C15.5741 16.0841 15.5486 15.8246 15.4509 15.5888C15.3532 15.3529 15.1878 15.1513 14.9755 15.0095C14.7633 14.8677 14.5138 14.792 14.2585 14.792ZM15.5632 18.0349C15.177 18.2929 14.723 18.4306 14.2586 18.4306C13.636 18.4299 13.039 18.1822 12.5987 17.742C12.1585 17.3017 11.9108 16.7047 11.9101 16.0821L11.8101 16.0822H11.9101C11.9101 15.6177 12.0478 15.1637 12.3058 14.7775C12.5639 14.3913 12.9307 14.0903 13.3598 13.9126C13.7889 13.7348 14.2611 13.6883 14.7166 13.7789C15.1722 13.8695 15.5906 14.0932 15.9191 14.4216C16.2475 14.7501 16.4712 15.1685 16.5618 15.6241C16.6524 16.0796 16.6059 16.5518 16.4281 16.9809C16.2504 17.41 15.9494 17.7768 15.5632 18.0349Z" stroke="#FFC400" stroke-width="0.2"/>
</svg>
