<svg width="110" height="107" viewBox="0 0 110 107" fill="none" xmlns="http://www.w3.org/2000/svg">
<path d="M18.0769 82.0722C17.6476 81.3265 16.6759 81.078 15.9302 81.5073L11.9984 83.7896V79.2476C11.9984 78.389 11.2979 77.6885 10.4393 77.6885C9.5806 77.6885 8.8801 78.389 8.8801 79.2476V83.7896L4.9483 81.5073C4.20261 81.078 3.23096 81.3265 2.80162 82.0722C2.37229 82.8179 2.62085 83.7895 3.36654 84.2189L7.32094 86.5237L3.36654 88.8286C2.62085 89.2579 2.37229 90.2296 2.80162 90.9753C3.23096 91.7209 4.20261 91.9695 4.9483 91.5402L8.8801 89.2579V93.7998C8.8801 94.6585 9.5806 95.359 10.4393 95.359C11.2979 95.359 11.9984 94.6585 11.9984 93.7998V89.2579L15.9302 91.5402C16.6759 91.9695 17.6476 91.7209 18.0769 90.9753C18.5062 90.2296 18.2577 89.2579 17.512 88.8286L13.5576 86.5237L17.512 84.2189C18.2577 83.767 18.5288 82.8179 18.0769 82.0722Z" fill="#EB8106"/>
<path d="M32.516 90.9548C32.9453 91.7004 33.917 91.949 34.6627 91.5197L38.5945 89.2374V93.7793C38.5945 94.638 39.295 95.3385 40.1536 95.3385C41.0123 95.3385 41.7128 94.638 41.7128 93.7793V89.2374L45.6446 91.5197C46.3903 91.949 47.3619 91.7004 47.7913 90.9548C48.2206 90.2091 47.972 89.2374 47.2263 88.8081L43.2719 86.5032L47.2263 84.1984C47.972 83.769 48.2206 82.7974 47.7913 82.0517C47.3619 81.306 46.3903 81.0575 45.6446 81.4868L41.7128 83.769V79.2271C41.7128 78.3685 41.0123 77.668 40.1536 77.668C39.295 77.668 38.5945 78.3685 38.5945 79.2271V83.769L34.6627 81.5094C33.917 81.0801 32.9453 81.3286 32.516 82.0743C32.0866 82.82 32.3352 83.7916 33.0809 84.221L37.0353 86.5258L33.0809 88.8081C32.3352 89.2374 32.0866 90.2091 32.516 90.9548Z" fill="#EB8106"/>
<path d="M29.7139 102.794V105.551C29.7139 106.206 30.2562 106.749 30.9115 106.749H49.4181C50.0734 106.749 50.6158 106.206 50.6158 105.551V102.794C50.6158 102.139 50.0734 101.597 49.4181 101.597H30.9115C30.2337 101.597 29.7139 102.139 29.7139 102.794Z" fill="#EB8106"/>
<path d="M74.8173 25.7401H74.6817V19.5939C74.6817 8.9057 65.9368 -0.17812 55.2712 0.00265261C44.8994 0.183425 36.4935 8.67974 36.4935 19.0968V19.6843C36.4935 20.5655 37.2166 21.2886 38.0978 21.2886H43.2273C44.1085 21.2886 44.8316 20.5655 44.8316 19.6843V19.5035C44.8316 13.764 49.1476 8.72493 54.8871 8.36339C61.1237 7.97924 66.321 12.9279 66.321 19.0742V25.7176H50.5034V25.7401H35.8834C33.1718 25.8305 30.9799 28.0224 30.9799 30.7566V58.5504C30.9799 61.3297 33.2396 63.5894 36.019 63.5894H74.7947C77.5741 63.5894 79.8337 61.3297 79.8337 58.5504V30.7792C79.8563 27.9998 77.5966 25.7401 74.8173 25.7401ZM58.4122 45.9189C58.028 46.19 57.915 46.4838 57.915 46.9357C57.9376 48.9694 57.9376 51.0031 57.915 53.0594C57.9602 53.9181 57.5309 54.7316 56.7626 55.1157C54.9775 56.0196 53.1923 54.7541 53.1923 53.0594C53.1923 53.0594 53.1923 53.0594 53.1923 53.0368C53.1923 51.0031 53.1923 48.9468 53.1923 46.9131C53.1923 46.5064 53.102 46.2126 52.7404 45.9415C50.8875 44.5857 50.2774 42.2582 51.2039 40.202C52.1077 38.2135 54.2996 37.0384 56.3559 37.4678C58.6607 37.9197 60.2651 39.7952 60.2877 42.0775C60.3555 43.6818 59.7002 44.9924 58.4122 45.9189Z" fill="#EB8106"/>
<path d="M59.4061 102.794V105.551C59.4061 106.206 59.9484 106.749 60.6038 106.749H79.1103C79.7656 106.749 80.308 106.206 80.308 105.551V102.794C80.308 102.139 79.7656 101.597 79.1103 101.597H60.6038C59.9484 101.597 59.4061 102.139 59.4061 102.794Z" fill="#EB8106"/>
<path d="M62.2078 90.9548C62.6371 91.7004 63.6087 91.949 64.3544 91.5197L68.2862 89.2374V93.7793C68.2862 94.638 68.9867 95.3385 69.8454 95.3385C70.7041 95.3385 71.4046 94.638 71.4046 93.7793V89.2374L75.3364 91.5197C76.082 91.949 77.0537 91.7004 77.483 90.9548C77.9124 90.2091 77.6638 89.2374 76.9181 88.8081L72.9637 86.5032L76.9181 84.1984C77.6638 83.769 77.9124 82.7974 77.483 82.0517C77.0537 81.306 76.082 81.0575 75.3364 81.4868L71.4046 83.769V79.2271C71.4046 78.3685 70.7041 77.668 69.8454 77.668C68.9867 77.668 68.2862 78.3685 68.2862 79.2271V83.769L64.3544 81.4868C63.6087 81.0575 62.6371 81.306 62.2078 82.0517C61.7784 82.7974 62.027 83.769 62.7727 84.1984L66.7271 86.5032L62.7727 88.8081C62.027 89.2374 61.7784 90.2091 62.2078 90.9548Z" fill="#EB8106"/>
<path d="M108.802 101.597H90.2955C89.6402 101.597 89.0979 102.139 89.0979 102.794V105.551C89.0979 106.206 89.6402 106.749 90.2955 106.749H108.802C109.457 106.749 110 106.206 110 105.551V102.794C110 102.139 109.457 101.597 108.802 101.597Z" fill="#EB8106"/>
<path d="M1.19713 106.749H19.7037C20.359 106.749 20.9013 106.206 20.9013 105.551V102.794C20.9013 102.139 20.359 101.597 19.7037 101.597H1.19713C0.541829 101.597 -0.000488281 102.139 -0.000488281 102.794V105.551C-0.000488281 106.206 0.541829 106.749 1.19713 106.749Z" fill="#EB8106"/>
<path d="M91.9221 90.9548C92.3515 91.7004 93.3231 91.949 94.0688 91.5197L98.0006 89.2374V93.7793C98.0006 94.638 98.7011 95.3385 99.5598 95.3385C100.418 95.3385 101.119 94.638 101.119 93.7793V89.2374L105.051 91.5197C105.796 91.949 106.768 91.7004 107.197 90.9548C107.627 90.2091 107.378 89.2374 106.633 88.8081L102.678 86.5032L106.633 84.1984C107.378 83.769 107.627 82.7974 107.197 82.0517C106.768 81.306 105.796 81.0575 105.051 81.4868L101.119 83.769V79.2271C101.119 78.3685 100.418 77.668 99.5598 77.668C98.7011 77.668 98.0006 78.3685 98.0006 79.2271V83.769L94.0688 81.4868C93.3231 81.0575 92.3515 81.306 91.9221 82.0517C91.4928 82.7974 91.7414 83.769 92.4871 84.1984L96.4415 86.5032L92.4871 88.8081C91.7414 89.2374 91.4702 90.2091 91.9221 90.9548Z" fill="#EB8106"/>
</svg>
