<svg width="26" height="26" viewBox="0 0 26 26" fill="none" xmlns="http://www.w3.org/2000/svg">
<path d="M9.19141 9.95312C8.63698 9.95312 8.11726 10.1027 7.66896 10.3625C7.20895 10.0963 6.68448 9.95312 6.14453 9.95312C4.46439 9.95312 3.09766 11.3199 3.09766 13C3.09766 14.6801 4.46439 16.0469 6.14453 16.0469C6.68448 16.0469 7.20895 15.9037 7.66896 15.6375C8.11726 15.8973 8.63698 16.0469 9.19141 16.0469C10.8716 16.0469 12.2383 14.6801 12.2383 13C12.2383 11.3199 10.8716 9.95312 9.19141 9.95312ZM4.62109 13C4.62109 12.1599 5.30446 11.4766 6.14453 11.4766C6.27446 11.4766 6.4026 11.4934 6.52638 11.5254C6.28339 11.9628 6.14453 12.4654 6.14453 13C6.14453 13.5346 6.28339 14.0372 6.52638 14.4746C6.4026 14.5066 6.27446 14.5234 6.14453 14.5234C5.30446 14.5234 4.62109 13.8401 4.62109 13ZM9.19141 14.5234C8.35133 14.5234 7.66797 13.8401 7.66797 13C7.66797 12.1599 8.35133 11.4766 9.19141 11.4766C10.0315 11.4766 10.7148 12.1599 10.7148 13C10.7148 13.8401 10.0315 14.5234 9.19141 14.5234Z" fill="#00FE01"/>
<path d="M16.8594 19.0938V25.1875H26C26 24.8509 26 17.9071 26 17.5703H24.4766V16.0469H26V11.4766H24.4766C24.4766 10.8017 24.4766 1.19336 24.4766 0.8125H0V19.0938H16.8594ZM24.4766 23.6641H18.3828V22.1406H24.4766V23.6641ZM24.4766 19.0938V20.6172H18.3828V19.0938H24.4766ZM16.8594 17.5703V16.0469H22.9531V17.5703C22.0533 17.5703 17.5665 17.5703 16.8594 17.5703ZM24.4766 14.5234C23.7662 14.5234 19.3094 14.5234 18.3828 14.5234V13H24.4766V14.5234ZM22.9531 6.90625H1.52344V5.38281H22.9531V6.90625ZM1.52344 2.33594H22.9531V3.85938H1.52344V2.33594ZM1.52344 17.5703V8.42969H22.9531V11.4766H16.8594V14.5234H15.3359V17.5703H1.52344Z" fill="#FFC400"/>
</svg>
