<svg width="12" height="18" viewBox="0 0 12 18" fill="none" xmlns="http://www.w3.org/2000/svg">
<path d="M6.00007 18C2.69154 18 0 15.1746 0 11.7017C0 10.1882 0.493844 9.15916 1.06583 7.9677C1.38326 7.30605 1.71162 6.62201 2.01484 5.74915L2.3303 4.84099C2.79547 4.95992 2.63787 4.91968 3.10291 5.0386L2.98056 5.9962C2.88045 6.7787 3.01727 7.66626 3.35575 8.43118C3.49927 8.75569 3.67252 9.04367 3.86485 9.28304C3.79816 8.01247 3.92287 6.78777 4.2378 5.62898C4.568 4.41431 5.09775 3.29439 5.81247 2.30013C6.70202 1.06293 7.72365 0.254883 8.19737 0.188416L9.53999 0L8.63649 1.05386C8.22605 1.53246 8.00004 2.1503 8.00004 2.79355C8.00004 4.03693 8.73068 4.91927 9.57656 5.94099C10.1189 6.59592 10.7336 7.33832 11.1991 8.25032C11.7381 9.30611 12 10.435 12 11.7017C12 15.1746 9.30846 18 6.00007 18Z" fill="#8292A7"/>
</svg>
