<svg width="94" height="94" viewBox="0 0 94 94" fill="none" xmlns="http://www.w3.org/2000/svg">
<g filter="url(#filter0_d)">
<mask id="path-1-inside-1" fill="white">
<path d="M68.3202 51.9748L65.0677 49.91L65.5665 47.5678C65.6904 46.9843 65.5775 46.3753 65.2522 45.8747C64.9269 45.3746 64.4167 45.0235 63.8332 44.8993L52.8654 42.5641V42.1403C52.8654 40.8977 51.8576 39.8903 50.6151 39.8903H37.1151C35.8729 39.8903 34.8654 40.8977 34.8654 42.1403V43.665L25.7965 47.2117C24.6392 47.6648 24.0689 48.9697 24.5215 50.1268L30.3038 64.9133C30.4159 65.2005 30.6931 65.3897 31.0014 65.3899H62.0587C62.3156 65.3903 62.5547 65.259 62.6923 65.0419L69.0148 55.0815C69.3348 54.5776 69.4412 53.9666 69.3115 53.3842C69.1811 52.8015 68.8245 52.2948 68.3202 51.9748V51.9748ZM31.5128 63.8901L25.9173 49.5809C25.8436 49.3953 25.8475 49.1879 25.9274 49.0047C26.0074 48.8217 26.157 48.6783 26.3433 48.6059L34.8654 45.2758V63.1399C34.8662 63.282 34.8805 63.4236 34.908 63.5633C34.9162 63.6057 34.9307 63.6471 34.941 63.6893C34.9584 63.7566 34.9712 63.8254 34.9934 63.8901H31.5128ZM51.3651 43.1714V63.1399C51.3651 63.5543 51.0293 63.8901 50.6151 63.8901H37.1151C36.7012 63.8901 36.3654 63.5543 36.3654 63.1399V42.1403C36.3654 41.726 36.7012 41.3903 37.1151 41.3903H50.6151C51.0293 41.3903 51.3651 41.726 51.3651 42.1403V43.1714ZM60.5569 63.8901H52.7369C52.7596 63.8254 52.7723 63.7566 52.7893 63.6897C52.8 63.6471 52.8141 63.6064 52.8223 63.5633C52.8497 63.4236 52.8643 63.282 52.8654 63.1399V44.0976L63.5209 46.3674C63.9256 46.4536 64.1842 46.851 64.0986 47.2559L63.463 50.2403L60.5569 63.8901ZM67.7477 54.2776L62.3154 62.8357L64.7341 51.4753L67.5163 53.2423C67.8658 53.464 67.9696 53.9276 67.7477 54.2776V54.2776Z"/>
</mask>
<path d="M68.3202 51.9748L65.0677 49.91L65.5665 47.5678C65.6904 46.9843 65.5775 46.3753 65.2522 45.8747C64.9269 45.3746 64.4167 45.0235 63.8332 44.8993L52.8654 42.5641V42.1403C52.8654 40.8977 51.8576 39.8903 50.6151 39.8903H37.1151C35.8729 39.8903 34.8654 40.8977 34.8654 42.1403V43.665L25.7965 47.2117C24.6392 47.6648 24.0689 48.9697 24.5215 50.1268L30.3038 64.9133C30.4159 65.2005 30.6931 65.3897 31.0014 65.3899H62.0587C62.3156 65.3903 62.5547 65.259 62.6923 65.0419L69.0148 55.0815C69.3348 54.5776 69.4412 53.9666 69.3115 53.3842C69.1811 52.8015 68.8245 52.2948 68.3202 51.9748V51.9748ZM31.5128 63.8901L25.9173 49.5809C25.8436 49.3953 25.8475 49.1879 25.9274 49.0047C26.0074 48.8217 26.157 48.6783 26.3433 48.6059L34.8654 45.2758V63.1399C34.8662 63.282 34.8805 63.4236 34.908 63.5633C34.9162 63.6057 34.9307 63.6471 34.941 63.6893C34.9584 63.7566 34.9712 63.8254 34.9934 63.8901H31.5128ZM51.3651 43.1714V63.1399C51.3651 63.5543 51.0293 63.8901 50.6151 63.8901H37.1151C36.7012 63.8901 36.3654 63.5543 36.3654 63.1399V42.1403C36.3654 41.726 36.7012 41.3903 37.1151 41.3903H50.6151C51.0293 41.3903 51.3651 41.726 51.3651 42.1403V43.1714ZM60.5569 63.8901H52.7369C52.7596 63.8254 52.7723 63.7566 52.7893 63.6897C52.8 63.6471 52.8141 63.6064 52.8223 63.5633C52.8497 63.4236 52.8643 63.282 52.8654 63.1399V44.0976L63.5209 46.3674C63.9256 46.4536 64.1842 46.851 64.0986 47.2559L63.463 50.2403L60.5569 63.8901ZM67.7477 54.2776L62.3154 62.8357L64.7341 51.4753L67.5163 53.2423C67.8658 53.464 67.9696 53.9276 67.7477 54.2776V54.2776Z" fill="white" stroke="#FFEC4A" stroke-width="0.96" stroke-linejoin="round" mask="url(#path-1-inside-1)"/>
<mask id="path-2-inside-2" fill="white">
<path d="M68.3202 51.9748L65.0677 49.91L65.5665 47.5678C65.6904 46.9843 65.5775 46.3753 65.2522 45.8747C64.9269 45.3746 64.4167 45.0235 63.8332 44.8993L52.8654 42.5641V42.1403C52.8654 40.8977 51.8576 39.8903 50.6151 39.8903H37.1151C35.8729 39.8903 34.8654 40.8977 34.8654 42.1403V43.665L25.7965 47.2117C24.6392 47.6648 24.0689 48.9697 24.5215 50.1268L30.3038 64.9133C30.4159 65.2005 30.6931 65.3897 31.0014 65.3899H62.0587C62.3156 65.3903 62.5547 65.259 62.6923 65.0419L69.0148 55.0815C69.3348 54.5776 69.4412 53.9666 69.3115 53.3842C69.1811 52.8015 68.8245 52.2948 68.3202 51.9748V51.9748ZM31.5128 63.8901L25.9173 49.5809C25.8436 49.3953 25.8475 49.1879 25.9274 49.0047C26.0074 48.8217 26.157 48.6783 26.3433 48.6059L34.8654 45.2758V63.1399C34.8662 63.282 34.8805 63.4236 34.908 63.5633C34.9162 63.6057 34.9307 63.6471 34.941 63.6893C34.9584 63.7566 34.9712 63.8254 34.9934 63.8901H31.5128ZM51.3651 43.1714V63.1399C51.3651 63.5543 51.0293 63.8901 50.6151 63.8901H37.1151C36.7012 63.8901 36.3654 63.5543 36.3654 63.1399V42.1403C36.3654 41.726 36.7012 41.3903 37.1151 41.3903H50.6151C51.0293 41.3903 51.3651 41.726 51.3651 42.1403V43.1714ZM60.5569 63.8901H52.7369C52.7596 63.8254 52.7723 63.7566 52.7893 63.6897C52.8 63.6471 52.8141 63.6064 52.8223 63.5633C52.8497 63.4236 52.8643 63.282 52.8654 63.1399V44.0976L63.5209 46.3674C63.9256 46.4536 64.1842 46.851 64.0986 47.2559L63.463 50.2403L60.5569 63.8901ZM67.7477 54.2776L62.3154 62.8357L64.7341 51.4753L67.5163 53.2423C67.8658 53.464 67.9696 53.9276 67.7477 54.2776V54.2776Z"/>
</mask>
<path d="M68.3202 51.9748L65.0677 49.91L65.5665 47.5678C65.6904 46.9843 65.5775 46.3753 65.2522 45.8747C64.9269 45.3746 64.4167 45.0235 63.8332 44.8993L52.8654 42.5641V42.1403C52.8654 40.8977 51.8576 39.8903 50.6151 39.8903H37.1151C35.8729 39.8903 34.8654 40.8977 34.8654 42.1403V43.665L25.7965 47.2117C24.6392 47.6648 24.0689 48.9697 24.5215 50.1268L30.3038 64.9133C30.4159 65.2005 30.6931 65.3897 31.0014 65.3899H62.0587C62.3156 65.3903 62.5547 65.259 62.6923 65.0419L69.0148 55.0815C69.3348 54.5776 69.4412 53.9666 69.3115 53.3842C69.1811 52.8015 68.8245 52.2948 68.3202 51.9748V51.9748ZM31.5128 63.8901L25.9173 49.5809C25.8436 49.3953 25.8475 49.1879 25.9274 49.0047C26.0074 48.8217 26.157 48.6783 26.3433 48.6059L34.8654 45.2758V63.1399C34.8662 63.282 34.8805 63.4236 34.908 63.5633C34.9162 63.6057 34.9307 63.6471 34.941 63.6893C34.9584 63.7566 34.9712 63.8254 34.9934 63.8901H31.5128ZM51.3651 43.1714V63.1399C51.3651 63.5543 51.0293 63.8901 50.6151 63.8901H37.1151C36.7012 63.8901 36.3654 63.5543 36.3654 63.1399V42.1403C36.3654 41.726 36.7012 41.3903 37.1151 41.3903H50.6151C51.0293 41.3903 51.3651 41.726 51.3651 42.1403V43.1714ZM60.5569 63.8901H52.7369C52.7596 63.8254 52.7723 63.7566 52.7893 63.6897C52.8 63.6471 52.8141 63.6064 52.8223 63.5633C52.8497 63.4236 52.8643 63.282 52.8654 63.1399V44.0976L63.5209 46.3674C63.9256 46.4536 64.1842 46.851 64.0986 47.2559L63.463 50.2403L60.5569 63.8901ZM67.7477 54.2776L62.3154 62.8357L64.7341 51.4753L67.5163 53.2423C67.8658 53.464 67.9696 53.9276 67.7477 54.2776V54.2776Z" stroke="#FFC400" stroke-width="0.48" mask="url(#path-2-inside-2)"/>
<mask id="path-3-inside-3" fill="white">
<path d="M46.1155 48.1404C45.2423 48.1021 44.4048 48.4879 43.8653 49.175C43.3264 48.4879 42.4885 48.1021 41.6155 48.1404C38.998 48.1404 37.8657 50.907 37.8657 52.3184C37.8657 54.8175 39.4066 56.0758 40.7665 57.1856C42.0272 58.2152 43.1155 59.1035 43.1155 60.8903C43.1155 61.3043 43.4514 61.6399 43.8653 61.6399C44.2797 61.6399 44.6157 61.3043 44.6157 60.8903C44.6157 59.1035 45.7036 58.2152 46.9645 57.1856C48.3242 56.0758 49.8653 54.8151 49.8653 52.3184C49.8653 50.907 48.733 48.1404 46.1155 48.1404V48.1404ZM46.0157 56.0241C45.1849 56.6338 44.4585 57.3746 43.8653 58.2169C43.2721 57.3746 42.5461 56.6338 41.7151 56.0241C40.4547 54.995 39.3655 54.1058 39.3655 52.3184C39.3655 51.7513 39.9277 49.6404 41.6155 49.6404C43.0253 49.6404 43.1155 51.1606 43.1155 51.4617C43.1155 51.8763 43.4514 52.2121 43.8653 52.2121C44.2797 52.2121 44.6157 51.8763 44.6157 51.4617C44.6157 51.275 44.6573 49.6404 46.1155 49.6404C47.8027 49.6404 48.3653 51.7513 48.3653 52.3184C48.3653 54.1058 47.2764 54.995 46.0157 56.0241V56.0241Z"/>
</mask>
<path d="M46.1155 48.1404C45.2423 48.1021 44.4048 48.4879 43.8653 49.175C43.3264 48.4879 42.4885 48.1021 41.6155 48.1404C38.998 48.1404 37.8657 50.907 37.8657 52.3184C37.8657 54.8175 39.4066 56.0758 40.7665 57.1856C42.0272 58.2152 43.1155 59.1035 43.1155 60.8903C43.1155 61.3043 43.4514 61.6399 43.8653 61.6399C44.2797 61.6399 44.6157 61.3043 44.6157 60.8903C44.6157 59.1035 45.7036 58.2152 46.9645 57.1856C48.3242 56.0758 49.8653 54.8151 49.8653 52.3184C49.8653 50.907 48.733 48.1404 46.1155 48.1404V48.1404ZM46.0157 56.0241C45.1849 56.6338 44.4585 57.3746 43.8653 58.2169C43.2721 57.3746 42.5461 56.6338 41.7151 56.0241C40.4547 54.995 39.3655 54.1058 39.3655 52.3184C39.3655 51.7513 39.9277 49.6404 41.6155 49.6404C43.0253 49.6404 43.1155 51.1606 43.1155 51.4617C43.1155 51.8763 43.4514 52.2121 43.8653 52.2121C44.2797 52.2121 44.6157 51.8763 44.6157 51.4617C44.6157 51.275 44.6573 49.6404 46.1155 49.6404C47.8027 49.6404 48.3653 51.7513 48.3653 52.3184C48.3653 54.1058 47.2764 54.995 46.0157 56.0241V56.0241Z" fill="#E4FFA3" stroke="#AAFF5C" stroke-width="0.96" mask="url(#path-3-inside-3)"/>
<mask id="path-4-inside-4" fill="white">
<path d="M46.1155 48.1404C45.2423 48.1021 44.4048 48.4879 43.8653 49.175C43.3264 48.4879 42.4885 48.1021 41.6155 48.1404C38.998 48.1404 37.8657 50.907 37.8657 52.3184C37.8657 54.8175 39.4066 56.0758 40.7665 57.1856C42.0272 58.2152 43.1155 59.1035 43.1155 60.8903C43.1155 61.3043 43.4514 61.6399 43.8653 61.6399C44.2797 61.6399 44.6157 61.3043 44.6157 60.8903C44.6157 59.1035 45.7036 58.2152 46.9645 57.1856C48.3242 56.0758 49.8653 54.8151 49.8653 52.3184C49.8653 50.907 48.733 48.1404 46.1155 48.1404V48.1404ZM46.0157 56.0241C45.1849 56.6338 44.4585 57.3746 43.8653 58.2169C43.2721 57.3746 42.5461 56.6338 41.7151 56.0241C40.4547 54.995 39.3655 54.1058 39.3655 52.3184C39.3655 51.7513 39.9277 49.6404 41.6155 49.6404C43.0253 49.6404 43.1155 51.1606 43.1155 51.4617C43.1155 51.8763 43.4514 52.2121 43.8653 52.2121C44.2797 52.2121 44.6157 51.8763 44.6157 51.4617C44.6157 51.275 44.6573 49.6404 46.1155 49.6404C47.8027 49.6404 48.3653 51.7513 48.3653 52.3184C48.3653 54.1058 47.2764 54.995 46.0157 56.0241V56.0241Z"/>
</mask>
<path d="M46.1155 48.1404C45.2423 48.1021 44.4048 48.4879 43.8653 49.175C43.3264 48.4879 42.4885 48.1021 41.6155 48.1404C38.998 48.1404 37.8657 50.907 37.8657 52.3184C37.8657 54.8175 39.4066 56.0758 40.7665 57.1856C42.0272 58.2152 43.1155 59.1035 43.1155 60.8903C43.1155 61.3043 43.4514 61.6399 43.8653 61.6399C44.2797 61.6399 44.6157 61.3043 44.6157 60.8903C44.6157 59.1035 45.7036 58.2152 46.9645 57.1856C48.3242 56.0758 49.8653 54.8151 49.8653 52.3184C49.8653 50.907 48.733 48.1404 46.1155 48.1404V48.1404ZM46.0157 56.0241C45.1849 56.6338 44.4585 57.3746 43.8653 58.2169C43.2721 57.3746 42.5461 56.6338 41.7151 56.0241C40.4547 54.995 39.3655 54.1058 39.3655 52.3184C39.3655 51.7513 39.9277 49.6404 41.6155 49.6404C43.0253 49.6404 43.1155 51.1606 43.1155 51.4617C43.1155 51.8763 43.4514 52.2121 43.8653 52.2121C44.2797 52.2121 44.6157 51.8763 44.6157 51.4617C44.6157 51.275 44.6573 49.6404 46.1155 49.6404C47.8027 49.6404 48.3653 51.7513 48.3653 52.3184C48.3653 54.1058 47.2764 54.995 46.0157 56.0241V56.0241Z" stroke="#17E200" stroke-width="0.48" mask="url(#path-4-inside-4)"/>
<mask id="path-5-inside-5" fill="white">
<path d="M57.7771 39.6429C57.7824 39.6491 57.7901 39.6504 57.7956 39.6559C60.4243 42.275 64.6762 42.275 67.305 39.6559C67.3105 39.6504 67.3182 39.6491 67.3232 39.6429C67.3283 39.637 67.3309 39.6299 67.336 39.6249C69.9553 36.9962 69.9553 32.744 67.336 30.1151C67.3309 30.1098 67.3292 30.1021 67.3232 30.0973C67.3171 30.092 67.3105 30.0896 67.305 30.0843C64.6762 27.4652 60.4243 27.4652 57.7956 30.0843C57.7901 30.0896 57.7824 30.0909 57.7771 30.0973C57.772 30.103 57.7696 30.1098 57.7643 30.1151C55.1453 32.744 55.1453 36.9962 57.7643 39.6249C57.7696 39.6299 57.7714 39.6374 57.7771 39.6429ZM61.8003 40.0599C60.9337 39.9361 60.1124 39.5954 59.4121 39.07L60.4852 37.9969C60.8842 38.2626 61.3309 38.4486 61.8003 38.545V40.0599ZM63.3003 40.0599V38.545C63.7698 38.4482 64.2161 38.2619 64.6151 37.9958L65.6884 39.07C64.9879 39.5954 64.1668 39.9361 63.3003 40.0599V40.0599ZM66.7503 38.0079L65.6772 36.9346C65.9426 36.536 66.1289 36.0893 66.2253 35.62H67.74C67.6162 36.4865 67.2757 37.3078 66.7503 38.0079ZM67.74 34.1202H66.2253C66.1283 33.6504 65.9422 33.2041 65.6763 32.8052L66.7503 31.7321C67.2757 32.4324 67.6162 33.2536 67.74 34.1202ZM63.3003 29.68C64.1668 29.8041 64.9879 30.1448 65.6884 30.6702L64.6151 31.7433C64.2161 31.4776 63.7696 31.2913 63.3003 31.195V29.68ZM64.8001 34.87C64.8001 36.1129 63.7929 37.12 62.5503 37.12C61.3076 37.12 60.3003 36.1129 60.3003 34.87C60.3003 33.6273 61.3076 32.6202 62.5503 32.6202C63.7929 32.6202 64.8001 33.6273 64.8001 34.87V34.87ZM61.8003 29.68V31.195C61.3307 31.2913 60.8842 31.4778 60.4852 31.744L59.4121 30.6702C60.1124 30.1448 60.9337 29.8041 61.8003 29.68ZM58.3503 31.7321L59.4234 32.8052C59.1579 33.2041 58.9716 33.6504 58.8753 34.1202H57.3605C57.4844 33.2536 57.8248 32.4324 58.3503 31.7321ZM58.8753 35.62C58.9718 36.0893 59.1583 36.536 59.4242 36.9346L58.3503 38.0079C57.8248 37.3078 57.4844 36.4865 57.3605 35.62H58.8753Z"/>
</mask>
<path d="M57.7771 39.6429C57.7824 39.6491 57.7901 39.6504 57.7956 39.6559C60.4243 42.275 64.6762 42.275 67.305 39.6559C67.3105 39.6504 67.3182 39.6491 67.3232 39.6429C67.3283 39.637 67.3309 39.6299 67.336 39.6249C69.9553 36.9962 69.9553 32.744 67.336 30.1151C67.3309 30.1098 67.3292 30.1021 67.3232 30.0973C67.3171 30.092 67.3105 30.0896 67.305 30.0843C64.6762 27.4652 60.4243 27.4652 57.7956 30.0843C57.7901 30.0896 57.7824 30.0909 57.7771 30.0973C57.772 30.103 57.7696 30.1098 57.7643 30.1151C55.1453 32.744 55.1453 36.9962 57.7643 39.6249C57.7696 39.6299 57.7714 39.6374 57.7771 39.6429ZM61.8003 40.0599C60.9337 39.9361 60.1124 39.5954 59.4121 39.07L60.4852 37.9969C60.8842 38.2626 61.3309 38.4486 61.8003 38.545V40.0599ZM63.3003 40.0599V38.545C63.7698 38.4482 64.2161 38.2619 64.6151 37.9958L65.6884 39.07C64.9879 39.5954 64.1668 39.9361 63.3003 40.0599V40.0599ZM66.7503 38.0079L65.6772 36.9346C65.9426 36.536 66.1289 36.0893 66.2253 35.62H67.74C67.6162 36.4865 67.2757 37.3078 66.7503 38.0079ZM67.74 34.1202H66.2253C66.1283 33.6504 65.9422 33.2041 65.6763 32.8052L66.7503 31.7321C67.2757 32.4324 67.6162 33.2536 67.74 34.1202ZM63.3003 29.68C64.1668 29.8041 64.9879 30.1448 65.6884 30.6702L64.6151 31.7433C64.2161 31.4776 63.7696 31.2913 63.3003 31.195V29.68ZM64.8001 34.87C64.8001 36.1129 63.7929 37.12 62.5503 37.12C61.3076 37.12 60.3003 36.1129 60.3003 34.87C60.3003 33.6273 61.3076 32.6202 62.5503 32.6202C63.7929 32.6202 64.8001 33.6273 64.8001 34.87V34.87ZM61.8003 29.68V31.195C61.3307 31.2913 60.8842 31.4778 60.4852 31.744L59.4121 30.6702C60.1124 30.1448 60.9337 29.8041 61.8003 29.68ZM58.3503 31.7321L59.4234 32.8052C59.1579 33.2041 58.9716 33.6504 58.8753 34.1202H57.3605C57.4844 33.2536 57.8248 32.4324 58.3503 31.7321ZM58.8753 35.62C58.9718 36.0893 59.1583 36.536 59.4242 36.9346L58.3503 38.0079C57.8248 37.3078 57.4844 36.4865 57.3605 35.62H58.8753Z" fill="#E4FFA3" stroke="#AAFF5C" stroke-width="0.96" mask="url(#path-5-inside-5)"/>
<path fill-rule="evenodd" clip-rule="evenodd" d="M67.305 30.0843C64.6762 27.4652 60.4243 27.4652 57.7956 30.0843C57.7849 30.0946 57.7749 30.1045 57.7643 30.1151C55.1453 32.744 55.1453 36.9962 57.7643 39.6249C57.7721 39.6324 57.7802 39.6404 57.788 39.6483C57.7906 39.6509 57.7931 39.6534 57.7956 39.6559C60.4243 42.275 64.6762 42.275 67.305 39.6559L67.336 39.6249C69.9553 36.9962 69.9553 32.744 67.336 30.1151C67.3256 30.1042 67.3159 30.0948 67.305 30.0843ZM67.1663 39.4552C69.6919 36.9201 69.6918 32.8197 67.166 30.2845L67.1643 30.2828L67.1627 30.2811C67.1557 30.2739 67.1489 30.2671 67.1388 30.2574L67.1371 30.2559L67.1356 30.2543C64.6005 27.7286 60.5001 27.7286 57.965 30.2543L57.9634 30.2559L57.9618 30.2574C57.9531 30.2657 57.9449 30.274 57.9342 30.2846C55.4092 32.8194 55.4087 36.9186 57.9326 39.4537C57.9421 39.4629 57.9521 39.473 57.9596 39.4805C57.9617 39.4826 57.9636 39.4845 57.9653 39.4862C60.5003 42.0115 64.6002 42.0115 67.1353 39.4862M67.166 39.4555L67.1356 39.4859ZM62.0403 40.3367L61.7663 40.2975C60.8597 40.168 60.0006 39.8116 59.2681 39.2619L59.0468 39.0959L60.4546 37.6881L60.6183 37.7971C60.9915 38.0457 61.4094 38.2197 61.8485 38.3099L62.0403 38.3492V40.3367ZM63.0603 40.3367V38.3494L63.2518 38.3099C63.6912 38.2194 64.1087 38.0451 64.4819 37.7961L64.6457 37.6869L66.0537 39.096L65.8324 39.262C65.0997 39.8115 64.2408 40.168 63.3342 40.2975L63.0603 40.3367ZM66.7762 38.3732L65.3684 36.9652L65.4774 36.8015C65.7258 36.4287 65.9001 36.0108 65.9902 35.5717L66.0295 35.38H68.0167L67.9776 35.6539C67.8481 36.5605 67.4919 37.4196 66.9422 38.1519L66.7762 38.3732ZM68.0167 34.3602H66.0298L65.9902 34.1687C65.8994 33.729 65.7253 33.3115 65.4766 32.9383L65.3674 32.7745L66.7763 31.3668L66.9422 31.588C67.4919 32.3206 67.8481 33.1797 67.9776 34.0863L68.0167 34.3602ZM63.0603 29.4032L63.3343 29.4425C64.2408 29.5722 65.0997 29.9286 65.8324 30.4782L66.0538 30.6443L64.6457 32.052L64.4821 31.9431C64.1087 31.6945 63.691 31.5202 63.252 31.4301L63.0603 31.3907V29.4032ZM62.0403 29.4032V31.3908L61.8485 31.4301C61.4093 31.5202 60.9917 31.6946 60.6184 31.9436L60.4546 32.0529L59.0469 30.6442L59.2681 30.4782C60.0006 29.9286 60.8597 29.5722 61.7663 29.4425L62.0403 29.4032ZM58.3243 31.3667L59.7321 32.7745L59.6232 32.9381C59.3747 33.3115 59.2005 33.729 59.1104 34.1684L59.071 34.3602H57.0838L57.1229 34.0863C57.2525 33.1797 57.6087 32.3206 58.1583 31.588L58.3243 31.3667ZM59.0709 35.38L59.1103 35.5716C59.2007 36.0107 59.3752 36.4286 59.6239 36.8014L59.7332 36.9651L58.3243 38.3731L58.1583 38.1519C57.6087 37.4196 57.2525 36.5605 57.1229 35.6539L57.0838 35.38H59.0709ZM61.8003 40.0599V38.545C61.3309 38.4486 60.8842 38.2626 60.4852 37.9969L59.4121 39.07C59.4771 39.1187 59.5431 39.1659 59.6101 39.2114C60.1982 39.6112 60.8619 39.8865 61.5603 40.0199C61.6398 40.0351 61.7199 40.0484 61.8003 40.0599ZM63.3003 40.0599C63.3807 40.0484 63.4607 40.0351 63.5403 40.0199C64.2386 39.8865 64.9022 39.6112 65.4904 39.2114C65.5574 39.1659 65.6234 39.1187 65.6884 39.07L64.6151 37.9958C64.2161 38.2619 63.7698 38.4482 63.3003 38.545V40.0599ZM66.7503 38.0079C66.799 37.9429 66.8462 37.8769 66.8917 37.8099C67.2915 37.222 67.5666 36.5583 67.7 35.86C67.7152 35.7804 67.7285 35.7004 67.74 35.62H66.2253C66.1289 36.0893 65.9426 36.536 65.6772 36.9346L66.7503 38.0079ZM67.74 34.1202C67.7285 34.0398 67.7152 33.9598 67.7 33.8802C67.5666 33.1818 67.2915 32.5181 66.8917 31.93C66.8462 31.8631 66.799 31.797 66.7503 31.7321L65.6763 32.8052C65.9422 33.2041 66.1283 33.6504 66.2253 34.1202H67.74ZM63.3003 29.68V31.195C63.7696 31.2913 64.2161 31.4776 64.6151 31.7433L65.6884 30.6702C65.6234 30.6215 65.5574 30.5743 65.4904 30.5288C64.9022 30.129 64.2386 29.8537 63.5403 29.7201C63.4607 29.7049 63.3807 29.6915 63.3003 29.68ZM65.0401 34.87C65.0401 36.2454 63.9255 37.36 62.5503 37.36C61.1751 37.36 60.0603 36.2454 60.0603 34.87C60.0603 33.4947 61.1751 32.3802 62.5503 32.3802C63.9255 32.3802 65.0401 33.4948 65.0401 34.87ZM61.8003 29.68C61.7199 29.6915 61.6398 29.7049 61.5603 29.7201C60.8619 29.8537 60.1982 30.129 59.6101 30.5288C59.5431 30.5743 59.4771 30.6215 59.4121 30.6702L60.4852 31.744C60.8842 31.4778 61.3307 31.2913 61.8003 31.195V29.68ZM58.3503 31.7321C58.3015 31.7971 58.2544 31.8631 58.2088 31.9301C57.8091 32.5181 57.5339 33.1818 57.4006 33.8802C57.3854 33.9598 57.372 34.0398 57.3605 34.1202H58.8753C58.9716 33.6504 59.1579 33.2041 59.4234 32.8052L58.3503 31.7321ZM58.8753 35.62C58.9718 36.0893 59.1583 36.536 59.4242 36.9346L58.3503 38.0079C58.3015 37.9429 58.2544 37.8769 58.2088 37.8099C57.8091 37.222 57.5339 36.5584 57.4006 35.86C57.3854 35.7804 57.372 35.7004 57.3605 35.62H58.8753ZM62.5503 37.12C63.7929 37.12 64.8001 36.1129 64.8001 34.87C64.8001 33.6273 63.7929 32.6202 62.5503 32.6202C61.3076 32.6202 60.3003 33.6273 60.3003 34.87C60.3003 36.1129 61.3076 37.12 62.5503 37.12Z" fill="#17E200"/>
<mask id="path-7-inside-6" fill="white">
<path d="M42.097 31.9629C42.1023 31.9691 42.11 31.9704 42.1155 31.9759C44.7443 34.595 48.9962 34.595 51.6249 31.9759C51.6304 31.9704 51.6381 31.9691 51.6432 31.9629C51.6482 31.957 51.6509 31.9499 51.6559 31.9449C54.2752 29.3162 54.2752 25.064 51.6559 22.4351C51.6509 22.4298 51.6491 22.4221 51.6432 22.4173C51.637 22.412 51.6304 22.4096 51.6249 22.4043C48.9962 19.7852 44.7443 19.7852 42.1155 22.4043C42.11 22.4096 42.1023 22.4109 42.097 22.4173C42.092 22.423 42.0896 22.4298 42.0843 22.4351C39.4652 25.064 39.4652 29.3162 42.0843 31.9449C42.0896 31.9499 42.0913 31.9574 42.097 31.9629ZM46.1202 32.3799C45.2536 32.2561 44.4324 31.9154 43.7321 31.39L44.8052 30.3169C45.2042 30.5826 45.6509 30.7686 46.1202 30.865V32.3799ZM47.6202 32.3799V30.865C48.0898 30.7682 48.5361 30.5819 48.935 30.3158L50.0083 31.39C49.3078 31.9154 48.4868 32.2561 47.6202 32.3799V32.3799ZM51.0702 30.3279L49.9971 29.2546C50.2626 28.856 50.4489 28.4093 50.5452 27.94H52.06C51.9361 28.8066 51.5957 29.6278 51.0702 30.3279ZM52.06 26.4402H50.5452C50.4482 25.9704 50.2622 25.5242 49.9962 25.1252L51.0702 24.0521C51.5957 24.7524 51.9361 25.5736 52.06 26.4402ZM47.6202 22C48.4868 22.1241 49.3078 22.4648 50.0083 22.9902L48.935 24.0633C48.5361 23.7976 48.0896 23.6113 47.6202 23.515V22ZM49.12 27.19C49.12 28.4329 48.1129 29.44 46.8702 29.44C45.6275 29.44 44.6202 28.4329 44.6202 27.19C44.6202 25.9473 45.6275 24.9402 46.8702 24.9402C48.1129 24.9402 49.12 25.9473 49.12 27.19V27.19ZM46.1202 22V23.515C45.6506 23.6113 45.2042 23.7978 44.8052 24.064L43.7321 22.9902C44.4324 22.4648 45.2536 22.1241 46.1202 22ZM42.6702 24.0521L43.7433 25.1252C43.4778 25.5242 43.2916 25.9704 43.1952 26.4402H41.6805C41.8043 25.5736 42.1448 24.7524 42.6702 24.0521ZM43.1952 27.94C43.2918 28.4093 43.4783 28.856 43.7442 29.2546L42.6702 30.3279C42.1448 29.6278 41.8043 28.8066 41.6805 27.94H43.1952Z"/>
</mask>
<path d="M42.097 31.9629C42.1023 31.9691 42.11 31.9704 42.1155 31.9759C44.7443 34.595 48.9962 34.595 51.6249 31.9759C51.6304 31.9704 51.6381 31.9691 51.6432 31.9629C51.6482 31.957 51.6509 31.9499 51.6559 31.9449C54.2752 29.3162 54.2752 25.064 51.6559 22.4351C51.6509 22.4298 51.6491 22.4221 51.6432 22.4173C51.637 22.412 51.6304 22.4096 51.6249 22.4043C48.9962 19.7852 44.7443 19.7852 42.1155 22.4043C42.11 22.4096 42.1023 22.4109 42.097 22.4173C42.092 22.423 42.0896 22.4298 42.0843 22.4351C39.4652 25.064 39.4652 29.3162 42.0843 31.9449C42.0896 31.9499 42.0913 31.9574 42.097 31.9629ZM46.1202 32.3799C45.2536 32.2561 44.4324 31.9154 43.7321 31.39L44.8052 30.3169C45.2042 30.5826 45.6509 30.7686 46.1202 30.865V32.3799ZM47.6202 32.3799V30.865C48.0898 30.7682 48.5361 30.5819 48.935 30.3158L50.0083 31.39C49.3078 31.9154 48.4868 32.2561 47.6202 32.3799V32.3799ZM51.0702 30.3279L49.9971 29.2546C50.2626 28.856 50.4489 28.4093 50.5452 27.94H52.06C51.9361 28.8066 51.5957 29.6278 51.0702 30.3279ZM52.06 26.4402H50.5452C50.4482 25.9704 50.2622 25.5242 49.9962 25.1252L51.0702 24.0521C51.5957 24.7524 51.9361 25.5736 52.06 26.4402ZM47.6202 22C48.4868 22.1241 49.3078 22.4648 50.0083 22.9902L48.935 24.0633C48.5361 23.7976 48.0896 23.6113 47.6202 23.515V22ZM49.12 27.19C49.12 28.4329 48.1129 29.44 46.8702 29.44C45.6275 29.44 44.6202 28.4329 44.6202 27.19C44.6202 25.9473 45.6275 24.9402 46.8702 24.9402C48.1129 24.9402 49.12 25.9473 49.12 27.19V27.19ZM46.1202 22V23.515C45.6506 23.6113 45.2042 23.7978 44.8052 24.064L43.7321 22.9902C44.4324 22.4648 45.2536 22.1241 46.1202 22ZM42.6702 24.0521L43.7433 25.1252C43.4778 25.5242 43.2916 25.9704 43.1952 26.4402H41.6805C41.8043 25.5736 42.1448 24.7524 42.6702 24.0521ZM43.1952 27.94C43.2918 28.4093 43.4783 28.856 43.7442 29.2546L42.6702 30.3279C42.1448 29.6278 41.8043 28.8066 41.6805 27.94H43.1952Z" fill="#E4FFA3" stroke="#AAFF5C" stroke-width="0.96" mask="url(#path-7-inside-6)"/>
<path fill-rule="evenodd" clip-rule="evenodd" d="M51.6249 22.4043C48.9962 19.7852 44.7443 19.7852 42.1155 22.4043C42.1048 22.4146 42.0949 22.4245 42.0843 22.4351C39.4652 25.064 39.4652 29.3162 42.0843 31.9449C42.0921 31.9524 42.1001 31.9605 42.108 31.9683C42.1105 31.9709 42.113 31.9734 42.1155 31.9759C44.7443 34.595 48.9962 34.595 51.6249 31.9759L51.6559 31.9449C54.2752 29.3162 54.2752 25.064 51.6559 22.4351C51.6455 22.4242 51.6358 22.4148 51.6249 22.4043ZM51.4862 31.7752C54.0119 29.2401 54.0118 25.1397 51.4859 22.6045L51.4843 22.6028L51.4826 22.6011C51.4757 22.5939 51.4688 22.5872 51.4587 22.5774L51.4571 22.5759L51.4555 22.5743C48.9204 20.0486 44.82 20.0486 42.2849 22.5743L42.2833 22.5759L42.2817 22.5774C42.2731 22.5857 42.2648 22.594 42.2542 22.6046C39.7291 25.1394 39.7286 29.2386 42.2525 31.7737C42.262 31.7829 42.2721 31.793 42.2795 31.8005C42.2817 31.8026 42.2836 31.8045 42.2852 31.8062C44.8202 34.3315 48.9202 34.3315 51.4552 31.8062M51.4859 31.7755L51.4555 31.8059ZM46.3602 32.6567L46.0863 32.6175C45.1797 32.488 44.3206 32.1316 43.5881 31.582L43.3668 31.4159L44.7745 30.0081L44.9382 30.1171C45.3114 30.3657 45.7293 30.5398 46.1685 30.6299L46.3602 30.6692V32.6567ZM47.3802 32.6567V30.6694L47.5718 30.6299C48.0111 30.5394 48.4286 30.3651 48.8018 30.1161L48.9656 30.0069L50.3736 31.416L50.1523 31.582C49.4196 32.1316 48.5608 32.488 47.6542 32.6175L47.3802 32.6567ZM51.0961 30.6932L49.6884 29.2852L49.7974 29.1215C50.0457 28.7487 50.22 28.3308 50.3101 27.8917L50.3495 27.7H52.3367L52.2975 27.9739C52.168 28.8805 51.8118 29.7396 51.2622 30.472L51.0961 30.6932ZM52.3367 26.6802H50.3497L50.3102 26.4887C50.2194 26.049 50.0453 25.6315 49.7965 25.2583L49.6874 25.0945L51.0962 23.6868L51.2622 23.9081C51.8118 24.6406 52.168 25.4997 52.2975 26.4063L52.3367 26.6802ZM47.3802 21.7232L47.6542 21.7625C48.5608 21.8922 49.4196 22.2486 50.1523 22.7982L50.3737 22.9643L48.9657 24.3721L48.802 24.2631C48.4287 24.0145 48.011 23.8402 47.572 23.7501L47.3802 23.7107V21.7232ZM46.3602 21.7232V23.7108L46.1684 23.7501C45.7293 23.8402 45.3116 24.0146 44.9384 24.2636L44.7746 24.3729L43.3668 22.9642L43.5881 22.7982C44.3206 22.2486 45.1797 21.8922 46.0862 21.7625L46.3602 21.7232ZM42.6443 23.6868L44.052 25.0945L43.9431 25.2581C43.6947 25.6315 43.5204 26.049 43.4303 26.4884L43.391 26.6802H41.4037L41.4429 26.4063C41.5724 25.4997 41.9286 24.6406 42.4782 23.9081L42.6443 23.6868ZM43.3909 27.7L43.4303 27.8916C43.5206 28.3307 43.6951 28.7486 43.9438 29.1214L44.0531 29.2852L42.6443 30.6931L42.4783 30.472C41.9286 29.7396 41.5724 28.8805 41.4429 27.9739L41.4037 27.7H43.3909ZM46.1202 32.3799V30.865C45.6509 30.7686 45.2042 30.5826 44.8052 30.3169L43.7321 31.39C43.7971 31.4387 43.8631 31.4859 43.9301 31.5314C44.5182 31.9312 45.1818 32.2065 45.8802 32.3399C45.9598 32.3551 46.0398 32.3684 46.1202 32.3799ZM47.6202 32.3799C47.7006 32.3684 47.7806 32.3551 47.8602 32.3399C48.5586 32.2065 49.2221 31.9312 49.8104 31.5314C49.8774 31.4859 49.9434 31.4387 50.0083 31.39L48.935 30.3158C48.5361 30.5819 48.0898 30.7682 47.6202 30.865V32.3799ZM51.0702 30.3279C51.119 30.2629 51.1661 30.1969 51.2117 30.1299C51.6114 29.542 51.8865 28.8784 52.0199 28.18C52.0351 28.1004 52.0485 28.0204 52.06 27.94H50.5452C50.4489 28.4093 50.2626 28.856 49.9971 29.2546L51.0702 30.3279ZM52.06 26.4402C52.0485 26.3598 52.0351 26.2798 52.0199 26.2002C51.8865 25.5018 51.6114 24.8381 51.2116 24.25C51.1661 24.1831 51.119 24.1171 51.0702 24.0521L49.9962 25.1252C50.2622 25.5242 50.4482 25.9704 50.5452 26.4402H52.06ZM47.6202 22V23.515C48.0896 23.6113 48.5361 23.7976 48.935 24.0633L50.0083 22.9902C49.9434 22.9415 49.8773 22.8943 49.8103 22.8488C49.2221 22.449 48.5586 22.1737 47.8602 22.0401C47.7806 22.0249 47.7006 22.0116 47.6202 22ZM49.36 27.19C49.36 28.5654 48.2454 29.68 46.8702 29.68C45.495 29.68 44.3802 28.5654 44.3802 27.19C44.3802 25.8147 45.495 24.7002 46.8702 24.7002C48.2454 24.7002 49.36 25.8148 49.36 27.19ZM46.1202 22C46.0398 22.0116 45.9598 22.0249 45.8802 22.0401C45.1818 22.1737 44.5181 22.449 43.93 22.8488C43.8631 22.8943 43.7971 22.9415 43.7321 22.9902L44.8052 24.064C45.2042 23.7978 45.6506 23.6113 46.1202 23.515V22ZM42.6702 24.0521C42.6215 24.1171 42.5743 24.1831 42.5288 24.2501C42.129 24.8382 41.8539 25.5018 41.7205 26.2002C41.7053 26.2798 41.692 26.3598 41.6805 26.4402H43.1952C43.2915 25.9704 43.4778 25.5242 43.7433 25.1252L42.6702 24.0521ZM43.1952 27.94C43.2918 28.4093 43.4783 28.856 43.7442 29.2546L42.6702 30.3279C42.6215 30.2629 42.5743 30.1969 42.5288 30.1299C42.129 29.542 41.8539 28.8784 41.7205 28.18C41.7053 28.1004 41.692 28.0204 41.6805 27.94H43.1952ZM46.8702 29.44C48.1129 29.44 49.12 28.4329 49.12 27.19C49.12 25.9473 48.1129 24.9402 46.8702 24.9402C45.6275 24.9402 44.6202 25.9473 44.6202 27.19C44.6202 28.4329 45.6275 29.44 46.8702 29.44Z" fill="#17E200"/>
<mask id="path-9-inside-7" fill="white">
<path d="M26.417 37.2429C26.4223 37.2491 26.43 37.2504 26.4355 37.2559C29.0642 39.8749 33.3161 39.8749 35.9449 37.2559C35.9504 37.2504 35.9581 37.2491 35.9631 37.2429C35.9682 37.237 35.9708 37.2299 35.9759 37.2249C38.5952 34.5961 38.5952 30.344 35.9759 27.7151C35.9708 27.7098 35.969 27.7021 35.9631 27.6972C35.957 27.692 35.9504 27.6895 35.9449 27.6843C33.3161 25.0652 29.0642 25.0652 26.4355 27.6843C26.43 27.6895 26.4223 27.6909 26.417 27.6972C26.4119 27.703 26.4095 27.7098 26.4042 27.7151C23.7852 30.344 23.7852 34.5961 26.4042 37.2249C26.4095 37.2299 26.4113 37.2374 26.417 37.2429ZM30.4402 37.6599C29.5736 37.5361 28.7523 37.1954 28.052 36.6699L29.1251 35.5969C29.5241 35.8625 29.9708 36.0486 30.4402 36.1449V37.6599ZM31.9402 37.6599V36.1449C32.4097 36.0482 32.856 35.8619 33.255 35.5958L34.3283 36.6699C33.6278 37.1954 32.8067 37.5361 31.9402 37.6599V37.6599ZM35.3902 35.6079L34.3171 34.5345C34.5825 34.136 34.7688 33.6893 34.8652 33.22H36.3799C36.2561 34.0865 35.9156 34.9078 35.3902 35.6079ZM36.3799 31.7202H34.8652C34.7682 31.2504 34.5821 30.8041 34.3162 30.4052L35.3902 29.3321C35.9156 30.0324 36.2561 30.8536 36.3799 31.7202ZM31.9402 27.28C32.8067 27.4041 33.6278 27.7447 34.3283 28.2702L33.255 29.3433C32.856 29.0776 32.4095 28.8913 31.9402 28.795V27.28ZM33.4399 32.47C33.4399 33.7128 32.4328 34.72 31.1902 34.72C29.9475 34.72 28.9402 33.7128 28.9402 32.47C28.9402 31.2273 29.9475 30.2202 31.1902 30.2202C32.4328 30.2202 33.4399 31.2273 33.4399 32.47V32.47ZM30.4402 27.28V28.795C29.9706 28.8913 29.5241 29.0778 29.1251 29.3439L28.052 28.2702C28.7523 27.7447 29.5736 27.4041 30.4402 27.28ZM26.9902 29.3321L28.0633 30.4052C27.7978 30.8041 27.6115 31.2504 27.5152 31.7202H26.0004C26.1243 30.8536 26.4647 30.0324 26.9902 29.3321ZM27.5152 33.22C27.6117 33.6893 27.7982 34.136 28.0641 34.5345L26.9902 35.6079C26.4647 34.9078 26.1243 34.0865 26.0004 33.22H27.5152Z"/>
</mask>
<path d="M26.417 37.2429C26.4223 37.2491 26.43 37.2504 26.4355 37.2559C29.0642 39.8749 33.3161 39.8749 35.9449 37.2559C35.9504 37.2504 35.9581 37.2491 35.9631 37.2429C35.9682 37.237 35.9708 37.2299 35.9759 37.2249C38.5952 34.5961 38.5952 30.344 35.9759 27.7151C35.9708 27.7098 35.969 27.7021 35.9631 27.6972C35.957 27.692 35.9504 27.6895 35.9449 27.6843C33.3161 25.0652 29.0642 25.0652 26.4355 27.6843C26.43 27.6895 26.4223 27.6909 26.417 27.6972C26.4119 27.703 26.4095 27.7098 26.4042 27.7151C23.7852 30.344 23.7852 34.5961 26.4042 37.2249C26.4095 37.2299 26.4113 37.2374 26.417 37.2429ZM30.4402 37.6599C29.5736 37.5361 28.7523 37.1954 28.052 36.6699L29.1251 35.5969C29.5241 35.8625 29.9708 36.0486 30.4402 36.1449V37.6599ZM31.9402 37.6599V36.1449C32.4097 36.0482 32.856 35.8619 33.255 35.5958L34.3283 36.6699C33.6278 37.1954 32.8067 37.5361 31.9402 37.6599V37.6599ZM35.3902 35.6079L34.3171 34.5345C34.5825 34.136 34.7688 33.6893 34.8652 33.22H36.3799C36.2561 34.0865 35.9156 34.9078 35.3902 35.6079ZM36.3799 31.7202H34.8652C34.7682 31.2504 34.5821 30.8041 34.3162 30.4052L35.3902 29.3321C35.9156 30.0324 36.2561 30.8536 36.3799 31.7202ZM31.9402 27.28C32.8067 27.4041 33.6278 27.7447 34.3283 28.2702L33.255 29.3433C32.856 29.0776 32.4095 28.8913 31.9402 28.795V27.28ZM33.4399 32.47C33.4399 33.7128 32.4328 34.72 31.1902 34.72C29.9475 34.72 28.9402 33.7128 28.9402 32.47C28.9402 31.2273 29.9475 30.2202 31.1902 30.2202C32.4328 30.2202 33.4399 31.2273 33.4399 32.47V32.47ZM30.4402 27.28V28.795C29.9706 28.8913 29.5241 29.0778 29.1251 29.3439L28.052 28.2702C28.7523 27.7447 29.5736 27.4041 30.4402 27.28ZM26.9902 29.3321L28.0633 30.4052C27.7978 30.8041 27.6115 31.2504 27.5152 31.7202H26.0004C26.1243 30.8536 26.4647 30.0324 26.9902 29.3321ZM27.5152 33.22C27.6117 33.6893 27.7982 34.136 28.0641 34.5345L26.9902 35.6079C26.4647 34.9078 26.1243 34.0865 26.0004 33.22H27.5152Z" fill="#E4FFA3" stroke="#AAFF5C" stroke-width="0.96" mask="url(#path-9-inside-7)"/>
<path fill-rule="evenodd" clip-rule="evenodd" d="M35.9449 27.6843C33.3161 25.0652 29.0642 25.0652 26.4355 27.6843C26.4248 27.6945 26.4148 27.7045 26.4042 27.7151C23.7852 30.344 23.7852 34.5961 26.4042 37.2249C26.412 37.2323 26.4201 37.2404 26.4279 37.2483C26.4305 37.2509 26.433 37.2534 26.4355 37.2559C29.0642 39.8749 33.3161 39.8749 35.9449 37.2559L35.9759 37.2249C38.5951 34.5961 38.5951 30.344 35.9759 27.7151C35.9655 27.7042 35.9558 27.6948 35.9449 27.6843ZM35.8062 37.0552C38.3318 34.5201 38.3317 30.4196 35.8058 27.8844L35.8042 27.8828L35.8026 27.8811C35.7956 27.8739 35.7888 27.8671 35.7786 27.8574L35.777 27.8559L35.7755 27.8543C33.2404 25.3285 29.1399 25.3285 26.6049 27.8543L26.6033 27.8559L26.6017 27.8574C26.593 27.8657 26.5847 27.874 26.5741 27.8846C24.0491 30.4193 24.0486 34.5185 26.5725 37.0537C26.582 37.0629 26.592 37.073 26.5995 37.0805C26.6016 37.0826 26.6035 37.0845 26.6051 37.0861C29.1401 39.6115 33.2401 39.6115 35.7751 37.0862M35.8059 37.0555L35.7755 37.0859ZM30.6802 37.9366L30.4062 37.8975C29.4996 37.7679 28.6405 37.4115 27.908 36.8619L27.6867 36.6959L29.0945 35.2881L29.2582 35.3971C29.6314 35.6456 30.0493 35.8197 30.4884 35.9098L30.6802 35.9492V37.9366ZM31.7002 37.9366V35.9494L31.8917 35.9099C32.3311 35.8193 32.7486 35.6451 33.1218 35.3961L33.2856 35.2868L34.6936 36.696L34.4723 36.8619C33.7396 37.4115 32.8807 37.7679 31.9741 37.8975L31.7002 37.9366ZM35.416 35.9732L34.0083 34.5652L34.1173 34.4015C34.3657 34.0287 34.5399 33.6108 34.6301 33.1717L34.6694 32.98H36.6566L36.6175 33.2539C36.4879 34.1604 36.1318 35.0196 35.5821 35.7519L35.416 35.9732ZM36.6566 31.9602H34.6697L34.6301 31.7687C34.5393 31.329 34.3652 30.9115 34.1165 30.5383L34.0073 30.3745L35.4162 28.9668L35.5821 29.188C36.1318 29.9206 36.4879 30.7797 36.6175 31.6862L36.6566 31.9602ZM31.7002 27.0032L31.9742 27.0424C32.8807 27.1722 33.7396 27.5286 34.4723 28.0782L34.6937 28.2442L33.2856 29.652L33.1219 29.543C32.7486 29.2944 32.3309 29.1202 31.8919 29.0301L31.7002 28.9907V27.0032ZM30.6802 27.0032V28.9907L30.4884 29.0301C30.0492 29.1202 29.6316 29.2946 29.2583 29.5436L29.0945 29.6528L27.6868 28.2442L27.908 28.0782C28.6405 27.5286 29.4996 27.1722 30.4062 27.0424L30.6802 27.0032ZM26.9642 28.9667L28.372 30.3744L28.2631 30.5381C28.0146 30.9115 27.8404 31.329 27.7503 31.7684L27.7109 31.9602H25.7237L25.7628 31.6862C25.8924 30.7797 26.2486 29.9206 26.7982 29.188L26.9642 28.9667ZM27.7108 32.98L27.7502 33.1716C27.8406 33.6107 28.015 34.0286 28.2638 34.4013L28.3731 34.5651L26.9642 35.9731L26.7982 35.7519C26.2486 35.0196 25.8924 34.1604 25.7628 33.2539L25.7237 32.98H27.7108ZM30.4402 37.6599V36.1449C29.9708 36.0486 29.5241 35.8625 29.1251 35.5969L28.052 36.6699C28.117 36.7187 28.183 36.7659 28.25 36.8114C28.8381 37.2112 29.5018 37.4865 30.2002 37.6199C30.2797 37.6351 30.3598 37.6484 30.4402 37.6599ZM31.9402 37.6599C32.0206 37.6484 32.1006 37.6351 32.1802 37.6199C32.8785 37.4864 33.5421 37.2112 34.1303 36.8114C34.1973 36.7658 34.2633 36.7187 34.3283 36.6699L33.255 35.5958C32.856 35.8619 32.4097 36.0482 31.9402 36.1449V37.6599ZM35.3902 35.6079C35.4389 35.5429 35.4861 35.4769 35.5316 35.4099C35.9314 34.822 36.2065 34.1583 36.3399 33.46C36.3551 33.3804 36.3684 33.3004 36.3799 33.22H34.8652C34.7688 33.6893 34.5825 34.136 34.3171 34.5345L35.3902 35.6079ZM36.3799 31.7202C36.3684 31.6398 36.3551 31.5597 36.3399 31.4802C36.2065 30.7818 35.9314 30.1181 35.5316 29.53C35.4861 29.463 35.4389 29.397 35.3902 29.3321L34.3162 30.4052C34.5821 30.8041 34.7682 31.2504 34.8652 31.7202H36.3799ZM31.9402 27.28V28.795C32.4095 28.8913 32.856 29.0776 33.255 29.3433L34.3283 28.2702C34.2633 28.2214 34.1973 28.1743 34.1303 28.1288C33.5421 27.729 32.8785 27.4537 32.1802 27.3201C32.1006 27.3049 32.0206 27.2915 31.9402 27.28ZM33.6799 32.47C33.6799 33.8454 32.5654 34.96 31.1902 34.96C29.815 34.96 28.7002 33.8454 28.7002 32.47C28.7002 31.0947 29.815 29.9802 31.1902 29.9802C32.5654 29.9802 33.6799 31.0947 33.6799 32.47ZM30.4402 27.28C30.3598 27.2915 30.2797 27.3049 30.2002 27.3201C29.5018 27.4537 28.8381 27.729 28.25 28.1287C28.183 28.1743 28.117 28.2214 28.052 28.2702L29.1251 29.3439C29.5241 29.0778 29.9706 28.8913 30.4402 28.795V27.28ZM26.9902 29.3321C26.9414 29.397 26.8943 29.463 26.8487 29.53C26.449 30.1181 26.1738 30.7818 26.0405 31.4802C26.0253 31.5597 26.0119 31.6398 26.0004 31.7202H27.5152C27.6115 31.2504 27.7978 30.8041 28.0633 30.4052L26.9902 29.3321ZM27.5152 33.22C27.6117 33.6893 27.7982 34.136 28.0641 34.5345L26.9902 35.6079C26.9414 35.5429 26.8942 35.4769 26.8487 35.4099C26.449 34.822 26.1738 34.1583 26.0405 33.46C26.0253 33.3804 26.0119 33.3004 26.0004 33.22H27.5152ZM31.1902 34.72C32.4328 34.72 33.4399 33.7128 33.4399 32.47C33.4399 31.2273 32.4328 30.2202 31.1902 30.2202C29.9475 30.2202 28.9402 31.2273 28.9402 32.47C28.9402 33.7128 29.9475 34.72 31.1902 34.72Z" fill="#17E200"/>
</g>
<defs>
<filter id="filter0_d" x="-1" y="-1" width="96" height="96" filterUnits="userSpaceOnUse" color-interpolation-filters="sRGB">
<feFlood flood-opacity="0" result="BackgroundImageFix"/>
<feColorMatrix in="SourceAlpha" type="matrix" values="0 0 0 0 0 0 0 0 0 0 0 0 0 0 0 0 0 0 127 0"/>
<feOffset dy="4"/>
<feGaussianBlur stdDeviation="12"/>
<feColorMatrix type="matrix" values="0 0 0 0 0.411765 0 0 0 0 0.811765 0 0 0 0 0.0941176 0 0 0 1 0"/>
<feBlend mode="normal" in2="BackgroundImageFix" result="effect1_dropShadow"/>
<feBlend mode="normal" in="SourceGraphic" in2="effect1_dropShadow" result="shape"/>
</filter>
</defs>
</svg>
