<svg id="profile_icon" xmlns="http://www.w3.org/2000/svg" width="17" height="22" viewBox="0 0 17 22">
  <path id="Path_13378" data-name="Path 13378" d="M8.5,11C10.985,11,13,8.538,13,5.5S12.339,0,8.5,0,4,2.462,4,5.5,6.015,11,8.5,11Z" fill="#06651B"/>
  <path id="Path_13379" data-name="Path 13379" d="M16.99,18.7c-.083-5.258-.77-6.756-6.026-7.7a3.151,3.151,0,0,1-2.464.943A3.151,3.151,0,0,1,6.036,11c-5.2.938-5.927,2.414-6.023,7.534-.008.418-.011.44-.013.392,0,.091,0,.259,0,.552C0,19.478,1.252,22,8.5,22S17,19.478,17,19.478c0-.188,0-.319,0-.409A3.4,3.4,0,0,1,16.99,18.7Z" fill="#06651B"/>
</svg>
