<svg width="16" height="19" viewBox="0 0 16 19" fill="none" xmlns="http://www.w3.org/2000/svg">
<path d="M8.04361 9.47828C10.141 9.47828 11.8415 7.40004 11.8415 4.83637C11.8415 2.27264 11.2832 0.194397 8.04361 0.194397C4.804 0.194397 4.24561 2.27264 4.24561 4.83637C4.24561 7.40004 5.94607 9.47828 8.04361 9.47828Z" fill="#FFC400"/>
<path d="M15.2094 15.981C15.1391 11.5432 14.5594 10.2787 10.1235 9.47827C10.1235 9.47827 9.4991 10.2738 8.0437 10.2738C6.58831 10.2738 5.96378 9.47827 5.96378 9.47827C1.5763 10.27 0.961373 11.5158 0.880517 15.8369C0.873887 16.1897 0.870815 16.2083 0.869629 16.1673C0.869898 16.244 0.870222 16.386 0.870222 16.6335C0.870222 16.6335 1.9263 18.7622 8.0437 18.7622C14.161 18.7622 15.2172 16.6335 15.2172 16.6335C15.2172 16.4745 15.2173 16.3639 15.2175 16.2887C15.2163 16.314 15.2139 16.2649 15.2094 15.981Z" fill="#FFC400"/>
</svg>
