<svg width="29" height="21" viewBox="0 0 29 21" fill="none" xmlns="http://www.w3.org/2000/svg">
<path d="M27.4494 12.6484C27.4494 12.6484 21.5258 19.8834 14.2247 19.8834C6.92356 19.8834 1 12.6484 1 12.6484C1 12.6484 6.92356 5.41895 14.2247 5.41895C21.5258 5.41895 27.4494 12.6484 27.4494 12.6484Z" stroke="#73748B" stroke-width="2" stroke-linecap="round" stroke-linejoin="round"/>
<path d="M10.6761 10.2074C10.5658 10.4667 10.5526 10.7571 10.6388 11.0254C10.725 11.2937 10.9049 11.5221 11.1456 11.6687C11.3862 11.8153 11.6716 11.8705 11.9496 11.8241C12.2276 11.7776 12.4795 11.6328 12.6595 11.4159C12.8395 11.199 12.9354 10.9246 12.9297 10.6429C12.9241 10.3611 12.8172 10.0908 12.6287 9.8813C12.4402 9.67181 12.1826 9.53715 11.903 9.50191C11.6234 9.46668 11.3405 9.53323 11.1059 9.6894C11.8734 8.90065 12.9163 8.43957 14.0162 8.40277C15.1161 8.36598 16.1876 8.75634 17.0061 9.49203C17.8245 10.2277 18.3265 11.2517 18.4067 12.3493C18.487 13.4468 18.1393 14.5329 17.4365 15.3798C16.7338 16.2267 15.7305 16.7688 14.6369 16.8924C13.5434 17.0159 12.4444 16.7115 11.5704 16.0427C10.6963 15.374 10.1151 14.3929 9.94834 13.3051C9.78162 12.2173 10.0424 11.1072 10.6761 10.2074V10.2074Z" fill="#787B96"/>
<path d="M10.9183 5.86558L9.81628 1" stroke="#73748B" stroke-width="2" stroke-linecap="round" stroke-linejoin="round"/>
<path d="M4.30617 9.48006L1 5.95898" stroke="#73748B" stroke-width="2" stroke-linecap="round" stroke-linejoin="round"/>
<path d="M17.5306 5.86558L18.6327 1" stroke="#73748B" stroke-width="2" stroke-linecap="round" stroke-linejoin="round"/>
<path d="M24.1431 9.48006L28.0003 5.95898" stroke="#73748B" stroke-width="2" stroke-linecap="round" stroke-linejoin="round"/>
</svg>
