<svg width="31" height="28" viewBox="0 0 31 28" fill="none" xmlns="http://www.w3.org/2000/svg">
<path d="M27.4494 14.7012C27.4494 14.7012 21.5258 21.9362 14.2247 21.9362C6.92356 21.9362 1 14.7012 1 14.7012C1 14.7012 6.92356 7.47168 14.2247 7.47168C21.5258 7.47168 27.4494 14.7012 27.4494 14.7012Z" stroke="#73748B" stroke-width="2" stroke-linecap="round" stroke-linejoin="round"/>
<path d="M14.0161 10.4555C15.116 10.4187 16.1875 10.8091 17.0059 11.5448C17.8244 12.2805 18.3264 13.3044 18.4066 14.402C18.4869 15.4996 18.1392 16.5856 17.4364 17.4325C16.7337 18.2795 15.7304 18.8215 14.6368 18.9451C13.5433 19.0687 12.4443 18.7642 11.5703 18.0955C10.6962 17.4267 10.1149 16.4457 9.94822 15.3578C9.82098 14.5276 10 10.9998 14.0161 10.4555Z" fill="#787B96"/>
<path d="M5.31046 27.0761C5.23892 27.0765 5.16801 27.0628 5.10178 27.0357C5.03555 27.0087 4.97531 26.9688 4.92452 26.9184L4.15807 26.152C4.05683 26.0501 4 25.9123 4 25.7687C4 25.6251 4.05683 25.4874 4.15807 25.3855L28.3638 1.15807C28.4656 1.05683 28.6034 1 28.747 1C28.8906 1 29.0284 1.05683 29.1302 1.15807L29.8967 1.92452C29.9979 2.02637 30.0547 2.16414 30.0547 2.30774C30.0547 2.45135 29.9979 2.58912 29.8967 2.69097L5.69641 26.9021C5.64698 26.9554 5.58736 26.9983 5.52106 27.0282C5.45477 27.0581 5.38316 27.0743 5.31046 27.0761Z" fill="white"/>
<path d="M4.31046 26.0761C4.23892 26.0765 4.16801 26.0628 4.10178 26.0357C4.03555 26.0087 3.97531 25.9688 3.92452 25.9184L3.15807 25.152C3.05683 25.0501 3 24.9123 3 24.7687C3 24.6251 3.05683 24.4874 3.15807 24.3855L27.3638 0.15807C27.4656 0.0568269 27.6034 0 27.747 0C27.8906 0 28.0284 0.0568269 28.1302 0.15807L28.8967 0.92452C28.9979 1.02637 29.0547 1.16414 29.0547 1.30774C29.0547 1.45135 28.9979 1.58912 28.8967 1.69097L4.69641 25.9021C4.64698 25.9554 4.58736 25.9983 4.52106 26.0282C4.45477 26.0581 4.38316 26.0743 4.31046 26.0761Z" fill="#73748B"/>
</svg>
