<svg width="96" height="78" viewBox="0 0 96 78" fill="none" xmlns="http://www.w3.org/2000/svg">
<g filter="url(#filter0_d)">
<mask id="path-1-inside-1" fill="white">
<path fill-rule="evenodd" clip-rule="evenodd" d="M63.7786 35.2039C63.5743 35.3571 63.319 35.4592 63.0637 35.4592H51.9828V37.9614H62.6552L70.0594 31.1699C70.4679 30.7614 71.1318 30.8124 71.4892 31.2209C71.8977 31.6294 71.8466 32.2933 71.4381 32.6507L63.7786 39.7486C63.5743 39.9018 63.319 40.0039 63.0637 40.0039H51.9828V42.506H62.6552L70.0594 35.7656C70.4679 35.3571 71.1318 35.4082 71.4892 35.8167C71.8977 36.2252 71.8466 36.889 71.4381 37.2465L63.7786 44.3443C63.5743 44.4975 63.319 44.5997 63.0637 44.5997H51.9828V47.1018H62.6552L70.0594 40.2082C70.4679 39.7997 71.1318 39.8507 71.4892 40.2592C71.8977 40.6677 71.8466 41.3316 71.4381 41.689L63.7786 48.7869C63.5743 48.9401 63.319 49.0422 63.0637 49.0422H25.2764C24.7147 49.0422 24.2552 48.5826 24.2552 48.0209C24.2552 47.4592 24.7147 46.9997 25.2764 46.9997H35.7445V44.4975H25.2764C24.7147 44.4975 24.2552 44.038 24.2552 43.4763C24.2552 42.9146 24.7147 42.455 25.2764 42.455H35.7445V39.9529H25.2764C24.7147 39.9529 24.2552 39.4933 24.2552 38.9316C24.2552 38.3699 24.7147 37.9103 25.2764 37.9103H35.7445V35.4082H25.2764C24.7147 35.4082 24.2552 34.9486 24.2552 34.3869C24.2552 33.8252 24.7147 33.3656 25.2764 33.3656H35.7445V30.8635H25.2764C24.8169 30.8635 24.4594 30.6082 24.3062 30.1997C24.153 29.7912 24.2552 29.3826 24.5615 29.0763L32.2211 21.9784C32.4254 21.8252 32.6807 21.7231 32.936 21.7231H43.6594L44.3232 21.1103C44.5275 20.9571 44.7828 20.855 45.0381 20.855H59.1828C59.6424 20.855 59.9998 21.1103 60.153 21.5188C60.2041 21.6209 60.2041 21.672 60.2041 21.7741H70.7232C71.1828 21.7741 71.5403 22.0294 71.6935 22.438C71.8466 22.8465 71.7445 23.255 71.4381 23.5614L63.7786 30.6592C63.5743 30.8124 63.319 30.9146 63.0637 30.9146H51.9828V33.4167H62.6552L70.0594 26.6252C70.4679 26.2167 71.1318 26.2677 71.4892 26.6763C71.8977 27.0848 71.8466 27.7486 71.4381 28.106L63.7786 35.2039ZM53.2083 28.8209H62.6552L68.0679 23.7656H58.6722H58.6211L53.2083 28.8209ZM41.5147 23.8167H33.3445L27.9318 28.8209H36.102L41.5147 23.8167ZM37.7871 29.9954V47.1018H49.9403V29.5869C49.9403 29.2805 50.0424 29.0252 50.2466 28.8209L56.6296 22.8975H45.4466L37.7871 29.9954ZM44.5787 42.1487C45.7532 42.1487 46.417 41.6891 47.1829 40.9232C47.4893 40.6168 47.9489 40.6168 48.2042 40.9742C48.3064 41.0764 48.4085 41.2806 48.4085 41.4849C48.4085 41.6891 48.3574 41.8423 48.2042 41.9955C47.4383 42.8125 46.3149 43.6806 44.5276 43.6806C42.434 43.6806 40.5957 42.404 39.8298 40.5147H39.0638C38.6553 40.5147 38.2978 40.1572 38.2978 39.7487C38.2978 39.3402 38.6553 38.9827 39.0638 38.9827H39.4723V38.5742V38.4721H39.0638C38.6553 38.4721 38.2978 38.1147 38.2978 37.7061C38.2978 37.2976 38.6553 36.9402 39.0638 36.9402H39.7276C40.4425 34.8466 42.3319 33.4678 44.5276 33.4678C46.3149 33.4678 47.4383 34.3359 48.2042 35.1019C48.5106 35.4083 48.5106 35.8678 48.2042 36.1742C47.8978 36.4806 47.4383 36.4806 47.1319 36.1742C46.3659 35.4083 45.7021 34.9487 44.5276 34.9487C43.2 34.9487 41.9744 35.7147 41.3617 36.8891H44.8851C45.2936 36.8891 45.651 37.2466 45.651 37.6551C45.651 38.0636 45.2936 38.421 44.8851 38.421H41.0553V38.5232V38.9317H44.8851C45.2936 38.9317 45.651 39.2891 45.651 39.6976C45.651 40.1061 45.2936 40.4636 44.8851 40.4636H41.5659C42.1787 41.5359 43.3021 42.1487 44.5787 42.1487Z"/>
</mask>
<path fill-rule="evenodd" clip-rule="evenodd" d="M63.7786 35.2039C63.5743 35.3571 63.319 35.4592 63.0637 35.4592H51.9828V37.9614H62.6552L70.0594 31.1699C70.4679 30.7614 71.1318 30.8124 71.4892 31.2209C71.8977 31.6294 71.8466 32.2933 71.4381 32.6507L63.7786 39.7486C63.5743 39.9018 63.319 40.0039 63.0637 40.0039H51.9828V42.506H62.6552L70.0594 35.7656C70.4679 35.3571 71.1318 35.4082 71.4892 35.8167C71.8977 36.2252 71.8466 36.889 71.4381 37.2465L63.7786 44.3443C63.5743 44.4975 63.319 44.5997 63.0637 44.5997H51.9828V47.1018H62.6552L70.0594 40.2082C70.4679 39.7997 71.1318 39.8507 71.4892 40.2592C71.8977 40.6677 71.8466 41.3316 71.4381 41.689L63.7786 48.7869C63.5743 48.9401 63.319 49.0422 63.0637 49.0422H25.2764C24.7147 49.0422 24.2552 48.5826 24.2552 48.0209C24.2552 47.4592 24.7147 46.9997 25.2764 46.9997H35.7445V44.4975H25.2764C24.7147 44.4975 24.2552 44.038 24.2552 43.4763C24.2552 42.9146 24.7147 42.455 25.2764 42.455H35.7445V39.9529H25.2764C24.7147 39.9529 24.2552 39.4933 24.2552 38.9316C24.2552 38.3699 24.7147 37.9103 25.2764 37.9103H35.7445V35.4082H25.2764C24.7147 35.4082 24.2552 34.9486 24.2552 34.3869C24.2552 33.8252 24.7147 33.3656 25.2764 33.3656H35.7445V30.8635H25.2764C24.8169 30.8635 24.4594 30.6082 24.3062 30.1997C24.153 29.7912 24.2552 29.3826 24.5615 29.0763L32.2211 21.9784C32.4254 21.8252 32.6807 21.7231 32.936 21.7231H43.6594L44.3232 21.1103C44.5275 20.9571 44.7828 20.855 45.0381 20.855H59.1828C59.6424 20.855 59.9998 21.1103 60.153 21.5188C60.2041 21.6209 60.2041 21.672 60.2041 21.7741H70.7232C71.1828 21.7741 71.5403 22.0294 71.6935 22.438C71.8466 22.8465 71.7445 23.255 71.4381 23.5614L63.7786 30.6592C63.5743 30.8124 63.319 30.9146 63.0637 30.9146H51.9828V33.4167H62.6552L70.0594 26.6252C70.4679 26.2167 71.1318 26.2677 71.4892 26.6763C71.8977 27.0848 71.8466 27.7486 71.4381 28.106L63.7786 35.2039ZM53.2083 28.8209H62.6552L68.0679 23.7656H58.6722H58.6211L53.2083 28.8209ZM41.5147 23.8167H33.3445L27.9318 28.8209H36.102L41.5147 23.8167ZM37.7871 29.9954V47.1018H49.9403V29.5869C49.9403 29.2805 50.0424 29.0252 50.2466 28.8209L56.6296 22.8975H45.4466L37.7871 29.9954ZM44.5787 42.1487C45.7532 42.1487 46.417 41.6891 47.1829 40.9232C47.4893 40.6168 47.9489 40.6168 48.2042 40.9742C48.3064 41.0764 48.4085 41.2806 48.4085 41.4849C48.4085 41.6891 48.3574 41.8423 48.2042 41.9955C47.4383 42.8125 46.3149 43.6806 44.5276 43.6806C42.434 43.6806 40.5957 42.404 39.8298 40.5147H39.0638C38.6553 40.5147 38.2978 40.1572 38.2978 39.7487C38.2978 39.3402 38.6553 38.9827 39.0638 38.9827H39.4723V38.5742V38.4721H39.0638C38.6553 38.4721 38.2978 38.1147 38.2978 37.7061C38.2978 37.2976 38.6553 36.9402 39.0638 36.9402H39.7276C40.4425 34.8466 42.3319 33.4678 44.5276 33.4678C46.3149 33.4678 47.4383 34.3359 48.2042 35.1019C48.5106 35.4083 48.5106 35.8678 48.2042 36.1742C47.8978 36.4806 47.4383 36.4806 47.1319 36.1742C46.3659 35.4083 45.7021 34.9487 44.5276 34.9487C43.2 34.9487 41.9744 35.7147 41.3617 36.8891H44.8851C45.2936 36.8891 45.651 37.2466 45.651 37.6551C45.651 38.0636 45.2936 38.421 44.8851 38.421H41.0553V38.5232V38.9317H44.8851C45.2936 38.9317 45.651 39.2891 45.651 39.6976C45.651 40.1061 45.2936 40.4636 44.8851 40.4636H41.5659C42.1787 41.5359 43.3021 42.1487 44.5787 42.1487Z" fill="#E4FFA3"/>
<path d="M63.7786 35.2039L64.1386 35.6839L64.1635 35.6652L64.1864 35.644L63.7786 35.2039ZM51.9828 35.4592V34.8592H51.3828V35.4592H51.9828ZM51.9828 37.9614H51.3828V38.5614H51.9828V37.9614ZM62.6552 37.9614V38.5614H62.8887L63.0607 38.4035L62.6552 37.9614ZM70.0594 31.1699L70.465 31.612L70.4745 31.6033L70.4837 31.5941L70.0594 31.1699ZM71.4892 31.2209L71.0377 31.616L71.0508 31.6311L71.0649 31.6452L71.4892 31.2209ZM71.4381 32.6507L71.043 32.1992L71.0366 32.2048L71.0303 32.2106L71.4381 32.6507ZM63.7786 39.7486L64.1386 40.2286L64.1635 40.2099L64.1864 40.1887L63.7786 39.7486ZM51.9828 40.0039V39.4039H51.3828V40.0039H51.9828ZM51.9828 42.506H51.3828V43.106H51.9828V42.506ZM62.6552 42.506V43.106H62.8874L63.0591 42.9497L62.6552 42.506ZM70.0594 35.7656L70.4633 36.2093L70.4737 36.1998L70.4837 36.1899L70.0594 35.7656ZM71.4892 35.8167L71.0377 36.2118L71.0508 36.2268L71.0649 36.2409L71.4892 35.8167ZM71.4381 37.2465L71.043 36.7949L71.0366 36.8006L71.0303 36.8064L71.4381 37.2465ZM63.7786 44.3443L64.1386 44.8243L64.1635 44.8056L64.1864 44.7844L63.7786 44.3443ZM51.9828 44.5997V43.9997H51.3828V44.5997H51.9828ZM51.9828 47.1018H51.3828V47.7018H51.9828V47.1018ZM62.6552 47.1018V47.7018H62.8912L63.064 47.5409L62.6552 47.1018ZM70.0594 40.2082L70.4683 40.6473L70.4761 40.64L70.4837 40.6324L70.0594 40.2082ZM71.4892 40.2592L71.0377 40.6543L71.0508 40.6694L71.0649 40.6835L71.4892 40.2592ZM71.4381 41.689L71.043 41.2375L71.0366 41.2431L71.0303 41.2489L71.4381 41.689ZM63.7786 48.7869L64.1386 49.2669L64.1635 49.2482L64.1864 49.227L63.7786 48.7869ZM35.7445 46.9997V47.5997H36.3445V46.9997H35.7445ZM35.7445 44.4975H36.3445V43.8975H35.7445V44.4975ZM35.7445 42.455V43.055H36.3445V42.455H35.7445ZM35.7445 39.9529H36.3445V39.3529H35.7445V39.9529ZM35.7445 37.9103V38.5103H36.3445V37.9103H35.7445ZM35.7445 35.4082H36.3445V34.8082H35.7445V35.4082ZM35.7445 33.3656V33.9656H36.3445V33.3656H35.7445ZM35.7445 30.8635H36.3445V30.2635H35.7445V30.8635ZM24.3062 30.1997L23.7444 30.4103H23.7444L24.3062 30.1997ZM24.5615 29.0763L24.1537 28.6362L24.1453 28.6439L24.1373 28.652L24.5615 29.0763ZM32.2211 21.9784L31.8611 21.4984L31.8362 21.5171L31.8133 21.5383L32.2211 21.9784ZM43.6594 21.7231V22.3231H43.894L44.0664 22.1639L43.6594 21.7231ZM44.3232 21.1103L43.9632 20.6303L43.9388 20.6487L43.9163 20.6694L44.3232 21.1103ZM60.153 21.5188L59.5912 21.7295L59.6023 21.759L59.6164 21.7871L60.153 21.5188ZM60.2041 21.7741H59.6041V22.3741H60.2041V21.7741ZM71.4381 23.5614L71.846 24.0015L71.8543 23.9937L71.8624 23.9856L71.4381 23.5614ZM63.7786 30.6592L64.1386 31.1392L64.1635 31.1205L64.1864 31.0993L63.7786 30.6592ZM51.9828 30.9146V30.3146H51.3828V30.9146H51.9828ZM51.9828 33.4167H51.3828V34.0167H51.9828V33.4167ZM62.6552 33.4167V34.0167H62.8887L63.0607 33.8589L62.6552 33.4167ZM70.0594 26.6252L70.465 27.0674L70.4745 27.0586L70.4837 27.0495L70.0594 26.6252ZM71.4892 26.6763L71.0377 27.0714L71.0508 27.0864L71.0649 27.1005L71.4892 26.6763ZM71.4381 28.106L71.043 27.6545L71.0366 27.6601L71.0303 27.666L71.4381 28.106ZM62.6552 28.8209V29.4209H62.8918L63.0647 29.2594L62.6552 28.8209ZM53.2083 28.8209L52.7988 28.3824L51.6869 29.4209H53.2083V28.8209ZM68.0679 23.7656L68.4775 24.2041L69.5894 23.1656H68.0679V23.7656ZM58.6211 23.7656V23.1656H58.3845L58.2116 23.3271L58.6211 23.7656ZM33.3445 23.8167V23.2167H33.1097L32.9372 23.3761L33.3445 23.8167ZM41.5147 23.8167L41.922 24.2572L43.0476 23.2167H41.5147V23.8167ZM27.9318 28.8209L27.5244 28.3804L26.3989 29.4209H27.9318V28.8209ZM36.102 28.8209V29.4209H36.3368L36.5093 29.2615L36.102 28.8209ZM37.7871 47.1018H37.1871V47.7018H37.7871V47.1018ZM37.7871 29.9954L37.3793 29.5553L37.1871 29.7334V29.9954H37.7871ZM49.9403 47.1018V47.7018H50.5403V47.1018H49.9403ZM50.2466 28.8209L49.8385 28.3811L49.8303 28.3888L49.8224 28.3967L50.2466 28.8209ZM56.6296 22.8975L57.0378 23.3373L58.1582 22.2975H56.6296V22.8975ZM45.4466 22.8975V22.2975H45.2114L45.0388 22.4574L45.4466 22.8975ZM47.1829 40.9232L47.6072 41.3474L47.6072 41.3474L47.1829 40.9232ZM48.2042 40.9742L47.716 41.323L47.7448 41.3634L47.78 41.3985L48.2042 40.9742ZM48.2042 41.9955L47.78 41.5712L47.7731 41.5781L47.7665 41.5851L48.2042 41.9955ZM39.8298 40.5147L40.3858 40.2892L40.2339 39.9147H39.8298V40.5147ZM39.4723 38.9827V39.5827H40.0723V38.9827H39.4723ZM39.4723 38.4721H40.0723V37.8721H39.4723V38.4721ZM39.7276 36.9402V37.5402H40.1568L40.2954 37.1341L39.7276 36.9402ZM48.2042 35.1019L48.6285 34.6776H48.6285L48.2042 35.1019ZM48.2042 36.1742L47.78 35.75L47.78 35.75L48.2042 36.1742ZM47.1319 36.1742L47.5561 35.75L47.5561 35.75L47.1319 36.1742ZM41.3617 36.8891L40.8297 36.6116L40.3719 37.4891H41.3617V36.8891ZM41.0553 38.421V37.821H40.4553V38.421H41.0553ZM41.0553 38.9317H40.4553V39.5317H41.0553V38.9317ZM41.5659 40.4636V39.8636H40.532L41.045 40.7613L41.5659 40.4636ZM63.0637 36.0592C63.4739 36.0592 63.8525 35.8985 64.1386 35.6839L63.4186 34.7239C63.2961 34.8158 63.1641 34.8592 63.0637 34.8592V36.0592ZM51.9828 36.0592H63.0637V34.8592H51.9828V36.0592ZM52.5828 37.9614V35.4592H51.3828V37.9614H52.5828ZM62.6552 37.3614H51.9828V38.5614H62.6552V37.3614ZM69.6538 30.7277L62.2496 37.5192L63.0607 38.4035L70.465 31.612L69.6538 30.7277ZM71.9407 30.8258C71.3668 30.1698 70.3018 30.079 69.6351 30.7456L70.4837 31.5941C70.6341 31.4438 70.8968 31.455 71.0377 31.616L71.9407 30.8258ZM71.8332 33.1023C72.4892 32.5283 72.5801 31.4633 71.9135 30.7967L71.0649 31.6452C71.2153 31.7956 71.2041 32.0583 71.043 32.1992L71.8332 33.1023ZM64.1864 40.1887L71.846 33.0908L71.0303 32.2106L63.3707 39.3085L64.1864 40.1887ZM63.0637 40.6039C63.4739 40.6039 63.8525 40.4431 64.1386 40.2286L63.4186 39.2686C63.2961 39.3604 63.1641 39.4039 63.0637 39.4039V40.6039ZM51.9828 40.6039H63.0637V39.4039H51.9828V40.6039ZM52.5828 42.506V40.0039H51.3828V42.506H52.5828ZM62.6552 41.906H51.9828V43.106H62.6552V41.906ZM69.6555 35.3219L62.2512 42.0624L63.0591 42.9497L70.4633 36.2093L69.6555 35.3219ZM71.9407 35.4216C71.3668 34.7656 70.3018 34.6747 69.6351 35.3414L70.4837 36.1899C70.6341 36.0395 70.8968 36.0508 71.0377 36.2118L71.9407 35.4216ZM71.8332 37.698C72.4892 37.124 72.5801 36.0591 71.9135 35.3924L71.0649 36.2409C71.2153 36.3913 71.2041 36.654 71.043 36.7949L71.8332 37.698ZM64.1864 44.7844L71.846 37.6866L71.0303 36.8064L63.3707 43.9043L64.1864 44.7844ZM63.0637 45.1997C63.4739 45.1997 63.8525 45.0389 64.1386 44.8243L63.4186 43.8643C63.2961 43.9562 63.1641 43.9997 63.0637 43.9997V45.1997ZM51.9828 45.1997H63.0637V43.9997H51.9828V45.1997ZM52.5828 47.1018V44.5997H51.3828V47.1018H52.5828ZM62.6552 46.5018H51.9828V47.7018H62.6552V46.5018ZM69.6506 39.769L62.2463 46.6627L63.064 47.5409L70.4683 40.6473L69.6506 39.769ZM71.9407 39.8641C71.3668 39.2081 70.3018 39.1173 69.6351 39.7839L70.4837 40.6324C70.6341 40.4821 70.8968 40.4933 71.0377 40.6543L71.9407 39.8641ZM71.8332 42.1406C72.4892 41.5666 72.5801 40.5016 71.9135 39.835L71.0649 40.6835C71.2153 40.8339 71.2041 41.0966 71.043 41.2375L71.8332 42.1406ZM64.1864 49.227L71.846 42.1291L71.0303 41.2489L63.3707 48.3468L64.1864 49.227ZM63.0637 49.6422C63.4739 49.6422 63.8525 49.4814 64.1386 49.2669L63.4186 48.3069C63.2961 48.3987 63.1641 48.4422 63.0637 48.4422V49.6422ZM25.2764 49.6422H63.0637V48.4422H25.2764V49.6422ZM23.6552 48.0209C23.6552 48.914 24.3834 49.6422 25.2764 49.6422V48.4422C25.0461 48.4422 24.8552 48.2513 24.8552 48.0209H23.6552ZM25.2764 46.3997C24.3834 46.3997 23.6552 47.1279 23.6552 48.0209H24.8552C24.8552 47.7906 25.0461 47.5997 25.2764 47.5997V46.3997ZM35.7445 46.3997H25.2764V47.5997H35.7445V46.3997ZM35.1445 44.4975V46.9997H36.3445V44.4975H35.1445ZM25.2764 45.0975H35.7445V43.8975H25.2764V45.0975ZM23.6552 43.4763C23.6552 44.3693 24.3834 45.0975 25.2764 45.0975V43.8975C25.0461 43.8975 24.8552 43.7066 24.8552 43.4763H23.6552ZM25.2764 41.855C24.3834 41.855 23.6552 42.5832 23.6552 43.4763H24.8552C24.8552 43.2459 25.0461 43.055 25.2764 43.055V41.855ZM35.7445 41.855H25.2764V43.055H35.7445V41.855ZM35.1445 39.9529V42.455H36.3445V39.9529H35.1445ZM25.2764 40.5529H35.7445V39.3529H25.2764V40.5529ZM23.6552 38.9316C23.6552 39.8247 24.3834 40.5529 25.2764 40.5529V39.3529C25.0461 39.3529 24.8552 39.1619 24.8552 38.9316H23.6552ZM25.2764 37.3103C24.3834 37.3103 23.6552 38.0385 23.6552 38.9316H24.8552C24.8552 38.7012 25.0461 38.5103 25.2764 38.5103V37.3103ZM35.7445 37.3103H25.2764V38.5103H35.7445V37.3103ZM35.1445 35.4082V37.9103H36.3445V35.4082H35.1445ZM25.2764 36.0082H35.7445V34.8082H25.2764V36.0082ZM23.6552 34.3869C23.6552 35.28 24.3834 36.0082 25.2764 36.0082V34.8082C25.0461 34.8082 24.8552 34.6172 24.8552 34.3869H23.6552ZM25.2764 32.7656C24.3834 32.7656 23.6552 33.4938 23.6552 34.3869H24.8552C24.8552 34.1566 25.0461 33.9656 25.2764 33.9656V32.7656ZM35.7445 32.7656H25.2764V33.9656H35.7445V32.7656ZM35.1445 30.8635V33.3656H36.3445V30.8635H35.1445ZM25.2764 31.4635H35.7445V30.2635H25.2764V31.4635ZM23.7444 30.4103C23.9856 31.0535 24.5672 31.4635 25.2764 31.4635V30.2635C25.0665 30.2635 24.9332 30.1629 24.868 29.989L23.7444 30.4103ZM24.1373 28.652C23.6754 29.1139 23.5034 29.7675 23.7444 30.4103L24.868 29.989C24.8027 29.8148 24.835 29.6514 24.9858 29.5005L24.1373 28.652ZM31.8133 21.5383L24.1537 28.6362L24.9694 29.5164L32.6289 22.4185L31.8133 21.5383ZM32.936 21.1231C32.5258 21.1231 32.1472 21.2838 31.8611 21.4984L32.5811 22.4584C32.7036 22.3665 32.8356 22.3231 32.936 22.3231V21.1231ZM43.6594 21.1231H32.936V22.3231H43.6594V21.1231ZM43.9163 20.6694L43.2524 21.2822L44.0664 22.1639L44.7302 21.5512L43.9163 20.6694ZM45.0381 20.255C44.6279 20.255 44.2493 20.4158 43.9632 20.6303L44.6832 21.5903C44.8057 21.4985 44.9377 21.455 45.0381 21.455V20.255ZM59.1828 20.255H45.0381V21.455H59.1828V20.255ZM60.7148 21.3081C60.4737 20.665 59.892 20.255 59.1828 20.255V21.455C59.3927 21.455 59.526 21.5556 59.5912 21.7295L60.7148 21.3081ZM60.8041 21.7741C60.8041 21.7349 60.8056 21.6443 60.7895 21.5478C60.771 21.4364 60.7347 21.3406 60.6897 21.2505L59.6164 21.7871C59.6203 21.795 59.6188 21.793 59.6156 21.7837C59.6139 21.7789 59.612 21.7729 59.6102 21.7659C59.6084 21.7588 59.607 21.7517 59.6059 21.7451C59.6037 21.7318 59.6036 21.7243 59.6037 21.7286C59.6038 21.7309 59.6039 21.7353 59.604 21.7433C59.6041 21.7515 59.6041 21.7608 59.6041 21.7741H60.8041ZM70.7232 21.1741H60.2041V22.3741H70.7232V21.1741ZM72.2553 22.2273C72.0141 21.5842 71.4325 21.1741 70.7232 21.1741V22.3741C70.9332 22.3741 71.0664 22.4747 71.1317 22.6486L72.2553 22.2273ZM71.8624 23.9856C72.3243 23.5237 72.4963 22.8701 72.2553 22.2273L71.1317 22.6486C71.197 22.8228 71.1647 22.9862 71.0139 23.1371L71.8624 23.9856ZM64.1864 31.0993L71.846 24.0015L71.0303 23.1213L63.3707 30.2191L64.1864 31.0993ZM63.0637 31.5146C63.4739 31.5146 63.8525 31.3538 64.1386 31.1392L63.4186 30.1792C63.2961 30.2711 63.1641 30.3146 63.0637 30.3146V31.5146ZM51.9828 31.5146H63.0637V30.3146H51.9828V31.5146ZM52.5828 33.4167V30.9146H51.3828V33.4167H52.5828ZM62.6552 32.8167H51.9828V34.0167H62.6552V32.8167ZM69.6538 26.183L62.2496 32.9745L63.0607 33.8589L70.465 27.0674L69.6538 26.183ZM71.9407 26.2812C71.3668 25.6252 70.3018 25.5343 69.6351 26.2009L70.4837 27.0495C70.6341 26.8991 70.8968 26.9103 71.0377 27.0714L71.9407 26.2812ZM71.8332 28.5576C72.4892 27.9836 72.5801 26.9186 71.9135 26.252L71.0649 27.1005C71.2153 27.2509 71.2041 27.5136 71.043 27.6545L71.8332 28.5576ZM64.1864 35.644L71.846 28.5461L71.0303 27.666L63.3707 34.7638L64.1864 35.644ZM62.6552 28.2209H53.2083V29.4209H62.6552V28.2209ZM67.6584 23.3271L62.2456 28.3824L63.0647 29.2594L68.4775 24.2041L67.6584 23.3271ZM58.6722 24.3656H68.0679V23.1656H58.6722V24.3656ZM58.6211 24.3656H58.6722V23.1656H58.6211V24.3656ZM53.6179 29.2594L59.0307 24.2041L58.2116 23.3271L52.7988 28.3824L53.6179 29.2594ZM33.3445 24.4167H41.5147V23.2167H33.3445V24.4167ZM28.3391 29.2615L33.7518 24.2572L32.9372 23.3761L27.5244 28.3804L28.3391 29.2615ZM36.102 28.2209H27.9318V29.4209H36.102V28.2209ZM41.1074 23.3761L35.6947 28.3804L36.5093 29.2615L41.922 24.2572L41.1074 23.3761ZM38.3871 47.1018V29.9954H37.1871V47.1018H38.3871ZM49.9403 46.5018H37.7871V47.7018H49.9403V46.5018ZM49.3403 29.5869V47.1018H50.5403V29.5869H49.3403ZM49.8224 28.3967C49.4983 28.7208 49.3403 29.1321 49.3403 29.5869H50.5403C50.5403 29.4289 50.5865 29.3296 50.6709 29.2452L49.8224 28.3967ZM56.2215 22.4577L49.8385 28.3811L50.6548 29.2607L57.0378 23.3373L56.2215 22.4577ZM45.4466 23.4975H56.6296V22.2975H45.4466V23.4975ZM38.1949 30.4355L45.8545 23.3376L45.0388 22.4574L37.3793 29.5553L38.1949 30.4355ZM46.7587 40.4989C46.3904 40.8672 46.085 41.1218 45.759 41.2899C45.4441 41.4523 45.0804 41.5487 44.5787 41.5487V42.7487C45.2515 42.7487 45.8069 42.6153 46.309 42.3565C46.8 42.1032 47.2095 41.7451 47.6072 41.3474L46.7587 40.4989ZM48.6925 40.6255C48.4589 40.2985 48.1092 40.1131 47.7334 40.1001C47.3661 40.0875 47.0177 40.2399 46.7587 40.4989L47.6072 41.3474C47.6546 41.3001 47.6891 41.2993 47.6921 41.2994C47.6939 41.2995 47.6936 41.2996 47.6938 41.2997C47.6942 41.2999 47.6963 41.3011 47.6997 41.3042C47.7032 41.3073 47.7089 41.3131 47.716 41.323L48.6925 40.6255ZM49.0085 41.4849C49.0085 41.1111 48.8356 40.757 48.6285 40.55L47.78 41.3985C47.7715 41.39 47.7715 41.3883 47.7767 41.3961C47.7813 41.4032 47.7874 41.4141 47.7932 41.4276C47.7989 41.4411 47.8031 41.4541 47.8057 41.4654C47.8082 41.4768 47.8085 41.4834 47.8085 41.4849H49.0085ZM48.6285 42.4198C48.7546 42.2937 48.8571 42.1481 48.9238 41.9747C48.9895 41.804 49.0085 41.6371 49.0085 41.4849H47.8085C47.8085 41.5369 47.802 41.5487 47.8038 41.544C47.8045 41.5422 47.8049 41.542 47.8031 41.5447C47.801 41.5478 47.7946 41.5566 47.78 41.5712L48.6285 42.4198ZM44.5276 44.2806C46.544 44.2806 47.8146 43.2883 48.6419 42.4059L47.7665 41.5851C47.0619 42.3367 46.0858 43.0806 44.5276 43.0806V44.2806ZM39.2737 40.7401C40.13 42.8522 42.1857 44.2806 44.5276 44.2806V43.0806C42.6823 43.0806 41.0615 41.9559 40.3858 40.2892L39.2737 40.7401ZM39.0638 41.1147H39.8298V39.9147H39.0638V41.1147ZM37.6978 39.7487C37.6978 40.4886 38.3239 41.1147 39.0638 41.1147V39.9147C39.0361 39.9147 38.9927 39.9015 38.9519 39.8606C38.911 39.8198 38.8978 39.7764 38.8978 39.7487H37.6978ZM39.0638 38.3827C38.3239 38.3827 37.6978 39.0088 37.6978 39.7487H38.8978C38.8978 39.721 38.911 39.6776 38.9519 39.6368C38.9927 39.5959 39.0361 39.5827 39.0638 39.5827V38.3827ZM39.4723 38.3827H39.0638V39.5827H39.4723V38.3827ZM38.8723 38.5742V38.9827H40.0723V38.5742H38.8723ZM38.8723 38.4721V38.5742H40.0723V38.4721H38.8723ZM39.0638 39.0721H39.4723V37.8721H39.0638V39.0721ZM37.6978 37.7061C37.6978 38.446 38.3239 39.0721 39.0638 39.0721V37.8721C39.0361 37.8721 38.9927 37.8589 38.9519 37.8181C38.911 37.7772 38.8978 37.7339 38.8978 37.7061H37.6978ZM39.0638 36.3402C38.3239 36.3402 37.6978 36.9663 37.6978 37.7061H38.8978C38.8978 37.6784 38.911 37.6351 38.9519 37.5942C38.9927 37.5534 39.0361 37.5402 39.0638 37.5402V36.3402ZM39.7276 36.3402H39.0638V37.5402H39.7276V36.3402ZM44.5276 32.8678C42.0688 32.8678 39.9556 34.4159 39.1598 36.7463L40.2954 37.1341C40.9295 35.2772 42.595 34.0678 44.5276 34.0678V32.8678ZM48.6285 34.6776C47.8094 33.8586 46.5419 32.8678 44.5276 32.8678V34.0678C46.0878 34.0678 47.0671 34.8133 47.78 35.5262L48.6285 34.6776ZM48.6285 36.5985C49.1692 36.0578 49.1692 35.2183 48.6285 34.6776L47.78 35.5262C47.8242 35.5704 47.834 35.6107 47.834 35.6381C47.834 35.6654 47.8242 35.7057 47.78 35.75L48.6285 36.5985ZM46.7076 36.5985C47.2483 37.1392 48.0878 37.1392 48.6285 36.5985L47.78 35.75C47.7357 35.7942 47.6954 35.804 47.6681 35.804C47.6407 35.804 47.6004 35.7942 47.5561 35.75L46.7076 36.5985ZM44.5276 35.5487C45.0293 35.5487 45.393 35.6451 45.708 35.8075C46.0339 35.9756 46.3394 36.2302 46.7076 36.5985L47.5561 35.75C47.1585 35.3523 46.749 34.9942 46.2579 34.7409C45.7558 34.4821 45.2004 34.3487 44.5276 34.3487V35.5487ZM41.8936 37.1667C42.4062 36.1843 43.4303 35.5487 44.5276 35.5487V34.3487C42.9696 34.3487 41.5427 35.2451 40.8297 36.6116L41.8936 37.1667ZM44.8851 36.2891H41.3617V37.4891H44.8851V36.2891ZM46.251 37.6551C46.251 36.9152 45.625 36.2891 44.8851 36.2891V37.4891C44.9128 37.4891 44.9561 37.5023 44.997 37.5432C45.0378 37.584 45.051 37.6274 45.051 37.6551H46.251ZM44.8851 39.021C45.625 39.021 46.251 38.395 46.251 37.6551H45.051C45.051 37.6828 45.0378 37.7261 44.997 37.767C44.9561 37.8078 44.9128 37.821 44.8851 37.821V39.021ZM41.0553 39.021H44.8851V37.821H41.0553V39.021ZM41.6553 38.5232V38.421H40.4553V38.5232H41.6553ZM41.6553 38.9317V38.5232H40.4553V38.9317H41.6553ZM44.8851 38.3317H41.0553V39.5317H44.8851V38.3317ZM46.251 39.6976C46.251 38.9578 45.625 38.3317 44.8851 38.3317V39.5317C44.9128 39.5317 44.9561 39.5449 44.997 39.5857C45.0378 39.6266 45.051 39.6699 45.051 39.6976H46.251ZM44.8851 41.0636C45.625 41.0636 46.251 40.4375 46.251 39.6976H45.051C45.051 39.7253 45.0378 39.7687 44.997 39.8095C44.9561 39.8504 44.9128 39.8636 44.8851 39.8636V41.0636ZM41.5659 41.0636H44.8851V39.8636H41.5659V41.0636ZM44.5787 41.5487C43.4998 41.5487 42.5844 41.0365 42.0869 40.1659L41.045 40.7613C41.773 42.0354 43.1044 42.7487 44.5787 42.7487V41.5487Z" fill="#AAFF5C" mask="url(#path-1-inside-1)"/>
<mask id="path-3-inside-2" fill="white">
<path fill-rule="evenodd" clip-rule="evenodd" d="M63.5427 35.2039C63.3385 35.3571 63.0831 35.4592 62.8278 35.4592H51.747V37.9614H62.4193L69.8236 31.1699C70.2321 30.7614 70.8959 30.8124 71.2534 31.2209C71.6619 31.6294 71.6108 32.2933 71.2023 32.6507L63.5427 39.7486C63.3385 39.9018 63.0831 40.0039 62.8278 40.0039H51.747V42.506H62.4193L69.8236 35.7656C70.2321 35.3571 70.8959 35.4082 71.2534 35.8167C71.6619 36.2252 71.6108 36.889 71.2023 37.2465L63.5427 44.3443C63.3385 44.4975 63.0831 44.5997 62.8278 44.5997H51.747V47.1018H62.4193L69.8236 40.2082C70.2321 39.7997 70.8959 39.8507 71.2534 40.2592C71.6619 40.6677 71.6108 41.3316 71.2023 41.689L63.5427 48.7869C63.3385 48.9401 63.0831 49.0422 62.8278 49.0422H25.0406C24.4789 49.0422 24.0193 48.5826 24.0193 48.0209C24.0193 47.4592 24.4789 46.9997 25.0406 46.9997H35.5087V44.4975H25.0406C24.4789 44.4975 24.0193 44.038 24.0193 43.4763C24.0193 42.9146 24.4789 42.455 25.0406 42.455H35.5087V39.9529H25.0406C24.4789 39.9529 24.0193 39.4933 24.0193 38.9316C24.0193 38.3699 24.4789 37.9103 25.0406 37.9103H35.5087V35.4082H25.0406C24.4789 35.4082 24.0193 34.9486 24.0193 34.3869C24.0193 33.8252 24.4789 33.3656 25.0406 33.3656H35.5087V30.8635H25.0406C24.581 30.8635 24.2236 30.6082 24.0704 30.1997C23.9172 29.7912 24.0193 29.3826 24.3257 29.0763L31.9853 21.9784C32.1895 21.8252 32.4448 21.7231 32.7002 21.7231H43.4236L44.0874 21.1103C44.2917 20.9571 44.547 20.855 44.8023 20.855H58.947C59.4066 20.855 59.764 21.1103 59.9172 21.5188C59.9683 21.6209 59.9683 21.672 59.9683 21.7741H70.4874C70.947 21.7741 71.3044 22.0294 71.4576 22.438C71.6108 22.8465 71.5087 23.255 71.2023 23.5614L63.5427 30.6592C63.3385 30.8124 63.0831 30.9146 62.8278 30.9146H51.747V33.4167H62.4193L69.8236 26.6252C70.2321 26.2167 70.8959 26.2677 71.2534 26.6763C71.6619 27.0848 71.6108 27.7486 71.2023 28.106L63.5427 35.2039ZM52.9725 28.8209H62.4193L67.8321 23.7656H58.4363H58.3853L52.9725 28.8209ZM41.2789 23.8167H33.1087L27.6959 28.8209H35.8661L41.2789 23.8167ZM37.5512 29.9954V47.1018H49.7044V29.5869C49.7044 29.2805 49.8066 29.0252 50.0108 28.8209L56.3938 22.8975H45.2108L37.5512 29.9954ZM44.3429 42.1487C45.5173 42.1487 46.1812 41.6891 46.9471 40.9232C47.2535 40.6168 47.7131 40.6168 47.9684 40.9742C48.0705 41.0764 48.1726 41.2806 48.1726 41.4849C48.1726 41.6891 48.1216 41.8423 47.9684 41.9955C47.2024 42.8125 46.079 43.6806 44.2918 43.6806C42.1982 43.6806 40.3599 42.404 39.5939 40.5147H38.828C38.4194 40.5147 38.062 40.1572 38.062 39.7487C38.062 39.3402 38.4194 38.9827 38.828 38.9827H39.2365V38.5742V38.4721H38.828C38.4194 38.4721 38.062 38.1147 38.062 37.7061C38.062 37.2976 38.4194 36.9402 38.828 36.9402H39.4918C40.2067 34.8466 42.096 33.4678 44.2918 33.4678C46.079 33.4678 47.2024 34.3359 47.9684 35.1019C48.2748 35.4083 48.2748 35.8678 47.9684 36.1742C47.662 36.4806 47.2024 36.4806 46.896 36.1742C46.1301 35.4083 45.4663 34.9487 44.2918 34.9487C42.9641 34.9487 41.7386 35.7147 41.1258 36.8891H44.6492C45.0577 36.8891 45.4152 37.2466 45.4152 37.6551C45.4152 38.0636 45.0577 38.421 44.6492 38.421H40.8194V38.5232V38.9317H44.6492C45.0577 38.9317 45.4152 39.2891 45.4152 39.6976C45.4152 40.1061 45.0577 40.4636 44.6492 40.4636H41.3301C41.9429 41.5359 43.0663 42.1487 44.3429 42.1487Z"/>
</mask>
<path d="M63.5427 35.2039L63.7227 35.4439L63.7352 35.4346L63.7466 35.424L63.5427 35.2039ZM51.747 35.4592V35.1592H51.447V35.4592H51.747ZM51.747 37.9614H51.447V38.2614H51.747V37.9614ZM62.4193 37.9614V38.2614H62.5361L62.6221 38.1824L62.4193 37.9614ZM69.8236 31.1699L70.0265 31.3912L70.0357 31.382L69.8236 31.1699ZM71.2534 31.2209L71.0276 31.4185L71.0342 31.426L71.0412 31.4331L71.2534 31.2209ZM71.2023 32.6507L71.0047 32.4249L70.9984 32.4307L71.2023 32.6507ZM63.5427 39.7486L63.7227 39.9886L63.7352 39.9792L63.7466 39.9686L63.5427 39.7486ZM51.747 40.0039V39.7039H51.447V40.0039H51.747ZM51.747 42.506H51.447V42.806H51.747V42.506ZM62.4193 42.506V42.806H62.5354L62.6213 42.7279L62.4193 42.506ZM69.8236 35.7656L70.0257 35.9877L70.0357 35.9778L69.8236 35.7656ZM71.2534 35.8167L71.0276 36.0142L71.0342 36.0218L71.0412 36.0288L71.2534 35.8167ZM71.2023 37.2465L71.0047 37.0206L70.9984 37.0264L71.2023 37.2465ZM63.5427 44.3443L63.7227 44.5843L63.7352 44.575L63.7466 44.5644L63.5427 44.3443ZM51.747 44.5997V44.2997H51.447V44.5997H51.747ZM51.747 47.1018H51.447V47.4018H51.747V47.1018ZM62.4193 47.1018V47.4018H62.5373L62.6237 47.3214L62.4193 47.1018ZM69.8236 40.2082L70.0281 40.4279L70.0357 40.4203L69.8236 40.2082ZM71.2534 40.2592L71.0276 40.4568L71.0342 40.4643L71.0412 40.4714L71.2534 40.2592ZM71.2023 41.689L71.0047 41.4632L70.9984 41.469L71.2023 41.689ZM63.5427 48.7869L63.7227 49.0269L63.7352 49.0175L63.7466 49.0069L63.5427 48.7869ZM35.5087 46.9997V47.2997H35.8087V46.9997H35.5087ZM35.5087 44.4975H35.8087V44.1975H35.5087V44.4975ZM35.5087 42.455V42.755H35.8087V42.455H35.5087ZM35.5087 39.9529H35.8087V39.6529H35.5087V39.9529ZM35.5087 37.9103V38.2103H35.8087V37.9103H35.5087ZM35.5087 35.4082H35.8087V35.1082H35.5087V35.4082ZM35.5087 33.3656V33.6656H35.8087V33.3656H35.5087ZM35.5087 30.8635H35.8087V30.5635H35.5087V30.8635ZM24.0704 30.1997L23.7895 30.305H23.7895L24.0704 30.1997ZM24.3257 29.0763L24.1216 28.8561L24.1136 28.8641L24.3257 29.0763ZM31.9853 21.9784L31.8053 21.7384L31.7928 21.7477L31.7814 21.7583L31.9853 21.9784ZM43.4236 21.7231V22.0231H43.5409L43.6271 21.9435L43.4236 21.7231ZM44.0874 21.1103L43.9074 20.8703L43.8952 20.8795L43.8839 20.8899L44.0874 21.1103ZM59.9172 21.5188L59.6363 21.6241L59.6418 21.6389L59.6489 21.653L59.9172 21.5188ZM59.9683 21.7741H59.6683V22.0741H59.9683V21.7741ZM71.2023 23.5614L71.4064 23.7816L71.4144 23.7735L71.2023 23.5614ZM63.5427 30.6592L63.7227 30.8992L63.7352 30.8899L63.7466 30.8793L63.5427 30.6592ZM51.747 30.9146V30.6146H51.447V30.9146H51.747ZM51.747 33.4167H51.447V33.7167H51.747V33.4167ZM62.4193 33.4167V33.7167H62.5361L62.6221 33.6378L62.4193 33.4167ZM69.8236 26.6252L70.0265 26.8465L70.0357 26.8373L69.8236 26.6252ZM71.2534 26.6763L71.0276 26.8738L71.0342 26.8813L71.0412 26.8884L71.2534 26.6763ZM71.2023 28.106L71.0047 27.8802L70.9984 27.886L71.2023 28.106ZM62.4193 28.8209V29.1209H62.5376L62.6241 29.0402L62.4193 28.8209ZM52.9725 28.8209L52.7677 28.6017L52.2118 29.1209H52.9725V28.8209ZM67.8321 23.7656L68.0369 23.9849L68.5928 23.4656H67.8321V23.7656ZM58.3853 23.7656V23.4656H58.267L58.1805 23.5464L58.3853 23.7656ZM33.1087 23.8167V23.5167H32.9912L32.905 23.5964L33.1087 23.8167ZM41.2789 23.8167L41.4825 24.037L42.0453 23.5167H41.2789V23.8167ZM27.6959 28.8209L27.4923 28.6007L26.9295 29.1209H27.6959V28.8209ZM35.8661 28.8209V29.1209H35.9836L36.0698 29.0412L35.8661 28.8209ZM37.5512 47.1018H37.2512V47.4018H37.5512V47.1018ZM37.5512 29.9954L37.3473 29.7754L37.2512 29.8644V29.9954H37.5512ZM49.7044 47.1018V47.4018H50.0044V47.1018H49.7044ZM50.0108 28.8209L49.8066 28.6009L49.7987 28.6088L50.0108 28.8209ZM56.3938 22.8975L56.5979 23.1174L57.1581 22.5975H56.3938V22.8975ZM45.2108 22.8975V22.5975H45.0932L45.0069 22.6775L45.2108 22.8975ZM46.9471 40.9232L47.1592 41.1353H47.1592L46.9471 40.9232ZM47.9684 40.9742L47.7243 41.1486L47.7387 41.1688L47.7563 41.1864L47.9684 40.9742ZM47.9684 41.9955L47.7561 41.7833L47.7495 41.7903L47.9684 41.9955ZM39.5939 40.5147L39.8719 40.4019L39.796 40.2147H39.5939V40.5147ZM39.2365 38.9827V39.2827H39.5365V38.9827H39.2365ZM39.2365 38.4721H39.5365V38.1721H39.2365V38.4721ZM39.4918 36.9402V37.2402H39.7064L39.7757 37.0371L39.4918 36.9402ZM47.9684 35.1019L48.1805 34.8898L47.9684 35.1019ZM47.9684 36.1742L47.7563 35.9621L47.9684 36.1742ZM46.896 36.1742L47.1082 35.9621L46.896 36.1742ZM41.1258 36.8891L40.8599 36.7504L40.6309 37.1891H41.1258V36.8891ZM40.8194 38.421V38.121H40.5194V38.421H40.8194ZM40.8194 38.9317H40.5194V39.2317H40.8194V38.9317ZM41.3301 40.4636V40.1636H40.8131L41.0696 40.6124L41.3301 40.4636ZM62.8278 35.7592C63.1606 35.7592 63.4776 35.6278 63.7227 35.4439L63.3627 34.9639C63.1994 35.0864 63.0057 35.1592 62.8278 35.1592V35.7592ZM51.747 35.7592H62.8278V35.1592H51.747V35.7592ZM52.047 37.9614V35.4592H51.447V37.9614H52.047ZM62.4193 37.6614H51.747V38.2614H62.4193V37.6614ZM69.6208 30.9488L62.2165 37.7403L62.6221 38.1824L70.0264 31.391L69.6208 30.9488ZM71.4791 31.0234C71.0134 30.4911 70.149 30.4202 69.6114 30.9577L70.0357 31.382C70.3151 31.1026 70.7784 31.1337 71.0276 31.4185L71.4791 31.0234ZM71.3998 32.8765C71.9321 32.4108 72.0031 31.5464 71.4655 31.0088L71.0412 31.4331C71.3207 31.7125 71.2895 32.1758 71.0047 32.425L71.3998 32.8765ZM63.7466 39.9686L71.4062 32.8708L70.9984 32.4307L63.3388 39.5286L63.7466 39.9686ZM62.8278 40.3039C63.1606 40.3039 63.4776 40.1725 63.7227 39.9886L63.3627 39.5086C63.1994 39.6311 63.0057 39.7039 62.8278 39.7039V40.3039ZM51.747 40.3039H62.8278V39.7039H51.747V40.3039ZM52.047 42.506V40.0039H51.447V42.506H52.047ZM62.4193 42.206H51.747V42.806H62.4193V42.206ZM69.6216 35.5438L62.2174 42.2842L62.6213 42.7279L70.0255 35.9875L69.6216 35.5438ZM71.4791 35.6191C71.0134 35.0869 70.149 35.0159 69.6114 35.5535L70.0357 35.9778C70.3151 35.6983 70.7784 35.7295 71.0276 36.0142L71.4791 35.6191ZM71.3998 37.4722C71.9321 37.0065 72.0031 36.1421 71.4655 35.6046L71.0412 36.0288C71.3207 36.3083 71.2895 36.7715 71.0047 37.0207L71.3998 37.4722ZM63.7466 44.5644L71.4062 37.4665L70.9984 37.0264L63.3388 44.1243L63.7466 44.5644ZM62.8278 44.8997C63.1606 44.8997 63.4776 44.7682 63.7227 44.5843L63.3627 44.1043C63.1994 44.2269 63.0057 44.2997 62.8278 44.2997V44.8997ZM51.747 44.8997H62.8278V44.2997H51.747V44.8997ZM52.047 47.1018V44.5997H51.447V47.1018H52.047ZM62.4193 46.8018H51.747V47.4018H62.4193V46.8018ZM69.6191 39.9886L62.2149 46.8822L62.6237 47.3214L70.028 40.4277L69.6191 39.9886ZM71.4791 40.0617C71.0134 39.5294 70.149 39.4585 69.6114 39.996L70.0357 40.4203C70.3151 40.1409 70.7784 40.172 71.0276 40.4568L71.4791 40.0617ZM71.3998 41.9148C71.9321 41.4491 72.0031 40.5847 71.4655 40.0471L71.0412 40.4714C71.3207 40.7508 71.2895 41.2141 71.0047 41.4633L71.3998 41.9148ZM63.7466 49.0069L71.4062 41.9091L70.9984 41.469L63.3388 48.5669L63.7466 49.0069ZM62.8278 49.3422C63.1606 49.3422 63.4776 49.2108 63.7227 49.0269L63.3627 48.5469C63.1994 48.6694 63.0057 48.7422 62.8278 48.7422V49.3422ZM25.0406 49.3422H62.8278V48.7422H25.0406V49.3422ZM23.7193 48.0209C23.7193 48.7483 24.3132 49.3422 25.0406 49.3422V48.7422C24.6446 48.7422 24.3193 48.417 24.3193 48.0209H23.7193ZM25.0406 46.6997C24.3132 46.6997 23.7193 47.2936 23.7193 48.0209H24.3193C24.3193 47.6249 24.6446 47.2997 25.0406 47.2997V46.6997ZM35.5087 46.6997H25.0406V47.2997H35.5087V46.6997ZM35.2087 44.4975V46.9997H35.8087V44.4975H35.2087ZM25.0406 44.7975H35.5087V44.1975H25.0406V44.7975ZM23.7193 43.4763C23.7193 44.2036 24.3132 44.7975 25.0406 44.7975V44.1975C24.6446 44.1975 24.3193 43.8723 24.3193 43.4763H23.7193ZM25.0406 42.155C24.3132 42.155 23.7193 42.7489 23.7193 43.4763H24.3193C24.3193 43.0802 24.6446 42.755 25.0406 42.755V42.155ZM35.5087 42.155H25.0406V42.755H35.5087V42.155ZM35.2087 39.9529V42.455H35.8087V39.9529H35.2087ZM25.0406 40.2529H35.5087V39.6529H25.0406V40.2529ZM23.7193 38.9316C23.7193 39.659 24.3132 40.2529 25.0406 40.2529V39.6529C24.6446 39.6529 24.3193 39.3276 24.3193 38.9316H23.7193ZM25.0406 37.6103C24.3132 37.6103 23.7193 38.2042 23.7193 38.9316H24.3193C24.3193 38.5356 24.6446 38.2103 25.0406 38.2103V37.6103ZM35.5087 37.6103H25.0406V38.2103H35.5087V37.6103ZM35.2087 35.4082V37.9103H35.8087V35.4082H35.2087ZM25.0406 35.7082H35.5087V35.1082H25.0406V35.7082ZM23.7193 34.3869C23.7193 35.1143 24.3132 35.7082 25.0406 35.7082V35.1082C24.6446 35.1082 24.3193 34.7829 24.3193 34.3869H23.7193ZM25.0406 33.0656C24.3132 33.0656 23.7193 33.6595 23.7193 34.3869H24.3193C24.3193 33.9909 24.6446 33.6656 25.0406 33.6656V33.0656ZM35.5087 33.0656H25.0406V33.6656H35.5087V33.0656ZM35.2087 30.8635V33.3656H35.8087V30.8635H35.2087ZM25.0406 31.1635H35.5087V30.5635H25.0406V31.1635ZM23.7895 30.305C23.9867 30.8308 24.4562 31.1635 25.0406 31.1635V30.5635C24.7058 30.5635 24.4605 30.3855 24.3513 30.0943L23.7895 30.305ZM24.1136 28.8641C23.7294 29.2483 23.5924 29.7793 23.7895 30.305L24.3513 30.0943C24.242 29.803 24.3092 29.517 24.5378 29.2884L24.1136 28.8641ZM31.7814 21.7583L24.1218 28.8562L24.5296 29.2963L32.1892 22.1984L31.7814 21.7583ZM32.7002 21.4231C32.3674 21.4231 32.0504 21.5545 31.8053 21.7384L32.1653 22.2184C32.3286 22.0959 32.5223 22.0231 32.7002 22.0231V21.4231ZM43.4236 21.4231H32.7002V22.0231H43.4236V21.4231ZM43.8839 20.8899L43.2201 21.5026L43.6271 21.9435L44.2909 21.3307L43.8839 20.8899ZM44.8023 20.555C44.4695 20.555 44.1526 20.6864 43.9074 20.8703L44.2674 21.3503C44.4308 21.2278 44.6244 21.155 44.8023 21.155V20.555ZM58.947 20.555H44.8023V21.155H58.947V20.555ZM60.1981 21.4135C60.0009 20.8877 59.5314 20.555 58.947 20.555V21.155C59.2817 21.155 59.5271 21.3329 59.6363 21.6241L60.1981 21.4135ZM60.2683 21.7741C60.2683 21.729 60.269 21.6646 60.2578 21.5972C60.2453 21.5223 60.2208 21.4552 60.1855 21.3846L59.6489 21.653C59.6646 21.6845 59.6657 21.694 59.666 21.6958C59.6675 21.705 59.6683 21.7172 59.6683 21.7741H60.2683ZM70.4874 21.4741H59.9683V22.0741H70.4874V21.4741ZM71.7385 22.3326C71.5413 21.8068 71.0718 21.4741 70.4874 21.4741V22.0741C70.8222 22.0741 71.0675 22.2521 71.1767 22.5433L71.7385 22.3326ZM71.4144 23.7735C71.7986 23.3893 71.9356 22.8583 71.7385 22.3326L71.1767 22.5433C71.286 22.8347 71.2188 23.1206 70.9902 23.3492L71.4144 23.7735ZM63.7466 30.8793L71.4062 23.7814L70.9984 23.3413L63.3388 30.4392L63.7466 30.8793ZM62.8278 31.2146C63.1606 31.2146 63.4776 31.0831 63.7227 30.8992L63.3627 30.4192C63.1994 30.5418 63.0057 30.6146 62.8278 30.6146V31.2146ZM51.747 31.2146H62.8278V30.6146H51.747V31.2146ZM52.047 33.4167V30.9146H51.447V33.4167H52.047ZM62.4193 33.1167H51.747V33.7167H62.4193V33.1167ZM69.6208 26.4041L62.2165 33.1956L62.6221 33.6378L70.0264 26.8463L69.6208 26.4041ZM71.4791 26.4787C71.0134 25.9465 70.149 25.8755 69.6114 26.4131L70.0357 26.8373C70.3151 26.5579 70.7784 26.589 71.0276 26.8738L71.4791 26.4787ZM71.3998 28.3318C71.9321 27.8661 72.0031 27.0017 71.4655 26.4641L71.0412 26.8884C71.3207 27.1678 71.2895 27.6311 71.0047 27.8803L71.3998 28.3318ZM63.7466 35.424L71.4062 28.3261L70.9984 27.886L63.3388 34.9839L63.7466 35.424ZM62.4193 28.5209H52.9725V29.1209H62.4193V28.5209ZM67.6273 23.5464L62.2145 28.6017L62.6241 29.0402L68.0369 23.9849L67.6273 23.5464ZM58.4363 24.0656H67.8321V23.4656H58.4363V24.0656ZM58.3853 24.0656H58.4363V23.4656H58.3853V24.0656ZM53.1773 29.0402L58.59 23.9849L58.1805 23.5464L52.7677 28.6017L53.1773 29.0402ZM33.1087 24.1167H41.2789V23.5167H33.1087V24.1167ZM27.8996 29.0412L33.3123 24.037L32.905 23.5964L27.4923 28.6007L27.8996 29.0412ZM35.8661 28.5209H27.6959V29.1209H35.8661V28.5209ZM41.0752 23.5964L35.6625 28.6007L36.0698 29.0412L41.4825 24.037L41.0752 23.5964ZM37.8512 47.1018V29.9954H37.2512V47.1018H37.8512ZM49.7044 46.8018H37.5512V47.4018H49.7044V46.8018ZM49.4044 29.5869V47.1018H50.0044V29.5869H49.4044ZM49.7987 28.6088C49.5345 28.873 49.4044 29.2063 49.4044 29.5869H50.0044C50.0044 29.3547 50.0786 29.1774 50.2229 29.0331L49.7987 28.6088ZM56.1897 22.6776L49.8067 28.601L50.2149 29.0408L56.5979 23.1174L56.1897 22.6776ZM45.2108 23.1975H56.3938V22.5975H45.2108V23.1975ZM37.7551 30.2155L45.4147 23.1176L45.0069 22.6775L37.3473 29.7754L37.7551 30.2155ZM46.735 40.711C46.3594 41.0867 46.0279 41.3672 45.6607 41.5565C45.299 41.743 44.8873 41.8487 44.3429 41.8487V42.4487C44.9729 42.4487 45.4804 42.3246 45.9357 42.0898C46.3854 41.8579 46.7689 41.5256 47.1592 41.1353L46.735 40.711ZM48.2125 40.7999C48.0319 40.547 47.7677 40.4096 47.4872 40.3999C47.2111 40.3904 46.9411 40.5049 46.735 40.711L47.1592 41.1353C47.2595 41.035 47.3725 40.9963 47.4666 40.9996C47.5563 41.0027 47.6495 41.044 47.7243 41.1486L48.2125 40.7999ZM48.4726 41.4849C48.4726 41.1959 48.3351 40.9167 48.1805 40.7621L47.7563 41.1864C47.7756 41.2057 47.8069 41.2484 47.8331 41.3094C47.8587 41.3692 47.8726 41.431 47.8726 41.4849H48.4726ZM48.1805 42.2076C48.2819 42.1063 48.3587 41.9952 48.408 41.867C48.4567 41.7402 48.4726 41.612 48.4726 41.4849H47.8726C47.8726 41.562 47.863 41.6125 47.848 41.6516C47.8334 41.6894 47.8081 41.7315 47.7563 41.7834L48.1805 42.2076ZM44.2918 43.9806C46.1936 43.9806 47.3906 43.0504 48.1872 42.2007L47.7495 41.7903C47.0142 42.5746 45.9645 43.3806 44.2918 43.3806V43.9806ZM39.3159 40.6274C40.127 42.6281 42.074 43.9806 44.2918 43.9806V43.3806C42.3223 43.3806 40.5928 42.18 39.8719 40.4019L39.3159 40.6274ZM38.828 40.8147H39.5939V40.2147H38.828V40.8147ZM37.762 39.7487C37.762 40.3229 38.2538 40.8147 38.828 40.8147V40.2147C38.5851 40.2147 38.362 39.9915 38.362 39.7487H37.762ZM38.828 38.6827C38.2538 38.6827 37.762 39.1745 37.762 39.7487H38.362C38.362 39.5059 38.5851 39.2827 38.828 39.2827V38.6827ZM39.2365 38.6827H38.828V39.2827H39.2365V38.6827ZM38.9365 38.5742V38.9827H39.5365V38.5742H38.9365ZM38.9365 38.4721V38.5742H39.5365V38.4721H38.9365ZM38.828 38.7721H39.2365V38.1721H38.828V38.7721ZM37.762 37.7061C37.762 38.2803 38.2538 38.7721 38.828 38.7721V38.1721C38.5851 38.1721 38.362 37.949 38.362 37.7061H37.762ZM38.828 36.6402C38.2538 36.6402 37.762 37.132 37.762 37.7061H38.362C38.362 37.4633 38.5851 37.2402 38.828 37.2402V36.6402ZM39.4918 36.6402H38.828V37.2402H39.4918V36.6402ZM44.2918 33.1678C41.9645 33.1678 39.9632 34.6313 39.2079 36.8432L39.7757 37.0371C40.4502 35.0619 42.2276 33.7678 44.2918 33.7678V33.1678ZM48.1805 34.8898C47.388 34.0972 46.1925 33.1678 44.2918 33.1678V33.7678C45.9655 33.7678 47.0169 34.5746 47.7563 35.314L48.1805 34.8898ZM48.1805 36.3864C48.6041 35.9628 48.6041 35.3133 48.1805 34.8898L47.7563 35.314C47.9455 35.5032 47.9455 35.7729 47.7563 35.9621L48.1805 36.3864ZM46.6839 36.3864C47.1075 36.8099 47.757 36.8099 48.1805 36.3864L47.7563 35.9621C47.567 36.1513 47.2974 36.1513 47.1082 35.9621L46.6839 36.3864ZM44.2918 35.2487C44.8362 35.2487 45.2479 35.3544 45.6096 35.5409C45.9769 35.7302 46.3083 36.0107 46.6839 36.3864L47.1082 35.9621C46.7178 35.5718 46.3344 35.2395 45.8846 35.0076C45.4293 34.7728 44.9218 34.6487 44.2918 34.6487V35.2487ZM41.3918 37.0279C41.9545 35.9495 43.0793 35.2487 44.2918 35.2487V34.6487C42.8489 34.6487 41.5227 35.4799 40.8599 36.7504L41.3918 37.0279ZM44.6492 36.5891H41.1258V37.1891H44.6492V36.5891ZM45.7152 37.6551C45.7152 37.0809 45.2234 36.5891 44.6492 36.5891V37.1891C44.8921 37.1891 45.1152 37.4123 45.1152 37.6551H45.7152ZM44.6492 38.721C45.2234 38.721 45.7152 38.2293 45.7152 37.6551H45.1152C45.1152 37.8979 44.8921 38.121 44.6492 38.121V38.721ZM40.8194 38.721H44.6492V38.121H40.8194V38.721ZM41.1194 38.5232V38.421H40.5194V38.5232H41.1194ZM41.1194 38.9317V38.5232H40.5194V38.9317H41.1194ZM44.6492 38.6317H40.8194V39.2317H44.6492V38.6317ZM45.7152 39.6976C45.7152 39.1234 45.2234 38.6317 44.6492 38.6317V39.2317C44.8921 39.2317 45.1152 39.4548 45.1152 39.6976H45.7152ZM44.6492 40.7636C45.2234 40.7636 45.7152 40.2718 45.7152 39.6976H45.1152C45.1152 39.9405 44.8921 40.1636 44.6492 40.1636V40.7636ZM41.3301 40.7636H44.6492V40.1636H41.3301V40.7636ZM44.3429 41.8487C43.1651 41.8487 42.1457 41.2862 41.5906 40.3148L41.0696 40.6124C41.74 41.7856 42.9674 42.4487 44.3429 42.4487V41.8487Z" fill="#17E200" mask="url(#path-3-inside-2)"/>
</g>
<defs>
<filter id="filter0_d" x="0" y="-9" width="96" height="96" filterUnits="userSpaceOnUse" color-interpolation-filters="sRGB">
<feFlood flood-opacity="0" result="BackgroundImageFix"/>
<feColorMatrix in="SourceAlpha" type="matrix" values="0 0 0 0 0 0 0 0 0 0 0 0 0 0 0 0 0 0 127 0"/>
<feOffset dy="4"/>
<feGaussianBlur stdDeviation="12"/>
<feColorMatrix type="matrix" values="0 0 0 0 0.411765 0 0 0 0 0.811765 0 0 0 0 0.0941176 0 0 0 0.05 0"/>
<feBlend mode="normal" in2="BackgroundImageFix" result="effect1_dropShadow"/>
<feBlend mode="normal" in="SourceGraphic" in2="effect1_dropShadow" result="shape"/>
</filter>
</defs>
</svg>
