<svg width="16" height="16" viewBox="0 0 16 16" fill="none" xmlns="http://www.w3.org/2000/svg">
<path d="M8.25 4H7V9H12V7.77212H8.25V4Z" fill="#8292A7"/>
<path d="M0.746447 4.45355L1.22886 4.93597L1.54361 4.33068C2.75568 1.99977 5.18244 0.5 8 0.5C12.1239 0.5 15.5 3.87614 15.5 8C15.5 12.1239 12.1239 15.5 8 15.5C5.92906 15.5 4.0186 14.6249 2.70906 13.2471L3.4597 12.5966C4.62951 13.7823 6.22537 14.5 8 14.5C11.5761 14.5 14.5 11.5761 14.5 8C14.5 4.42386 11.5761 1.5 8 1.5C5.38892 1.5 3.12733 3.12731 2.05279 5.27639L1.89162 5.59873L2.14645 5.85355L2.79289 6.5H0.5V4.20711L0.746447 4.45355Z" fill="#8292A7" stroke="#8191A6"/>
</svg>
