<svg width="16" height="17" viewBox="0 0 16 17" fill="none" xmlns="http://www.w3.org/2000/svg">
<path d="M11.7417 10.8276C12.529 9.75242 12.9999 8.43176 12.9999 7.00005C12.9999 3.41608 10.0839 0.500061 6.49996 0.500061C2.91599 0.500061 0 3.41608 0 7.00005C0 10.584 2.91602 13.5 6.49999 13.5C7.93169 13.5 9.25248 13.029 10.3277 12.2417L14.586 16.5L16 15.0859C16 15.0859 11.7417 10.8276 11.7417 10.8276ZM6.49999 11.5C4.01854 11.5 2.00001 9.48149 2.00001 7.00005C2.00001 4.5186 4.01854 2.50007 6.49999 2.50007C8.98143 2.50007 11 4.5186 11 7.00005C11 9.48149 8.9814 11.5 6.49999 11.5Z" fill="#787B96"/>
</svg>
