<svg width="98" height="88" viewBox="0 0 98 88" fill="none" xmlns="http://www.w3.org/2000/svg">
<g filter="url(#filter0_d)">
<path fill-rule="evenodd" clip-rule="evenodd" d="M68.7567 31.2024V44.3589C68.7567 46.3735 67.1311 47.9999 65.1211 47.9999H62.8182V56.7333C62.8182 57.9353 61.8456 58.909 60.643 58.909H27.1752C25.975 58.909 25 57.9316 25 56.7333V37.812C25 36.61 25.9726 35.6363 27.1752 35.6363H60.643C61.8432 35.6363 62.8182 36.6137 62.8182 37.812V46.5454H65.1211C66.3276 46.5454 67.3022 45.5704 67.3022 44.3589V31.2368C64.7767 30.9368 62.8182 28.788 62.8182 26.1817C62.8182 23.3701 65.0975 21.0908 67.9091 21.0908C70.7207 21.0908 73 23.3701 73 26.1817C73 28.7046 71.1649 30.7988 68.7567 31.2024ZM26.4545 37.812V56.7333C26.4545 57.129 26.7791 57.4545 27.1752 57.4545H60.643C61.0419 57.4545 61.3636 57.1323 61.3636 56.7333V37.812C61.3636 37.4162 61.039 37.0908 60.643 37.0908H27.1752C26.7763 37.0908 26.4545 37.4129 26.4545 37.812ZM67.9091 29.8181C69.9174 29.8181 71.5455 28.19 71.5455 26.1817C71.5455 24.1734 69.9174 22.5454 67.9091 22.5454C65.9008 22.5454 64.2727 24.1734 64.2727 26.1817C64.2727 28.19 65.9008 29.8181 67.9091 29.8181ZM30.0909 43.6405C30.0909 42.4323 31.0623 41.4545 32.2714 41.4545H35.1832C36.3882 41.4545 37.3636 42.4333 37.3636 43.6405V50.9047C37.3636 52.113 36.3922 53.0908 35.1832 53.0908H32.2714C31.0663 53.0908 30.0909 52.112 30.0909 50.9047V43.6405ZM31.5455 43.6405V50.9047C31.5455 51.3098 31.8708 51.6363 32.2714 51.6363H35.1832C35.5868 51.6363 35.9091 51.3118 35.9091 50.9047V43.6405C35.9091 43.2355 35.5838 42.909 35.1832 42.909H32.2714C31.8678 42.909 31.5455 43.2335 31.5455 43.6405ZM50.4545 43.6405C50.4545 42.4323 51.4259 41.4545 52.635 41.4545H55.5468C56.7519 41.4545 57.7273 42.4333 57.7273 43.6405V50.9047C57.7273 52.113 56.7559 53.0908 55.5468 53.0908H52.635C51.4299 53.0908 50.4545 52.112 50.4545 50.9047V43.6405ZM51.9091 43.6405V50.9047C51.9091 51.3098 52.2344 51.6363 52.635 51.6363H55.5468C55.9504 51.6363 56.2727 51.3118 56.2727 50.9047V43.6405C56.2727 43.2355 55.9474 42.909 55.5468 42.909H52.635C52.2314 42.909 51.9091 43.2335 51.9091 43.6405ZM40.2727 43.6405C40.2727 42.4323 41.2441 41.4545 42.4532 41.4545H45.365C46.5701 41.4545 47.5455 42.4333 47.5455 43.6405V50.9047C47.5455 52.113 46.5741 53.0908 45.365 53.0908H42.4532C41.2481 53.0908 40.2727 52.112 40.2727 50.9047V43.6405ZM41.7273 43.6405V50.9047C41.7273 51.3098 42.0526 51.6363 42.4532 51.6363H45.365C45.7686 51.6363 46.0909 51.3118 46.0909 50.9047V43.6405C46.0909 43.2355 45.7656 42.909 45.365 42.909H42.4532C42.0496 42.909 41.7273 43.2335 41.7273 43.6405Z" fill="#E4FFA3" stroke="#AAFF5C" stroke-width="0.4"/>
<path d="M68.8567 44.3589V31.2863C71.2711 30.8409 73.1 28.725 73.1 26.1817C73.1 23.3149 70.776 20.9908 67.9091 20.9908C65.0422 20.9908 62.7182 23.3149 62.7182 26.1817C62.7182 28.8088 64.6697 30.98 67.2022 31.3249V44.3589C67.2022 45.5153 66.2722 46.4454 65.1211 46.4454H62.9182V37.812C62.9182 36.5586 61.8985 35.5363 60.643 35.5363H27.1752C25.9173 35.5363 24.9 36.5548 24.9 37.812V56.7333C24.9 57.9867 25.9197 59.009 27.1752 59.009H60.643C61.9009 59.009 62.9182 57.9905 62.9182 56.7333V48.0999H65.1211C67.1864 48.0999 68.8567 46.4287 68.8567 44.3589ZM26.5545 56.7333V37.812C26.5545 37.4681 26.8316 37.1908 27.1752 37.1908H60.643C60.9837 37.1908 61.2636 37.4713 61.2636 37.812V56.7333C61.2636 57.0772 60.9866 57.3545 60.643 57.3545H27.1752C26.8345 57.3545 26.5545 57.0739 26.5545 56.7333ZM71.4455 26.1817C71.4455 28.1348 69.8622 29.7181 67.9091 29.7181C65.956 29.7181 64.3727 28.1348 64.3727 26.1817C64.3727 24.2286 65.956 22.6454 67.9091 22.6454C69.8622 22.6454 71.4455 24.2286 71.4455 26.1817ZM32.2714 41.3545C31.0067 41.3545 29.9909 42.3774 29.9909 43.6405V50.9047C29.9909 52.1669 31.0108 53.1908 32.2714 53.1908H35.1832C36.4478 53.1908 37.4636 52.1679 37.4636 50.9047V43.6405C37.4636 42.3783 36.4437 41.3545 35.1832 41.3545H32.2714ZM31.6455 50.9047V43.6405C31.6455 43.288 31.9237 43.009 32.2714 43.009H35.1832C35.5279 43.009 35.8091 43.2901 35.8091 43.6405V50.9047C35.8091 51.2573 35.5308 51.5363 35.1832 51.5363H32.2714C31.9266 51.5363 31.6455 51.2552 31.6455 50.9047ZM52.635 41.3545C51.3704 41.3545 50.3545 42.3774 50.3545 43.6405V50.9047C50.3545 52.1669 51.3744 53.1908 52.635 53.1908H55.5468C56.8115 53.1908 57.8273 52.1679 57.8273 50.9047V43.6405C57.8273 42.3783 56.8074 41.3545 55.5468 41.3545H52.635ZM52.0091 50.9047V43.6405C52.0091 43.288 52.2873 43.009 52.635 43.009H55.5468C55.8916 43.009 56.1727 43.2901 56.1727 43.6405V50.9047C56.1727 51.2573 55.8945 51.5363 55.5468 51.5363H52.635C52.2903 51.5363 52.0091 51.2552 52.0091 50.9047ZM42.4532 41.3545C41.1885 41.3545 40.1727 42.3774 40.1727 43.6405V50.9047C40.1727 52.1669 41.1926 53.1908 42.4532 53.1908H45.365C46.6297 53.1908 47.6455 52.1679 47.6455 50.9047V43.6405C47.6455 42.3783 46.6256 41.3545 45.365 41.3545H42.4532ZM41.8273 50.9047V43.6405C41.8273 43.288 42.1055 43.009 42.4532 43.009H45.365C45.7098 43.009 45.9909 43.2901 45.9909 43.6405V50.9047C45.9909 51.2573 45.7127 51.5363 45.365 51.5363H42.4532C42.1084 51.5363 41.8273 51.2552 41.8273 50.9047Z" stroke="#17E200" stroke-width="0.2"/>
</g>
<defs>
<filter id="filter0_d" x="0.800049" y="-4" width="96.4" height="96" filterUnits="userSpaceOnUse" color-interpolation-filters="sRGB">
<feFlood flood-opacity="0" result="BackgroundImageFix"/>
<feColorMatrix in="SourceAlpha" type="matrix" values="0 0 0 0 0 0 0 0 0 0 0 0 0 0 0 0 0 0 127 0"/>
<feOffset dy="4"/>
<feGaussianBlur stdDeviation="12"/>
<feColorMatrix type="matrix" values="0 0 0 0 0.411765 0 0 0 0 0.811765 0 0 0 0 0.0941176 0 0 0 0.5 0"/>
<feBlend mode="normal" in2="BackgroundImageFix" result="effect1_dropShadow"/>
<feBlend mode="normal" in="SourceGraphic" in2="effect1_dropShadow" result="shape"/>
</filter>
</defs>
</svg>
