<svg width="667" height="108" viewBox="0 0 667 108" fill="none" xmlns="http://www.w3.org/2000/svg">
<path d="M308.969 55.4234C303.229 49.9296 295.78 47.1216 286.5 47.1216C277.219 47.1216 269.77 50.0516 263.909 55.7897C258.169 61.5277 255.238 68.7308 255.238 77.3989C255.238 86.5553 258.169 93.8805 263.909 99.4964C269.77 104.99 277.219 107.798 286.377 107.798C295.414 107.798 302.863 104.99 308.724 99.2523C311.655 96.4443 313.975 93.148 315.441 89.4854C316.906 85.8228 317.639 81.794 317.639 77.3989C317.761 68.2424 314.83 60.9173 308.969 55.4234ZM299.444 90.8283C296.269 94.2467 291.995 95.9559 286.377 95.9559C281.493 95.9559 276.975 94.2467 273.555 90.7063C270.136 87.0437 268.671 82.6486 268.671 77.3989C268.671 72.0271 270.381 67.5099 273.678 64.0915C276.975 60.6731 281.249 58.9639 286.377 58.9639C291.262 58.9639 295.536 60.6731 298.955 64.0915C302.375 67.5099 303.962 71.905 303.962 77.3989C304.084 82.7707 302.619 87.2878 299.444 90.8283Z" fill="white"/>
<path d="M356.838 73.493H340.23V60.0635H359.402C360.379 60.0635 361.112 59.331 361.112 58.3543V49.8083C361.112 48.8316 360.379 48.0991 359.402 48.0991H329.118C328.141 48.0991 327.408 48.8316 327.408 49.8083V105.113C327.408 106.09 328.141 106.822 329.118 106.822H338.521C339.498 106.822 340.23 106.09 340.23 105.113V85.4574H356.838C357.815 85.4574 358.547 84.7249 358.547 83.7482V75.2022C358.547 74.2255 357.693 73.493 356.838 73.493Z" fill="white"/>
<path d="M384.801 60.0635V105.235C384.801 106.212 385.534 106.945 386.511 106.945H395.914C396.891 106.945 397.623 106.212 397.623 105.235V60.0635H413.865C414.842 60.0635 415.574 59.331 415.574 58.3543V49.8083C415.574 48.8316 414.842 48.0991 413.865 48.0991H368.682C367.705 48.0991 366.973 48.8316 366.973 49.8083V58.3543C366.973 59.331 367.705 60.0635 368.682 60.0635H384.801V60.0635Z" fill="white"/>
<path d="M438.04 82.6486C440.97 83.9915 443.168 85.4566 444.756 86.7995C446.221 88.1425 447.076 89.4854 447.076 90.9504C447.076 92.5375 446.465 93.7584 445.366 94.7351C444.267 95.5897 442.802 96.078 440.97 96.078C438.528 96.078 436.208 95.4676 433.766 94.3688C432.056 93.5142 430.591 92.5375 429.369 91.3167C428.637 90.5842 427.538 90.7063 426.927 91.4388L421.676 97.7872C421.188 98.3977 421.188 99.1302 421.554 99.7406C423.019 102.06 425.34 103.892 428.515 105.357C432.3 107.066 436.33 107.92 440.604 107.92C446.465 107.92 451.106 106.333 454.891 103.037C458.066 100.595 460.142 97.0547 460.509 93.148C460.875 89.1191 460.264 85.8228 458.799 83.0148C457.578 80.6952 456.113 78.986 454.403 77.7652C452.571 76.4222 450.617 75.3234 448.541 74.1026C446.343 73.0038 444.389 72.0271 442.558 71.2946C440.726 70.44 439.139 69.4633 437.795 68.2424C436.574 67.0216 435.841 65.5566 435.841 63.8474C435.841 62.3823 436.452 61.1615 437.551 60.3069C438.772 59.4523 440.36 59.086 442.191 59.086C444.145 59.086 445.733 59.3302 447.076 59.9406C447.931 60.3069 448.786 60.9173 449.763 61.6498C450.495 62.2602 451.594 62.1382 452.205 61.2836L457.089 54.4467C457.578 53.7142 457.456 52.7375 456.845 52.2492C452.938 48.8308 447.687 47.1216 440.97 47.1216C435.231 47.1216 430.713 48.7087 427.293 52.005C423.874 55.3013 422.165 59.2081 422.165 63.8474C422.165 65.9228 422.409 67.8762 423.019 69.7075C423.752 71.5388 424.607 73.1259 425.462 74.2247C426.439 75.4455 427.66 76.6664 429.247 77.7652C430.835 78.8639 432.178 79.8406 433.399 80.451C434.865 81.1836 436.33 81.9161 438.04 82.6486Z" fill="white"/>
<path d="M495.438 105.724L507.649 67.6329L519.983 105.724C520.227 106.456 520.837 106.822 521.57 106.822H531.461C532.194 106.822 532.804 106.334 533.049 105.602L548.679 50.2967C548.924 49.1979 548.191 48.2212 547.092 48.2212H538.3C537.567 48.2212 536.834 48.7095 536.712 49.4421L526.577 86.9224L515.098 49.4421C514.854 48.7095 514.243 48.2212 513.51 48.2212H502.886C502.154 48.2212 501.543 48.7095 501.299 49.4421L490.187 87.0445L480.173 49.5641C479.929 48.8316 479.318 48.3433 478.586 48.3433H467.595C466.496 48.3433 465.642 49.4421 466.008 50.4187L482.371 105.724C482.615 106.456 483.226 106.945 483.959 106.945H493.85C494.583 106.822 495.193 106.334 495.438 105.724Z" fill="white"/>
<path d="M559.913 106.822H569.315C570.292 106.822 571.025 106.09 571.025 105.113V49.8083C571.025 48.8316 570.292 48.0991 569.315 48.0991H559.913C558.936 48.0991 558.203 48.8316 558.203 49.8083V105.113C558.325 106.09 559.058 106.822 559.913 106.822Z" fill="white"/>
<path d="M598.868 82.6486C601.798 83.9915 603.996 85.4565 605.584 86.7995C607.049 88.1424 607.904 89.4854 607.904 90.9504C607.904 92.5375 607.294 93.7584 606.195 94.7351C605.096 95.5897 603.63 96.078 601.798 96.078C599.356 96.078 597.036 95.4676 594.594 94.3688C592.884 93.5142 591.419 92.5375 590.198 91.3167C589.465 90.5842 588.366 90.7062 587.755 91.4388L582.504 97.7872C582.016 98.3976 582.016 99.1302 582.382 99.7406C583.848 102.06 586.168 103.892 589.343 105.357C593.128 107.066 597.158 107.92 601.432 107.92C607.294 107.92 611.934 106.333 615.72 103.037L616.33 102.549C619.505 99.4964 621.459 95.3455 621.459 91.0725C621.459 88.0203 620.848 85.3345 619.627 83.1369C618.406 80.8173 616.941 79.1081 615.231 77.8872C613.399 76.5443 611.445 75.4455 609.369 74.2246C607.171 73.1259 605.218 72.1492 603.386 71.4167C601.554 70.5621 599.967 69.5854 598.624 68.3645C597.402 67.1437 596.67 65.6786 596.67 63.9694C596.67 62.5044 597.28 61.2835 598.379 60.4289C599.6 59.5743 601.188 59.2081 603.02 59.2081C604.973 59.2081 606.561 59.4522 607.904 60.0627C608.759 60.4289 609.614 61.0394 610.591 61.7719C611.323 62.3823 612.422 62.2602 613.033 61.4056L617.917 54.5688C618.406 53.8363 618.284 52.8596 617.673 52.3713C613.766 48.9529 608.515 47.2437 601.798 47.2437C596.059 47.2437 591.541 48.8308 588.122 52.1271C584.703 55.4234 582.993 59.3302 582.993 63.9694C582.993 66.0449 583.237 67.9983 583.848 69.8295C584.58 71.6608 585.435 73.2479 586.29 74.3467C587.267 75.5676 588.488 76.7884 590.076 77.8872C591.663 78.986 593.006 79.9627 594.227 80.5731C595.693 81.1835 597.158 81.916 598.868 82.6486Z" fill="white"/>
<path d="M644.049 82.6486C646.98 83.9915 649.178 85.4565 650.766 86.7995C652.231 88.1424 653.086 89.4854 653.086 90.9504C653.086 92.5375 652.475 93.7584 651.376 94.7351C650.277 95.5897 648.812 96.078 646.98 96.078C644.538 96.078 642.218 95.4676 639.775 94.3688C638.066 93.5142 636.6 92.5375 635.379 91.3167C634.647 90.5842 633.548 90.7062 632.937 91.4388L627.686 97.7872C627.198 98.3976 627.198 99.1302 627.564 99.7406C629.029 102.06 631.35 103.892 634.524 105.357C638.31 107.066 642.34 107.92 646.614 107.92C652.475 107.92 657.116 106.333 660.901 103.037L661.512 102.549C664.687 99.4964 666.64 95.3455 666.64 91.0725C666.64 88.0203 666.03 85.3345 664.809 83.1369C663.588 80.8173 662.122 79.1081 660.413 77.8872C658.581 76.5443 656.627 75.4455 654.551 74.2246C652.353 73.1259 650.399 72.1492 648.568 71.4167C646.736 70.5621 645.148 69.5854 643.805 68.3645C642.584 67.1437 641.851 65.6786 641.851 63.9694C641.851 62.5044 642.462 61.2835 643.561 60.4289C644.782 59.5743 646.37 59.2081 648.201 59.2081C650.155 59.2081 651.743 59.4522 653.086 60.0627C653.941 60.4289 654.795 61.0394 655.772 61.7719C656.505 62.3823 657.604 62.2602 658.215 61.4056L663.099 54.5688C663.588 53.8363 663.466 52.8596 662.855 52.3713C658.947 48.9529 653.696 47.2437 646.98 47.2437C641.241 47.2437 636.723 48.8308 633.303 52.1271C629.884 55.4234 628.174 59.3302 628.174 63.9694C628.174 66.0449 628.419 67.9983 629.029 69.8295C629.762 71.6608 630.617 73.2479 631.472 74.3467C632.449 75.5676 633.67 76.7884 635.257 77.8872C636.845 78.986 638.188 79.9627 639.409 80.5731C640.752 81.1835 642.34 81.916 644.049 82.6486Z" fill="white"/>
<path d="M224.954 82.6491C227.884 83.992 230.082 85.4571 231.67 86.8C233.135 88.143 233.99 89.4859 233.99 90.9509C233.99 92.5381 233.38 93.7589 232.28 94.7356C231.181 95.5902 229.716 96.0785 227.884 96.0785C225.442 96.0785 223.122 95.4681 220.68 94.3693C218.97 93.5147 217.505 92.5381 216.284 91.3172C215.551 90.5847 214.452 90.7068 213.841 91.4393L208.59 97.7877C208.102 98.3982 208.102 99.1307 208.468 99.7411C209.934 102.061 212.254 103.892 215.429 105.357C219.214 107.066 223.244 107.921 227.518 107.921C233.379 107.921 238.02 106.334 241.805 103.037L242.294 102.549C245.469 99.4969 247.423 95.346 247.545 90.9509C247.545 87.8988 246.934 85.2129 245.713 82.8933C244.492 80.5736 243.027 78.8644 241.317 77.6436C239.485 76.3006 237.531 75.2019 235.455 73.981C233.257 72.8822 231.304 71.9055 229.472 71.173C227.64 70.3184 226.053 69.3417 224.709 68.1209C223.488 66.9 222.756 65.435 222.756 63.7258C222.756 62.2607 223.366 61.0399 224.465 60.1853C225.686 59.3307 227.274 58.9644 229.106 58.9644C231.059 58.9644 232.647 59.2086 233.99 59.819C234.845 60.1853 235.7 60.7957 236.677 61.5282C237.409 62.1387 238.508 62.0166 239.119 61.162L244.003 54.3252C244.492 53.5926 244.37 52.616 243.759 52.1276C239.852 48.7092 234.601 47 227.884 47C222.145 47 217.627 48.5871 214.207 51.8834C210.788 55.1798 209.079 59.0865 209.079 63.7258C209.079 65.8012 209.323 67.7546 209.933 69.5859C210.666 71.4172 211.521 73.0043 212.376 74.1031C213.353 75.3239 214.574 76.5448 216.161 77.6436C217.749 78.7423 219.092 79.719 220.313 80.3295C221.779 81.1841 223.244 81.9166 224.954 82.6491Z" fill="white"/>
<path d="M77.7902 67.1907C74.2915 63.6964 72.2923 59.1039 72.0924 54.112L53.5994 72.582L34.4068 53.4131L53.5994 34.2443L59.2973 39.9351C60.6967 41.3328 62.596 42.1315 64.5952 42.1315C66.5945 42.1315 68.4937 41.3328 69.8932 39.9351L77.9901 31.8482C80.889 28.9529 80.889 24.1607 77.9901 21.2654L58.8974 2.19643C57.4979 0.798701 55.5987 0 53.5994 0C51.6002 0 49.7009 0.798701 48.3015 2.19643L2.21909 48.2216C-0.679801 51.1169 -0.679801 55.9091 2.21909 58.8044L48.3015 104.83C49.7009 106.227 51.6002 107.026 53.5994 107.026C55.5987 107.026 57.4979 106.227 58.8974 104.83L90.8852 72.8815C85.8871 72.6818 81.2888 70.685 77.7902 67.1907Z" fill="white"/>
<path d="M180.85 58.8048L134.768 104.83C133.368 106.228 131.469 107.026 129.47 107.026C127.471 107.026 125.571 106.228 124.172 104.83L105.079 85.7609C102.18 82.8656 102.18 78.0734 105.079 75.1781L113.176 67.0913C114.576 65.6936 116.475 64.8949 118.474 64.8949C120.473 64.8949 122.373 65.6936 123.772 67.0913L129.17 72.4825L129.47 72.782L148.663 53.6132L129.47 34.4444L100.881 62.998C100.781 63.0978 100.681 63.1976 100.481 63.2975C98.0818 65.5937 94.8831 66.8916 91.4844 66.8916C87.9857 66.8916 84.587 65.4939 82.088 62.998C79.5889 60.502 78.1895 57.2074 78.1895 53.6132C78.1895 50.2188 79.389 47.024 81.7881 44.6279C81.888 44.528 81.988 44.4282 82.088 44.3284L82.1879 44.2285L82.3878 44.1287L124.172 2.39662C125.571 0.998895 127.471 0.200195 129.47 0.200195C131.469 0.200195 133.368 0.998895 134.768 2.39662L180.85 48.4217C183.749 51.1173 183.749 55.8097 180.85 58.8048Z" fill="white"/>
<path d="M220.733 19.6409V29.5028H214V0.497236C215.29 0.497236 216.707 0.483424 218.25 0.4558C219.821 0.428176 221.406 0.414363 223.005 0.414363C227.157 0.414363 230.187 1.32597 232.094 3.14917C233.974 4.91713 234.914 7.20994 234.914 10.0276C234.914 12.7348 233.918 15.0414 231.926 16.9475C229.934 18.826 227.297 19.7652 224.015 19.7652C222.556 19.7652 221.462 19.7238 220.733 19.6409ZM223.678 6.62983C223.65 6.62983 223.524 6.64364 223.3 6.67127C223.075 6.67127 222.725 6.68508 222.248 6.71271C221.771 6.71271 221.266 6.71271 220.733 6.71271V13.3425C221.911 13.4807 222.935 13.5497 223.805 13.5497C224.955 13.5497 225.895 13.2597 226.624 12.6796C227.381 12.0718 227.76 11.174 227.76 9.98619C227.76 7.74862 226.4 6.62983 223.678 6.62983Z" fill="white"/>
<path d="M238.332 15C238.332 10.7182 239.777 7.1547 242.666 4.30939C245.584 1.43646 249.357 0 253.986 0C258.587 0 262.332 1.3674 265.221 4.10221C268.167 6.83702 269.64 10.4696 269.64 15C269.64 19.3646 268.153 22.9558 265.179 25.7735C262.234 28.5912 258.502 30 253.986 30C249.413 30 245.654 28.6326 242.708 25.8978C239.791 23.163 238.332 19.5304 238.332 15ZM245.486 15C245.486 17.4586 246.313 19.5442 247.968 21.2569C249.596 22.942 251.601 23.7845 253.986 23.7845C256.679 23.7845 258.769 22.9696 260.256 21.3398C261.743 19.6547 262.486 17.5414 262.486 15C262.486 12.3757 261.672 10.2624 260.045 8.66022C258.39 7.03038 256.37 6.21547 253.986 6.21547C251.517 6.21547 249.483 7.03038 247.884 8.66022C246.285 10.2901 245.486 12.4033 245.486 15Z" fill="white"/>
<path d="M306.739 0.497236H313.219L304.93 29.5028H298.491L292.348 10.8564L286.288 29.5028H279.85L271.139 0.497236H278.756L283.721 18.8122L289.234 0.497236H296.009L301.689 18.8122L306.739 0.497236Z" fill="white"/>
<path d="M335.438 29.5028H317.554V0.497236H335.017V6.71271H324.286V11.8094H333.754V18.0249H324.286V23.2873H335.438V29.5028Z" fill="white"/>
<path d="M349.038 19.3508V29.5028H342.305V0.497236C343.904 0.497236 345.671 0.483424 347.607 0.4558C349.543 0.428176 351.114 0.414363 352.32 0.414363C359.586 0.414363 363.219 3.50829 363.219 9.69613C363.219 13.674 361.564 16.4641 358.253 18.0663L366.838 29.5028H358.674L351.52 19.3508H349.038ZM351.983 6.62983C351.955 6.62983 351.829 6.64364 351.605 6.67127C351.38 6.67127 351.029 6.68508 350.553 6.71271C350.076 6.71271 349.571 6.71271 349.038 6.71271V13.1354H351.478C354.536 13.1354 356.065 12.0166 356.065 9.77901C356.065 7.67956 354.704 6.62983 351.983 6.62983Z" fill="white"/>
<path d="M389.05 29.5028H371.166V0.497236H388.629V6.71271H377.898V11.8094H387.366V18.0249H377.898V23.2873H389.05V29.5028Z" fill="white"/>
<path d="M396.632 29.5028H395.917V0.497236H396.506C397.768 0.497236 399.171 0.483424 400.714 0.4558C401.303 0.4558 401.948 0.4558 402.65 0.4558C403.379 0.428176 403.94 0.414363 404.333 0.414363C404.726 0.386739 405.02 0.372927 405.216 0.372927C410.743 0.372927 414.881 1.72652 417.63 4.4337C420.379 7.14088 421.754 10.5801 421.754 14.7514C421.754 19.0331 420.281 22.5829 417.336 25.4006C414.418 28.1906 410.266 29.5856 404.88 29.5856C403.786 29.5856 402.565 29.5718 401.219 29.5442C399.872 29.5166 398.343 29.5028 396.632 29.5028ZM405.132 6.5884C404.038 6.5884 403.211 6.62983 402.65 6.71271V23.2873C403.435 23.3425 404.249 23.3702 405.09 23.3702C408.064 23.3702 410.392 22.6105 412.076 21.0912C413.759 19.5718 414.6 17.4586 414.6 14.7514C414.6 12.1823 413.745 10.1796 412.033 8.74309C410.322 7.30663 408.022 6.5884 405.132 6.5884Z" fill="white"/>
<path d="M436.749 29.4199V0.58011C440.031 0.414363 443.004 0.33149 445.67 0.33149C448.924 0.33149 451.378 0.980661 453.034 2.27901C454.717 3.54972 455.558 5.30387 455.558 7.54143C455.558 10.3867 454.436 12.5414 452.192 14.0055V14.0884C453.454 14.558 454.464 15.3591 455.222 16.4917C456.007 17.6243 456.4 19.0331 456.4 20.7182C456.4 23.6188 455.362 25.8425 453.286 27.3895C451.238 28.9088 448.545 29.6685 445.207 29.6685C441.307 29.6685 438.488 29.5856 436.749 29.4199ZM446.09 17.7762H443.481V23.2044C444.099 23.3702 444.856 23.453 445.754 23.453C448.363 23.453 449.667 22.4309 449.667 20.3867C449.667 18.6464 448.475 17.7762 446.09 17.7762ZM445.585 6.54696C445.08 6.54696 444.379 6.60221 443.481 6.71271V11.9751H445.712C447.788 11.9751 448.826 11.0359 448.826 9.15746C448.826 8.35635 448.517 7.72099 447.9 7.25138C447.283 6.78177 446.511 6.54696 445.585 6.54696Z" fill="white"/>
<path d="M479.72 0.497236H487L476.564 17.6934V29.5028H469.831V17.6934L459.48 0.497236H467.18L473.492 11.4779L479.72 0.497236Z" fill="white"/>
</svg>
