<svg width="24" height="24" viewBox="0 0 24 24" fill="none" xmlns="http://www.w3.org/2000/svg">
<path d="M21.2848 9.42563C21.1619 9.04765 20.8267 8.78005 20.4316 8.7443L15.0431 8.2551L12.9135 3.26934C12.7563 2.90304 12.3985 2.66663 12.0003 2.66663C11.6021 2.66663 11.2443 2.90304 11.088 3.26934L8.95845 8.2551L3.56908 8.7443C3.17401 8.78076 2.83947 9.04836 2.71585 9.42563C2.59295 9.80361 2.70645 10.2182 3.00525 10.4802L7.07854 14.0519L5.87753 19.3416C5.78965 19.7305 5.94062 20.1327 6.26334 20.366C6.4368 20.4921 6.6406 20.555 6.84511 20.555C7.02086 20.555 7.19674 20.5083 7.35383 20.4143L12.0003 17.636L16.646 20.4143C16.9868 20.618 17.4154 20.5993 17.7374 20.366C18.0601 20.1327 18.211 19.7305 18.1232 19.3416L16.9222 14.0519L20.9955 10.4802C21.2941 10.2182 21.4078 9.80446 21.2848 9.42563Z" fill="#EB8106"/>
</svg>
