<svg width="98" height="96" viewBox="0 0 98 96" fill="none" xmlns="http://www.w3.org/2000/svg">
<g filter="url(#filter0_d)">
<path fill-rule="evenodd" clip-rule="evenodd" d="M85.2243 50.3944C85.0057 49.5784 85.004 48.7218 85.1787 47.8953C85.7169 45.3483 86 42.7072 86 40C86 19.0132 68.9868 2 48 2C27.0132 2 10 19.0132 10 40C10 60.9868 27.0132 78 48 78C57.2713 78 65.7672 74.6797 72.3633 69.1633C72.9614 68.6631 73.6532 68.2835 74.4064 68.0817L84.0919 65.4865C86.7592 64.7718 88.3421 62.0301 87.6274 59.3628L85.2243 50.3944Z" fill="#20212F"/>
<path d="M68 46.0703C68 40.2399 64.0715 35.1459 58.5316 33.6109C58.1834 25.4954 51.4732 19 43.2734 19C34.8515 19 28 25.8515 28 34.2734C28 37.0182 28.7306 39.6906 30.1179 42.0368L28.0562 49.4904L35.5101 47.429C37.6667 48.7043 40.0996 49.4227 42.6106 49.531C44.1453 55.0712 49.2396 59 55.0703 59C57.3976 59 59.6608 58.3802 61.6493 57.2025L67.9435 58.9435L66.2025 52.6493C67.3802 50.6608 68 48.3976 68 46.0703ZM35.8799 44.8948L31.4177 46.1292L32.6521 41.6669L32.3707 41.2269C31.0447 39.1523 30.3438 36.7478 30.3438 34.2734C30.3438 27.1439 36.1439 21.3438 43.2734 21.3438C50.403 21.3438 56.2031 27.1439 56.2031 34.2734C56.2031 41.403 50.403 47.2031 43.2734 47.2031C40.7991 47.2031 38.3949 46.5021 36.32 45.1761L35.8799 44.8948ZM64.5823 55.5823L61.2712 54.6662L60.829 54.954C59.1148 56.0676 57.1232 56.6562 55.0703 56.6562C50.4878 56.6562 46.461 53.6933 45.0343 49.4446C52.0515 48.6356 57.6356 43.0515 58.4449 36.034C62.6933 37.461 65.6562 41.4878 65.6562 46.0703C65.6562 48.1232 65.0676 50.1148 63.954 51.829L63.6662 52.2712L64.5823 55.5823Z" fill="#EB8106"/>
<path d="M42.1016 40.1719H44.4453V42.5156H42.1016V40.1719Z" fill="#EB8106"/>
<path d="M45.6172 30.7188C45.6172 31.3843 45.3462 31.9987 44.8542 32.4488L42.1016 34.9683V37.8281H44.4453V36.0004L46.4366 34.1779C47.4052 33.2914 47.9609 32.0307 47.9609 30.7188C47.9609 28.1339 45.8583 26.0312 43.2734 26.0312C40.6886 26.0312 38.5859 28.1339 38.5859 30.7188H40.9297C40.9297 29.4263 41.981 28.375 43.2734 28.375C44.5659 28.375 45.6172 29.4263 45.6172 30.7188Z" fill="#EB8106"/>
</g>
<defs>
<filter id="filter0_d" x="0" y="0" width="97.799" height="96" filterUnits="userSpaceOnUse" color-interpolation-filters="sRGB">
<feFlood flood-opacity="0" result="BackgroundImageFix"/>
<feColorMatrix in="SourceAlpha" type="matrix" values="0 0 0 0 0 0 0 0 0 0 0 0 0 0 0 0 0 0 127 0"/>
<feOffset dy="8"/>
<feGaussianBlur stdDeviation="5"/>
<feColorMatrix type="matrix" values="0 0 0 0 0 0 0 0 0 0 0 0 0 0 0 0 0 0 0.2 0"/>
<feBlend mode="normal" in2="BackgroundImageFix" result="effect1_dropShadow"/>
<feBlend mode="normal" in="SourceGraphic" in2="effect1_dropShadow" result="shape"/>
</filter>
</defs>
</svg>
