<svg width="78" height="76" viewBox="0 0 78 76" fill="none" xmlns="http://www.w3.org/2000/svg">
<path fill-rule="evenodd" clip-rule="evenodd" d="M75.2243 48.3944C75.0057 47.5784 75.004 46.7218 75.1787 45.8953C75.7169 43.3483 76 40.7072 76 38C76 17.0132 58.9868 0 38 0C17.0132 0 0 17.0132 0 38C0 58.9868 17.0132 76 38 76C47.2713 76 55.7672 72.6797 62.3633 67.1633C62.9614 66.6631 63.6532 66.2835 64.4064 66.0817L74.0919 63.4865C76.7592 62.7718 78.3421 60.0301 77.6274 57.3628L75.2243 48.3944Z" fill="#20212F"/>
<path d="M58 44.0703C58 38.2399 54.0715 33.1459 48.5316 31.6109C48.1834 23.4954 41.4732 17 33.2734 17C24.8515 17 18 23.8515 18 32.2734C18 35.0182 18.7306 37.6906 20.1179 40.0368L18.0562 47.4904L25.5101 45.429C27.6667 46.7043 30.0996 47.4227 32.6106 47.531C34.1453 53.0712 39.2396 57 45.0703 57C47.3976 57 49.6608 56.3802 51.6493 55.2025L57.9435 56.9435L56.2025 50.6493C57.3802 48.6608 58 46.3976 58 44.0703ZM25.8799 42.8948L21.4177 44.1292L22.6521 39.6669L22.3707 39.2269C21.0447 37.1523 20.3438 34.7478 20.3438 32.2734C20.3438 25.1439 26.1439 19.3438 33.2734 19.3438C40.403 19.3438 46.2031 25.1439 46.2031 32.2734C46.2031 39.403 40.403 45.2031 33.2734 45.2031C30.7991 45.2031 28.3949 44.5021 26.32 43.1761L25.8799 42.8948ZM54.5823 53.5823L51.2712 52.6662L50.829 52.954C49.1148 54.0676 47.1232 54.6562 45.0703 54.6562C40.4878 54.6562 36.461 51.6933 35.0343 47.4446C42.0515 46.6356 47.6356 41.0515 48.4449 34.034C52.6933 35.461 55.6562 39.4878 55.6562 44.0703C55.6562 46.1232 55.0676 48.1148 53.954 49.829L53.6662 50.2712L54.5823 53.5823Z" fill="#EB8106"/>
<path d="M32.1016 38.1719H34.4453V40.5156H32.1016V38.1719Z" fill="#EB8106"/>
<path d="M35.6172 28.7188C35.6172 29.3843 35.3462 29.9987 34.8542 30.4488L32.1016 32.9683V35.8281H34.4453V34.0004L36.4366 32.1779C37.4052 31.2914 37.9609 30.0307 37.9609 28.7188C37.9609 26.1339 35.8583 24.0312 33.2734 24.0312C30.6886 24.0312 28.5859 26.1339 28.5859 28.7188H30.9297C30.9297 27.4263 31.981 26.375 33.2734 26.375C34.5659 26.375 35.6172 27.4263 35.6172 28.7188Z" fill="#EB8106"/>
</svg>
