<svg width="18" height="18" viewBox="0 0 18 18" fill="none" xmlns="http://www.w3.org/2000/svg">
<path d="M17.5043 6.04834L15.0608 7.06049C15.2571 7.67228 15.3635 8.32397 15.3635 9.0001C15.3635 9.67622 15.2571 10.3279 15.0608 10.9397L17.5043 11.9519C17.8253 11.0271 18.0002 10.0341 18.0002 9.0001C18.0002 7.96612 17.8253 6.97309 17.5043 6.04834Z" fill="#8292A7"/>
<path d="M9.00006 6.10352e-05C7.96608 6.10352e-05 6.97306 0.174964 6.04834 0.495906L7.06049 2.93944C7.67228 2.74317 8.32394 2.63678 9.00006 2.63678C9.67619 2.63678 10.3278 2.74317 10.9397 2.93944L11.9518 0.495906C11.0271 0.174964 10.034 6.10352e-05 9.00006 6.10352e-05Z" fill="#8292A7"/>
<path d="M10.9397 15.0607C10.3279 15.2569 9.67622 15.3633 9.0001 15.3633C8.32397 15.3633 7.67231 15.2569 7.06049 15.0607L6.04834 17.5042C6.97309 17.8252 7.96612 18.0001 9.0001 18.0001C10.0341 18.0001 11.0271 17.8252 11.9518 17.5042L10.9397 15.0607Z" fill="#8292A7"/>
<path d="M14.656 11.9136C14.0489 13.0873 13.0872 14.049 11.9136 14.656L12.9261 17.1005C14.7429 16.2183 16.2183 14.743 17.1005 12.9262L14.656 11.9136Z" fill="#8292A7"/>
<path d="M3.34415 11.9136L0.899658 12.9262C1.78187 14.743 3.25717 16.2183 5.07401 17.1005L6.08655 14.656C4.91289 14.049 3.95119 13.0873 3.34415 11.9136Z" fill="#8292A7"/>
<path d="M5.07401 0.899597C3.2572 1.78181 1.78187 3.25711 0.899658 5.07395L3.34415 6.08649C3.95119 4.91283 4.91289 3.95113 6.08655 3.34409L5.07401 0.899597Z" fill="#8292A7"/>
<path d="M12.9261 0.899597L11.9136 3.34409C13.0872 3.95113 14.0489 4.91283 14.656 6.08649L17.1005 5.07395C16.2183 3.25714 14.743 1.78181 12.9261 0.899597Z" fill="#8292A7"/>
<path d="M2.93938 7.06049L0.495845 6.04834C0.174903 6.97309 0 7.96612 0 9.0001C0 10.0341 0.174903 11.0271 0.495845 11.9519L2.93938 10.9397C2.74311 10.3279 2.63672 9.67622 2.63672 9.0001C2.63672 8.32397 2.74311 7.67228 2.93938 7.06049Z" fill="#8292A7"/>
<path d="M9.00001 3.69147C6.07282 3.69147 3.69141 6.07288 3.69141 9.00007C3.69141 11.9273 6.07282 14.3087 9.00001 14.3087C11.9272 14.3087 14.3086 11.9273 14.3086 9.00007C14.3086 6.07288 11.9272 3.69147 9.00001 3.69147ZM9.00001 12.7266C6.94519 12.7266 5.27344 11.0549 5.27344 9.00007C5.27344 6.94522 6.94519 5.2735 9.00001 5.2735C11.0548 5.2735 12.7266 6.94522 12.7266 9.00007C12.7266 11.0549 11.0548 12.7266 9.00001 12.7266Z" fill="#8292A7"/>
<path d="M9 6.32819C7.52674 6.32819 6.32812 7.52677 6.32812 9.00007C6.32812 10.4734 7.52674 11.6719 9 11.6719C10.4733 11.6719 11.6719 10.4734 11.6719 9.00007C11.6719 7.52677 10.4733 6.32819 9 6.32819Z" fill="#8292A7"/>
</svg>
