<svg width="26" height="26" viewBox="0 0 26 26" fill="none" xmlns="http://www.w3.org/2000/svg">
<path d="M18.534 11.9909C21.9692 11.1977 24.4258 8.13373 24.4258 4.57031V1.52344H21.3775C21.3783 1.44389 21.3789 1.36415 21.3789 1.28441V0H4.62109V1.28441C4.62109 1.36415 4.62169 1.44389 4.62248 1.52344H1.57422V4.57031C1.57422 8.13373 4.03076 11.1977 7.46603 11.9909C8.36046 13.5574 9.4465 15.0027 10.7148 16.3083V18.2812H9.47884L7.9554 21.3789H6.14453V26H19.8555V21.3789H18.0446L16.5212 18.2812H15.2852V16.3083C16.5535 15.0027 17.6395 13.5574 18.534 11.9909ZM22.9023 3.04688V4.57031C22.9023 6.93303 21.5529 9.02101 19.527 10.0281C19.5988 9.86565 19.669 9.70239 19.7372 9.53775C20.6005 7.45374 21.1262 5.27728 21.3073 3.04688H22.9023ZM3.09766 4.57031V3.04688H4.6927C4.87381 5.27728 5.39948 7.45374 6.26276 9.53775C6.33099 9.70239 6.40121 9.86565 6.47322 10.0281C4.44713 9.02101 3.09766 6.93303 3.09766 4.57031ZM18.332 24.4766H7.66797V22.9023H18.332V24.4766ZM16.3468 21.3789H9.6532L10.4274 19.8047H15.5726L16.3468 21.3789ZM12.2383 18.2812V15.6805L12.0151 15.4575C8.28587 11.7281 6.20702 6.78743 6.14592 1.52284H19.8541C19.793 6.78743 17.7141 11.7281 13.9849 15.4575L13.7617 15.6805V18.2812H12.2383Z" fill="#FFC400"/>
<path d="M3.09766 16.7578V15.2344H4.62109V13.7109H3.09766V12.1875H1.57422V13.7109H0V15.2344H1.57422V16.7578H3.09766Z" fill="#00FE01"/>
<path d="M24.4258 12.1875H22.9023V13.7109H21.3789V15.2344H22.9023V16.7578H24.4258V15.2344H26V13.7109H24.4258V12.1875Z" fill="#00FE01"/>
<path d="M16.0469 6.09375C16.0469 4.4136 14.6801 3.04688 13 3.04688C11.3199 3.04688 9.95312 4.4136 9.95312 6.09375C9.95312 7.7739 11.3199 9.14062 13 9.14062C14.6801 9.14062 16.0469 7.7739 16.0469 6.09375ZM13 7.61719C12.1599 7.61719 11.4766 6.93382 11.4766 6.09375C11.4766 5.25368 12.1599 4.57031 13 4.57031C13.8401 4.57031 14.5234 5.25368 14.5234 6.09375C14.5234 6.93382 13.8401 7.61719 13 7.61719Z" fill="#00FE01"/>
</svg>
