<svg width="26" height="26" viewBox="0 0 26 26" fill="none" xmlns="http://www.w3.org/2000/svg">
<path d="M18.0875 13C23.2544 12.6309 23.9085 9.95043 23.989 7.12502C24.0047 6.57296 23.5523 6.125 23 6.125H19.875V3C19.875 2.44772 19.4273 2 18.875 2H7.125C6.57272 2 6.125 2.44772 6.125 3V6.125H3C2.44772 6.125 1.99527 6.57296 2.01099 7.12502C2.09146 9.95043 2.74558 12.6309 7.9125 13C9.15 14.925 10.8 15.75 11.625 15.75V21.25C8.61131 21.25 7.7994 22.7178 7.58066 23.5088C7.50705 23.7749 7.72386 24 8 24H18C18.2761 24 18.4929 23.7749 18.4193 23.5088C18.2006 22.7178 17.3887 21.25 14.375 21.25V15.75C15.2 15.75 16.85 14.925 18.0875 13ZM19.875 7.5H22.0928C22.3812 7.5 22.6114 7.74398 22.5839 8.03107C22.4005 9.94156 21.8136 11.2352 18.9125 11.4875C19.325 10.3875 19.7375 9.15 19.875 7.5ZM3.41869 8.03085C3.38842 7.74403 3.61881 7.5 3.90723 7.5H6.125C6.2625 9.15 6.675 10.3875 7.0875 11.4875C4.3124 11.2352 3.62026 9.94145 3.41869 8.03085ZM8.1875 10.3875C7.5 8.05 7.5 6.125 7.5 6.125V3.875C7.5 3.59886 7.72386 3.375 8 3.375H8.375C8.65114 3.375 8.875 3.59886 8.875 3.875V6.125C8.875 6.125 8.875 8.4625 9.425 10.3875C10.1125 12.725 11.625 14.375 11.625 14.375C11.625 14.375 9.15 14.1 8.1875 10.3875Z" fill="#EB8106"/>
</svg>
