<svg width="24" height="24" viewBox="0 0 24 24" fill="none" xmlns="http://www.w3.org/2000/svg">
<path d="M23.25 0.00050354H0.75C0.336 0.00050354 0 0.336503 0 0.750503V11.2505C0 11.6645 0.336 12.0005 0.75 12.0005H3.507C4.104 10.955 4.5045 9.944 4.7505 9.0005H4.5C3.672 9.0005 3 8.3285 3 7.5005V4.5005C3 3.6725 3.672 3.0005 4.5 3.0005H19.5C20.328 3.0005 21 3.6725 21 4.5005V7.5005C21 8.1905 20.5245 8.7455 19.8915 8.921C19.716 9.8945 19.4265 10.928 18.999 12.0005H23.25C23.664 12.0005 24 11.6645 24 11.2505V0.750503C24 0.336503 23.664 0.00050354 23.25 0.00050354Z" fill="white"/>
<path d="M18.5323 4.50075H6.52029C6.78579 6.45075 6.72129 9.64575 4.61079 13.1092C0.766286 19.4152 3.00429 23.4532 3.10029 23.6227C3.23379 23.8552 3.48279 23.9992 3.75129 23.9992H14.2513C14.5168 23.9992 14.7613 23.8552 14.8963 23.6272C15.0313 23.3992 15.0343 23.1127 14.9053 22.8802C14.8273 22.7407 13.0423 19.3882 16.3918 13.8907C18.6733 10.1482 18.8068 6.71775 18.5323 4.50075ZM8.99979 6.75075C8.99979 6.33675 9.33579 6.00075 9.74979 6.00075C10.1638 6.00075 10.4998 6.33675 10.4998 6.75075V8.25075C10.4998 8.66475 10.1638 9.00075 9.74979 9.00075C9.33579 9.00075 8.99979 8.66475 8.99979 8.25075V6.75075ZM11.9998 20.2507C11.9998 20.6647 11.6638 21.0007 11.2498 21.0007C10.8358 21.0007 10.4998 20.6647 10.4998 20.2507V18.7507C10.4998 18.3367 10.8358 18.0007 11.2498 18.0007C11.6638 18.0007 11.9998 18.3367 11.9998 18.7507V20.2507ZM10.4998 16.1257C9.25929 16.1257 8.24979 14.9482 8.24979 13.5007C8.24979 12.0532 9.25929 10.8757 10.4998 10.8757C11.7403 10.8757 12.7498 12.0532 12.7498 13.5007C12.7498 14.9482 11.7403 16.1257 10.4998 16.1257Z" fill="white"/>
</svg>
