<svg width="46" height="46" viewBox="0 0 46 46" fill="none" xmlns="http://www.w3.org/2000/svg">
<path d="M20.9725 30.1408C21.2059 30.375 21.2059 30.7536 20.9725 30.9877C20.7388 31.2207 20.3602 31.2209 20.1259 30.9877C19.8928 30.7536 19.8928 30.375 20.1259 30.1408C20.3602 29.9077 20.7388 29.9078 20.9725 30.1408Z" fill="white" stroke="#AAFF5C" stroke-width="0.6"/>
<path d="M24.756 8.94013L24.6827 9.3H25.05H29.7V10.7H25.05H24.6827L24.756 11.0599C24.8531 11.5362 25.0724 11.9791 25.3926 12.345C25.7127 12.7108 26.1226 12.987 26.5819 13.1464C27.0412 13.3057 27.5341 13.3427 28.012 13.2538C28.4149 13.1788 28.7954 13.0165 29.1273 12.7794L30.3434 13.5899C29.8398 14.0532 29.2291 14.3876 28.5637 14.5618C27.7841 14.7659 26.9621 14.7414 26.196 14.4912C25.4299 14.241 24.752 13.7756 24.2431 13.1507C23.7342 12.5257 23.4159 11.7675 23.3261 10.9666L23.2963 10.7H23.028H22.3V9.3H23.027H23.2954L23.3251 9.03329C23.4146 8.23196 23.7328 7.47333 24.2418 6.84798C24.7508 6.22264 25.4291 5.75703 26.1955 5.50675C26.962 5.25647 27.7843 5.23212 28.5643 5.43658C29.23 5.61111 29.8409 5.94607 30.3445 6.40992L29.1274 7.22063C28.7954 6.98349 28.4149 6.82119 28.012 6.74621C27.5341 6.65726 27.0412 6.69428 26.5819 6.85363C26.1226 7.01298 25.7127 7.28917 25.3926 7.65501C25.0724 8.02086 24.8531 8.46376 24.756 8.94013ZM27 19.7C21.6427 19.7 17.3 15.3573 17.3 10C17.3 4.64269 21.6427 0.3 27 0.3C32.3573 0.3 36.7 4.64269 36.7 10C36.7 15.3573 32.3573 19.7 27 19.7ZM27 18.3C29.2013 18.3 31.3124 17.4255 32.869 15.869C34.4255 14.3124 35.3 12.2013 35.3 10C35.3 7.7987 34.4255 5.68757 32.869 4.13101C31.3124 2.57446 29.2013 1.7 27 1.7C24.7987 1.7 22.6876 2.57446 21.131 4.13101C19.5745 5.68757 18.7 7.7987 18.7 10C18.7 12.2013 19.5745 14.3124 21.131 15.869C22.6876 17.4255 24.7987 18.3 27 18.3Z" fill="#E4FFA3" stroke="#FFEC4A" stroke-width="0.6"/>
<path d="M24.903 8.97006L24.8664 9.15H25.05H29.85V10.85H25.05H24.8664L24.903 11.0299C24.9948 11.4808 25.2025 11.9 25.5055 12.2462C25.8085 12.5925 26.1964 12.8538 26.6311 13.0047C27.0658 13.1555 27.5322 13.1905 27.9846 13.1063C28.3996 13.0291 28.7897 12.8539 29.1226 12.596L30.582 13.5686C30.0358 14.1169 29.3524 14.5104 28.6017 14.7069C27.7942 14.9183 26.9429 14.893 26.1494 14.6338C25.356 14.3746 24.6538 13.8927 24.1268 13.2454C23.5997 12.5981 23.27 11.8128 23.1771 10.9833L23.1621 10.85H23.028H22.15V9.15H23.027H23.1612L23.1761 9.01664C23.2687 8.1867 23.5983 7.40097 24.1255 6.75329C24.6527 6.10562 25.3551 5.62337 26.149 5.36416C26.9428 5.10495 27.7945 5.07972 28.6023 5.29149C29.3533 5.48837 30.0369 5.88238 30.583 6.43129L29.1226 7.40403C28.7897 7.14613 28.3997 6.97093 27.9846 6.89368C27.5322 6.80949 27.0658 6.84453 26.6311 6.99534C26.1964 7.14616 25.8085 7.40755 25.5055 7.7538C25.2025 8.10004 24.9948 8.51922 24.903 8.97006ZM27 19.85C21.5598 19.85 17.15 15.4402 17.15 10C17.15 4.55984 21.5598 0.15 27 0.15C32.4402 0.15 36.85 4.55984 36.85 10C36.85 15.4402 32.4402 19.85 27 19.85ZM27 18.15C29.1615 18.15 31.2345 17.2913 32.7629 15.7629C34.2913 14.2345 35.15 12.1615 35.15 10C35.15 7.83849 34.2913 5.7655 32.7629 4.23708C31.2345 2.70866 29.1615 1.85 27 1.85C24.8385 1.85 22.7655 2.70866 21.2371 4.23708C19.7087 5.7655 18.85 7.83849 18.85 10C18.85 12.1615 19.7087 14.2345 21.2371 15.7629C22.7655 17.2913 24.8385 18.15 27 18.15Z" stroke="#FFC400" stroke-width="0.3"/>
<path d="M10.6035 45.5231L10.6035 45.5232C10.8354 45.7569 11.2128 45.7594 11.4477 45.5281L15.8007 41.2397C15.801 41.2394 15.8012 41.2391 15.8015 41.2388C16.4568 40.5829 16.6579 39.6091 16.3684 38.7615L16.3067 38.581L16.444 38.4486L17.3805 37.5454L10.6035 45.5231ZM10.6035 45.5231L0.518575 35.3614C0.28662 35.1275 0.287167 34.7505 0.519441 34.5175C0.519443 34.5175 0.519445 34.5175 0.519448 34.5175L4.79197 30.2324C5.36828 29.656 6.16795 29.4269 6.92626 29.5706L7.14163 29.6114L7.24595 29.4186C9.21392 25.7819 12.8816 23.8329 17.1106 23.8329C18.6316 23.8329 20.1045 24.127 21.4926 24.7077L21.5482 24.731H21.6084H31.6242C32.6332 24.731 33.5695 25.2011 34.1839 25.9573L34.3966 26.219L34.6318 25.9773L39.9319 20.5298L39.9381 20.5233M10.6035 45.5231L39.9381 20.5233M36.8288 34.4999L36.8289 34.4998C36.8309 34.4978 36.8307 34.4986 36.8304 34.4992C36.8287 34.5042 36.8278 34.5068 37.6717 33.4975C37.8443 33.2913 38.052 33.0428 38.3022 32.7436C39.4313 31.3932 41.4256 29.0082 44.9539 24.7912L44.9548 24.79C46.1262 23.4043 45.9512 21.3224 44.5639 20.1492L36.8288 34.4999ZM36.8288 34.4999C35.3669 35.9226 33.4398 36.7056 31.3996 36.7056H19.4592C18.6796 36.7056 17.9409 37.0042 17.3807 37.5452L36.8288 34.4999ZM39.9381 20.5233L39.944 20.5165M39.9381 20.5233L39.944 20.5165M39.944 20.5165C41.1187 19.1543 43.1848 18.9873 44.5635 20.1489L39.944 20.5165ZM5.63855 31.0778L5.63886 31.0775C6.03382 30.6825 6.6414 30.6123 7.12 30.9075M5.63855 31.0778L7.12088 30.9081C7.12059 30.9079 7.12029 30.9077 7.12 30.9075M5.63855 31.0778L1.99742 34.7295L1.7867 34.9408L1.99692 35.1526L10.8223 44.0454L11.0329 44.2575L11.2458 44.0478L14.9582 40.3905L14.9598 40.3889C15.4086 39.9401 15.4341 39.1781 14.9548 38.6988L14.9547 38.6986C11.7164 35.4648 9.84947 33.5942 8.76458 32.5071C8.49766 32.2396 8.27808 32.0196 8.09705 31.8384C7.64017 31.381 7.42586 31.1677 7.31638 31.0633C7.26334 31.0128 7.22471 30.9778 7.18997 30.952C7.16955 30.9368 7.15247 30.9262 7.1379 30.9178C7.1288 30.9125 7.12603 30.911 7.12442 30.9101C7.12311 30.9094 7.12257 30.9091 7.12 30.9075M5.63855 31.0778L7.12 30.9075M21.1848 25.8773L21.1847 25.8772C19.898 25.3144 18.527 25.029 17.1102 25.029C13.1733 25.029 9.97884 26.8346 8.27665 30.0279L8.17211 30.224L8.32926 30.3812L15.3659 37.4174L15.5742 37.6258L15.7863 37.4211L16.5496 36.6845L16.5498 36.6844C17.3339 35.9267 18.3668 35.5094 19.4592 35.5094H31.3996C33.1097 35.5094 34.7287 34.8579 35.9609 33.6749L35.9728 33.6636L35.9833 33.651L44.0385 24.0213C44.0387 24.021 44.0389 24.0207 44.0392 24.0204C44.787 23.1343 44.6755 21.81 43.7924 21.0633L43.7921 21.063C42.9095 20.3189 41.5842 20.431 40.8373 21.3125L40.8363 21.3138C40.8367 21.3133 40.8342 21.3159 40.827 21.3234C40.8079 21.3433 40.7561 21.3972 40.64 21.517C40.4879 21.6737 40.2346 21.9343 39.8218 22.3586C39.5353 22.6531 39.1718 23.0266 38.7121 23.499C37.8479 24.3872 36.6436 25.6249 34.9703 27.3449L34.869 27.449L34.8879 27.5931C34.9067 27.7365 34.9169 27.88 34.9169 28.0237C34.9169 29.8391 33.4397 31.3164 31.6242 31.3164H24.296C23.9657 31.3164 23.6979 31.0488 23.6979 30.7183C23.6979 30.3881 23.9658 30.1202 24.296 30.1202H31.6242C32.7806 30.1202 33.7207 29.1801 33.7207 28.0237C33.7207 26.8529 32.7607 25.9275 31.6242 25.9275H21.4245C21.342 25.9275 21.2606 25.9104 21.1848 25.8773Z" fill="white" stroke="#AAFF5C" stroke-width="0.6"/>
<path d="M19.9747 30.0348C20.2675 29.7431 20.741 29.7431 21.0334 30.0348C21.3254 30.3275 21.3254 30.8011 21.0334 31.0938C20.741 31.3854 20.2675 31.3855 19.9747 31.0938C19.683 30.8011 19.683 30.3275 19.9747 30.0348Z" stroke="#17E200" stroke-width="0.3"/>
<path d="M10.4521 45.6288L10.4521 45.6288C10.7421 45.9212 11.2142 45.9244 11.508 45.635L15.8618 41.3457C15.862 41.3456 15.8621 41.3455 15.8622 41.3453C16.5598 40.6475 16.7728 39.6129 16.4654 38.713L16.4345 38.6228L16.5032 38.5566L17.4398 37.6533L10.4521 45.6288ZM10.4521 45.6288L0.367162 35.467C0.367154 35.467 0.367146 35.467 0.367138 35.467C0.0771118 35.1746 0.0777444 34.703 0.368297 34.4116L4.64098 30.1263L10.4521 45.6288ZM36.8885 34.6074L36.8885 34.6073C36.8914 34.6046 36.8921 34.6043 36.8927 34.6041C36.8975 34.6023 36.8989 34.6018 37.7419 33.5938C37.9145 33.3874 38.1222 33.1389 38.3725 32.8396C39.5017 31.4891 41.4959 29.1041 45.024 24.8875L45.0245 24.8869C46.2495 23.4376 46.0663 21.2609 44.6154 20.0344C43.1738 18.8196 41.0139 18.9942 39.7855 20.4186L39.7796 20.4254L39.7794 20.4252L34.4793 25.8727L34.3618 25.9935L34.2554 25.8627C33.6136 25.0727 32.6352 24.581 31.5793 24.581H21.5635H21.5334L21.5056 24.5693C20.0989 23.9808 18.6063 23.6829 17.0657 23.6829C12.7886 23.6829 9.06647 25.6562 7.06911 29.3472L7.01695 29.4436L6.90926 29.4232C6.10324 29.2705 5.25321 29.5142 4.64114 30.1261L36.8885 34.6074ZM36.8885 34.6074C35.3986 36.0573 33.434 36.8556 31.3547 36.8556H19.4142C18.6735 36.8556 17.9722 37.1391 17.4399 37.6532L36.8885 34.6074ZM21.0797 26.0146L21.0796 26.0146C19.8121 25.4601 18.4615 25.179 17.0653 25.179C13.1776 25.179 10.0375 26.9592 8.3641 30.0985L8.31183 30.1965L8.3904 30.2751L15.427 37.3113L15.5312 37.4155L15.6372 37.3132L16.4005 36.5766L16.4006 36.5765C17.2128 35.7918 18.283 35.3594 19.4142 35.3594H31.3547C33.026 35.3594 34.6078 34.7229 35.8121 33.5667L35.8181 33.561L35.8233 33.5547L43.879 23.9245C43.879 23.9244 43.879 23.9244 43.8791 23.9243C44.5742 23.1013 44.4706 21.8711 43.6506 21.1779L43.6505 21.1777C42.8312 20.487 41.6004 20.5909 40.9069 21.4095L40.9064 21.4101C40.9067 21.4097 40.897 21.4203 40.8619 21.4568C40.8294 21.4906 40.7788 21.5429 40.7027 21.6214C40.5506 21.7783 40.2972 22.0389 39.8844 22.4632C39.5972 22.7583 39.2329 23.1328 38.7719 23.6065C37.9079 24.4944 36.7044 25.7313 35.0329 27.4495L34.9822 27.5016L34.9917 27.5736C35.0113 27.7229 35.022 27.8729 35.022 28.0237C35.022 29.9219 33.4776 31.4664 31.5793 31.4664H24.2511C23.838 31.4664 23.503 31.1316 23.503 30.7183C23.503 30.3052 23.838 29.9702 24.2511 29.9702H31.5793C32.6529 29.9702 33.5258 29.0972 33.5258 28.0237C33.5258 26.9373 32.6345 26.0775 31.5793 26.0775H21.3796C21.2764 26.0775 21.1744 26.0562 21.0797 26.0146ZM5.7 31.1836L5.69985 31.1837L2.05872 34.8354L1.95336 34.941L2.05847 35.0469L10.8839 43.9397L10.9891 44.0458L11.0956 43.9409L14.808 40.2836L14.8088 40.2829C15.2006 39.891 15.223 39.224 14.8039 38.8048L14.8038 38.8048C11.5649 35.5704 9.69784 33.6996 8.61302 32.6126C8.34632 32.3453 8.12691 32.1255 7.946 31.9444C7.4884 31.4863 7.27576 31.2747 7.16796 31.1719C7.11491 31.1213 7.08218 31.0922 7.05559 31.0724C7.03444 31.0567 7.00875 31.0422 6.99954 31.037C6.99806 31.0362 6.997 31.0356 6.99646 31.0353C6.57663 30.7762 6.04553 30.838 5.7 31.1836Z" stroke="#17E200" stroke-width="0.3"/>
</svg>
