<svg width="24" height="26" viewBox="0 0 24 26" fill="none" xmlns="http://www.w3.org/2000/svg">
<path d="M12.0001 19.9067C7.3518 19.9067 3.57019 16.125 3.57019 11.4768C3.57019 6.82861 7.3518 3.04695 12.0001 3.04695C16.6483 3.04695 20.4299 6.82861 20.4299 11.4768C20.4299 16.125 16.6483 19.9067 12.0001 19.9067ZM12.0001 4.57042C8.19184 4.57042 5.09366 7.66865 5.09366 11.4768C5.09366 15.285 8.19184 18.3832 12.0001 18.3832C15.8082 18.3832 18.9065 15.285 18.9065 11.4768C18.9065 7.66865 15.8082 4.57042 12.0001 4.57042Z" fill="#FFC400"/>
<path d="M12.7618 13.762H11.2383V10.7151H12.0001C12.8541 10.7151 13.5489 10.0202 13.5489 9.16623C13.5489 8.31222 12.8541 7.61737 12.0001 7.61737C11.146 7.61737 10.4512 8.31222 10.4512 9.16623H8.92773C8.92773 7.47218 10.306 6.09389 12.0001 6.09389C13.6941 6.09389 15.0724 7.47218 15.0724 9.16623C15.0724 10.5975 14.0886 11.8033 12.7618 12.143V13.762Z" fill="#00FE01"/>
<path d="M11.2383 15.2855H12.7617V16.8089H11.2383V15.2855Z" fill="#FFC400"/>
<path d="M12 26L8.91878 22.535C3.96349 21.1588 0.523193 16.6453 0.523193 11.4768C0.523193 8.41123 1.71698 5.52918 3.88468 3.36144C6.05232 1.19379 8.93442 0 12 0C15.0656 0 17.9476 1.19379 20.1154 3.36144C22.2831 5.52918 23.4768 8.41118 23.4768 11.4768C23.4768 16.6453 20.0365 21.1588 15.0812 22.535L12 26ZM12 1.52347C6.5117 1.52347 2.04666 5.98851 2.04666 11.4768C2.04666 16.028 5.12184 19.9935 9.52492 21.12L9.7506 21.1777L12 23.7074L14.2495 21.1777L14.4751 21.12C18.8782 19.9935 21.9533 16.028 21.9533 11.4768C21.9533 5.98851 17.4883 1.52347 12 1.52347Z" fill="#FFC400"/>
</svg>
